G04 #@! TF.GenerationSoftware,KiCad,Pcbnew,(5.0.1-3-g963ef8bb5)*
G04 #@! TF.CreationDate,2019-01-09T17:43:23-05:00*
G04 #@! TF.ProjectId,Tympan_AIC_Shield,54796D70616E5F4149435F536869656C,rev?*
G04 #@! TF.SameCoordinates,PX6d878d0PY5279480*
G04 #@! TF.FileFunction,Soldermask,Top*
G04 #@! TF.FilePolarity,Negative*
%FSLAX46Y46*%
G04 Gerber Fmt 4.6, Leading zero omitted, Abs format (unit mm)*
G04 Created by KiCad (PCBNEW (5.0.1-3-g963ef8bb5)) date Wednesday, January 09, 2019 at 05:43:23 PM*
%MOMM*%
%LPD*%
G01*
G04 APERTURE LIST*
%ADD10C,0.100000*%
G04 APERTURE END LIST*
D10*
G36*
X36328707Y3042404D02*
X36405836Y3034807D01*
X36537787Y2994780D01*
X36603763Y2974767D01*
X36786172Y2877267D01*
X36946054Y2746054D01*
X37077267Y2586172D01*
X37174767Y2403763D01*
X37174767Y2403762D01*
X37234807Y2205836D01*
X37255080Y2000000D01*
X37234807Y1794164D01*
X37194780Y1662213D01*
X37174767Y1596237D01*
X37077267Y1413828D01*
X36946054Y1253946D01*
X36786172Y1122733D01*
X36603763Y1025233D01*
X36537787Y1005220D01*
X36405836Y965193D01*
X36328707Y957597D01*
X36251580Y950000D01*
X36148420Y950000D01*
X36071293Y957597D01*
X35994164Y965193D01*
X35862213Y1005220D01*
X35796237Y1025233D01*
X35613828Y1122733D01*
X35453946Y1253946D01*
X35322733Y1413828D01*
X35225233Y1596237D01*
X35205220Y1662213D01*
X35165193Y1794164D01*
X35144920Y2000000D01*
X35165193Y2205836D01*
X35225233Y2403762D01*
X35225233Y2403763D01*
X35322733Y2586172D01*
X35453946Y2746054D01*
X35613828Y2877267D01*
X35796237Y2974767D01*
X35862213Y2994780D01*
X35994164Y3034807D01*
X36071293Y3042404D01*
X36148420Y3050000D01*
X36251580Y3050000D01*
X36328707Y3042404D01*
X36328707Y3042404D01*
G37*
G36*
X33628707Y3042404D02*
X33705836Y3034807D01*
X33837787Y2994780D01*
X33903763Y2974767D01*
X34086172Y2877267D01*
X34246054Y2746054D01*
X34377267Y2586172D01*
X34474767Y2403763D01*
X34474767Y2403762D01*
X34534807Y2205836D01*
X34555080Y2000000D01*
X34534807Y1794164D01*
X34494780Y1662213D01*
X34474767Y1596237D01*
X34377267Y1413828D01*
X34246054Y1253946D01*
X34086172Y1122733D01*
X33903763Y1025233D01*
X33837787Y1005220D01*
X33705836Y965193D01*
X33628707Y957597D01*
X33551580Y950000D01*
X33448420Y950000D01*
X33371293Y957597D01*
X33294164Y965193D01*
X33162213Y1005220D01*
X33096237Y1025233D01*
X32913828Y1122733D01*
X32753946Y1253946D01*
X32622733Y1413828D01*
X32525233Y1596237D01*
X32505220Y1662213D01*
X32465193Y1794164D01*
X32444920Y2000000D01*
X32465193Y2205836D01*
X32525233Y2403762D01*
X32525233Y2403763D01*
X32622733Y2586172D01*
X32753946Y2746054D01*
X32913828Y2877267D01*
X33096237Y2974767D01*
X33162213Y2994780D01*
X33294164Y3034807D01*
X33371293Y3042404D01*
X33448420Y3050000D01*
X33551580Y3050000D01*
X33628707Y3042404D01*
X33628707Y3042404D01*
G37*
G36*
X7178707Y3042404D02*
X7255836Y3034807D01*
X7387787Y2994780D01*
X7453763Y2974767D01*
X7636172Y2877267D01*
X7796054Y2746054D01*
X7927267Y2586172D01*
X8024767Y2403763D01*
X8024767Y2403762D01*
X8084807Y2205836D01*
X8105080Y2000000D01*
X8084807Y1794164D01*
X8044780Y1662213D01*
X8024767Y1596237D01*
X7927267Y1413828D01*
X7796054Y1253946D01*
X7636172Y1122733D01*
X7453763Y1025233D01*
X7387787Y1005220D01*
X7255836Y965193D01*
X7178707Y957597D01*
X7101580Y950000D01*
X6998420Y950000D01*
X6921293Y957597D01*
X6844164Y965193D01*
X6712213Y1005220D01*
X6646237Y1025233D01*
X6463828Y1122733D01*
X6303946Y1253946D01*
X6172733Y1413828D01*
X6075233Y1596237D01*
X6055220Y1662213D01*
X6015193Y1794164D01*
X5994920Y2000000D01*
X6015193Y2205836D01*
X6075233Y2403762D01*
X6075233Y2403763D01*
X6172733Y2586172D01*
X6303946Y2746054D01*
X6463828Y2877267D01*
X6646237Y2974767D01*
X6712213Y2994780D01*
X6844164Y3034807D01*
X6921293Y3042404D01*
X6998420Y3050000D01*
X7101580Y3050000D01*
X7178707Y3042404D01*
X7178707Y3042404D01*
G37*
G36*
X4528707Y3042404D02*
X4605836Y3034807D01*
X4737787Y2994780D01*
X4803763Y2974767D01*
X4986172Y2877267D01*
X5146054Y2746054D01*
X5277267Y2586172D01*
X5374767Y2403763D01*
X5374767Y2403762D01*
X5434807Y2205836D01*
X5455080Y2000000D01*
X5434807Y1794164D01*
X5394780Y1662213D01*
X5374767Y1596237D01*
X5277267Y1413828D01*
X5146054Y1253946D01*
X4986172Y1122733D01*
X4803763Y1025233D01*
X4737787Y1005220D01*
X4605836Y965193D01*
X4528707Y957597D01*
X4451580Y950000D01*
X4348420Y950000D01*
X4271293Y957597D01*
X4194164Y965193D01*
X4062213Y1005220D01*
X3996237Y1025233D01*
X3813828Y1122733D01*
X3653946Y1253946D01*
X3522733Y1413828D01*
X3425233Y1596237D01*
X3405220Y1662213D01*
X3365193Y1794164D01*
X3344920Y2000000D01*
X3365193Y2205836D01*
X3425233Y2403762D01*
X3425233Y2403763D01*
X3522733Y2586172D01*
X3653946Y2746054D01*
X3813828Y2877267D01*
X3996237Y2974767D01*
X4062213Y2994780D01*
X4194164Y3034807D01*
X4271293Y3042404D01*
X4348420Y3050000D01*
X4451580Y3050000D01*
X4528707Y3042404D01*
X4528707Y3042404D01*
G37*
G36*
X1878707Y3042404D02*
X1955836Y3034807D01*
X2087787Y2994780D01*
X2153763Y2974767D01*
X2336172Y2877267D01*
X2496054Y2746054D01*
X2627267Y2586172D01*
X2724767Y2403763D01*
X2724767Y2403762D01*
X2784807Y2205836D01*
X2805080Y2000000D01*
X2784807Y1794164D01*
X2744780Y1662213D01*
X2724767Y1596237D01*
X2627267Y1413828D01*
X2496054Y1253946D01*
X2336172Y1122733D01*
X2153763Y1025233D01*
X2087787Y1005220D01*
X1955836Y965193D01*
X1878707Y957597D01*
X1801580Y950000D01*
X1698420Y950000D01*
X1621293Y957597D01*
X1544164Y965193D01*
X1412213Y1005220D01*
X1346237Y1025233D01*
X1163828Y1122733D01*
X1003946Y1253946D01*
X872733Y1413828D01*
X775233Y1596237D01*
X755220Y1662213D01*
X715193Y1794164D01*
X694920Y2000000D01*
X715193Y2205836D01*
X775233Y2403762D01*
X775233Y2403763D01*
X872733Y2586172D01*
X1003946Y2746054D01*
X1163828Y2877267D01*
X1346237Y2974767D01*
X1412213Y2994780D01*
X1544164Y3034807D01*
X1621293Y3042404D01*
X1698420Y3050000D01*
X1801580Y3050000D01*
X1878707Y3042404D01*
X1878707Y3042404D01*
G37*
G36*
X7178707Y5582403D02*
X7255836Y5574807D01*
X7387787Y5534780D01*
X7453763Y5514767D01*
X7636172Y5417267D01*
X7796054Y5286054D01*
X7927267Y5126172D01*
X8024767Y4943763D01*
X8024767Y4943762D01*
X8084807Y4745836D01*
X8105080Y4540000D01*
X8084807Y4334164D01*
X8044780Y4202213D01*
X8024767Y4136237D01*
X7927267Y3953828D01*
X7796054Y3793946D01*
X7636172Y3662733D01*
X7453763Y3565233D01*
X7387787Y3545220D01*
X7255836Y3505193D01*
X7178707Y3497597D01*
X7101580Y3490000D01*
X6998420Y3490000D01*
X6921293Y3497597D01*
X6844164Y3505193D01*
X6712213Y3545220D01*
X6646237Y3565233D01*
X6463828Y3662733D01*
X6303946Y3793946D01*
X6172733Y3953828D01*
X6075233Y4136237D01*
X6055220Y4202213D01*
X6015193Y4334164D01*
X5994920Y4540000D01*
X6015193Y4745836D01*
X6075233Y4943762D01*
X6075233Y4943763D01*
X6172733Y5126172D01*
X6303946Y5286054D01*
X6463828Y5417267D01*
X6646237Y5514767D01*
X6712213Y5534780D01*
X6844164Y5574807D01*
X6921293Y5582403D01*
X6998420Y5590000D01*
X7101580Y5590000D01*
X7178707Y5582403D01*
X7178707Y5582403D01*
G37*
G36*
X36328707Y5582403D02*
X36405836Y5574807D01*
X36537787Y5534780D01*
X36603763Y5514767D01*
X36786172Y5417267D01*
X36946054Y5286054D01*
X37077267Y5126172D01*
X37174767Y4943763D01*
X37174767Y4943762D01*
X37234807Y4745836D01*
X37255080Y4540000D01*
X37234807Y4334164D01*
X37194780Y4202213D01*
X37174767Y4136237D01*
X37077267Y3953828D01*
X36946054Y3793946D01*
X36786172Y3662733D01*
X36603763Y3565233D01*
X36537787Y3545220D01*
X36405836Y3505193D01*
X36328707Y3497597D01*
X36251580Y3490000D01*
X36148420Y3490000D01*
X36071293Y3497597D01*
X35994164Y3505193D01*
X35862213Y3545220D01*
X35796237Y3565233D01*
X35613828Y3662733D01*
X35453946Y3793946D01*
X35322733Y3953828D01*
X35225233Y4136237D01*
X35205220Y4202213D01*
X35165193Y4334164D01*
X35144920Y4540000D01*
X35165193Y4745836D01*
X35225233Y4943762D01*
X35225233Y4943763D01*
X35322733Y5126172D01*
X35453946Y5286054D01*
X35613828Y5417267D01*
X35796237Y5514767D01*
X35862213Y5534780D01*
X35994164Y5574807D01*
X36071293Y5582403D01*
X36148420Y5590000D01*
X36251580Y5590000D01*
X36328707Y5582403D01*
X36328707Y5582403D01*
G37*
G36*
X4528707Y5582403D02*
X4605836Y5574807D01*
X4737787Y5534780D01*
X4803763Y5514767D01*
X4986172Y5417267D01*
X5146054Y5286054D01*
X5277267Y5126172D01*
X5374767Y4943763D01*
X5374767Y4943762D01*
X5434807Y4745836D01*
X5455080Y4540000D01*
X5434807Y4334164D01*
X5394780Y4202213D01*
X5374767Y4136237D01*
X5277267Y3953828D01*
X5146054Y3793946D01*
X4986172Y3662733D01*
X4803763Y3565233D01*
X4737787Y3545220D01*
X4605836Y3505193D01*
X4528707Y3497597D01*
X4451580Y3490000D01*
X4348420Y3490000D01*
X4271293Y3497597D01*
X4194164Y3505193D01*
X4062213Y3545220D01*
X3996237Y3565233D01*
X3813828Y3662733D01*
X3653946Y3793946D01*
X3522733Y3953828D01*
X3425233Y4136237D01*
X3405220Y4202213D01*
X3365193Y4334164D01*
X3344920Y4540000D01*
X3365193Y4745836D01*
X3425233Y4943762D01*
X3425233Y4943763D01*
X3522733Y5126172D01*
X3653946Y5286054D01*
X3813828Y5417267D01*
X3996237Y5514767D01*
X4062213Y5534780D01*
X4194164Y5574807D01*
X4271293Y5582403D01*
X4348420Y5590000D01*
X4451580Y5590000D01*
X4528707Y5582403D01*
X4528707Y5582403D01*
G37*
G36*
X33628707Y5582403D02*
X33705836Y5574807D01*
X33837787Y5534780D01*
X33903763Y5514767D01*
X34086172Y5417267D01*
X34246054Y5286054D01*
X34377267Y5126172D01*
X34474767Y4943763D01*
X34474767Y4943762D01*
X34534807Y4745836D01*
X34555080Y4540000D01*
X34534807Y4334164D01*
X34494780Y4202213D01*
X34474767Y4136237D01*
X34377267Y3953828D01*
X34246054Y3793946D01*
X34086172Y3662733D01*
X33903763Y3565233D01*
X33837787Y3545220D01*
X33705836Y3505193D01*
X33628707Y3497597D01*
X33551580Y3490000D01*
X33448420Y3490000D01*
X33371293Y3497597D01*
X33294164Y3505193D01*
X33162213Y3545220D01*
X33096237Y3565233D01*
X32913828Y3662733D01*
X32753946Y3793946D01*
X32622733Y3953828D01*
X32525233Y4136237D01*
X32505220Y4202213D01*
X32465193Y4334164D01*
X32444920Y4540000D01*
X32465193Y4745836D01*
X32525233Y4943762D01*
X32525233Y4943763D01*
X32622733Y5126172D01*
X32753946Y5286054D01*
X32913828Y5417267D01*
X33096237Y5514767D01*
X33162213Y5534780D01*
X33294164Y5574807D01*
X33371293Y5582403D01*
X33448420Y5590000D01*
X33551580Y5590000D01*
X33628707Y5582403D01*
X33628707Y5582403D01*
G37*
G36*
X1878707Y5582403D02*
X1955836Y5574807D01*
X2087787Y5534780D01*
X2153763Y5514767D01*
X2336172Y5417267D01*
X2496054Y5286054D01*
X2627267Y5126172D01*
X2724767Y4943763D01*
X2724767Y4943762D01*
X2784807Y4745836D01*
X2805080Y4540000D01*
X2784807Y4334164D01*
X2744780Y4202213D01*
X2724767Y4136237D01*
X2627267Y3953828D01*
X2496054Y3793946D01*
X2336172Y3662733D01*
X2153763Y3565233D01*
X2087787Y3545220D01*
X1955836Y3505193D01*
X1878707Y3497597D01*
X1801580Y3490000D01*
X1698420Y3490000D01*
X1621293Y3497597D01*
X1544164Y3505193D01*
X1412213Y3545220D01*
X1346237Y3565233D01*
X1163828Y3662733D01*
X1003946Y3793946D01*
X872733Y3953828D01*
X775233Y4136237D01*
X755220Y4202213D01*
X715193Y4334164D01*
X694920Y4540000D01*
X715193Y4745836D01*
X775233Y4943762D01*
X775233Y4943763D01*
X872733Y5126172D01*
X1003946Y5286054D01*
X1163828Y5417267D01*
X1346237Y5514767D01*
X1412213Y5534780D01*
X1544164Y5574807D01*
X1621293Y5582403D01*
X1698420Y5590000D01*
X1801580Y5590000D01*
X1878707Y5582403D01*
X1878707Y5582403D01*
G37*
G36*
X36328707Y8122403D02*
X36405836Y8114807D01*
X36537787Y8074780D01*
X36603763Y8054767D01*
X36786172Y7957267D01*
X36946054Y7826054D01*
X37077267Y7666172D01*
X37174767Y7483763D01*
X37174767Y7483762D01*
X37234807Y7285836D01*
X37255080Y7080000D01*
X37234807Y6874164D01*
X37194780Y6742213D01*
X37174767Y6676237D01*
X37077267Y6493828D01*
X36946054Y6333946D01*
X36786172Y6202733D01*
X36603763Y6105233D01*
X36537787Y6085220D01*
X36405836Y6045193D01*
X36328707Y6037596D01*
X36251580Y6030000D01*
X36148420Y6030000D01*
X36071293Y6037596D01*
X35994164Y6045193D01*
X35862213Y6085220D01*
X35796237Y6105233D01*
X35613828Y6202733D01*
X35453946Y6333946D01*
X35322733Y6493828D01*
X35225233Y6676237D01*
X35205220Y6742213D01*
X35165193Y6874164D01*
X35144920Y7080000D01*
X35165193Y7285836D01*
X35225233Y7483762D01*
X35225233Y7483763D01*
X35322733Y7666172D01*
X35453946Y7826054D01*
X35613828Y7957267D01*
X35796237Y8054767D01*
X35862213Y8074780D01*
X35994164Y8114807D01*
X36071293Y8122403D01*
X36148420Y8130000D01*
X36251580Y8130000D01*
X36328707Y8122403D01*
X36328707Y8122403D01*
G37*
G36*
X4528707Y8122403D02*
X4605836Y8114807D01*
X4737787Y8074780D01*
X4803763Y8054767D01*
X4986172Y7957267D01*
X5146054Y7826054D01*
X5277267Y7666172D01*
X5374767Y7483763D01*
X5374767Y7483762D01*
X5434807Y7285836D01*
X5455080Y7080000D01*
X5434807Y6874164D01*
X5394780Y6742213D01*
X5374767Y6676237D01*
X5277267Y6493828D01*
X5146054Y6333946D01*
X4986172Y6202733D01*
X4803763Y6105233D01*
X4737787Y6085220D01*
X4605836Y6045193D01*
X4528707Y6037596D01*
X4451580Y6030000D01*
X4348420Y6030000D01*
X4271293Y6037596D01*
X4194164Y6045193D01*
X4062213Y6085220D01*
X3996237Y6105233D01*
X3813828Y6202733D01*
X3653946Y6333946D01*
X3522733Y6493828D01*
X3425233Y6676237D01*
X3405220Y6742213D01*
X3365193Y6874164D01*
X3344920Y7080000D01*
X3365193Y7285836D01*
X3425233Y7483762D01*
X3425233Y7483763D01*
X3522733Y7666172D01*
X3653946Y7826054D01*
X3813828Y7957267D01*
X3996237Y8054767D01*
X4062213Y8074780D01*
X4194164Y8114807D01*
X4271293Y8122403D01*
X4348420Y8130000D01*
X4451580Y8130000D01*
X4528707Y8122403D01*
X4528707Y8122403D01*
G37*
G36*
X33628707Y8122403D02*
X33705836Y8114807D01*
X33837787Y8074780D01*
X33903763Y8054767D01*
X34086172Y7957267D01*
X34246054Y7826054D01*
X34377267Y7666172D01*
X34474767Y7483763D01*
X34474767Y7483762D01*
X34534807Y7285836D01*
X34555080Y7080000D01*
X34534807Y6874164D01*
X34494780Y6742213D01*
X34474767Y6676237D01*
X34377267Y6493828D01*
X34246054Y6333946D01*
X34086172Y6202733D01*
X33903763Y6105233D01*
X33837787Y6085220D01*
X33705836Y6045193D01*
X33628707Y6037596D01*
X33551580Y6030000D01*
X33448420Y6030000D01*
X33371293Y6037596D01*
X33294164Y6045193D01*
X33162213Y6085220D01*
X33096237Y6105233D01*
X32913828Y6202733D01*
X32753946Y6333946D01*
X32622733Y6493828D01*
X32525233Y6676237D01*
X32505220Y6742213D01*
X32465193Y6874164D01*
X32444920Y7080000D01*
X32465193Y7285836D01*
X32525233Y7483762D01*
X32525233Y7483763D01*
X32622733Y7666172D01*
X32753946Y7826054D01*
X32913828Y7957267D01*
X33096237Y8054767D01*
X33162213Y8074780D01*
X33294164Y8114807D01*
X33371293Y8122403D01*
X33448420Y8130000D01*
X33551580Y8130000D01*
X33628707Y8122403D01*
X33628707Y8122403D01*
G37*
G36*
X1878707Y8122403D02*
X1955836Y8114807D01*
X2087787Y8074780D01*
X2153763Y8054767D01*
X2336172Y7957267D01*
X2496054Y7826054D01*
X2627267Y7666172D01*
X2724767Y7483763D01*
X2724767Y7483762D01*
X2784807Y7285836D01*
X2805080Y7080000D01*
X2784807Y6874164D01*
X2744780Y6742213D01*
X2724767Y6676237D01*
X2627267Y6493828D01*
X2496054Y6333946D01*
X2336172Y6202733D01*
X2153763Y6105233D01*
X2087787Y6085220D01*
X1955836Y6045193D01*
X1878707Y6037596D01*
X1801580Y6030000D01*
X1698420Y6030000D01*
X1621293Y6037596D01*
X1544164Y6045193D01*
X1412213Y6085220D01*
X1346237Y6105233D01*
X1163828Y6202733D01*
X1003946Y6333946D01*
X872733Y6493828D01*
X775233Y6676237D01*
X755220Y6742213D01*
X715193Y6874164D01*
X694920Y7080000D01*
X715193Y7285836D01*
X775233Y7483762D01*
X775233Y7483763D01*
X872733Y7666172D01*
X1003946Y7826054D01*
X1163828Y7957267D01*
X1346237Y8054767D01*
X1412213Y8074780D01*
X1544164Y8114807D01*
X1621293Y8122403D01*
X1698420Y8130000D01*
X1801580Y8130000D01*
X1878707Y8122403D01*
X1878707Y8122403D01*
G37*
G36*
X7178707Y8122403D02*
X7255836Y8114807D01*
X7387787Y8074780D01*
X7453763Y8054767D01*
X7636172Y7957267D01*
X7796054Y7826054D01*
X7927267Y7666172D01*
X8024767Y7483763D01*
X8024767Y7483762D01*
X8084807Y7285836D01*
X8105080Y7080000D01*
X8084807Y6874164D01*
X8044780Y6742213D01*
X8024767Y6676237D01*
X7927267Y6493828D01*
X7796054Y6333946D01*
X7636172Y6202733D01*
X7453763Y6105233D01*
X7387787Y6085220D01*
X7255836Y6045193D01*
X7178707Y6037596D01*
X7101580Y6030000D01*
X6998420Y6030000D01*
X6921293Y6037596D01*
X6844164Y6045193D01*
X6712213Y6085220D01*
X6646237Y6105233D01*
X6463828Y6202733D01*
X6303946Y6333946D01*
X6172733Y6493828D01*
X6075233Y6676237D01*
X6055220Y6742213D01*
X6015193Y6874164D01*
X5994920Y7080000D01*
X6015193Y7285836D01*
X6075233Y7483762D01*
X6075233Y7483763D01*
X6172733Y7666172D01*
X6303946Y7826054D01*
X6463828Y7957267D01*
X6646237Y8054767D01*
X6712213Y8074780D01*
X6844164Y8114807D01*
X6921293Y8122403D01*
X6998420Y8130000D01*
X7101580Y8130000D01*
X7178707Y8122403D01*
X7178707Y8122403D01*
G37*
G36*
X21425000Y6075000D02*
X15675000Y6075000D01*
X15675000Y7775000D01*
X21425000Y7775000D01*
X21425000Y6075000D01*
X21425000Y6075000D01*
G37*
G36*
X22800600Y6440700D02*
X21900600Y6440700D01*
X21900600Y8540700D01*
X22800600Y8540700D01*
X22800600Y6440700D01*
X22800600Y6440700D01*
G37*
G36*
X24096000Y6440700D02*
X23196000Y6440700D01*
X23196000Y8540700D01*
X24096000Y8540700D01*
X24096000Y6440700D01*
X24096000Y6440700D01*
G37*
G36*
X14717900Y8883800D02*
X14720302Y8859414D01*
X14727415Y8835965D01*
X14738966Y8814354D01*
X14746400Y8805296D01*
X14746400Y6880900D01*
X12646400Y6880900D01*
X12646400Y8781223D01*
X12663688Y8795412D01*
X12679234Y8814354D01*
X12690785Y8835965D01*
X12697898Y8859414D01*
X12700300Y8883800D01*
X12700300Y11060600D01*
X14717900Y11060600D01*
X14717900Y8883800D01*
X14717900Y8883800D01*
G37*
G36*
X20444600Y13658000D02*
X20447002Y13633614D01*
X20454115Y13610165D01*
X20465666Y13588554D01*
X20481212Y13569612D01*
X20500154Y13554066D01*
X20521765Y13542515D01*
X20545214Y13535402D01*
X20569600Y13533000D01*
X21419600Y13533000D01*
X21419600Y9333000D01*
X20569600Y9333000D01*
X20545214Y9330598D01*
X20521765Y9323485D01*
X20500154Y9311934D01*
X20481212Y9296388D01*
X20465666Y9277446D01*
X20454115Y9255835D01*
X20447002Y9232386D01*
X20444600Y9208000D01*
X20444600Y8358000D01*
X16244600Y8358000D01*
X16244600Y9208000D01*
X16242198Y9232386D01*
X16235085Y9255835D01*
X16223534Y9277446D01*
X16207988Y9296388D01*
X16189046Y9311934D01*
X16167435Y9323485D01*
X16143986Y9330598D01*
X16119600Y9333000D01*
X15269600Y9333000D01*
X15269600Y13533000D01*
X16119600Y13533000D01*
X16143986Y13535402D01*
X16167435Y13542515D01*
X16189046Y13554066D01*
X16207988Y13569612D01*
X16223534Y13588554D01*
X16235085Y13610165D01*
X16242198Y13633614D01*
X16244600Y13658000D01*
X16244600Y14508000D01*
X20444600Y14508000D01*
X20444600Y13658000D01*
X20444600Y13658000D01*
G37*
G36*
X4528707Y10662403D02*
X4605836Y10654807D01*
X4737787Y10614780D01*
X4803763Y10594767D01*
X4986172Y10497267D01*
X5146054Y10366054D01*
X5277267Y10206172D01*
X5374767Y10023763D01*
X5374767Y10023762D01*
X5434807Y9825836D01*
X5455080Y9620000D01*
X5434807Y9414164D01*
X5407300Y9323485D01*
X5374767Y9216237D01*
X5277267Y9033828D01*
X5146054Y8873946D01*
X4986172Y8742733D01*
X4803763Y8645233D01*
X4737787Y8625220D01*
X4605836Y8585193D01*
X4528707Y8577597D01*
X4451580Y8570000D01*
X4348420Y8570000D01*
X4271293Y8577597D01*
X4194164Y8585193D01*
X4062213Y8625220D01*
X3996237Y8645233D01*
X3813828Y8742733D01*
X3653946Y8873946D01*
X3522733Y9033828D01*
X3425233Y9216237D01*
X3392700Y9323485D01*
X3365193Y9414164D01*
X3344920Y9620000D01*
X3365193Y9825836D01*
X3425233Y10023762D01*
X3425233Y10023763D01*
X3522733Y10206172D01*
X3653946Y10366054D01*
X3813828Y10497267D01*
X3996237Y10594767D01*
X4062213Y10614780D01*
X4194164Y10654807D01*
X4271293Y10662403D01*
X4348420Y10670000D01*
X4451580Y10670000D01*
X4528707Y10662403D01*
X4528707Y10662403D01*
G37*
G36*
X36328707Y10662403D02*
X36405836Y10654807D01*
X36537787Y10614780D01*
X36603763Y10594767D01*
X36786172Y10497267D01*
X36946054Y10366054D01*
X37077267Y10206172D01*
X37174767Y10023763D01*
X37174767Y10023762D01*
X37234807Y9825836D01*
X37255080Y9620000D01*
X37234807Y9414164D01*
X37207300Y9323485D01*
X37174767Y9216237D01*
X37077267Y9033828D01*
X36946054Y8873946D01*
X36786172Y8742733D01*
X36603763Y8645233D01*
X36537787Y8625220D01*
X36405836Y8585193D01*
X36328707Y8577597D01*
X36251580Y8570000D01*
X36148420Y8570000D01*
X36071293Y8577597D01*
X35994164Y8585193D01*
X35862213Y8625220D01*
X35796237Y8645233D01*
X35613828Y8742733D01*
X35453946Y8873946D01*
X35322733Y9033828D01*
X35225233Y9216237D01*
X35192700Y9323485D01*
X35165193Y9414164D01*
X35144920Y9620000D01*
X35165193Y9825836D01*
X35225233Y10023762D01*
X35225233Y10023763D01*
X35322733Y10206172D01*
X35453946Y10366054D01*
X35613828Y10497267D01*
X35796237Y10594767D01*
X35862213Y10614780D01*
X35994164Y10654807D01*
X36071293Y10662403D01*
X36148420Y10670000D01*
X36251580Y10670000D01*
X36328707Y10662403D01*
X36328707Y10662403D01*
G37*
G36*
X7178707Y10662403D02*
X7255836Y10654807D01*
X7387787Y10614780D01*
X7453763Y10594767D01*
X7636172Y10497267D01*
X7796054Y10366054D01*
X7927267Y10206172D01*
X8024767Y10023763D01*
X8024767Y10023762D01*
X8084807Y9825836D01*
X8105080Y9620000D01*
X8084807Y9414164D01*
X8057300Y9323485D01*
X8024767Y9216237D01*
X7927267Y9033828D01*
X7796054Y8873946D01*
X7636172Y8742733D01*
X7453763Y8645233D01*
X7387787Y8625220D01*
X7255836Y8585193D01*
X7178707Y8577597D01*
X7101580Y8570000D01*
X6998420Y8570000D01*
X6921293Y8577597D01*
X6844164Y8585193D01*
X6712213Y8625220D01*
X6646237Y8645233D01*
X6463828Y8742733D01*
X6303946Y8873946D01*
X6172733Y9033828D01*
X6075233Y9216237D01*
X6042700Y9323485D01*
X6015193Y9414164D01*
X5994920Y9620000D01*
X6015193Y9825836D01*
X6075233Y10023762D01*
X6075233Y10023763D01*
X6172733Y10206172D01*
X6303946Y10366054D01*
X6463828Y10497267D01*
X6646237Y10594767D01*
X6712213Y10614780D01*
X6844164Y10654807D01*
X6921293Y10662403D01*
X6998420Y10670000D01*
X7101580Y10670000D01*
X7178707Y10662403D01*
X7178707Y10662403D01*
G37*
G36*
X33628707Y10662403D02*
X33705836Y10654807D01*
X33837787Y10614780D01*
X33903763Y10594767D01*
X34086172Y10497267D01*
X34246054Y10366054D01*
X34377267Y10206172D01*
X34474767Y10023763D01*
X34474767Y10023762D01*
X34534807Y9825836D01*
X34555080Y9620000D01*
X34534807Y9414164D01*
X34507300Y9323485D01*
X34474767Y9216237D01*
X34377267Y9033828D01*
X34246054Y8873946D01*
X34086172Y8742733D01*
X33903763Y8645233D01*
X33837787Y8625220D01*
X33705836Y8585193D01*
X33628707Y8577597D01*
X33551580Y8570000D01*
X33448420Y8570000D01*
X33371293Y8577597D01*
X33294164Y8585193D01*
X33162213Y8625220D01*
X33096237Y8645233D01*
X32913828Y8742733D01*
X32753946Y8873946D01*
X32622733Y9033828D01*
X32525233Y9216237D01*
X32492700Y9323485D01*
X32465193Y9414164D01*
X32444920Y9620000D01*
X32465193Y9825836D01*
X32525233Y10023762D01*
X32525233Y10023763D01*
X32622733Y10206172D01*
X32753946Y10366054D01*
X32913828Y10497267D01*
X33096237Y10594767D01*
X33162213Y10614780D01*
X33294164Y10654807D01*
X33371293Y10662403D01*
X33448420Y10670000D01*
X33551580Y10670000D01*
X33628707Y10662403D01*
X33628707Y10662403D01*
G37*
G36*
X1878707Y10662403D02*
X1955836Y10654807D01*
X2087787Y10614780D01*
X2153763Y10594767D01*
X2336172Y10497267D01*
X2496054Y10366054D01*
X2627267Y10206172D01*
X2724767Y10023763D01*
X2724767Y10023762D01*
X2784807Y9825836D01*
X2805080Y9620000D01*
X2784807Y9414164D01*
X2757300Y9323485D01*
X2724767Y9216237D01*
X2627267Y9033828D01*
X2496054Y8873946D01*
X2336172Y8742733D01*
X2153763Y8645233D01*
X2087787Y8625220D01*
X1955836Y8585193D01*
X1878707Y8577597D01*
X1801580Y8570000D01*
X1698420Y8570000D01*
X1621293Y8577597D01*
X1544164Y8585193D01*
X1412213Y8625220D01*
X1346237Y8645233D01*
X1163828Y8742733D01*
X1003946Y8873946D01*
X872733Y9033828D01*
X775233Y9216237D01*
X742700Y9323485D01*
X715193Y9414164D01*
X694920Y9620000D01*
X715193Y9825836D01*
X775233Y10023762D01*
X775233Y10023763D01*
X872733Y10206172D01*
X1003946Y10366054D01*
X1163828Y10497267D01*
X1346237Y10594767D01*
X1412213Y10614780D01*
X1544164Y10654807D01*
X1621293Y10662403D01*
X1698420Y10670000D01*
X1801580Y10670000D01*
X1878707Y10662403D01*
X1878707Y10662403D01*
G37*
G36*
X23779300Y9447100D02*
X22079300Y9447100D01*
X22079300Y11400000D01*
X23779300Y11400000D01*
X23779300Y9447100D01*
X23779300Y9447100D01*
G37*
G36*
X36328707Y13202403D02*
X36405836Y13194807D01*
X36537787Y13154780D01*
X36603763Y13134767D01*
X36786172Y13037267D01*
X36946054Y12906054D01*
X37077267Y12746172D01*
X37174767Y12563763D01*
X37174767Y12563762D01*
X37234807Y12365836D01*
X37255080Y12160000D01*
X37234807Y11954164D01*
X37194780Y11822213D01*
X37174767Y11756237D01*
X37077267Y11573828D01*
X36946054Y11413946D01*
X36786172Y11282733D01*
X36603763Y11185233D01*
X36537787Y11165220D01*
X36405836Y11125193D01*
X36328707Y11117596D01*
X36251580Y11110000D01*
X36148420Y11110000D01*
X36071293Y11117596D01*
X35994164Y11125193D01*
X35862213Y11165220D01*
X35796237Y11185233D01*
X35613828Y11282733D01*
X35453946Y11413946D01*
X35322733Y11573828D01*
X35225233Y11756237D01*
X35205220Y11822213D01*
X35165193Y11954164D01*
X35144920Y12160000D01*
X35165193Y12365836D01*
X35225233Y12563762D01*
X35225233Y12563763D01*
X35322733Y12746172D01*
X35453946Y12906054D01*
X35613828Y13037267D01*
X35796237Y13134767D01*
X35862213Y13154780D01*
X35994164Y13194807D01*
X36071293Y13202403D01*
X36148420Y13210000D01*
X36251580Y13210000D01*
X36328707Y13202403D01*
X36328707Y13202403D01*
G37*
G36*
X4528707Y13202403D02*
X4605836Y13194807D01*
X4737787Y13154780D01*
X4803763Y13134767D01*
X4986172Y13037267D01*
X5146054Y12906054D01*
X5277267Y12746172D01*
X5374767Y12563763D01*
X5374767Y12563762D01*
X5434807Y12365836D01*
X5455080Y12160000D01*
X5434807Y11954164D01*
X5394780Y11822213D01*
X5374767Y11756237D01*
X5277267Y11573828D01*
X5146054Y11413946D01*
X4986172Y11282733D01*
X4803763Y11185233D01*
X4737787Y11165220D01*
X4605836Y11125193D01*
X4528707Y11117596D01*
X4451580Y11110000D01*
X4348420Y11110000D01*
X4271293Y11117596D01*
X4194164Y11125193D01*
X4062213Y11165220D01*
X3996237Y11185233D01*
X3813828Y11282733D01*
X3653946Y11413946D01*
X3522733Y11573828D01*
X3425233Y11756237D01*
X3405220Y11822213D01*
X3365193Y11954164D01*
X3344920Y12160000D01*
X3365193Y12365836D01*
X3425233Y12563762D01*
X3425233Y12563763D01*
X3522733Y12746172D01*
X3653946Y12906054D01*
X3813828Y13037267D01*
X3996237Y13134767D01*
X4062213Y13154780D01*
X4194164Y13194807D01*
X4271293Y13202403D01*
X4348420Y13210000D01*
X4451580Y13210000D01*
X4528707Y13202403D01*
X4528707Y13202403D01*
G37*
G36*
X7178707Y13202403D02*
X7255836Y13194807D01*
X7387787Y13154780D01*
X7453763Y13134767D01*
X7636172Y13037267D01*
X7796054Y12906054D01*
X7927267Y12746172D01*
X8024767Y12563763D01*
X8024767Y12563762D01*
X8084807Y12365836D01*
X8105080Y12160000D01*
X8084807Y11954164D01*
X8044780Y11822213D01*
X8024767Y11756237D01*
X7927267Y11573828D01*
X7796054Y11413946D01*
X7636172Y11282733D01*
X7453763Y11185233D01*
X7387787Y11165220D01*
X7255836Y11125193D01*
X7178707Y11117596D01*
X7101580Y11110000D01*
X6998420Y11110000D01*
X6921293Y11117596D01*
X6844164Y11125193D01*
X6712213Y11165220D01*
X6646237Y11185233D01*
X6463828Y11282733D01*
X6303946Y11413946D01*
X6172733Y11573828D01*
X6075233Y11756237D01*
X6055220Y11822213D01*
X6015193Y11954164D01*
X5994920Y12160000D01*
X6015193Y12365836D01*
X6075233Y12563762D01*
X6075233Y12563763D01*
X6172733Y12746172D01*
X6303946Y12906054D01*
X6463828Y13037267D01*
X6646237Y13134767D01*
X6712213Y13154780D01*
X6844164Y13194807D01*
X6921293Y13202403D01*
X6998420Y13210000D01*
X7101580Y13210000D01*
X7178707Y13202403D01*
X7178707Y13202403D01*
G37*
G36*
X33628707Y13202403D02*
X33705836Y13194807D01*
X33837787Y13154780D01*
X33903763Y13134767D01*
X34086172Y13037267D01*
X34246054Y12906054D01*
X34377267Y12746172D01*
X34474767Y12563763D01*
X34474767Y12563762D01*
X34534807Y12365836D01*
X34555080Y12160000D01*
X34534807Y11954164D01*
X34494780Y11822213D01*
X34474767Y11756237D01*
X34377267Y11573828D01*
X34246054Y11413946D01*
X34086172Y11282733D01*
X33903763Y11185233D01*
X33837787Y11165220D01*
X33705836Y11125193D01*
X33628707Y11117596D01*
X33551580Y11110000D01*
X33448420Y11110000D01*
X33371293Y11117596D01*
X33294164Y11125193D01*
X33162213Y11165220D01*
X33096237Y11185233D01*
X32913828Y11282733D01*
X32753946Y11413946D01*
X32622733Y11573828D01*
X32525233Y11756237D01*
X32505220Y11822213D01*
X32465193Y11954164D01*
X32444920Y12160000D01*
X32465193Y12365836D01*
X32525233Y12563762D01*
X32525233Y12563763D01*
X32622733Y12746172D01*
X32753946Y12906054D01*
X32913828Y13037267D01*
X33096237Y13134767D01*
X33162213Y13154780D01*
X33294164Y13194807D01*
X33371293Y13202403D01*
X33448420Y13210000D01*
X33551580Y13210000D01*
X33628707Y13202403D01*
X33628707Y13202403D01*
G37*
G36*
X1878707Y13202403D02*
X1955836Y13194807D01*
X2087787Y13154780D01*
X2153763Y13134767D01*
X2336172Y13037267D01*
X2496054Y12906054D01*
X2627267Y12746172D01*
X2724767Y12563763D01*
X2724767Y12563762D01*
X2784807Y12365836D01*
X2805080Y12160000D01*
X2784807Y11954164D01*
X2744780Y11822213D01*
X2724767Y11756237D01*
X2627267Y11573828D01*
X2496054Y11413946D01*
X2336172Y11282733D01*
X2153763Y11185233D01*
X2087787Y11165220D01*
X1955836Y11125193D01*
X1878707Y11117596D01*
X1801580Y11110000D01*
X1698420Y11110000D01*
X1621293Y11117596D01*
X1544164Y11125193D01*
X1412213Y11165220D01*
X1346237Y11185233D01*
X1163828Y11282733D01*
X1003946Y11413946D01*
X872733Y11573828D01*
X775233Y11756237D01*
X755220Y11822213D01*
X715193Y11954164D01*
X694920Y12160000D01*
X715193Y12365836D01*
X775233Y12563762D01*
X775233Y12563763D01*
X872733Y12746172D01*
X1003946Y12906054D01*
X1163828Y13037267D01*
X1346237Y13134767D01*
X1412213Y13154780D01*
X1544164Y13194807D01*
X1621293Y13202403D01*
X1698420Y13210000D01*
X1801580Y13210000D01*
X1878707Y13202403D01*
X1878707Y13202403D01*
G37*
G36*
X14650000Y13350000D02*
X12550000Y13350000D01*
X12550000Y14250000D01*
X14650000Y14250000D01*
X14650000Y13350000D01*
X14650000Y13350000D01*
G37*
G36*
X37250000Y13650000D02*
X35150000Y13650000D01*
X35150000Y15750000D01*
X37250000Y15750000D01*
X37250000Y13650000D01*
X37250000Y13650000D01*
G37*
G36*
X34550000Y13650000D02*
X32450000Y13650000D01*
X32450000Y15750000D01*
X34550000Y15750000D01*
X34550000Y13650000D01*
X34550000Y13650000D01*
G37*
G36*
X8100000Y13650000D02*
X6000000Y13650000D01*
X6000000Y15750000D01*
X8100000Y15750000D01*
X8100000Y13650000D01*
X8100000Y13650000D01*
G37*
G36*
X5450000Y13650000D02*
X3350000Y13650000D01*
X3350000Y15750000D01*
X5450000Y15750000D01*
X5450000Y13650000D01*
X5450000Y13650000D01*
G37*
G36*
X2800000Y13650000D02*
X700000Y13650000D01*
X700000Y15750000D01*
X2800000Y15750000D01*
X2800000Y13650000D01*
X2800000Y13650000D01*
G37*
G36*
X21050000Y15450000D02*
X20150000Y15450000D01*
X20150000Y17550000D01*
X21050000Y17550000D01*
X21050000Y15450000D01*
X21050000Y15450000D01*
G37*
G36*
X15645000Y15932900D02*
X13690900Y15932900D01*
X13690900Y18032900D01*
X15645000Y18032900D01*
X15645000Y15932900D01*
X15645000Y15932900D01*
G37*
G36*
X25075000Y16700000D02*
X24025000Y16700000D01*
X24025000Y17500000D01*
X25075000Y17500000D01*
X25075000Y16700000D01*
X25075000Y16700000D01*
G37*
G36*
X23175000Y16700000D02*
X22125000Y16700000D01*
X22125000Y18800000D01*
X23175000Y18800000D01*
X23175000Y16700000D01*
X23175000Y16700000D01*
G37*
G36*
X25075000Y18000000D02*
X24025000Y18000000D01*
X24025000Y18800000D01*
X25075000Y18800000D01*
X25075000Y18000000D01*
X25075000Y18000000D01*
G37*
G36*
X4050000Y18300000D02*
X1950000Y18300000D01*
X1950000Y20200000D01*
X4050000Y20200000D01*
X4050000Y18300000D01*
X4050000Y18300000D01*
G37*
G36*
X36050000Y18300000D02*
X33950000Y18300000D01*
X33950000Y20200000D01*
X36050000Y20200000D01*
X36050000Y18300000D01*
X36050000Y18300000D01*
G37*
G36*
X19050000Y18450000D02*
X17250000Y18450000D01*
X17250000Y20550000D01*
X19050000Y20550000D01*
X19050000Y18450000D01*
X19050000Y18450000D01*
G37*
G36*
X20750000Y19150000D02*
X19600000Y19150000D01*
X19600000Y20350000D01*
X20750000Y20350000D01*
X20750000Y19150000D01*
X20750000Y19150000D01*
G37*
G36*
X15375000Y19225000D02*
X14225000Y19225000D01*
X14225000Y20425000D01*
X15375000Y20425000D01*
X15375000Y19225000D01*
X15375000Y19225000D01*
G37*
G36*
X20750000Y20650000D02*
X19600000Y20650000D01*
X19600000Y21850000D01*
X20750000Y21850000D01*
X20750000Y20650000D01*
X20750000Y20650000D01*
G37*
G36*
X15375000Y20725000D02*
X14225000Y20725000D01*
X14225000Y21925000D01*
X15375000Y21925000D01*
X15375000Y20725000D01*
X15375000Y20725000D01*
G37*
G36*
X10950000Y22800000D02*
X7750000Y22800000D01*
X7750000Y26000000D01*
X10950000Y26000000D01*
X10950000Y22800000D01*
X10950000Y22800000D01*
G37*
G36*
X20150000Y25975000D02*
X18950000Y25975000D01*
X18950000Y31025000D01*
X20150000Y31025000D01*
X20150000Y25975000D01*
X20150000Y25975000D01*
G37*
G36*
X18650000Y25975000D02*
X17450000Y25975000D01*
X17450000Y31025000D01*
X18650000Y31025000D01*
X18650000Y25975000D01*
X18650000Y25975000D01*
G37*
G36*
X6000000Y26700000D02*
X2800000Y26700000D01*
X2800000Y29900000D01*
X6000000Y29900000D01*
X6000000Y26700000D01*
X6000000Y26700000D01*
G37*
G36*
X26800000Y26700000D02*
X23600000Y26700000D01*
X23600000Y29900000D01*
X26800000Y29900000D01*
X26800000Y26700000D01*
X26800000Y26700000D01*
G37*
G36*
X8725888Y30645530D02*
X8906274Y30609650D01*
X9097362Y30530498D01*
X9269336Y30415589D01*
X9415589Y30269336D01*
X9530498Y30097362D01*
X9609650Y29906274D01*
X9650000Y29703416D01*
X9650000Y29496584D01*
X9609650Y29293726D01*
X9530498Y29102638D01*
X9415589Y28930664D01*
X9269336Y28784411D01*
X9097362Y28669502D01*
X8906274Y28590350D01*
X8725888Y28554470D01*
X8703417Y28550000D01*
X8496583Y28550000D01*
X8474112Y28554470D01*
X8293726Y28590350D01*
X8102638Y28669502D01*
X7930664Y28784411D01*
X7784411Y28930664D01*
X7669502Y29102638D01*
X7590350Y29293726D01*
X7550000Y29496584D01*
X7550000Y29703416D01*
X7590350Y29906274D01*
X7669502Y30097362D01*
X7784411Y30269336D01*
X7930664Y30415589D01*
X8102638Y30530498D01*
X8293726Y30609650D01*
X8474112Y30645530D01*
X8496583Y30650000D01*
X8703417Y30650000D01*
X8725888Y30645530D01*
X8725888Y30645530D01*
G37*
G36*
X29525888Y30645530D02*
X29706274Y30609650D01*
X29897362Y30530498D01*
X30069336Y30415589D01*
X30215589Y30269336D01*
X30330498Y30097362D01*
X30409650Y29906274D01*
X30450000Y29703416D01*
X30450000Y29496584D01*
X30409650Y29293726D01*
X30330498Y29102638D01*
X30215589Y28930664D01*
X30069336Y28784411D01*
X29897362Y28669502D01*
X29706274Y28590350D01*
X29525888Y28554470D01*
X29503417Y28550000D01*
X29296583Y28550000D01*
X29274112Y28554470D01*
X29093726Y28590350D01*
X28902638Y28669502D01*
X28730664Y28784411D01*
X28584411Y28930664D01*
X28469502Y29102638D01*
X28390350Y29293726D01*
X28350000Y29496584D01*
X28350000Y29703416D01*
X28390350Y29906274D01*
X28469502Y30097362D01*
X28584411Y30269336D01*
X28730664Y30415589D01*
X28902638Y30530498D01*
X29093726Y30609650D01*
X29274112Y30645530D01*
X29296583Y30650000D01*
X29503417Y30650000D01*
X29525888Y30645530D01*
X29525888Y30645530D01*
G37*
G36*
X35200000Y34400000D02*
X32000000Y34400000D01*
X32000000Y37000000D01*
X35200000Y37000000D01*
X35200000Y34400000D01*
X35200000Y34400000D01*
G37*
G36*
X14400000Y34400000D02*
X11200000Y34400000D01*
X11200000Y37000000D01*
X14400000Y37000000D01*
X14400000Y34400000D01*
X14400000Y34400000D01*
G37*
G36*
X8725888Y37645530D02*
X8906274Y37609650D01*
X9097362Y37530498D01*
X9269336Y37415589D01*
X9415589Y37269336D01*
X9530498Y37097362D01*
X9609650Y36906274D01*
X9650000Y36703416D01*
X9650000Y36496584D01*
X9609650Y36293726D01*
X9530498Y36102638D01*
X9415589Y35930664D01*
X9269336Y35784411D01*
X9097362Y35669502D01*
X8906274Y35590350D01*
X8725888Y35554470D01*
X8703417Y35550000D01*
X8496583Y35550000D01*
X8474112Y35554470D01*
X8293726Y35590350D01*
X8102638Y35669502D01*
X7930664Y35784411D01*
X7784411Y35930664D01*
X7669502Y36102638D01*
X7590350Y36293726D01*
X7550000Y36496584D01*
X7550000Y36703416D01*
X7590350Y36906274D01*
X7669502Y37097362D01*
X7784411Y37269336D01*
X7930664Y37415589D01*
X8102638Y37530498D01*
X8293726Y37609650D01*
X8474112Y37645530D01*
X8496583Y37650000D01*
X8703417Y37650000D01*
X8725888Y37645530D01*
X8725888Y37645530D01*
G37*
G36*
X29525888Y37645530D02*
X29706274Y37609650D01*
X29897362Y37530498D01*
X30069336Y37415589D01*
X30215589Y37269336D01*
X30330498Y37097362D01*
X30409650Y36906274D01*
X30450000Y36703416D01*
X30450000Y36496584D01*
X30409650Y36293726D01*
X30330498Y36102638D01*
X30215589Y35930664D01*
X30069336Y35784411D01*
X29897362Y35669502D01*
X29706274Y35590350D01*
X29525888Y35554470D01*
X29503417Y35550000D01*
X29296583Y35550000D01*
X29274112Y35554470D01*
X29093726Y35590350D01*
X28902638Y35669502D01*
X28730664Y35784411D01*
X28584411Y35930664D01*
X28469502Y36102638D01*
X28390350Y36293726D01*
X28350000Y36496584D01*
X28350000Y36703416D01*
X28390350Y36906274D01*
X28469502Y37097362D01*
X28584411Y37269336D01*
X28730664Y37415589D01*
X28902638Y37530498D01*
X29093726Y37609650D01*
X29274112Y37645530D01*
X29296583Y37650000D01*
X29503417Y37650000D01*
X29525888Y37645530D01*
X29525888Y37645530D01*
G37*
G36*
X26800000Y36400000D02*
X23600000Y36400000D01*
X23600000Y39000000D01*
X26800000Y39000000D01*
X26800000Y36400000D01*
X26800000Y36400000D01*
G37*
G36*
X6000000Y36400000D02*
X2800000Y36400000D01*
X2800000Y39000000D01*
X6000000Y39000000D01*
X6000000Y36400000D01*
X6000000Y36400000D01*
G37*
M02*
