G04 #@! TF.GenerationSoftware,KiCad,Pcbnew,(5.0.1-3-g963ef8bb5)*
G04 #@! TF.CreationDate,2019-03-19T16:07:13-04:00*
G04 #@! TF.ProjectId,Tympan_AIC_Shield,54796D70616E5F4149435F536869656C,rev?*
G04 #@! TF.SameCoordinates,PX6d878d0PY5279480*
G04 #@! TF.FileFunction,Soldermask,Top*
G04 #@! TF.FilePolarity,Negative*
%FSLAX46Y46*%
G04 Gerber Fmt 4.6, Leading zero omitted, Abs format (unit mm)*
G04 Created by KiCad (PCBNEW (5.0.1-3-g963ef8bb5)) date Tuesday, March 19, 2019 at 04:07:13 PM*
%MOMM*%
%LPD*%
G01*
G04 APERTURE LIST*
%ADD10C,0.100000*%
G04 APERTURE END LIST*
D10*
G36*
X33654304Y3034807D02*
X33755836Y3024807D01*
X33887787Y2984780D01*
X33953763Y2964767D01*
X34136172Y2867267D01*
X34296054Y2736054D01*
X34427267Y2576172D01*
X34524767Y2393763D01*
X34524767Y2393762D01*
X34584807Y2195836D01*
X34605080Y1990000D01*
X34584807Y1784164D01*
X34544780Y1652213D01*
X34524767Y1586237D01*
X34427267Y1403828D01*
X34296054Y1243946D01*
X34136172Y1112733D01*
X33953763Y1015233D01*
X33887787Y995220D01*
X33755836Y955193D01*
X33703110Y950000D01*
X33601580Y940000D01*
X33498420Y940000D01*
X33396890Y950000D01*
X33344164Y955193D01*
X33212213Y995220D01*
X33146237Y1015233D01*
X32963828Y1112733D01*
X32803946Y1243946D01*
X32672733Y1403828D01*
X32575233Y1586237D01*
X32555220Y1652213D01*
X32515193Y1784164D01*
X32494920Y1990000D01*
X32515193Y2195836D01*
X32575233Y2393762D01*
X32575233Y2393763D01*
X32672733Y2576172D01*
X32803946Y2736054D01*
X32963828Y2867267D01*
X33146237Y2964767D01*
X33212213Y2984780D01*
X33344164Y3024807D01*
X33445696Y3034807D01*
X33498420Y3040000D01*
X33601580Y3040000D01*
X33654304Y3034807D01*
X33654304Y3034807D01*
G37*
G36*
X31004304Y3034807D02*
X31105836Y3024807D01*
X31237787Y2984780D01*
X31303763Y2964767D01*
X31486172Y2867267D01*
X31646054Y2736054D01*
X31777267Y2576172D01*
X31874767Y2393763D01*
X31874767Y2393762D01*
X31934807Y2195836D01*
X31955080Y1990000D01*
X31934807Y1784164D01*
X31894780Y1652213D01*
X31874767Y1586237D01*
X31777267Y1403828D01*
X31646054Y1243946D01*
X31486172Y1112733D01*
X31303763Y1015233D01*
X31237787Y995220D01*
X31105836Y955193D01*
X31053110Y950000D01*
X30951580Y940000D01*
X30848420Y940000D01*
X30746890Y950000D01*
X30694164Y955193D01*
X30562213Y995220D01*
X30496237Y1015233D01*
X30313828Y1112733D01*
X30153946Y1243946D01*
X30022733Y1403828D01*
X29925233Y1586237D01*
X29905220Y1652213D01*
X29865193Y1784164D01*
X29844920Y1990000D01*
X29865193Y2195836D01*
X29925233Y2393762D01*
X29925233Y2393763D01*
X30022733Y2576172D01*
X30153946Y2736054D01*
X30313828Y2867267D01*
X30496237Y2964767D01*
X30562213Y2984780D01*
X30694164Y3024807D01*
X30795696Y3034807D01*
X30848420Y3040000D01*
X30951580Y3040000D01*
X31004304Y3034807D01*
X31004304Y3034807D01*
G37*
G36*
X36328707Y3042404D02*
X36405836Y3034807D01*
X36537787Y2994780D01*
X36603763Y2974767D01*
X36786172Y2877267D01*
X36946054Y2746054D01*
X37077267Y2586172D01*
X37174767Y2403763D01*
X37194780Y2337787D01*
X37234807Y2205836D01*
X37255080Y2000000D01*
X37234807Y1794164D01*
X37194780Y1662213D01*
X37174767Y1596237D01*
X37077267Y1413828D01*
X36946054Y1253946D01*
X36786172Y1122733D01*
X36603763Y1025233D01*
X36537787Y1005220D01*
X36405836Y965193D01*
X36328707Y957597D01*
X36251580Y950000D01*
X36148420Y950000D01*
X36071293Y957597D01*
X35994164Y965193D01*
X35862213Y1005220D01*
X35796237Y1025233D01*
X35613828Y1122733D01*
X35453946Y1253946D01*
X35322733Y1413828D01*
X35225233Y1596237D01*
X35205220Y1662213D01*
X35165193Y1794164D01*
X35144920Y2000000D01*
X35165193Y2205836D01*
X35205220Y2337787D01*
X35225233Y2403763D01*
X35322733Y2586172D01*
X35453946Y2746054D01*
X35613828Y2877267D01*
X35796237Y2974767D01*
X35862213Y2994780D01*
X35994164Y3034807D01*
X36071293Y3042404D01*
X36148420Y3050000D01*
X36251580Y3050000D01*
X36328707Y3042404D01*
X36328707Y3042404D01*
G37*
G36*
X7178707Y3042404D02*
X7255836Y3034807D01*
X7387787Y2994780D01*
X7453763Y2974767D01*
X7636172Y2877267D01*
X7796054Y2746054D01*
X7927267Y2586172D01*
X8024767Y2403763D01*
X8044780Y2337787D01*
X8084807Y2205836D01*
X8105080Y2000000D01*
X8084807Y1794164D01*
X8044780Y1662213D01*
X8024767Y1596237D01*
X7927267Y1413828D01*
X7796054Y1253946D01*
X7636172Y1122733D01*
X7453763Y1025233D01*
X7387787Y1005220D01*
X7255836Y965193D01*
X7178707Y957597D01*
X7101580Y950000D01*
X6998420Y950000D01*
X6921293Y957597D01*
X6844164Y965193D01*
X6712213Y1005220D01*
X6646237Y1025233D01*
X6463828Y1122733D01*
X6303946Y1253946D01*
X6172733Y1413828D01*
X6075233Y1596237D01*
X6055220Y1662213D01*
X6015193Y1794164D01*
X5994920Y2000000D01*
X6015193Y2205836D01*
X6055220Y2337787D01*
X6075233Y2403763D01*
X6172733Y2586172D01*
X6303946Y2746054D01*
X6463828Y2877267D01*
X6646237Y2974767D01*
X6712213Y2994780D01*
X6844164Y3034807D01*
X6921293Y3042404D01*
X6998420Y3050000D01*
X7101580Y3050000D01*
X7178707Y3042404D01*
X7178707Y3042404D01*
G37*
G36*
X4528707Y3042404D02*
X4605836Y3034807D01*
X4737787Y2994780D01*
X4803763Y2974767D01*
X4986172Y2877267D01*
X5146054Y2746054D01*
X5277267Y2586172D01*
X5374767Y2403763D01*
X5394780Y2337787D01*
X5434807Y2205836D01*
X5455080Y2000000D01*
X5434807Y1794164D01*
X5394780Y1662213D01*
X5374767Y1596237D01*
X5277267Y1413828D01*
X5146054Y1253946D01*
X4986172Y1122733D01*
X4803763Y1025233D01*
X4737787Y1005220D01*
X4605836Y965193D01*
X4528707Y957597D01*
X4451580Y950000D01*
X4348420Y950000D01*
X4271293Y957597D01*
X4194164Y965193D01*
X4062213Y1005220D01*
X3996237Y1025233D01*
X3813828Y1122733D01*
X3653946Y1253946D01*
X3522733Y1413828D01*
X3425233Y1596237D01*
X3405220Y1662213D01*
X3365193Y1794164D01*
X3344920Y2000000D01*
X3365193Y2205836D01*
X3405220Y2337787D01*
X3425233Y2403763D01*
X3522733Y2586172D01*
X3653946Y2746054D01*
X3813828Y2877267D01*
X3996237Y2974767D01*
X4062213Y2994780D01*
X4194164Y3034807D01*
X4271293Y3042404D01*
X4348420Y3050000D01*
X4451580Y3050000D01*
X4528707Y3042404D01*
X4528707Y3042404D01*
G37*
G36*
X1878707Y3042404D02*
X1955836Y3034807D01*
X2087787Y2994780D01*
X2153763Y2974767D01*
X2336172Y2877267D01*
X2496054Y2746054D01*
X2627267Y2586172D01*
X2724767Y2403763D01*
X2744780Y2337787D01*
X2784807Y2205836D01*
X2805080Y2000000D01*
X2784807Y1794164D01*
X2744780Y1662213D01*
X2724767Y1596237D01*
X2627267Y1413828D01*
X2496054Y1253946D01*
X2336172Y1122733D01*
X2153763Y1025233D01*
X2087787Y1005220D01*
X1955836Y965193D01*
X1878707Y957597D01*
X1801580Y950000D01*
X1698420Y950000D01*
X1621293Y957597D01*
X1544164Y965193D01*
X1412213Y1005220D01*
X1346237Y1025233D01*
X1163828Y1122733D01*
X1003946Y1253946D01*
X872733Y1413828D01*
X775233Y1596237D01*
X755220Y1662213D01*
X715193Y1794164D01*
X694920Y2000000D01*
X715193Y2205836D01*
X755220Y2337787D01*
X775233Y2403763D01*
X872733Y2586172D01*
X1003946Y2746054D01*
X1163828Y2877267D01*
X1346237Y2974767D01*
X1412213Y2994780D01*
X1544164Y3034807D01*
X1621293Y3042404D01*
X1698420Y3050000D01*
X1801580Y3050000D01*
X1878707Y3042404D01*
X1878707Y3042404D01*
G37*
G36*
X23850000Y2850000D02*
X21800000Y2850000D01*
X21800000Y4550000D01*
X23850000Y4550000D01*
X23850000Y2850000D01*
X23850000Y2850000D01*
G37*
G36*
X33654304Y5574807D02*
X33755836Y5564807D01*
X33887787Y5524780D01*
X33953763Y5504767D01*
X34136172Y5407267D01*
X34296054Y5276054D01*
X34427267Y5116172D01*
X34524767Y4933763D01*
X34524767Y4933762D01*
X34584807Y4735836D01*
X34605080Y4530000D01*
X34584807Y4324164D01*
X34544780Y4192213D01*
X34524767Y4126237D01*
X34427267Y3943828D01*
X34296054Y3783946D01*
X34136172Y3652733D01*
X33953763Y3555233D01*
X33887787Y3535220D01*
X33755836Y3495193D01*
X33703110Y3490000D01*
X33601580Y3480000D01*
X33498420Y3480000D01*
X33396890Y3490000D01*
X33344164Y3495193D01*
X33212213Y3535220D01*
X33146237Y3555233D01*
X32963828Y3652733D01*
X32803946Y3783946D01*
X32672733Y3943828D01*
X32575233Y4126237D01*
X32555220Y4192213D01*
X32515193Y4324164D01*
X32494920Y4530000D01*
X32515193Y4735836D01*
X32575233Y4933762D01*
X32575233Y4933763D01*
X32672733Y5116172D01*
X32803946Y5276054D01*
X32963828Y5407267D01*
X33146237Y5504767D01*
X33212213Y5524780D01*
X33344164Y5564807D01*
X33445696Y5574807D01*
X33498420Y5580000D01*
X33601580Y5580000D01*
X33654304Y5574807D01*
X33654304Y5574807D01*
G37*
G36*
X31004304Y5574807D02*
X31105836Y5564807D01*
X31237787Y5524780D01*
X31303763Y5504767D01*
X31486172Y5407267D01*
X31646054Y5276054D01*
X31777267Y5116172D01*
X31874767Y4933763D01*
X31874767Y4933762D01*
X31934807Y4735836D01*
X31955080Y4530000D01*
X31934807Y4324164D01*
X31894780Y4192213D01*
X31874767Y4126237D01*
X31777267Y3943828D01*
X31646054Y3783946D01*
X31486172Y3652733D01*
X31303763Y3555233D01*
X31237787Y3535220D01*
X31105836Y3495193D01*
X31053110Y3490000D01*
X30951580Y3480000D01*
X30848420Y3480000D01*
X30746890Y3490000D01*
X30694164Y3495193D01*
X30562213Y3535220D01*
X30496237Y3555233D01*
X30313828Y3652733D01*
X30153946Y3783946D01*
X30022733Y3943828D01*
X29925233Y4126237D01*
X29905220Y4192213D01*
X29865193Y4324164D01*
X29844920Y4530000D01*
X29865193Y4735836D01*
X29925233Y4933762D01*
X29925233Y4933763D01*
X30022733Y5116172D01*
X30153946Y5276054D01*
X30313828Y5407267D01*
X30496237Y5504767D01*
X30562213Y5524780D01*
X30694164Y5564807D01*
X30795696Y5574807D01*
X30848420Y5580000D01*
X30951580Y5580000D01*
X31004304Y5574807D01*
X31004304Y5574807D01*
G37*
G36*
X36328707Y5582403D02*
X36405836Y5574807D01*
X36537787Y5534780D01*
X36603763Y5514767D01*
X36786172Y5417267D01*
X36946054Y5286054D01*
X37077267Y5126172D01*
X37174767Y4943763D01*
X37194780Y4877787D01*
X37234807Y4745836D01*
X37255080Y4540000D01*
X37234807Y4334164D01*
X37194780Y4202213D01*
X37174767Y4136237D01*
X37077267Y3953828D01*
X36946054Y3793946D01*
X36786172Y3662733D01*
X36603763Y3565233D01*
X36537787Y3545220D01*
X36405836Y3505193D01*
X36328707Y3497597D01*
X36251580Y3490000D01*
X36148420Y3490000D01*
X36071293Y3497597D01*
X35994164Y3505193D01*
X35862213Y3545220D01*
X35796237Y3565233D01*
X35613828Y3662733D01*
X35453946Y3793946D01*
X35322733Y3953828D01*
X35225233Y4136237D01*
X35205220Y4202213D01*
X35165193Y4334164D01*
X35144920Y4540000D01*
X35165193Y4745836D01*
X35205220Y4877787D01*
X35225233Y4943763D01*
X35322733Y5126172D01*
X35453946Y5286054D01*
X35613828Y5417267D01*
X35796237Y5514767D01*
X35862213Y5534780D01*
X35994164Y5574807D01*
X36071293Y5582403D01*
X36148420Y5590000D01*
X36251580Y5590000D01*
X36328707Y5582403D01*
X36328707Y5582403D01*
G37*
G36*
X7178707Y5582403D02*
X7255836Y5574807D01*
X7387787Y5534780D01*
X7453763Y5514767D01*
X7636172Y5417267D01*
X7796054Y5286054D01*
X7927267Y5126172D01*
X8024767Y4943763D01*
X8044780Y4877787D01*
X8084807Y4745836D01*
X8105080Y4540000D01*
X8084807Y4334164D01*
X8044780Y4202213D01*
X8024767Y4136237D01*
X7927267Y3953828D01*
X7796054Y3793946D01*
X7636172Y3662733D01*
X7453763Y3565233D01*
X7387787Y3545220D01*
X7255836Y3505193D01*
X7178707Y3497597D01*
X7101580Y3490000D01*
X6998420Y3490000D01*
X6921293Y3497597D01*
X6844164Y3505193D01*
X6712213Y3545220D01*
X6646237Y3565233D01*
X6463828Y3662733D01*
X6303946Y3793946D01*
X6172733Y3953828D01*
X6075233Y4136237D01*
X6055220Y4202213D01*
X6015193Y4334164D01*
X5994920Y4540000D01*
X6015193Y4745836D01*
X6055220Y4877787D01*
X6075233Y4943763D01*
X6172733Y5126172D01*
X6303946Y5286054D01*
X6463828Y5417267D01*
X6646237Y5514767D01*
X6712213Y5534780D01*
X6844164Y5574807D01*
X6921293Y5582403D01*
X6998420Y5590000D01*
X7101580Y5590000D01*
X7178707Y5582403D01*
X7178707Y5582403D01*
G37*
G36*
X4528707Y5582403D02*
X4605836Y5574807D01*
X4737787Y5534780D01*
X4803763Y5514767D01*
X4986172Y5417267D01*
X5146054Y5286054D01*
X5277267Y5126172D01*
X5374767Y4943763D01*
X5394780Y4877787D01*
X5434807Y4745836D01*
X5455080Y4540000D01*
X5434807Y4334164D01*
X5394780Y4202213D01*
X5374767Y4136237D01*
X5277267Y3953828D01*
X5146054Y3793946D01*
X4986172Y3662733D01*
X4803763Y3565233D01*
X4737787Y3545220D01*
X4605836Y3505193D01*
X4528707Y3497597D01*
X4451580Y3490000D01*
X4348420Y3490000D01*
X4271293Y3497597D01*
X4194164Y3505193D01*
X4062213Y3545220D01*
X3996237Y3565233D01*
X3813828Y3662733D01*
X3653946Y3793946D01*
X3522733Y3953828D01*
X3425233Y4136237D01*
X3405220Y4202213D01*
X3365193Y4334164D01*
X3344920Y4540000D01*
X3365193Y4745836D01*
X3405220Y4877787D01*
X3425233Y4943763D01*
X3522733Y5126172D01*
X3653946Y5286054D01*
X3813828Y5417267D01*
X3996237Y5514767D01*
X4062213Y5534780D01*
X4194164Y5574807D01*
X4271293Y5582403D01*
X4348420Y5590000D01*
X4451580Y5590000D01*
X4528707Y5582403D01*
X4528707Y5582403D01*
G37*
G36*
X1878707Y5582403D02*
X1955836Y5574807D01*
X2087787Y5534780D01*
X2153763Y5514767D01*
X2336172Y5417267D01*
X2496054Y5286054D01*
X2627267Y5126172D01*
X2724767Y4943763D01*
X2744780Y4877787D01*
X2784807Y4745836D01*
X2805080Y4540000D01*
X2784807Y4334164D01*
X2744780Y4202213D01*
X2724767Y4136237D01*
X2627267Y3953828D01*
X2496054Y3793946D01*
X2336172Y3662733D01*
X2153763Y3565233D01*
X2087787Y3545220D01*
X1955836Y3505193D01*
X1878707Y3497597D01*
X1801580Y3490000D01*
X1698420Y3490000D01*
X1621293Y3497597D01*
X1544164Y3505193D01*
X1412213Y3545220D01*
X1346237Y3565233D01*
X1163828Y3662733D01*
X1003946Y3793946D01*
X872733Y3953828D01*
X775233Y4136237D01*
X755220Y4202213D01*
X715193Y4334164D01*
X694920Y4540000D01*
X715193Y4745836D01*
X755220Y4877787D01*
X775233Y4943763D01*
X872733Y5126172D01*
X1003946Y5286054D01*
X1163828Y5417267D01*
X1346237Y5514767D01*
X1412213Y5534780D01*
X1544164Y5574807D01*
X1621293Y5582403D01*
X1698420Y5590000D01*
X1801580Y5590000D01*
X1878707Y5582403D01*
X1878707Y5582403D01*
G37*
G36*
X11000000Y4100000D02*
X8900000Y4100000D01*
X8900000Y5000000D01*
X11000000Y5000000D01*
X11000000Y4100000D01*
X11000000Y4100000D01*
G37*
G36*
X24525000Y5900000D02*
X23625000Y5900000D01*
X23625000Y8000000D01*
X24525000Y8000000D01*
X24525000Y5900000D01*
X24525000Y5900000D01*
G37*
G36*
X22600000Y5900000D02*
X21700000Y5900000D01*
X21700000Y8000000D01*
X22600000Y8000000D01*
X22600000Y5900000D01*
X22600000Y5900000D01*
G37*
G36*
X33654304Y8114807D02*
X33755836Y8104807D01*
X33887787Y8064780D01*
X33953763Y8044767D01*
X34136172Y7947267D01*
X34296054Y7816054D01*
X34427267Y7656172D01*
X34524767Y7473763D01*
X34524767Y7473762D01*
X34584807Y7275836D01*
X34605080Y7070000D01*
X34584807Y6864164D01*
X34544780Y6732213D01*
X34524767Y6666237D01*
X34427267Y6483828D01*
X34296054Y6323946D01*
X34136172Y6192733D01*
X33953763Y6095233D01*
X33887787Y6075220D01*
X33755836Y6035193D01*
X33703110Y6030000D01*
X33601580Y6020000D01*
X33498420Y6020000D01*
X33396890Y6030000D01*
X33344164Y6035193D01*
X33212213Y6075220D01*
X33146237Y6095233D01*
X32963828Y6192733D01*
X32803946Y6323946D01*
X32672733Y6483828D01*
X32575233Y6666237D01*
X32555220Y6732213D01*
X32515193Y6864164D01*
X32494920Y7070000D01*
X32515193Y7275836D01*
X32575233Y7473762D01*
X32575233Y7473763D01*
X32672733Y7656172D01*
X32803946Y7816054D01*
X32963828Y7947267D01*
X33146237Y8044767D01*
X33212213Y8064780D01*
X33344164Y8104807D01*
X33445696Y8114807D01*
X33498420Y8120000D01*
X33601580Y8120000D01*
X33654304Y8114807D01*
X33654304Y8114807D01*
G37*
G36*
X31004304Y8114807D02*
X31105836Y8104807D01*
X31237787Y8064780D01*
X31303763Y8044767D01*
X31486172Y7947267D01*
X31646054Y7816054D01*
X31777267Y7656172D01*
X31874767Y7473763D01*
X31874767Y7473762D01*
X31934807Y7275836D01*
X31955080Y7070000D01*
X31934807Y6864164D01*
X31894780Y6732213D01*
X31874767Y6666237D01*
X31777267Y6483828D01*
X31646054Y6323946D01*
X31486172Y6192733D01*
X31303763Y6095233D01*
X31237787Y6075220D01*
X31105836Y6035193D01*
X31053110Y6030000D01*
X30951580Y6020000D01*
X30848420Y6020000D01*
X30746890Y6030000D01*
X30694164Y6035193D01*
X30562213Y6075220D01*
X30496237Y6095233D01*
X30313828Y6192733D01*
X30153946Y6323946D01*
X30022733Y6483828D01*
X29925233Y6666237D01*
X29905220Y6732213D01*
X29865193Y6864164D01*
X29844920Y7070000D01*
X29865193Y7275836D01*
X29925233Y7473762D01*
X29925233Y7473763D01*
X30022733Y7656172D01*
X30153946Y7816054D01*
X30313828Y7947267D01*
X30496237Y8044767D01*
X30562213Y8064780D01*
X30694164Y8104807D01*
X30795696Y8114807D01*
X30848420Y8120000D01*
X30951580Y8120000D01*
X31004304Y8114807D01*
X31004304Y8114807D01*
G37*
G36*
X1878707Y8122403D02*
X1955836Y8114807D01*
X2087787Y8074780D01*
X2153763Y8054767D01*
X2336172Y7957267D01*
X2496054Y7826054D01*
X2627267Y7666172D01*
X2724767Y7483763D01*
X2744780Y7417787D01*
X2784807Y7285836D01*
X2805080Y7080000D01*
X2784807Y6874164D01*
X2744780Y6742213D01*
X2724767Y6676237D01*
X2627267Y6493828D01*
X2496054Y6333946D01*
X2336172Y6202733D01*
X2153763Y6105233D01*
X2087787Y6085220D01*
X1955836Y6045193D01*
X1878707Y6037596D01*
X1801580Y6030000D01*
X1698420Y6030000D01*
X1621293Y6037596D01*
X1544164Y6045193D01*
X1412213Y6085220D01*
X1346237Y6105233D01*
X1163828Y6202733D01*
X1003946Y6333946D01*
X872733Y6493828D01*
X775233Y6676237D01*
X755220Y6742213D01*
X715193Y6874164D01*
X694920Y7080000D01*
X715193Y7285836D01*
X755220Y7417787D01*
X775233Y7483763D01*
X872733Y7666172D01*
X1003946Y7826054D01*
X1163828Y7957267D01*
X1346237Y8054767D01*
X1412213Y8074780D01*
X1544164Y8114807D01*
X1621293Y8122403D01*
X1698420Y8130000D01*
X1801580Y8130000D01*
X1878707Y8122403D01*
X1878707Y8122403D01*
G37*
G36*
X36328707Y8122403D02*
X36405836Y8114807D01*
X36537787Y8074780D01*
X36603763Y8054767D01*
X36786172Y7957267D01*
X36946054Y7826054D01*
X37077267Y7666172D01*
X37174767Y7483763D01*
X37194780Y7417787D01*
X37234807Y7285836D01*
X37255080Y7080000D01*
X37234807Y6874164D01*
X37194780Y6742213D01*
X37174767Y6676237D01*
X37077267Y6493828D01*
X36946054Y6333946D01*
X36786172Y6202733D01*
X36603763Y6105233D01*
X36537787Y6085220D01*
X36405836Y6045193D01*
X36328707Y6037596D01*
X36251580Y6030000D01*
X36148420Y6030000D01*
X36071293Y6037596D01*
X35994164Y6045193D01*
X35862213Y6085220D01*
X35796237Y6105233D01*
X35613828Y6202733D01*
X35453946Y6333946D01*
X35322733Y6493828D01*
X35225233Y6676237D01*
X35205220Y6742213D01*
X35165193Y6874164D01*
X35144920Y7080000D01*
X35165193Y7285836D01*
X35205220Y7417787D01*
X35225233Y7483763D01*
X35322733Y7666172D01*
X35453946Y7826054D01*
X35613828Y7957267D01*
X35796237Y8054767D01*
X35862213Y8074780D01*
X35994164Y8114807D01*
X36071293Y8122403D01*
X36148420Y8130000D01*
X36251580Y8130000D01*
X36328707Y8122403D01*
X36328707Y8122403D01*
G37*
G36*
X7178707Y8122403D02*
X7255836Y8114807D01*
X7387787Y8074780D01*
X7453763Y8054767D01*
X7636172Y7957267D01*
X7796054Y7826054D01*
X7927267Y7666172D01*
X8024767Y7483763D01*
X8044780Y7417787D01*
X8084807Y7285836D01*
X8105080Y7080000D01*
X8084807Y6874164D01*
X8044780Y6742213D01*
X8024767Y6676237D01*
X7927267Y6493828D01*
X7796054Y6333946D01*
X7636172Y6202733D01*
X7453763Y6105233D01*
X7387787Y6085220D01*
X7255836Y6045193D01*
X7178707Y6037596D01*
X7101580Y6030000D01*
X6998420Y6030000D01*
X6921293Y6037596D01*
X6844164Y6045193D01*
X6712213Y6085220D01*
X6646237Y6105233D01*
X6463828Y6202733D01*
X6303946Y6333946D01*
X6172733Y6493828D01*
X6075233Y6676237D01*
X6055220Y6742213D01*
X6015193Y6874164D01*
X5994920Y7080000D01*
X6015193Y7285836D01*
X6055220Y7417787D01*
X6075233Y7483763D01*
X6172733Y7666172D01*
X6303946Y7826054D01*
X6463828Y7957267D01*
X6646237Y8054767D01*
X6712213Y8074780D01*
X6844164Y8114807D01*
X6921293Y8122403D01*
X6998420Y8130000D01*
X7101580Y8130000D01*
X7178707Y8122403D01*
X7178707Y8122403D01*
G37*
G36*
X4528707Y8122403D02*
X4605836Y8114807D01*
X4737787Y8074780D01*
X4803763Y8054767D01*
X4986172Y7957267D01*
X5146054Y7826054D01*
X5277267Y7666172D01*
X5374767Y7483763D01*
X5394780Y7417787D01*
X5434807Y7285836D01*
X5455080Y7080000D01*
X5434807Y6874164D01*
X5394780Y6742213D01*
X5374767Y6676237D01*
X5277267Y6493828D01*
X5146054Y6333946D01*
X4986172Y6202733D01*
X4803763Y6105233D01*
X4737787Y6085220D01*
X4605836Y6045193D01*
X4528707Y6037596D01*
X4451580Y6030000D01*
X4348420Y6030000D01*
X4271293Y6037596D01*
X4194164Y6045193D01*
X4062213Y6085220D01*
X3996237Y6105233D01*
X3813828Y6202733D01*
X3653946Y6333946D01*
X3522733Y6493828D01*
X3425233Y6676237D01*
X3405220Y6742213D01*
X3365193Y6874164D01*
X3344920Y7080000D01*
X3365193Y7285836D01*
X3405220Y7417787D01*
X3425233Y7483763D01*
X3522733Y7666172D01*
X3653946Y7826054D01*
X3813828Y7957267D01*
X3996237Y8054767D01*
X4062213Y8074780D01*
X4194164Y8114807D01*
X4271293Y8122403D01*
X4348420Y8130000D01*
X4451580Y8130000D01*
X4528707Y8122403D01*
X4528707Y8122403D01*
G37*
G36*
X21425000Y6075000D02*
X15675000Y6075000D01*
X15675000Y7775000D01*
X21425000Y7775000D01*
X21425000Y6075000D01*
X21425000Y6075000D01*
G37*
G36*
X11000000Y6650000D02*
X8900000Y6650000D01*
X8900000Y7550000D01*
X11000000Y7550000D01*
X11000000Y6650000D01*
X11000000Y6650000D01*
G37*
G36*
X14717900Y8883800D02*
X14720302Y8859414D01*
X14727415Y8835965D01*
X14738966Y8814354D01*
X14746400Y8805296D01*
X14746400Y6880900D01*
X12646400Y6880900D01*
X12646400Y8781223D01*
X12663688Y8795412D01*
X12679234Y8814354D01*
X12690785Y8835965D01*
X12697898Y8859414D01*
X12700300Y8883800D01*
X12700300Y11060600D01*
X14717900Y11060600D01*
X14717900Y8883800D01*
X14717900Y8883800D01*
G37*
G36*
X20444600Y13658000D02*
X20447002Y13633614D01*
X20454115Y13610165D01*
X20465666Y13588554D01*
X20481212Y13569612D01*
X20500154Y13554066D01*
X20521765Y13542515D01*
X20545214Y13535402D01*
X20569600Y13533000D01*
X21419600Y13533000D01*
X21419600Y9333000D01*
X20569600Y9333000D01*
X20545214Y9330598D01*
X20521765Y9323485D01*
X20500154Y9311934D01*
X20481212Y9296388D01*
X20465666Y9277446D01*
X20454115Y9255835D01*
X20447002Y9232386D01*
X20444600Y9208000D01*
X20444600Y8358000D01*
X16244600Y8358000D01*
X16244600Y9208000D01*
X16242198Y9232386D01*
X16235085Y9255835D01*
X16223534Y9277446D01*
X16207988Y9296388D01*
X16189046Y9311934D01*
X16167435Y9323485D01*
X16143986Y9330598D01*
X16119600Y9333000D01*
X15269600Y9333000D01*
X15269600Y13533000D01*
X16119600Y13533000D01*
X16143986Y13535402D01*
X16167435Y13542515D01*
X16189046Y13554066D01*
X16207988Y13569612D01*
X16223534Y13588554D01*
X16235085Y13610165D01*
X16242198Y13633614D01*
X16244600Y13658000D01*
X16244600Y14508000D01*
X20444600Y14508000D01*
X20444600Y13658000D01*
X20444600Y13658000D01*
G37*
G36*
X31004304Y10654807D02*
X31105836Y10644807D01*
X31237787Y10604780D01*
X31303763Y10584767D01*
X31486172Y10487267D01*
X31646054Y10356054D01*
X31777267Y10196172D01*
X31874767Y10013763D01*
X31894780Y9947787D01*
X31934807Y9815836D01*
X31955080Y9610000D01*
X31934807Y9404164D01*
X31912491Y9330598D01*
X31874767Y9206237D01*
X31777267Y9023828D01*
X31646054Y8863946D01*
X31486172Y8732733D01*
X31303763Y8635233D01*
X31237787Y8615220D01*
X31105836Y8575193D01*
X31053110Y8570000D01*
X30951580Y8560000D01*
X30848420Y8560000D01*
X30746890Y8570000D01*
X30694164Y8575193D01*
X30562213Y8615220D01*
X30496237Y8635233D01*
X30313828Y8732733D01*
X30153946Y8863946D01*
X30022733Y9023828D01*
X29925233Y9206237D01*
X29887509Y9330598D01*
X29865193Y9404164D01*
X29844920Y9610000D01*
X29865193Y9815836D01*
X29905220Y9947787D01*
X29925233Y10013763D01*
X30022733Y10196172D01*
X30153946Y10356054D01*
X30313828Y10487267D01*
X30496237Y10584767D01*
X30562213Y10604780D01*
X30694164Y10644807D01*
X30795696Y10654807D01*
X30848420Y10660000D01*
X30951580Y10660000D01*
X31004304Y10654807D01*
X31004304Y10654807D01*
G37*
G36*
X33654304Y10654807D02*
X33755836Y10644807D01*
X33887787Y10604780D01*
X33953763Y10584767D01*
X34136172Y10487267D01*
X34296054Y10356054D01*
X34427267Y10196172D01*
X34524767Y10013763D01*
X34544780Y9947787D01*
X34584807Y9815836D01*
X34605080Y9610000D01*
X34584807Y9404164D01*
X34562491Y9330598D01*
X34524767Y9206237D01*
X34427267Y9023828D01*
X34296054Y8863946D01*
X34136172Y8732733D01*
X33953763Y8635233D01*
X33887787Y8615220D01*
X33755836Y8575193D01*
X33703110Y8570000D01*
X33601580Y8560000D01*
X33498420Y8560000D01*
X33396890Y8570000D01*
X33344164Y8575193D01*
X33212213Y8615220D01*
X33146237Y8635233D01*
X32963828Y8732733D01*
X32803946Y8863946D01*
X32672733Y9023828D01*
X32575233Y9206237D01*
X32537509Y9330598D01*
X32515193Y9404164D01*
X32494920Y9610000D01*
X32515193Y9815836D01*
X32555220Y9947787D01*
X32575233Y10013763D01*
X32672733Y10196172D01*
X32803946Y10356054D01*
X32963828Y10487267D01*
X33146237Y10584767D01*
X33212213Y10604780D01*
X33344164Y10644807D01*
X33445696Y10654807D01*
X33498420Y10660000D01*
X33601580Y10660000D01*
X33654304Y10654807D01*
X33654304Y10654807D01*
G37*
G36*
X4528707Y10662403D02*
X4605836Y10654807D01*
X4737787Y10614780D01*
X4803763Y10594767D01*
X4986172Y10497267D01*
X5146054Y10366054D01*
X5277267Y10206172D01*
X5374767Y10023763D01*
X5393927Y9960600D01*
X5434807Y9825836D01*
X5455080Y9620000D01*
X5434807Y9414164D01*
X5407300Y9323485D01*
X5374767Y9216237D01*
X5277267Y9033828D01*
X5146054Y8873946D01*
X4986172Y8742733D01*
X4803763Y8645233D01*
X4737787Y8625220D01*
X4605836Y8585193D01*
X4528707Y8577597D01*
X4451580Y8570000D01*
X4348420Y8570000D01*
X4271293Y8577597D01*
X4194164Y8585193D01*
X4062213Y8625220D01*
X3996237Y8645233D01*
X3813828Y8742733D01*
X3653946Y8873946D01*
X3522733Y9033828D01*
X3425233Y9216237D01*
X3392700Y9323485D01*
X3365193Y9414164D01*
X3344920Y9620000D01*
X3365193Y9825836D01*
X3406073Y9960600D01*
X3425233Y10023763D01*
X3522733Y10206172D01*
X3653946Y10366054D01*
X3813828Y10497267D01*
X3996237Y10594767D01*
X4062213Y10614780D01*
X4194164Y10654807D01*
X4271293Y10662403D01*
X4348420Y10670000D01*
X4451580Y10670000D01*
X4528707Y10662403D01*
X4528707Y10662403D01*
G37*
G36*
X7178707Y10662403D02*
X7255836Y10654807D01*
X7387787Y10614780D01*
X7453763Y10594767D01*
X7636172Y10497267D01*
X7796054Y10366054D01*
X7927267Y10206172D01*
X8024767Y10023763D01*
X8043927Y9960600D01*
X8084807Y9825836D01*
X8105080Y9620000D01*
X8084807Y9414164D01*
X8057300Y9323485D01*
X8024767Y9216237D01*
X7927267Y9033828D01*
X7796054Y8873946D01*
X7636172Y8742733D01*
X7453763Y8645233D01*
X7387787Y8625220D01*
X7255836Y8585193D01*
X7178707Y8577597D01*
X7101580Y8570000D01*
X6998420Y8570000D01*
X6921293Y8577597D01*
X6844164Y8585193D01*
X6712213Y8625220D01*
X6646237Y8645233D01*
X6463828Y8742733D01*
X6303946Y8873946D01*
X6172733Y9033828D01*
X6075233Y9216237D01*
X6042700Y9323485D01*
X6015193Y9414164D01*
X5994920Y9620000D01*
X6015193Y9825836D01*
X6056073Y9960600D01*
X6075233Y10023763D01*
X6172733Y10206172D01*
X6303946Y10366054D01*
X6463828Y10497267D01*
X6646237Y10594767D01*
X6712213Y10614780D01*
X6844164Y10654807D01*
X6921293Y10662403D01*
X6998420Y10670000D01*
X7101580Y10670000D01*
X7178707Y10662403D01*
X7178707Y10662403D01*
G37*
G36*
X1878707Y10662403D02*
X1955836Y10654807D01*
X2087787Y10614780D01*
X2153763Y10594767D01*
X2336172Y10497267D01*
X2496054Y10366054D01*
X2627267Y10206172D01*
X2724767Y10023763D01*
X2743927Y9960600D01*
X2784807Y9825836D01*
X2805080Y9620000D01*
X2784807Y9414164D01*
X2757300Y9323485D01*
X2724767Y9216237D01*
X2627267Y9033828D01*
X2496054Y8873946D01*
X2336172Y8742733D01*
X2153763Y8645233D01*
X2087787Y8625220D01*
X1955836Y8585193D01*
X1878707Y8577597D01*
X1801580Y8570000D01*
X1698420Y8570000D01*
X1621293Y8577597D01*
X1544164Y8585193D01*
X1412213Y8625220D01*
X1346237Y8645233D01*
X1163828Y8742733D01*
X1003946Y8873946D01*
X872733Y9033828D01*
X775233Y9216237D01*
X742700Y9323485D01*
X715193Y9414164D01*
X694920Y9620000D01*
X715193Y9825836D01*
X756073Y9960600D01*
X775233Y10023763D01*
X872733Y10206172D01*
X1003946Y10366054D01*
X1163828Y10497267D01*
X1346237Y10594767D01*
X1412213Y10614780D01*
X1544164Y10654807D01*
X1621293Y10662403D01*
X1698420Y10670000D01*
X1801580Y10670000D01*
X1878707Y10662403D01*
X1878707Y10662403D01*
G37*
G36*
X36328707Y10662403D02*
X36405836Y10654807D01*
X36537787Y10614780D01*
X36603763Y10594767D01*
X36786172Y10497267D01*
X36946054Y10366054D01*
X37077267Y10206172D01*
X37174767Y10023763D01*
X37193927Y9960600D01*
X37234807Y9825836D01*
X37255080Y9620000D01*
X37234807Y9414164D01*
X37207300Y9323485D01*
X37174767Y9216237D01*
X37077267Y9033828D01*
X36946054Y8873946D01*
X36786172Y8742733D01*
X36603763Y8645233D01*
X36537787Y8625220D01*
X36405836Y8585193D01*
X36328707Y8577597D01*
X36251580Y8570000D01*
X36148420Y8570000D01*
X36071293Y8577597D01*
X35994164Y8585193D01*
X35862213Y8625220D01*
X35796237Y8645233D01*
X35613828Y8742733D01*
X35453946Y8873946D01*
X35322733Y9033828D01*
X35225233Y9216237D01*
X35192700Y9323485D01*
X35165193Y9414164D01*
X35144920Y9620000D01*
X35165193Y9825836D01*
X35206073Y9960600D01*
X35225233Y10023763D01*
X35322733Y10206172D01*
X35453946Y10366054D01*
X35613828Y10497267D01*
X35796237Y10594767D01*
X35862213Y10614780D01*
X35994164Y10654807D01*
X36071293Y10662403D01*
X36148420Y10670000D01*
X36251580Y10670000D01*
X36328707Y10662403D01*
X36328707Y10662403D01*
G37*
G36*
X11000000Y9200000D02*
X8900000Y9200000D01*
X8900000Y10100000D01*
X11000000Y10100000D01*
X11000000Y9200000D01*
X11000000Y9200000D01*
G37*
G36*
X23779300Y9447100D02*
X22079300Y9447100D01*
X22079300Y11400000D01*
X23779300Y11400000D01*
X23779300Y9447100D01*
X23779300Y9447100D01*
G37*
G36*
X33654304Y13194807D02*
X33755836Y13184807D01*
X33887787Y13144780D01*
X33953763Y13124767D01*
X34136172Y13027267D01*
X34296054Y12896054D01*
X34427267Y12736172D01*
X34524767Y12553763D01*
X34524767Y12553762D01*
X34584807Y12355836D01*
X34605080Y12150000D01*
X34584807Y11944164D01*
X34581420Y11933000D01*
X34524767Y11746237D01*
X34427267Y11563828D01*
X34296054Y11403946D01*
X34136172Y11272733D01*
X33953763Y11175233D01*
X33887787Y11155220D01*
X33755836Y11115193D01*
X33703110Y11110000D01*
X33601580Y11100000D01*
X33498420Y11100000D01*
X33396890Y11110000D01*
X33344164Y11115193D01*
X33212213Y11155220D01*
X33146237Y11175233D01*
X32963828Y11272733D01*
X32803946Y11403946D01*
X32672733Y11563828D01*
X32575233Y11746237D01*
X32518580Y11933000D01*
X32515193Y11944164D01*
X32494920Y12150000D01*
X32515193Y12355836D01*
X32575233Y12553762D01*
X32575233Y12553763D01*
X32672733Y12736172D01*
X32803946Y12896054D01*
X32963828Y13027267D01*
X33146237Y13124767D01*
X33212213Y13144780D01*
X33344164Y13184807D01*
X33445696Y13194807D01*
X33498420Y13200000D01*
X33601580Y13200000D01*
X33654304Y13194807D01*
X33654304Y13194807D01*
G37*
G36*
X31004304Y13194807D02*
X31105836Y13184807D01*
X31237787Y13144780D01*
X31303763Y13124767D01*
X31486172Y13027267D01*
X31646054Y12896054D01*
X31777267Y12736172D01*
X31874767Y12553763D01*
X31874767Y12553762D01*
X31934807Y12355836D01*
X31955080Y12150000D01*
X31934807Y11944164D01*
X31931420Y11933000D01*
X31874767Y11746237D01*
X31777267Y11563828D01*
X31646054Y11403946D01*
X31486172Y11272733D01*
X31303763Y11175233D01*
X31237787Y11155220D01*
X31105836Y11115193D01*
X31053110Y11110000D01*
X30951580Y11100000D01*
X30848420Y11100000D01*
X30746890Y11110000D01*
X30694164Y11115193D01*
X30562213Y11155220D01*
X30496237Y11175233D01*
X30313828Y11272733D01*
X30153946Y11403946D01*
X30022733Y11563828D01*
X29925233Y11746237D01*
X29868580Y11933000D01*
X29865193Y11944164D01*
X29844920Y12150000D01*
X29865193Y12355836D01*
X29925233Y12553762D01*
X29925233Y12553763D01*
X30022733Y12736172D01*
X30153946Y12896054D01*
X30313828Y13027267D01*
X30496237Y13124767D01*
X30562213Y13144780D01*
X30694164Y13184807D01*
X30795696Y13194807D01*
X30848420Y13200000D01*
X30951580Y13200000D01*
X31004304Y13194807D01*
X31004304Y13194807D01*
G37*
G36*
X4528707Y13202403D02*
X4605836Y13194807D01*
X4737787Y13154780D01*
X4803763Y13134767D01*
X4986172Y13037267D01*
X5146054Y12906054D01*
X5277267Y12746172D01*
X5374767Y12563763D01*
X5384099Y12533000D01*
X5434807Y12365836D01*
X5455080Y12160000D01*
X5434807Y11954164D01*
X5394780Y11822213D01*
X5374767Y11756237D01*
X5277267Y11573828D01*
X5146054Y11413946D01*
X4986172Y11282733D01*
X4803763Y11185233D01*
X4737787Y11165220D01*
X4605836Y11125193D01*
X4528707Y11117596D01*
X4451580Y11110000D01*
X4348420Y11110000D01*
X4271293Y11117596D01*
X4194164Y11125193D01*
X4062213Y11165220D01*
X3996237Y11185233D01*
X3813828Y11282733D01*
X3653946Y11413946D01*
X3522733Y11573828D01*
X3425233Y11756237D01*
X3405220Y11822213D01*
X3365193Y11954164D01*
X3344920Y12160000D01*
X3365193Y12365836D01*
X3415901Y12533000D01*
X3425233Y12563763D01*
X3522733Y12746172D01*
X3653946Y12906054D01*
X3813828Y13037267D01*
X3996237Y13134767D01*
X4062213Y13154780D01*
X4194164Y13194807D01*
X4271293Y13202403D01*
X4348420Y13210000D01*
X4451580Y13210000D01*
X4528707Y13202403D01*
X4528707Y13202403D01*
G37*
G36*
X36328707Y13202403D02*
X36405836Y13194807D01*
X36537787Y13154780D01*
X36603763Y13134767D01*
X36786172Y13037267D01*
X36946054Y12906054D01*
X37077267Y12746172D01*
X37174767Y12563763D01*
X37184099Y12533000D01*
X37234807Y12365836D01*
X37255080Y12160000D01*
X37234807Y11954164D01*
X37194780Y11822213D01*
X37174767Y11756237D01*
X37077267Y11573828D01*
X36946054Y11413946D01*
X36786172Y11282733D01*
X36603763Y11185233D01*
X36537787Y11165220D01*
X36405836Y11125193D01*
X36328707Y11117596D01*
X36251580Y11110000D01*
X36148420Y11110000D01*
X36071293Y11117596D01*
X35994164Y11125193D01*
X35862213Y11165220D01*
X35796237Y11185233D01*
X35613828Y11282733D01*
X35453946Y11413946D01*
X35322733Y11573828D01*
X35225233Y11756237D01*
X35205220Y11822213D01*
X35165193Y11954164D01*
X35144920Y12160000D01*
X35165193Y12365836D01*
X35215901Y12533000D01*
X35225233Y12563763D01*
X35322733Y12746172D01*
X35453946Y12906054D01*
X35613828Y13037267D01*
X35796237Y13134767D01*
X35862213Y13154780D01*
X35994164Y13194807D01*
X36071293Y13202403D01*
X36148420Y13210000D01*
X36251580Y13210000D01*
X36328707Y13202403D01*
X36328707Y13202403D01*
G37*
G36*
X7178707Y13202403D02*
X7255836Y13194807D01*
X7387787Y13154780D01*
X7453763Y13134767D01*
X7636172Y13037267D01*
X7796054Y12906054D01*
X7927267Y12746172D01*
X8024767Y12563763D01*
X8034099Y12533000D01*
X8084807Y12365836D01*
X8105080Y12160000D01*
X8084807Y11954164D01*
X8044780Y11822213D01*
X8024767Y11756237D01*
X7927267Y11573828D01*
X7796054Y11413946D01*
X7636172Y11282733D01*
X7453763Y11185233D01*
X7387787Y11165220D01*
X7255836Y11125193D01*
X7178707Y11117596D01*
X7101580Y11110000D01*
X6998420Y11110000D01*
X6921293Y11117596D01*
X6844164Y11125193D01*
X6712213Y11165220D01*
X6646237Y11185233D01*
X6463828Y11282733D01*
X6303946Y11413946D01*
X6172733Y11573828D01*
X6075233Y11756237D01*
X6055220Y11822213D01*
X6015193Y11954164D01*
X5994920Y12160000D01*
X6015193Y12365836D01*
X6065901Y12533000D01*
X6075233Y12563763D01*
X6172733Y12746172D01*
X6303946Y12906054D01*
X6463828Y13037267D01*
X6646237Y13134767D01*
X6712213Y13154780D01*
X6844164Y13194807D01*
X6921293Y13202403D01*
X6998420Y13210000D01*
X7101580Y13210000D01*
X7178707Y13202403D01*
X7178707Y13202403D01*
G37*
G36*
X1878707Y13202403D02*
X1955836Y13194807D01*
X2087787Y13154780D01*
X2153763Y13134767D01*
X2336172Y13037267D01*
X2496054Y12906054D01*
X2627267Y12746172D01*
X2724767Y12563763D01*
X2734099Y12533000D01*
X2784807Y12365836D01*
X2805080Y12160000D01*
X2784807Y11954164D01*
X2744780Y11822213D01*
X2724767Y11756237D01*
X2627267Y11573828D01*
X2496054Y11413946D01*
X2336172Y11282733D01*
X2153763Y11185233D01*
X2087787Y11165220D01*
X1955836Y11125193D01*
X1878707Y11117596D01*
X1801580Y11110000D01*
X1698420Y11110000D01*
X1621293Y11117596D01*
X1544164Y11125193D01*
X1412213Y11165220D01*
X1346237Y11185233D01*
X1163828Y11282733D01*
X1003946Y11413946D01*
X872733Y11573828D01*
X775233Y11756237D01*
X755220Y11822213D01*
X715193Y11954164D01*
X694920Y12160000D01*
X715193Y12365836D01*
X765901Y12533000D01*
X775233Y12563763D01*
X872733Y12746172D01*
X1003946Y12906054D01*
X1163828Y13037267D01*
X1346237Y13134767D01*
X1412213Y13154780D01*
X1544164Y13194807D01*
X1621293Y13202403D01*
X1698420Y13210000D01*
X1801580Y13210000D01*
X1878707Y13202403D01*
X1878707Y13202403D01*
G37*
G36*
X11000000Y11725000D02*
X8900000Y11725000D01*
X8900000Y12625000D01*
X11000000Y12625000D01*
X11000000Y11725000D01*
X11000000Y11725000D01*
G37*
G36*
X14650000Y13350000D02*
X12550000Y13350000D01*
X12550000Y14250000D01*
X14650000Y14250000D01*
X14650000Y13350000D01*
X14650000Y13350000D01*
G37*
G36*
X31950000Y13640000D02*
X29850000Y13640000D01*
X29850000Y15740000D01*
X31950000Y15740000D01*
X31950000Y13640000D01*
X31950000Y13640000D01*
G37*
G36*
X34600000Y13640000D02*
X32500000Y13640000D01*
X32500000Y15740000D01*
X34600000Y15740000D01*
X34600000Y13640000D01*
X34600000Y13640000D01*
G37*
G36*
X2800000Y13650000D02*
X700000Y13650000D01*
X700000Y15750000D01*
X2800000Y15750000D01*
X2800000Y13650000D01*
X2800000Y13650000D01*
G37*
G36*
X8100000Y13650000D02*
X6000000Y13650000D01*
X6000000Y15750000D01*
X8100000Y15750000D01*
X8100000Y13650000D01*
X8100000Y13650000D01*
G37*
G36*
X5450000Y13650000D02*
X3350000Y13650000D01*
X3350000Y15750000D01*
X5450000Y15750000D01*
X5450000Y13650000D01*
X5450000Y13650000D01*
G37*
G36*
X37250000Y13650000D02*
X35150000Y13650000D01*
X35150000Y15750000D01*
X37250000Y15750000D01*
X37250000Y13650000D01*
X37250000Y13650000D01*
G37*
G36*
X21050000Y15450000D02*
X20150000Y15450000D01*
X20150000Y17550000D01*
X21050000Y17550000D01*
X21050000Y15450000D01*
X21050000Y15450000D01*
G37*
G36*
X15645000Y15932900D02*
X13690900Y15932900D01*
X13690900Y18032900D01*
X15645000Y18032900D01*
X15645000Y15932900D01*
X15645000Y15932900D01*
G37*
G36*
X23175000Y16700000D02*
X22125000Y16700000D01*
X22125000Y18800000D01*
X23175000Y18800000D01*
X23175000Y16700000D01*
X23175000Y16700000D01*
G37*
G36*
X25075000Y16700000D02*
X24025000Y16700000D01*
X24025000Y17500000D01*
X25075000Y17500000D01*
X25075000Y16700000D01*
X25075000Y16700000D01*
G37*
G36*
X25075000Y18000000D02*
X24025000Y18000000D01*
X24025000Y18800000D01*
X25075000Y18800000D01*
X25075000Y18000000D01*
X25075000Y18000000D01*
G37*
G36*
X4050000Y18300000D02*
X1950000Y18300000D01*
X1950000Y20200000D01*
X4050000Y20200000D01*
X4050000Y18300000D01*
X4050000Y18300000D01*
G37*
G36*
X36050000Y18300000D02*
X33950000Y18300000D01*
X33950000Y20200000D01*
X36050000Y20200000D01*
X36050000Y18300000D01*
X36050000Y18300000D01*
G37*
G36*
X19050000Y18450000D02*
X17250000Y18450000D01*
X17250000Y20550000D01*
X19050000Y20550000D01*
X19050000Y18450000D01*
X19050000Y18450000D01*
G37*
G36*
X20750000Y19150000D02*
X19600000Y19150000D01*
X19600000Y20350000D01*
X20750000Y20350000D01*
X20750000Y19150000D01*
X20750000Y19150000D01*
G37*
G36*
X15375000Y19225000D02*
X14225000Y19225000D01*
X14225000Y20425000D01*
X15375000Y20425000D01*
X15375000Y19225000D01*
X15375000Y19225000D01*
G37*
G36*
X20750000Y20650000D02*
X19600000Y20650000D01*
X19600000Y21850000D01*
X20750000Y21850000D01*
X20750000Y20650000D01*
X20750000Y20650000D01*
G37*
G36*
X15375000Y20725000D02*
X14225000Y20725000D01*
X14225000Y21925000D01*
X15375000Y21925000D01*
X15375000Y20725000D01*
X15375000Y20725000D01*
G37*
G36*
X20150000Y22625000D02*
X18950000Y22625000D01*
X18950000Y27675000D01*
X20150000Y27675000D01*
X20150000Y22625000D01*
X20150000Y22625000D01*
G37*
G36*
X18650000Y22625000D02*
X17450000Y22625000D01*
X17450000Y27675000D01*
X18650000Y27675000D01*
X18650000Y22625000D01*
X18650000Y22625000D01*
G37*
G36*
X10950000Y22800000D02*
X7750000Y22800000D01*
X7750000Y26000000D01*
X10950000Y26000000D01*
X10950000Y22800000D01*
X10950000Y22800000D01*
G37*
G36*
X6000000Y26700000D02*
X2800000Y26700000D01*
X2800000Y29900000D01*
X6000000Y29900000D01*
X6000000Y26700000D01*
X6000000Y26700000D01*
G37*
G36*
X26800000Y26700000D02*
X23600000Y26700000D01*
X23600000Y29900000D01*
X26800000Y29900000D01*
X26800000Y26700000D01*
X26800000Y26700000D01*
G37*
G36*
X29525888Y30645530D02*
X29706274Y30609650D01*
X29897362Y30530498D01*
X30069336Y30415589D01*
X30215589Y30269336D01*
X30330498Y30097362D01*
X30409650Y29906274D01*
X30450000Y29703416D01*
X30450000Y29496584D01*
X30409650Y29293726D01*
X30330498Y29102638D01*
X30215589Y28930664D01*
X30069336Y28784411D01*
X29897362Y28669502D01*
X29706274Y28590350D01*
X29525888Y28554470D01*
X29503417Y28550000D01*
X29296583Y28550000D01*
X29274112Y28554470D01*
X29093726Y28590350D01*
X28902638Y28669502D01*
X28730664Y28784411D01*
X28584411Y28930664D01*
X28469502Y29102638D01*
X28390350Y29293726D01*
X28350000Y29496584D01*
X28350000Y29703416D01*
X28390350Y29906274D01*
X28469502Y30097362D01*
X28584411Y30269336D01*
X28730664Y30415589D01*
X28902638Y30530498D01*
X29093726Y30609650D01*
X29274112Y30645530D01*
X29296583Y30650000D01*
X29503417Y30650000D01*
X29525888Y30645530D01*
X29525888Y30645530D01*
G37*
G36*
X8725888Y30645530D02*
X8906274Y30609650D01*
X9097362Y30530498D01*
X9269336Y30415589D01*
X9415589Y30269336D01*
X9530498Y30097362D01*
X9609650Y29906274D01*
X9650000Y29703416D01*
X9650000Y29496584D01*
X9609650Y29293726D01*
X9530498Y29102638D01*
X9415589Y28930664D01*
X9269336Y28784411D01*
X9097362Y28669502D01*
X8906274Y28590350D01*
X8725888Y28554470D01*
X8703417Y28550000D01*
X8496583Y28550000D01*
X8474112Y28554470D01*
X8293726Y28590350D01*
X8102638Y28669502D01*
X7930664Y28784411D01*
X7784411Y28930664D01*
X7669502Y29102638D01*
X7590350Y29293726D01*
X7550000Y29496584D01*
X7550000Y29703416D01*
X7590350Y29906274D01*
X7669502Y30097362D01*
X7784411Y30269336D01*
X7930664Y30415589D01*
X8102638Y30530498D01*
X8293726Y30609650D01*
X8474112Y30645530D01*
X8496583Y30650000D01*
X8703417Y30650000D01*
X8725888Y30645530D01*
X8725888Y30645530D01*
G37*
G36*
X35200000Y34400000D02*
X32000000Y34400000D01*
X32000000Y37000000D01*
X35200000Y37000000D01*
X35200000Y34400000D01*
X35200000Y34400000D01*
G37*
G36*
X14400000Y34400000D02*
X11200000Y34400000D01*
X11200000Y37000000D01*
X14400000Y37000000D01*
X14400000Y34400000D01*
X14400000Y34400000D01*
G37*
G36*
X29525888Y37645530D02*
X29706274Y37609650D01*
X29897362Y37530498D01*
X30069336Y37415589D01*
X30215589Y37269336D01*
X30330498Y37097362D01*
X30409650Y36906274D01*
X30450000Y36703416D01*
X30450000Y36496584D01*
X30409650Y36293726D01*
X30330498Y36102638D01*
X30215589Y35930664D01*
X30069336Y35784411D01*
X29897362Y35669502D01*
X29706274Y35590350D01*
X29525888Y35554470D01*
X29503417Y35550000D01*
X29296583Y35550000D01*
X29274112Y35554470D01*
X29093726Y35590350D01*
X28902638Y35669502D01*
X28730664Y35784411D01*
X28584411Y35930664D01*
X28469502Y36102638D01*
X28390350Y36293726D01*
X28350000Y36496584D01*
X28350000Y36703416D01*
X28390350Y36906274D01*
X28469502Y37097362D01*
X28584411Y37269336D01*
X28730664Y37415589D01*
X28902638Y37530498D01*
X29093726Y37609650D01*
X29274112Y37645530D01*
X29296583Y37650000D01*
X29503417Y37650000D01*
X29525888Y37645530D01*
X29525888Y37645530D01*
G37*
G36*
X8725888Y37645530D02*
X8906274Y37609650D01*
X9097362Y37530498D01*
X9269336Y37415589D01*
X9415589Y37269336D01*
X9530498Y37097362D01*
X9609650Y36906274D01*
X9650000Y36703416D01*
X9650000Y36496584D01*
X9609650Y36293726D01*
X9530498Y36102638D01*
X9415589Y35930664D01*
X9269336Y35784411D01*
X9097362Y35669502D01*
X8906274Y35590350D01*
X8725888Y35554470D01*
X8703417Y35550000D01*
X8496583Y35550000D01*
X8474112Y35554470D01*
X8293726Y35590350D01*
X8102638Y35669502D01*
X7930664Y35784411D01*
X7784411Y35930664D01*
X7669502Y36102638D01*
X7590350Y36293726D01*
X7550000Y36496584D01*
X7550000Y36703416D01*
X7590350Y36906274D01*
X7669502Y37097362D01*
X7784411Y37269336D01*
X7930664Y37415589D01*
X8102638Y37530498D01*
X8293726Y37609650D01*
X8474112Y37645530D01*
X8496583Y37650000D01*
X8703417Y37650000D01*
X8725888Y37645530D01*
X8725888Y37645530D01*
G37*
G36*
X26800000Y36400000D02*
X23600000Y36400000D01*
X23600000Y39000000D01*
X26800000Y39000000D01*
X26800000Y36400000D01*
X26800000Y36400000D01*
G37*
G36*
X6000000Y36400000D02*
X2800000Y36400000D01*
X2800000Y39000000D01*
X6000000Y39000000D01*
X6000000Y36400000D01*
X6000000Y36400000D01*
G37*
M02*
