G04 #@! TF.GenerationSoftware,KiCad,Pcbnew,(5.0.1-3-g963ef8bb5)*
G04 #@! TF.CreationDate,2019-01-09T17:43:23-05:00*
G04 #@! TF.ProjectId,Tympan_AIC_Shield,54796D70616E5F4149435F536869656C,rev?*
G04 #@! TF.SameCoordinates,PX6d878d0PY5279480*
G04 #@! TF.FileFunction,Copper,L4,Bot,Signal*
G04 #@! TF.FilePolarity,Positive*
%FSLAX46Y46*%
G04 Gerber Fmt 4.6, Leading zero omitted, Abs format (unit mm)*
G04 Created by KiCad (PCBNEW (5.0.1-3-g963ef8bb5)) date Wednesday, January 09, 2019 at 05:43:23 PM*
%MOMM*%
%LPD*%
G01*
G04 APERTURE LIST*
G04 #@! TA.AperFunction,NonConductor*
%ADD10C,0.200000*%
G04 #@! TD*
G04 #@! TA.AperFunction,EtchedComponent*
%ADD11C,0.325000*%
G04 #@! TD*
G04 #@! TA.AperFunction,SMDPad,CuDef*
%ADD12R,0.600000X0.500000*%
G04 #@! TD*
G04 #@! TA.AperFunction,ComponentPad*
%ADD13R,1.700000X1.700000*%
G04 #@! TD*
G04 #@! TA.AperFunction,ComponentPad*
%ADD14O,1.700000X1.700000*%
G04 #@! TD*
G04 #@! TA.AperFunction,BGAPad,CuDef*
%ADD15C,0.900000*%
G04 #@! TD*
G04 #@! TA.AperFunction,BGAPad,CuDef*
%ADD16C,0.700000*%
G04 #@! TD*
G04 #@! TA.AperFunction,ViaPad*
%ADD17C,0.600000*%
G04 #@! TD*
G04 #@! TA.AperFunction,Conductor*
%ADD18C,0.203200*%
G04 #@! TD*
G04 #@! TA.AperFunction,Conductor*
%ADD19C,0.177800*%
G04 #@! TD*
G04 #@! TA.AperFunction,Conductor*
%ADD20C,0.250000*%
G04 #@! TD*
G04 #@! TA.AperFunction,Conductor*
%ADD21C,0.254000*%
G04 #@! TD*
G04 APERTURE END LIST*
D10*
X22547619Y2272620D02*
X22642857Y2320239D01*
X22690476Y2415477D01*
X22690476Y3272620D01*
X21785714Y2320239D02*
X21880952Y2272620D01*
X22071428Y2272620D01*
X22166666Y2320239D01*
X22214285Y2415477D01*
X22214285Y2796429D01*
X22166666Y2891667D01*
X22071428Y2939286D01*
X21880952Y2939286D01*
X21785714Y2891667D01*
X21738095Y2796429D01*
X21738095Y2701191D01*
X22214285Y2605953D01*
X20880952Y2939286D02*
X20880952Y2129762D01*
X20928571Y2034524D01*
X20976190Y1986905D01*
X21071428Y1939286D01*
X21214285Y1939286D01*
X21309523Y1986905D01*
X20880952Y2320239D02*
X20976190Y2272620D01*
X21166666Y2272620D01*
X21261904Y2320239D01*
X21309523Y2367858D01*
X21357142Y2463096D01*
X21357142Y2748810D01*
X21309523Y2844048D01*
X21261904Y2891667D01*
X21166666Y2939286D01*
X20976190Y2939286D01*
X20880952Y2891667D01*
X20404761Y2272620D02*
X20404761Y2939286D01*
X20404761Y3272620D02*
X20452380Y3225000D01*
X20404761Y3177381D01*
X20357142Y3225000D01*
X20404761Y3272620D01*
X20404761Y3177381D01*
X20071428Y2939286D02*
X19690476Y2939286D01*
X19928571Y3272620D02*
X19928571Y2415477D01*
X19880952Y2320239D01*
X19785714Y2272620D01*
X19690476Y2272620D01*
X18738095Y2939286D02*
X18357142Y2939286D01*
X18595238Y3272620D02*
X18595238Y2415477D01*
X18547619Y2320239D01*
X18452380Y2272620D01*
X18357142Y2272620D01*
X18023809Y2272620D02*
X18023809Y3272620D01*
X17595238Y2272620D02*
X17595238Y2796429D01*
X17642857Y2891667D01*
X17738095Y2939286D01*
X17880952Y2939286D01*
X17976190Y2891667D01*
X18023809Y2844048D01*
X17119047Y2272620D02*
X17119047Y2939286D01*
X17119047Y3272620D02*
X17166666Y3225000D01*
X17119047Y3177381D01*
X17071428Y3225000D01*
X17119047Y3272620D01*
X17119047Y3177381D01*
X16642857Y2939286D02*
X16642857Y2272620D01*
X16642857Y2844048D02*
X16595238Y2891667D01*
X16500000Y2939286D01*
X16357142Y2939286D01*
X16261904Y2891667D01*
X16214285Y2796429D01*
X16214285Y2272620D01*
X15309523Y2939286D02*
X15309523Y2129762D01*
X15357142Y2034524D01*
X15404761Y1986905D01*
X15500000Y1939286D01*
X15642857Y1939286D01*
X15738095Y1986905D01*
X15309523Y2320239D02*
X15404761Y2272620D01*
X15595238Y2272620D01*
X15690476Y2320239D01*
X15738095Y2367858D01*
X15785714Y2463096D01*
X15785714Y2748810D01*
X15738095Y2844048D01*
X15690476Y2891667D01*
X15595238Y2939286D01*
X15404761Y2939286D01*
X15309523Y2891667D01*
D11*
G04 #@! TO.C,MIC2*
X3675250Y21500000D02*
G75*
G03X3675250Y21500000I-675250J0D01*
G01*
G04 #@! TO.C,MIC1*
X35675250Y21500000D02*
G75*
G03X35675250Y21500000I-675250J0D01*
G01*
G04 #@! TD*
D12*
G04 #@! TO.P,C23,1*
G04 #@! TO.N,/IN1_R_1*
X10550000Y12175000D03*
G04 #@! TO.P,C23,2*
G04 #@! TO.N,Net-(C23-Pad2)*
X9450000Y12175000D03*
G04 #@! TD*
G04 #@! TO.P,C24,1*
G04 #@! TO.N,/IN1_L_1*
X10550000Y9650000D03*
G04 #@! TO.P,C24,2*
G04 #@! TO.N,Net-(C24-Pad2)*
X9450000Y9650000D03*
G04 #@! TD*
G04 #@! TO.P,C25,1*
G04 #@! TO.N,/LOL_1*
X10550000Y7825000D03*
G04 #@! TO.P,C25,2*
G04 #@! TO.N,Net-(C25-Pad2)*
X9450000Y7825000D03*
G04 #@! TD*
G04 #@! TO.P,C26,1*
G04 #@! TO.N,/LOR_1*
X10550000Y3850000D03*
G04 #@! TO.P,C26,2*
G04 #@! TO.N,Net-(C26-Pad2)*
X9450000Y3850000D03*
G04 #@! TD*
D13*
G04 #@! TO.P,P3,1*
G04 #@! TO.N,+3V3*
X36200000Y14700000D03*
D14*
G04 #@! TO.P,P3,2*
G04 #@! TO.N,/DOUT_1*
X36200000Y12160000D03*
G04 #@! TO.P,P3,3*
G04 #@! TO.N,/DIN_1*
X36200000Y9620000D03*
G04 #@! TO.P,P3,4*
G04 #@! TO.N,/SDA2*
X36200000Y7080000D03*
G04 #@! TO.P,P3,5*
G04 #@! TO.N,/SCL2*
X36200000Y4540000D03*
G04 #@! TO.P,P3,6*
G04 #@! TO.N,GND*
X36200000Y2000000D03*
G04 #@! TD*
D13*
G04 #@! TO.P,P4,1*
G04 #@! TO.N,/M_BIAS_1*
X4400000Y14700000D03*
D14*
G04 #@! TO.P,P4,2*
G04 #@! TO.N,/MCLK*
X4400000Y12160000D03*
G04 #@! TO.P,P4,3*
G04 #@! TO.N,/BCLK*
X4400000Y9620000D03*
G04 #@! TO.P,P4,4*
G04 #@! TO.N,/WCLK*
X4400000Y7080000D03*
G04 #@! TO.P,P4,5*
G04 #@! TO.N,/nRESET_1*
X4400000Y4540000D03*
G04 #@! TO.P,P4,6*
G04 #@! TO.N,GND*
X4400000Y2000000D03*
G04 #@! TD*
D13*
G04 #@! TO.P,P5,1*
G04 #@! TO.N,+1V8*
X7050000Y14700000D03*
D14*
G04 #@! TO.P,P5,2*
G04 #@! TO.N,Net-(C23-Pad2)*
X7050000Y12160000D03*
G04 #@! TO.P,P5,3*
G04 #@! TO.N,Net-(C24-Pad2)*
X7050000Y9620000D03*
G04 #@! TO.P,P5,4*
G04 #@! TO.N,Net-(C25-Pad2)*
X7050000Y7080000D03*
G04 #@! TO.P,P5,5*
G04 #@! TO.N,Net-(C26-Pad2)*
X7050000Y4540000D03*
G04 #@! TO.P,P5,6*
G04 #@! TO.N,GND*
X7050000Y2000000D03*
G04 #@! TD*
D13*
G04 #@! TO.P,P2,1*
G04 #@! TO.N,/TX_3*
X33500000Y14700000D03*
D14*
G04 #@! TO.P,P2,2*
G04 #@! TO.N,/RX_3*
X33500000Y12160000D03*
G04 #@! TO.P,P2,3*
G04 #@! TO.N,/MISO_2*
X33500000Y9620000D03*
G04 #@! TO.P,P2,4*
G04 #@! TO.N,/MOSI_2*
X33500000Y7080000D03*
G04 #@! TO.P,P2,5*
G04 #@! TO.N,/SCK_2*
X33500000Y4540000D03*
G04 #@! TO.P,P2,6*
G04 #@! TO.N,/SS_2*
X33500000Y2000000D03*
G04 #@! TD*
D15*
G04 #@! TO.P,MIC2,1*
G04 #@! TO.N,Net-(C19-Pad2)*
X1735000Y18884000D03*
G04 #@! TO.P,MIC2,5*
G04 #@! TO.N,Net-(MIC2-Pad5)*
X3000000Y18884000D03*
G04 #@! TO.P,MIC2,4*
G04 #@! TO.N,+3V3*
X4265000Y18884000D03*
D16*
G04 #@! TO.P,MIC2,2*
G04 #@! TO.N,GND*
X1735000Y22290000D03*
G04 #@! TO.P,MIC2,3*
X4265000Y22290000D03*
G04 #@! TD*
D15*
G04 #@! TO.P,MIC1,1*
G04 #@! TO.N,Net-(C17-Pad2)*
X33735000Y18884000D03*
G04 #@! TO.P,MIC1,5*
G04 #@! TO.N,Net-(MIC1-Pad5)*
X35000000Y18884000D03*
G04 #@! TO.P,MIC1,4*
G04 #@! TO.N,+3V3*
X36265000Y18884000D03*
D16*
G04 #@! TO.P,MIC1,2*
G04 #@! TO.N,GND*
X33735000Y22290000D03*
G04 #@! TO.P,MIC1,3*
X36265000Y22290000D03*
G04 #@! TD*
D14*
G04 #@! TO.P,P1,6*
G04 #@! TO.N,Net-(P1-Pad6)*
X1750000Y2000000D03*
G04 #@! TO.P,P1,5*
G04 #@! TO.N,Net-(P1-Pad5)*
X1750000Y4540000D03*
G04 #@! TO.P,P1,4*
G04 #@! TO.N,Net-(P1-Pad4)*
X1750000Y7080000D03*
G04 #@! TO.P,P1,3*
G04 #@! TO.N,Net-(P1-Pad3)*
X1750000Y9620000D03*
G04 #@! TO.P,P1,2*
G04 #@! TO.N,Net-(P1-Pad2)*
X1750000Y12160000D03*
D13*
G04 #@! TO.P,P1,1*
G04 #@! TO.N,Net-(P1-Pad1)*
X1750000Y14700000D03*
G04 #@! TD*
D17*
G04 #@! TO.N,GND*
X17000000Y15400000D03*
X36750000Y23600000D03*
X32250000Y22350000D03*
X1100000Y21050000D03*
X5600000Y22300000D03*
X19294600Y12383000D03*
X17394600Y12383000D03*
X23000000Y6175000D03*
X24766379Y35718390D03*
X21550000Y17150000D03*
X20600000Y15200008D03*
X17394600Y10456090D03*
X19294600Y10456090D03*
G04 #@! TO.N,+3V3*
X36600000Y17700000D03*
X4400000Y17900000D03*
X24550000Y19299998D03*
X24450000Y8075000D03*
X13343903Y16450000D03*
G04 #@! TO.N,+1V8*
X16100000Y16600000D03*
X13600000Y14500000D03*
X15200000Y7300000D03*
G04 #@! TO.N,Net-(C17-Pad2)*
X36500000Y20100000D03*
G04 #@! TO.N,Net-(C19-Pad2)*
X1300000Y19800000D03*
G04 #@! TO.N,Net-(J1-Pad3)*
X19500000Y31600000D03*
X31275000Y35000000D03*
G04 #@! TO.N,/MICDET*
X9400000Y22000000D03*
X12775003Y12500003D03*
G04 #@! TO.N,/BCLK*
X18175000Y5650000D03*
X9650000Y5825000D03*
G04 #@! TO.N,/MCLK*
X17125000Y5650000D03*
X10250000Y6925000D03*
G04 #@! TO.N,/WCLK*
X19075000Y5575000D03*
X10200000Y4850000D03*
G04 #@! TO.N,/HPL*
X15050000Y14250000D03*
X15050000Y27825000D03*
G04 #@! TO.N,/HPR*
X14275000Y12700000D03*
X15025000Y28700000D03*
G04 #@! TO.N,Net-(R16-Pad2)*
X15900000Y18925000D03*
X21400000Y18300000D03*
G04 #@! TO.N,Net-(C12-Pad2)*
X6700000Y26800000D03*
X20150000Y25000000D03*
G04 #@! TO.N,Net-(C13-Pad2)*
X12200000Y33500000D03*
X11200000Y22100000D03*
G04 #@! TO.N,/nRESET_1*
X15950000Y3775000D03*
G04 #@! TO.N,/DIN_1*
X22975000Y9000000D03*
X19975000Y5600000D03*
G04 #@! TO.N,/DOUT_1*
X24125000Y11700000D03*
X20925000Y5650000D03*
G04 #@! TO.N,/SDA2*
X25800000Y10825000D03*
X25850000Y5875000D03*
G04 #@! TO.N,/SCL2*
X25200000Y3425000D03*
X25177902Y9947110D03*
G04 #@! TO.N,/M_BIAS_1*
X10450000Y13425000D03*
X25500000Y13950000D03*
G04 #@! TO.N,/IN2_L_1*
X28425000Y13375000D03*
X28425002Y19775000D03*
G04 #@! TO.N,/IN2_R_1*
X5400000Y19850000D03*
X21300000Y21400000D03*
X20850000Y14225000D03*
G04 #@! TO.N,/IN1_R_1*
X22825000Y12425000D03*
X9672364Y11060835D03*
G04 #@! TO.N,/IN1_L_1*
X22200000Y11800000D03*
X10575000Y11025000D03*
G04 #@! TO.N,/LOL_1*
X17100000Y17550000D03*
X11875000Y17575000D03*
X11850000Y7150000D03*
G04 #@! TO.N,/LOR_1*
X17250000Y16500000D03*
X11275000Y15875000D03*
X11300000Y4500000D03*
G04 #@! TD*
D18*
G04 #@! TO.N,GND*
X36265000Y22290000D02*
X36750000Y22775000D01*
X36750000Y22775000D02*
X36750000Y23600000D01*
X33735000Y22290000D02*
X33675000Y22350000D01*
X33675000Y22350000D02*
X32250000Y22350000D01*
X1735000Y22290000D02*
X1100000Y21655000D01*
X1100000Y21655000D02*
X1100000Y21050000D01*
X4265000Y22290000D02*
X5590000Y22290000D01*
X5590000Y22290000D02*
X5600000Y22300000D01*
X1735000Y22290000D02*
X2300000Y21725000D01*
X2300000Y21725000D02*
X2300000Y21400000D01*
X4265000Y22290000D02*
X3700000Y21725000D01*
X3700000Y21725000D02*
X3700000Y21500000D01*
X33735000Y22290000D02*
X34300000Y21725000D01*
X34300000Y21725000D02*
X34300000Y21500000D01*
X36265000Y22290000D02*
X35700000Y21725000D01*
X35700000Y21725000D02*
X35700000Y21500000D01*
D19*
X19294600Y12383000D02*
X19297100Y12385500D01*
X17394600Y12383000D02*
X17392100Y12385500D01*
X17394600Y10478000D02*
X17394600Y10456090D01*
X19297100Y10480500D02*
X19294600Y10478000D01*
X19294600Y10478000D02*
X19294600Y10456090D01*
X17392100Y10480500D02*
X17394600Y10478000D01*
D18*
G04 #@! TO.N,Net-(C17-Pad2)*
X33735000Y18884000D02*
X34951000Y20100000D01*
X34951000Y20100000D02*
X36500000Y20100000D01*
G04 #@! TO.N,Net-(C19-Pad2)*
X1735000Y18884000D02*
X1300000Y19319000D01*
X1300000Y19319000D02*
X1300000Y19800000D01*
D20*
G04 #@! TO.N,Net-(C23-Pad2)*
X7065000Y12175000D02*
X7050000Y12160000D01*
X9450000Y12175000D02*
X7065000Y12175000D01*
G04 #@! TO.N,Net-(C24-Pad2)*
X7080000Y9650000D02*
X7050000Y9620000D01*
X9450000Y9650000D02*
X7080000Y9650000D01*
G04 #@! TO.N,Net-(C25-Pad2)*
X7795000Y7825000D02*
X7050000Y7080000D01*
X9450000Y7825000D02*
X7795000Y7825000D01*
G04 #@! TO.N,Net-(C26-Pad2)*
X7740000Y3850000D02*
X7050000Y4540000D01*
X9450000Y3850000D02*
X7740000Y3850000D01*
D18*
G04 #@! TO.N,/DIN_1*
X20700000Y6725000D02*
X22975000Y9000000D01*
X19975000Y6000000D02*
X20700000Y6725000D01*
X19975000Y5600000D02*
X19975000Y6000000D01*
G04 #@! TO.N,/DOUT_1*
X23844999Y11419999D02*
X24125000Y11700000D01*
X23844999Y8046481D02*
X23844999Y11419999D01*
X21448518Y5650000D02*
X23844999Y8046481D01*
X20925000Y5650000D02*
X21448518Y5650000D01*
G04 #@! TO.N,/SDA2*
X25800000Y10825000D02*
X25800000Y5925000D01*
D20*
X25800000Y5925000D02*
X25850000Y5875000D01*
G04 #@! TO.N,/SCL2*
X25177902Y3447098D02*
X25200000Y3425000D01*
D18*
X25177902Y9947110D02*
X25177902Y3447098D01*
G04 #@! TO.N,/IN2_L_1*
X28425000Y19774998D02*
X28425002Y19775000D01*
X28425000Y13375000D02*
X28425000Y19774998D01*
G04 #@! TO.N,/IN2_R_1*
X20850000Y14225000D02*
X20175000Y14225000D01*
X20175000Y14225000D02*
X19650000Y14750000D01*
X19650000Y19750000D02*
X21300000Y21400000D01*
X19650000Y14750000D02*
X19650000Y19750000D01*
G04 #@! TO.N,/IN1_R_1*
X9672364Y11297364D02*
X10550000Y12175000D01*
D20*
X9672364Y11060835D02*
X9672364Y11297364D01*
D18*
G04 #@! TO.N,/IN1_L_1*
X10575000Y9675000D02*
X10550000Y9650000D01*
X10575000Y11025000D02*
X10575000Y9675000D01*
D20*
G04 #@! TO.N,/LOL_1*
X11175000Y7825000D02*
X11850000Y7150000D01*
X10550000Y7825000D02*
X11175000Y7825000D01*
D18*
G04 #@! TO.N,/LOR_1*
X11250000Y4450000D02*
X11300000Y4500000D01*
D20*
X11200000Y4500000D02*
X10550000Y3850000D01*
X11300000Y4500000D02*
X11200000Y4500000D01*
G04 #@! TD*
D21*
G04 #@! TO.N,+3V3*
G36*
X36104960Y39541389D02*
X36178489Y39524346D01*
X36621546Y39457736D01*
X36960246Y39295094D01*
X37236147Y39040054D01*
X37424860Y38715161D01*
X37515761Y38322987D01*
X37519371Y38231115D01*
X37544001Y38102001D01*
X37544000Y1900370D01*
X37541389Y1895040D01*
X37524346Y1821511D01*
X37457736Y1378454D01*
X37295094Y1039754D01*
X37040054Y763853D01*
X36715162Y575141D01*
X36322983Y484239D01*
X36231115Y480629D01*
X36102007Y456000D01*
X1900370Y456000D01*
X1895040Y458611D01*
X1821511Y475654D01*
X1378454Y542264D01*
X1039754Y704906D01*
X763853Y959946D01*
X575141Y1284838D01*
X484239Y1677017D01*
X480629Y1768885D01*
X456000Y1897993D01*
X456000Y2000000D01*
X494884Y2000000D01*
X590424Y1519688D01*
X862499Y1112499D01*
X1269688Y840424D01*
X1628761Y769000D01*
X1871239Y769000D01*
X2230312Y840424D01*
X2637501Y1112499D01*
X2909576Y1519688D01*
X3005116Y2000000D01*
X3144884Y2000000D01*
X3240424Y1519688D01*
X3512499Y1112499D01*
X3919688Y840424D01*
X4278761Y769000D01*
X4521239Y769000D01*
X4880312Y840424D01*
X5287501Y1112499D01*
X5559576Y1519688D01*
X5655116Y2000000D01*
X5794884Y2000000D01*
X5890424Y1519688D01*
X6162499Y1112499D01*
X6569688Y840424D01*
X6928761Y769000D01*
X7171239Y769000D01*
X7530312Y840424D01*
X7937501Y1112499D01*
X8209576Y1519688D01*
X8305116Y2000000D01*
X8209576Y2480312D01*
X7937501Y2887501D01*
X7530312Y3159576D01*
X7171239Y3231000D01*
X6928761Y3231000D01*
X6569688Y3159576D01*
X6162499Y2887501D01*
X5890424Y2480312D01*
X5794884Y2000000D01*
X5655116Y2000000D01*
X5559576Y2480312D01*
X5287501Y2887501D01*
X4880312Y3159576D01*
X4521239Y3231000D01*
X4278761Y3231000D01*
X3919688Y3159576D01*
X3512499Y2887501D01*
X3240424Y2480312D01*
X3144884Y2000000D01*
X3005116Y2000000D01*
X2909576Y2480312D01*
X2637501Y2887501D01*
X2230312Y3159576D01*
X1871239Y3231000D01*
X1628761Y3231000D01*
X1269688Y3159576D01*
X862499Y2887501D01*
X590424Y2480312D01*
X494884Y2000000D01*
X456000Y2000000D01*
X456000Y4540000D01*
X494884Y4540000D01*
X590424Y4059688D01*
X862499Y3652499D01*
X1269688Y3380424D01*
X1628761Y3309000D01*
X1871239Y3309000D01*
X2230312Y3380424D01*
X2637501Y3652499D01*
X2909576Y4059688D01*
X3005116Y4540000D01*
X3144884Y4540000D01*
X3240424Y4059688D01*
X3512499Y3652499D01*
X3919688Y3380424D01*
X4278761Y3309000D01*
X4521239Y3309000D01*
X4880312Y3380424D01*
X5287501Y3652499D01*
X5559576Y4059688D01*
X5655116Y4540000D01*
X5559576Y5020312D01*
X5287501Y5427501D01*
X4880312Y5699576D01*
X4521239Y5771000D01*
X4278761Y5771000D01*
X3919688Y5699576D01*
X3512499Y5427501D01*
X3240424Y5020312D01*
X3144884Y4540000D01*
X3005116Y4540000D01*
X2909576Y5020312D01*
X2637501Y5427501D01*
X2230312Y5699576D01*
X1871239Y5771000D01*
X1628761Y5771000D01*
X1269688Y5699576D01*
X862499Y5427501D01*
X590424Y5020312D01*
X494884Y4540000D01*
X456000Y4540000D01*
X456000Y7080000D01*
X494884Y7080000D01*
X590424Y6599688D01*
X862499Y6192499D01*
X1269688Y5920424D01*
X1628761Y5849000D01*
X1871239Y5849000D01*
X2230312Y5920424D01*
X2637501Y6192499D01*
X2909576Y6599688D01*
X3005116Y7080000D01*
X3144884Y7080000D01*
X3240424Y6599688D01*
X3512499Y6192499D01*
X3919688Y5920424D01*
X4278761Y5849000D01*
X4521239Y5849000D01*
X4880312Y5920424D01*
X5287501Y6192499D01*
X5559576Y6599688D01*
X5655116Y7080000D01*
X5794884Y7080000D01*
X5890424Y6599688D01*
X6162499Y6192499D01*
X6569688Y5920424D01*
X6928761Y5849000D01*
X7171239Y5849000D01*
X7530312Y5920424D01*
X7937501Y6192499D01*
X8209576Y6599688D01*
X8305116Y7080000D01*
X8257576Y7319000D01*
X8862828Y7319000D01*
X8875314Y7300314D01*
X9001341Y7216106D01*
X9150000Y7186536D01*
X9621223Y7186536D01*
X9569000Y7060459D01*
X9569000Y6789541D01*
X9672676Y6539244D01*
X9705920Y6506000D01*
X9514541Y6506000D01*
X9264244Y6402324D01*
X9072676Y6210756D01*
X8969000Y5960459D01*
X8969000Y5689541D01*
X9072676Y5439244D01*
X9264244Y5247676D01*
X9514541Y5144000D01*
X9584670Y5144000D01*
X9519000Y4985459D01*
X9519000Y4714541D01*
X9612644Y4488464D01*
X9150000Y4488464D01*
X9001341Y4458894D01*
X8875314Y4374686D01*
X8862828Y4356000D01*
X8268516Y4356000D01*
X8305116Y4540000D01*
X8209576Y5020312D01*
X7937501Y5427501D01*
X7530312Y5699576D01*
X7171239Y5771000D01*
X6928761Y5771000D01*
X6569688Y5699576D01*
X6162499Y5427501D01*
X5890424Y5020312D01*
X5794884Y4540000D01*
X5890424Y4059688D01*
X6162499Y3652499D01*
X6569688Y3380424D01*
X6928761Y3309000D01*
X7171239Y3309000D01*
X7530312Y3380424D01*
X7531154Y3380986D01*
X7542569Y3373359D01*
X7690165Y3344000D01*
X7739999Y3334087D01*
X7789833Y3344000D01*
X8862828Y3344000D01*
X8875314Y3325314D01*
X9001341Y3241106D01*
X9150000Y3211536D01*
X9750000Y3211536D01*
X9898659Y3241106D01*
X10000000Y3308819D01*
X10101341Y3241106D01*
X10250000Y3211536D01*
X10850000Y3211536D01*
X10998659Y3241106D01*
X11124686Y3325314D01*
X11208894Y3451341D01*
X11238464Y3600000D01*
X11238464Y3819000D01*
X11435459Y3819000D01*
X11573069Y3876000D01*
X14590429Y3876000D01*
X14590429Y1414000D01*
X23409572Y1414000D01*
X23409572Y2000000D01*
X32244884Y2000000D01*
X32340424Y1519688D01*
X32612499Y1112499D01*
X33019688Y840424D01*
X33378761Y769000D01*
X33621239Y769000D01*
X33980312Y840424D01*
X34387501Y1112499D01*
X34659576Y1519688D01*
X34755116Y2000000D01*
X34944884Y2000000D01*
X35040424Y1519688D01*
X35312499Y1112499D01*
X35719688Y840424D01*
X36078761Y769000D01*
X36321239Y769000D01*
X36680312Y840424D01*
X37087501Y1112499D01*
X37359576Y1519688D01*
X37455116Y2000000D01*
X37359576Y2480312D01*
X37087501Y2887501D01*
X36680312Y3159576D01*
X36321239Y3231000D01*
X36078761Y3231000D01*
X35719688Y3159576D01*
X35312499Y2887501D01*
X35040424Y2480312D01*
X34944884Y2000000D01*
X34755116Y2000000D01*
X34659576Y2480312D01*
X34387501Y2887501D01*
X33980312Y3159576D01*
X33621239Y3231000D01*
X33378761Y3231000D01*
X33019688Y3159576D01*
X32612499Y2887501D01*
X32340424Y2480312D01*
X32244884Y2000000D01*
X23409572Y2000000D01*
X23409572Y3876000D01*
X16631000Y3876000D01*
X16631000Y3910459D01*
X16527324Y4160756D01*
X16335756Y4352324D01*
X16085459Y4456000D01*
X15814541Y4456000D01*
X15564244Y4352324D01*
X15372676Y4160756D01*
X15269000Y3910459D01*
X15269000Y3876000D01*
X14590429Y3876000D01*
X11573069Y3876000D01*
X11685756Y3922676D01*
X11877324Y4114244D01*
X11981000Y4364541D01*
X11981000Y4635459D01*
X11877324Y4885756D01*
X11685756Y5077324D01*
X11435459Y5181000D01*
X11164541Y5181000D01*
X10914244Y5077324D01*
X10863830Y5026910D01*
X10777324Y5235756D01*
X10585756Y5427324D01*
X10335459Y5531000D01*
X10265330Y5531000D01*
X10331000Y5689541D01*
X10331000Y5785459D01*
X16444000Y5785459D01*
X16444000Y5514541D01*
X16547676Y5264244D01*
X16739244Y5072676D01*
X16989541Y4969000D01*
X17260459Y4969000D01*
X17510756Y5072676D01*
X17650000Y5211920D01*
X17789244Y5072676D01*
X18039541Y4969000D01*
X18310459Y4969000D01*
X18560756Y5072676D01*
X18587500Y5099420D01*
X18689244Y4997676D01*
X18939541Y4894000D01*
X19210459Y4894000D01*
X19460756Y4997676D01*
X19537500Y5074420D01*
X19589244Y5022676D01*
X19839541Y4919000D01*
X20110459Y4919000D01*
X20360756Y5022676D01*
X20475000Y5136920D01*
X20539244Y5072676D01*
X20789541Y4969000D01*
X21060459Y4969000D01*
X21310756Y5072676D01*
X21404735Y5166655D01*
X21448518Y5157946D01*
X21496046Y5167400D01*
X21496047Y5167400D01*
X21636819Y5195401D01*
X21796453Y5302065D01*
X21823380Y5342364D01*
X22378035Y5897018D01*
X22422676Y5789244D01*
X22614244Y5597676D01*
X22864541Y5494000D01*
X23135459Y5494000D01*
X23385756Y5597676D01*
X23577324Y5789244D01*
X23681000Y6039541D01*
X23681000Y6310459D01*
X23577324Y6560756D01*
X23385756Y6752324D01*
X23277982Y6796965D01*
X24152639Y7671622D01*
X24192934Y7698546D01*
X24299598Y7858180D01*
X24327599Y7998952D01*
X24327599Y7998953D01*
X24337053Y8046481D01*
X24327599Y8094009D01*
X24327599Y10082569D01*
X24496902Y10082569D01*
X24496902Y9811651D01*
X24600578Y9561354D01*
X24695302Y9466630D01*
X24695303Y3883383D01*
X24622676Y3810756D01*
X24519000Y3560459D01*
X24519000Y3289541D01*
X24622676Y3039244D01*
X24814244Y2847676D01*
X25064541Y2744000D01*
X25335459Y2744000D01*
X25585756Y2847676D01*
X25777324Y3039244D01*
X25881000Y3289541D01*
X25881000Y3560459D01*
X25777324Y3810756D01*
X25660502Y3927578D01*
X25660502Y4540000D01*
X32244884Y4540000D01*
X32340424Y4059688D01*
X32612499Y3652499D01*
X33019688Y3380424D01*
X33378761Y3309000D01*
X33621239Y3309000D01*
X33980312Y3380424D01*
X34387501Y3652499D01*
X34659576Y4059688D01*
X34755116Y4540000D01*
X34944884Y4540000D01*
X35040424Y4059688D01*
X35312499Y3652499D01*
X35719688Y3380424D01*
X36078761Y3309000D01*
X36321239Y3309000D01*
X36680312Y3380424D01*
X37087501Y3652499D01*
X37359576Y4059688D01*
X37455116Y4540000D01*
X37359576Y5020312D01*
X37087501Y5427501D01*
X36680312Y5699576D01*
X36321239Y5771000D01*
X36078761Y5771000D01*
X35719688Y5699576D01*
X35312499Y5427501D01*
X35040424Y5020312D01*
X34944884Y4540000D01*
X34755116Y4540000D01*
X34659576Y5020312D01*
X34387501Y5427501D01*
X33980312Y5699576D01*
X33621239Y5771000D01*
X33378761Y5771000D01*
X33019688Y5699576D01*
X32612499Y5427501D01*
X32340424Y5020312D01*
X32244884Y4540000D01*
X25660502Y4540000D01*
X25660502Y5216384D01*
X25714541Y5194000D01*
X25985459Y5194000D01*
X26235756Y5297676D01*
X26427324Y5489244D01*
X26531000Y5739541D01*
X26531000Y6010459D01*
X26427324Y6260756D01*
X26282600Y6405480D01*
X26282600Y7080000D01*
X32244884Y7080000D01*
X32340424Y6599688D01*
X32612499Y6192499D01*
X33019688Y5920424D01*
X33378761Y5849000D01*
X33621239Y5849000D01*
X33980312Y5920424D01*
X34387501Y6192499D01*
X34659576Y6599688D01*
X34755116Y7080000D01*
X34944884Y7080000D01*
X35040424Y6599688D01*
X35312499Y6192499D01*
X35719688Y5920424D01*
X36078761Y5849000D01*
X36321239Y5849000D01*
X36680312Y5920424D01*
X37087501Y6192499D01*
X37359576Y6599688D01*
X37455116Y7080000D01*
X37359576Y7560312D01*
X37087501Y7967501D01*
X36680312Y8239576D01*
X36321239Y8311000D01*
X36078761Y8311000D01*
X35719688Y8239576D01*
X35312499Y7967501D01*
X35040424Y7560312D01*
X34944884Y7080000D01*
X34755116Y7080000D01*
X34659576Y7560312D01*
X34387501Y7967501D01*
X33980312Y8239576D01*
X33621239Y8311000D01*
X33378761Y8311000D01*
X33019688Y8239576D01*
X32612499Y7967501D01*
X32340424Y7560312D01*
X32244884Y7080000D01*
X26282600Y7080000D01*
X26282600Y9620000D01*
X32244884Y9620000D01*
X32340424Y9139688D01*
X32612499Y8732499D01*
X33019688Y8460424D01*
X33378761Y8389000D01*
X33621239Y8389000D01*
X33980312Y8460424D01*
X34387501Y8732499D01*
X34659576Y9139688D01*
X34755116Y9620000D01*
X34944884Y9620000D01*
X35040424Y9139688D01*
X35312499Y8732499D01*
X35719688Y8460424D01*
X36078761Y8389000D01*
X36321239Y8389000D01*
X36680312Y8460424D01*
X37087501Y8732499D01*
X37359576Y9139688D01*
X37455116Y9620000D01*
X37359576Y10100312D01*
X37087501Y10507501D01*
X36680312Y10779576D01*
X36321239Y10851000D01*
X36078761Y10851000D01*
X35719688Y10779576D01*
X35312499Y10507501D01*
X35040424Y10100312D01*
X34944884Y9620000D01*
X34755116Y9620000D01*
X34659576Y10100312D01*
X34387501Y10507501D01*
X33980312Y10779576D01*
X33621239Y10851000D01*
X33378761Y10851000D01*
X33019688Y10779576D01*
X32612499Y10507501D01*
X32340424Y10100312D01*
X32244884Y9620000D01*
X26282600Y9620000D01*
X26282600Y10344520D01*
X26377324Y10439244D01*
X26481000Y10689541D01*
X26481000Y10960459D01*
X26377324Y11210756D01*
X26185756Y11402324D01*
X25935459Y11506000D01*
X25664541Y11506000D01*
X25414244Y11402324D01*
X25222676Y11210756D01*
X25119000Y10960459D01*
X25119000Y10689541D01*
X25144445Y10628110D01*
X25042443Y10628110D01*
X24792146Y10524434D01*
X24600578Y10332866D01*
X24496902Y10082569D01*
X24327599Y10082569D01*
X24327599Y11046810D01*
X24510756Y11122676D01*
X24702324Y11314244D01*
X24806000Y11564541D01*
X24806000Y11835459D01*
X24702324Y12085756D01*
X24628080Y12160000D01*
X32244884Y12160000D01*
X32340424Y11679688D01*
X32612499Y11272499D01*
X33019688Y11000424D01*
X33378761Y10929000D01*
X33621239Y10929000D01*
X33980312Y11000424D01*
X34387501Y11272499D01*
X34659576Y11679688D01*
X34755116Y12160000D01*
X34944884Y12160000D01*
X35040424Y11679688D01*
X35312499Y11272499D01*
X35719688Y11000424D01*
X36078761Y10929000D01*
X36321239Y10929000D01*
X36680312Y11000424D01*
X37087501Y11272499D01*
X37359576Y11679688D01*
X37455116Y12160000D01*
X37359576Y12640312D01*
X37087501Y13047501D01*
X36680312Y13319576D01*
X36321239Y13391000D01*
X36078761Y13391000D01*
X35719688Y13319576D01*
X35312499Y13047501D01*
X35040424Y12640312D01*
X34944884Y12160000D01*
X34755116Y12160000D01*
X34659576Y12640312D01*
X34387501Y13047501D01*
X33980312Y13319576D01*
X33621239Y13391000D01*
X33378761Y13391000D01*
X33019688Y13319576D01*
X32612499Y13047501D01*
X32340424Y12640312D01*
X32244884Y12160000D01*
X24628080Y12160000D01*
X24510756Y12277324D01*
X24260459Y12381000D01*
X23989541Y12381000D01*
X23739244Y12277324D01*
X23547676Y12085756D01*
X23444000Y11835459D01*
X23444000Y11688517D01*
X23427980Y11664541D01*
X23390401Y11608300D01*
X23352945Y11419999D01*
X23362400Y11372466D01*
X23362399Y9575681D01*
X23360756Y9577324D01*
X23110459Y9681000D01*
X22839541Y9681000D01*
X22589244Y9577324D01*
X22397676Y9385756D01*
X22294000Y9135459D01*
X22294000Y9001499D01*
X20392361Y7099859D01*
X20392358Y7099857D01*
X19667362Y6374860D01*
X19627066Y6347935D01*
X19520402Y6188301D01*
X19504537Y6108543D01*
X19460756Y6152324D01*
X19210459Y6256000D01*
X18939541Y6256000D01*
X18689244Y6152324D01*
X18662500Y6125580D01*
X18560756Y6227324D01*
X18310459Y6331000D01*
X18039541Y6331000D01*
X17789244Y6227324D01*
X17650000Y6088080D01*
X17510756Y6227324D01*
X17260459Y6331000D01*
X16989541Y6331000D01*
X16739244Y6227324D01*
X16547676Y6035756D01*
X16444000Y5785459D01*
X10331000Y5785459D01*
X10331000Y5960459D01*
X10227324Y6210756D01*
X10194080Y6244000D01*
X10385459Y6244000D01*
X10635756Y6347676D01*
X10827324Y6539244D01*
X10931000Y6789541D01*
X10931000Y7060459D01*
X10876587Y7191824D01*
X10998659Y7216106D01*
X11040407Y7244001D01*
X11169000Y7115408D01*
X11169000Y7014541D01*
X11272676Y6764244D01*
X11464244Y6572676D01*
X11714541Y6469000D01*
X11985459Y6469000D01*
X12235756Y6572676D01*
X12427324Y6764244D01*
X12531000Y7014541D01*
X12531000Y7285459D01*
X12468869Y7435459D01*
X14519000Y7435459D01*
X14519000Y7164541D01*
X14622676Y6914244D01*
X14814244Y6722676D01*
X15064541Y6619000D01*
X15335459Y6619000D01*
X15585756Y6722676D01*
X15777324Y6914244D01*
X15881000Y7164541D01*
X15881000Y7435459D01*
X15777324Y7685756D01*
X15585756Y7877324D01*
X15335459Y7981000D01*
X15064541Y7981000D01*
X14814244Y7877324D01*
X14622676Y7685756D01*
X14519000Y7435459D01*
X12468869Y7435459D01*
X12427324Y7535756D01*
X12235756Y7727324D01*
X11985459Y7831000D01*
X11884592Y7831000D01*
X11568038Y8147553D01*
X11539806Y8189806D01*
X11372431Y8301641D01*
X11224835Y8331000D01*
X11224834Y8331000D01*
X11175000Y8340913D01*
X11135763Y8333108D01*
X11124686Y8349686D01*
X10998659Y8433894D01*
X10850000Y8463464D01*
X10250000Y8463464D01*
X10101341Y8433894D01*
X10000000Y8366181D01*
X9898659Y8433894D01*
X9750000Y8463464D01*
X9150000Y8463464D01*
X9001341Y8433894D01*
X8875314Y8349686D01*
X8862828Y8331000D01*
X7844833Y8331000D01*
X7794999Y8340913D01*
X7745165Y8331000D01*
X7597569Y8301641D01*
X7510561Y8243505D01*
X7171239Y8311000D01*
X6928761Y8311000D01*
X6569688Y8239576D01*
X6162499Y7967501D01*
X5890424Y7560312D01*
X5794884Y7080000D01*
X5655116Y7080000D01*
X5559576Y7560312D01*
X5287501Y7967501D01*
X4880312Y8239576D01*
X4521239Y8311000D01*
X4278761Y8311000D01*
X3919688Y8239576D01*
X3512499Y7967501D01*
X3240424Y7560312D01*
X3144884Y7080000D01*
X3005116Y7080000D01*
X2909576Y7560312D01*
X2637501Y7967501D01*
X2230312Y8239576D01*
X1871239Y8311000D01*
X1628761Y8311000D01*
X1269688Y8239576D01*
X862499Y7967501D01*
X590424Y7560312D01*
X494884Y7080000D01*
X456000Y7080000D01*
X456000Y9620000D01*
X494884Y9620000D01*
X590424Y9139688D01*
X862499Y8732499D01*
X1269688Y8460424D01*
X1628761Y8389000D01*
X1871239Y8389000D01*
X2230312Y8460424D01*
X2637501Y8732499D01*
X2909576Y9139688D01*
X3005116Y9620000D01*
X3144884Y9620000D01*
X3240424Y9139688D01*
X3512499Y8732499D01*
X3919688Y8460424D01*
X4278761Y8389000D01*
X4521239Y8389000D01*
X4880312Y8460424D01*
X5287501Y8732499D01*
X5559576Y9139688D01*
X5655116Y9620000D01*
X5559576Y10100312D01*
X5287501Y10507501D01*
X4880312Y10779576D01*
X4521239Y10851000D01*
X4278761Y10851000D01*
X3919688Y10779576D01*
X3512499Y10507501D01*
X3240424Y10100312D01*
X3144884Y9620000D01*
X3005116Y9620000D01*
X2909576Y10100312D01*
X2637501Y10507501D01*
X2230312Y10779576D01*
X1871239Y10851000D01*
X1628761Y10851000D01*
X1269688Y10779576D01*
X862499Y10507501D01*
X590424Y10100312D01*
X494884Y9620000D01*
X456000Y9620000D01*
X456000Y12160000D01*
X494884Y12160000D01*
X590424Y11679688D01*
X862499Y11272499D01*
X1269688Y11000424D01*
X1628761Y10929000D01*
X1871239Y10929000D01*
X2230312Y11000424D01*
X2637501Y11272499D01*
X2909576Y11679688D01*
X3005116Y12160000D01*
X3144884Y12160000D01*
X3240424Y11679688D01*
X3512499Y11272499D01*
X3919688Y11000424D01*
X4278761Y10929000D01*
X4521239Y10929000D01*
X4880312Y11000424D01*
X5287501Y11272499D01*
X5559576Y11679688D01*
X5655116Y12160000D01*
X5794884Y12160000D01*
X5890424Y11679688D01*
X6162499Y11272499D01*
X6569688Y11000424D01*
X6928761Y10929000D01*
X7171239Y10929000D01*
X7530312Y11000424D01*
X7937501Y11272499D01*
X8202435Y11669000D01*
X8862828Y11669000D01*
X8875314Y11650314D01*
X9001341Y11566106D01*
X9150000Y11536536D01*
X9184985Y11536536D01*
X9095040Y11446591D01*
X8991364Y11196294D01*
X8991364Y10925376D01*
X9095040Y10675079D01*
X9286608Y10483511D01*
X9536905Y10379835D01*
X9807823Y10379835D01*
X10058120Y10483511D01*
X10092400Y10517791D01*
X10092401Y10252920D01*
X10000000Y10191181D01*
X9898659Y10258894D01*
X9750000Y10288464D01*
X9150000Y10288464D01*
X9001341Y10258894D01*
X8875314Y10174686D01*
X8862828Y10156000D01*
X8172366Y10156000D01*
X7937501Y10507501D01*
X7530312Y10779576D01*
X7171239Y10851000D01*
X6928761Y10851000D01*
X6569688Y10779576D01*
X6162499Y10507501D01*
X5890424Y10100312D01*
X5794884Y9620000D01*
X5890424Y9139688D01*
X6162499Y8732499D01*
X6569688Y8460424D01*
X6928761Y8389000D01*
X7171239Y8389000D01*
X7530312Y8460424D01*
X7937501Y8732499D01*
X8209576Y9139688D01*
X8210434Y9144000D01*
X8862828Y9144000D01*
X8875314Y9125314D01*
X9001341Y9041106D01*
X9150000Y9011536D01*
X9750000Y9011536D01*
X9898659Y9041106D01*
X10000000Y9108819D01*
X10101341Y9041106D01*
X10250000Y9011536D01*
X10850000Y9011536D01*
X10998659Y9041106D01*
X11124686Y9125314D01*
X11208894Y9251341D01*
X11238464Y9400000D01*
X11238464Y9900000D01*
X11208894Y10048659D01*
X11124686Y10174686D01*
X11057600Y10219511D01*
X11057600Y10544520D01*
X11104629Y10591549D01*
X16713600Y10591549D01*
X16713600Y10320631D01*
X16817276Y10070334D01*
X17008844Y9878766D01*
X17259141Y9775090D01*
X17530059Y9775090D01*
X17780356Y9878766D01*
X17971924Y10070334D01*
X18075600Y10320631D01*
X18075600Y10591549D01*
X18613600Y10591549D01*
X18613600Y10320631D01*
X18717276Y10070334D01*
X18908844Y9878766D01*
X19159141Y9775090D01*
X19430059Y9775090D01*
X19680356Y9878766D01*
X19871924Y10070334D01*
X19975600Y10320631D01*
X19975600Y10591549D01*
X19871924Y10841846D01*
X19680356Y11033414D01*
X19430059Y11137090D01*
X19159141Y11137090D01*
X18908844Y11033414D01*
X18717276Y10841846D01*
X18613600Y10591549D01*
X18075600Y10591549D01*
X17971924Y10841846D01*
X17780356Y11033414D01*
X17530059Y11137090D01*
X17259141Y11137090D01*
X17008844Y11033414D01*
X16817276Y10841846D01*
X16713600Y10591549D01*
X11104629Y10591549D01*
X11152324Y10639244D01*
X11256000Y10889541D01*
X11256000Y11160459D01*
X11152324Y11410756D01*
X10997254Y11565826D01*
X10998659Y11566106D01*
X11124686Y11650314D01*
X11208894Y11776341D01*
X11238464Y11925000D01*
X11238464Y12425000D01*
X11208894Y12573659D01*
X11167599Y12635462D01*
X12094003Y12635462D01*
X12094003Y12364544D01*
X12197679Y12114247D01*
X12389247Y11922679D01*
X12639544Y11819003D01*
X12910462Y11819003D01*
X13160759Y11922679D01*
X13352327Y12114247D01*
X13456003Y12364544D01*
X13456003Y12635462D01*
X13373162Y12835459D01*
X13594000Y12835459D01*
X13594000Y12564541D01*
X13697676Y12314244D01*
X13889244Y12122676D01*
X14139541Y12019000D01*
X14410459Y12019000D01*
X14660756Y12122676D01*
X14852324Y12314244D01*
X14936912Y12518459D01*
X16713600Y12518459D01*
X16713600Y12247541D01*
X16817276Y11997244D01*
X17008844Y11805676D01*
X17259141Y11702000D01*
X17530059Y11702000D01*
X17780356Y11805676D01*
X17971924Y11997244D01*
X18075600Y12247541D01*
X18075600Y12518459D01*
X18613600Y12518459D01*
X18613600Y12247541D01*
X18717276Y11997244D01*
X18908844Y11805676D01*
X19159141Y11702000D01*
X19430059Y11702000D01*
X19680356Y11805676D01*
X19810139Y11935459D01*
X21519000Y11935459D01*
X21519000Y11664541D01*
X21622676Y11414244D01*
X21814244Y11222676D01*
X22064541Y11119000D01*
X22335459Y11119000D01*
X22585756Y11222676D01*
X22777324Y11414244D01*
X22881000Y11664541D01*
X22881000Y11744000D01*
X22960459Y11744000D01*
X23210756Y11847676D01*
X23402324Y12039244D01*
X23506000Y12289541D01*
X23506000Y12560459D01*
X23402324Y12810756D01*
X23210756Y13002324D01*
X22960459Y13106000D01*
X22689541Y13106000D01*
X22439244Y13002324D01*
X22247676Y12810756D01*
X22144000Y12560459D01*
X22144000Y12481000D01*
X22064541Y12481000D01*
X21814244Y12377324D01*
X21622676Y12185756D01*
X21519000Y11935459D01*
X19810139Y11935459D01*
X19871924Y11997244D01*
X19975600Y12247541D01*
X19975600Y12518459D01*
X19871924Y12768756D01*
X19680356Y12960324D01*
X19430059Y13064000D01*
X19159141Y13064000D01*
X18908844Y12960324D01*
X18717276Y12768756D01*
X18613600Y12518459D01*
X18075600Y12518459D01*
X17971924Y12768756D01*
X17780356Y12960324D01*
X17530059Y13064000D01*
X17259141Y13064000D01*
X17008844Y12960324D01*
X16817276Y12768756D01*
X16713600Y12518459D01*
X14936912Y12518459D01*
X14956000Y12564541D01*
X14956000Y12835459D01*
X14852324Y13085756D01*
X14660756Y13277324D01*
X14410459Y13381000D01*
X14139541Y13381000D01*
X13889244Y13277324D01*
X13697676Y13085756D01*
X13594000Y12835459D01*
X13373162Y12835459D01*
X13352327Y12885759D01*
X13160759Y13077327D01*
X12910462Y13181003D01*
X12639544Y13181003D01*
X12389247Y13077327D01*
X12197679Y12885759D01*
X12094003Y12635462D01*
X11167599Y12635462D01*
X11124686Y12699686D01*
X10998659Y12783894D01*
X10850000Y12813464D01*
X10753161Y12813464D01*
X10835756Y12847676D01*
X11027324Y13039244D01*
X11131000Y13289541D01*
X11131000Y13560459D01*
X11027324Y13810756D01*
X10835756Y14002324D01*
X10585459Y14106000D01*
X10314541Y14106000D01*
X10064244Y14002324D01*
X9872676Y13810756D01*
X9769000Y13560459D01*
X9769000Y13289541D01*
X9872676Y13039244D01*
X10064244Y12847676D01*
X10180307Y12799601D01*
X10101341Y12783894D01*
X10000000Y12716181D01*
X9898659Y12783894D01*
X9750000Y12813464D01*
X9150000Y12813464D01*
X9001341Y12783894D01*
X8875314Y12699686D01*
X8862828Y12681000D01*
X8182389Y12681000D01*
X7937501Y13047501D01*
X7530312Y13319576D01*
X7171239Y13391000D01*
X6928761Y13391000D01*
X6569688Y13319576D01*
X6162499Y13047501D01*
X5890424Y12640312D01*
X5794884Y12160000D01*
X5655116Y12160000D01*
X5559576Y12640312D01*
X5287501Y13047501D01*
X4880312Y13319576D01*
X4521239Y13391000D01*
X4278761Y13391000D01*
X3919688Y13319576D01*
X3512499Y13047501D01*
X3240424Y12640312D01*
X3144884Y12160000D01*
X3005116Y12160000D01*
X2909576Y12640312D01*
X2637501Y13047501D01*
X2230312Y13319576D01*
X1871239Y13391000D01*
X1628761Y13391000D01*
X1269688Y13319576D01*
X862499Y13047501D01*
X590424Y12640312D01*
X494884Y12160000D01*
X456000Y12160000D01*
X456000Y15550000D01*
X511536Y15550000D01*
X511536Y13850000D01*
X541106Y13701341D01*
X625314Y13575314D01*
X751341Y13491106D01*
X900000Y13461536D01*
X2600000Y13461536D01*
X2748659Y13491106D01*
X2874686Y13575314D01*
X2958894Y13701341D01*
X2988464Y13850000D01*
X2988464Y15550000D01*
X3161536Y15550000D01*
X3161536Y13850000D01*
X3191106Y13701341D01*
X3275314Y13575314D01*
X3401341Y13491106D01*
X3550000Y13461536D01*
X5250000Y13461536D01*
X5398659Y13491106D01*
X5524686Y13575314D01*
X5608894Y13701341D01*
X5638464Y13850000D01*
X5638464Y15550000D01*
X5811536Y15550000D01*
X5811536Y13850000D01*
X5841106Y13701341D01*
X5925314Y13575314D01*
X6051341Y13491106D01*
X6200000Y13461536D01*
X7900000Y13461536D01*
X8048659Y13491106D01*
X8174686Y13575314D01*
X8258894Y13701341D01*
X8288464Y13850000D01*
X8288464Y14635459D01*
X12919000Y14635459D01*
X12919000Y14364541D01*
X13022676Y14114244D01*
X13214244Y13922676D01*
X13464541Y13819000D01*
X13735459Y13819000D01*
X13985756Y13922676D01*
X14177324Y14114244D01*
X14281000Y14364541D01*
X14281000Y14385459D01*
X14369000Y14385459D01*
X14369000Y14114541D01*
X14472676Y13864244D01*
X14664244Y13672676D01*
X14914541Y13569000D01*
X15185459Y13569000D01*
X15435756Y13672676D01*
X15627324Y13864244D01*
X15731000Y14114541D01*
X15731000Y14385459D01*
X15627324Y14635756D01*
X15435756Y14827324D01*
X15185459Y14931000D01*
X14914541Y14931000D01*
X14664244Y14827324D01*
X14472676Y14635756D01*
X14369000Y14385459D01*
X14281000Y14385459D01*
X14281000Y14635459D01*
X14177324Y14885756D01*
X13985756Y15077324D01*
X13735459Y15181000D01*
X13464541Y15181000D01*
X13214244Y15077324D01*
X13022676Y14885756D01*
X12919000Y14635459D01*
X8288464Y14635459D01*
X8288464Y15550000D01*
X8258894Y15698659D01*
X8174686Y15824686D01*
X8048659Y15908894D01*
X7900000Y15938464D01*
X6200000Y15938464D01*
X6051341Y15908894D01*
X5925314Y15824686D01*
X5841106Y15698659D01*
X5811536Y15550000D01*
X5638464Y15550000D01*
X5608894Y15698659D01*
X5524686Y15824686D01*
X5398659Y15908894D01*
X5250000Y15938464D01*
X3550000Y15938464D01*
X3401341Y15908894D01*
X3275314Y15824686D01*
X3191106Y15698659D01*
X3161536Y15550000D01*
X2988464Y15550000D01*
X2958894Y15698659D01*
X2874686Y15824686D01*
X2748659Y15908894D01*
X2600000Y15938464D01*
X900000Y15938464D01*
X751341Y15908894D01*
X625314Y15824686D01*
X541106Y15698659D01*
X511536Y15550000D01*
X456000Y15550000D01*
X456000Y16010459D01*
X10594000Y16010459D01*
X10594000Y15739541D01*
X10697676Y15489244D01*
X10889244Y15297676D01*
X11139541Y15194000D01*
X11410459Y15194000D01*
X11660756Y15297676D01*
X11852324Y15489244D01*
X11956000Y15739541D01*
X11956000Y16010459D01*
X11852324Y16260756D01*
X11660756Y16452324D01*
X11410459Y16556000D01*
X11139541Y16556000D01*
X10889244Y16452324D01*
X10697676Y16260756D01*
X10594000Y16010459D01*
X456000Y16010459D01*
X456000Y16735459D01*
X15419000Y16735459D01*
X15419000Y16464541D01*
X15522676Y16214244D01*
X15714244Y16022676D01*
X15964541Y15919000D01*
X16235459Y15919000D01*
X16485756Y16022676D01*
X16644748Y16181668D01*
X16672676Y16114244D01*
X16752379Y16034541D01*
X16614244Y15977324D01*
X16422676Y15785756D01*
X16319000Y15535459D01*
X16319000Y15264541D01*
X16422676Y15014244D01*
X16614244Y14822676D01*
X16864541Y14719000D01*
X17135459Y14719000D01*
X17385756Y14822676D01*
X17577324Y15014244D01*
X17681000Y15264541D01*
X17681000Y15535459D01*
X17577324Y15785756D01*
X17497621Y15865459D01*
X17635756Y15922676D01*
X17827324Y16114244D01*
X17931000Y16364541D01*
X17931000Y16635459D01*
X17827324Y16885756D01*
X17635756Y17077324D01*
X17603687Y17090607D01*
X17677324Y17164244D01*
X17781000Y17414541D01*
X17781000Y17685459D01*
X17677324Y17935756D01*
X17485756Y18127324D01*
X17235459Y18231000D01*
X16964541Y18231000D01*
X16714244Y18127324D01*
X16522676Y17935756D01*
X16419000Y17685459D01*
X16419000Y17414541D01*
X16522676Y17164244D01*
X16714244Y16972676D01*
X16746313Y16959393D01*
X16705252Y16918332D01*
X16677324Y16985756D01*
X16485756Y17177324D01*
X16235459Y17281000D01*
X15964541Y17281000D01*
X15714244Y17177324D01*
X15522676Y16985756D01*
X15419000Y16735459D01*
X456000Y16735459D01*
X456000Y17710459D01*
X11194000Y17710459D01*
X11194000Y17439541D01*
X11297676Y17189244D01*
X11489244Y16997676D01*
X11739541Y16894000D01*
X12010459Y16894000D01*
X12260756Y16997676D01*
X12452324Y17189244D01*
X12556000Y17439541D01*
X12556000Y17710459D01*
X12452324Y17960756D01*
X12260756Y18152324D01*
X12010459Y18256000D01*
X11739541Y18256000D01*
X11489244Y18152324D01*
X11297676Y17960756D01*
X11194000Y17710459D01*
X456000Y17710459D01*
X456000Y20825215D01*
X522676Y20664244D01*
X714244Y20472676D01*
X929345Y20383579D01*
X914244Y20377324D01*
X722676Y20185756D01*
X619000Y19935459D01*
X619000Y19664541D01*
X722676Y19414244D01*
X809601Y19327319D01*
X807946Y19319000D01*
X817400Y19271472D01*
X845401Y19130700D01*
X904000Y19043000D01*
X904000Y18718704D01*
X1030512Y18413276D01*
X1264276Y18179512D01*
X1569704Y18053000D01*
X1900296Y18053000D01*
X2205724Y18179512D01*
X2367500Y18341288D01*
X2529276Y18179512D01*
X2834704Y18053000D01*
X3165296Y18053000D01*
X3470724Y18179512D01*
X3561281Y18270069D01*
X3830675Y18270069D01*
X3875353Y18131631D01*
X4192932Y18039790D01*
X4521483Y18076473D01*
X4654647Y18131631D01*
X4699325Y18270069D01*
X4265000Y18704395D01*
X3830675Y18270069D01*
X3561281Y18270069D01*
X3704488Y18413276D01*
X3767998Y18566604D01*
X4085395Y18884000D01*
X3767998Y19201396D01*
X3704488Y19354724D01*
X3561281Y19497931D01*
X3830675Y19497931D01*
X4265000Y19063605D01*
X4279142Y19077748D01*
X4458748Y18898142D01*
X4444605Y18884000D01*
X4878931Y18449675D01*
X5017369Y18494353D01*
X5109210Y18811932D01*
X5081462Y19060459D01*
X15219000Y19060459D01*
X15219000Y18789541D01*
X15322676Y18539244D01*
X15514244Y18347676D01*
X15764541Y18244000D01*
X16035459Y18244000D01*
X16285756Y18347676D01*
X16477324Y18539244D01*
X16581000Y18789541D01*
X16581000Y19060459D01*
X16477324Y19310756D01*
X16285756Y19502324D01*
X16035459Y19606000D01*
X15764541Y19606000D01*
X15514244Y19502324D01*
X15322676Y19310756D01*
X15219000Y19060459D01*
X5081462Y19060459D01*
X5072527Y19140483D01*
X5018502Y19270912D01*
X5264541Y19169000D01*
X5535459Y19169000D01*
X5785756Y19272676D01*
X5977324Y19464244D01*
X6081000Y19714541D01*
X6081000Y19750000D01*
X19157946Y19750000D01*
X19167401Y19702467D01*
X19167400Y14797528D01*
X19157946Y14750000D01*
X19167400Y14702472D01*
X19195401Y14561700D01*
X19302065Y14402065D01*
X19342363Y14375138D01*
X19800140Y13917361D01*
X19827065Y13877065D01*
X19986699Y13770401D01*
X20127471Y13742400D01*
X20174999Y13732946D01*
X20222527Y13742400D01*
X20369520Y13742400D01*
X20464244Y13647676D01*
X20714541Y13544000D01*
X20985459Y13544000D01*
X21235756Y13647676D01*
X21427324Y13839244D01*
X21529309Y14085459D01*
X24819000Y14085459D01*
X24819000Y13814541D01*
X24922676Y13564244D01*
X25114244Y13372676D01*
X25364541Y13269000D01*
X25635459Y13269000D01*
X25885756Y13372676D01*
X26023539Y13510459D01*
X27744000Y13510459D01*
X27744000Y13239541D01*
X27847676Y12989244D01*
X28039244Y12797676D01*
X28289541Y12694000D01*
X28560459Y12694000D01*
X28810756Y12797676D01*
X29002324Y12989244D01*
X29106000Y13239541D01*
X29106000Y13510459D01*
X29002324Y13760756D01*
X28907600Y13855480D01*
X28907600Y15550000D01*
X32261536Y15550000D01*
X32261536Y13850000D01*
X32291106Y13701341D01*
X32375314Y13575314D01*
X32501341Y13491106D01*
X32650000Y13461536D01*
X34350000Y13461536D01*
X34498659Y13491106D01*
X34624686Y13575314D01*
X34708894Y13701341D01*
X34738464Y13850000D01*
X34738464Y14477750D01*
X34969000Y14477750D01*
X34969000Y13774215D01*
X35027004Y13634181D01*
X35134180Y13527004D01*
X35274214Y13469000D01*
X35977750Y13469000D01*
X36073000Y13564250D01*
X36073000Y14573000D01*
X36327000Y14573000D01*
X36327000Y13564250D01*
X36422250Y13469000D01*
X37125786Y13469000D01*
X37265820Y13527004D01*
X37372996Y13634181D01*
X37431000Y13774215D01*
X37431000Y14477750D01*
X37335750Y14573000D01*
X36327000Y14573000D01*
X36073000Y14573000D01*
X35064250Y14573000D01*
X34969000Y14477750D01*
X34738464Y14477750D01*
X34738464Y15550000D01*
X34723390Y15625785D01*
X34969000Y15625785D01*
X34969000Y14922250D01*
X35064250Y14827000D01*
X36073000Y14827000D01*
X36073000Y15835750D01*
X36327000Y15835750D01*
X36327000Y14827000D01*
X37335750Y14827000D01*
X37431000Y14922250D01*
X37431000Y15625785D01*
X37372996Y15765819D01*
X37265820Y15872996D01*
X37125786Y15931000D01*
X36422250Y15931000D01*
X36327000Y15835750D01*
X36073000Y15835750D01*
X35977750Y15931000D01*
X35274214Y15931000D01*
X35134180Y15872996D01*
X35027004Y15765819D01*
X34969000Y15625785D01*
X34723390Y15625785D01*
X34708894Y15698659D01*
X34624686Y15824686D01*
X34498659Y15908894D01*
X34350000Y15938464D01*
X32650000Y15938464D01*
X32501341Y15908894D01*
X32375314Y15824686D01*
X32291106Y15698659D01*
X32261536Y15550000D01*
X28907600Y15550000D01*
X28907600Y19294518D01*
X29002326Y19389244D01*
X29106002Y19639541D01*
X29106002Y19910459D01*
X29002326Y20160756D01*
X28810758Y20352324D01*
X28560461Y20456000D01*
X28289543Y20456000D01*
X28039246Y20352324D01*
X27847678Y20160756D01*
X27744002Y19910459D01*
X27744002Y19639541D01*
X27847678Y19389244D01*
X27942401Y19294521D01*
X27942400Y13855480D01*
X27847676Y13760756D01*
X27744000Y13510459D01*
X26023539Y13510459D01*
X26077324Y13564244D01*
X26181000Y13814541D01*
X26181000Y14085459D01*
X26077324Y14335756D01*
X25885756Y14527324D01*
X25635459Y14631000D01*
X25364541Y14631000D01*
X25114244Y14527324D01*
X24922676Y14335756D01*
X24819000Y14085459D01*
X21529309Y14085459D01*
X21531000Y14089541D01*
X21531000Y14360459D01*
X21427324Y14610756D01*
X21235756Y14802324D01*
X21181664Y14824730D01*
X21281000Y15064549D01*
X21281000Y15335467D01*
X21177324Y15585764D01*
X20985756Y15777332D01*
X20735459Y15881008D01*
X20464541Y15881008D01*
X20214244Y15777332D01*
X20132600Y15695688D01*
X20132600Y18435459D01*
X20719000Y18435459D01*
X20719000Y18164541D01*
X20822676Y17914244D01*
X21014244Y17722676D01*
X21117024Y17680104D01*
X20972676Y17535756D01*
X20869000Y17285459D01*
X20869000Y17014541D01*
X20972676Y16764244D01*
X21164244Y16572676D01*
X21414541Y16469000D01*
X21685459Y16469000D01*
X21935756Y16572676D01*
X22127324Y16764244D01*
X22231000Y17014541D01*
X22231000Y17285459D01*
X22127324Y17535756D01*
X21935756Y17727324D01*
X21832976Y17769896D01*
X21977324Y17914244D01*
X22081000Y18164541D01*
X22081000Y18435459D01*
X21977324Y18685756D01*
X21785756Y18877324D01*
X21535459Y18981000D01*
X21264541Y18981000D01*
X21014244Y18877324D01*
X20822676Y18685756D01*
X20719000Y18435459D01*
X20132600Y18435459D01*
X20132600Y19550102D01*
X21301499Y20719000D01*
X21435459Y20719000D01*
X21685756Y20822676D01*
X21877324Y21014244D01*
X21981000Y21264541D01*
X21981000Y21535459D01*
X21877324Y21785756D01*
X21685756Y21977324D01*
X21435459Y22081000D01*
X21164541Y22081000D01*
X20914244Y21977324D01*
X20722676Y21785756D01*
X20619000Y21535459D01*
X20619000Y21401499D01*
X19342362Y20124860D01*
X19302066Y20097935D01*
X19212105Y19963299D01*
X19195402Y19938301D01*
X19157946Y19750000D01*
X6081000Y19750000D01*
X6081000Y19985459D01*
X5977324Y20235756D01*
X5785756Y20427324D01*
X5535459Y20531000D01*
X5264541Y20531000D01*
X5014244Y20427324D01*
X4822676Y20235756D01*
X4719000Y19985459D01*
X4719000Y19714541D01*
X4782515Y19561201D01*
X4772554Y19571162D01*
X4699325Y19497933D01*
X4654647Y19636369D01*
X4337068Y19728210D01*
X4008517Y19691527D01*
X3875353Y19636369D01*
X3830675Y19497931D01*
X3561281Y19497931D01*
X3470724Y19588488D01*
X3165296Y19715000D01*
X2834704Y19715000D01*
X2529276Y19588488D01*
X2367500Y19426712D01*
X2205724Y19588488D01*
X1981000Y19681571D01*
X1981000Y19935459D01*
X1877324Y20185756D01*
X1685756Y20377324D01*
X1470655Y20466421D01*
X1485756Y20472676D01*
X1677324Y20664244D01*
X1781000Y20914541D01*
X1781000Y21185459D01*
X1677324Y21435756D01*
X1620289Y21492791D01*
X1686499Y21559000D01*
X1772986Y21559000D01*
X1761250Y21500000D01*
X1855544Y21025951D01*
X2124071Y20624071D01*
X2525951Y20355544D01*
X3000000Y20261250D01*
X3474049Y20355544D01*
X3875929Y20624071D01*
X4144456Y21025951D01*
X4238750Y21500000D01*
X4227014Y21559000D01*
X4410405Y21559000D01*
X4679078Y21670288D01*
X4816190Y21807400D01*
X5129520Y21807400D01*
X5214244Y21722676D01*
X5464541Y21619000D01*
X5735459Y21619000D01*
X5985756Y21722676D01*
X6177324Y21914244D01*
X6268953Y22135459D01*
X8719000Y22135459D01*
X8719000Y21864541D01*
X8822676Y21614244D01*
X9014244Y21422676D01*
X9264541Y21319000D01*
X9535459Y21319000D01*
X9785756Y21422676D01*
X9977324Y21614244D01*
X10081000Y21864541D01*
X10081000Y22135459D01*
X10039579Y22235459D01*
X10519000Y22235459D01*
X10519000Y21964541D01*
X10622676Y21714244D01*
X10814244Y21522676D01*
X11064541Y21419000D01*
X11335459Y21419000D01*
X11585756Y21522676D01*
X11777324Y21714244D01*
X11881000Y21964541D01*
X11881000Y22235459D01*
X11777448Y22485459D01*
X31569000Y22485459D01*
X31569000Y22214541D01*
X31672676Y21964244D01*
X31864244Y21772676D01*
X32114541Y21669000D01*
X32385459Y21669000D01*
X32635756Y21772676D01*
X32730480Y21867400D01*
X33123810Y21867400D01*
X33320922Y21670288D01*
X33589595Y21559000D01*
X33772986Y21559000D01*
X33761250Y21500000D01*
X33855544Y21025951D01*
X34124071Y20624071D01*
X34524808Y20356308D01*
X33883501Y19715000D01*
X33569704Y19715000D01*
X33264276Y19588488D01*
X33030512Y19354724D01*
X32904000Y19049296D01*
X32904000Y18718704D01*
X33030512Y18413276D01*
X33264276Y18179512D01*
X33569704Y18053000D01*
X33900296Y18053000D01*
X34205724Y18179512D01*
X34367500Y18341288D01*
X34529276Y18179512D01*
X34834704Y18053000D01*
X35165296Y18053000D01*
X35470724Y18179512D01*
X35561281Y18270069D01*
X35830675Y18270069D01*
X35875353Y18131631D01*
X36192932Y18039790D01*
X36521483Y18076473D01*
X36654647Y18131631D01*
X36699325Y18270069D01*
X36265000Y18704395D01*
X35830675Y18270069D01*
X35561281Y18270069D01*
X35704488Y18413276D01*
X35767998Y18566604D01*
X36085395Y18884000D01*
X36444605Y18884000D01*
X36878931Y18449675D01*
X37017369Y18494353D01*
X37109210Y18811932D01*
X37072527Y19140483D01*
X37017369Y19273647D01*
X36878931Y19318325D01*
X36444605Y18884000D01*
X36085395Y18884000D01*
X35767998Y19201396D01*
X35704488Y19354724D01*
X35470724Y19588488D01*
X35400924Y19617400D01*
X35869231Y19617400D01*
X35830675Y19497931D01*
X36265000Y19063605D01*
X36620394Y19419000D01*
X36635459Y19419000D01*
X36885756Y19522676D01*
X37077324Y19714244D01*
X37181000Y19964541D01*
X37181000Y20235459D01*
X37077324Y20485756D01*
X36885756Y20677324D01*
X36635459Y20781000D01*
X36364541Y20781000D01*
X36114244Y20677324D01*
X36019520Y20582600D01*
X35813863Y20582600D01*
X35875929Y20624071D01*
X36144456Y21025951D01*
X36238750Y21500000D01*
X36227014Y21559000D01*
X36410405Y21559000D01*
X36679078Y21670288D01*
X36884712Y21875922D01*
X36996000Y22144595D01*
X36996000Y22338500D01*
X37057642Y22400142D01*
X37097935Y22427065D01*
X37172261Y22538301D01*
X37204599Y22586699D01*
X37242054Y22775000D01*
X37232600Y22822529D01*
X37232600Y23119520D01*
X37327324Y23214244D01*
X37431000Y23464541D01*
X37431000Y23735459D01*
X37327324Y23985756D01*
X37135756Y24177324D01*
X36885459Y24281000D01*
X36614541Y24281000D01*
X36364244Y24177324D01*
X36172676Y23985756D01*
X36069000Y23735459D01*
X36069000Y23464541D01*
X36172676Y23214244D01*
X36267400Y23119520D01*
X36267400Y23021000D01*
X36119595Y23021000D01*
X35850922Y22909712D01*
X35645288Y22704078D01*
X35588825Y22567765D01*
X35474049Y22644456D01*
X35000000Y22738750D01*
X34525951Y22644456D01*
X34411175Y22567765D01*
X34354712Y22704078D01*
X34149078Y22909712D01*
X33880405Y23021000D01*
X33589595Y23021000D01*
X33320922Y22909712D01*
X33243810Y22832600D01*
X32730480Y22832600D01*
X32635756Y22927324D01*
X32385459Y23031000D01*
X32114541Y23031000D01*
X31864244Y22927324D01*
X31672676Y22735756D01*
X31569000Y22485459D01*
X11777448Y22485459D01*
X11777324Y22485756D01*
X11585756Y22677324D01*
X11335459Y22781000D01*
X11064541Y22781000D01*
X10814244Y22677324D01*
X10622676Y22485756D01*
X10519000Y22235459D01*
X10039579Y22235459D01*
X9977324Y22385756D01*
X9785756Y22577324D01*
X9535459Y22681000D01*
X9264541Y22681000D01*
X9014244Y22577324D01*
X8822676Y22385756D01*
X8719000Y22135459D01*
X6268953Y22135459D01*
X6281000Y22164541D01*
X6281000Y22435459D01*
X6177324Y22685756D01*
X5985756Y22877324D01*
X5735459Y22981000D01*
X5464541Y22981000D01*
X5214244Y22877324D01*
X5109520Y22772600D01*
X4816190Y22772600D01*
X4679078Y22909712D01*
X4410405Y23021000D01*
X4119595Y23021000D01*
X3850922Y22909712D01*
X3645288Y22704078D01*
X3588825Y22567765D01*
X3474049Y22644456D01*
X3000000Y22738750D01*
X2525951Y22644456D01*
X2411175Y22567765D01*
X2354712Y22704078D01*
X2149078Y22909712D01*
X1880405Y23021000D01*
X1589595Y23021000D01*
X1320922Y22909712D01*
X1115288Y22704078D01*
X1004000Y22435405D01*
X1004000Y22241499D01*
X792363Y22029861D01*
X752065Y22002935D01*
X645401Y21843300D01*
X617400Y21702529D01*
X607946Y21655000D01*
X617400Y21607472D01*
X617400Y21530480D01*
X522676Y21435756D01*
X456000Y21274785D01*
X456000Y25135459D01*
X19469000Y25135459D01*
X19469000Y24864541D01*
X19572676Y24614244D01*
X19764244Y24422676D01*
X20014541Y24319000D01*
X20285459Y24319000D01*
X20535756Y24422676D01*
X20727324Y24614244D01*
X20831000Y24864541D01*
X20831000Y25135459D01*
X20727324Y25385756D01*
X20535756Y25577324D01*
X20285459Y25681000D01*
X20014541Y25681000D01*
X19764244Y25577324D01*
X19572676Y25385756D01*
X19469000Y25135459D01*
X456000Y25135459D01*
X456000Y26935459D01*
X6019000Y26935459D01*
X6019000Y26664541D01*
X6122676Y26414244D01*
X6314244Y26222676D01*
X6564541Y26119000D01*
X6835459Y26119000D01*
X7085756Y26222676D01*
X7277324Y26414244D01*
X7381000Y26664541D01*
X7381000Y26935459D01*
X7277324Y27185756D01*
X7085756Y27377324D01*
X6835459Y27481000D01*
X6564541Y27481000D01*
X6314244Y27377324D01*
X6122676Y27185756D01*
X6019000Y26935459D01*
X456000Y26935459D01*
X456000Y29844861D01*
X7369000Y29844861D01*
X7369000Y29355139D01*
X7556408Y28902694D01*
X7902694Y28556408D01*
X8355139Y28369000D01*
X8844861Y28369000D01*
X9297306Y28556408D01*
X9576357Y28835459D01*
X14344000Y28835459D01*
X14344000Y28564541D01*
X14447676Y28314244D01*
X14511920Y28250000D01*
X14472676Y28210756D01*
X14369000Y27960459D01*
X14369000Y27689541D01*
X14472676Y27439244D01*
X14664244Y27247676D01*
X14914541Y27144000D01*
X15185459Y27144000D01*
X15435756Y27247676D01*
X15627324Y27439244D01*
X15731000Y27689541D01*
X15731000Y27960459D01*
X15627324Y28210756D01*
X15563080Y28275000D01*
X15602324Y28314244D01*
X15706000Y28564541D01*
X15706000Y28835459D01*
X15602324Y29085756D01*
X15410756Y29277324D01*
X15160459Y29381000D01*
X14889541Y29381000D01*
X14639244Y29277324D01*
X14447676Y29085756D01*
X14344000Y28835459D01*
X9576357Y28835459D01*
X9643592Y28902694D01*
X9831000Y29355139D01*
X9831000Y29844861D01*
X28169000Y29844861D01*
X28169000Y29355139D01*
X28356408Y28902694D01*
X28702694Y28556408D01*
X29155139Y28369000D01*
X29644861Y28369000D01*
X30097306Y28556408D01*
X30443592Y28902694D01*
X30631000Y29355139D01*
X30631000Y29844861D01*
X30443592Y30297306D01*
X30097306Y30643592D01*
X29644861Y30831000D01*
X29155139Y30831000D01*
X28702694Y30643592D01*
X28356408Y30297306D01*
X28169000Y29844861D01*
X9831000Y29844861D01*
X9643592Y30297306D01*
X9297306Y30643592D01*
X8844861Y30831000D01*
X8355139Y30831000D01*
X7902694Y30643592D01*
X7556408Y30297306D01*
X7369000Y29844861D01*
X456000Y29844861D01*
X456000Y31735459D01*
X18819000Y31735459D01*
X18819000Y31464541D01*
X18922676Y31214244D01*
X19114244Y31022676D01*
X19364541Y30919000D01*
X19635459Y30919000D01*
X19885756Y31022676D01*
X20077324Y31214244D01*
X20181000Y31464541D01*
X20181000Y31735459D01*
X20077324Y31985756D01*
X19885756Y32177324D01*
X19635459Y32281000D01*
X19364541Y32281000D01*
X19114244Y32177324D01*
X18922676Y31985756D01*
X18819000Y31735459D01*
X456000Y31735459D01*
X456000Y33635459D01*
X11519000Y33635459D01*
X11519000Y33364541D01*
X11622676Y33114244D01*
X11814244Y32922676D01*
X12064541Y32819000D01*
X12335459Y32819000D01*
X12585756Y32922676D01*
X12777324Y33114244D01*
X12881000Y33364541D01*
X12881000Y33635459D01*
X12777324Y33885756D01*
X12585756Y34077324D01*
X12335459Y34181000D01*
X12064541Y34181000D01*
X11814244Y34077324D01*
X11622676Y33885756D01*
X11519000Y33635459D01*
X456000Y33635459D01*
X456000Y36844861D01*
X7369000Y36844861D01*
X7369000Y36355139D01*
X7556408Y35902694D01*
X7902694Y35556408D01*
X8355139Y35369000D01*
X8844861Y35369000D01*
X9297306Y35556408D01*
X9594747Y35853849D01*
X24085379Y35853849D01*
X24085379Y35582931D01*
X24189055Y35332634D01*
X24380623Y35141066D01*
X24630920Y35037390D01*
X24901838Y35037390D01*
X25138598Y35135459D01*
X30594000Y35135459D01*
X30594000Y34864541D01*
X30697676Y34614244D01*
X30889244Y34422676D01*
X31139541Y34319000D01*
X31410459Y34319000D01*
X31660756Y34422676D01*
X31852324Y34614244D01*
X31956000Y34864541D01*
X31956000Y35135459D01*
X31852324Y35385756D01*
X31660756Y35577324D01*
X31410459Y35681000D01*
X31139541Y35681000D01*
X30889244Y35577324D01*
X30697676Y35385756D01*
X30594000Y35135459D01*
X25138598Y35135459D01*
X25152135Y35141066D01*
X25343703Y35332634D01*
X25447379Y35582931D01*
X25447379Y35853849D01*
X25343703Y36104146D01*
X25152135Y36295714D01*
X24901838Y36399390D01*
X24630920Y36399390D01*
X24380623Y36295714D01*
X24189055Y36104146D01*
X24085379Y35853849D01*
X9594747Y35853849D01*
X9643592Y35902694D01*
X9831000Y36355139D01*
X9831000Y36844861D01*
X28169000Y36844861D01*
X28169000Y36355139D01*
X28356408Y35902694D01*
X28702694Y35556408D01*
X29155139Y35369000D01*
X29644861Y35369000D01*
X30097306Y35556408D01*
X30443592Y35902694D01*
X30631000Y36355139D01*
X30631000Y36844861D01*
X30443592Y37297306D01*
X30097306Y37643592D01*
X29644861Y37831000D01*
X29155139Y37831000D01*
X28702694Y37643592D01*
X28356408Y37297306D01*
X28169000Y36844861D01*
X9831000Y36844861D01*
X9643592Y37297306D01*
X9297306Y37643592D01*
X8844861Y37831000D01*
X8355139Y37831000D01*
X7902694Y37643592D01*
X7556408Y37297306D01*
X7369000Y36844861D01*
X456000Y36844861D01*
X456000Y38099630D01*
X458611Y38104960D01*
X475654Y38178489D01*
X542264Y38621546D01*
X704906Y38960246D01*
X959946Y39236147D01*
X1284839Y39424860D01*
X1677013Y39515761D01*
X1768885Y39519371D01*
X1897993Y39544000D01*
X36099630Y39544000D01*
X36104960Y39541389D01*
X36104960Y39541389D01*
G37*
X36104960Y39541389D02*
X36178489Y39524346D01*
X36621546Y39457736D01*
X36960246Y39295094D01*
X37236147Y39040054D01*
X37424860Y38715161D01*
X37515761Y38322987D01*
X37519371Y38231115D01*
X37544001Y38102001D01*
X37544000Y1900370D01*
X37541389Y1895040D01*
X37524346Y1821511D01*
X37457736Y1378454D01*
X37295094Y1039754D01*
X37040054Y763853D01*
X36715162Y575141D01*
X36322983Y484239D01*
X36231115Y480629D01*
X36102007Y456000D01*
X1900370Y456000D01*
X1895040Y458611D01*
X1821511Y475654D01*
X1378454Y542264D01*
X1039754Y704906D01*
X763853Y959946D01*
X575141Y1284838D01*
X484239Y1677017D01*
X480629Y1768885D01*
X456000Y1897993D01*
X456000Y2000000D01*
X494884Y2000000D01*
X590424Y1519688D01*
X862499Y1112499D01*
X1269688Y840424D01*
X1628761Y769000D01*
X1871239Y769000D01*
X2230312Y840424D01*
X2637501Y1112499D01*
X2909576Y1519688D01*
X3005116Y2000000D01*
X3144884Y2000000D01*
X3240424Y1519688D01*
X3512499Y1112499D01*
X3919688Y840424D01*
X4278761Y769000D01*
X4521239Y769000D01*
X4880312Y840424D01*
X5287501Y1112499D01*
X5559576Y1519688D01*
X5655116Y2000000D01*
X5794884Y2000000D01*
X5890424Y1519688D01*
X6162499Y1112499D01*
X6569688Y840424D01*
X6928761Y769000D01*
X7171239Y769000D01*
X7530312Y840424D01*
X7937501Y1112499D01*
X8209576Y1519688D01*
X8305116Y2000000D01*
X8209576Y2480312D01*
X7937501Y2887501D01*
X7530312Y3159576D01*
X7171239Y3231000D01*
X6928761Y3231000D01*
X6569688Y3159576D01*
X6162499Y2887501D01*
X5890424Y2480312D01*
X5794884Y2000000D01*
X5655116Y2000000D01*
X5559576Y2480312D01*
X5287501Y2887501D01*
X4880312Y3159576D01*
X4521239Y3231000D01*
X4278761Y3231000D01*
X3919688Y3159576D01*
X3512499Y2887501D01*
X3240424Y2480312D01*
X3144884Y2000000D01*
X3005116Y2000000D01*
X2909576Y2480312D01*
X2637501Y2887501D01*
X2230312Y3159576D01*
X1871239Y3231000D01*
X1628761Y3231000D01*
X1269688Y3159576D01*
X862499Y2887501D01*
X590424Y2480312D01*
X494884Y2000000D01*
X456000Y2000000D01*
X456000Y4540000D01*
X494884Y4540000D01*
X590424Y4059688D01*
X862499Y3652499D01*
X1269688Y3380424D01*
X1628761Y3309000D01*
X1871239Y3309000D01*
X2230312Y3380424D01*
X2637501Y3652499D01*
X2909576Y4059688D01*
X3005116Y4540000D01*
X3144884Y4540000D01*
X3240424Y4059688D01*
X3512499Y3652499D01*
X3919688Y3380424D01*
X4278761Y3309000D01*
X4521239Y3309000D01*
X4880312Y3380424D01*
X5287501Y3652499D01*
X5559576Y4059688D01*
X5655116Y4540000D01*
X5559576Y5020312D01*
X5287501Y5427501D01*
X4880312Y5699576D01*
X4521239Y5771000D01*
X4278761Y5771000D01*
X3919688Y5699576D01*
X3512499Y5427501D01*
X3240424Y5020312D01*
X3144884Y4540000D01*
X3005116Y4540000D01*
X2909576Y5020312D01*
X2637501Y5427501D01*
X2230312Y5699576D01*
X1871239Y5771000D01*
X1628761Y5771000D01*
X1269688Y5699576D01*
X862499Y5427501D01*
X590424Y5020312D01*
X494884Y4540000D01*
X456000Y4540000D01*
X456000Y7080000D01*
X494884Y7080000D01*
X590424Y6599688D01*
X862499Y6192499D01*
X1269688Y5920424D01*
X1628761Y5849000D01*
X1871239Y5849000D01*
X2230312Y5920424D01*
X2637501Y6192499D01*
X2909576Y6599688D01*
X3005116Y7080000D01*
X3144884Y7080000D01*
X3240424Y6599688D01*
X3512499Y6192499D01*
X3919688Y5920424D01*
X4278761Y5849000D01*
X4521239Y5849000D01*
X4880312Y5920424D01*
X5287501Y6192499D01*
X5559576Y6599688D01*
X5655116Y7080000D01*
X5794884Y7080000D01*
X5890424Y6599688D01*
X6162499Y6192499D01*
X6569688Y5920424D01*
X6928761Y5849000D01*
X7171239Y5849000D01*
X7530312Y5920424D01*
X7937501Y6192499D01*
X8209576Y6599688D01*
X8305116Y7080000D01*
X8257576Y7319000D01*
X8862828Y7319000D01*
X8875314Y7300314D01*
X9001341Y7216106D01*
X9150000Y7186536D01*
X9621223Y7186536D01*
X9569000Y7060459D01*
X9569000Y6789541D01*
X9672676Y6539244D01*
X9705920Y6506000D01*
X9514541Y6506000D01*
X9264244Y6402324D01*
X9072676Y6210756D01*
X8969000Y5960459D01*
X8969000Y5689541D01*
X9072676Y5439244D01*
X9264244Y5247676D01*
X9514541Y5144000D01*
X9584670Y5144000D01*
X9519000Y4985459D01*
X9519000Y4714541D01*
X9612644Y4488464D01*
X9150000Y4488464D01*
X9001341Y4458894D01*
X8875314Y4374686D01*
X8862828Y4356000D01*
X8268516Y4356000D01*
X8305116Y4540000D01*
X8209576Y5020312D01*
X7937501Y5427501D01*
X7530312Y5699576D01*
X7171239Y5771000D01*
X6928761Y5771000D01*
X6569688Y5699576D01*
X6162499Y5427501D01*
X5890424Y5020312D01*
X5794884Y4540000D01*
X5890424Y4059688D01*
X6162499Y3652499D01*
X6569688Y3380424D01*
X6928761Y3309000D01*
X7171239Y3309000D01*
X7530312Y3380424D01*
X7531154Y3380986D01*
X7542569Y3373359D01*
X7690165Y3344000D01*
X7739999Y3334087D01*
X7789833Y3344000D01*
X8862828Y3344000D01*
X8875314Y3325314D01*
X9001341Y3241106D01*
X9150000Y3211536D01*
X9750000Y3211536D01*
X9898659Y3241106D01*
X10000000Y3308819D01*
X10101341Y3241106D01*
X10250000Y3211536D01*
X10850000Y3211536D01*
X10998659Y3241106D01*
X11124686Y3325314D01*
X11208894Y3451341D01*
X11238464Y3600000D01*
X11238464Y3819000D01*
X11435459Y3819000D01*
X11573069Y3876000D01*
X14590429Y3876000D01*
X14590429Y1414000D01*
X23409572Y1414000D01*
X23409572Y2000000D01*
X32244884Y2000000D01*
X32340424Y1519688D01*
X32612499Y1112499D01*
X33019688Y840424D01*
X33378761Y769000D01*
X33621239Y769000D01*
X33980312Y840424D01*
X34387501Y1112499D01*
X34659576Y1519688D01*
X34755116Y2000000D01*
X34944884Y2000000D01*
X35040424Y1519688D01*
X35312499Y1112499D01*
X35719688Y840424D01*
X36078761Y769000D01*
X36321239Y769000D01*
X36680312Y840424D01*
X37087501Y1112499D01*
X37359576Y1519688D01*
X37455116Y2000000D01*
X37359576Y2480312D01*
X37087501Y2887501D01*
X36680312Y3159576D01*
X36321239Y3231000D01*
X36078761Y3231000D01*
X35719688Y3159576D01*
X35312499Y2887501D01*
X35040424Y2480312D01*
X34944884Y2000000D01*
X34755116Y2000000D01*
X34659576Y2480312D01*
X34387501Y2887501D01*
X33980312Y3159576D01*
X33621239Y3231000D01*
X33378761Y3231000D01*
X33019688Y3159576D01*
X32612499Y2887501D01*
X32340424Y2480312D01*
X32244884Y2000000D01*
X23409572Y2000000D01*
X23409572Y3876000D01*
X16631000Y3876000D01*
X16631000Y3910459D01*
X16527324Y4160756D01*
X16335756Y4352324D01*
X16085459Y4456000D01*
X15814541Y4456000D01*
X15564244Y4352324D01*
X15372676Y4160756D01*
X15269000Y3910459D01*
X15269000Y3876000D01*
X14590429Y3876000D01*
X11573069Y3876000D01*
X11685756Y3922676D01*
X11877324Y4114244D01*
X11981000Y4364541D01*
X11981000Y4635459D01*
X11877324Y4885756D01*
X11685756Y5077324D01*
X11435459Y5181000D01*
X11164541Y5181000D01*
X10914244Y5077324D01*
X10863830Y5026910D01*
X10777324Y5235756D01*
X10585756Y5427324D01*
X10335459Y5531000D01*
X10265330Y5531000D01*
X10331000Y5689541D01*
X10331000Y5785459D01*
X16444000Y5785459D01*
X16444000Y5514541D01*
X16547676Y5264244D01*
X16739244Y5072676D01*
X16989541Y4969000D01*
X17260459Y4969000D01*
X17510756Y5072676D01*
X17650000Y5211920D01*
X17789244Y5072676D01*
X18039541Y4969000D01*
X18310459Y4969000D01*
X18560756Y5072676D01*
X18587500Y5099420D01*
X18689244Y4997676D01*
X18939541Y4894000D01*
X19210459Y4894000D01*
X19460756Y4997676D01*
X19537500Y5074420D01*
X19589244Y5022676D01*
X19839541Y4919000D01*
X20110459Y4919000D01*
X20360756Y5022676D01*
X20475000Y5136920D01*
X20539244Y5072676D01*
X20789541Y4969000D01*
X21060459Y4969000D01*
X21310756Y5072676D01*
X21404735Y5166655D01*
X21448518Y5157946D01*
X21496046Y5167400D01*
X21496047Y5167400D01*
X21636819Y5195401D01*
X21796453Y5302065D01*
X21823380Y5342364D01*
X22378035Y5897018D01*
X22422676Y5789244D01*
X22614244Y5597676D01*
X22864541Y5494000D01*
X23135459Y5494000D01*
X23385756Y5597676D01*
X23577324Y5789244D01*
X23681000Y6039541D01*
X23681000Y6310459D01*
X23577324Y6560756D01*
X23385756Y6752324D01*
X23277982Y6796965D01*
X24152639Y7671622D01*
X24192934Y7698546D01*
X24299598Y7858180D01*
X24327599Y7998952D01*
X24327599Y7998953D01*
X24337053Y8046481D01*
X24327599Y8094009D01*
X24327599Y10082569D01*
X24496902Y10082569D01*
X24496902Y9811651D01*
X24600578Y9561354D01*
X24695302Y9466630D01*
X24695303Y3883383D01*
X24622676Y3810756D01*
X24519000Y3560459D01*
X24519000Y3289541D01*
X24622676Y3039244D01*
X24814244Y2847676D01*
X25064541Y2744000D01*
X25335459Y2744000D01*
X25585756Y2847676D01*
X25777324Y3039244D01*
X25881000Y3289541D01*
X25881000Y3560459D01*
X25777324Y3810756D01*
X25660502Y3927578D01*
X25660502Y4540000D01*
X32244884Y4540000D01*
X32340424Y4059688D01*
X32612499Y3652499D01*
X33019688Y3380424D01*
X33378761Y3309000D01*
X33621239Y3309000D01*
X33980312Y3380424D01*
X34387501Y3652499D01*
X34659576Y4059688D01*
X34755116Y4540000D01*
X34944884Y4540000D01*
X35040424Y4059688D01*
X35312499Y3652499D01*
X35719688Y3380424D01*
X36078761Y3309000D01*
X36321239Y3309000D01*
X36680312Y3380424D01*
X37087501Y3652499D01*
X37359576Y4059688D01*
X37455116Y4540000D01*
X37359576Y5020312D01*
X37087501Y5427501D01*
X36680312Y5699576D01*
X36321239Y5771000D01*
X36078761Y5771000D01*
X35719688Y5699576D01*
X35312499Y5427501D01*
X35040424Y5020312D01*
X34944884Y4540000D01*
X34755116Y4540000D01*
X34659576Y5020312D01*
X34387501Y5427501D01*
X33980312Y5699576D01*
X33621239Y5771000D01*
X33378761Y5771000D01*
X33019688Y5699576D01*
X32612499Y5427501D01*
X32340424Y5020312D01*
X32244884Y4540000D01*
X25660502Y4540000D01*
X25660502Y5216384D01*
X25714541Y5194000D01*
X25985459Y5194000D01*
X26235756Y5297676D01*
X26427324Y5489244D01*
X26531000Y5739541D01*
X26531000Y6010459D01*
X26427324Y6260756D01*
X26282600Y6405480D01*
X26282600Y7080000D01*
X32244884Y7080000D01*
X32340424Y6599688D01*
X32612499Y6192499D01*
X33019688Y5920424D01*
X33378761Y5849000D01*
X33621239Y5849000D01*
X33980312Y5920424D01*
X34387501Y6192499D01*
X34659576Y6599688D01*
X34755116Y7080000D01*
X34944884Y7080000D01*
X35040424Y6599688D01*
X35312499Y6192499D01*
X35719688Y5920424D01*
X36078761Y5849000D01*
X36321239Y5849000D01*
X36680312Y5920424D01*
X37087501Y6192499D01*
X37359576Y6599688D01*
X37455116Y7080000D01*
X37359576Y7560312D01*
X37087501Y7967501D01*
X36680312Y8239576D01*
X36321239Y8311000D01*
X36078761Y8311000D01*
X35719688Y8239576D01*
X35312499Y7967501D01*
X35040424Y7560312D01*
X34944884Y7080000D01*
X34755116Y7080000D01*
X34659576Y7560312D01*
X34387501Y7967501D01*
X33980312Y8239576D01*
X33621239Y8311000D01*
X33378761Y8311000D01*
X33019688Y8239576D01*
X32612499Y7967501D01*
X32340424Y7560312D01*
X32244884Y7080000D01*
X26282600Y7080000D01*
X26282600Y9620000D01*
X32244884Y9620000D01*
X32340424Y9139688D01*
X32612499Y8732499D01*
X33019688Y8460424D01*
X33378761Y8389000D01*
X33621239Y8389000D01*
X33980312Y8460424D01*
X34387501Y8732499D01*
X34659576Y9139688D01*
X34755116Y9620000D01*
X34944884Y9620000D01*
X35040424Y9139688D01*
X35312499Y8732499D01*
X35719688Y8460424D01*
X36078761Y8389000D01*
X36321239Y8389000D01*
X36680312Y8460424D01*
X37087501Y8732499D01*
X37359576Y9139688D01*
X37455116Y9620000D01*
X37359576Y10100312D01*
X37087501Y10507501D01*
X36680312Y10779576D01*
X36321239Y10851000D01*
X36078761Y10851000D01*
X35719688Y10779576D01*
X35312499Y10507501D01*
X35040424Y10100312D01*
X34944884Y9620000D01*
X34755116Y9620000D01*
X34659576Y10100312D01*
X34387501Y10507501D01*
X33980312Y10779576D01*
X33621239Y10851000D01*
X33378761Y10851000D01*
X33019688Y10779576D01*
X32612499Y10507501D01*
X32340424Y10100312D01*
X32244884Y9620000D01*
X26282600Y9620000D01*
X26282600Y10344520D01*
X26377324Y10439244D01*
X26481000Y10689541D01*
X26481000Y10960459D01*
X26377324Y11210756D01*
X26185756Y11402324D01*
X25935459Y11506000D01*
X25664541Y11506000D01*
X25414244Y11402324D01*
X25222676Y11210756D01*
X25119000Y10960459D01*
X25119000Y10689541D01*
X25144445Y10628110D01*
X25042443Y10628110D01*
X24792146Y10524434D01*
X24600578Y10332866D01*
X24496902Y10082569D01*
X24327599Y10082569D01*
X24327599Y11046810D01*
X24510756Y11122676D01*
X24702324Y11314244D01*
X24806000Y11564541D01*
X24806000Y11835459D01*
X24702324Y12085756D01*
X24628080Y12160000D01*
X32244884Y12160000D01*
X32340424Y11679688D01*
X32612499Y11272499D01*
X33019688Y11000424D01*
X33378761Y10929000D01*
X33621239Y10929000D01*
X33980312Y11000424D01*
X34387501Y11272499D01*
X34659576Y11679688D01*
X34755116Y12160000D01*
X34944884Y12160000D01*
X35040424Y11679688D01*
X35312499Y11272499D01*
X35719688Y11000424D01*
X36078761Y10929000D01*
X36321239Y10929000D01*
X36680312Y11000424D01*
X37087501Y11272499D01*
X37359576Y11679688D01*
X37455116Y12160000D01*
X37359576Y12640312D01*
X37087501Y13047501D01*
X36680312Y13319576D01*
X36321239Y13391000D01*
X36078761Y13391000D01*
X35719688Y13319576D01*
X35312499Y13047501D01*
X35040424Y12640312D01*
X34944884Y12160000D01*
X34755116Y12160000D01*
X34659576Y12640312D01*
X34387501Y13047501D01*
X33980312Y13319576D01*
X33621239Y13391000D01*
X33378761Y13391000D01*
X33019688Y13319576D01*
X32612499Y13047501D01*
X32340424Y12640312D01*
X32244884Y12160000D01*
X24628080Y12160000D01*
X24510756Y12277324D01*
X24260459Y12381000D01*
X23989541Y12381000D01*
X23739244Y12277324D01*
X23547676Y12085756D01*
X23444000Y11835459D01*
X23444000Y11688517D01*
X23427980Y11664541D01*
X23390401Y11608300D01*
X23352945Y11419999D01*
X23362400Y11372466D01*
X23362399Y9575681D01*
X23360756Y9577324D01*
X23110459Y9681000D01*
X22839541Y9681000D01*
X22589244Y9577324D01*
X22397676Y9385756D01*
X22294000Y9135459D01*
X22294000Y9001499D01*
X20392361Y7099859D01*
X20392358Y7099857D01*
X19667362Y6374860D01*
X19627066Y6347935D01*
X19520402Y6188301D01*
X19504537Y6108543D01*
X19460756Y6152324D01*
X19210459Y6256000D01*
X18939541Y6256000D01*
X18689244Y6152324D01*
X18662500Y6125580D01*
X18560756Y6227324D01*
X18310459Y6331000D01*
X18039541Y6331000D01*
X17789244Y6227324D01*
X17650000Y6088080D01*
X17510756Y6227324D01*
X17260459Y6331000D01*
X16989541Y6331000D01*
X16739244Y6227324D01*
X16547676Y6035756D01*
X16444000Y5785459D01*
X10331000Y5785459D01*
X10331000Y5960459D01*
X10227324Y6210756D01*
X10194080Y6244000D01*
X10385459Y6244000D01*
X10635756Y6347676D01*
X10827324Y6539244D01*
X10931000Y6789541D01*
X10931000Y7060459D01*
X10876587Y7191824D01*
X10998659Y7216106D01*
X11040407Y7244001D01*
X11169000Y7115408D01*
X11169000Y7014541D01*
X11272676Y6764244D01*
X11464244Y6572676D01*
X11714541Y6469000D01*
X11985459Y6469000D01*
X12235756Y6572676D01*
X12427324Y6764244D01*
X12531000Y7014541D01*
X12531000Y7285459D01*
X12468869Y7435459D01*
X14519000Y7435459D01*
X14519000Y7164541D01*
X14622676Y6914244D01*
X14814244Y6722676D01*
X15064541Y6619000D01*
X15335459Y6619000D01*
X15585756Y6722676D01*
X15777324Y6914244D01*
X15881000Y7164541D01*
X15881000Y7435459D01*
X15777324Y7685756D01*
X15585756Y7877324D01*
X15335459Y7981000D01*
X15064541Y7981000D01*
X14814244Y7877324D01*
X14622676Y7685756D01*
X14519000Y7435459D01*
X12468869Y7435459D01*
X12427324Y7535756D01*
X12235756Y7727324D01*
X11985459Y7831000D01*
X11884592Y7831000D01*
X11568038Y8147553D01*
X11539806Y8189806D01*
X11372431Y8301641D01*
X11224835Y8331000D01*
X11224834Y8331000D01*
X11175000Y8340913D01*
X11135763Y8333108D01*
X11124686Y8349686D01*
X10998659Y8433894D01*
X10850000Y8463464D01*
X10250000Y8463464D01*
X10101341Y8433894D01*
X10000000Y8366181D01*
X9898659Y8433894D01*
X9750000Y8463464D01*
X9150000Y8463464D01*
X9001341Y8433894D01*
X8875314Y8349686D01*
X8862828Y8331000D01*
X7844833Y8331000D01*
X7794999Y8340913D01*
X7745165Y8331000D01*
X7597569Y8301641D01*
X7510561Y8243505D01*
X7171239Y8311000D01*
X6928761Y8311000D01*
X6569688Y8239576D01*
X6162499Y7967501D01*
X5890424Y7560312D01*
X5794884Y7080000D01*
X5655116Y7080000D01*
X5559576Y7560312D01*
X5287501Y7967501D01*
X4880312Y8239576D01*
X4521239Y8311000D01*
X4278761Y8311000D01*
X3919688Y8239576D01*
X3512499Y7967501D01*
X3240424Y7560312D01*
X3144884Y7080000D01*
X3005116Y7080000D01*
X2909576Y7560312D01*
X2637501Y7967501D01*
X2230312Y8239576D01*
X1871239Y8311000D01*
X1628761Y8311000D01*
X1269688Y8239576D01*
X862499Y7967501D01*
X590424Y7560312D01*
X494884Y7080000D01*
X456000Y7080000D01*
X456000Y9620000D01*
X494884Y9620000D01*
X590424Y9139688D01*
X862499Y8732499D01*
X1269688Y8460424D01*
X1628761Y8389000D01*
X1871239Y8389000D01*
X2230312Y8460424D01*
X2637501Y8732499D01*
X2909576Y9139688D01*
X3005116Y9620000D01*
X3144884Y9620000D01*
X3240424Y9139688D01*
X3512499Y8732499D01*
X3919688Y8460424D01*
X4278761Y8389000D01*
X4521239Y8389000D01*
X4880312Y8460424D01*
X5287501Y8732499D01*
X5559576Y9139688D01*
X5655116Y9620000D01*
X5559576Y10100312D01*
X5287501Y10507501D01*
X4880312Y10779576D01*
X4521239Y10851000D01*
X4278761Y10851000D01*
X3919688Y10779576D01*
X3512499Y10507501D01*
X3240424Y10100312D01*
X3144884Y9620000D01*
X3005116Y9620000D01*
X2909576Y10100312D01*
X2637501Y10507501D01*
X2230312Y10779576D01*
X1871239Y10851000D01*
X1628761Y10851000D01*
X1269688Y10779576D01*
X862499Y10507501D01*
X590424Y10100312D01*
X494884Y9620000D01*
X456000Y9620000D01*
X456000Y12160000D01*
X494884Y12160000D01*
X590424Y11679688D01*
X862499Y11272499D01*
X1269688Y11000424D01*
X1628761Y10929000D01*
X1871239Y10929000D01*
X2230312Y11000424D01*
X2637501Y11272499D01*
X2909576Y11679688D01*
X3005116Y12160000D01*
X3144884Y12160000D01*
X3240424Y11679688D01*
X3512499Y11272499D01*
X3919688Y11000424D01*
X4278761Y10929000D01*
X4521239Y10929000D01*
X4880312Y11000424D01*
X5287501Y11272499D01*
X5559576Y11679688D01*
X5655116Y12160000D01*
X5794884Y12160000D01*
X5890424Y11679688D01*
X6162499Y11272499D01*
X6569688Y11000424D01*
X6928761Y10929000D01*
X7171239Y10929000D01*
X7530312Y11000424D01*
X7937501Y11272499D01*
X8202435Y11669000D01*
X8862828Y11669000D01*
X8875314Y11650314D01*
X9001341Y11566106D01*
X9150000Y11536536D01*
X9184985Y11536536D01*
X9095040Y11446591D01*
X8991364Y11196294D01*
X8991364Y10925376D01*
X9095040Y10675079D01*
X9286608Y10483511D01*
X9536905Y10379835D01*
X9807823Y10379835D01*
X10058120Y10483511D01*
X10092400Y10517791D01*
X10092401Y10252920D01*
X10000000Y10191181D01*
X9898659Y10258894D01*
X9750000Y10288464D01*
X9150000Y10288464D01*
X9001341Y10258894D01*
X8875314Y10174686D01*
X8862828Y10156000D01*
X8172366Y10156000D01*
X7937501Y10507501D01*
X7530312Y10779576D01*
X7171239Y10851000D01*
X6928761Y10851000D01*
X6569688Y10779576D01*
X6162499Y10507501D01*
X5890424Y10100312D01*
X5794884Y9620000D01*
X5890424Y9139688D01*
X6162499Y8732499D01*
X6569688Y8460424D01*
X6928761Y8389000D01*
X7171239Y8389000D01*
X7530312Y8460424D01*
X7937501Y8732499D01*
X8209576Y9139688D01*
X8210434Y9144000D01*
X8862828Y9144000D01*
X8875314Y9125314D01*
X9001341Y9041106D01*
X9150000Y9011536D01*
X9750000Y9011536D01*
X9898659Y9041106D01*
X10000000Y9108819D01*
X10101341Y9041106D01*
X10250000Y9011536D01*
X10850000Y9011536D01*
X10998659Y9041106D01*
X11124686Y9125314D01*
X11208894Y9251341D01*
X11238464Y9400000D01*
X11238464Y9900000D01*
X11208894Y10048659D01*
X11124686Y10174686D01*
X11057600Y10219511D01*
X11057600Y10544520D01*
X11104629Y10591549D01*
X16713600Y10591549D01*
X16713600Y10320631D01*
X16817276Y10070334D01*
X17008844Y9878766D01*
X17259141Y9775090D01*
X17530059Y9775090D01*
X17780356Y9878766D01*
X17971924Y10070334D01*
X18075600Y10320631D01*
X18075600Y10591549D01*
X18613600Y10591549D01*
X18613600Y10320631D01*
X18717276Y10070334D01*
X18908844Y9878766D01*
X19159141Y9775090D01*
X19430059Y9775090D01*
X19680356Y9878766D01*
X19871924Y10070334D01*
X19975600Y10320631D01*
X19975600Y10591549D01*
X19871924Y10841846D01*
X19680356Y11033414D01*
X19430059Y11137090D01*
X19159141Y11137090D01*
X18908844Y11033414D01*
X18717276Y10841846D01*
X18613600Y10591549D01*
X18075600Y10591549D01*
X17971924Y10841846D01*
X17780356Y11033414D01*
X17530059Y11137090D01*
X17259141Y11137090D01*
X17008844Y11033414D01*
X16817276Y10841846D01*
X16713600Y10591549D01*
X11104629Y10591549D01*
X11152324Y10639244D01*
X11256000Y10889541D01*
X11256000Y11160459D01*
X11152324Y11410756D01*
X10997254Y11565826D01*
X10998659Y11566106D01*
X11124686Y11650314D01*
X11208894Y11776341D01*
X11238464Y11925000D01*
X11238464Y12425000D01*
X11208894Y12573659D01*
X11167599Y12635462D01*
X12094003Y12635462D01*
X12094003Y12364544D01*
X12197679Y12114247D01*
X12389247Y11922679D01*
X12639544Y11819003D01*
X12910462Y11819003D01*
X13160759Y11922679D01*
X13352327Y12114247D01*
X13456003Y12364544D01*
X13456003Y12635462D01*
X13373162Y12835459D01*
X13594000Y12835459D01*
X13594000Y12564541D01*
X13697676Y12314244D01*
X13889244Y12122676D01*
X14139541Y12019000D01*
X14410459Y12019000D01*
X14660756Y12122676D01*
X14852324Y12314244D01*
X14936912Y12518459D01*
X16713600Y12518459D01*
X16713600Y12247541D01*
X16817276Y11997244D01*
X17008844Y11805676D01*
X17259141Y11702000D01*
X17530059Y11702000D01*
X17780356Y11805676D01*
X17971924Y11997244D01*
X18075600Y12247541D01*
X18075600Y12518459D01*
X18613600Y12518459D01*
X18613600Y12247541D01*
X18717276Y11997244D01*
X18908844Y11805676D01*
X19159141Y11702000D01*
X19430059Y11702000D01*
X19680356Y11805676D01*
X19810139Y11935459D01*
X21519000Y11935459D01*
X21519000Y11664541D01*
X21622676Y11414244D01*
X21814244Y11222676D01*
X22064541Y11119000D01*
X22335459Y11119000D01*
X22585756Y11222676D01*
X22777324Y11414244D01*
X22881000Y11664541D01*
X22881000Y11744000D01*
X22960459Y11744000D01*
X23210756Y11847676D01*
X23402324Y12039244D01*
X23506000Y12289541D01*
X23506000Y12560459D01*
X23402324Y12810756D01*
X23210756Y13002324D01*
X22960459Y13106000D01*
X22689541Y13106000D01*
X22439244Y13002324D01*
X22247676Y12810756D01*
X22144000Y12560459D01*
X22144000Y12481000D01*
X22064541Y12481000D01*
X21814244Y12377324D01*
X21622676Y12185756D01*
X21519000Y11935459D01*
X19810139Y11935459D01*
X19871924Y11997244D01*
X19975600Y12247541D01*
X19975600Y12518459D01*
X19871924Y12768756D01*
X19680356Y12960324D01*
X19430059Y13064000D01*
X19159141Y13064000D01*
X18908844Y12960324D01*
X18717276Y12768756D01*
X18613600Y12518459D01*
X18075600Y12518459D01*
X17971924Y12768756D01*
X17780356Y12960324D01*
X17530059Y13064000D01*
X17259141Y13064000D01*
X17008844Y12960324D01*
X16817276Y12768756D01*
X16713600Y12518459D01*
X14936912Y12518459D01*
X14956000Y12564541D01*
X14956000Y12835459D01*
X14852324Y13085756D01*
X14660756Y13277324D01*
X14410459Y13381000D01*
X14139541Y13381000D01*
X13889244Y13277324D01*
X13697676Y13085756D01*
X13594000Y12835459D01*
X13373162Y12835459D01*
X13352327Y12885759D01*
X13160759Y13077327D01*
X12910462Y13181003D01*
X12639544Y13181003D01*
X12389247Y13077327D01*
X12197679Y12885759D01*
X12094003Y12635462D01*
X11167599Y12635462D01*
X11124686Y12699686D01*
X10998659Y12783894D01*
X10850000Y12813464D01*
X10753161Y12813464D01*
X10835756Y12847676D01*
X11027324Y13039244D01*
X11131000Y13289541D01*
X11131000Y13560459D01*
X11027324Y13810756D01*
X10835756Y14002324D01*
X10585459Y14106000D01*
X10314541Y14106000D01*
X10064244Y14002324D01*
X9872676Y13810756D01*
X9769000Y13560459D01*
X9769000Y13289541D01*
X9872676Y13039244D01*
X10064244Y12847676D01*
X10180307Y12799601D01*
X10101341Y12783894D01*
X10000000Y12716181D01*
X9898659Y12783894D01*
X9750000Y12813464D01*
X9150000Y12813464D01*
X9001341Y12783894D01*
X8875314Y12699686D01*
X8862828Y12681000D01*
X8182389Y12681000D01*
X7937501Y13047501D01*
X7530312Y13319576D01*
X7171239Y13391000D01*
X6928761Y13391000D01*
X6569688Y13319576D01*
X6162499Y13047501D01*
X5890424Y12640312D01*
X5794884Y12160000D01*
X5655116Y12160000D01*
X5559576Y12640312D01*
X5287501Y13047501D01*
X4880312Y13319576D01*
X4521239Y13391000D01*
X4278761Y13391000D01*
X3919688Y13319576D01*
X3512499Y13047501D01*
X3240424Y12640312D01*
X3144884Y12160000D01*
X3005116Y12160000D01*
X2909576Y12640312D01*
X2637501Y13047501D01*
X2230312Y13319576D01*
X1871239Y13391000D01*
X1628761Y13391000D01*
X1269688Y13319576D01*
X862499Y13047501D01*
X590424Y12640312D01*
X494884Y12160000D01*
X456000Y12160000D01*
X456000Y15550000D01*
X511536Y15550000D01*
X511536Y13850000D01*
X541106Y13701341D01*
X625314Y13575314D01*
X751341Y13491106D01*
X900000Y13461536D01*
X2600000Y13461536D01*
X2748659Y13491106D01*
X2874686Y13575314D01*
X2958894Y13701341D01*
X2988464Y13850000D01*
X2988464Y15550000D01*
X3161536Y15550000D01*
X3161536Y13850000D01*
X3191106Y13701341D01*
X3275314Y13575314D01*
X3401341Y13491106D01*
X3550000Y13461536D01*
X5250000Y13461536D01*
X5398659Y13491106D01*
X5524686Y13575314D01*
X5608894Y13701341D01*
X5638464Y13850000D01*
X5638464Y15550000D01*
X5811536Y15550000D01*
X5811536Y13850000D01*
X5841106Y13701341D01*
X5925314Y13575314D01*
X6051341Y13491106D01*
X6200000Y13461536D01*
X7900000Y13461536D01*
X8048659Y13491106D01*
X8174686Y13575314D01*
X8258894Y13701341D01*
X8288464Y13850000D01*
X8288464Y14635459D01*
X12919000Y14635459D01*
X12919000Y14364541D01*
X13022676Y14114244D01*
X13214244Y13922676D01*
X13464541Y13819000D01*
X13735459Y13819000D01*
X13985756Y13922676D01*
X14177324Y14114244D01*
X14281000Y14364541D01*
X14281000Y14385459D01*
X14369000Y14385459D01*
X14369000Y14114541D01*
X14472676Y13864244D01*
X14664244Y13672676D01*
X14914541Y13569000D01*
X15185459Y13569000D01*
X15435756Y13672676D01*
X15627324Y13864244D01*
X15731000Y14114541D01*
X15731000Y14385459D01*
X15627324Y14635756D01*
X15435756Y14827324D01*
X15185459Y14931000D01*
X14914541Y14931000D01*
X14664244Y14827324D01*
X14472676Y14635756D01*
X14369000Y14385459D01*
X14281000Y14385459D01*
X14281000Y14635459D01*
X14177324Y14885756D01*
X13985756Y15077324D01*
X13735459Y15181000D01*
X13464541Y15181000D01*
X13214244Y15077324D01*
X13022676Y14885756D01*
X12919000Y14635459D01*
X8288464Y14635459D01*
X8288464Y15550000D01*
X8258894Y15698659D01*
X8174686Y15824686D01*
X8048659Y15908894D01*
X7900000Y15938464D01*
X6200000Y15938464D01*
X6051341Y15908894D01*
X5925314Y15824686D01*
X5841106Y15698659D01*
X5811536Y15550000D01*
X5638464Y15550000D01*
X5608894Y15698659D01*
X5524686Y15824686D01*
X5398659Y15908894D01*
X5250000Y15938464D01*
X3550000Y15938464D01*
X3401341Y15908894D01*
X3275314Y15824686D01*
X3191106Y15698659D01*
X3161536Y15550000D01*
X2988464Y15550000D01*
X2958894Y15698659D01*
X2874686Y15824686D01*
X2748659Y15908894D01*
X2600000Y15938464D01*
X900000Y15938464D01*
X751341Y15908894D01*
X625314Y15824686D01*
X541106Y15698659D01*
X511536Y15550000D01*
X456000Y15550000D01*
X456000Y16010459D01*
X10594000Y16010459D01*
X10594000Y15739541D01*
X10697676Y15489244D01*
X10889244Y15297676D01*
X11139541Y15194000D01*
X11410459Y15194000D01*
X11660756Y15297676D01*
X11852324Y15489244D01*
X11956000Y15739541D01*
X11956000Y16010459D01*
X11852324Y16260756D01*
X11660756Y16452324D01*
X11410459Y16556000D01*
X11139541Y16556000D01*
X10889244Y16452324D01*
X10697676Y16260756D01*
X10594000Y16010459D01*
X456000Y16010459D01*
X456000Y16735459D01*
X15419000Y16735459D01*
X15419000Y16464541D01*
X15522676Y16214244D01*
X15714244Y16022676D01*
X15964541Y15919000D01*
X16235459Y15919000D01*
X16485756Y16022676D01*
X16644748Y16181668D01*
X16672676Y16114244D01*
X16752379Y16034541D01*
X16614244Y15977324D01*
X16422676Y15785756D01*
X16319000Y15535459D01*
X16319000Y15264541D01*
X16422676Y15014244D01*
X16614244Y14822676D01*
X16864541Y14719000D01*
X17135459Y14719000D01*
X17385756Y14822676D01*
X17577324Y15014244D01*
X17681000Y15264541D01*
X17681000Y15535459D01*
X17577324Y15785756D01*
X17497621Y15865459D01*
X17635756Y15922676D01*
X17827324Y16114244D01*
X17931000Y16364541D01*
X17931000Y16635459D01*
X17827324Y16885756D01*
X17635756Y17077324D01*
X17603687Y17090607D01*
X17677324Y17164244D01*
X17781000Y17414541D01*
X17781000Y17685459D01*
X17677324Y17935756D01*
X17485756Y18127324D01*
X17235459Y18231000D01*
X16964541Y18231000D01*
X16714244Y18127324D01*
X16522676Y17935756D01*
X16419000Y17685459D01*
X16419000Y17414541D01*
X16522676Y17164244D01*
X16714244Y16972676D01*
X16746313Y16959393D01*
X16705252Y16918332D01*
X16677324Y16985756D01*
X16485756Y17177324D01*
X16235459Y17281000D01*
X15964541Y17281000D01*
X15714244Y17177324D01*
X15522676Y16985756D01*
X15419000Y16735459D01*
X456000Y16735459D01*
X456000Y17710459D01*
X11194000Y17710459D01*
X11194000Y17439541D01*
X11297676Y17189244D01*
X11489244Y16997676D01*
X11739541Y16894000D01*
X12010459Y16894000D01*
X12260756Y16997676D01*
X12452324Y17189244D01*
X12556000Y17439541D01*
X12556000Y17710459D01*
X12452324Y17960756D01*
X12260756Y18152324D01*
X12010459Y18256000D01*
X11739541Y18256000D01*
X11489244Y18152324D01*
X11297676Y17960756D01*
X11194000Y17710459D01*
X456000Y17710459D01*
X456000Y20825215D01*
X522676Y20664244D01*
X714244Y20472676D01*
X929345Y20383579D01*
X914244Y20377324D01*
X722676Y20185756D01*
X619000Y19935459D01*
X619000Y19664541D01*
X722676Y19414244D01*
X809601Y19327319D01*
X807946Y19319000D01*
X817400Y19271472D01*
X845401Y19130700D01*
X904000Y19043000D01*
X904000Y18718704D01*
X1030512Y18413276D01*
X1264276Y18179512D01*
X1569704Y18053000D01*
X1900296Y18053000D01*
X2205724Y18179512D01*
X2367500Y18341288D01*
X2529276Y18179512D01*
X2834704Y18053000D01*
X3165296Y18053000D01*
X3470724Y18179512D01*
X3561281Y18270069D01*
X3830675Y18270069D01*
X3875353Y18131631D01*
X4192932Y18039790D01*
X4521483Y18076473D01*
X4654647Y18131631D01*
X4699325Y18270069D01*
X4265000Y18704395D01*
X3830675Y18270069D01*
X3561281Y18270069D01*
X3704488Y18413276D01*
X3767998Y18566604D01*
X4085395Y18884000D01*
X3767998Y19201396D01*
X3704488Y19354724D01*
X3561281Y19497931D01*
X3830675Y19497931D01*
X4265000Y19063605D01*
X4279142Y19077748D01*
X4458748Y18898142D01*
X4444605Y18884000D01*
X4878931Y18449675D01*
X5017369Y18494353D01*
X5109210Y18811932D01*
X5081462Y19060459D01*
X15219000Y19060459D01*
X15219000Y18789541D01*
X15322676Y18539244D01*
X15514244Y18347676D01*
X15764541Y18244000D01*
X16035459Y18244000D01*
X16285756Y18347676D01*
X16477324Y18539244D01*
X16581000Y18789541D01*
X16581000Y19060459D01*
X16477324Y19310756D01*
X16285756Y19502324D01*
X16035459Y19606000D01*
X15764541Y19606000D01*
X15514244Y19502324D01*
X15322676Y19310756D01*
X15219000Y19060459D01*
X5081462Y19060459D01*
X5072527Y19140483D01*
X5018502Y19270912D01*
X5264541Y19169000D01*
X5535459Y19169000D01*
X5785756Y19272676D01*
X5977324Y19464244D01*
X6081000Y19714541D01*
X6081000Y19750000D01*
X19157946Y19750000D01*
X19167401Y19702467D01*
X19167400Y14797528D01*
X19157946Y14750000D01*
X19167400Y14702472D01*
X19195401Y14561700D01*
X19302065Y14402065D01*
X19342363Y14375138D01*
X19800140Y13917361D01*
X19827065Y13877065D01*
X19986699Y13770401D01*
X20127471Y13742400D01*
X20174999Y13732946D01*
X20222527Y13742400D01*
X20369520Y13742400D01*
X20464244Y13647676D01*
X20714541Y13544000D01*
X20985459Y13544000D01*
X21235756Y13647676D01*
X21427324Y13839244D01*
X21529309Y14085459D01*
X24819000Y14085459D01*
X24819000Y13814541D01*
X24922676Y13564244D01*
X25114244Y13372676D01*
X25364541Y13269000D01*
X25635459Y13269000D01*
X25885756Y13372676D01*
X26023539Y13510459D01*
X27744000Y13510459D01*
X27744000Y13239541D01*
X27847676Y12989244D01*
X28039244Y12797676D01*
X28289541Y12694000D01*
X28560459Y12694000D01*
X28810756Y12797676D01*
X29002324Y12989244D01*
X29106000Y13239541D01*
X29106000Y13510459D01*
X29002324Y13760756D01*
X28907600Y13855480D01*
X28907600Y15550000D01*
X32261536Y15550000D01*
X32261536Y13850000D01*
X32291106Y13701341D01*
X32375314Y13575314D01*
X32501341Y13491106D01*
X32650000Y13461536D01*
X34350000Y13461536D01*
X34498659Y13491106D01*
X34624686Y13575314D01*
X34708894Y13701341D01*
X34738464Y13850000D01*
X34738464Y14477750D01*
X34969000Y14477750D01*
X34969000Y13774215D01*
X35027004Y13634181D01*
X35134180Y13527004D01*
X35274214Y13469000D01*
X35977750Y13469000D01*
X36073000Y13564250D01*
X36073000Y14573000D01*
X36327000Y14573000D01*
X36327000Y13564250D01*
X36422250Y13469000D01*
X37125786Y13469000D01*
X37265820Y13527004D01*
X37372996Y13634181D01*
X37431000Y13774215D01*
X37431000Y14477750D01*
X37335750Y14573000D01*
X36327000Y14573000D01*
X36073000Y14573000D01*
X35064250Y14573000D01*
X34969000Y14477750D01*
X34738464Y14477750D01*
X34738464Y15550000D01*
X34723390Y15625785D01*
X34969000Y15625785D01*
X34969000Y14922250D01*
X35064250Y14827000D01*
X36073000Y14827000D01*
X36073000Y15835750D01*
X36327000Y15835750D01*
X36327000Y14827000D01*
X37335750Y14827000D01*
X37431000Y14922250D01*
X37431000Y15625785D01*
X37372996Y15765819D01*
X37265820Y15872996D01*
X37125786Y15931000D01*
X36422250Y15931000D01*
X36327000Y15835750D01*
X36073000Y15835750D01*
X35977750Y15931000D01*
X35274214Y15931000D01*
X35134180Y15872996D01*
X35027004Y15765819D01*
X34969000Y15625785D01*
X34723390Y15625785D01*
X34708894Y15698659D01*
X34624686Y15824686D01*
X34498659Y15908894D01*
X34350000Y15938464D01*
X32650000Y15938464D01*
X32501341Y15908894D01*
X32375314Y15824686D01*
X32291106Y15698659D01*
X32261536Y15550000D01*
X28907600Y15550000D01*
X28907600Y19294518D01*
X29002326Y19389244D01*
X29106002Y19639541D01*
X29106002Y19910459D01*
X29002326Y20160756D01*
X28810758Y20352324D01*
X28560461Y20456000D01*
X28289543Y20456000D01*
X28039246Y20352324D01*
X27847678Y20160756D01*
X27744002Y19910459D01*
X27744002Y19639541D01*
X27847678Y19389244D01*
X27942401Y19294521D01*
X27942400Y13855480D01*
X27847676Y13760756D01*
X27744000Y13510459D01*
X26023539Y13510459D01*
X26077324Y13564244D01*
X26181000Y13814541D01*
X26181000Y14085459D01*
X26077324Y14335756D01*
X25885756Y14527324D01*
X25635459Y14631000D01*
X25364541Y14631000D01*
X25114244Y14527324D01*
X24922676Y14335756D01*
X24819000Y14085459D01*
X21529309Y14085459D01*
X21531000Y14089541D01*
X21531000Y14360459D01*
X21427324Y14610756D01*
X21235756Y14802324D01*
X21181664Y14824730D01*
X21281000Y15064549D01*
X21281000Y15335467D01*
X21177324Y15585764D01*
X20985756Y15777332D01*
X20735459Y15881008D01*
X20464541Y15881008D01*
X20214244Y15777332D01*
X20132600Y15695688D01*
X20132600Y18435459D01*
X20719000Y18435459D01*
X20719000Y18164541D01*
X20822676Y17914244D01*
X21014244Y17722676D01*
X21117024Y17680104D01*
X20972676Y17535756D01*
X20869000Y17285459D01*
X20869000Y17014541D01*
X20972676Y16764244D01*
X21164244Y16572676D01*
X21414541Y16469000D01*
X21685459Y16469000D01*
X21935756Y16572676D01*
X22127324Y16764244D01*
X22231000Y17014541D01*
X22231000Y17285459D01*
X22127324Y17535756D01*
X21935756Y17727324D01*
X21832976Y17769896D01*
X21977324Y17914244D01*
X22081000Y18164541D01*
X22081000Y18435459D01*
X21977324Y18685756D01*
X21785756Y18877324D01*
X21535459Y18981000D01*
X21264541Y18981000D01*
X21014244Y18877324D01*
X20822676Y18685756D01*
X20719000Y18435459D01*
X20132600Y18435459D01*
X20132600Y19550102D01*
X21301499Y20719000D01*
X21435459Y20719000D01*
X21685756Y20822676D01*
X21877324Y21014244D01*
X21981000Y21264541D01*
X21981000Y21535459D01*
X21877324Y21785756D01*
X21685756Y21977324D01*
X21435459Y22081000D01*
X21164541Y22081000D01*
X20914244Y21977324D01*
X20722676Y21785756D01*
X20619000Y21535459D01*
X20619000Y21401499D01*
X19342362Y20124860D01*
X19302066Y20097935D01*
X19212105Y19963299D01*
X19195402Y19938301D01*
X19157946Y19750000D01*
X6081000Y19750000D01*
X6081000Y19985459D01*
X5977324Y20235756D01*
X5785756Y20427324D01*
X5535459Y20531000D01*
X5264541Y20531000D01*
X5014244Y20427324D01*
X4822676Y20235756D01*
X4719000Y19985459D01*
X4719000Y19714541D01*
X4782515Y19561201D01*
X4772554Y19571162D01*
X4699325Y19497933D01*
X4654647Y19636369D01*
X4337068Y19728210D01*
X4008517Y19691527D01*
X3875353Y19636369D01*
X3830675Y19497931D01*
X3561281Y19497931D01*
X3470724Y19588488D01*
X3165296Y19715000D01*
X2834704Y19715000D01*
X2529276Y19588488D01*
X2367500Y19426712D01*
X2205724Y19588488D01*
X1981000Y19681571D01*
X1981000Y19935459D01*
X1877324Y20185756D01*
X1685756Y20377324D01*
X1470655Y20466421D01*
X1485756Y20472676D01*
X1677324Y20664244D01*
X1781000Y20914541D01*
X1781000Y21185459D01*
X1677324Y21435756D01*
X1620289Y21492791D01*
X1686499Y21559000D01*
X1772986Y21559000D01*
X1761250Y21500000D01*
X1855544Y21025951D01*
X2124071Y20624071D01*
X2525951Y20355544D01*
X3000000Y20261250D01*
X3474049Y20355544D01*
X3875929Y20624071D01*
X4144456Y21025951D01*
X4238750Y21500000D01*
X4227014Y21559000D01*
X4410405Y21559000D01*
X4679078Y21670288D01*
X4816190Y21807400D01*
X5129520Y21807400D01*
X5214244Y21722676D01*
X5464541Y21619000D01*
X5735459Y21619000D01*
X5985756Y21722676D01*
X6177324Y21914244D01*
X6268953Y22135459D01*
X8719000Y22135459D01*
X8719000Y21864541D01*
X8822676Y21614244D01*
X9014244Y21422676D01*
X9264541Y21319000D01*
X9535459Y21319000D01*
X9785756Y21422676D01*
X9977324Y21614244D01*
X10081000Y21864541D01*
X10081000Y22135459D01*
X10039579Y22235459D01*
X10519000Y22235459D01*
X10519000Y21964541D01*
X10622676Y21714244D01*
X10814244Y21522676D01*
X11064541Y21419000D01*
X11335459Y21419000D01*
X11585756Y21522676D01*
X11777324Y21714244D01*
X11881000Y21964541D01*
X11881000Y22235459D01*
X11777448Y22485459D01*
X31569000Y22485459D01*
X31569000Y22214541D01*
X31672676Y21964244D01*
X31864244Y21772676D01*
X32114541Y21669000D01*
X32385459Y21669000D01*
X32635756Y21772676D01*
X32730480Y21867400D01*
X33123810Y21867400D01*
X33320922Y21670288D01*
X33589595Y21559000D01*
X33772986Y21559000D01*
X33761250Y21500000D01*
X33855544Y21025951D01*
X34124071Y20624071D01*
X34524808Y20356308D01*
X33883501Y19715000D01*
X33569704Y19715000D01*
X33264276Y19588488D01*
X33030512Y19354724D01*
X32904000Y19049296D01*
X32904000Y18718704D01*
X33030512Y18413276D01*
X33264276Y18179512D01*
X33569704Y18053000D01*
X33900296Y18053000D01*
X34205724Y18179512D01*
X34367500Y18341288D01*
X34529276Y18179512D01*
X34834704Y18053000D01*
X35165296Y18053000D01*
X35470724Y18179512D01*
X35561281Y18270069D01*
X35830675Y18270069D01*
X35875353Y18131631D01*
X36192932Y18039790D01*
X36521483Y18076473D01*
X36654647Y18131631D01*
X36699325Y18270069D01*
X36265000Y18704395D01*
X35830675Y18270069D01*
X35561281Y18270069D01*
X35704488Y18413276D01*
X35767998Y18566604D01*
X36085395Y18884000D01*
X36444605Y18884000D01*
X36878931Y18449675D01*
X37017369Y18494353D01*
X37109210Y18811932D01*
X37072527Y19140483D01*
X37017369Y19273647D01*
X36878931Y19318325D01*
X36444605Y18884000D01*
X36085395Y18884000D01*
X35767998Y19201396D01*
X35704488Y19354724D01*
X35470724Y19588488D01*
X35400924Y19617400D01*
X35869231Y19617400D01*
X35830675Y19497931D01*
X36265000Y19063605D01*
X36620394Y19419000D01*
X36635459Y19419000D01*
X36885756Y19522676D01*
X37077324Y19714244D01*
X37181000Y19964541D01*
X37181000Y20235459D01*
X37077324Y20485756D01*
X36885756Y20677324D01*
X36635459Y20781000D01*
X36364541Y20781000D01*
X36114244Y20677324D01*
X36019520Y20582600D01*
X35813863Y20582600D01*
X35875929Y20624071D01*
X36144456Y21025951D01*
X36238750Y21500000D01*
X36227014Y21559000D01*
X36410405Y21559000D01*
X36679078Y21670288D01*
X36884712Y21875922D01*
X36996000Y22144595D01*
X36996000Y22338500D01*
X37057642Y22400142D01*
X37097935Y22427065D01*
X37172261Y22538301D01*
X37204599Y22586699D01*
X37242054Y22775000D01*
X37232600Y22822529D01*
X37232600Y23119520D01*
X37327324Y23214244D01*
X37431000Y23464541D01*
X37431000Y23735459D01*
X37327324Y23985756D01*
X37135756Y24177324D01*
X36885459Y24281000D01*
X36614541Y24281000D01*
X36364244Y24177324D01*
X36172676Y23985756D01*
X36069000Y23735459D01*
X36069000Y23464541D01*
X36172676Y23214244D01*
X36267400Y23119520D01*
X36267400Y23021000D01*
X36119595Y23021000D01*
X35850922Y22909712D01*
X35645288Y22704078D01*
X35588825Y22567765D01*
X35474049Y22644456D01*
X35000000Y22738750D01*
X34525951Y22644456D01*
X34411175Y22567765D01*
X34354712Y22704078D01*
X34149078Y22909712D01*
X33880405Y23021000D01*
X33589595Y23021000D01*
X33320922Y22909712D01*
X33243810Y22832600D01*
X32730480Y22832600D01*
X32635756Y22927324D01*
X32385459Y23031000D01*
X32114541Y23031000D01*
X31864244Y22927324D01*
X31672676Y22735756D01*
X31569000Y22485459D01*
X11777448Y22485459D01*
X11777324Y22485756D01*
X11585756Y22677324D01*
X11335459Y22781000D01*
X11064541Y22781000D01*
X10814244Y22677324D01*
X10622676Y22485756D01*
X10519000Y22235459D01*
X10039579Y22235459D01*
X9977324Y22385756D01*
X9785756Y22577324D01*
X9535459Y22681000D01*
X9264541Y22681000D01*
X9014244Y22577324D01*
X8822676Y22385756D01*
X8719000Y22135459D01*
X6268953Y22135459D01*
X6281000Y22164541D01*
X6281000Y22435459D01*
X6177324Y22685756D01*
X5985756Y22877324D01*
X5735459Y22981000D01*
X5464541Y22981000D01*
X5214244Y22877324D01*
X5109520Y22772600D01*
X4816190Y22772600D01*
X4679078Y22909712D01*
X4410405Y23021000D01*
X4119595Y23021000D01*
X3850922Y22909712D01*
X3645288Y22704078D01*
X3588825Y22567765D01*
X3474049Y22644456D01*
X3000000Y22738750D01*
X2525951Y22644456D01*
X2411175Y22567765D01*
X2354712Y22704078D01*
X2149078Y22909712D01*
X1880405Y23021000D01*
X1589595Y23021000D01*
X1320922Y22909712D01*
X1115288Y22704078D01*
X1004000Y22435405D01*
X1004000Y22241499D01*
X792363Y22029861D01*
X752065Y22002935D01*
X645401Y21843300D01*
X617400Y21702529D01*
X607946Y21655000D01*
X617400Y21607472D01*
X617400Y21530480D01*
X522676Y21435756D01*
X456000Y21274785D01*
X456000Y25135459D01*
X19469000Y25135459D01*
X19469000Y24864541D01*
X19572676Y24614244D01*
X19764244Y24422676D01*
X20014541Y24319000D01*
X20285459Y24319000D01*
X20535756Y24422676D01*
X20727324Y24614244D01*
X20831000Y24864541D01*
X20831000Y25135459D01*
X20727324Y25385756D01*
X20535756Y25577324D01*
X20285459Y25681000D01*
X20014541Y25681000D01*
X19764244Y25577324D01*
X19572676Y25385756D01*
X19469000Y25135459D01*
X456000Y25135459D01*
X456000Y26935459D01*
X6019000Y26935459D01*
X6019000Y26664541D01*
X6122676Y26414244D01*
X6314244Y26222676D01*
X6564541Y26119000D01*
X6835459Y26119000D01*
X7085756Y26222676D01*
X7277324Y26414244D01*
X7381000Y26664541D01*
X7381000Y26935459D01*
X7277324Y27185756D01*
X7085756Y27377324D01*
X6835459Y27481000D01*
X6564541Y27481000D01*
X6314244Y27377324D01*
X6122676Y27185756D01*
X6019000Y26935459D01*
X456000Y26935459D01*
X456000Y29844861D01*
X7369000Y29844861D01*
X7369000Y29355139D01*
X7556408Y28902694D01*
X7902694Y28556408D01*
X8355139Y28369000D01*
X8844861Y28369000D01*
X9297306Y28556408D01*
X9576357Y28835459D01*
X14344000Y28835459D01*
X14344000Y28564541D01*
X14447676Y28314244D01*
X14511920Y28250000D01*
X14472676Y28210756D01*
X14369000Y27960459D01*
X14369000Y27689541D01*
X14472676Y27439244D01*
X14664244Y27247676D01*
X14914541Y27144000D01*
X15185459Y27144000D01*
X15435756Y27247676D01*
X15627324Y27439244D01*
X15731000Y27689541D01*
X15731000Y27960459D01*
X15627324Y28210756D01*
X15563080Y28275000D01*
X15602324Y28314244D01*
X15706000Y28564541D01*
X15706000Y28835459D01*
X15602324Y29085756D01*
X15410756Y29277324D01*
X15160459Y29381000D01*
X14889541Y29381000D01*
X14639244Y29277324D01*
X14447676Y29085756D01*
X14344000Y28835459D01*
X9576357Y28835459D01*
X9643592Y28902694D01*
X9831000Y29355139D01*
X9831000Y29844861D01*
X28169000Y29844861D01*
X28169000Y29355139D01*
X28356408Y28902694D01*
X28702694Y28556408D01*
X29155139Y28369000D01*
X29644861Y28369000D01*
X30097306Y28556408D01*
X30443592Y28902694D01*
X30631000Y29355139D01*
X30631000Y29844861D01*
X30443592Y30297306D01*
X30097306Y30643592D01*
X29644861Y30831000D01*
X29155139Y30831000D01*
X28702694Y30643592D01*
X28356408Y30297306D01*
X28169000Y29844861D01*
X9831000Y29844861D01*
X9643592Y30297306D01*
X9297306Y30643592D01*
X8844861Y30831000D01*
X8355139Y30831000D01*
X7902694Y30643592D01*
X7556408Y30297306D01*
X7369000Y29844861D01*
X456000Y29844861D01*
X456000Y31735459D01*
X18819000Y31735459D01*
X18819000Y31464541D01*
X18922676Y31214244D01*
X19114244Y31022676D01*
X19364541Y30919000D01*
X19635459Y30919000D01*
X19885756Y31022676D01*
X20077324Y31214244D01*
X20181000Y31464541D01*
X20181000Y31735459D01*
X20077324Y31985756D01*
X19885756Y32177324D01*
X19635459Y32281000D01*
X19364541Y32281000D01*
X19114244Y32177324D01*
X18922676Y31985756D01*
X18819000Y31735459D01*
X456000Y31735459D01*
X456000Y33635459D01*
X11519000Y33635459D01*
X11519000Y33364541D01*
X11622676Y33114244D01*
X11814244Y32922676D01*
X12064541Y32819000D01*
X12335459Y32819000D01*
X12585756Y32922676D01*
X12777324Y33114244D01*
X12881000Y33364541D01*
X12881000Y33635459D01*
X12777324Y33885756D01*
X12585756Y34077324D01*
X12335459Y34181000D01*
X12064541Y34181000D01*
X11814244Y34077324D01*
X11622676Y33885756D01*
X11519000Y33635459D01*
X456000Y33635459D01*
X456000Y36844861D01*
X7369000Y36844861D01*
X7369000Y36355139D01*
X7556408Y35902694D01*
X7902694Y35556408D01*
X8355139Y35369000D01*
X8844861Y35369000D01*
X9297306Y35556408D01*
X9594747Y35853849D01*
X24085379Y35853849D01*
X24085379Y35582931D01*
X24189055Y35332634D01*
X24380623Y35141066D01*
X24630920Y35037390D01*
X24901838Y35037390D01*
X25138598Y35135459D01*
X30594000Y35135459D01*
X30594000Y34864541D01*
X30697676Y34614244D01*
X30889244Y34422676D01*
X31139541Y34319000D01*
X31410459Y34319000D01*
X31660756Y34422676D01*
X31852324Y34614244D01*
X31956000Y34864541D01*
X31956000Y35135459D01*
X31852324Y35385756D01*
X31660756Y35577324D01*
X31410459Y35681000D01*
X31139541Y35681000D01*
X30889244Y35577324D01*
X30697676Y35385756D01*
X30594000Y35135459D01*
X25138598Y35135459D01*
X25152135Y35141066D01*
X25343703Y35332634D01*
X25447379Y35582931D01*
X25447379Y35853849D01*
X25343703Y36104146D01*
X25152135Y36295714D01*
X24901838Y36399390D01*
X24630920Y36399390D01*
X24380623Y36295714D01*
X24189055Y36104146D01*
X24085379Y35853849D01*
X9594747Y35853849D01*
X9643592Y35902694D01*
X9831000Y36355139D01*
X9831000Y36844861D01*
X28169000Y36844861D01*
X28169000Y36355139D01*
X28356408Y35902694D01*
X28702694Y35556408D01*
X29155139Y35369000D01*
X29644861Y35369000D01*
X30097306Y35556408D01*
X30443592Y35902694D01*
X30631000Y36355139D01*
X30631000Y36844861D01*
X30443592Y37297306D01*
X30097306Y37643592D01*
X29644861Y37831000D01*
X29155139Y37831000D01*
X28702694Y37643592D01*
X28356408Y37297306D01*
X28169000Y36844861D01*
X9831000Y36844861D01*
X9643592Y37297306D01*
X9297306Y37643592D01*
X8844861Y37831000D01*
X8355139Y37831000D01*
X7902694Y37643592D01*
X7556408Y37297306D01*
X7369000Y36844861D01*
X456000Y36844861D01*
X456000Y38099630D01*
X458611Y38104960D01*
X475654Y38178489D01*
X542264Y38621546D01*
X704906Y38960246D01*
X959946Y39236147D01*
X1284839Y39424860D01*
X1677013Y39515761D01*
X1768885Y39519371D01*
X1897993Y39544000D01*
X36099630Y39544000D01*
X36104960Y39541389D01*
G04 #@! TD*
M02*
