G04 #@! TF.GenerationSoftware,KiCad,Pcbnew,(5.0.1-3-g963ef8bb5)*
G04 #@! TF.CreationDate,2019-01-09T17:43:23-05:00*
G04 #@! TF.ProjectId,Tympan_AIC_Shield,54796D70616E5F4149435F536869656C,rev?*
G04 #@! TF.SameCoordinates,PX6d878d0PY5279480*
G04 #@! TF.FileFunction,Legend,Bot*
G04 #@! TF.FilePolarity,Positive*
%FSLAX46Y46*%
G04 Gerber Fmt 4.6, Leading zero omitted, Abs format (unit mm)*
G04 Created by KiCad (PCBNEW (5.0.1-3-g963ef8bb5)) date Wednesday, January 09, 2019 at 05:43:23 PM*
%MOMM*%
%LPD*%
G01*
G04 APERTURE LIST*
%ADD10C,0.200000*%
%ADD11C,0.250000*%
%ADD12C,0.120000*%
%ADD13C,0.100000*%
%ADD14C,0.010000*%
%ADD15C,0.127000*%
G04 APERTURE END LIST*
D10*
X5308333Y23397620D02*
X5641666Y23873810D01*
X5879761Y23397620D02*
X5879761Y24397620D01*
X5498809Y24397620D01*
X5403571Y24350000D01*
X5355952Y24302381D01*
X5308333Y24207143D01*
X5308333Y24064286D01*
X5355952Y23969048D01*
X5403571Y23921429D01*
X5498809Y23873810D01*
X5879761Y23873810D01*
X4879761Y23397620D02*
X4879761Y24397620D01*
X3879761Y24350000D02*
X3975000Y24397620D01*
X4117857Y24397620D01*
X4260714Y24350000D01*
X4355952Y24254762D01*
X4403571Y24159524D01*
X4451190Y23969048D01*
X4451190Y23826191D01*
X4403571Y23635715D01*
X4355952Y23540477D01*
X4260714Y23445239D01*
X4117857Y23397620D01*
X4022619Y23397620D01*
X3879761Y23445239D01*
X3832142Y23492858D01*
X3832142Y23826191D01*
X4022619Y23826191D01*
X3403571Y23397620D02*
X3403571Y24397620D01*
X3403571Y23921429D02*
X2832142Y23921429D01*
X2832142Y23397620D02*
X2832142Y24397620D01*
X2498809Y24397620D02*
X1927380Y24397620D01*
X2213095Y23397620D02*
X2213095Y24397620D01*
X35402380Y23772620D02*
X35878571Y23772620D01*
X35878571Y24772620D01*
X35069047Y24296429D02*
X34735714Y24296429D01*
X34592857Y23772620D02*
X35069047Y23772620D01*
X35069047Y24772620D01*
X34592857Y24772620D01*
X33830952Y24296429D02*
X34164285Y24296429D01*
X34164285Y23772620D02*
X34164285Y24772620D01*
X33688095Y24772620D01*
X33450000Y24772620D02*
X32878571Y24772620D01*
X33164285Y23772620D02*
X33164285Y24772620D01*
X10728571Y38272620D02*
X10728571Y39272620D01*
X10252380Y38272620D02*
X10252380Y39272620D01*
X9680952Y38272620D01*
X9680952Y39272620D01*
X9204761Y38272620D02*
X9204761Y39272620D01*
X8823809Y39272620D01*
X8728571Y39225000D01*
X8680952Y39177381D01*
X8633333Y39082143D01*
X8633333Y38939286D01*
X8680952Y38844048D01*
X8728571Y38796429D01*
X8823809Y38748810D01*
X9204761Y38748810D01*
X8204761Y39272620D02*
X8204761Y38463096D01*
X8157142Y38367858D01*
X8109523Y38320239D01*
X8014285Y38272620D01*
X7823809Y38272620D01*
X7728571Y38320239D01*
X7680952Y38367858D01*
X7633333Y38463096D01*
X7633333Y39272620D01*
X7300000Y39272620D02*
X6728571Y39272620D01*
X7014285Y38272620D02*
X7014285Y39272620D01*
X31779761Y39147620D02*
X31589285Y39147620D01*
X31494047Y39100000D01*
X31398809Y39004762D01*
X31351190Y38814286D01*
X31351190Y38480953D01*
X31398809Y38290477D01*
X31494047Y38195239D01*
X31589285Y38147620D01*
X31779761Y38147620D01*
X31875000Y38195239D01*
X31970238Y38290477D01*
X32017857Y38480953D01*
X32017857Y38814286D01*
X31970238Y39004762D01*
X31875000Y39100000D01*
X31779761Y39147620D01*
X30922619Y39147620D02*
X30922619Y38338096D01*
X30875000Y38242858D01*
X30827380Y38195239D01*
X30732142Y38147620D01*
X30541666Y38147620D01*
X30446428Y38195239D01*
X30398809Y38242858D01*
X30351190Y38338096D01*
X30351190Y39147620D01*
X30017857Y39147620D02*
X29446428Y39147620D01*
X29732142Y38147620D02*
X29732142Y39147620D01*
X29113095Y38147620D02*
X29113095Y39147620D01*
X28732142Y39147620D01*
X28636904Y39100000D01*
X28589285Y39052381D01*
X28541666Y38957143D01*
X28541666Y38814286D01*
X28589285Y38719048D01*
X28636904Y38671429D01*
X28732142Y38623810D01*
X29113095Y38623810D01*
X28113095Y39147620D02*
X28113095Y38338096D01*
X28065476Y38242858D01*
X28017857Y38195239D01*
X27922619Y38147620D01*
X27732142Y38147620D01*
X27636904Y38195239D01*
X27589285Y38242858D01*
X27541666Y38338096D01*
X27541666Y39147620D01*
X27208333Y39147620D02*
X26636904Y39147620D01*
X26922619Y38147620D02*
X26922619Y39147620D01*
X24809523Y17764286D02*
X24619047Y17097620D01*
X24428571Y17573810D01*
X24238095Y17097620D01*
X24047619Y17764286D01*
X23761904Y17764286D02*
X23571428Y17097620D01*
X23380952Y17573810D01*
X23190476Y17097620D01*
X23000000Y17764286D01*
X22714285Y17764286D02*
X22523809Y17097620D01*
X22333333Y17573810D01*
X22142857Y17097620D01*
X21952380Y17764286D01*
X21571428Y17192858D02*
X21523809Y17145239D01*
X21571428Y17097620D01*
X21619047Y17145239D01*
X21571428Y17192858D01*
X21571428Y17097620D01*
X21238095Y17764286D02*
X20857142Y17764286D01*
X21095238Y18097620D02*
X21095238Y17240477D01*
X21047619Y17145239D01*
X20952380Y17097620D01*
X20857142Y17097620D01*
X20619047Y17764286D02*
X20380952Y17097620D01*
X20142857Y17764286D02*
X20380952Y17097620D01*
X20476190Y16859524D01*
X20523809Y16811905D01*
X20619047Y16764286D01*
X19761904Y17097620D02*
X19761904Y17764286D01*
X19761904Y17669048D02*
X19714285Y17716667D01*
X19619047Y17764286D01*
X19476190Y17764286D01*
X19380952Y17716667D01*
X19333333Y17621429D01*
X19333333Y17097620D01*
X19333333Y17621429D02*
X19285714Y17716667D01*
X19190476Y17764286D01*
X19047619Y17764286D01*
X18952380Y17716667D01*
X18904761Y17621429D01*
X18904761Y17097620D01*
X18428571Y17764286D02*
X18428571Y16764286D01*
X18428571Y17716667D02*
X18333333Y17764286D01*
X18142857Y17764286D01*
X18047619Y17716667D01*
X18000000Y17669048D01*
X17952380Y17573810D01*
X17952380Y17288096D01*
X18000000Y17192858D01*
X18047619Y17145239D01*
X18142857Y17097620D01*
X18333333Y17097620D01*
X18428571Y17145239D01*
X17095238Y17097620D02*
X17095238Y17621429D01*
X17142857Y17716667D01*
X17238095Y17764286D01*
X17428571Y17764286D01*
X17523809Y17716667D01*
X17095238Y17145239D02*
X17190476Y17097620D01*
X17428571Y17097620D01*
X17523809Y17145239D01*
X17571428Y17240477D01*
X17571428Y17335715D01*
X17523809Y17430953D01*
X17428571Y17478572D01*
X17190476Y17478572D01*
X17095238Y17526191D01*
X16619047Y17764286D02*
X16619047Y17097620D01*
X16619047Y17669048D02*
X16571428Y17716667D01*
X16476190Y17764286D01*
X16333333Y17764286D01*
X16238095Y17716667D01*
X16190476Y17621429D01*
X16190476Y17097620D01*
X15714285Y17192858D02*
X15666666Y17145239D01*
X15714285Y17097620D01*
X15761904Y17145239D01*
X15714285Y17192858D01*
X15714285Y17097620D01*
X15095238Y17097620D02*
X15190476Y17145239D01*
X15238095Y17192858D01*
X15285714Y17288096D01*
X15285714Y17573810D01*
X15238095Y17669048D01*
X15190476Y17716667D01*
X15095238Y17764286D01*
X14952380Y17764286D01*
X14857142Y17716667D01*
X14809523Y17669048D01*
X14761904Y17573810D01*
X14761904Y17288096D01*
X14809523Y17192858D01*
X14857142Y17145239D01*
X14952380Y17097620D01*
X15095238Y17097620D01*
X14333333Y17097620D02*
X14333333Y17764286D01*
X14333333Y17573810D02*
X14285714Y17669048D01*
X14238095Y17716667D01*
X14142857Y17764286D01*
X14047619Y17764286D01*
X13285714Y17764286D02*
X13285714Y16954762D01*
X13333333Y16859524D01*
X13380952Y16811905D01*
X13476190Y16764286D01*
X13619047Y16764286D01*
X13714285Y16811905D01*
X13285714Y17145239D02*
X13380952Y17097620D01*
X13571428Y17097620D01*
X13666666Y17145239D01*
X13714285Y17192858D01*
X13761904Y17288096D01*
X13761904Y17573810D01*
X13714285Y17669048D01*
X13666666Y17716667D01*
X13571428Y17764286D01*
X13380952Y17764286D01*
X13285714Y17716667D01*
X25666666Y16064286D02*
X25666666Y15254762D01*
X25714285Y15159524D01*
X25761904Y15111905D01*
X25857142Y15064286D01*
X26000000Y15064286D01*
X26095238Y15111905D01*
X25666666Y15445239D02*
X25761904Y15397620D01*
X25952380Y15397620D01*
X26047619Y15445239D01*
X26095238Y15492858D01*
X26142857Y15588096D01*
X26142857Y15873810D01*
X26095238Y15969048D01*
X26047619Y16016667D01*
X25952380Y16064286D01*
X25761904Y16064286D01*
X25666666Y16016667D01*
X25190476Y15397620D02*
X25190476Y16064286D01*
X25190476Y16397620D02*
X25238095Y16350000D01*
X25190476Y16302381D01*
X25142857Y16350000D01*
X25190476Y16397620D01*
X25190476Y16302381D01*
X24857142Y16064286D02*
X24476190Y16064286D01*
X24714285Y16397620D02*
X24714285Y15540477D01*
X24666666Y15445239D01*
X24571428Y15397620D01*
X24476190Y15397620D01*
X24142857Y15397620D02*
X24142857Y16397620D01*
X23714285Y15397620D02*
X23714285Y15921429D01*
X23761904Y16016667D01*
X23857142Y16064286D01*
X24000000Y16064286D01*
X24095238Y16016667D01*
X24142857Y15969048D01*
X22809523Y16064286D02*
X22809523Y15397620D01*
X23238095Y16064286D02*
X23238095Y15540477D01*
X23190476Y15445239D01*
X23095238Y15397620D01*
X22952380Y15397620D01*
X22857142Y15445239D01*
X22809523Y15492858D01*
X22333333Y15397620D02*
X22333333Y16397620D01*
X22333333Y16016667D02*
X22238095Y16064286D01*
X22047619Y16064286D01*
X21952380Y16016667D01*
X21904761Y15969048D01*
X21857142Y15873810D01*
X21857142Y15588096D01*
X21904761Y15492858D01*
X21952380Y15445239D01*
X22047619Y15397620D01*
X22238095Y15397620D01*
X22333333Y15445239D01*
X21428571Y15492858D02*
X21380952Y15445239D01*
X21428571Y15397620D01*
X21476190Y15445239D01*
X21428571Y15492858D01*
X21428571Y15397620D01*
X20523809Y15445239D02*
X20619047Y15397620D01*
X20809523Y15397620D01*
X20904761Y15445239D01*
X20952380Y15492858D01*
X21000000Y15588096D01*
X21000000Y15873810D01*
X20952380Y15969048D01*
X20904761Y16016667D01*
X20809523Y16064286D01*
X20619047Y16064286D01*
X20523809Y16016667D01*
X19952380Y15397620D02*
X20047619Y15445239D01*
X20095238Y15492858D01*
X20142857Y15588096D01*
X20142857Y15873810D01*
X20095238Y15969048D01*
X20047619Y16016667D01*
X19952380Y16064286D01*
X19809523Y16064286D01*
X19714285Y16016667D01*
X19666666Y15969048D01*
X19619047Y15873810D01*
X19619047Y15588096D01*
X19666666Y15492858D01*
X19714285Y15445239D01*
X19809523Y15397620D01*
X19952380Y15397620D01*
X19190476Y15397620D02*
X19190476Y16064286D01*
X19190476Y15969048D02*
X19142857Y16016667D01*
X19047619Y16064286D01*
X18904761Y16064286D01*
X18809523Y16016667D01*
X18761904Y15921429D01*
X18761904Y15397620D01*
X18761904Y15921429D02*
X18714285Y16016667D01*
X18619047Y16064286D01*
X18476190Y16064286D01*
X18380952Y16016667D01*
X18333333Y15921429D01*
X18333333Y15397620D01*
X17142857Y16445239D02*
X18000000Y15159524D01*
X16952380Y16064286D02*
X16571428Y16064286D01*
X16809523Y16397620D02*
X16809523Y15540477D01*
X16761904Y15445239D01*
X16666666Y15397620D01*
X16571428Y15397620D01*
X16333333Y16064286D02*
X16095238Y15397620D01*
X15857142Y16064286D02*
X16095238Y15397620D01*
X16190476Y15159524D01*
X16238095Y15111905D01*
X16333333Y15064286D01*
X15476190Y15397620D02*
X15476190Y16064286D01*
X15476190Y15969048D02*
X15428571Y16016667D01*
X15333333Y16064286D01*
X15190476Y16064286D01*
X15095238Y16016667D01*
X15047619Y15921429D01*
X15047619Y15397620D01*
X15047619Y15921429D02*
X15000000Y16016667D01*
X14904761Y16064286D01*
X14761904Y16064286D01*
X14666666Y16016667D01*
X14619047Y15921429D01*
X14619047Y15397620D01*
X14142857Y16064286D02*
X14142857Y15064286D01*
X14142857Y16016667D02*
X14047619Y16064286D01*
X13857142Y16064286D01*
X13761904Y16016667D01*
X13714285Y15969048D01*
X13666666Y15873810D01*
X13666666Y15588096D01*
X13714285Y15492858D01*
X13761904Y15445239D01*
X13857142Y15397620D01*
X14047619Y15397620D01*
X14142857Y15445239D01*
X12809523Y15397620D02*
X12809523Y15921429D01*
X12857142Y16016667D01*
X12952380Y16064286D01*
X13142857Y16064286D01*
X13238095Y16016667D01*
X12809523Y15445239D02*
X12904761Y15397620D01*
X13142857Y15397620D01*
X13238095Y15445239D01*
X13285714Y15540477D01*
X13285714Y15635715D01*
X13238095Y15730953D01*
X13142857Y15778572D01*
X12904761Y15778572D01*
X12809523Y15826191D01*
X12333333Y16064286D02*
X12333333Y15397620D01*
X12333333Y15969048D02*
X12285714Y16016667D01*
X12190476Y16064286D01*
X12047619Y16064286D01*
X11952380Y16016667D01*
X11904761Y15921429D01*
X11904761Y15397620D01*
X28282142Y34222620D02*
X28282142Y35222620D01*
X28044047Y35222620D01*
X27901190Y35175000D01*
X27805952Y35079762D01*
X27758333Y34984524D01*
X27710714Y34794048D01*
X27710714Y34651191D01*
X27758333Y34460715D01*
X27805952Y34365477D01*
X27901190Y34270239D01*
X28044047Y34222620D01*
X28282142Y34222620D01*
X26901190Y34270239D02*
X26996428Y34222620D01*
X27186904Y34222620D01*
X27282142Y34270239D01*
X27329761Y34365477D01*
X27329761Y34746429D01*
X27282142Y34841667D01*
X27186904Y34889286D01*
X26996428Y34889286D01*
X26901190Y34841667D01*
X26853571Y34746429D01*
X26853571Y34651191D01*
X27329761Y34555953D01*
X26472619Y34270239D02*
X26377380Y34222620D01*
X26186904Y34222620D01*
X26091666Y34270239D01*
X26044047Y34365477D01*
X26044047Y34413096D01*
X26091666Y34508334D01*
X26186904Y34555953D01*
X26329761Y34555953D01*
X26425000Y34603572D01*
X26472619Y34698810D01*
X26472619Y34746429D01*
X26425000Y34841667D01*
X26329761Y34889286D01*
X26186904Y34889286D01*
X26091666Y34841667D01*
X25615476Y34222620D02*
X25615476Y34889286D01*
X25615476Y35222620D02*
X25663095Y35175000D01*
X25615476Y35127381D01*
X25567857Y35175000D01*
X25615476Y35222620D01*
X25615476Y35127381D01*
X24710714Y34889286D02*
X24710714Y34079762D01*
X24758333Y33984524D01*
X24805952Y33936905D01*
X24901190Y33889286D01*
X25044047Y33889286D01*
X25139285Y33936905D01*
X24710714Y34270239D02*
X24805952Y34222620D01*
X24996428Y34222620D01*
X25091666Y34270239D01*
X25139285Y34317858D01*
X25186904Y34413096D01*
X25186904Y34698810D01*
X25139285Y34794048D01*
X25091666Y34841667D01*
X24996428Y34889286D01*
X24805952Y34889286D01*
X24710714Y34841667D01*
X24234523Y34889286D02*
X24234523Y34222620D01*
X24234523Y34794048D02*
X24186904Y34841667D01*
X24091666Y34889286D01*
X23948809Y34889286D01*
X23853571Y34841667D01*
X23805952Y34746429D01*
X23805952Y34222620D01*
X22948809Y34270239D02*
X23044047Y34222620D01*
X23234523Y34222620D01*
X23329761Y34270239D01*
X23377380Y34365477D01*
X23377380Y34746429D01*
X23329761Y34841667D01*
X23234523Y34889286D01*
X23044047Y34889286D01*
X22948809Y34841667D01*
X22901190Y34746429D01*
X22901190Y34651191D01*
X23377380Y34555953D01*
X22044047Y34222620D02*
X22044047Y35222620D01*
X22044047Y34270239D02*
X22139285Y34222620D01*
X22329761Y34222620D01*
X22425000Y34270239D01*
X22472619Y34317858D01*
X22520238Y34413096D01*
X22520238Y34698810D01*
X22472619Y34794048D01*
X22425000Y34841667D01*
X22329761Y34889286D01*
X22139285Y34889286D01*
X22044047Y34841667D01*
X20805952Y34222620D02*
X20805952Y34889286D01*
X20805952Y35222620D02*
X20853571Y35175000D01*
X20805952Y35127381D01*
X20758333Y35175000D01*
X20805952Y35222620D01*
X20805952Y35127381D01*
X20329761Y34889286D02*
X20329761Y34222620D01*
X20329761Y34794048D02*
X20282142Y34841667D01*
X20186904Y34889286D01*
X20044047Y34889286D01*
X19948809Y34841667D01*
X19901190Y34746429D01*
X19901190Y34222620D01*
X18329761Y34746429D02*
X18186904Y34698810D01*
X18139285Y34651191D01*
X18091666Y34555953D01*
X18091666Y34413096D01*
X18139285Y34317858D01*
X18186904Y34270239D01*
X18282142Y34222620D01*
X18663095Y34222620D01*
X18663095Y35222620D01*
X18329761Y35222620D01*
X18234523Y35175000D01*
X18186904Y35127381D01*
X18139285Y35032143D01*
X18139285Y34936905D01*
X18186904Y34841667D01*
X18234523Y34794048D01*
X18329761Y34746429D01*
X18663095Y34746429D01*
X17663095Y34222620D02*
X17663095Y34889286D01*
X17663095Y34698810D02*
X17615476Y34794048D01*
X17567857Y34841667D01*
X17472619Y34889286D01*
X17377380Y34889286D01*
X16901190Y34222620D02*
X16996428Y34270239D01*
X17044047Y34317858D01*
X17091666Y34413096D01*
X17091666Y34698810D01*
X17044047Y34794048D01*
X16996428Y34841667D01*
X16901190Y34889286D01*
X16758333Y34889286D01*
X16663095Y34841667D01*
X16615476Y34794048D01*
X16567857Y34698810D01*
X16567857Y34413096D01*
X16615476Y34317858D01*
X16663095Y34270239D01*
X16758333Y34222620D01*
X16901190Y34222620D01*
X15996428Y34222620D02*
X16091666Y34270239D01*
X16139285Y34317858D01*
X16186904Y34413096D01*
X16186904Y34698810D01*
X16139285Y34794048D01*
X16091666Y34841667D01*
X15996428Y34889286D01*
X15853571Y34889286D01*
X15758333Y34841667D01*
X15710714Y34794048D01*
X15663095Y34698810D01*
X15663095Y34413096D01*
X15710714Y34317858D01*
X15758333Y34270239D01*
X15853571Y34222620D01*
X15996428Y34222620D01*
X15234523Y34222620D02*
X15234523Y35222620D01*
X15139285Y34603572D02*
X14853571Y34222620D01*
X14853571Y34889286D02*
X15234523Y34508334D01*
X14282142Y34222620D02*
X14377380Y34270239D01*
X14425000Y34365477D01*
X14425000Y35222620D01*
X13996428Y34889286D02*
X13758333Y34222620D01*
X13520238Y34889286D02*
X13758333Y34222620D01*
X13853571Y33984524D01*
X13901190Y33936905D01*
X13996428Y33889286D01*
X13139285Y34889286D02*
X13139285Y34222620D01*
X13139285Y34794048D02*
X13091666Y34841667D01*
X12996428Y34889286D01*
X12853571Y34889286D01*
X12758333Y34841667D01*
X12710714Y34746429D01*
X12710714Y34222620D01*
X12186904Y34270239D02*
X12186904Y34222620D01*
X12234523Y34127381D01*
X12282142Y34079762D01*
X10996428Y34222620D02*
X10996428Y35222620D01*
X10425000Y34222620D01*
X10425000Y35222620D01*
X9758333Y34698810D02*
X9758333Y34222620D01*
X10091666Y35222620D02*
X9758333Y34698810D01*
X9425000Y35222620D01*
D11*
X32062857Y32459572D02*
X31192000Y32459572D01*
X31627428Y30935572D02*
X31627428Y32459572D01*
X30393714Y31661286D02*
X30393714Y30935572D01*
X30901714Y32459572D02*
X30393714Y31661286D01*
X29885714Y32459572D01*
X29377714Y30935572D02*
X29377714Y32459572D01*
X28869714Y31371000D01*
X28361714Y32459572D01*
X28361714Y30935572D01*
X27636000Y30935572D02*
X27636000Y32459572D01*
X27055428Y32459572D01*
X26910285Y32387000D01*
X26837714Y32314429D01*
X26765142Y32169286D01*
X26765142Y31951572D01*
X26837714Y31806429D01*
X26910285Y31733858D01*
X27055428Y31661286D01*
X27636000Y31661286D01*
X26184571Y31371000D02*
X25458857Y31371000D01*
X26329714Y30935572D02*
X25821714Y32459572D01*
X25313714Y30935572D01*
X24805714Y30935572D02*
X24805714Y32459572D01*
X23934857Y30935572D01*
X23934857Y32459572D01*
X21177142Y31080715D02*
X21249714Y31008143D01*
X21467428Y30935572D01*
X21612571Y30935572D01*
X21830285Y31008143D01*
X21975428Y31153286D01*
X22048000Y31298429D01*
X22120571Y31588715D01*
X22120571Y31806429D01*
X22048000Y32096715D01*
X21975428Y32241858D01*
X21830285Y32387000D01*
X21612571Y32459572D01*
X21467428Y32459572D01*
X21249714Y32387000D01*
X21177142Y32314429D01*
X20233714Y32459572D02*
X19943428Y32459572D01*
X19798285Y32387000D01*
X19653142Y32241858D01*
X19580571Y31951572D01*
X19580571Y31443572D01*
X19653142Y31153286D01*
X19798285Y31008143D01*
X19943428Y30935572D01*
X20233714Y30935572D01*
X20378857Y31008143D01*
X20524000Y31153286D01*
X20596571Y31443572D01*
X20596571Y31951572D01*
X20524000Y32241858D01*
X20378857Y32387000D01*
X20233714Y32459572D01*
X18927428Y30935572D02*
X18927428Y32459572D01*
X18564571Y32459572D01*
X18346857Y32387000D01*
X18201714Y32241858D01*
X18129142Y32096715D01*
X18056571Y31806429D01*
X18056571Y31588715D01*
X18129142Y31298429D01*
X18201714Y31153286D01*
X18346857Y31008143D01*
X18564571Y30935572D01*
X18927428Y30935572D01*
X17403428Y31733858D02*
X16895428Y31733858D01*
X16677714Y30935572D02*
X17403428Y30935572D01*
X17403428Y32459572D01*
X16677714Y32459572D01*
X15153714Y31080715D02*
X15226285Y31008143D01*
X15444000Y30935572D01*
X15589142Y30935572D01*
X15806857Y31008143D01*
X15952000Y31153286D01*
X16024571Y31298429D01*
X16097142Y31588715D01*
X16097142Y31806429D01*
X16024571Y32096715D01*
X15952000Y32241858D01*
X15806857Y32387000D01*
X15589142Y32459572D01*
X15444000Y32459572D01*
X15226285Y32387000D01*
X15153714Y32314429D01*
X13412000Y31008143D02*
X13194285Y30935572D01*
X12831428Y30935572D01*
X12686285Y31008143D01*
X12613714Y31080715D01*
X12541142Y31225858D01*
X12541142Y31371000D01*
X12613714Y31516143D01*
X12686285Y31588715D01*
X12831428Y31661286D01*
X13121714Y31733858D01*
X13266857Y31806429D01*
X13339428Y31879000D01*
X13412000Y32024143D01*
X13412000Y32169286D01*
X13339428Y32314429D01*
X13266857Y32387000D01*
X13121714Y32459572D01*
X12758857Y32459572D01*
X12541142Y32387000D01*
X11888000Y30935572D02*
X11888000Y32459572D01*
X11888000Y31733858D02*
X11017142Y31733858D01*
X11017142Y30935572D02*
X11017142Y32459572D01*
X10291428Y30935572D02*
X10291428Y32459572D01*
X9565714Y31733858D02*
X9057714Y31733858D01*
X8840000Y30935572D02*
X9565714Y30935572D01*
X9565714Y32459572D01*
X8840000Y32459572D01*
X7461142Y30935572D02*
X8186857Y30935572D01*
X8186857Y32459572D01*
X6953142Y30935572D02*
X6953142Y32459572D01*
X6590285Y32459572D01*
X6372571Y32387000D01*
X6227428Y32241858D01*
X6154857Y32096715D01*
X6082285Y31806429D01*
X6082285Y31588715D01*
X6154857Y31298429D01*
X6227428Y31153286D01*
X6372571Y31008143D01*
X6590285Y30935572D01*
X6953142Y30935572D01*
D12*
G04 #@! TO.C,C23*
X9750000Y12645000D02*
X10250000Y12645000D01*
X10250000Y11705000D02*
X9750000Y11705000D01*
G04 #@! TO.C,C24*
X9750000Y10120000D02*
X10250000Y10120000D01*
X10250000Y9180000D02*
X9750000Y9180000D01*
G04 #@! TO.C,C25*
X9750000Y8295000D02*
X10250000Y8295000D01*
X10250000Y7355000D02*
X9750000Y7355000D01*
G04 #@! TO.C,C26*
X9750000Y4320000D02*
X10250000Y4320000D01*
X10250000Y3380000D02*
X9750000Y3380000D01*
D13*
G04 #@! TO.C,MIC1*
X33000000Y23000000D02*
X33000000Y18250000D01*
X33000000Y18250000D02*
X37000000Y18250000D01*
X37000000Y18250000D02*
X37000000Y23000000D01*
X37000000Y23000000D02*
X33000000Y23000000D01*
D14*
G04 #@! TO.C,G\002A\002A\002A*
G36*
X17048442Y29133056D02*
X16177488Y28910696D01*
X15673000Y28702495D01*
X15193417Y28402662D01*
X14716422Y27983505D01*
X14285540Y27490012D01*
X13944296Y26967169D01*
X13887842Y26857333D01*
X13769544Y26608863D01*
X13688991Y26407309D01*
X13639035Y26210412D01*
X13612527Y25975914D01*
X13602319Y25661555D01*
X13601263Y25225077D01*
X13601409Y25164000D01*
X13605975Y24690126D01*
X13620937Y24341182D01*
X13652306Y24072823D01*
X13706095Y23840702D01*
X13788315Y23600473D01*
X13826784Y23501567D01*
X14271796Y22601945D01*
X14865095Y21778347D01*
X15382818Y21232164D01*
X16001475Y20687451D01*
X16602458Y20258633D01*
X17241757Y19912331D01*
X17975362Y19615165D01*
X18255333Y19519682D01*
X18697875Y19414769D01*
X19247419Y19344191D01*
X19844663Y19310402D01*
X20430305Y19315858D01*
X20945041Y19363015D01*
X21144623Y19400058D01*
X21922539Y19657821D01*
X22636669Y20051718D01*
X23259513Y20562273D01*
X23763570Y21170009D01*
X23861345Y21324044D01*
X24177957Y22011740D01*
X24348909Y22759534D01*
X24369726Y23341246D01*
X24139667Y23341246D01*
X24060545Y22548206D01*
X23829498Y21819346D01*
X23456009Y21167637D01*
X22949557Y20606052D01*
X22319624Y20147560D01*
X21575689Y19805133D01*
X21548141Y19795560D01*
X21123321Y19666424D01*
X20844476Y19621612D01*
X20710754Y19661096D01*
X20712849Y19766500D01*
X20747381Y19918575D01*
X20782176Y20187276D01*
X20810714Y20520035D01*
X20815236Y20592000D01*
X20818892Y20719000D01*
X20541102Y20719000D01*
X20533899Y20233793D01*
X20496078Y19895979D01*
X20402833Y19683718D01*
X20229359Y19575172D01*
X19950851Y19548500D01*
X19542504Y19581862D01*
X19285761Y19613731D01*
X18990241Y19657030D01*
X18767113Y19699465D01*
X18663825Y19731984D01*
X18663302Y19732476D01*
X18656952Y19843517D01*
X18713250Y20062952D01*
X18816319Y20349150D01*
X18950285Y20660479D01*
X19099270Y20955308D01*
X19184814Y21100000D01*
X19397757Y21394006D01*
X19642670Y21670879D01*
X19885179Y21897497D01*
X20090908Y22040740D01*
X20195341Y22073667D01*
X20329095Y21992605D01*
X20433650Y21760094D01*
X20504919Y21392144D01*
X20538815Y20904769D01*
X20541102Y20719000D01*
X20818892Y20719000D01*
X20826994Y21000362D01*
X20800534Y21311683D01*
X20727785Y21595553D01*
X20685120Y21713858D01*
X20605066Y21963521D01*
X20575445Y22144796D01*
X20591792Y22205688D01*
X20630495Y22270031D01*
X19989371Y22270031D01*
X19660888Y22006055D01*
X19342806Y21689676D01*
X19022248Y21268201D01*
X18738316Y20800684D01*
X18530114Y20346179D01*
X18496306Y20247331D01*
X18403168Y19998178D01*
X18312949Y19831675D01*
X18261038Y19788701D01*
X18145641Y19821238D01*
X17918939Y19906787D01*
X17624020Y20028809D01*
X17533277Y20068048D01*
X16712514Y20484105D01*
X15996182Y20979942D01*
X15334005Y21592556D01*
X15073318Y21878263D01*
X14643968Y22433684D01*
X14297424Y23013558D01*
X14040567Y23594311D01*
X13880278Y24152365D01*
X13823439Y24664146D01*
X13876930Y25106078D01*
X14034489Y25437447D01*
X14258433Y25697986D01*
X14494828Y25868900D01*
X14789887Y25970860D01*
X15189824Y26024539D01*
X15373201Y26036280D01*
X15758372Y26068551D01*
X15976034Y26110814D01*
X16026254Y26155089D01*
X15909097Y26193392D01*
X15624629Y26217742D01*
X15371670Y26222333D01*
X15031313Y26235145D01*
X14816159Y26269856D01*
X14738443Y26320882D01*
X14810396Y26382639D01*
X14932167Y26422969D01*
X15376768Y26473283D01*
X15853086Y26415460D01*
X16098133Y26338735D01*
X16311247Y26261969D01*
X16445965Y26229506D01*
X16466143Y26232902D01*
X16729574Y26694051D01*
X16844713Y27170097D01*
X16811599Y27633837D01*
X16630271Y28058071D01*
X16463161Y28269127D01*
X16322495Y28422673D01*
X16294113Y28490708D01*
X16371012Y28507904D01*
X16414851Y28508333D01*
X16629426Y28429635D01*
X16826614Y28217295D01*
X16984556Y27906944D01*
X17081397Y27534217D01*
X17096734Y27396694D01*
X17108198Y27113618D01*
X17080833Y26900521D01*
X16995961Y26689147D01*
X16834902Y26411238D01*
X16820806Y26388362D01*
X16615793Y26020240D01*
X16530872Y25746074D01*
X16572874Y25533943D01*
X16748630Y25351922D01*
X17064970Y25168090D01*
X17083946Y25158603D01*
X17782763Y24742039D01*
X18459489Y24210921D01*
X19071402Y23604819D01*
X19575780Y22963300D01*
X19744162Y22694750D01*
X19989371Y22270031D01*
X20630495Y22270031D01*
X20670564Y22336642D01*
X20599342Y22534376D01*
X20381166Y22793179D01*
X20183163Y22973549D01*
X19688187Y23420712D01*
X19213006Y23899030D01*
X18774441Y24387048D01*
X18389315Y24863311D01*
X18074448Y25306365D01*
X17940661Y25534482D01*
X17535232Y25534482D01*
X17479222Y25432111D01*
X17363381Y25377180D01*
X17295127Y25476888D01*
X17281667Y25619300D01*
X17239908Y25834166D01*
X17154667Y25968333D01*
X17042586Y26104627D01*
X17052378Y26200963D01*
X17126833Y26222333D01*
X17302194Y26149633D01*
X17446379Y25971144D01*
X17532891Y25746287D01*
X17535232Y25534482D01*
X17940661Y25534482D01*
X17846663Y25694754D01*
X17722779Y26007024D01*
X17705000Y26134294D01*
X17777284Y26330868D01*
X17974168Y26569606D01*
X18265704Y26823473D01*
X18621942Y27065438D01*
X18908032Y27220177D01*
X19232829Y27359977D01*
X19656731Y27519047D01*
X20114995Y27673907D01*
X20397194Y27760193D01*
X21326477Y28030183D01*
X21892175Y27580044D01*
X22576193Y26947189D01*
X23152723Y26232073D01*
X23608917Y25458927D01*
X23931927Y24651980D01*
X24108906Y23835465D01*
X24139667Y23341246D01*
X24369726Y23341246D01*
X24377061Y23546180D01*
X24265271Y24350437D01*
X24016398Y25151062D01*
X23633302Y25926811D01*
X23148569Y26620243D01*
X22772175Y27047017D01*
X22329191Y27495295D01*
X21884324Y27901271D01*
X21674147Y28074153D01*
X21428218Y28234750D01*
X21074356Y28426420D01*
X20664476Y28624352D01*
X20250490Y28803736D01*
X19884313Y28939760D01*
X19821667Y28959493D01*
X18903214Y29159479D01*
X17967912Y29216659D01*
X17048442Y29133056D01*
X17048442Y29133056D01*
G37*
X17048442Y29133056D02*
X16177488Y28910696D01*
X15673000Y28702495D01*
X15193417Y28402662D01*
X14716422Y27983505D01*
X14285540Y27490012D01*
X13944296Y26967169D01*
X13887842Y26857333D01*
X13769544Y26608863D01*
X13688991Y26407309D01*
X13639035Y26210412D01*
X13612527Y25975914D01*
X13602319Y25661555D01*
X13601263Y25225077D01*
X13601409Y25164000D01*
X13605975Y24690126D01*
X13620937Y24341182D01*
X13652306Y24072823D01*
X13706095Y23840702D01*
X13788315Y23600473D01*
X13826784Y23501567D01*
X14271796Y22601945D01*
X14865095Y21778347D01*
X15382818Y21232164D01*
X16001475Y20687451D01*
X16602458Y20258633D01*
X17241757Y19912331D01*
X17975362Y19615165D01*
X18255333Y19519682D01*
X18697875Y19414769D01*
X19247419Y19344191D01*
X19844663Y19310402D01*
X20430305Y19315858D01*
X20945041Y19363015D01*
X21144623Y19400058D01*
X21922539Y19657821D01*
X22636669Y20051718D01*
X23259513Y20562273D01*
X23763570Y21170009D01*
X23861345Y21324044D01*
X24177957Y22011740D01*
X24348909Y22759534D01*
X24369726Y23341246D01*
X24139667Y23341246D01*
X24060545Y22548206D01*
X23829498Y21819346D01*
X23456009Y21167637D01*
X22949557Y20606052D01*
X22319624Y20147560D01*
X21575689Y19805133D01*
X21548141Y19795560D01*
X21123321Y19666424D01*
X20844476Y19621612D01*
X20710754Y19661096D01*
X20712849Y19766500D01*
X20747381Y19918575D01*
X20782176Y20187276D01*
X20810714Y20520035D01*
X20815236Y20592000D01*
X20818892Y20719000D01*
X20541102Y20719000D01*
X20533899Y20233793D01*
X20496078Y19895979D01*
X20402833Y19683718D01*
X20229359Y19575172D01*
X19950851Y19548500D01*
X19542504Y19581862D01*
X19285761Y19613731D01*
X18990241Y19657030D01*
X18767113Y19699465D01*
X18663825Y19731984D01*
X18663302Y19732476D01*
X18656952Y19843517D01*
X18713250Y20062952D01*
X18816319Y20349150D01*
X18950285Y20660479D01*
X19099270Y20955308D01*
X19184814Y21100000D01*
X19397757Y21394006D01*
X19642670Y21670879D01*
X19885179Y21897497D01*
X20090908Y22040740D01*
X20195341Y22073667D01*
X20329095Y21992605D01*
X20433650Y21760094D01*
X20504919Y21392144D01*
X20538815Y20904769D01*
X20541102Y20719000D01*
X20818892Y20719000D01*
X20826994Y21000362D01*
X20800534Y21311683D01*
X20727785Y21595553D01*
X20685120Y21713858D01*
X20605066Y21963521D01*
X20575445Y22144796D01*
X20591792Y22205688D01*
X20630495Y22270031D01*
X19989371Y22270031D01*
X19660888Y22006055D01*
X19342806Y21689676D01*
X19022248Y21268201D01*
X18738316Y20800684D01*
X18530114Y20346179D01*
X18496306Y20247331D01*
X18403168Y19998178D01*
X18312949Y19831675D01*
X18261038Y19788701D01*
X18145641Y19821238D01*
X17918939Y19906787D01*
X17624020Y20028809D01*
X17533277Y20068048D01*
X16712514Y20484105D01*
X15996182Y20979942D01*
X15334005Y21592556D01*
X15073318Y21878263D01*
X14643968Y22433684D01*
X14297424Y23013558D01*
X14040567Y23594311D01*
X13880278Y24152365D01*
X13823439Y24664146D01*
X13876930Y25106078D01*
X14034489Y25437447D01*
X14258433Y25697986D01*
X14494828Y25868900D01*
X14789887Y25970860D01*
X15189824Y26024539D01*
X15373201Y26036280D01*
X15758372Y26068551D01*
X15976034Y26110814D01*
X16026254Y26155089D01*
X15909097Y26193392D01*
X15624629Y26217742D01*
X15371670Y26222333D01*
X15031313Y26235145D01*
X14816159Y26269856D01*
X14738443Y26320882D01*
X14810396Y26382639D01*
X14932167Y26422969D01*
X15376768Y26473283D01*
X15853086Y26415460D01*
X16098133Y26338735D01*
X16311247Y26261969D01*
X16445965Y26229506D01*
X16466143Y26232902D01*
X16729574Y26694051D01*
X16844713Y27170097D01*
X16811599Y27633837D01*
X16630271Y28058071D01*
X16463161Y28269127D01*
X16322495Y28422673D01*
X16294113Y28490708D01*
X16371012Y28507904D01*
X16414851Y28508333D01*
X16629426Y28429635D01*
X16826614Y28217295D01*
X16984556Y27906944D01*
X17081397Y27534217D01*
X17096734Y27396694D01*
X17108198Y27113618D01*
X17080833Y26900521D01*
X16995961Y26689147D01*
X16834902Y26411238D01*
X16820806Y26388362D01*
X16615793Y26020240D01*
X16530872Y25746074D01*
X16572874Y25533943D01*
X16748630Y25351922D01*
X17064970Y25168090D01*
X17083946Y25158603D01*
X17782763Y24742039D01*
X18459489Y24210921D01*
X19071402Y23604819D01*
X19575780Y22963300D01*
X19744162Y22694750D01*
X19989371Y22270031D01*
X20630495Y22270031D01*
X20670564Y22336642D01*
X20599342Y22534376D01*
X20381166Y22793179D01*
X20183163Y22973549D01*
X19688187Y23420712D01*
X19213006Y23899030D01*
X18774441Y24387048D01*
X18389315Y24863311D01*
X18074448Y25306365D01*
X17940661Y25534482D01*
X17535232Y25534482D01*
X17479222Y25432111D01*
X17363381Y25377180D01*
X17295127Y25476888D01*
X17281667Y25619300D01*
X17239908Y25834166D01*
X17154667Y25968333D01*
X17042586Y26104627D01*
X17052378Y26200963D01*
X17126833Y26222333D01*
X17302194Y26149633D01*
X17446379Y25971144D01*
X17532891Y25746287D01*
X17535232Y25534482D01*
X17940661Y25534482D01*
X17846663Y25694754D01*
X17722779Y26007024D01*
X17705000Y26134294D01*
X17777284Y26330868D01*
X17974168Y26569606D01*
X18265704Y26823473D01*
X18621942Y27065438D01*
X18908032Y27220177D01*
X19232829Y27359977D01*
X19656731Y27519047D01*
X20114995Y27673907D01*
X20397194Y27760193D01*
X21326477Y28030183D01*
X21892175Y27580044D01*
X22576193Y26947189D01*
X23152723Y26232073D01*
X23608917Y25458927D01*
X23931927Y24651980D01*
X24108906Y23835465D01*
X24139667Y23341246D01*
X24369726Y23341246D01*
X24377061Y23546180D01*
X24265271Y24350437D01*
X24016398Y25151062D01*
X23633302Y25926811D01*
X23148569Y26620243D01*
X22772175Y27047017D01*
X22329191Y27495295D01*
X21884324Y27901271D01*
X21674147Y28074153D01*
X21428218Y28234750D01*
X21074356Y28426420D01*
X20664476Y28624352D01*
X20250490Y28803736D01*
X19884313Y28939760D01*
X19821667Y28959493D01*
X18903214Y29159479D01*
X17967912Y29216659D01*
X17048442Y29133056D01*
G36*
X18809404Y12999981D02*
X18660236Y12998575D01*
X18546201Y12995974D01*
X18463703Y12992027D01*
X18409147Y12986585D01*
X18378938Y12979499D01*
X18370854Y12974208D01*
X18361875Y12947272D01*
X18346577Y12884158D01*
X18326113Y12790358D01*
X18301635Y12671362D01*
X18274297Y12532662D01*
X18245249Y12379749D01*
X18238698Y12344500D01*
X18209363Y12189099D01*
X18181377Y12046629D01*
X18155910Y11922595D01*
X18134130Y11822505D01*
X18117205Y11751864D01*
X18106303Y11716180D01*
X18104830Y11713569D01*
X18095561Y11703146D01*
X18082397Y11692691D01*
X18060527Y11680053D01*
X18025143Y11663085D01*
X17971436Y11639635D01*
X17894597Y11607557D01*
X17789815Y11564699D01*
X17652284Y11508913D01*
X17594944Y11485703D01*
X17481508Y11440729D01*
X17379489Y11402028D01*
X17296261Y11372261D01*
X17239194Y11354088D01*
X17217953Y11349667D01*
X17197575Y11355571D01*
X17160589Y11374326D01*
X17104610Y11407493D01*
X17027249Y11456634D01*
X16926120Y11523311D01*
X16798835Y11609087D01*
X16643008Y11715522D01*
X16456250Y11844180D01*
X16352628Y11915875D01*
X16272863Y11969587D01*
X16204444Y12012813D01*
X16155594Y12040531D01*
X16136007Y12048166D01*
X16115081Y12033717D01*
X16068365Y11992851D01*
X15999795Y11929291D01*
X15913306Y11846762D01*
X15812836Y11748988D01*
X15702320Y11639691D01*
X15668301Y11605719D01*
X15523970Y11459957D01*
X15409998Y11341909D01*
X15325559Y11250660D01*
X15269825Y11185296D01*
X15241969Y11144904D01*
X15238603Y11131028D01*
X15253477Y11105676D01*
X15289230Y11050348D01*
X15342634Y10969866D01*
X15410463Y10869052D01*
X15489489Y10752730D01*
X15576487Y10625724D01*
X15583394Y10615684D01*
X15670767Y10487969D01*
X15750222Y10370421D01*
X15818561Y10267883D01*
X15872585Y10185203D01*
X15909094Y10127225D01*
X15924890Y10098796D01*
X15925155Y10097977D01*
X15919510Y10070018D01*
X15898997Y10009390D01*
X15866051Y9922058D01*
X15823107Y9813989D01*
X15772600Y9691149D01*
X15716966Y9559502D01*
X15658639Y9425017D01*
X15600055Y9293657D01*
X15570184Y9228320D01*
X15559492Y9207382D01*
X15545664Y9189731D01*
X15524212Y9174098D01*
X15490649Y9159214D01*
X15440490Y9143809D01*
X15369245Y9126614D01*
X15272429Y9106360D01*
X15145555Y9081777D01*
X14984134Y9051595D01*
X14872500Y9030948D01*
X14725687Y9003229D01*
X14592017Y8976843D01*
X14477338Y8953036D01*
X14387496Y8933054D01*
X14328336Y8918145D01*
X14306292Y8910205D01*
X14297529Y8882543D01*
X14290348Y8819160D01*
X14284730Y8726636D01*
X14280661Y8611552D01*
X14278123Y8480490D01*
X14277100Y8340031D01*
X14277575Y8196757D01*
X14279531Y8057248D01*
X14282953Y7928086D01*
X14287823Y7815852D01*
X14294124Y7727127D01*
X14301841Y7668493D01*
X14309474Y7647251D01*
X14337464Y7637005D01*
X14401407Y7620557D01*
X14495585Y7599154D01*
X14614277Y7574045D01*
X14751766Y7546477D01*
X14902332Y7517700D01*
X14907433Y7516749D01*
X15086679Y7482803D01*
X15228212Y7454645D01*
X15336105Y7431291D01*
X15414434Y7411756D01*
X15467272Y7395054D01*
X15498693Y7380201D01*
X15509434Y7371225D01*
X15527964Y7339040D01*
X15558232Y7274773D01*
X15597389Y7185533D01*
X15642583Y7078429D01*
X15690962Y6960571D01*
X15739677Y6839068D01*
X15785877Y6721029D01*
X15826709Y6613564D01*
X15859324Y6523781D01*
X15880871Y6458791D01*
X15888500Y6425957D01*
X15884707Y6407719D01*
X15871960Y6378941D01*
X15848214Y6336468D01*
X15811421Y6277144D01*
X15759534Y6197813D01*
X15690505Y6095319D01*
X15602287Y5966507D01*
X15492834Y5808220D01*
X15416381Y5698166D01*
X15354039Y5606901D01*
X15300510Y5525456D01*
X15260576Y5461338D01*
X15239018Y5422054D01*
X15236896Y5416414D01*
X15242836Y5395137D01*
X15269096Y5356616D01*
X15317665Y5298623D01*
X15390531Y5218925D01*
X15489685Y5115294D01*
X15617116Y4985500D01*
X15658152Y4944147D01*
X15785998Y4816094D01*
X15887898Y4715498D01*
X15967284Y4639340D01*
X16027594Y4584602D01*
X16072261Y4548266D01*
X16104723Y4527313D01*
X16128413Y4518725D01*
X16142500Y4518584D01*
X16173858Y4532593D01*
X16234517Y4567653D01*
X16319193Y4620409D01*
X16422598Y4687502D01*
X16539449Y4765576D01*
X16644422Y4837392D01*
X16767889Y4921599D01*
X16881844Y4997130D01*
X16981130Y5060738D01*
X17060586Y5109180D01*
X17115053Y5139209D01*
X17137931Y5147833D01*
X17174631Y5137944D01*
X17237795Y5111296D01*
X17317294Y5072420D01*
X17373333Y5042519D01*
X17456762Y4997687D01*
X17528884Y4961121D01*
X17580131Y4937551D01*
X17597982Y4931394D01*
X17607927Y4932671D01*
X17619616Y4941848D01*
X17634453Y4962016D01*
X17653846Y4996266D01*
X17679199Y5047690D01*
X17711918Y5119379D01*
X17753409Y5214423D01*
X17805079Y5335913D01*
X17868332Y5486942D01*
X17944574Y5670599D01*
X18035212Y5889976D01*
X18047770Y5920416D01*
X18110676Y6072797D01*
X18178768Y6237520D01*
X18246618Y6401466D01*
X18308796Y6551517D01*
X18356535Y6666523D01*
X18400782Y6776083D01*
X18437495Y6872990D01*
X18464174Y6950140D01*
X18478318Y7000431D01*
X18479457Y7015773D01*
X18456665Y7039896D01*
X18408099Y7077010D01*
X18348587Y7116333D01*
X18278825Y7165514D01*
X18194332Y7233822D01*
X18109335Y7309508D01*
X18076612Y7340961D01*
X17925254Y7519331D01*
X17810398Y7717875D01*
X17733228Y7933427D01*
X17694928Y8162821D01*
X17693722Y8364844D01*
X17728866Y8593125D01*
X17801791Y8807233D01*
X17909234Y9003367D01*
X18047933Y9177727D01*
X18214625Y9326513D01*
X18406048Y9445923D01*
X18618938Y9532157D01*
X18718429Y9558578D01*
X18944981Y9589601D01*
X19164853Y9581851D01*
X19374943Y9538483D01*
X19572153Y9462649D01*
X19753382Y9357502D01*
X19915528Y9226195D01*
X20055493Y9071880D01*
X20170176Y8897709D01*
X20256476Y8706837D01*
X20311293Y8502416D01*
X20331527Y8287598D01*
X20314078Y8065537D01*
X20291742Y7958629D01*
X20252079Y7823114D01*
X20203474Y7705630D01*
X20138013Y7589442D01*
X20068595Y7486750D01*
X20003138Y7400686D01*
X19935972Y7327105D01*
X19857350Y7257000D01*
X19757526Y7181364D01*
X19678380Y7126147D01*
X19618813Y7085913D01*
X19576676Y7053967D01*
X19551607Y7023229D01*
X19543246Y6986621D01*
X19551231Y6937063D01*
X19575199Y6867475D01*
X19614790Y6770780D01*
X19655310Y6674317D01*
X19698041Y6571855D01*
X19751779Y6442677D01*
X19813860Y6293217D01*
X19881616Y6129912D01*
X19952384Y5959197D01*
X20023497Y5787509D01*
X20092290Y5621284D01*
X20156097Y5466956D01*
X20212253Y5330963D01*
X20258093Y5219740D01*
X20290950Y5139723D01*
X20296286Y5126666D01*
X20329261Y5048740D01*
X20358589Y4984499D01*
X20378965Y4945438D01*
X20381895Y4941138D01*
X20399941Y4933743D01*
X20435674Y4941314D01*
X20494597Y4965901D01*
X20582209Y5009554D01*
X20623278Y5031096D01*
X20713350Y5077158D01*
X20792454Y5114651D01*
X20851677Y5139539D01*
X20881110Y5147833D01*
X20897910Y5143742D01*
X20926508Y5130169D01*
X20969892Y5105167D01*
X21031052Y5066789D01*
X21112977Y5013088D01*
X21218656Y4942114D01*
X21351079Y4851922D01*
X21513235Y4740564D01*
X21633409Y4657693D01*
X21718256Y4601169D01*
X21793271Y4554965D01*
X21850215Y4523911D01*
X21880525Y4512833D01*
X21904605Y4527258D01*
X21954334Y4568025D01*
X22025597Y4631372D01*
X22114277Y4713540D01*
X22216261Y4810766D01*
X22327431Y4919291D01*
X22353325Y4944916D01*
X22464521Y5055923D01*
X22565238Y5157786D01*
X22651709Y5246588D01*
X22720167Y5318416D01*
X22766847Y5369353D01*
X22787981Y5395485D01*
X22788834Y5397624D01*
X22777637Y5424627D01*
X22748410Y5474797D01*
X22711186Y5531750D01*
X22675175Y5584305D01*
X22620259Y5664350D01*
X22551513Y5764488D01*
X22474015Y5877324D01*
X22392843Y5995462D01*
X22380457Y6013484D01*
X22304839Y6125567D01*
X22238260Y6228194D01*
X22184305Y6315509D01*
X22146562Y6381657D01*
X22128618Y6420781D01*
X22127630Y6426234D01*
X22135350Y6457995D01*
X22156865Y6522797D01*
X22189930Y6614503D01*
X22232299Y6726978D01*
X22281728Y6854086D01*
X22312019Y6930278D01*
X22379302Y7095403D01*
X22433775Y7222729D01*
X22476481Y7314458D01*
X22508460Y7372795D01*
X22530755Y7399943D01*
X22535021Y7402142D01*
X22565612Y7409233D01*
X22631917Y7422900D01*
X22728032Y7441983D01*
X22848049Y7465321D01*
X22986064Y7491756D01*
X23129578Y7518890D01*
X23277959Y7547291D01*
X23412730Y7574083D01*
X23528262Y7598066D01*
X23618925Y7618040D01*
X23679089Y7632806D01*
X23703039Y7641072D01*
X23707328Y7665967D01*
X23710873Y7727817D01*
X23713575Y7821247D01*
X23715333Y7940883D01*
X23716047Y8081353D01*
X23715618Y8237281D01*
X23715196Y8292462D01*
X23709584Y8926083D01*
X23106334Y9039073D01*
X22951104Y9068812D01*
X22808942Y9097316D01*
X22685322Y9123387D01*
X22585719Y9145827D01*
X22515609Y9163435D01*
X22480464Y9175015D01*
X22477946Y9176656D01*
X22461454Y9203960D01*
X22432157Y9263398D01*
X22393074Y9347922D01*
X22347224Y9450483D01*
X22297624Y9564034D01*
X22247294Y9681524D01*
X22199252Y9795905D01*
X22156517Y9900129D01*
X22122108Y9987146D01*
X22099043Y10049909D01*
X22090341Y10081369D01*
X22090334Y10081749D01*
X22101942Y10107676D01*
X22134752Y10163619D01*
X22185746Y10244878D01*
X22251904Y10346752D01*
X22330206Y10464538D01*
X22417633Y10593536D01*
X22439584Y10625562D01*
X22528523Y10755629D01*
X22609112Y10874607D01*
X22678355Y10977983D01*
X22733257Y11061246D01*
X22770821Y11119882D01*
X22788053Y11149379D01*
X22788834Y11151699D01*
X22774298Y11172335D01*
X22733750Y11217679D01*
X22671782Y11283189D01*
X22592983Y11364322D01*
X22501943Y11456536D01*
X22403254Y11555286D01*
X22301506Y11656032D01*
X22201289Y11754229D01*
X22107193Y11845335D01*
X22023810Y11924808D01*
X21955729Y11988105D01*
X21907541Y12030683D01*
X21883836Y12047999D01*
X21882951Y12048167D01*
X21858985Y12036589D01*
X21804877Y12003861D01*
X21725246Y11952991D01*
X21624713Y11886985D01*
X21507900Y11808851D01*
X21379427Y11721596D01*
X21346330Y11698917D01*
X21214725Y11609633D01*
X21092591Y11528779D01*
X20984745Y11459388D01*
X20896005Y11404490D01*
X20831189Y11367119D01*
X20795115Y11350307D01*
X20791382Y11349667D01*
X20753785Y11357562D01*
X20687356Y11378961D01*
X20602059Y11410428D01*
X20523481Y11441978D01*
X20406812Y11490401D01*
X20278537Y11543404D01*
X20158816Y11592667D01*
X20107276Y11613780D01*
X20023061Y11650998D01*
X19954286Y11686631D01*
X19910216Y11715596D01*
X19899413Y11727843D01*
X19892181Y11756922D01*
X19878348Y11822033D01*
X19859027Y11917586D01*
X19835327Y12037988D01*
X19808360Y12177647D01*
X19779238Y12330971D01*
X19773189Y12363124D01*
X19737501Y12548458D01*
X19705648Y12704456D01*
X19678242Y12828432D01*
X19655898Y12917700D01*
X19639228Y12969576D01*
X19631802Y12981925D01*
X19603957Y12986595D01*
X19539413Y12990840D01*
X19443805Y12994497D01*
X19322767Y12997403D01*
X19181932Y12999393D01*
X19026934Y13000305D01*
X18997301Y13000342D01*
X18809404Y12999981D01*
X18809404Y12999981D01*
G37*
X18809404Y12999981D02*
X18660236Y12998575D01*
X18546201Y12995974D01*
X18463703Y12992027D01*
X18409147Y12986585D01*
X18378938Y12979499D01*
X18370854Y12974208D01*
X18361875Y12947272D01*
X18346577Y12884158D01*
X18326113Y12790358D01*
X18301635Y12671362D01*
X18274297Y12532662D01*
X18245249Y12379749D01*
X18238698Y12344500D01*
X18209363Y12189099D01*
X18181377Y12046629D01*
X18155910Y11922595D01*
X18134130Y11822505D01*
X18117205Y11751864D01*
X18106303Y11716180D01*
X18104830Y11713569D01*
X18095561Y11703146D01*
X18082397Y11692691D01*
X18060527Y11680053D01*
X18025143Y11663085D01*
X17971436Y11639635D01*
X17894597Y11607557D01*
X17789815Y11564699D01*
X17652284Y11508913D01*
X17594944Y11485703D01*
X17481508Y11440729D01*
X17379489Y11402028D01*
X17296261Y11372261D01*
X17239194Y11354088D01*
X17217953Y11349667D01*
X17197575Y11355571D01*
X17160589Y11374326D01*
X17104610Y11407493D01*
X17027249Y11456634D01*
X16926120Y11523311D01*
X16798835Y11609087D01*
X16643008Y11715522D01*
X16456250Y11844180D01*
X16352628Y11915875D01*
X16272863Y11969587D01*
X16204444Y12012813D01*
X16155594Y12040531D01*
X16136007Y12048166D01*
X16115081Y12033717D01*
X16068365Y11992851D01*
X15999795Y11929291D01*
X15913306Y11846762D01*
X15812836Y11748988D01*
X15702320Y11639691D01*
X15668301Y11605719D01*
X15523970Y11459957D01*
X15409998Y11341909D01*
X15325559Y11250660D01*
X15269825Y11185296D01*
X15241969Y11144904D01*
X15238603Y11131028D01*
X15253477Y11105676D01*
X15289230Y11050348D01*
X15342634Y10969866D01*
X15410463Y10869052D01*
X15489489Y10752730D01*
X15576487Y10625724D01*
X15583394Y10615684D01*
X15670767Y10487969D01*
X15750222Y10370421D01*
X15818561Y10267883D01*
X15872585Y10185203D01*
X15909094Y10127225D01*
X15924890Y10098796D01*
X15925155Y10097977D01*
X15919510Y10070018D01*
X15898997Y10009390D01*
X15866051Y9922058D01*
X15823107Y9813989D01*
X15772600Y9691149D01*
X15716966Y9559502D01*
X15658639Y9425017D01*
X15600055Y9293657D01*
X15570184Y9228320D01*
X15559492Y9207382D01*
X15545664Y9189731D01*
X15524212Y9174098D01*
X15490649Y9159214D01*
X15440490Y9143809D01*
X15369245Y9126614D01*
X15272429Y9106360D01*
X15145555Y9081777D01*
X14984134Y9051595D01*
X14872500Y9030948D01*
X14725687Y9003229D01*
X14592017Y8976843D01*
X14477338Y8953036D01*
X14387496Y8933054D01*
X14328336Y8918145D01*
X14306292Y8910205D01*
X14297529Y8882543D01*
X14290348Y8819160D01*
X14284730Y8726636D01*
X14280661Y8611552D01*
X14278123Y8480490D01*
X14277100Y8340031D01*
X14277575Y8196757D01*
X14279531Y8057248D01*
X14282953Y7928086D01*
X14287823Y7815852D01*
X14294124Y7727127D01*
X14301841Y7668493D01*
X14309474Y7647251D01*
X14337464Y7637005D01*
X14401407Y7620557D01*
X14495585Y7599154D01*
X14614277Y7574045D01*
X14751766Y7546477D01*
X14902332Y7517700D01*
X14907433Y7516749D01*
X15086679Y7482803D01*
X15228212Y7454645D01*
X15336105Y7431291D01*
X15414434Y7411756D01*
X15467272Y7395054D01*
X15498693Y7380201D01*
X15509434Y7371225D01*
X15527964Y7339040D01*
X15558232Y7274773D01*
X15597389Y7185533D01*
X15642583Y7078429D01*
X15690962Y6960571D01*
X15739677Y6839068D01*
X15785877Y6721029D01*
X15826709Y6613564D01*
X15859324Y6523781D01*
X15880871Y6458791D01*
X15888500Y6425957D01*
X15884707Y6407719D01*
X15871960Y6378941D01*
X15848214Y6336468D01*
X15811421Y6277144D01*
X15759534Y6197813D01*
X15690505Y6095319D01*
X15602287Y5966507D01*
X15492834Y5808220D01*
X15416381Y5698166D01*
X15354039Y5606901D01*
X15300510Y5525456D01*
X15260576Y5461338D01*
X15239018Y5422054D01*
X15236896Y5416414D01*
X15242836Y5395137D01*
X15269096Y5356616D01*
X15317665Y5298623D01*
X15390531Y5218925D01*
X15489685Y5115294D01*
X15617116Y4985500D01*
X15658152Y4944147D01*
X15785998Y4816094D01*
X15887898Y4715498D01*
X15967284Y4639340D01*
X16027594Y4584602D01*
X16072261Y4548266D01*
X16104723Y4527313D01*
X16128413Y4518725D01*
X16142500Y4518584D01*
X16173858Y4532593D01*
X16234517Y4567653D01*
X16319193Y4620409D01*
X16422598Y4687502D01*
X16539449Y4765576D01*
X16644422Y4837392D01*
X16767889Y4921599D01*
X16881844Y4997130D01*
X16981130Y5060738D01*
X17060586Y5109180D01*
X17115053Y5139209D01*
X17137931Y5147833D01*
X17174631Y5137944D01*
X17237795Y5111296D01*
X17317294Y5072420D01*
X17373333Y5042519D01*
X17456762Y4997687D01*
X17528884Y4961121D01*
X17580131Y4937551D01*
X17597982Y4931394D01*
X17607927Y4932671D01*
X17619616Y4941848D01*
X17634453Y4962016D01*
X17653846Y4996266D01*
X17679199Y5047690D01*
X17711918Y5119379D01*
X17753409Y5214423D01*
X17805079Y5335913D01*
X17868332Y5486942D01*
X17944574Y5670599D01*
X18035212Y5889976D01*
X18047770Y5920416D01*
X18110676Y6072797D01*
X18178768Y6237520D01*
X18246618Y6401466D01*
X18308796Y6551517D01*
X18356535Y6666523D01*
X18400782Y6776083D01*
X18437495Y6872990D01*
X18464174Y6950140D01*
X18478318Y7000431D01*
X18479457Y7015773D01*
X18456665Y7039896D01*
X18408099Y7077010D01*
X18348587Y7116333D01*
X18278825Y7165514D01*
X18194332Y7233822D01*
X18109335Y7309508D01*
X18076612Y7340961D01*
X17925254Y7519331D01*
X17810398Y7717875D01*
X17733228Y7933427D01*
X17694928Y8162821D01*
X17693722Y8364844D01*
X17728866Y8593125D01*
X17801791Y8807233D01*
X17909234Y9003367D01*
X18047933Y9177727D01*
X18214625Y9326513D01*
X18406048Y9445923D01*
X18618938Y9532157D01*
X18718429Y9558578D01*
X18944981Y9589601D01*
X19164853Y9581851D01*
X19374943Y9538483D01*
X19572153Y9462649D01*
X19753382Y9357502D01*
X19915528Y9226195D01*
X20055493Y9071880D01*
X20170176Y8897709D01*
X20256476Y8706837D01*
X20311293Y8502416D01*
X20331527Y8287598D01*
X20314078Y8065537D01*
X20291742Y7958629D01*
X20252079Y7823114D01*
X20203474Y7705630D01*
X20138013Y7589442D01*
X20068595Y7486750D01*
X20003138Y7400686D01*
X19935972Y7327105D01*
X19857350Y7257000D01*
X19757526Y7181364D01*
X19678380Y7126147D01*
X19618813Y7085913D01*
X19576676Y7053967D01*
X19551607Y7023229D01*
X19543246Y6986621D01*
X19551231Y6937063D01*
X19575199Y6867475D01*
X19614790Y6770780D01*
X19655310Y6674317D01*
X19698041Y6571855D01*
X19751779Y6442677D01*
X19813860Y6293217D01*
X19881616Y6129912D01*
X19952384Y5959197D01*
X20023497Y5787509D01*
X20092290Y5621284D01*
X20156097Y5466956D01*
X20212253Y5330963D01*
X20258093Y5219740D01*
X20290950Y5139723D01*
X20296286Y5126666D01*
X20329261Y5048740D01*
X20358589Y4984499D01*
X20378965Y4945438D01*
X20381895Y4941138D01*
X20399941Y4933743D01*
X20435674Y4941314D01*
X20494597Y4965901D01*
X20582209Y5009554D01*
X20623278Y5031096D01*
X20713350Y5077158D01*
X20792454Y5114651D01*
X20851677Y5139539D01*
X20881110Y5147833D01*
X20897910Y5143742D01*
X20926508Y5130169D01*
X20969892Y5105167D01*
X21031052Y5066789D01*
X21112977Y5013088D01*
X21218656Y4942114D01*
X21351079Y4851922D01*
X21513235Y4740564D01*
X21633409Y4657693D01*
X21718256Y4601169D01*
X21793271Y4554965D01*
X21850215Y4523911D01*
X21880525Y4512833D01*
X21904605Y4527258D01*
X21954334Y4568025D01*
X22025597Y4631372D01*
X22114277Y4713540D01*
X22216261Y4810766D01*
X22327431Y4919291D01*
X22353325Y4944916D01*
X22464521Y5055923D01*
X22565238Y5157786D01*
X22651709Y5246588D01*
X22720167Y5318416D01*
X22766847Y5369353D01*
X22787981Y5395485D01*
X22788834Y5397624D01*
X22777637Y5424627D01*
X22748410Y5474797D01*
X22711186Y5531750D01*
X22675175Y5584305D01*
X22620259Y5664350D01*
X22551513Y5764488D01*
X22474015Y5877324D01*
X22392843Y5995462D01*
X22380457Y6013484D01*
X22304839Y6125567D01*
X22238260Y6228194D01*
X22184305Y6315509D01*
X22146562Y6381657D01*
X22128618Y6420781D01*
X22127630Y6426234D01*
X22135350Y6457995D01*
X22156865Y6522797D01*
X22189930Y6614503D01*
X22232299Y6726978D01*
X22281728Y6854086D01*
X22312019Y6930278D01*
X22379302Y7095403D01*
X22433775Y7222729D01*
X22476481Y7314458D01*
X22508460Y7372795D01*
X22530755Y7399943D01*
X22535021Y7402142D01*
X22565612Y7409233D01*
X22631917Y7422900D01*
X22728032Y7441983D01*
X22848049Y7465321D01*
X22986064Y7491756D01*
X23129578Y7518890D01*
X23277959Y7547291D01*
X23412730Y7574083D01*
X23528262Y7598066D01*
X23618925Y7618040D01*
X23679089Y7632806D01*
X23703039Y7641072D01*
X23707328Y7665967D01*
X23710873Y7727817D01*
X23713575Y7821247D01*
X23715333Y7940883D01*
X23716047Y8081353D01*
X23715618Y8237281D01*
X23715196Y8292462D01*
X23709584Y8926083D01*
X23106334Y9039073D01*
X22951104Y9068812D01*
X22808942Y9097316D01*
X22685322Y9123387D01*
X22585719Y9145827D01*
X22515609Y9163435D01*
X22480464Y9175015D01*
X22477946Y9176656D01*
X22461454Y9203960D01*
X22432157Y9263398D01*
X22393074Y9347922D01*
X22347224Y9450483D01*
X22297624Y9564034D01*
X22247294Y9681524D01*
X22199252Y9795905D01*
X22156517Y9900129D01*
X22122108Y9987146D01*
X22099043Y10049909D01*
X22090341Y10081369D01*
X22090334Y10081749D01*
X22101942Y10107676D01*
X22134752Y10163619D01*
X22185746Y10244878D01*
X22251904Y10346752D01*
X22330206Y10464538D01*
X22417633Y10593536D01*
X22439584Y10625562D01*
X22528523Y10755629D01*
X22609112Y10874607D01*
X22678355Y10977983D01*
X22733257Y11061246D01*
X22770821Y11119882D01*
X22788053Y11149379D01*
X22788834Y11151699D01*
X22774298Y11172335D01*
X22733750Y11217679D01*
X22671782Y11283189D01*
X22592983Y11364322D01*
X22501943Y11456536D01*
X22403254Y11555286D01*
X22301506Y11656032D01*
X22201289Y11754229D01*
X22107193Y11845335D01*
X22023810Y11924808D01*
X21955729Y11988105D01*
X21907541Y12030683D01*
X21883836Y12047999D01*
X21882951Y12048167D01*
X21858985Y12036589D01*
X21804877Y12003861D01*
X21725246Y11952991D01*
X21624713Y11886985D01*
X21507900Y11808851D01*
X21379427Y11721596D01*
X21346330Y11698917D01*
X21214725Y11609633D01*
X21092591Y11528779D01*
X20984745Y11459388D01*
X20896005Y11404490D01*
X20831189Y11367119D01*
X20795115Y11350307D01*
X20791382Y11349667D01*
X20753785Y11357562D01*
X20687356Y11378961D01*
X20602059Y11410428D01*
X20523481Y11441978D01*
X20406812Y11490401D01*
X20278537Y11543404D01*
X20158816Y11592667D01*
X20107276Y11613780D01*
X20023061Y11650998D01*
X19954286Y11686631D01*
X19910216Y11715596D01*
X19899413Y11727843D01*
X19892181Y11756922D01*
X19878348Y11822033D01*
X19859027Y11917586D01*
X19835327Y12037988D01*
X19808360Y12177647D01*
X19779238Y12330971D01*
X19773189Y12363124D01*
X19737501Y12548458D01*
X19705648Y12704456D01*
X19678242Y12828432D01*
X19655898Y12917700D01*
X19639228Y12969576D01*
X19631802Y12981925D01*
X19603957Y12986595D01*
X19539413Y12990840D01*
X19443805Y12994497D01*
X19322767Y12997403D01*
X19181932Y12999393D01*
X19026934Y13000305D01*
X18997301Y13000342D01*
X18809404Y12999981D01*
G04 #@! TO.C,C23*
D15*
X12608214Y11848215D02*
X12638452Y11817977D01*
X12729166Y11787739D01*
X12789642Y11787739D01*
X12880357Y11817977D01*
X12940833Y11878453D01*
X12971071Y11938929D01*
X13001309Y12059881D01*
X13001309Y12150596D01*
X12971071Y12271548D01*
X12940833Y12332024D01*
X12880357Y12392500D01*
X12789642Y12422739D01*
X12729166Y12422739D01*
X12638452Y12392500D01*
X12608214Y12362262D01*
X12366309Y12362262D02*
X12336071Y12392500D01*
X12275595Y12422739D01*
X12124404Y12422739D01*
X12063928Y12392500D01*
X12033690Y12362262D01*
X12003452Y12301786D01*
X12003452Y12241310D01*
X12033690Y12150596D01*
X12396547Y11787739D01*
X12003452Y11787739D01*
X11791785Y12422739D02*
X11398690Y12422739D01*
X11610357Y12180834D01*
X11519642Y12180834D01*
X11459166Y12150596D01*
X11428928Y12120358D01*
X11398690Y12059881D01*
X11398690Y11908691D01*
X11428928Y11848215D01*
X11459166Y11817977D01*
X11519642Y11787739D01*
X11701071Y11787739D01*
X11761547Y11817977D01*
X11791785Y11848215D01*
G04 #@! TO.C,C24*
X12458214Y9373215D02*
X12488452Y9342977D01*
X12579166Y9312739D01*
X12639642Y9312739D01*
X12730357Y9342977D01*
X12790833Y9403453D01*
X12821071Y9463929D01*
X12851309Y9584881D01*
X12851309Y9675596D01*
X12821071Y9796548D01*
X12790833Y9857024D01*
X12730357Y9917500D01*
X12639642Y9947739D01*
X12579166Y9947739D01*
X12488452Y9917500D01*
X12458214Y9887262D01*
X12216309Y9887262D02*
X12186071Y9917500D01*
X12125595Y9947739D01*
X11974404Y9947739D01*
X11913928Y9917500D01*
X11883690Y9887262D01*
X11853452Y9826786D01*
X11853452Y9766310D01*
X11883690Y9675596D01*
X12246547Y9312739D01*
X11853452Y9312739D01*
X11309166Y9736072D02*
X11309166Y9312739D01*
X11460357Y9977977D02*
X11611547Y9524405D01*
X11218452Y9524405D01*
G04 #@! TO.C,C25*
X12508214Y7548215D02*
X12538452Y7517977D01*
X12629166Y7487739D01*
X12689642Y7487739D01*
X12780357Y7517977D01*
X12840833Y7578453D01*
X12871071Y7638929D01*
X12901309Y7759881D01*
X12901309Y7850596D01*
X12871071Y7971548D01*
X12840833Y8032024D01*
X12780357Y8092500D01*
X12689642Y8122739D01*
X12629166Y8122739D01*
X12538452Y8092500D01*
X12508214Y8062262D01*
X12266309Y8062262D02*
X12236071Y8092500D01*
X12175595Y8122739D01*
X12024404Y8122739D01*
X11963928Y8092500D01*
X11933690Y8062262D01*
X11903452Y8001786D01*
X11903452Y7941310D01*
X11933690Y7850596D01*
X12296547Y7487739D01*
X11903452Y7487739D01*
X11328928Y8122739D02*
X11631309Y8122739D01*
X11661547Y7820358D01*
X11631309Y7850596D01*
X11570833Y7880834D01*
X11419642Y7880834D01*
X11359166Y7850596D01*
X11328928Y7820358D01*
X11298690Y7759881D01*
X11298690Y7608691D01*
X11328928Y7548215D01*
X11359166Y7517977D01*
X11419642Y7487739D01*
X11570833Y7487739D01*
X11631309Y7517977D01*
X11661547Y7548215D01*
G04 #@! TO.C,C26*
X12558214Y3573215D02*
X12588452Y3542977D01*
X12679166Y3512739D01*
X12739642Y3512739D01*
X12830357Y3542977D01*
X12890833Y3603453D01*
X12921071Y3663929D01*
X12951309Y3784881D01*
X12951309Y3875596D01*
X12921071Y3996548D01*
X12890833Y4057024D01*
X12830357Y4117500D01*
X12739642Y4147739D01*
X12679166Y4147739D01*
X12588452Y4117500D01*
X12558214Y4087262D01*
X12316309Y4087262D02*
X12286071Y4117500D01*
X12225595Y4147739D01*
X12074404Y4147739D01*
X12013928Y4117500D01*
X11983690Y4087262D01*
X11953452Y4026786D01*
X11953452Y3966310D01*
X11983690Y3875596D01*
X12346547Y3512739D01*
X11953452Y3512739D01*
X11409166Y4147739D02*
X11530119Y4147739D01*
X11590595Y4117500D01*
X11620833Y4087262D01*
X11681309Y3996548D01*
X11711547Y3875596D01*
X11711547Y3633691D01*
X11681309Y3573215D01*
X11651071Y3542977D01*
X11590595Y3512739D01*
X11469642Y3512739D01*
X11409166Y3542977D01*
X11378928Y3573215D01*
X11348690Y3633691D01*
X11348690Y3784881D01*
X11378928Y3845358D01*
X11409166Y3875596D01*
X11469642Y3905834D01*
X11590595Y3905834D01*
X11651071Y3875596D01*
X11681309Y3845358D01*
X11711547Y3784881D01*
G04 #@! TO.C,MIC2*
X3882738Y17262739D02*
X3882738Y17897739D01*
X3671071Y17444167D01*
X3459404Y17897739D01*
X3459404Y17262739D01*
X3157023Y17262739D02*
X3157023Y17897739D01*
X2491785Y17323215D02*
X2522023Y17292977D01*
X2612738Y17262739D01*
X2673214Y17262739D01*
X2763928Y17292977D01*
X2824404Y17353453D01*
X2854642Y17413929D01*
X2884880Y17534881D01*
X2884880Y17625596D01*
X2854642Y17746548D01*
X2824404Y17807024D01*
X2763928Y17867500D01*
X2673214Y17897739D01*
X2612738Y17897739D01*
X2522023Y17867500D01*
X2491785Y17837262D01*
X2249880Y17837262D02*
X2219642Y17867500D01*
X2159166Y17897739D01*
X2007976Y17897739D01*
X1947500Y17867500D01*
X1917261Y17837262D01*
X1887023Y17776786D01*
X1887023Y17716310D01*
X1917261Y17625596D01*
X2280119Y17262739D01*
X1887023Y17262739D01*
G04 #@! TO.C,MIC1*
X35982738Y17312739D02*
X35982738Y17947739D01*
X35771071Y17494167D01*
X35559404Y17947739D01*
X35559404Y17312739D01*
X35257023Y17312739D02*
X35257023Y17947739D01*
X34591785Y17373215D02*
X34622023Y17342977D01*
X34712738Y17312739D01*
X34773214Y17312739D01*
X34863928Y17342977D01*
X34924404Y17403453D01*
X34954642Y17463929D01*
X34984880Y17584881D01*
X34984880Y17675596D01*
X34954642Y17796548D01*
X34924404Y17857024D01*
X34863928Y17917500D01*
X34773214Y17947739D01*
X34712738Y17947739D01*
X34622023Y17917500D01*
X34591785Y17887262D01*
X33987023Y17312739D02*
X34349880Y17312739D01*
X34168452Y17312739D02*
X34168452Y17947739D01*
X34228928Y17857024D01*
X34289404Y17796548D01*
X34349880Y17766310D01*
G04 #@! TD*
M02*
