G04 #@! TF.GenerationSoftware,KiCad,Pcbnew,(5.0.1-3-g963ef8bb5)*
G04 #@! TF.CreationDate,2019-03-19T16:07:13-04:00*
G04 #@! TF.ProjectId,Tympan_AIC_Shield,54796D70616E5F4149435F536869656C,rev?*
G04 #@! TF.SameCoordinates,PX6d878d0PY5279480*
G04 #@! TF.FileFunction,Copper,L3,Inr,Mixed*
G04 #@! TF.FilePolarity,Positive*
%FSLAX46Y46*%
G04 Gerber Fmt 4.6, Leading zero omitted, Abs format (unit mm)*
G04 Created by KiCad (PCBNEW (5.0.1-3-g963ef8bb5)) date Tuesday, March 19, 2019 at 04:07:13 PM*
%MOMM*%
%LPD*%
G01*
G04 APERTURE LIST*
G04 #@! TA.AperFunction,ViaPad*
%ADD10R,1.700000X1.700000*%
G04 #@! TD*
G04 #@! TA.AperFunction,ViaPad*
%ADD11O,1.700000X1.700000*%
G04 #@! TD*
G04 #@! TA.AperFunction,ViaPad*
%ADD12C,0.600000*%
G04 #@! TD*
G04 #@! TA.AperFunction,Conductor*
%ADD13C,0.203200*%
G04 #@! TD*
G04 #@! TA.AperFunction,Conductor*
%ADD14C,0.177800*%
G04 #@! TD*
G04 #@! TA.AperFunction,Conductor*
%ADD15C,0.254000*%
G04 #@! TD*
G04 APERTURE END LIST*
D10*
G04 #@! TO.N,+3V3*
G04 #@! TO.C,P3*
X36200000Y14700000D03*
D11*
G04 #@! TO.N,/DOUT_1*
X36200000Y12160000D03*
G04 #@! TO.N,/DIN_1*
X36200000Y9620000D03*
G04 #@! TO.N,/SDA2*
X36200000Y7080000D03*
G04 #@! TO.N,/SCL2*
X36200000Y4540000D03*
G04 #@! TO.N,GND*
X36200000Y2000000D03*
G04 #@! TD*
D10*
G04 #@! TO.N,/M_BIAS_1*
G04 #@! TO.C,P4*
X4400000Y14700000D03*
D11*
G04 #@! TO.N,/MCLK*
X4400000Y12160000D03*
G04 #@! TO.N,/BCLK*
X4400000Y9620000D03*
G04 #@! TO.N,/WCLK*
X4400000Y7080000D03*
G04 #@! TO.N,/nRESET_1*
X4400000Y4540000D03*
G04 #@! TO.N,GND*
X4400000Y2000000D03*
G04 #@! TD*
D10*
G04 #@! TO.N,+1V8*
G04 #@! TO.C,P5*
X7050000Y14700000D03*
D11*
G04 #@! TO.N,Net-(C23-Pad2)*
X7050000Y12160000D03*
G04 #@! TO.N,Net-(C24-Pad2)*
X7050000Y9620000D03*
G04 #@! TO.N,Net-(C25-Pad2)*
X7050000Y7080000D03*
G04 #@! TO.N,Net-(C26-Pad2)*
X7050000Y4540000D03*
G04 #@! TO.N,GND*
X7050000Y2000000D03*
G04 #@! TD*
D10*
G04 #@! TO.N,/PDM_DAT*
G04 #@! TO.C,P2*
X33550000Y14690000D03*
D11*
G04 #@! TO.N,/PDM_CLK*
X33550000Y12150000D03*
G04 #@! TO.N,/MISO_2*
X33550000Y9610000D03*
G04 #@! TO.N,/MOSI_2*
X33550000Y7070000D03*
G04 #@! TO.N,/SCK_2*
X33550000Y4530000D03*
G04 #@! TO.N,/SS_2*
X33550000Y1990000D03*
G04 #@! TD*
G04 #@! TO.N,GND*
G04 #@! TO.C,P1*
X1750000Y2000000D03*
G04 #@! TO.N,/LOR*
X1750000Y4540000D03*
G04 #@! TO.N,/LOL*
X1750000Y7080000D03*
G04 #@! TO.N,/IN1_L*
X1750000Y9620000D03*
G04 #@! TO.N,/IN1_R*
X1750000Y12160000D03*
D10*
G04 #@! TO.N,+1V8*
X1750000Y14700000D03*
G04 #@! TD*
D11*
G04 #@! TO.N,GND*
G04 #@! TO.C,P6*
X30900000Y1990000D03*
G04 #@! TO.N,/PDM_CLK1*
X30900000Y4530000D03*
G04 #@! TO.N,/PDM_DAT1*
X30900000Y7070000D03*
G04 #@! TO.N,/IN2_R_1*
X30900000Y9610000D03*
G04 #@! TO.N,/IN2_L_1*
X30900000Y12150000D03*
D10*
G04 #@! TO.N,+3V3*
X30900000Y14690000D03*
G04 #@! TD*
D12*
G04 #@! TO.N,GND*
X17000000Y15400000D03*
X36750000Y23600000D03*
X32250000Y22350000D03*
X1100000Y21050000D03*
X5600000Y22300000D03*
X19294600Y12383000D03*
X17394600Y12383000D03*
X24766379Y35718390D03*
X21550000Y17150000D03*
X20600000Y15200008D03*
X17394600Y10456090D03*
X19294600Y10456090D03*
G04 #@! TO.N,+3V3*
X36600000Y17700000D03*
X4400000Y17900000D03*
X24550000Y19299998D03*
X13343903Y16450000D03*
X23150000Y7500000D03*
X23350000Y2499998D03*
G04 #@! TO.N,+1V8*
X16100000Y16600000D03*
X13600000Y14500000D03*
X15200042Y7300000D03*
G04 #@! TO.N,Net-(C17-Pad2)*
X36500000Y20100000D03*
G04 #@! TO.N,Net-(C19-Pad2)*
X1300000Y19800000D03*
G04 #@! TO.N,Net-(J1-Pad3)*
X19500000Y31600000D03*
X31275000Y35000000D03*
G04 #@! TO.N,/MICDET*
X9400000Y22000000D03*
X12775003Y12500003D03*
G04 #@! TO.N,/BCLK*
X18175000Y5650000D03*
G04 #@! TO.N,/MCLK*
X17125000Y5650000D03*
G04 #@! TO.N,/WCLK*
X19075000Y5575000D03*
G04 #@! TO.N,/HPL*
X15050000Y14250000D03*
X15200000Y24500000D03*
G04 #@! TO.N,/HPR*
X14275000Y12700000D03*
X14275000Y25800000D03*
G04 #@! TO.N,Net-(R16-Pad2)*
X15900000Y18925000D03*
X21400000Y18300000D03*
G04 #@! TO.N,Net-(C12-Pad2)*
X6700000Y26800000D03*
X20175000Y22150000D03*
G04 #@! TO.N,Net-(C13-Pad2)*
X12200000Y33500000D03*
X11200000Y22100000D03*
G04 #@! TO.N,/nRESET_1*
X15950000Y3775000D03*
G04 #@! TO.N,/DIN_1*
X19975000Y5600000D03*
X22125000Y8350000D03*
G04 #@! TO.N,/DOUT_1*
X20925000Y5650000D03*
X24500000Y12200000D03*
G04 #@! TO.N,/SDA2*
X25350000Y5325000D03*
X25100000Y11424998D03*
G04 #@! TO.N,/SCL2*
X24376979Y4015460D03*
X24225000Y10425000D03*
G04 #@! TO.N,/M_BIAS_1*
X10450000Y13425000D03*
X24550000Y14875004D03*
G04 #@! TO.N,/IN2_L_1*
X28425002Y19775000D03*
X26700000Y13450000D03*
G04 #@! TO.N,/IN2_R_1*
X5400000Y19850000D03*
X21300000Y21400000D03*
X20850000Y14225000D03*
X21450000Y9100000D03*
G04 #@! TO.N,/IN1_R_1*
X10500000Y11300000D03*
X22125000Y12750000D03*
G04 #@! TO.N,/IN1_L_1*
X10550000Y10500000D03*
X23075000Y12749998D03*
G04 #@! TO.N,/LOL_1*
X17100000Y17550000D03*
X11875000Y17575000D03*
X11850000Y7150000D03*
G04 #@! TO.N,/LOR_1*
X17250000Y16500000D03*
X11275000Y15875000D03*
X11300000Y4500000D03*
G04 #@! TO.N,/PDM_CLK1*
X23775000Y8975000D03*
X25500000Y4100000D03*
G04 #@! TO.N,/PDM_DAT1*
X23150000Y11950000D03*
X25100000Y7125000D03*
G04 #@! TD*
D13*
G04 #@! TO.N,Net-(J1-Pad3)*
X31250000Y34975000D02*
X31275000Y35000000D01*
X31275000Y37275000D02*
X31275000Y35000000D01*
X23725000Y39225000D02*
X29325000Y39225000D01*
X19500000Y35000000D02*
X23725000Y39225000D01*
X29325000Y39225000D02*
X31275000Y37275000D01*
X19500000Y31600000D02*
X19500000Y35000000D01*
G04 #@! TO.N,/BCLK*
X5700000Y8350000D02*
X4430000Y9620000D01*
X4430000Y9620000D02*
X4400000Y9620000D01*
X15975000Y5825000D02*
X10375000Y5825000D01*
X10375000Y5825000D02*
X7850000Y8350000D01*
X18175000Y5650000D02*
X17475000Y4950000D01*
X16850000Y4950000D02*
X15975000Y5825000D01*
X17475000Y4950000D02*
X16850000Y4950000D01*
X7850000Y8350000D02*
X5700000Y8350000D01*
G04 #@! TO.N,/MCLK*
X5950000Y10850000D02*
X4640000Y12160000D01*
X16236086Y6538914D02*
X10661086Y6538914D01*
X17125000Y5650000D02*
X16236086Y6538914D01*
X7900000Y10850000D02*
X5950000Y10850000D01*
X8450000Y8750000D02*
X8450000Y10300000D01*
X8450000Y10300000D02*
X7900000Y10850000D01*
X10661086Y6538914D02*
X8450000Y8750000D01*
X4640000Y12160000D02*
X4400000Y12160000D01*
G04 #@! TO.N,/WCLK*
X5680000Y5800000D02*
X4400000Y7080000D01*
X16079787Y5149999D02*
X8500001Y5149999D01*
X8500001Y5149999D02*
X7850000Y5800000D01*
X7850000Y5800000D02*
X5680000Y5800000D01*
X18025000Y4525000D02*
X16704786Y4525000D01*
X19075000Y5575000D02*
X18025000Y4525000D01*
X16704786Y4525000D02*
X16079787Y5149999D01*
D14*
G04 #@! TO.N,Net-(R16-Pad2)*
X20975736Y18300000D02*
X21400000Y18300000D01*
X16525000Y18300000D02*
X20975736Y18300000D01*
X15900000Y18925000D02*
X16525000Y18300000D01*
D13*
G04 #@! TO.N,Net-(C12-Pad2)*
X6700000Y26800000D02*
X15525000Y26800000D01*
X15525000Y26800000D02*
X19875001Y22449999D01*
X19875001Y22449999D02*
X20175000Y22150000D01*
G04 #@! TO.N,/nRESET_1*
X5665000Y3275000D02*
X4400000Y4540000D01*
X15450000Y3275000D02*
X5665000Y3275000D01*
X15950000Y3775000D02*
X15450000Y3275000D01*
G04 #@! TO.N,/M_BIAS_1*
X10450000Y13425000D02*
X23099996Y13425000D01*
X24250001Y14575005D02*
X24550000Y14875004D01*
X23099996Y13425000D02*
X24250001Y14575005D01*
G04 #@! TO.N,/IN2_L_1*
X26700000Y13450000D02*
X28000000Y12150000D01*
X28000000Y12150000D02*
X30900000Y12150000D01*
G04 #@! TO.N,/IN2_R_1*
X6950000Y21400000D02*
X21300000Y21400000D01*
X5400000Y19850000D02*
X6950000Y21400000D01*
X21960000Y9610000D02*
X30900000Y9610000D01*
X21450000Y9100000D02*
X21960000Y9610000D01*
D14*
G04 #@! TO.N,/IN1_R_1*
X10500000Y11300000D02*
X10850000Y11650000D01*
X10850000Y11650000D02*
X21025000Y11650000D01*
X21825001Y12450001D02*
X22125000Y12750000D01*
X21025000Y11650000D02*
X21825001Y12450001D01*
D13*
G04 #@! TO.N,/IN1_L_1*
X11329489Y11279489D02*
X21604491Y11279489D01*
X10550000Y10500000D02*
X11329489Y11279489D01*
X21604491Y11279489D02*
X22775001Y12449999D01*
X22775001Y12449999D02*
X23075000Y12749998D01*
D14*
G04 #@! TO.N,/LOL_1*
X17100000Y17550000D02*
X17075000Y17525000D01*
X11900000Y17550000D02*
X11875000Y17575000D01*
X17100000Y17550000D02*
X11900000Y17550000D01*
G04 #@! TO.N,/LOR_1*
X17250000Y16500000D02*
X17225000Y16525000D01*
X17250000Y16500000D02*
X16625000Y15875000D01*
X16625000Y15875000D02*
X11699264Y15875000D01*
X11699264Y15875000D02*
X11275000Y15875000D01*
D13*
G04 #@! TO.N,/PDM_CLK1*
X30470000Y4100000D02*
X30900000Y4530000D01*
X25500000Y4100000D02*
X30470000Y4100000D01*
G04 #@! TO.N,/PDM_DAT1*
X30845000Y7125000D02*
X30900000Y7070000D01*
X25100000Y7125000D02*
X30845000Y7125000D01*
G04 #@! TD*
D15*
G04 #@! TO.N,GND*
G36*
X22873000Y39055499D02*
X19192362Y35374860D01*
X19152066Y35347935D01*
X19108438Y35282641D01*
X19045402Y35188301D01*
X19007946Y35000000D01*
X19017401Y34952467D01*
X19017400Y32080480D01*
X18922676Y31985756D01*
X18819000Y31735459D01*
X18819000Y31464541D01*
X18922676Y31214244D01*
X19114244Y31022676D01*
X19364541Y30919000D01*
X19635459Y30919000D01*
X19885756Y31022676D01*
X20077324Y31214244D01*
X20181000Y31464541D01*
X20181000Y31735459D01*
X20077324Y31985756D01*
X19982600Y32080480D01*
X19982600Y34800102D01*
X22873000Y37690501D01*
X22873000Y16579826D01*
X20349700Y16573875D01*
X20301123Y16564093D01*
X20259986Y16536466D01*
X20232553Y16495199D01*
X20223000Y16446875D01*
X20223000Y16300000D01*
X20232667Y16251399D01*
X20260197Y16210197D01*
X20301399Y16182667D01*
X20350000Y16173000D01*
X23175000Y16173000D01*
X23223601Y16182667D01*
X23264803Y16210197D01*
X23292333Y16251399D01*
X23302000Y16300000D01*
X23302000Y19435457D01*
X23869000Y19435457D01*
X23869000Y19164539D01*
X23972676Y18914242D01*
X24164244Y18722674D01*
X24414541Y18618998D01*
X24685459Y18618998D01*
X24935756Y18722674D01*
X25127324Y18914242D01*
X25231000Y19164539D01*
X25231000Y19435457D01*
X25127324Y19685754D01*
X24935756Y19877322D01*
X24685459Y19980998D01*
X24414541Y19980998D01*
X24164244Y19877322D01*
X23972676Y19685754D01*
X23869000Y19435457D01*
X23302000Y19435457D01*
X23302000Y38119501D01*
X23924899Y38742400D01*
X27873000Y38742400D01*
X27873000Y20186078D01*
X27847678Y20160756D01*
X27744002Y19910459D01*
X27744002Y19639541D01*
X27847678Y19389244D01*
X27873000Y19363922D01*
X27873000Y17565502D01*
X24915137Y15460869D01*
X24685459Y15556004D01*
X24414541Y15556004D01*
X24164244Y15452328D01*
X23972676Y15260760D01*
X23869000Y15010463D01*
X23869000Y14876504D01*
X23844496Y14852000D01*
X21115827Y14852000D01*
X20985459Y14906000D01*
X20714541Y14906000D01*
X20584173Y14852000D01*
X20350000Y14852000D01*
X20301399Y14842333D01*
X20260197Y14814803D01*
X20232667Y14773601D01*
X20223000Y14725000D01*
X20223000Y14550000D01*
X20230951Y14510024D01*
X20169000Y14360459D01*
X20169000Y14089541D01*
X20244362Y13907600D01*
X15645283Y13907600D01*
X15731000Y14114541D01*
X15731000Y14385459D01*
X15627324Y14635756D01*
X15435756Y14827324D01*
X15185459Y14931000D01*
X14914541Y14931000D01*
X14664244Y14827324D01*
X14472676Y14635756D01*
X14369000Y14385459D01*
X14369000Y14114541D01*
X14454717Y13907600D01*
X13949359Y13907600D01*
X13985756Y13922676D01*
X14177324Y14114244D01*
X14281000Y14364541D01*
X14281000Y14635459D01*
X14177324Y14885756D01*
X13985756Y15077324D01*
X13735459Y15181000D01*
X13464541Y15181000D01*
X13214244Y15077324D01*
X13022676Y14885756D01*
X12919000Y14635459D01*
X12919000Y14364541D01*
X13022676Y14114244D01*
X13214244Y13922676D01*
X13250641Y13907600D01*
X10930480Y13907600D01*
X10835756Y14002324D01*
X10585459Y14106000D01*
X10314541Y14106000D01*
X10064244Y14002324D01*
X9872676Y13810756D01*
X9769000Y13560459D01*
X9769000Y13289541D01*
X9872676Y13039244D01*
X10064244Y12847676D01*
X10314541Y12744000D01*
X10585459Y12744000D01*
X10835756Y12847676D01*
X10930480Y12942400D01*
X12254320Y12942400D01*
X12197679Y12885759D01*
X12094003Y12635462D01*
X12094003Y12364544D01*
X12195337Y12119900D01*
X10896272Y12119900D01*
X10850000Y12129104D01*
X10803728Y12119900D01*
X10803724Y12119900D01*
X10666654Y12092635D01*
X10511222Y11988778D01*
X10506025Y11981000D01*
X10364541Y11981000D01*
X10114244Y11877324D01*
X9922676Y11685756D01*
X9819000Y11435459D01*
X9819000Y11164541D01*
X9922676Y10914244D01*
X9966375Y10870545D01*
X9869000Y10635459D01*
X9869000Y10364541D01*
X9972676Y10114244D01*
X10164244Y9922676D01*
X10414541Y9819000D01*
X10685459Y9819000D01*
X10935756Y9922676D01*
X11127324Y10114244D01*
X11231000Y10364541D01*
X11231000Y10498502D01*
X11529388Y10796889D01*
X21556963Y10796889D01*
X21604491Y10787435D01*
X21652019Y10796889D01*
X21652020Y10796889D01*
X21792792Y10824890D01*
X21952426Y10931554D01*
X21979353Y10971853D01*
X22572403Y11564903D01*
X22572676Y11564244D01*
X22764244Y11372676D01*
X23014541Y11269000D01*
X23285459Y11269000D01*
X23535756Y11372676D01*
X23727324Y11564244D01*
X23831000Y11814541D01*
X23831000Y12035570D01*
X23922676Y11814244D01*
X24114244Y11622676D01*
X24364541Y11519000D01*
X24419000Y11519000D01*
X24419000Y11289539D01*
X24522676Y11039242D01*
X24523417Y11038501D01*
X24360459Y11106000D01*
X24089541Y11106000D01*
X23839244Y11002324D01*
X23647676Y10810756D01*
X23544000Y10560459D01*
X23544000Y10289541D01*
X23625575Y10092600D01*
X22007529Y10092600D01*
X21960000Y10102054D01*
X21771698Y10064599D01*
X21721319Y10030936D01*
X21612065Y9957935D01*
X21585140Y9917639D01*
X21448501Y9781000D01*
X21314541Y9781000D01*
X21064244Y9677324D01*
X20872676Y9485756D01*
X20769000Y9235459D01*
X20769000Y8964541D01*
X20872676Y8714244D01*
X21064244Y8522676D01*
X21314541Y8419000D01*
X21444000Y8419000D01*
X21444000Y8214541D01*
X21547676Y7964244D01*
X21739244Y7772676D01*
X21989541Y7669000D01*
X22260459Y7669000D01*
X22510756Y7772676D01*
X22536501Y7798421D01*
X22469000Y7635459D01*
X22469000Y7364541D01*
X22572676Y7114244D01*
X22764244Y6922676D01*
X23014541Y6819000D01*
X23285459Y6819000D01*
X23535756Y6922676D01*
X23727324Y7114244D01*
X23787887Y7260459D01*
X24419000Y7260459D01*
X24419000Y6989541D01*
X24522676Y6739244D01*
X24714244Y6547676D01*
X24964541Y6444000D01*
X25235459Y6444000D01*
X25485756Y6547676D01*
X25580480Y6642400D01*
X29729939Y6642400D01*
X29740424Y6589688D01*
X30012499Y6182499D01*
X30419688Y5910424D01*
X30778761Y5839000D01*
X31021239Y5839000D01*
X31380312Y5910424D01*
X31787501Y6182499D01*
X32059576Y6589688D01*
X32155116Y7070000D01*
X32294884Y7070000D01*
X32390424Y6589688D01*
X32662499Y6182499D01*
X33069688Y5910424D01*
X33428761Y5839000D01*
X33671239Y5839000D01*
X34030312Y5910424D01*
X34437501Y6182499D01*
X34709576Y6589688D01*
X34805116Y7070000D01*
X34803127Y7080000D01*
X34944884Y7080000D01*
X35040424Y6599688D01*
X35312499Y6192499D01*
X35719688Y5920424D01*
X36078761Y5849000D01*
X36321239Y5849000D01*
X36680312Y5920424D01*
X37087501Y6192499D01*
X37359576Y6599688D01*
X37455116Y7080000D01*
X37359576Y7560312D01*
X37087501Y7967501D01*
X36680312Y8239576D01*
X36321239Y8311000D01*
X36078761Y8311000D01*
X35719688Y8239576D01*
X35312499Y7967501D01*
X35040424Y7560312D01*
X34944884Y7080000D01*
X34803127Y7080000D01*
X34709576Y7550312D01*
X34437501Y7957501D01*
X34030312Y8229576D01*
X33671239Y8301000D01*
X33428761Y8301000D01*
X33069688Y8229576D01*
X32662499Y7957501D01*
X32390424Y7550312D01*
X32294884Y7070000D01*
X32155116Y7070000D01*
X32059576Y7550312D01*
X31787501Y7957501D01*
X31380312Y8229576D01*
X31021239Y8301000D01*
X30778761Y8301000D01*
X30419688Y8229576D01*
X30012499Y7957501D01*
X29778703Y7607600D01*
X25580480Y7607600D01*
X25485756Y7702324D01*
X25235459Y7806000D01*
X24964541Y7806000D01*
X24714244Y7702324D01*
X24522676Y7510756D01*
X24419000Y7260459D01*
X23787887Y7260459D01*
X23831000Y7364541D01*
X23831000Y7635459D01*
X23727324Y7885756D01*
X23535756Y8077324D01*
X23285459Y8181000D01*
X23014541Y8181000D01*
X22764244Y8077324D01*
X22738499Y8051579D01*
X22806000Y8214541D01*
X22806000Y8485459D01*
X22702324Y8735756D01*
X22510756Y8927324D01*
X22260459Y9031000D01*
X22131000Y9031000D01*
X22131000Y9098501D01*
X22159899Y9127400D01*
X23101017Y9127400D01*
X23094000Y9110459D01*
X23094000Y8839541D01*
X23197676Y8589244D01*
X23389244Y8397676D01*
X23639541Y8294000D01*
X23910459Y8294000D01*
X24160756Y8397676D01*
X24352324Y8589244D01*
X24456000Y8839541D01*
X24456000Y9110459D01*
X24448983Y9127400D01*
X29741953Y9127400D01*
X30012499Y8722499D01*
X30419688Y8450424D01*
X30778761Y8379000D01*
X31021239Y8379000D01*
X31380312Y8450424D01*
X31787501Y8722499D01*
X32059576Y9129688D01*
X32155116Y9610000D01*
X32294884Y9610000D01*
X32390424Y9129688D01*
X32662499Y8722499D01*
X33069688Y8450424D01*
X33428761Y8379000D01*
X33671239Y8379000D01*
X34030312Y8450424D01*
X34437501Y8722499D01*
X34709576Y9129688D01*
X34805116Y9610000D01*
X34803127Y9620000D01*
X34944884Y9620000D01*
X35040424Y9139688D01*
X35312499Y8732499D01*
X35719688Y8460424D01*
X36078761Y8389000D01*
X36321239Y8389000D01*
X36680312Y8460424D01*
X37087501Y8732499D01*
X37359576Y9139688D01*
X37455116Y9620000D01*
X37359576Y10100312D01*
X37087501Y10507501D01*
X36680312Y10779576D01*
X36321239Y10851000D01*
X36078761Y10851000D01*
X35719688Y10779576D01*
X35312499Y10507501D01*
X35040424Y10100312D01*
X34944884Y9620000D01*
X34803127Y9620000D01*
X34709576Y10090312D01*
X34437501Y10497501D01*
X34030312Y10769576D01*
X33671239Y10841000D01*
X33428761Y10841000D01*
X33069688Y10769576D01*
X32662499Y10497501D01*
X32390424Y10090312D01*
X32294884Y9610000D01*
X32155116Y9610000D01*
X32059576Y10090312D01*
X31787501Y10497501D01*
X31380312Y10769576D01*
X31021239Y10841000D01*
X30778761Y10841000D01*
X30419688Y10769576D01*
X30012499Y10497501D01*
X29741953Y10092600D01*
X24824425Y10092600D01*
X24906000Y10289541D01*
X24906000Y10560459D01*
X24802324Y10810756D01*
X24801583Y10811497D01*
X24964541Y10743998D01*
X25235459Y10743998D01*
X25485756Y10847674D01*
X25677324Y11039242D01*
X25781000Y11289539D01*
X25781000Y11560457D01*
X25677324Y11810754D01*
X25485756Y12002322D01*
X25235459Y12105998D01*
X25181000Y12105998D01*
X25181000Y12335459D01*
X25077324Y12585756D01*
X24885756Y12777324D01*
X24635459Y12881000D01*
X24364541Y12881000D01*
X24114244Y12777324D01*
X23922676Y12585756D01*
X23819000Y12335459D01*
X23819000Y12114430D01*
X23727324Y12335756D01*
X23665948Y12397132D01*
X23756000Y12614539D01*
X23756000Y12885457D01*
X23652324Y13135754D01*
X23572786Y13215292D01*
X23942953Y13585459D01*
X26019000Y13585459D01*
X26019000Y13314541D01*
X26122676Y13064244D01*
X26314244Y12872676D01*
X26564541Y12769000D01*
X26698501Y12769000D01*
X27625142Y11842358D01*
X27652065Y11802065D01*
X27692358Y11775142D01*
X27811699Y11695401D01*
X28000000Y11657946D01*
X28047529Y11667400D01*
X29741953Y11667400D01*
X30012499Y11262499D01*
X30419688Y10990424D01*
X30778761Y10919000D01*
X31021239Y10919000D01*
X31380312Y10990424D01*
X31787501Y11262499D01*
X32059576Y11669688D01*
X32155116Y12150000D01*
X32294884Y12150000D01*
X32390424Y11669688D01*
X32662499Y11262499D01*
X33069688Y10990424D01*
X33428761Y10919000D01*
X33671239Y10919000D01*
X34030312Y10990424D01*
X34437501Y11262499D01*
X34709576Y11669688D01*
X34805116Y12150000D01*
X34803127Y12160000D01*
X34944884Y12160000D01*
X35040424Y11679688D01*
X35312499Y11272499D01*
X35719688Y11000424D01*
X36078761Y10929000D01*
X36321239Y10929000D01*
X36680312Y11000424D01*
X37087501Y11272499D01*
X37359576Y11679688D01*
X37455116Y12160000D01*
X37359576Y12640312D01*
X37087501Y13047501D01*
X36680312Y13319576D01*
X36321239Y13391000D01*
X36078761Y13391000D01*
X35719688Y13319576D01*
X35312499Y13047501D01*
X35040424Y12640312D01*
X34944884Y12160000D01*
X34803127Y12160000D01*
X34709576Y12630312D01*
X34437501Y13037501D01*
X34030312Y13309576D01*
X33671239Y13381000D01*
X33428761Y13381000D01*
X33069688Y13309576D01*
X32662499Y13037501D01*
X32390424Y12630312D01*
X32294884Y12150000D01*
X32155116Y12150000D01*
X32059576Y12630312D01*
X31787501Y13037501D01*
X31380312Y13309576D01*
X31021239Y13381000D01*
X30778761Y13381000D01*
X30419688Y13309576D01*
X30012499Y13037501D01*
X29741953Y12632600D01*
X28199900Y12632600D01*
X27381000Y13451499D01*
X27381000Y13585459D01*
X27277324Y13835756D01*
X27085756Y14027324D01*
X26835459Y14131000D01*
X26564541Y14131000D01*
X26314244Y14027324D01*
X26122676Y13835756D01*
X26019000Y13585459D01*
X23942953Y13585459D01*
X24551500Y14194004D01*
X24685459Y14194004D01*
X24935756Y14297680D01*
X25127324Y14489248D01*
X25231000Y14739545D01*
X25231000Y15010463D01*
X25202349Y15079634D01*
X25841305Y15540000D01*
X29661536Y15540000D01*
X29661536Y13840000D01*
X29691106Y13691341D01*
X29775314Y13565314D01*
X29901341Y13481106D01*
X30050000Y13451536D01*
X31750000Y13451536D01*
X31898659Y13481106D01*
X32024686Y13565314D01*
X32108894Y13691341D01*
X32138464Y13840000D01*
X32138464Y15540000D01*
X32311536Y15540000D01*
X32311536Y13840000D01*
X32341106Y13691341D01*
X32425314Y13565314D01*
X32551341Y13481106D01*
X32700000Y13451536D01*
X34400000Y13451536D01*
X34548659Y13481106D01*
X34674686Y13565314D01*
X34758894Y13691341D01*
X34788464Y13840000D01*
X34788464Y15540000D01*
X34786475Y15550000D01*
X34961536Y15550000D01*
X34961536Y13850000D01*
X34991106Y13701341D01*
X35075314Y13575314D01*
X35201341Y13491106D01*
X35350000Y13461536D01*
X37050000Y13461536D01*
X37198659Y13491106D01*
X37324686Y13575314D01*
X37408894Y13701341D01*
X37438464Y13850000D01*
X37438464Y15550000D01*
X37408894Y15698659D01*
X37324686Y15824686D01*
X37198659Y15908894D01*
X37050000Y15938464D01*
X35350000Y15938464D01*
X35201341Y15908894D01*
X35075314Y15824686D01*
X34991106Y15698659D01*
X34961536Y15550000D01*
X34786475Y15550000D01*
X34758894Y15688659D01*
X34674686Y15814686D01*
X34548659Y15898894D01*
X34400000Y15928464D01*
X32700000Y15928464D01*
X32551341Y15898894D01*
X32425314Y15814686D01*
X32341106Y15688659D01*
X32311536Y15540000D01*
X32138464Y15540000D01*
X32108894Y15688659D01*
X32024686Y15814686D01*
X31898659Y15898894D01*
X31750000Y15928464D01*
X30050000Y15928464D01*
X29901341Y15898894D01*
X29775314Y15814686D01*
X29691106Y15688659D01*
X29661536Y15540000D01*
X25841305Y15540000D01*
X28349240Y17346959D01*
X28383021Y17383213D01*
X28402000Y17450000D01*
X28402000Y17835459D01*
X35919000Y17835459D01*
X35919000Y17564541D01*
X36022676Y17314244D01*
X36214244Y17122676D01*
X36464541Y17019000D01*
X36735459Y17019000D01*
X36985756Y17122676D01*
X37177324Y17314244D01*
X37281000Y17564541D01*
X37281000Y17835459D01*
X37177324Y18085756D01*
X36985756Y18277324D01*
X36735459Y18381000D01*
X36464541Y18381000D01*
X36214244Y18277324D01*
X36022676Y18085756D01*
X35919000Y17835459D01*
X28402000Y17835459D01*
X28402000Y19094000D01*
X28560461Y19094000D01*
X28810758Y19197676D01*
X29002326Y19389244D01*
X29106002Y19639541D01*
X29106002Y19910459D01*
X29002326Y20160756D01*
X28927623Y20235459D01*
X35819000Y20235459D01*
X35819000Y19964541D01*
X35922676Y19714244D01*
X36114244Y19522676D01*
X36364541Y19419000D01*
X36635459Y19419000D01*
X36885756Y19522676D01*
X37077324Y19714244D01*
X37181000Y19964541D01*
X37181000Y20235459D01*
X37077324Y20485756D01*
X36885756Y20677324D01*
X36635459Y20781000D01*
X36364541Y20781000D01*
X36114244Y20677324D01*
X35922676Y20485756D01*
X35819000Y20235459D01*
X28927623Y20235459D01*
X28810758Y20352324D01*
X28560461Y20456000D01*
X28402000Y20456000D01*
X28402000Y21655351D01*
X34219000Y21655351D01*
X34219000Y21344649D01*
X34337900Y21057599D01*
X34557599Y20837900D01*
X34844649Y20719000D01*
X35155351Y20719000D01*
X35442401Y20837900D01*
X35662100Y21057599D01*
X35781000Y21344649D01*
X35781000Y21655351D01*
X35662100Y21942401D01*
X35442401Y22162100D01*
X35155351Y22281000D01*
X34844649Y22281000D01*
X34557599Y22162100D01*
X34337900Y21942401D01*
X34219000Y21655351D01*
X28402000Y21655351D01*
X28402000Y28857102D01*
X28702694Y28556408D01*
X29155139Y28369000D01*
X29644861Y28369000D01*
X30097306Y28556408D01*
X30443592Y28902694D01*
X30631000Y29355139D01*
X30631000Y29844861D01*
X30443592Y30297306D01*
X30097306Y30643592D01*
X29644861Y30831000D01*
X29155139Y30831000D01*
X28702694Y30643592D01*
X28402000Y30342898D01*
X28402000Y35857102D01*
X28702694Y35556408D01*
X29155139Y35369000D01*
X29644861Y35369000D01*
X30097306Y35556408D01*
X30443592Y35902694D01*
X30631000Y36355139D01*
X30631000Y36844861D01*
X30443592Y37297306D01*
X30097306Y37643592D01*
X29644861Y37831000D01*
X29155139Y37831000D01*
X28702694Y37643592D01*
X28402000Y37342898D01*
X28402000Y38742400D01*
X29125102Y38742400D01*
X30792400Y37075101D01*
X30792401Y35480481D01*
X30697676Y35385756D01*
X30594000Y35135459D01*
X30594000Y34864541D01*
X30697676Y34614244D01*
X30889244Y34422676D01*
X31139541Y34319000D01*
X31410459Y34319000D01*
X31660756Y34422676D01*
X31852324Y34614244D01*
X31956000Y34864541D01*
X31956000Y35135459D01*
X31852324Y35385756D01*
X31757600Y35480480D01*
X31757600Y37227473D01*
X31767054Y37275001D01*
X31757600Y37322529D01*
X31729599Y37463301D01*
X31622935Y37622935D01*
X31582640Y37649859D01*
X29699862Y39532636D01*
X29692269Y39544000D01*
X36099630Y39544000D01*
X36104960Y39541389D01*
X36178489Y39524346D01*
X36621546Y39457736D01*
X36960246Y39295094D01*
X37236147Y39040054D01*
X37424860Y38715161D01*
X37515761Y38322987D01*
X37519371Y38231115D01*
X37544001Y38102001D01*
X37544000Y1900370D01*
X37541389Y1895040D01*
X37524346Y1821511D01*
X37457736Y1378454D01*
X37295094Y1039754D01*
X37040054Y763853D01*
X36715162Y575141D01*
X36322983Y484239D01*
X36231115Y480629D01*
X36102007Y456000D01*
X1900370Y456000D01*
X1895040Y458611D01*
X1821511Y475654D01*
X1378454Y542264D01*
X1039754Y704906D01*
X763853Y959946D01*
X575141Y1284838D01*
X484239Y1677017D01*
X484004Y1683020D01*
X560511Y1683020D01*
X684755Y1383036D01*
X1001944Y1022348D01*
X1433018Y810499D01*
X1623000Y870807D01*
X1623000Y1873000D01*
X1877000Y1873000D01*
X1877000Y870807D01*
X2066982Y810499D01*
X2498056Y1022348D01*
X2815245Y1383036D01*
X2939489Y1683020D01*
X3210511Y1683020D01*
X3334755Y1383036D01*
X3651944Y1022348D01*
X4083018Y810499D01*
X4273000Y870807D01*
X4273000Y1873000D01*
X4527000Y1873000D01*
X4527000Y870807D01*
X4716982Y810499D01*
X5148056Y1022348D01*
X5465245Y1383036D01*
X5589489Y1683020D01*
X5860511Y1683020D01*
X5984755Y1383036D01*
X6301944Y1022348D01*
X6733018Y810499D01*
X6923000Y870807D01*
X6923000Y1873000D01*
X7177000Y1873000D01*
X7177000Y870807D01*
X7366982Y810499D01*
X7798056Y1022348D01*
X8115245Y1383036D01*
X8235347Y1673020D01*
X29710511Y1673020D01*
X29834755Y1373036D01*
X30151944Y1012348D01*
X30583018Y800499D01*
X30773000Y860807D01*
X30773000Y1863000D01*
X31027000Y1863000D01*
X31027000Y860807D01*
X31216982Y800499D01*
X31648056Y1012348D01*
X31965245Y1373036D01*
X32089489Y1673020D01*
X32028627Y1863000D01*
X31027000Y1863000D01*
X30773000Y1863000D01*
X29771373Y1863000D01*
X29710511Y1673020D01*
X8235347Y1673020D01*
X8239489Y1683020D01*
X8178627Y1873000D01*
X7177000Y1873000D01*
X6923000Y1873000D01*
X5921373Y1873000D01*
X5860511Y1683020D01*
X5589489Y1683020D01*
X5528627Y1873000D01*
X4527000Y1873000D01*
X4273000Y1873000D01*
X3271373Y1873000D01*
X3210511Y1683020D01*
X2939489Y1683020D01*
X2878627Y1873000D01*
X1877000Y1873000D01*
X1623000Y1873000D01*
X621373Y1873000D01*
X560511Y1683020D01*
X484004Y1683020D01*
X480629Y1768885D01*
X456000Y1897993D01*
X456000Y2316980D01*
X560511Y2316980D01*
X621373Y2127000D01*
X1623000Y2127000D01*
X1623000Y3129193D01*
X1877000Y3129193D01*
X1877000Y2127000D01*
X2878627Y2127000D01*
X2939489Y2316980D01*
X3210511Y2316980D01*
X3271373Y2127000D01*
X4273000Y2127000D01*
X4273000Y3129193D01*
X4527000Y3129193D01*
X4527000Y2127000D01*
X5528627Y2127000D01*
X5589489Y2316980D01*
X5465245Y2616964D01*
X5148056Y2977652D01*
X4716982Y3189501D01*
X4527000Y3129193D01*
X4273000Y3129193D01*
X4083018Y3189501D01*
X3651944Y2977652D01*
X3334755Y2616964D01*
X3210511Y2316980D01*
X2939489Y2316980D01*
X2815245Y2616964D01*
X2498056Y2977652D01*
X2066982Y3189501D01*
X1877000Y3129193D01*
X1623000Y3129193D01*
X1433018Y3189501D01*
X1001944Y2977652D01*
X684755Y2616964D01*
X560511Y2316980D01*
X456000Y2316980D01*
X456000Y4540000D01*
X494884Y4540000D01*
X590424Y4059688D01*
X862499Y3652499D01*
X1269688Y3380424D01*
X1628761Y3309000D01*
X1871239Y3309000D01*
X2230312Y3380424D01*
X2637501Y3652499D01*
X2909576Y4059688D01*
X3005116Y4540000D01*
X2909576Y5020312D01*
X2637501Y5427501D01*
X2230312Y5699576D01*
X1871239Y5771000D01*
X1628761Y5771000D01*
X1269688Y5699576D01*
X862499Y5427501D01*
X590424Y5020312D01*
X494884Y4540000D01*
X456000Y4540000D01*
X456000Y7080000D01*
X494884Y7080000D01*
X590424Y6599688D01*
X862499Y6192499D01*
X1269688Y5920424D01*
X1628761Y5849000D01*
X1871239Y5849000D01*
X2230312Y5920424D01*
X2637501Y6192499D01*
X2909576Y6599688D01*
X3005116Y7080000D01*
X2909576Y7560312D01*
X2637501Y7967501D01*
X2230312Y8239576D01*
X1871239Y8311000D01*
X1628761Y8311000D01*
X1269688Y8239576D01*
X862499Y7967501D01*
X590424Y7560312D01*
X494884Y7080000D01*
X456000Y7080000D01*
X456000Y9620000D01*
X494884Y9620000D01*
X590424Y9139688D01*
X862499Y8732499D01*
X1269688Y8460424D01*
X1628761Y8389000D01*
X1871239Y8389000D01*
X2230312Y8460424D01*
X2637501Y8732499D01*
X2909576Y9139688D01*
X3005116Y9620000D01*
X2909576Y10100312D01*
X2637501Y10507501D01*
X2230312Y10779576D01*
X1871239Y10851000D01*
X1628761Y10851000D01*
X1269688Y10779576D01*
X862499Y10507501D01*
X590424Y10100312D01*
X494884Y9620000D01*
X456000Y9620000D01*
X456000Y12160000D01*
X494884Y12160000D01*
X590424Y11679688D01*
X862499Y11272499D01*
X1269688Y11000424D01*
X1628761Y10929000D01*
X1871239Y10929000D01*
X2230312Y11000424D01*
X2637501Y11272499D01*
X2909576Y11679688D01*
X3005116Y12160000D01*
X3144884Y12160000D01*
X3240424Y11679688D01*
X3512499Y11272499D01*
X3919688Y11000424D01*
X4278761Y10929000D01*
X4521239Y10929000D01*
X4880312Y11000424D01*
X5022243Y11095259D01*
X5575140Y10542361D01*
X5602065Y10502065D01*
X5761699Y10395401D01*
X5950000Y10357946D01*
X5997529Y10367400D01*
X6068887Y10367400D01*
X5890424Y10100312D01*
X5794884Y9620000D01*
X5890424Y9139688D01*
X6095614Y8832600D01*
X5899899Y8832600D01*
X5565090Y9167409D01*
X5655116Y9620000D01*
X5559576Y10100312D01*
X5287501Y10507501D01*
X4880312Y10779576D01*
X4521239Y10851000D01*
X4278761Y10851000D01*
X3919688Y10779576D01*
X3512499Y10507501D01*
X3240424Y10100312D01*
X3144884Y9620000D01*
X3240424Y9139688D01*
X3512499Y8732499D01*
X3919688Y8460424D01*
X4278761Y8389000D01*
X4521239Y8389000D01*
X4880312Y8460424D01*
X4896357Y8471145D01*
X5325140Y8042361D01*
X5352065Y8002065D01*
X5511699Y7895401D01*
X5652471Y7867400D01*
X5699999Y7857946D01*
X5747527Y7867400D01*
X6095614Y7867400D01*
X5890424Y7560312D01*
X5794884Y7080000D01*
X5890424Y6599688D01*
X6102295Y6282600D01*
X5879899Y6282600D01*
X5560113Y6602386D01*
X5655116Y7080000D01*
X5559576Y7560312D01*
X5287501Y7967501D01*
X4880312Y8239576D01*
X4521239Y8311000D01*
X4278761Y8311000D01*
X3919688Y8239576D01*
X3512499Y7967501D01*
X3240424Y7560312D01*
X3144884Y7080000D01*
X3240424Y6599688D01*
X3512499Y6192499D01*
X3919688Y5920424D01*
X4278761Y5849000D01*
X4521239Y5849000D01*
X4877614Y5919887D01*
X5305140Y5492361D01*
X5332065Y5452065D01*
X5491699Y5345401D01*
X5632471Y5317400D01*
X5679999Y5307946D01*
X5727527Y5317400D01*
X6088932Y5317400D01*
X5890424Y5020312D01*
X5794884Y4540000D01*
X5890424Y4059688D01*
X6092273Y3757600D01*
X5864899Y3757600D01*
X5560113Y4062386D01*
X5655116Y4540000D01*
X5559576Y5020312D01*
X5287501Y5427501D01*
X4880312Y5699576D01*
X4521239Y5771000D01*
X4278761Y5771000D01*
X3919688Y5699576D01*
X3512499Y5427501D01*
X3240424Y5020312D01*
X3144884Y4540000D01*
X3240424Y4059688D01*
X3512499Y3652499D01*
X3919688Y3380424D01*
X4278761Y3309000D01*
X4521239Y3309000D01*
X4877614Y3379887D01*
X5290140Y2967361D01*
X5317065Y2927065D01*
X5476699Y2820401D01*
X5617471Y2792400D01*
X5664999Y2782946D01*
X5712527Y2792400D01*
X6139033Y2792400D01*
X5984755Y2616964D01*
X5860511Y2316980D01*
X5921373Y2127000D01*
X6923000Y2127000D01*
X6923000Y2147000D01*
X7177000Y2147000D01*
X7177000Y2127000D01*
X8178627Y2127000D01*
X8239489Y2316980D01*
X8115245Y2616964D01*
X8098983Y2635457D01*
X22669000Y2635457D01*
X22669000Y2364539D01*
X22772676Y2114242D01*
X22964244Y1922674D01*
X23214541Y1818998D01*
X23485459Y1818998D01*
X23735756Y1922674D01*
X23803082Y1990000D01*
X32294884Y1990000D01*
X32390424Y1509688D01*
X32662499Y1102499D01*
X33069688Y830424D01*
X33428761Y759000D01*
X33671239Y759000D01*
X34030312Y830424D01*
X34437501Y1102499D01*
X34709576Y1509688D01*
X34744053Y1683020D01*
X35010511Y1683020D01*
X35134755Y1383036D01*
X35451944Y1022348D01*
X35883018Y810499D01*
X36073000Y870807D01*
X36073000Y1873000D01*
X36327000Y1873000D01*
X36327000Y870807D01*
X36516982Y810499D01*
X36948056Y1022348D01*
X37265245Y1383036D01*
X37389489Y1683020D01*
X37328627Y1873000D01*
X36327000Y1873000D01*
X36073000Y1873000D01*
X35071373Y1873000D01*
X35010511Y1683020D01*
X34744053Y1683020D01*
X34805116Y1990000D01*
X34740076Y2316980D01*
X35010511Y2316980D01*
X35071373Y2127000D01*
X36073000Y2127000D01*
X36073000Y3129193D01*
X36327000Y3129193D01*
X36327000Y2127000D01*
X37328627Y2127000D01*
X37389489Y2316980D01*
X37265245Y2616964D01*
X36948056Y2977652D01*
X36516982Y3189501D01*
X36327000Y3129193D01*
X36073000Y3129193D01*
X35883018Y3189501D01*
X35451944Y2977652D01*
X35134755Y2616964D01*
X35010511Y2316980D01*
X34740076Y2316980D01*
X34709576Y2470312D01*
X34437501Y2877501D01*
X34030312Y3149576D01*
X33671239Y3221000D01*
X33428761Y3221000D01*
X33069688Y3149576D01*
X32662499Y2877501D01*
X32390424Y2470312D01*
X32294884Y1990000D01*
X23803082Y1990000D01*
X23927324Y2114242D01*
X24007158Y2306980D01*
X29710511Y2306980D01*
X29771373Y2117000D01*
X30773000Y2117000D01*
X30773000Y3119193D01*
X31027000Y3119193D01*
X31027000Y2117000D01*
X32028627Y2117000D01*
X32089489Y2306980D01*
X31965245Y2606964D01*
X31648056Y2967652D01*
X31216982Y3179501D01*
X31027000Y3119193D01*
X30773000Y3119193D01*
X30583018Y3179501D01*
X30151944Y2967652D01*
X29834755Y2606964D01*
X29710511Y2306980D01*
X24007158Y2306980D01*
X24031000Y2364539D01*
X24031000Y2635457D01*
X23927324Y2885754D01*
X23735756Y3077322D01*
X23485459Y3180998D01*
X23214541Y3180998D01*
X22964244Y3077322D01*
X22772676Y2885754D01*
X22669000Y2635457D01*
X8098983Y2635457D01*
X7960967Y2792400D01*
X15402472Y2792400D01*
X15450000Y2782946D01*
X15497528Y2792400D01*
X15497529Y2792400D01*
X15638301Y2820401D01*
X15797935Y2927065D01*
X15824862Y2967363D01*
X15951498Y3094000D01*
X16085459Y3094000D01*
X16335756Y3197676D01*
X16527324Y3389244D01*
X16631000Y3639541D01*
X16631000Y3910459D01*
X16569084Y4059939D01*
X16657257Y4042400D01*
X16704785Y4032946D01*
X16752313Y4042400D01*
X17977472Y4042400D01*
X18025000Y4032946D01*
X18072528Y4042400D01*
X18072529Y4042400D01*
X18213301Y4070401D01*
X18333804Y4150919D01*
X23695979Y4150919D01*
X23695979Y3880001D01*
X23799655Y3629704D01*
X23991223Y3438136D01*
X24241520Y3334460D01*
X24512438Y3334460D01*
X24762735Y3438136D01*
X24954303Y3629704D01*
X24969801Y3667119D01*
X25114244Y3522676D01*
X25364541Y3419000D01*
X25635459Y3419000D01*
X25885756Y3522676D01*
X25980480Y3617400D01*
X30050062Y3617400D01*
X30419688Y3370424D01*
X30778761Y3299000D01*
X31021239Y3299000D01*
X31380312Y3370424D01*
X31787501Y3642499D01*
X32059576Y4049688D01*
X32155116Y4530000D01*
X32294884Y4530000D01*
X32390424Y4049688D01*
X32662499Y3642499D01*
X33069688Y3370424D01*
X33428761Y3299000D01*
X33671239Y3299000D01*
X34030312Y3370424D01*
X34437501Y3642499D01*
X34709576Y4049688D01*
X34805116Y4530000D01*
X34803127Y4540000D01*
X34944884Y4540000D01*
X35040424Y4059688D01*
X35312499Y3652499D01*
X35719688Y3380424D01*
X36078761Y3309000D01*
X36321239Y3309000D01*
X36680312Y3380424D01*
X37087501Y3652499D01*
X37359576Y4059688D01*
X37455116Y4540000D01*
X37359576Y5020312D01*
X37087501Y5427501D01*
X36680312Y5699576D01*
X36321239Y5771000D01*
X36078761Y5771000D01*
X35719688Y5699576D01*
X35312499Y5427501D01*
X35040424Y5020312D01*
X34944884Y4540000D01*
X34803127Y4540000D01*
X34709576Y5010312D01*
X34437501Y5417501D01*
X34030312Y5689576D01*
X33671239Y5761000D01*
X33428761Y5761000D01*
X33069688Y5689576D01*
X32662499Y5417501D01*
X32390424Y5010312D01*
X32294884Y4530000D01*
X32155116Y4530000D01*
X32059576Y5010312D01*
X31787501Y5417501D01*
X31380312Y5689576D01*
X31021239Y5761000D01*
X30778761Y5761000D01*
X30419688Y5689576D01*
X30012499Y5417501D01*
X29740424Y5010312D01*
X29655347Y4582600D01*
X25980480Y4582600D01*
X25885756Y4677324D01*
X25725833Y4743566D01*
X25735756Y4747676D01*
X25927324Y4939244D01*
X26031000Y5189541D01*
X26031000Y5460459D01*
X25927324Y5710756D01*
X25735756Y5902324D01*
X25485459Y6006000D01*
X25214541Y6006000D01*
X24964244Y5902324D01*
X24772676Y5710756D01*
X24669000Y5460459D01*
X24669000Y5189541D01*
X24772676Y4939244D01*
X24964244Y4747676D01*
X25124167Y4681434D01*
X25114244Y4677324D01*
X24922676Y4485756D01*
X24907178Y4448341D01*
X24762735Y4592784D01*
X24512438Y4696460D01*
X24241520Y4696460D01*
X23991223Y4592784D01*
X23799655Y4401216D01*
X23695979Y4150919D01*
X18333804Y4150919D01*
X18372935Y4177065D01*
X18399862Y4217364D01*
X19076499Y4894000D01*
X19210459Y4894000D01*
X19460756Y4997676D01*
X19537500Y5074420D01*
X19589244Y5022676D01*
X19839541Y4919000D01*
X20110459Y4919000D01*
X20360756Y5022676D01*
X20475000Y5136920D01*
X20539244Y5072676D01*
X20789541Y4969000D01*
X21060459Y4969000D01*
X21310756Y5072676D01*
X21502324Y5264244D01*
X21606000Y5514541D01*
X21606000Y5785459D01*
X21502324Y6035756D01*
X21310756Y6227324D01*
X21060459Y6331000D01*
X20789541Y6331000D01*
X20539244Y6227324D01*
X20425000Y6113080D01*
X20360756Y6177324D01*
X20110459Y6281000D01*
X19839541Y6281000D01*
X19589244Y6177324D01*
X19512500Y6100580D01*
X19460756Y6152324D01*
X19210459Y6256000D01*
X18939541Y6256000D01*
X18689244Y6152324D01*
X18662500Y6125580D01*
X18560756Y6227324D01*
X18310459Y6331000D01*
X18039541Y6331000D01*
X17789244Y6227324D01*
X17650000Y6088080D01*
X17510756Y6227324D01*
X17260459Y6331000D01*
X17126499Y6331000D01*
X16610948Y6846550D01*
X16584021Y6886849D01*
X16424387Y6993513D01*
X16283615Y7021514D01*
X16283614Y7021514D01*
X16236086Y7030968D01*
X16188558Y7021514D01*
X15821799Y7021514D01*
X15881042Y7164541D01*
X15881042Y7435459D01*
X15777366Y7685756D01*
X15585798Y7877324D01*
X15335501Y7981000D01*
X15064583Y7981000D01*
X14814286Y7877324D01*
X14622718Y7685756D01*
X14519042Y7435459D01*
X14519042Y7164541D01*
X14578285Y7021514D01*
X12531000Y7021514D01*
X12531000Y7285459D01*
X12427324Y7535756D01*
X12235756Y7727324D01*
X11985459Y7831000D01*
X11714541Y7831000D01*
X11464244Y7727324D01*
X11272676Y7535756D01*
X11169000Y7285459D01*
X11169000Y7021514D01*
X10860985Y7021514D01*
X8932600Y8949898D01*
X8932600Y10252473D01*
X8942054Y10300001D01*
X8928647Y10367400D01*
X8904599Y10488301D01*
X8797935Y10647935D01*
X8757639Y10674860D01*
X8274862Y11157637D01*
X8247935Y11197935D01*
X8088301Y11304599D01*
X7974124Y11327310D01*
X8209576Y11679688D01*
X8305116Y12160000D01*
X8209576Y12640312D01*
X7937501Y13047501D01*
X7530312Y13319576D01*
X7171239Y13391000D01*
X6928761Y13391000D01*
X6569688Y13319576D01*
X6162499Y13047501D01*
X5890424Y12640312D01*
X5794884Y12160000D01*
X5890424Y11679688D01*
X6066848Y11415651D01*
X5599931Y11882567D01*
X5655116Y12160000D01*
X5559576Y12640312D01*
X5287501Y13047501D01*
X4880312Y13319576D01*
X4521239Y13391000D01*
X4278761Y13391000D01*
X3919688Y13319576D01*
X3512499Y13047501D01*
X3240424Y12640312D01*
X3144884Y12160000D01*
X3005116Y12160000D01*
X2909576Y12640312D01*
X2637501Y13047501D01*
X2230312Y13319576D01*
X1871239Y13391000D01*
X1628761Y13391000D01*
X1269688Y13319576D01*
X862499Y13047501D01*
X590424Y12640312D01*
X494884Y12160000D01*
X456000Y12160000D01*
X456000Y15550000D01*
X511536Y15550000D01*
X511536Y13850000D01*
X541106Y13701341D01*
X625314Y13575314D01*
X751341Y13491106D01*
X900000Y13461536D01*
X2600000Y13461536D01*
X2748659Y13491106D01*
X2874686Y13575314D01*
X2958894Y13701341D01*
X2988464Y13850000D01*
X2988464Y15550000D01*
X3161536Y15550000D01*
X3161536Y13850000D01*
X3191106Y13701341D01*
X3275314Y13575314D01*
X3401341Y13491106D01*
X3550000Y13461536D01*
X5250000Y13461536D01*
X5398659Y13491106D01*
X5524686Y13575314D01*
X5608894Y13701341D01*
X5638464Y13850000D01*
X5638464Y15550000D01*
X5811536Y15550000D01*
X5811536Y13850000D01*
X5841106Y13701341D01*
X5925314Y13575314D01*
X6051341Y13491106D01*
X6200000Y13461536D01*
X7900000Y13461536D01*
X8048659Y13491106D01*
X8174686Y13575314D01*
X8258894Y13701341D01*
X8288464Y13850000D01*
X8288464Y15550000D01*
X8258894Y15698659D01*
X8174686Y15824686D01*
X8048659Y15908894D01*
X7900000Y15938464D01*
X6200000Y15938464D01*
X6051341Y15908894D01*
X5925314Y15824686D01*
X5841106Y15698659D01*
X5811536Y15550000D01*
X5638464Y15550000D01*
X5608894Y15698659D01*
X5524686Y15824686D01*
X5398659Y15908894D01*
X5250000Y15938464D01*
X3550000Y15938464D01*
X3401341Y15908894D01*
X3275314Y15824686D01*
X3191106Y15698659D01*
X3161536Y15550000D01*
X2988464Y15550000D01*
X2958894Y15698659D01*
X2874686Y15824686D01*
X2748659Y15908894D01*
X2600000Y15938464D01*
X900000Y15938464D01*
X751341Y15908894D01*
X625314Y15824686D01*
X541106Y15698659D01*
X511536Y15550000D01*
X456000Y15550000D01*
X456000Y16010459D01*
X10594000Y16010459D01*
X10594000Y15739541D01*
X10697676Y15489244D01*
X10889244Y15297676D01*
X11139541Y15194000D01*
X11410459Y15194000D01*
X11660756Y15297676D01*
X11768180Y15405100D01*
X16348000Y15405100D01*
X16348000Y15225000D01*
X16357667Y15176399D01*
X16385197Y15135197D01*
X16685197Y14835197D01*
X16726399Y14807667D01*
X16775000Y14798000D01*
X17225000Y14798000D01*
X17273601Y14807667D01*
X17314803Y14835197D01*
X17614803Y15135197D01*
X17642333Y15176399D01*
X17652000Y15225000D01*
X17652000Y15575000D01*
X17642333Y15623601D01*
X17614803Y15664803D01*
X17438596Y15841010D01*
X17635756Y15922676D01*
X17827324Y16114244D01*
X17931000Y16364541D01*
X17931000Y16635459D01*
X17827324Y16885756D01*
X17635756Y17077324D01*
X17603687Y17090607D01*
X17677324Y17164244D01*
X17781000Y17414541D01*
X17781000Y17685459D01*
X17721088Y17830100D01*
X20906820Y17830100D01*
X21014244Y17722676D01*
X21264541Y17619000D01*
X21535459Y17619000D01*
X21785756Y17722676D01*
X21977324Y17914244D01*
X22081000Y18164541D01*
X22081000Y18435459D01*
X21977324Y18685756D01*
X21785756Y18877324D01*
X21535459Y18981000D01*
X21264541Y18981000D01*
X21014244Y18877324D01*
X20906820Y18769900D01*
X16719639Y18769900D01*
X16581000Y18908539D01*
X16581000Y19060459D01*
X16477324Y19310756D01*
X16285756Y19502324D01*
X16035459Y19606000D01*
X15764541Y19606000D01*
X15514244Y19502324D01*
X15322676Y19310756D01*
X15219000Y19060459D01*
X15219000Y18789541D01*
X15322676Y18539244D01*
X15514244Y18347676D01*
X15764541Y18244000D01*
X15916461Y18244000D01*
X16140561Y18019900D01*
X12393180Y18019900D01*
X12260756Y18152324D01*
X12010459Y18256000D01*
X11739541Y18256000D01*
X11489244Y18152324D01*
X11297676Y17960756D01*
X11194000Y17710459D01*
X11194000Y17439541D01*
X11297676Y17189244D01*
X11489244Y16997676D01*
X11739541Y16894000D01*
X12010459Y16894000D01*
X12260756Y16997676D01*
X12343180Y17080100D01*
X13085560Y17080100D01*
X12958147Y17027324D01*
X12766579Y16835756D01*
X12662903Y16585459D01*
X12662903Y16344900D01*
X11768180Y16344900D01*
X11660756Y16452324D01*
X11410459Y16556000D01*
X11139541Y16556000D01*
X10889244Y16452324D01*
X10697676Y16260756D01*
X10594000Y16010459D01*
X456000Y16010459D01*
X456000Y18035459D01*
X3719000Y18035459D01*
X3719000Y17764541D01*
X3822676Y17514244D01*
X4014244Y17322676D01*
X4264541Y17219000D01*
X4535459Y17219000D01*
X4785756Y17322676D01*
X4977324Y17514244D01*
X5081000Y17764541D01*
X5081000Y18035459D01*
X4977324Y18285756D01*
X4785756Y18477324D01*
X4535459Y18581000D01*
X4264541Y18581000D01*
X4014244Y18477324D01*
X3822676Y18285756D01*
X3719000Y18035459D01*
X456000Y18035459D01*
X456000Y19935459D01*
X619000Y19935459D01*
X619000Y19664541D01*
X722676Y19414244D01*
X914244Y19222676D01*
X1164541Y19119000D01*
X1435459Y19119000D01*
X1685756Y19222676D01*
X1877324Y19414244D01*
X1981000Y19664541D01*
X1981000Y19935459D01*
X1960290Y19985459D01*
X4719000Y19985459D01*
X4719000Y19714541D01*
X4822676Y19464244D01*
X5014244Y19272676D01*
X5264541Y19169000D01*
X5535459Y19169000D01*
X5785756Y19272676D01*
X5977324Y19464244D01*
X6081000Y19714541D01*
X6081000Y19848502D01*
X7149899Y20917400D01*
X20819520Y20917400D01*
X20914244Y20822676D01*
X21164541Y20719000D01*
X21435459Y20719000D01*
X21685756Y20822676D01*
X21877324Y21014244D01*
X21981000Y21264541D01*
X21981000Y21535459D01*
X21877324Y21785756D01*
X21685756Y21977324D01*
X21435459Y22081000D01*
X21164541Y22081000D01*
X20914244Y21977324D01*
X20819520Y21882600D01*
X20801348Y21882600D01*
X20856000Y22014541D01*
X20856000Y22285459D01*
X20752324Y22535756D01*
X20560756Y22727324D01*
X20310459Y22831000D01*
X20176499Y22831000D01*
X15899862Y27107636D01*
X15872935Y27147935D01*
X15713301Y27254599D01*
X15572529Y27282600D01*
X15572528Y27282600D01*
X15525000Y27292054D01*
X15477472Y27282600D01*
X7180480Y27282600D01*
X7085756Y27377324D01*
X6835459Y27481000D01*
X6564541Y27481000D01*
X6314244Y27377324D01*
X6122676Y27185756D01*
X6019000Y26935459D01*
X6019000Y26664541D01*
X6122676Y26414244D01*
X6314244Y26222676D01*
X6564541Y26119000D01*
X6835459Y26119000D01*
X7085756Y26222676D01*
X7180480Y26317400D01*
X13829320Y26317400D01*
X13697676Y26185756D01*
X13594000Y25935459D01*
X13594000Y25664541D01*
X13697676Y25414244D01*
X13889244Y25222676D01*
X14139541Y25119000D01*
X14410459Y25119000D01*
X14660756Y25222676D01*
X14852324Y25414244D01*
X14956000Y25664541D01*
X14956000Y25935459D01*
X14852324Y26185756D01*
X14720680Y26317400D01*
X15325102Y26317400D01*
X19494000Y22148501D01*
X19494000Y22014541D01*
X19548652Y21882600D01*
X11847059Y21882600D01*
X11881000Y21964541D01*
X11881000Y22235459D01*
X11777324Y22485756D01*
X11585756Y22677324D01*
X11335459Y22781000D01*
X11064541Y22781000D01*
X10814244Y22677324D01*
X10622676Y22485756D01*
X10519000Y22235459D01*
X10519000Y21964541D01*
X10552941Y21882600D01*
X10081000Y21882600D01*
X10081000Y22135459D01*
X9977324Y22385756D01*
X9785756Y22577324D01*
X9535459Y22681000D01*
X9264541Y22681000D01*
X9014244Y22577324D01*
X8822676Y22385756D01*
X8719000Y22135459D01*
X8719000Y21882600D01*
X6997527Y21882600D01*
X6949999Y21892054D01*
X6902471Y21882600D01*
X6761699Y21854599D01*
X6602065Y21747935D01*
X6575140Y21707639D01*
X5398502Y20531000D01*
X5264541Y20531000D01*
X5014244Y20427324D01*
X4822676Y20235756D01*
X4719000Y19985459D01*
X1960290Y19985459D01*
X1877324Y20185756D01*
X1685756Y20377324D01*
X1435459Y20481000D01*
X1164541Y20481000D01*
X914244Y20377324D01*
X722676Y20185756D01*
X619000Y19935459D01*
X456000Y19935459D01*
X456000Y21655351D01*
X2219000Y21655351D01*
X2219000Y21344649D01*
X2337900Y21057599D01*
X2557599Y20837900D01*
X2844649Y20719000D01*
X3155351Y20719000D01*
X3442401Y20837900D01*
X3662100Y21057599D01*
X3781000Y21344649D01*
X3781000Y21655351D01*
X3662100Y21942401D01*
X3442401Y22162100D01*
X3155351Y22281000D01*
X2844649Y22281000D01*
X2557599Y22162100D01*
X2337900Y21942401D01*
X2219000Y21655351D01*
X456000Y21655351D01*
X456000Y24635459D01*
X14519000Y24635459D01*
X14519000Y24364541D01*
X14622676Y24114244D01*
X14814244Y23922676D01*
X15064541Y23819000D01*
X15335459Y23819000D01*
X15585756Y23922676D01*
X15777324Y24114244D01*
X15881000Y24364541D01*
X15881000Y24635459D01*
X15777324Y24885756D01*
X15585756Y25077324D01*
X15335459Y25181000D01*
X15064541Y25181000D01*
X14814244Y25077324D01*
X14622676Y24885756D01*
X14519000Y24635459D01*
X456000Y24635459D01*
X456000Y29844861D01*
X7369000Y29844861D01*
X7369000Y29355139D01*
X7556408Y28902694D01*
X7902694Y28556408D01*
X8355139Y28369000D01*
X8844861Y28369000D01*
X9297306Y28556408D01*
X9643592Y28902694D01*
X9831000Y29355139D01*
X9831000Y29844861D01*
X9643592Y30297306D01*
X9297306Y30643592D01*
X8844861Y30831000D01*
X8355139Y30831000D01*
X7902694Y30643592D01*
X7556408Y30297306D01*
X7369000Y29844861D01*
X456000Y29844861D01*
X456000Y33635459D01*
X11519000Y33635459D01*
X11519000Y33364541D01*
X11622676Y33114244D01*
X11814244Y32922676D01*
X12064541Y32819000D01*
X12335459Y32819000D01*
X12585756Y32922676D01*
X12777324Y33114244D01*
X12881000Y33364541D01*
X12881000Y33635459D01*
X12777324Y33885756D01*
X12585756Y34077324D01*
X12335459Y34181000D01*
X12064541Y34181000D01*
X11814244Y34077324D01*
X11622676Y33885756D01*
X11519000Y33635459D01*
X456000Y33635459D01*
X456000Y36844861D01*
X7369000Y36844861D01*
X7369000Y36355139D01*
X7556408Y35902694D01*
X7902694Y35556408D01*
X8355139Y35369000D01*
X8844861Y35369000D01*
X9297306Y35556408D01*
X9643592Y35902694D01*
X9831000Y36355139D01*
X9831000Y36844861D01*
X9643592Y37297306D01*
X9297306Y37643592D01*
X8844861Y37831000D01*
X8355139Y37831000D01*
X7902694Y37643592D01*
X7556408Y37297306D01*
X7369000Y36844861D01*
X456000Y36844861D01*
X456000Y38099630D01*
X458611Y38104960D01*
X475654Y38178489D01*
X542264Y38621546D01*
X704906Y38960246D01*
X959946Y39236147D01*
X1284839Y39424860D01*
X1677013Y39515761D01*
X1768885Y39519371D01*
X1897993Y39544000D01*
X22873000Y39544000D01*
X22873000Y39055499D01*
X22873000Y39055499D01*
G37*
X22873000Y39055499D02*
X19192362Y35374860D01*
X19152066Y35347935D01*
X19108438Y35282641D01*
X19045402Y35188301D01*
X19007946Y35000000D01*
X19017401Y34952467D01*
X19017400Y32080480D01*
X18922676Y31985756D01*
X18819000Y31735459D01*
X18819000Y31464541D01*
X18922676Y31214244D01*
X19114244Y31022676D01*
X19364541Y30919000D01*
X19635459Y30919000D01*
X19885756Y31022676D01*
X20077324Y31214244D01*
X20181000Y31464541D01*
X20181000Y31735459D01*
X20077324Y31985756D01*
X19982600Y32080480D01*
X19982600Y34800102D01*
X22873000Y37690501D01*
X22873000Y16579826D01*
X20349700Y16573875D01*
X20301123Y16564093D01*
X20259986Y16536466D01*
X20232553Y16495199D01*
X20223000Y16446875D01*
X20223000Y16300000D01*
X20232667Y16251399D01*
X20260197Y16210197D01*
X20301399Y16182667D01*
X20350000Y16173000D01*
X23175000Y16173000D01*
X23223601Y16182667D01*
X23264803Y16210197D01*
X23292333Y16251399D01*
X23302000Y16300000D01*
X23302000Y19435457D01*
X23869000Y19435457D01*
X23869000Y19164539D01*
X23972676Y18914242D01*
X24164244Y18722674D01*
X24414541Y18618998D01*
X24685459Y18618998D01*
X24935756Y18722674D01*
X25127324Y18914242D01*
X25231000Y19164539D01*
X25231000Y19435457D01*
X25127324Y19685754D01*
X24935756Y19877322D01*
X24685459Y19980998D01*
X24414541Y19980998D01*
X24164244Y19877322D01*
X23972676Y19685754D01*
X23869000Y19435457D01*
X23302000Y19435457D01*
X23302000Y38119501D01*
X23924899Y38742400D01*
X27873000Y38742400D01*
X27873000Y20186078D01*
X27847678Y20160756D01*
X27744002Y19910459D01*
X27744002Y19639541D01*
X27847678Y19389244D01*
X27873000Y19363922D01*
X27873000Y17565502D01*
X24915137Y15460869D01*
X24685459Y15556004D01*
X24414541Y15556004D01*
X24164244Y15452328D01*
X23972676Y15260760D01*
X23869000Y15010463D01*
X23869000Y14876504D01*
X23844496Y14852000D01*
X21115827Y14852000D01*
X20985459Y14906000D01*
X20714541Y14906000D01*
X20584173Y14852000D01*
X20350000Y14852000D01*
X20301399Y14842333D01*
X20260197Y14814803D01*
X20232667Y14773601D01*
X20223000Y14725000D01*
X20223000Y14550000D01*
X20230951Y14510024D01*
X20169000Y14360459D01*
X20169000Y14089541D01*
X20244362Y13907600D01*
X15645283Y13907600D01*
X15731000Y14114541D01*
X15731000Y14385459D01*
X15627324Y14635756D01*
X15435756Y14827324D01*
X15185459Y14931000D01*
X14914541Y14931000D01*
X14664244Y14827324D01*
X14472676Y14635756D01*
X14369000Y14385459D01*
X14369000Y14114541D01*
X14454717Y13907600D01*
X13949359Y13907600D01*
X13985756Y13922676D01*
X14177324Y14114244D01*
X14281000Y14364541D01*
X14281000Y14635459D01*
X14177324Y14885756D01*
X13985756Y15077324D01*
X13735459Y15181000D01*
X13464541Y15181000D01*
X13214244Y15077324D01*
X13022676Y14885756D01*
X12919000Y14635459D01*
X12919000Y14364541D01*
X13022676Y14114244D01*
X13214244Y13922676D01*
X13250641Y13907600D01*
X10930480Y13907600D01*
X10835756Y14002324D01*
X10585459Y14106000D01*
X10314541Y14106000D01*
X10064244Y14002324D01*
X9872676Y13810756D01*
X9769000Y13560459D01*
X9769000Y13289541D01*
X9872676Y13039244D01*
X10064244Y12847676D01*
X10314541Y12744000D01*
X10585459Y12744000D01*
X10835756Y12847676D01*
X10930480Y12942400D01*
X12254320Y12942400D01*
X12197679Y12885759D01*
X12094003Y12635462D01*
X12094003Y12364544D01*
X12195337Y12119900D01*
X10896272Y12119900D01*
X10850000Y12129104D01*
X10803728Y12119900D01*
X10803724Y12119900D01*
X10666654Y12092635D01*
X10511222Y11988778D01*
X10506025Y11981000D01*
X10364541Y11981000D01*
X10114244Y11877324D01*
X9922676Y11685756D01*
X9819000Y11435459D01*
X9819000Y11164541D01*
X9922676Y10914244D01*
X9966375Y10870545D01*
X9869000Y10635459D01*
X9869000Y10364541D01*
X9972676Y10114244D01*
X10164244Y9922676D01*
X10414541Y9819000D01*
X10685459Y9819000D01*
X10935756Y9922676D01*
X11127324Y10114244D01*
X11231000Y10364541D01*
X11231000Y10498502D01*
X11529388Y10796889D01*
X21556963Y10796889D01*
X21604491Y10787435D01*
X21652019Y10796889D01*
X21652020Y10796889D01*
X21792792Y10824890D01*
X21952426Y10931554D01*
X21979353Y10971853D01*
X22572403Y11564903D01*
X22572676Y11564244D01*
X22764244Y11372676D01*
X23014541Y11269000D01*
X23285459Y11269000D01*
X23535756Y11372676D01*
X23727324Y11564244D01*
X23831000Y11814541D01*
X23831000Y12035570D01*
X23922676Y11814244D01*
X24114244Y11622676D01*
X24364541Y11519000D01*
X24419000Y11519000D01*
X24419000Y11289539D01*
X24522676Y11039242D01*
X24523417Y11038501D01*
X24360459Y11106000D01*
X24089541Y11106000D01*
X23839244Y11002324D01*
X23647676Y10810756D01*
X23544000Y10560459D01*
X23544000Y10289541D01*
X23625575Y10092600D01*
X22007529Y10092600D01*
X21960000Y10102054D01*
X21771698Y10064599D01*
X21721319Y10030936D01*
X21612065Y9957935D01*
X21585140Y9917639D01*
X21448501Y9781000D01*
X21314541Y9781000D01*
X21064244Y9677324D01*
X20872676Y9485756D01*
X20769000Y9235459D01*
X20769000Y8964541D01*
X20872676Y8714244D01*
X21064244Y8522676D01*
X21314541Y8419000D01*
X21444000Y8419000D01*
X21444000Y8214541D01*
X21547676Y7964244D01*
X21739244Y7772676D01*
X21989541Y7669000D01*
X22260459Y7669000D01*
X22510756Y7772676D01*
X22536501Y7798421D01*
X22469000Y7635459D01*
X22469000Y7364541D01*
X22572676Y7114244D01*
X22764244Y6922676D01*
X23014541Y6819000D01*
X23285459Y6819000D01*
X23535756Y6922676D01*
X23727324Y7114244D01*
X23787887Y7260459D01*
X24419000Y7260459D01*
X24419000Y6989541D01*
X24522676Y6739244D01*
X24714244Y6547676D01*
X24964541Y6444000D01*
X25235459Y6444000D01*
X25485756Y6547676D01*
X25580480Y6642400D01*
X29729939Y6642400D01*
X29740424Y6589688D01*
X30012499Y6182499D01*
X30419688Y5910424D01*
X30778761Y5839000D01*
X31021239Y5839000D01*
X31380312Y5910424D01*
X31787501Y6182499D01*
X32059576Y6589688D01*
X32155116Y7070000D01*
X32294884Y7070000D01*
X32390424Y6589688D01*
X32662499Y6182499D01*
X33069688Y5910424D01*
X33428761Y5839000D01*
X33671239Y5839000D01*
X34030312Y5910424D01*
X34437501Y6182499D01*
X34709576Y6589688D01*
X34805116Y7070000D01*
X34803127Y7080000D01*
X34944884Y7080000D01*
X35040424Y6599688D01*
X35312499Y6192499D01*
X35719688Y5920424D01*
X36078761Y5849000D01*
X36321239Y5849000D01*
X36680312Y5920424D01*
X37087501Y6192499D01*
X37359576Y6599688D01*
X37455116Y7080000D01*
X37359576Y7560312D01*
X37087501Y7967501D01*
X36680312Y8239576D01*
X36321239Y8311000D01*
X36078761Y8311000D01*
X35719688Y8239576D01*
X35312499Y7967501D01*
X35040424Y7560312D01*
X34944884Y7080000D01*
X34803127Y7080000D01*
X34709576Y7550312D01*
X34437501Y7957501D01*
X34030312Y8229576D01*
X33671239Y8301000D01*
X33428761Y8301000D01*
X33069688Y8229576D01*
X32662499Y7957501D01*
X32390424Y7550312D01*
X32294884Y7070000D01*
X32155116Y7070000D01*
X32059576Y7550312D01*
X31787501Y7957501D01*
X31380312Y8229576D01*
X31021239Y8301000D01*
X30778761Y8301000D01*
X30419688Y8229576D01*
X30012499Y7957501D01*
X29778703Y7607600D01*
X25580480Y7607600D01*
X25485756Y7702324D01*
X25235459Y7806000D01*
X24964541Y7806000D01*
X24714244Y7702324D01*
X24522676Y7510756D01*
X24419000Y7260459D01*
X23787887Y7260459D01*
X23831000Y7364541D01*
X23831000Y7635459D01*
X23727324Y7885756D01*
X23535756Y8077324D01*
X23285459Y8181000D01*
X23014541Y8181000D01*
X22764244Y8077324D01*
X22738499Y8051579D01*
X22806000Y8214541D01*
X22806000Y8485459D01*
X22702324Y8735756D01*
X22510756Y8927324D01*
X22260459Y9031000D01*
X22131000Y9031000D01*
X22131000Y9098501D01*
X22159899Y9127400D01*
X23101017Y9127400D01*
X23094000Y9110459D01*
X23094000Y8839541D01*
X23197676Y8589244D01*
X23389244Y8397676D01*
X23639541Y8294000D01*
X23910459Y8294000D01*
X24160756Y8397676D01*
X24352324Y8589244D01*
X24456000Y8839541D01*
X24456000Y9110459D01*
X24448983Y9127400D01*
X29741953Y9127400D01*
X30012499Y8722499D01*
X30419688Y8450424D01*
X30778761Y8379000D01*
X31021239Y8379000D01*
X31380312Y8450424D01*
X31787501Y8722499D01*
X32059576Y9129688D01*
X32155116Y9610000D01*
X32294884Y9610000D01*
X32390424Y9129688D01*
X32662499Y8722499D01*
X33069688Y8450424D01*
X33428761Y8379000D01*
X33671239Y8379000D01*
X34030312Y8450424D01*
X34437501Y8722499D01*
X34709576Y9129688D01*
X34805116Y9610000D01*
X34803127Y9620000D01*
X34944884Y9620000D01*
X35040424Y9139688D01*
X35312499Y8732499D01*
X35719688Y8460424D01*
X36078761Y8389000D01*
X36321239Y8389000D01*
X36680312Y8460424D01*
X37087501Y8732499D01*
X37359576Y9139688D01*
X37455116Y9620000D01*
X37359576Y10100312D01*
X37087501Y10507501D01*
X36680312Y10779576D01*
X36321239Y10851000D01*
X36078761Y10851000D01*
X35719688Y10779576D01*
X35312499Y10507501D01*
X35040424Y10100312D01*
X34944884Y9620000D01*
X34803127Y9620000D01*
X34709576Y10090312D01*
X34437501Y10497501D01*
X34030312Y10769576D01*
X33671239Y10841000D01*
X33428761Y10841000D01*
X33069688Y10769576D01*
X32662499Y10497501D01*
X32390424Y10090312D01*
X32294884Y9610000D01*
X32155116Y9610000D01*
X32059576Y10090312D01*
X31787501Y10497501D01*
X31380312Y10769576D01*
X31021239Y10841000D01*
X30778761Y10841000D01*
X30419688Y10769576D01*
X30012499Y10497501D01*
X29741953Y10092600D01*
X24824425Y10092600D01*
X24906000Y10289541D01*
X24906000Y10560459D01*
X24802324Y10810756D01*
X24801583Y10811497D01*
X24964541Y10743998D01*
X25235459Y10743998D01*
X25485756Y10847674D01*
X25677324Y11039242D01*
X25781000Y11289539D01*
X25781000Y11560457D01*
X25677324Y11810754D01*
X25485756Y12002322D01*
X25235459Y12105998D01*
X25181000Y12105998D01*
X25181000Y12335459D01*
X25077324Y12585756D01*
X24885756Y12777324D01*
X24635459Y12881000D01*
X24364541Y12881000D01*
X24114244Y12777324D01*
X23922676Y12585756D01*
X23819000Y12335459D01*
X23819000Y12114430D01*
X23727324Y12335756D01*
X23665948Y12397132D01*
X23756000Y12614539D01*
X23756000Y12885457D01*
X23652324Y13135754D01*
X23572786Y13215292D01*
X23942953Y13585459D01*
X26019000Y13585459D01*
X26019000Y13314541D01*
X26122676Y13064244D01*
X26314244Y12872676D01*
X26564541Y12769000D01*
X26698501Y12769000D01*
X27625142Y11842358D01*
X27652065Y11802065D01*
X27692358Y11775142D01*
X27811699Y11695401D01*
X28000000Y11657946D01*
X28047529Y11667400D01*
X29741953Y11667400D01*
X30012499Y11262499D01*
X30419688Y10990424D01*
X30778761Y10919000D01*
X31021239Y10919000D01*
X31380312Y10990424D01*
X31787501Y11262499D01*
X32059576Y11669688D01*
X32155116Y12150000D01*
X32294884Y12150000D01*
X32390424Y11669688D01*
X32662499Y11262499D01*
X33069688Y10990424D01*
X33428761Y10919000D01*
X33671239Y10919000D01*
X34030312Y10990424D01*
X34437501Y11262499D01*
X34709576Y11669688D01*
X34805116Y12150000D01*
X34803127Y12160000D01*
X34944884Y12160000D01*
X35040424Y11679688D01*
X35312499Y11272499D01*
X35719688Y11000424D01*
X36078761Y10929000D01*
X36321239Y10929000D01*
X36680312Y11000424D01*
X37087501Y11272499D01*
X37359576Y11679688D01*
X37455116Y12160000D01*
X37359576Y12640312D01*
X37087501Y13047501D01*
X36680312Y13319576D01*
X36321239Y13391000D01*
X36078761Y13391000D01*
X35719688Y13319576D01*
X35312499Y13047501D01*
X35040424Y12640312D01*
X34944884Y12160000D01*
X34803127Y12160000D01*
X34709576Y12630312D01*
X34437501Y13037501D01*
X34030312Y13309576D01*
X33671239Y13381000D01*
X33428761Y13381000D01*
X33069688Y13309576D01*
X32662499Y13037501D01*
X32390424Y12630312D01*
X32294884Y12150000D01*
X32155116Y12150000D01*
X32059576Y12630312D01*
X31787501Y13037501D01*
X31380312Y13309576D01*
X31021239Y13381000D01*
X30778761Y13381000D01*
X30419688Y13309576D01*
X30012499Y13037501D01*
X29741953Y12632600D01*
X28199900Y12632600D01*
X27381000Y13451499D01*
X27381000Y13585459D01*
X27277324Y13835756D01*
X27085756Y14027324D01*
X26835459Y14131000D01*
X26564541Y14131000D01*
X26314244Y14027324D01*
X26122676Y13835756D01*
X26019000Y13585459D01*
X23942953Y13585459D01*
X24551500Y14194004D01*
X24685459Y14194004D01*
X24935756Y14297680D01*
X25127324Y14489248D01*
X25231000Y14739545D01*
X25231000Y15010463D01*
X25202349Y15079634D01*
X25841305Y15540000D01*
X29661536Y15540000D01*
X29661536Y13840000D01*
X29691106Y13691341D01*
X29775314Y13565314D01*
X29901341Y13481106D01*
X30050000Y13451536D01*
X31750000Y13451536D01*
X31898659Y13481106D01*
X32024686Y13565314D01*
X32108894Y13691341D01*
X32138464Y13840000D01*
X32138464Y15540000D01*
X32311536Y15540000D01*
X32311536Y13840000D01*
X32341106Y13691341D01*
X32425314Y13565314D01*
X32551341Y13481106D01*
X32700000Y13451536D01*
X34400000Y13451536D01*
X34548659Y13481106D01*
X34674686Y13565314D01*
X34758894Y13691341D01*
X34788464Y13840000D01*
X34788464Y15540000D01*
X34786475Y15550000D01*
X34961536Y15550000D01*
X34961536Y13850000D01*
X34991106Y13701341D01*
X35075314Y13575314D01*
X35201341Y13491106D01*
X35350000Y13461536D01*
X37050000Y13461536D01*
X37198659Y13491106D01*
X37324686Y13575314D01*
X37408894Y13701341D01*
X37438464Y13850000D01*
X37438464Y15550000D01*
X37408894Y15698659D01*
X37324686Y15824686D01*
X37198659Y15908894D01*
X37050000Y15938464D01*
X35350000Y15938464D01*
X35201341Y15908894D01*
X35075314Y15824686D01*
X34991106Y15698659D01*
X34961536Y15550000D01*
X34786475Y15550000D01*
X34758894Y15688659D01*
X34674686Y15814686D01*
X34548659Y15898894D01*
X34400000Y15928464D01*
X32700000Y15928464D01*
X32551341Y15898894D01*
X32425314Y15814686D01*
X32341106Y15688659D01*
X32311536Y15540000D01*
X32138464Y15540000D01*
X32108894Y15688659D01*
X32024686Y15814686D01*
X31898659Y15898894D01*
X31750000Y15928464D01*
X30050000Y15928464D01*
X29901341Y15898894D01*
X29775314Y15814686D01*
X29691106Y15688659D01*
X29661536Y15540000D01*
X25841305Y15540000D01*
X28349240Y17346959D01*
X28383021Y17383213D01*
X28402000Y17450000D01*
X28402000Y17835459D01*
X35919000Y17835459D01*
X35919000Y17564541D01*
X36022676Y17314244D01*
X36214244Y17122676D01*
X36464541Y17019000D01*
X36735459Y17019000D01*
X36985756Y17122676D01*
X37177324Y17314244D01*
X37281000Y17564541D01*
X37281000Y17835459D01*
X37177324Y18085756D01*
X36985756Y18277324D01*
X36735459Y18381000D01*
X36464541Y18381000D01*
X36214244Y18277324D01*
X36022676Y18085756D01*
X35919000Y17835459D01*
X28402000Y17835459D01*
X28402000Y19094000D01*
X28560461Y19094000D01*
X28810758Y19197676D01*
X29002326Y19389244D01*
X29106002Y19639541D01*
X29106002Y19910459D01*
X29002326Y20160756D01*
X28927623Y20235459D01*
X35819000Y20235459D01*
X35819000Y19964541D01*
X35922676Y19714244D01*
X36114244Y19522676D01*
X36364541Y19419000D01*
X36635459Y19419000D01*
X36885756Y19522676D01*
X37077324Y19714244D01*
X37181000Y19964541D01*
X37181000Y20235459D01*
X37077324Y20485756D01*
X36885756Y20677324D01*
X36635459Y20781000D01*
X36364541Y20781000D01*
X36114244Y20677324D01*
X35922676Y20485756D01*
X35819000Y20235459D01*
X28927623Y20235459D01*
X28810758Y20352324D01*
X28560461Y20456000D01*
X28402000Y20456000D01*
X28402000Y21655351D01*
X34219000Y21655351D01*
X34219000Y21344649D01*
X34337900Y21057599D01*
X34557599Y20837900D01*
X34844649Y20719000D01*
X35155351Y20719000D01*
X35442401Y20837900D01*
X35662100Y21057599D01*
X35781000Y21344649D01*
X35781000Y21655351D01*
X35662100Y21942401D01*
X35442401Y22162100D01*
X35155351Y22281000D01*
X34844649Y22281000D01*
X34557599Y22162100D01*
X34337900Y21942401D01*
X34219000Y21655351D01*
X28402000Y21655351D01*
X28402000Y28857102D01*
X28702694Y28556408D01*
X29155139Y28369000D01*
X29644861Y28369000D01*
X30097306Y28556408D01*
X30443592Y28902694D01*
X30631000Y29355139D01*
X30631000Y29844861D01*
X30443592Y30297306D01*
X30097306Y30643592D01*
X29644861Y30831000D01*
X29155139Y30831000D01*
X28702694Y30643592D01*
X28402000Y30342898D01*
X28402000Y35857102D01*
X28702694Y35556408D01*
X29155139Y35369000D01*
X29644861Y35369000D01*
X30097306Y35556408D01*
X30443592Y35902694D01*
X30631000Y36355139D01*
X30631000Y36844861D01*
X30443592Y37297306D01*
X30097306Y37643592D01*
X29644861Y37831000D01*
X29155139Y37831000D01*
X28702694Y37643592D01*
X28402000Y37342898D01*
X28402000Y38742400D01*
X29125102Y38742400D01*
X30792400Y37075101D01*
X30792401Y35480481D01*
X30697676Y35385756D01*
X30594000Y35135459D01*
X30594000Y34864541D01*
X30697676Y34614244D01*
X30889244Y34422676D01*
X31139541Y34319000D01*
X31410459Y34319000D01*
X31660756Y34422676D01*
X31852324Y34614244D01*
X31956000Y34864541D01*
X31956000Y35135459D01*
X31852324Y35385756D01*
X31757600Y35480480D01*
X31757600Y37227473D01*
X31767054Y37275001D01*
X31757600Y37322529D01*
X31729599Y37463301D01*
X31622935Y37622935D01*
X31582640Y37649859D01*
X29699862Y39532636D01*
X29692269Y39544000D01*
X36099630Y39544000D01*
X36104960Y39541389D01*
X36178489Y39524346D01*
X36621546Y39457736D01*
X36960246Y39295094D01*
X37236147Y39040054D01*
X37424860Y38715161D01*
X37515761Y38322987D01*
X37519371Y38231115D01*
X37544001Y38102001D01*
X37544000Y1900370D01*
X37541389Y1895040D01*
X37524346Y1821511D01*
X37457736Y1378454D01*
X37295094Y1039754D01*
X37040054Y763853D01*
X36715162Y575141D01*
X36322983Y484239D01*
X36231115Y480629D01*
X36102007Y456000D01*
X1900370Y456000D01*
X1895040Y458611D01*
X1821511Y475654D01*
X1378454Y542264D01*
X1039754Y704906D01*
X763853Y959946D01*
X575141Y1284838D01*
X484239Y1677017D01*
X484004Y1683020D01*
X560511Y1683020D01*
X684755Y1383036D01*
X1001944Y1022348D01*
X1433018Y810499D01*
X1623000Y870807D01*
X1623000Y1873000D01*
X1877000Y1873000D01*
X1877000Y870807D01*
X2066982Y810499D01*
X2498056Y1022348D01*
X2815245Y1383036D01*
X2939489Y1683020D01*
X3210511Y1683020D01*
X3334755Y1383036D01*
X3651944Y1022348D01*
X4083018Y810499D01*
X4273000Y870807D01*
X4273000Y1873000D01*
X4527000Y1873000D01*
X4527000Y870807D01*
X4716982Y810499D01*
X5148056Y1022348D01*
X5465245Y1383036D01*
X5589489Y1683020D01*
X5860511Y1683020D01*
X5984755Y1383036D01*
X6301944Y1022348D01*
X6733018Y810499D01*
X6923000Y870807D01*
X6923000Y1873000D01*
X7177000Y1873000D01*
X7177000Y870807D01*
X7366982Y810499D01*
X7798056Y1022348D01*
X8115245Y1383036D01*
X8235347Y1673020D01*
X29710511Y1673020D01*
X29834755Y1373036D01*
X30151944Y1012348D01*
X30583018Y800499D01*
X30773000Y860807D01*
X30773000Y1863000D01*
X31027000Y1863000D01*
X31027000Y860807D01*
X31216982Y800499D01*
X31648056Y1012348D01*
X31965245Y1373036D01*
X32089489Y1673020D01*
X32028627Y1863000D01*
X31027000Y1863000D01*
X30773000Y1863000D01*
X29771373Y1863000D01*
X29710511Y1673020D01*
X8235347Y1673020D01*
X8239489Y1683020D01*
X8178627Y1873000D01*
X7177000Y1873000D01*
X6923000Y1873000D01*
X5921373Y1873000D01*
X5860511Y1683020D01*
X5589489Y1683020D01*
X5528627Y1873000D01*
X4527000Y1873000D01*
X4273000Y1873000D01*
X3271373Y1873000D01*
X3210511Y1683020D01*
X2939489Y1683020D01*
X2878627Y1873000D01*
X1877000Y1873000D01*
X1623000Y1873000D01*
X621373Y1873000D01*
X560511Y1683020D01*
X484004Y1683020D01*
X480629Y1768885D01*
X456000Y1897993D01*
X456000Y2316980D01*
X560511Y2316980D01*
X621373Y2127000D01*
X1623000Y2127000D01*
X1623000Y3129193D01*
X1877000Y3129193D01*
X1877000Y2127000D01*
X2878627Y2127000D01*
X2939489Y2316980D01*
X3210511Y2316980D01*
X3271373Y2127000D01*
X4273000Y2127000D01*
X4273000Y3129193D01*
X4527000Y3129193D01*
X4527000Y2127000D01*
X5528627Y2127000D01*
X5589489Y2316980D01*
X5465245Y2616964D01*
X5148056Y2977652D01*
X4716982Y3189501D01*
X4527000Y3129193D01*
X4273000Y3129193D01*
X4083018Y3189501D01*
X3651944Y2977652D01*
X3334755Y2616964D01*
X3210511Y2316980D01*
X2939489Y2316980D01*
X2815245Y2616964D01*
X2498056Y2977652D01*
X2066982Y3189501D01*
X1877000Y3129193D01*
X1623000Y3129193D01*
X1433018Y3189501D01*
X1001944Y2977652D01*
X684755Y2616964D01*
X560511Y2316980D01*
X456000Y2316980D01*
X456000Y4540000D01*
X494884Y4540000D01*
X590424Y4059688D01*
X862499Y3652499D01*
X1269688Y3380424D01*
X1628761Y3309000D01*
X1871239Y3309000D01*
X2230312Y3380424D01*
X2637501Y3652499D01*
X2909576Y4059688D01*
X3005116Y4540000D01*
X2909576Y5020312D01*
X2637501Y5427501D01*
X2230312Y5699576D01*
X1871239Y5771000D01*
X1628761Y5771000D01*
X1269688Y5699576D01*
X862499Y5427501D01*
X590424Y5020312D01*
X494884Y4540000D01*
X456000Y4540000D01*
X456000Y7080000D01*
X494884Y7080000D01*
X590424Y6599688D01*
X862499Y6192499D01*
X1269688Y5920424D01*
X1628761Y5849000D01*
X1871239Y5849000D01*
X2230312Y5920424D01*
X2637501Y6192499D01*
X2909576Y6599688D01*
X3005116Y7080000D01*
X2909576Y7560312D01*
X2637501Y7967501D01*
X2230312Y8239576D01*
X1871239Y8311000D01*
X1628761Y8311000D01*
X1269688Y8239576D01*
X862499Y7967501D01*
X590424Y7560312D01*
X494884Y7080000D01*
X456000Y7080000D01*
X456000Y9620000D01*
X494884Y9620000D01*
X590424Y9139688D01*
X862499Y8732499D01*
X1269688Y8460424D01*
X1628761Y8389000D01*
X1871239Y8389000D01*
X2230312Y8460424D01*
X2637501Y8732499D01*
X2909576Y9139688D01*
X3005116Y9620000D01*
X2909576Y10100312D01*
X2637501Y10507501D01*
X2230312Y10779576D01*
X1871239Y10851000D01*
X1628761Y10851000D01*
X1269688Y10779576D01*
X862499Y10507501D01*
X590424Y10100312D01*
X494884Y9620000D01*
X456000Y9620000D01*
X456000Y12160000D01*
X494884Y12160000D01*
X590424Y11679688D01*
X862499Y11272499D01*
X1269688Y11000424D01*
X1628761Y10929000D01*
X1871239Y10929000D01*
X2230312Y11000424D01*
X2637501Y11272499D01*
X2909576Y11679688D01*
X3005116Y12160000D01*
X3144884Y12160000D01*
X3240424Y11679688D01*
X3512499Y11272499D01*
X3919688Y11000424D01*
X4278761Y10929000D01*
X4521239Y10929000D01*
X4880312Y11000424D01*
X5022243Y11095259D01*
X5575140Y10542361D01*
X5602065Y10502065D01*
X5761699Y10395401D01*
X5950000Y10357946D01*
X5997529Y10367400D01*
X6068887Y10367400D01*
X5890424Y10100312D01*
X5794884Y9620000D01*
X5890424Y9139688D01*
X6095614Y8832600D01*
X5899899Y8832600D01*
X5565090Y9167409D01*
X5655116Y9620000D01*
X5559576Y10100312D01*
X5287501Y10507501D01*
X4880312Y10779576D01*
X4521239Y10851000D01*
X4278761Y10851000D01*
X3919688Y10779576D01*
X3512499Y10507501D01*
X3240424Y10100312D01*
X3144884Y9620000D01*
X3240424Y9139688D01*
X3512499Y8732499D01*
X3919688Y8460424D01*
X4278761Y8389000D01*
X4521239Y8389000D01*
X4880312Y8460424D01*
X4896357Y8471145D01*
X5325140Y8042361D01*
X5352065Y8002065D01*
X5511699Y7895401D01*
X5652471Y7867400D01*
X5699999Y7857946D01*
X5747527Y7867400D01*
X6095614Y7867400D01*
X5890424Y7560312D01*
X5794884Y7080000D01*
X5890424Y6599688D01*
X6102295Y6282600D01*
X5879899Y6282600D01*
X5560113Y6602386D01*
X5655116Y7080000D01*
X5559576Y7560312D01*
X5287501Y7967501D01*
X4880312Y8239576D01*
X4521239Y8311000D01*
X4278761Y8311000D01*
X3919688Y8239576D01*
X3512499Y7967501D01*
X3240424Y7560312D01*
X3144884Y7080000D01*
X3240424Y6599688D01*
X3512499Y6192499D01*
X3919688Y5920424D01*
X4278761Y5849000D01*
X4521239Y5849000D01*
X4877614Y5919887D01*
X5305140Y5492361D01*
X5332065Y5452065D01*
X5491699Y5345401D01*
X5632471Y5317400D01*
X5679999Y5307946D01*
X5727527Y5317400D01*
X6088932Y5317400D01*
X5890424Y5020312D01*
X5794884Y4540000D01*
X5890424Y4059688D01*
X6092273Y3757600D01*
X5864899Y3757600D01*
X5560113Y4062386D01*
X5655116Y4540000D01*
X5559576Y5020312D01*
X5287501Y5427501D01*
X4880312Y5699576D01*
X4521239Y5771000D01*
X4278761Y5771000D01*
X3919688Y5699576D01*
X3512499Y5427501D01*
X3240424Y5020312D01*
X3144884Y4540000D01*
X3240424Y4059688D01*
X3512499Y3652499D01*
X3919688Y3380424D01*
X4278761Y3309000D01*
X4521239Y3309000D01*
X4877614Y3379887D01*
X5290140Y2967361D01*
X5317065Y2927065D01*
X5476699Y2820401D01*
X5617471Y2792400D01*
X5664999Y2782946D01*
X5712527Y2792400D01*
X6139033Y2792400D01*
X5984755Y2616964D01*
X5860511Y2316980D01*
X5921373Y2127000D01*
X6923000Y2127000D01*
X6923000Y2147000D01*
X7177000Y2147000D01*
X7177000Y2127000D01*
X8178627Y2127000D01*
X8239489Y2316980D01*
X8115245Y2616964D01*
X8098983Y2635457D01*
X22669000Y2635457D01*
X22669000Y2364539D01*
X22772676Y2114242D01*
X22964244Y1922674D01*
X23214541Y1818998D01*
X23485459Y1818998D01*
X23735756Y1922674D01*
X23803082Y1990000D01*
X32294884Y1990000D01*
X32390424Y1509688D01*
X32662499Y1102499D01*
X33069688Y830424D01*
X33428761Y759000D01*
X33671239Y759000D01*
X34030312Y830424D01*
X34437501Y1102499D01*
X34709576Y1509688D01*
X34744053Y1683020D01*
X35010511Y1683020D01*
X35134755Y1383036D01*
X35451944Y1022348D01*
X35883018Y810499D01*
X36073000Y870807D01*
X36073000Y1873000D01*
X36327000Y1873000D01*
X36327000Y870807D01*
X36516982Y810499D01*
X36948056Y1022348D01*
X37265245Y1383036D01*
X37389489Y1683020D01*
X37328627Y1873000D01*
X36327000Y1873000D01*
X36073000Y1873000D01*
X35071373Y1873000D01*
X35010511Y1683020D01*
X34744053Y1683020D01*
X34805116Y1990000D01*
X34740076Y2316980D01*
X35010511Y2316980D01*
X35071373Y2127000D01*
X36073000Y2127000D01*
X36073000Y3129193D01*
X36327000Y3129193D01*
X36327000Y2127000D01*
X37328627Y2127000D01*
X37389489Y2316980D01*
X37265245Y2616964D01*
X36948056Y2977652D01*
X36516982Y3189501D01*
X36327000Y3129193D01*
X36073000Y3129193D01*
X35883018Y3189501D01*
X35451944Y2977652D01*
X35134755Y2616964D01*
X35010511Y2316980D01*
X34740076Y2316980D01*
X34709576Y2470312D01*
X34437501Y2877501D01*
X34030312Y3149576D01*
X33671239Y3221000D01*
X33428761Y3221000D01*
X33069688Y3149576D01*
X32662499Y2877501D01*
X32390424Y2470312D01*
X32294884Y1990000D01*
X23803082Y1990000D01*
X23927324Y2114242D01*
X24007158Y2306980D01*
X29710511Y2306980D01*
X29771373Y2117000D01*
X30773000Y2117000D01*
X30773000Y3119193D01*
X31027000Y3119193D01*
X31027000Y2117000D01*
X32028627Y2117000D01*
X32089489Y2306980D01*
X31965245Y2606964D01*
X31648056Y2967652D01*
X31216982Y3179501D01*
X31027000Y3119193D01*
X30773000Y3119193D01*
X30583018Y3179501D01*
X30151944Y2967652D01*
X29834755Y2606964D01*
X29710511Y2306980D01*
X24007158Y2306980D01*
X24031000Y2364539D01*
X24031000Y2635457D01*
X23927324Y2885754D01*
X23735756Y3077322D01*
X23485459Y3180998D01*
X23214541Y3180998D01*
X22964244Y3077322D01*
X22772676Y2885754D01*
X22669000Y2635457D01*
X8098983Y2635457D01*
X7960967Y2792400D01*
X15402472Y2792400D01*
X15450000Y2782946D01*
X15497528Y2792400D01*
X15497529Y2792400D01*
X15638301Y2820401D01*
X15797935Y2927065D01*
X15824862Y2967363D01*
X15951498Y3094000D01*
X16085459Y3094000D01*
X16335756Y3197676D01*
X16527324Y3389244D01*
X16631000Y3639541D01*
X16631000Y3910459D01*
X16569084Y4059939D01*
X16657257Y4042400D01*
X16704785Y4032946D01*
X16752313Y4042400D01*
X17977472Y4042400D01*
X18025000Y4032946D01*
X18072528Y4042400D01*
X18072529Y4042400D01*
X18213301Y4070401D01*
X18333804Y4150919D01*
X23695979Y4150919D01*
X23695979Y3880001D01*
X23799655Y3629704D01*
X23991223Y3438136D01*
X24241520Y3334460D01*
X24512438Y3334460D01*
X24762735Y3438136D01*
X24954303Y3629704D01*
X24969801Y3667119D01*
X25114244Y3522676D01*
X25364541Y3419000D01*
X25635459Y3419000D01*
X25885756Y3522676D01*
X25980480Y3617400D01*
X30050062Y3617400D01*
X30419688Y3370424D01*
X30778761Y3299000D01*
X31021239Y3299000D01*
X31380312Y3370424D01*
X31787501Y3642499D01*
X32059576Y4049688D01*
X32155116Y4530000D01*
X32294884Y4530000D01*
X32390424Y4049688D01*
X32662499Y3642499D01*
X33069688Y3370424D01*
X33428761Y3299000D01*
X33671239Y3299000D01*
X34030312Y3370424D01*
X34437501Y3642499D01*
X34709576Y4049688D01*
X34805116Y4530000D01*
X34803127Y4540000D01*
X34944884Y4540000D01*
X35040424Y4059688D01*
X35312499Y3652499D01*
X35719688Y3380424D01*
X36078761Y3309000D01*
X36321239Y3309000D01*
X36680312Y3380424D01*
X37087501Y3652499D01*
X37359576Y4059688D01*
X37455116Y4540000D01*
X37359576Y5020312D01*
X37087501Y5427501D01*
X36680312Y5699576D01*
X36321239Y5771000D01*
X36078761Y5771000D01*
X35719688Y5699576D01*
X35312499Y5427501D01*
X35040424Y5020312D01*
X34944884Y4540000D01*
X34803127Y4540000D01*
X34709576Y5010312D01*
X34437501Y5417501D01*
X34030312Y5689576D01*
X33671239Y5761000D01*
X33428761Y5761000D01*
X33069688Y5689576D01*
X32662499Y5417501D01*
X32390424Y5010312D01*
X32294884Y4530000D01*
X32155116Y4530000D01*
X32059576Y5010312D01*
X31787501Y5417501D01*
X31380312Y5689576D01*
X31021239Y5761000D01*
X30778761Y5761000D01*
X30419688Y5689576D01*
X30012499Y5417501D01*
X29740424Y5010312D01*
X29655347Y4582600D01*
X25980480Y4582600D01*
X25885756Y4677324D01*
X25725833Y4743566D01*
X25735756Y4747676D01*
X25927324Y4939244D01*
X26031000Y5189541D01*
X26031000Y5460459D01*
X25927324Y5710756D01*
X25735756Y5902324D01*
X25485459Y6006000D01*
X25214541Y6006000D01*
X24964244Y5902324D01*
X24772676Y5710756D01*
X24669000Y5460459D01*
X24669000Y5189541D01*
X24772676Y4939244D01*
X24964244Y4747676D01*
X25124167Y4681434D01*
X25114244Y4677324D01*
X24922676Y4485756D01*
X24907178Y4448341D01*
X24762735Y4592784D01*
X24512438Y4696460D01*
X24241520Y4696460D01*
X23991223Y4592784D01*
X23799655Y4401216D01*
X23695979Y4150919D01*
X18333804Y4150919D01*
X18372935Y4177065D01*
X18399862Y4217364D01*
X19076499Y4894000D01*
X19210459Y4894000D01*
X19460756Y4997676D01*
X19537500Y5074420D01*
X19589244Y5022676D01*
X19839541Y4919000D01*
X20110459Y4919000D01*
X20360756Y5022676D01*
X20475000Y5136920D01*
X20539244Y5072676D01*
X20789541Y4969000D01*
X21060459Y4969000D01*
X21310756Y5072676D01*
X21502324Y5264244D01*
X21606000Y5514541D01*
X21606000Y5785459D01*
X21502324Y6035756D01*
X21310756Y6227324D01*
X21060459Y6331000D01*
X20789541Y6331000D01*
X20539244Y6227324D01*
X20425000Y6113080D01*
X20360756Y6177324D01*
X20110459Y6281000D01*
X19839541Y6281000D01*
X19589244Y6177324D01*
X19512500Y6100580D01*
X19460756Y6152324D01*
X19210459Y6256000D01*
X18939541Y6256000D01*
X18689244Y6152324D01*
X18662500Y6125580D01*
X18560756Y6227324D01*
X18310459Y6331000D01*
X18039541Y6331000D01*
X17789244Y6227324D01*
X17650000Y6088080D01*
X17510756Y6227324D01*
X17260459Y6331000D01*
X17126499Y6331000D01*
X16610948Y6846550D01*
X16584021Y6886849D01*
X16424387Y6993513D01*
X16283615Y7021514D01*
X16283614Y7021514D01*
X16236086Y7030968D01*
X16188558Y7021514D01*
X15821799Y7021514D01*
X15881042Y7164541D01*
X15881042Y7435459D01*
X15777366Y7685756D01*
X15585798Y7877324D01*
X15335501Y7981000D01*
X15064583Y7981000D01*
X14814286Y7877324D01*
X14622718Y7685756D01*
X14519042Y7435459D01*
X14519042Y7164541D01*
X14578285Y7021514D01*
X12531000Y7021514D01*
X12531000Y7285459D01*
X12427324Y7535756D01*
X12235756Y7727324D01*
X11985459Y7831000D01*
X11714541Y7831000D01*
X11464244Y7727324D01*
X11272676Y7535756D01*
X11169000Y7285459D01*
X11169000Y7021514D01*
X10860985Y7021514D01*
X8932600Y8949898D01*
X8932600Y10252473D01*
X8942054Y10300001D01*
X8928647Y10367400D01*
X8904599Y10488301D01*
X8797935Y10647935D01*
X8757639Y10674860D01*
X8274862Y11157637D01*
X8247935Y11197935D01*
X8088301Y11304599D01*
X7974124Y11327310D01*
X8209576Y11679688D01*
X8305116Y12160000D01*
X8209576Y12640312D01*
X7937501Y13047501D01*
X7530312Y13319576D01*
X7171239Y13391000D01*
X6928761Y13391000D01*
X6569688Y13319576D01*
X6162499Y13047501D01*
X5890424Y12640312D01*
X5794884Y12160000D01*
X5890424Y11679688D01*
X6066848Y11415651D01*
X5599931Y11882567D01*
X5655116Y12160000D01*
X5559576Y12640312D01*
X5287501Y13047501D01*
X4880312Y13319576D01*
X4521239Y13391000D01*
X4278761Y13391000D01*
X3919688Y13319576D01*
X3512499Y13047501D01*
X3240424Y12640312D01*
X3144884Y12160000D01*
X3005116Y12160000D01*
X2909576Y12640312D01*
X2637501Y13047501D01*
X2230312Y13319576D01*
X1871239Y13391000D01*
X1628761Y13391000D01*
X1269688Y13319576D01*
X862499Y13047501D01*
X590424Y12640312D01*
X494884Y12160000D01*
X456000Y12160000D01*
X456000Y15550000D01*
X511536Y15550000D01*
X511536Y13850000D01*
X541106Y13701341D01*
X625314Y13575314D01*
X751341Y13491106D01*
X900000Y13461536D01*
X2600000Y13461536D01*
X2748659Y13491106D01*
X2874686Y13575314D01*
X2958894Y13701341D01*
X2988464Y13850000D01*
X2988464Y15550000D01*
X3161536Y15550000D01*
X3161536Y13850000D01*
X3191106Y13701341D01*
X3275314Y13575314D01*
X3401341Y13491106D01*
X3550000Y13461536D01*
X5250000Y13461536D01*
X5398659Y13491106D01*
X5524686Y13575314D01*
X5608894Y13701341D01*
X5638464Y13850000D01*
X5638464Y15550000D01*
X5811536Y15550000D01*
X5811536Y13850000D01*
X5841106Y13701341D01*
X5925314Y13575314D01*
X6051341Y13491106D01*
X6200000Y13461536D01*
X7900000Y13461536D01*
X8048659Y13491106D01*
X8174686Y13575314D01*
X8258894Y13701341D01*
X8288464Y13850000D01*
X8288464Y15550000D01*
X8258894Y15698659D01*
X8174686Y15824686D01*
X8048659Y15908894D01*
X7900000Y15938464D01*
X6200000Y15938464D01*
X6051341Y15908894D01*
X5925314Y15824686D01*
X5841106Y15698659D01*
X5811536Y15550000D01*
X5638464Y15550000D01*
X5608894Y15698659D01*
X5524686Y15824686D01*
X5398659Y15908894D01*
X5250000Y15938464D01*
X3550000Y15938464D01*
X3401341Y15908894D01*
X3275314Y15824686D01*
X3191106Y15698659D01*
X3161536Y15550000D01*
X2988464Y15550000D01*
X2958894Y15698659D01*
X2874686Y15824686D01*
X2748659Y15908894D01*
X2600000Y15938464D01*
X900000Y15938464D01*
X751341Y15908894D01*
X625314Y15824686D01*
X541106Y15698659D01*
X511536Y15550000D01*
X456000Y15550000D01*
X456000Y16010459D01*
X10594000Y16010459D01*
X10594000Y15739541D01*
X10697676Y15489244D01*
X10889244Y15297676D01*
X11139541Y15194000D01*
X11410459Y15194000D01*
X11660756Y15297676D01*
X11768180Y15405100D01*
X16348000Y15405100D01*
X16348000Y15225000D01*
X16357667Y15176399D01*
X16385197Y15135197D01*
X16685197Y14835197D01*
X16726399Y14807667D01*
X16775000Y14798000D01*
X17225000Y14798000D01*
X17273601Y14807667D01*
X17314803Y14835197D01*
X17614803Y15135197D01*
X17642333Y15176399D01*
X17652000Y15225000D01*
X17652000Y15575000D01*
X17642333Y15623601D01*
X17614803Y15664803D01*
X17438596Y15841010D01*
X17635756Y15922676D01*
X17827324Y16114244D01*
X17931000Y16364541D01*
X17931000Y16635459D01*
X17827324Y16885756D01*
X17635756Y17077324D01*
X17603687Y17090607D01*
X17677324Y17164244D01*
X17781000Y17414541D01*
X17781000Y17685459D01*
X17721088Y17830100D01*
X20906820Y17830100D01*
X21014244Y17722676D01*
X21264541Y17619000D01*
X21535459Y17619000D01*
X21785756Y17722676D01*
X21977324Y17914244D01*
X22081000Y18164541D01*
X22081000Y18435459D01*
X21977324Y18685756D01*
X21785756Y18877324D01*
X21535459Y18981000D01*
X21264541Y18981000D01*
X21014244Y18877324D01*
X20906820Y18769900D01*
X16719639Y18769900D01*
X16581000Y18908539D01*
X16581000Y19060459D01*
X16477324Y19310756D01*
X16285756Y19502324D01*
X16035459Y19606000D01*
X15764541Y19606000D01*
X15514244Y19502324D01*
X15322676Y19310756D01*
X15219000Y19060459D01*
X15219000Y18789541D01*
X15322676Y18539244D01*
X15514244Y18347676D01*
X15764541Y18244000D01*
X15916461Y18244000D01*
X16140561Y18019900D01*
X12393180Y18019900D01*
X12260756Y18152324D01*
X12010459Y18256000D01*
X11739541Y18256000D01*
X11489244Y18152324D01*
X11297676Y17960756D01*
X11194000Y17710459D01*
X11194000Y17439541D01*
X11297676Y17189244D01*
X11489244Y16997676D01*
X11739541Y16894000D01*
X12010459Y16894000D01*
X12260756Y16997676D01*
X12343180Y17080100D01*
X13085560Y17080100D01*
X12958147Y17027324D01*
X12766579Y16835756D01*
X12662903Y16585459D01*
X12662903Y16344900D01*
X11768180Y16344900D01*
X11660756Y16452324D01*
X11410459Y16556000D01*
X11139541Y16556000D01*
X10889244Y16452324D01*
X10697676Y16260756D01*
X10594000Y16010459D01*
X456000Y16010459D01*
X456000Y18035459D01*
X3719000Y18035459D01*
X3719000Y17764541D01*
X3822676Y17514244D01*
X4014244Y17322676D01*
X4264541Y17219000D01*
X4535459Y17219000D01*
X4785756Y17322676D01*
X4977324Y17514244D01*
X5081000Y17764541D01*
X5081000Y18035459D01*
X4977324Y18285756D01*
X4785756Y18477324D01*
X4535459Y18581000D01*
X4264541Y18581000D01*
X4014244Y18477324D01*
X3822676Y18285756D01*
X3719000Y18035459D01*
X456000Y18035459D01*
X456000Y19935459D01*
X619000Y19935459D01*
X619000Y19664541D01*
X722676Y19414244D01*
X914244Y19222676D01*
X1164541Y19119000D01*
X1435459Y19119000D01*
X1685756Y19222676D01*
X1877324Y19414244D01*
X1981000Y19664541D01*
X1981000Y19935459D01*
X1960290Y19985459D01*
X4719000Y19985459D01*
X4719000Y19714541D01*
X4822676Y19464244D01*
X5014244Y19272676D01*
X5264541Y19169000D01*
X5535459Y19169000D01*
X5785756Y19272676D01*
X5977324Y19464244D01*
X6081000Y19714541D01*
X6081000Y19848502D01*
X7149899Y20917400D01*
X20819520Y20917400D01*
X20914244Y20822676D01*
X21164541Y20719000D01*
X21435459Y20719000D01*
X21685756Y20822676D01*
X21877324Y21014244D01*
X21981000Y21264541D01*
X21981000Y21535459D01*
X21877324Y21785756D01*
X21685756Y21977324D01*
X21435459Y22081000D01*
X21164541Y22081000D01*
X20914244Y21977324D01*
X20819520Y21882600D01*
X20801348Y21882600D01*
X20856000Y22014541D01*
X20856000Y22285459D01*
X20752324Y22535756D01*
X20560756Y22727324D01*
X20310459Y22831000D01*
X20176499Y22831000D01*
X15899862Y27107636D01*
X15872935Y27147935D01*
X15713301Y27254599D01*
X15572529Y27282600D01*
X15572528Y27282600D01*
X15525000Y27292054D01*
X15477472Y27282600D01*
X7180480Y27282600D01*
X7085756Y27377324D01*
X6835459Y27481000D01*
X6564541Y27481000D01*
X6314244Y27377324D01*
X6122676Y27185756D01*
X6019000Y26935459D01*
X6019000Y26664541D01*
X6122676Y26414244D01*
X6314244Y26222676D01*
X6564541Y26119000D01*
X6835459Y26119000D01*
X7085756Y26222676D01*
X7180480Y26317400D01*
X13829320Y26317400D01*
X13697676Y26185756D01*
X13594000Y25935459D01*
X13594000Y25664541D01*
X13697676Y25414244D01*
X13889244Y25222676D01*
X14139541Y25119000D01*
X14410459Y25119000D01*
X14660756Y25222676D01*
X14852324Y25414244D01*
X14956000Y25664541D01*
X14956000Y25935459D01*
X14852324Y26185756D01*
X14720680Y26317400D01*
X15325102Y26317400D01*
X19494000Y22148501D01*
X19494000Y22014541D01*
X19548652Y21882600D01*
X11847059Y21882600D01*
X11881000Y21964541D01*
X11881000Y22235459D01*
X11777324Y22485756D01*
X11585756Y22677324D01*
X11335459Y22781000D01*
X11064541Y22781000D01*
X10814244Y22677324D01*
X10622676Y22485756D01*
X10519000Y22235459D01*
X10519000Y21964541D01*
X10552941Y21882600D01*
X10081000Y21882600D01*
X10081000Y22135459D01*
X9977324Y22385756D01*
X9785756Y22577324D01*
X9535459Y22681000D01*
X9264541Y22681000D01*
X9014244Y22577324D01*
X8822676Y22385756D01*
X8719000Y22135459D01*
X8719000Y21882600D01*
X6997527Y21882600D01*
X6949999Y21892054D01*
X6902471Y21882600D01*
X6761699Y21854599D01*
X6602065Y21747935D01*
X6575140Y21707639D01*
X5398502Y20531000D01*
X5264541Y20531000D01*
X5014244Y20427324D01*
X4822676Y20235756D01*
X4719000Y19985459D01*
X1960290Y19985459D01*
X1877324Y20185756D01*
X1685756Y20377324D01*
X1435459Y20481000D01*
X1164541Y20481000D01*
X914244Y20377324D01*
X722676Y20185756D01*
X619000Y19935459D01*
X456000Y19935459D01*
X456000Y21655351D01*
X2219000Y21655351D01*
X2219000Y21344649D01*
X2337900Y21057599D01*
X2557599Y20837900D01*
X2844649Y20719000D01*
X3155351Y20719000D01*
X3442401Y20837900D01*
X3662100Y21057599D01*
X3781000Y21344649D01*
X3781000Y21655351D01*
X3662100Y21942401D01*
X3442401Y22162100D01*
X3155351Y22281000D01*
X2844649Y22281000D01*
X2557599Y22162100D01*
X2337900Y21942401D01*
X2219000Y21655351D01*
X456000Y21655351D01*
X456000Y24635459D01*
X14519000Y24635459D01*
X14519000Y24364541D01*
X14622676Y24114244D01*
X14814244Y23922676D01*
X15064541Y23819000D01*
X15335459Y23819000D01*
X15585756Y23922676D01*
X15777324Y24114244D01*
X15881000Y24364541D01*
X15881000Y24635459D01*
X15777324Y24885756D01*
X15585756Y25077324D01*
X15335459Y25181000D01*
X15064541Y25181000D01*
X14814244Y25077324D01*
X14622676Y24885756D01*
X14519000Y24635459D01*
X456000Y24635459D01*
X456000Y29844861D01*
X7369000Y29844861D01*
X7369000Y29355139D01*
X7556408Y28902694D01*
X7902694Y28556408D01*
X8355139Y28369000D01*
X8844861Y28369000D01*
X9297306Y28556408D01*
X9643592Y28902694D01*
X9831000Y29355139D01*
X9831000Y29844861D01*
X9643592Y30297306D01*
X9297306Y30643592D01*
X8844861Y30831000D01*
X8355139Y30831000D01*
X7902694Y30643592D01*
X7556408Y30297306D01*
X7369000Y29844861D01*
X456000Y29844861D01*
X456000Y33635459D01*
X11519000Y33635459D01*
X11519000Y33364541D01*
X11622676Y33114244D01*
X11814244Y32922676D01*
X12064541Y32819000D01*
X12335459Y32819000D01*
X12585756Y32922676D01*
X12777324Y33114244D01*
X12881000Y33364541D01*
X12881000Y33635459D01*
X12777324Y33885756D01*
X12585756Y34077324D01*
X12335459Y34181000D01*
X12064541Y34181000D01*
X11814244Y34077324D01*
X11622676Y33885756D01*
X11519000Y33635459D01*
X456000Y33635459D01*
X456000Y36844861D01*
X7369000Y36844861D01*
X7369000Y36355139D01*
X7556408Y35902694D01*
X7902694Y35556408D01*
X8355139Y35369000D01*
X8844861Y35369000D01*
X9297306Y35556408D01*
X9643592Y35902694D01*
X9831000Y36355139D01*
X9831000Y36844861D01*
X9643592Y37297306D01*
X9297306Y37643592D01*
X8844861Y37831000D01*
X8355139Y37831000D01*
X7902694Y37643592D01*
X7556408Y37297306D01*
X7369000Y36844861D01*
X456000Y36844861D01*
X456000Y38099630D01*
X458611Y38104960D01*
X475654Y38178489D01*
X542264Y38621546D01*
X704906Y38960246D01*
X959946Y39236147D01*
X1284839Y39424860D01*
X1677013Y39515761D01*
X1768885Y39519371D01*
X1897993Y39544000D01*
X22873000Y39544000D01*
X22873000Y39055499D01*
G36*
X21444000Y12885459D02*
X21444000Y12733539D01*
X20830362Y12119900D01*
X14654054Y12119900D01*
X14660756Y12122676D01*
X14852324Y12314244D01*
X14956000Y12564541D01*
X14956000Y12835459D01*
X14911704Y12942400D01*
X21467586Y12942400D01*
X21444000Y12885459D01*
X21444000Y12885459D01*
G37*
X21444000Y12885459D02*
X21444000Y12733539D01*
X20830362Y12119900D01*
X14654054Y12119900D01*
X14660756Y12122676D01*
X14852324Y12314244D01*
X14956000Y12564541D01*
X14956000Y12835459D01*
X14911704Y12942400D01*
X21467586Y12942400D01*
X21444000Y12885459D01*
G04 #@! TD*
M02*
