G04 #@! TF.GenerationSoftware,KiCad,Pcbnew,(5.0.1-3-g963ef8bb5)*
G04 #@! TF.CreationDate,2019-03-19T16:07:13-04:00*
G04 #@! TF.ProjectId,Tympan_AIC_Shield,54796D70616E5F4149435F536869656C,rev?*
G04 #@! TF.SameCoordinates,PX6d878d0PY5279480*
G04 #@! TF.FileFunction,Legend,Bot*
G04 #@! TF.FilePolarity,Positive*
%FSLAX46Y46*%
G04 Gerber Fmt 4.6, Leading zero omitted, Abs format (unit mm)*
G04 Created by KiCad (PCBNEW (5.0.1-3-g963ef8bb5)) date Tuesday, March 19, 2019 at 04:07:13 PM*
%MOMM*%
%LPD*%
G01*
G04 APERTURE LIST*
%ADD10C,0.200000*%
%ADD11C,0.250000*%
%ADD12C,0.100000*%
%ADD13C,0.010000*%
%ADD14C,0.127000*%
G04 APERTURE END LIST*
D10*
X5308333Y23397620D02*
X5641666Y23873810D01*
X5879761Y23397620D02*
X5879761Y24397620D01*
X5498809Y24397620D01*
X5403571Y24350000D01*
X5355952Y24302381D01*
X5308333Y24207143D01*
X5308333Y24064286D01*
X5355952Y23969048D01*
X5403571Y23921429D01*
X5498809Y23873810D01*
X5879761Y23873810D01*
X4879761Y23397620D02*
X4879761Y24397620D01*
X3879761Y24350000D02*
X3975000Y24397620D01*
X4117857Y24397620D01*
X4260714Y24350000D01*
X4355952Y24254762D01*
X4403571Y24159524D01*
X4451190Y23969048D01*
X4451190Y23826191D01*
X4403571Y23635715D01*
X4355952Y23540477D01*
X4260714Y23445239D01*
X4117857Y23397620D01*
X4022619Y23397620D01*
X3879761Y23445239D01*
X3832142Y23492858D01*
X3832142Y23826191D01*
X4022619Y23826191D01*
X3403571Y23397620D02*
X3403571Y24397620D01*
X3403571Y23921429D02*
X2832142Y23921429D01*
X2832142Y23397620D02*
X2832142Y24397620D01*
X2498809Y24397620D02*
X1927380Y24397620D01*
X2213095Y23397620D02*
X2213095Y24397620D01*
X35402380Y23772620D02*
X35878571Y23772620D01*
X35878571Y24772620D01*
X35069047Y24296429D02*
X34735714Y24296429D01*
X34592857Y23772620D02*
X35069047Y23772620D01*
X35069047Y24772620D01*
X34592857Y24772620D01*
X33830952Y24296429D02*
X34164285Y24296429D01*
X34164285Y23772620D02*
X34164285Y24772620D01*
X33688095Y24772620D01*
X33450000Y24772620D02*
X32878571Y24772620D01*
X33164285Y23772620D02*
X33164285Y24772620D01*
X10728571Y38272620D02*
X10728571Y39272620D01*
X10252380Y38272620D02*
X10252380Y39272620D01*
X9680952Y38272620D01*
X9680952Y39272620D01*
X9204761Y38272620D02*
X9204761Y39272620D01*
X8823809Y39272620D01*
X8728571Y39225000D01*
X8680952Y39177381D01*
X8633333Y39082143D01*
X8633333Y38939286D01*
X8680952Y38844048D01*
X8728571Y38796429D01*
X8823809Y38748810D01*
X9204761Y38748810D01*
X8204761Y39272620D02*
X8204761Y38463096D01*
X8157142Y38367858D01*
X8109523Y38320239D01*
X8014285Y38272620D01*
X7823809Y38272620D01*
X7728571Y38320239D01*
X7680952Y38367858D01*
X7633333Y38463096D01*
X7633333Y39272620D01*
X7300000Y39272620D02*
X6728571Y39272620D01*
X7014285Y38272620D02*
X7014285Y39272620D01*
X31779761Y39147620D02*
X31589285Y39147620D01*
X31494047Y39100000D01*
X31398809Y39004762D01*
X31351190Y38814286D01*
X31351190Y38480953D01*
X31398809Y38290477D01*
X31494047Y38195239D01*
X31589285Y38147620D01*
X31779761Y38147620D01*
X31875000Y38195239D01*
X31970238Y38290477D01*
X32017857Y38480953D01*
X32017857Y38814286D01*
X31970238Y39004762D01*
X31875000Y39100000D01*
X31779761Y39147620D01*
X30922619Y39147620D02*
X30922619Y38338096D01*
X30875000Y38242858D01*
X30827380Y38195239D01*
X30732142Y38147620D01*
X30541666Y38147620D01*
X30446428Y38195239D01*
X30398809Y38242858D01*
X30351190Y38338096D01*
X30351190Y39147620D01*
X30017857Y39147620D02*
X29446428Y39147620D01*
X29732142Y38147620D02*
X29732142Y39147620D01*
X29113095Y38147620D02*
X29113095Y39147620D01*
X28732142Y39147620D01*
X28636904Y39100000D01*
X28589285Y39052381D01*
X28541666Y38957143D01*
X28541666Y38814286D01*
X28589285Y38719048D01*
X28636904Y38671429D01*
X28732142Y38623810D01*
X29113095Y38623810D01*
X28113095Y39147620D02*
X28113095Y38338096D01*
X28065476Y38242858D01*
X28017857Y38195239D01*
X27922619Y38147620D01*
X27732142Y38147620D01*
X27636904Y38195239D01*
X27589285Y38242858D01*
X27541666Y38338096D01*
X27541666Y39147620D01*
X27208333Y39147620D02*
X26636904Y39147620D01*
X26922619Y38147620D02*
X26922619Y39147620D01*
X24809523Y15564286D02*
X24619047Y14897620D01*
X24428571Y15373810D01*
X24238095Y14897620D01*
X24047619Y15564286D01*
X23761904Y15564286D02*
X23571428Y14897620D01*
X23380952Y15373810D01*
X23190476Y14897620D01*
X23000000Y15564286D01*
X22714285Y15564286D02*
X22523809Y14897620D01*
X22333333Y15373810D01*
X22142857Y14897620D01*
X21952380Y15564286D01*
X21571428Y14992858D02*
X21523809Y14945239D01*
X21571428Y14897620D01*
X21619047Y14945239D01*
X21571428Y14992858D01*
X21571428Y14897620D01*
X21238095Y15564286D02*
X20857142Y15564286D01*
X21095238Y15897620D02*
X21095238Y15040477D01*
X21047619Y14945239D01*
X20952380Y14897620D01*
X20857142Y14897620D01*
X20619047Y15564286D02*
X20380952Y14897620D01*
X20142857Y15564286D02*
X20380952Y14897620D01*
X20476190Y14659524D01*
X20523809Y14611905D01*
X20619047Y14564286D01*
X19761904Y14897620D02*
X19761904Y15564286D01*
X19761904Y15469048D02*
X19714285Y15516667D01*
X19619047Y15564286D01*
X19476190Y15564286D01*
X19380952Y15516667D01*
X19333333Y15421429D01*
X19333333Y14897620D01*
X19333333Y15421429D02*
X19285714Y15516667D01*
X19190476Y15564286D01*
X19047619Y15564286D01*
X18952380Y15516667D01*
X18904761Y15421429D01*
X18904761Y14897620D01*
X18428571Y15564286D02*
X18428571Y14564286D01*
X18428571Y15516667D02*
X18333333Y15564286D01*
X18142857Y15564286D01*
X18047619Y15516667D01*
X18000000Y15469048D01*
X17952380Y15373810D01*
X17952380Y15088096D01*
X18000000Y14992858D01*
X18047619Y14945239D01*
X18142857Y14897620D01*
X18333333Y14897620D01*
X18428571Y14945239D01*
X17095238Y14897620D02*
X17095238Y15421429D01*
X17142857Y15516667D01*
X17238095Y15564286D01*
X17428571Y15564286D01*
X17523809Y15516667D01*
X17095238Y14945239D02*
X17190476Y14897620D01*
X17428571Y14897620D01*
X17523809Y14945239D01*
X17571428Y15040477D01*
X17571428Y15135715D01*
X17523809Y15230953D01*
X17428571Y15278572D01*
X17190476Y15278572D01*
X17095238Y15326191D01*
X16619047Y15564286D02*
X16619047Y14897620D01*
X16619047Y15469048D02*
X16571428Y15516667D01*
X16476190Y15564286D01*
X16333333Y15564286D01*
X16238095Y15516667D01*
X16190476Y15421429D01*
X16190476Y14897620D01*
X15714285Y14992858D02*
X15666666Y14945239D01*
X15714285Y14897620D01*
X15761904Y14945239D01*
X15714285Y14992858D01*
X15714285Y14897620D01*
X15095238Y14897620D02*
X15190476Y14945239D01*
X15238095Y14992858D01*
X15285714Y15088096D01*
X15285714Y15373810D01*
X15238095Y15469048D01*
X15190476Y15516667D01*
X15095238Y15564286D01*
X14952380Y15564286D01*
X14857142Y15516667D01*
X14809523Y15469048D01*
X14761904Y15373810D01*
X14761904Y15088096D01*
X14809523Y14992858D01*
X14857142Y14945239D01*
X14952380Y14897620D01*
X15095238Y14897620D01*
X14333333Y14897620D02*
X14333333Y15564286D01*
X14333333Y15373810D02*
X14285714Y15469048D01*
X14238095Y15516667D01*
X14142857Y15564286D01*
X14047619Y15564286D01*
X13285714Y15564286D02*
X13285714Y14754762D01*
X13333333Y14659524D01*
X13380952Y14611905D01*
X13476190Y14564286D01*
X13619047Y14564286D01*
X13714285Y14611905D01*
X13285714Y14945239D02*
X13380952Y14897620D01*
X13571428Y14897620D01*
X13666666Y14945239D01*
X13714285Y14992858D01*
X13761904Y15088096D01*
X13761904Y15373810D01*
X13714285Y15469048D01*
X13666666Y15516667D01*
X13571428Y15564286D01*
X13380952Y15564286D01*
X13285714Y15516667D01*
X25666666Y13864286D02*
X25666666Y13054762D01*
X25714285Y12959524D01*
X25761904Y12911905D01*
X25857142Y12864286D01*
X26000000Y12864286D01*
X26095238Y12911905D01*
X25666666Y13245239D02*
X25761904Y13197620D01*
X25952380Y13197620D01*
X26047619Y13245239D01*
X26095238Y13292858D01*
X26142857Y13388096D01*
X26142857Y13673810D01*
X26095238Y13769048D01*
X26047619Y13816667D01*
X25952380Y13864286D01*
X25761904Y13864286D01*
X25666666Y13816667D01*
X25190476Y13197620D02*
X25190476Y13864286D01*
X25190476Y14197620D02*
X25238095Y14150000D01*
X25190476Y14102381D01*
X25142857Y14150000D01*
X25190476Y14197620D01*
X25190476Y14102381D01*
X24857142Y13864286D02*
X24476190Y13864286D01*
X24714285Y14197620D02*
X24714285Y13340477D01*
X24666666Y13245239D01*
X24571428Y13197620D01*
X24476190Y13197620D01*
X24142857Y13197620D02*
X24142857Y14197620D01*
X23714285Y13197620D02*
X23714285Y13721429D01*
X23761904Y13816667D01*
X23857142Y13864286D01*
X24000000Y13864286D01*
X24095238Y13816667D01*
X24142857Y13769048D01*
X22809523Y13864286D02*
X22809523Y13197620D01*
X23238095Y13864286D02*
X23238095Y13340477D01*
X23190476Y13245239D01*
X23095238Y13197620D01*
X22952380Y13197620D01*
X22857142Y13245239D01*
X22809523Y13292858D01*
X22333333Y13197620D02*
X22333333Y14197620D01*
X22333333Y13816667D02*
X22238095Y13864286D01*
X22047619Y13864286D01*
X21952380Y13816667D01*
X21904761Y13769048D01*
X21857142Y13673810D01*
X21857142Y13388096D01*
X21904761Y13292858D01*
X21952380Y13245239D01*
X22047619Y13197620D01*
X22238095Y13197620D01*
X22333333Y13245239D01*
X21428571Y13292858D02*
X21380952Y13245239D01*
X21428571Y13197620D01*
X21476190Y13245239D01*
X21428571Y13292858D01*
X21428571Y13197620D01*
X20523809Y13245239D02*
X20619047Y13197620D01*
X20809523Y13197620D01*
X20904761Y13245239D01*
X20952380Y13292858D01*
X21000000Y13388096D01*
X21000000Y13673810D01*
X20952380Y13769048D01*
X20904761Y13816667D01*
X20809523Y13864286D01*
X20619047Y13864286D01*
X20523809Y13816667D01*
X19952380Y13197620D02*
X20047619Y13245239D01*
X20095238Y13292858D01*
X20142857Y13388096D01*
X20142857Y13673810D01*
X20095238Y13769048D01*
X20047619Y13816667D01*
X19952380Y13864286D01*
X19809523Y13864286D01*
X19714285Y13816667D01*
X19666666Y13769048D01*
X19619047Y13673810D01*
X19619047Y13388096D01*
X19666666Y13292858D01*
X19714285Y13245239D01*
X19809523Y13197620D01*
X19952380Y13197620D01*
X19190476Y13197620D02*
X19190476Y13864286D01*
X19190476Y13769048D02*
X19142857Y13816667D01*
X19047619Y13864286D01*
X18904761Y13864286D01*
X18809523Y13816667D01*
X18761904Y13721429D01*
X18761904Y13197620D01*
X18761904Y13721429D02*
X18714285Y13816667D01*
X18619047Y13864286D01*
X18476190Y13864286D01*
X18380952Y13816667D01*
X18333333Y13721429D01*
X18333333Y13197620D01*
X17142857Y14245239D02*
X18000000Y12959524D01*
X16952380Y13864286D02*
X16571428Y13864286D01*
X16809523Y14197620D02*
X16809523Y13340477D01*
X16761904Y13245239D01*
X16666666Y13197620D01*
X16571428Y13197620D01*
X16333333Y13864286D02*
X16095238Y13197620D01*
X15857142Y13864286D02*
X16095238Y13197620D01*
X16190476Y12959524D01*
X16238095Y12911905D01*
X16333333Y12864286D01*
X15476190Y13197620D02*
X15476190Y13864286D01*
X15476190Y13769048D02*
X15428571Y13816667D01*
X15333333Y13864286D01*
X15190476Y13864286D01*
X15095238Y13816667D01*
X15047619Y13721429D01*
X15047619Y13197620D01*
X15047619Y13721429D02*
X15000000Y13816667D01*
X14904761Y13864286D01*
X14761904Y13864286D01*
X14666666Y13816667D01*
X14619047Y13721429D01*
X14619047Y13197620D01*
X14142857Y13864286D02*
X14142857Y12864286D01*
X14142857Y13816667D02*
X14047619Y13864286D01*
X13857142Y13864286D01*
X13761904Y13816667D01*
X13714285Y13769048D01*
X13666666Y13673810D01*
X13666666Y13388096D01*
X13714285Y13292858D01*
X13761904Y13245239D01*
X13857142Y13197620D01*
X14047619Y13197620D01*
X14142857Y13245239D01*
X12809523Y13197620D02*
X12809523Y13721429D01*
X12857142Y13816667D01*
X12952380Y13864286D01*
X13142857Y13864286D01*
X13238095Y13816667D01*
X12809523Y13245239D02*
X12904761Y13197620D01*
X13142857Y13197620D01*
X13238095Y13245239D01*
X13285714Y13340477D01*
X13285714Y13435715D01*
X13238095Y13530953D01*
X13142857Y13578572D01*
X12904761Y13578572D01*
X12809523Y13626191D01*
X12333333Y13864286D02*
X12333333Y13197620D01*
X12333333Y13769048D02*
X12285714Y13816667D01*
X12190476Y13864286D01*
X12047619Y13864286D01*
X11952380Y13816667D01*
X11904761Y13721429D01*
X11904761Y13197620D01*
X30066666Y33897620D02*
X30066666Y34897620D01*
X29828571Y34897620D01*
X29685714Y34850000D01*
X29590476Y34754762D01*
X29542857Y34659524D01*
X29495238Y34469048D01*
X29495238Y34326191D01*
X29542857Y34135715D01*
X29590476Y34040477D01*
X29685714Y33945239D01*
X29828571Y33897620D01*
X30066666Y33897620D01*
X28685714Y33945239D02*
X28780952Y33897620D01*
X28971428Y33897620D01*
X29066666Y33945239D01*
X29114285Y34040477D01*
X29114285Y34421429D01*
X29066666Y34516667D01*
X28971428Y34564286D01*
X28780952Y34564286D01*
X28685714Y34516667D01*
X28638095Y34421429D01*
X28638095Y34326191D01*
X29114285Y34230953D01*
X28257142Y33945239D02*
X28161904Y33897620D01*
X27971428Y33897620D01*
X27876190Y33945239D01*
X27828571Y34040477D01*
X27828571Y34088096D01*
X27876190Y34183334D01*
X27971428Y34230953D01*
X28114285Y34230953D01*
X28209523Y34278572D01*
X28257142Y34373810D01*
X28257142Y34421429D01*
X28209523Y34516667D01*
X28114285Y34564286D01*
X27971428Y34564286D01*
X27876190Y34516667D01*
X27400000Y33897620D02*
X27400000Y34564286D01*
X27400000Y34897620D02*
X27447619Y34850000D01*
X27400000Y34802381D01*
X27352380Y34850000D01*
X27400000Y34897620D01*
X27400000Y34802381D01*
X26495238Y34564286D02*
X26495238Y33754762D01*
X26542857Y33659524D01*
X26590476Y33611905D01*
X26685714Y33564286D01*
X26828571Y33564286D01*
X26923809Y33611905D01*
X26495238Y33945239D02*
X26590476Y33897620D01*
X26780952Y33897620D01*
X26876190Y33945239D01*
X26923809Y33992858D01*
X26971428Y34088096D01*
X26971428Y34373810D01*
X26923809Y34469048D01*
X26876190Y34516667D01*
X26780952Y34564286D01*
X26590476Y34564286D01*
X26495238Y34516667D01*
X26019047Y34564286D02*
X26019047Y33897620D01*
X26019047Y34469048D02*
X25971428Y34516667D01*
X25876190Y34564286D01*
X25733333Y34564286D01*
X25638095Y34516667D01*
X25590476Y34421429D01*
X25590476Y33897620D01*
X24733333Y33945239D02*
X24828571Y33897620D01*
X25019047Y33897620D01*
X25114285Y33945239D01*
X25161904Y34040477D01*
X25161904Y34421429D01*
X25114285Y34516667D01*
X25019047Y34564286D01*
X24828571Y34564286D01*
X24733333Y34516667D01*
X24685714Y34421429D01*
X24685714Y34326191D01*
X25161904Y34230953D01*
X23828571Y33897620D02*
X23828571Y34897620D01*
X23828571Y33945239D02*
X23923809Y33897620D01*
X24114285Y33897620D01*
X24209523Y33945239D01*
X24257142Y33992858D01*
X24304761Y34088096D01*
X24304761Y34373810D01*
X24257142Y34469048D01*
X24209523Y34516667D01*
X24114285Y34564286D01*
X23923809Y34564286D01*
X23828571Y34516667D01*
X22590476Y33897620D02*
X22590476Y34564286D01*
X22590476Y34897620D02*
X22638095Y34850000D01*
X22590476Y34802381D01*
X22542857Y34850000D01*
X22590476Y34897620D01*
X22590476Y34802381D01*
X22114285Y34564286D02*
X22114285Y33897620D01*
X22114285Y34469048D02*
X22066666Y34516667D01*
X21971428Y34564286D01*
X21828571Y34564286D01*
X21733333Y34516667D01*
X21685714Y34421429D01*
X21685714Y33897620D01*
X20114285Y34421429D02*
X19971428Y34373810D01*
X19923809Y34326191D01*
X19876190Y34230953D01*
X19876190Y34088096D01*
X19923809Y33992858D01*
X19971428Y33945239D01*
X20066666Y33897620D01*
X20447619Y33897620D01*
X20447619Y34897620D01*
X20114285Y34897620D01*
X20019047Y34850000D01*
X19971428Y34802381D01*
X19923809Y34707143D01*
X19923809Y34611905D01*
X19971428Y34516667D01*
X20019047Y34469048D01*
X20114285Y34421429D01*
X20447619Y34421429D01*
X19447619Y33897620D02*
X19447619Y34564286D01*
X19447619Y34373810D02*
X19400000Y34469048D01*
X19352380Y34516667D01*
X19257142Y34564286D01*
X19161904Y34564286D01*
X18685714Y33897620D02*
X18780952Y33945239D01*
X18828571Y33992858D01*
X18876190Y34088096D01*
X18876190Y34373810D01*
X18828571Y34469048D01*
X18780952Y34516667D01*
X18685714Y34564286D01*
X18542857Y34564286D01*
X18447619Y34516667D01*
X18400000Y34469048D01*
X18352380Y34373810D01*
X18352380Y34088096D01*
X18400000Y33992858D01*
X18447619Y33945239D01*
X18542857Y33897620D01*
X18685714Y33897620D01*
X17780952Y33897620D02*
X17876190Y33945239D01*
X17923809Y33992858D01*
X17971428Y34088096D01*
X17971428Y34373810D01*
X17923809Y34469048D01*
X17876190Y34516667D01*
X17780952Y34564286D01*
X17638095Y34564286D01*
X17542857Y34516667D01*
X17495238Y34469048D01*
X17447619Y34373810D01*
X17447619Y34088096D01*
X17495238Y33992858D01*
X17542857Y33945239D01*
X17638095Y33897620D01*
X17780952Y33897620D01*
X17019047Y33897620D02*
X17019047Y34897620D01*
X16923809Y34278572D02*
X16638095Y33897620D01*
X16638095Y34564286D02*
X17019047Y34183334D01*
X16066666Y33897620D02*
X16161904Y33945239D01*
X16209523Y34040477D01*
X16209523Y34897620D01*
X15780952Y34564286D02*
X15542857Y33897620D01*
X15304761Y34564286D02*
X15542857Y33897620D01*
X15638095Y33659524D01*
X15685714Y33611905D01*
X15780952Y33564286D01*
X14923809Y34564286D02*
X14923809Y33897620D01*
X14923809Y34469048D02*
X14876190Y34516667D01*
X14780952Y34564286D01*
X14638095Y34564286D01*
X14542857Y34516667D01*
X14495238Y34421429D01*
X14495238Y33897620D01*
X13971428Y33945239D02*
X13971428Y33897620D01*
X14019047Y33802381D01*
X14066666Y33754762D01*
X12780952Y33897620D02*
X12780952Y34897620D01*
X12209523Y33897620D01*
X12209523Y34897620D01*
X11542857Y34373810D02*
X11542857Y33897620D01*
X11876190Y34897620D02*
X11542857Y34373810D01*
X11209523Y34897620D01*
X10114285Y34897620D02*
X10114285Y34088096D01*
X10066666Y33992858D01*
X10019047Y33945239D01*
X9923809Y33897620D01*
X9733333Y33897620D01*
X9638095Y33945239D01*
X9590476Y33992858D01*
X9542857Y34088096D01*
X9542857Y34897620D01*
X9114285Y33945239D02*
X8971428Y33897620D01*
X8733333Y33897620D01*
X8638095Y33945239D01*
X8590476Y33992858D01*
X8542857Y34088096D01*
X8542857Y34183334D01*
X8590476Y34278572D01*
X8638095Y34326191D01*
X8733333Y34373810D01*
X8923809Y34421429D01*
X9019047Y34469048D01*
X9066666Y34516667D01*
X9114285Y34611905D01*
X9114285Y34707143D01*
X9066666Y34802381D01*
X9019047Y34850000D01*
X8923809Y34897620D01*
X8685714Y34897620D01*
X8542857Y34850000D01*
X8161904Y34183334D02*
X7685714Y34183334D01*
X8257142Y33897620D02*
X7923809Y34897620D01*
X7590476Y33897620D01*
X27328571Y32197620D02*
X27328571Y33197620D01*
X26995238Y32483334D01*
X26661904Y33197620D01*
X26661904Y32197620D01*
X25757142Y32197620D02*
X25757142Y32721429D01*
X25804761Y32816667D01*
X25900000Y32864286D01*
X26090476Y32864286D01*
X26185714Y32816667D01*
X25757142Y32245239D02*
X25852380Y32197620D01*
X26090476Y32197620D01*
X26185714Y32245239D01*
X26233333Y32340477D01*
X26233333Y32435715D01*
X26185714Y32530953D01*
X26090476Y32578572D01*
X25852380Y32578572D01*
X25757142Y32626191D01*
X24852380Y32197620D02*
X24852380Y33197620D01*
X24852380Y32245239D02*
X24947619Y32197620D01*
X25138095Y32197620D01*
X25233333Y32245239D01*
X25280952Y32292858D01*
X25328571Y32388096D01*
X25328571Y32673810D01*
X25280952Y32769048D01*
X25233333Y32816667D01*
X25138095Y32864286D01*
X24947619Y32864286D01*
X24852380Y32816667D01*
X23995238Y32245239D02*
X24090476Y32197620D01*
X24280952Y32197620D01*
X24376190Y32245239D01*
X24423809Y32340477D01*
X24423809Y32721429D01*
X24376190Y32816667D01*
X24280952Y32864286D01*
X24090476Y32864286D01*
X23995238Y32816667D01*
X23947619Y32721429D01*
X23947619Y32626191D01*
X24423809Y32530953D01*
X22757142Y32197620D02*
X22757142Y32864286D01*
X22757142Y33197620D02*
X22804761Y33150000D01*
X22757142Y33102381D01*
X22709523Y33150000D01*
X22757142Y33197620D01*
X22757142Y33102381D01*
X22280952Y32864286D02*
X22280952Y32197620D01*
X22280952Y32769048D02*
X22233333Y32816667D01*
X22138095Y32864286D01*
X21995238Y32864286D01*
X21900000Y32816667D01*
X21852380Y32721429D01*
X21852380Y32197620D01*
X20757142Y33197620D02*
X20185714Y33197620D01*
X20471428Y32197620D02*
X20471428Y33197620D01*
X19423809Y32197620D02*
X19423809Y32721429D01*
X19471428Y32816667D01*
X19566666Y32864286D01*
X19757142Y32864286D01*
X19852380Y32816667D01*
X19423809Y32245239D02*
X19519047Y32197620D01*
X19757142Y32197620D01*
X19852380Y32245239D01*
X19900000Y32340477D01*
X19900000Y32435715D01*
X19852380Y32530953D01*
X19757142Y32578572D01*
X19519047Y32578572D01*
X19423809Y32626191D01*
X18947619Y32197620D02*
X18947619Y32864286D01*
X18947619Y33197620D02*
X18995238Y33150000D01*
X18947619Y33102381D01*
X18900000Y33150000D01*
X18947619Y33197620D01*
X18947619Y33102381D01*
X18471428Y32864286D02*
X18471428Y31864286D01*
X18471428Y32816667D02*
X18376190Y32864286D01*
X18185714Y32864286D01*
X18090476Y32816667D01*
X18042857Y32769048D01*
X17995238Y32673810D01*
X17995238Y32388096D01*
X18042857Y32292858D01*
X18090476Y32245239D01*
X18185714Y32197620D01*
X18376190Y32197620D01*
X18471428Y32245239D01*
X17185714Y32245239D02*
X17280952Y32197620D01*
X17471428Y32197620D01*
X17566666Y32245239D01*
X17614285Y32340477D01*
X17614285Y32721429D01*
X17566666Y32816667D01*
X17471428Y32864286D01*
X17280952Y32864286D01*
X17185714Y32816667D01*
X17138095Y32721429D01*
X17138095Y32626191D01*
X17614285Y32530953D01*
X16709523Y32197620D02*
X16709523Y32864286D01*
X16709523Y33197620D02*
X16757142Y33150000D01*
X16709523Y33102381D01*
X16661904Y33150000D01*
X16709523Y33197620D01*
X16709523Y33102381D01*
X16185714Y32245239D02*
X16185714Y32197620D01*
X16233333Y32102381D01*
X16280952Y32054762D01*
X15138095Y33197620D02*
X14566666Y33197620D01*
X14852380Y32197620D02*
X14852380Y33197620D01*
X13804761Y32197620D02*
X13804761Y32721429D01*
X13852380Y32816667D01*
X13947619Y32864286D01*
X14138095Y32864286D01*
X14233333Y32816667D01*
X13804761Y32245239D02*
X13900000Y32197620D01*
X14138095Y32197620D01*
X14233333Y32245239D01*
X14280952Y32340477D01*
X14280952Y32435715D01*
X14233333Y32530953D01*
X14138095Y32578572D01*
X13900000Y32578572D01*
X13804761Y32626191D01*
X13328571Y32197620D02*
X13328571Y32864286D01*
X13328571Y33197620D02*
X13376190Y33150000D01*
X13328571Y33102381D01*
X13280952Y33150000D01*
X13328571Y33197620D01*
X13328571Y33102381D01*
X12947619Y32864286D02*
X12757142Y32197620D01*
X12566666Y32673810D01*
X12376190Y32197620D01*
X12185714Y32864286D01*
X11376190Y32197620D02*
X11376190Y32721429D01*
X11423809Y32816667D01*
X11519047Y32864286D01*
X11709523Y32864286D01*
X11804761Y32816667D01*
X11376190Y32245239D02*
X11471428Y32197620D01*
X11709523Y32197620D01*
X11804761Y32245239D01*
X11852380Y32340477D01*
X11852380Y32435715D01*
X11804761Y32530953D01*
X11709523Y32578572D01*
X11471428Y32578572D01*
X11376190Y32626191D01*
X10900000Y32864286D02*
X10900000Y32197620D01*
X10900000Y32769048D02*
X10852380Y32816667D01*
X10757142Y32864286D01*
X10614285Y32864286D01*
X10519047Y32816667D01*
X10471428Y32721429D01*
X10471428Y32197620D01*
D11*
X30067142Y18834572D02*
X29196285Y18834572D01*
X29631714Y17310572D02*
X29631714Y18834572D01*
X28398000Y18036286D02*
X28398000Y17310572D01*
X28906000Y18834572D02*
X28398000Y18036286D01*
X27890000Y18834572D01*
X27382000Y17310572D02*
X27382000Y18834572D01*
X26874000Y17746000D01*
X26366000Y18834572D01*
X26366000Y17310572D01*
X25640285Y17310572D02*
X25640285Y18834572D01*
X25059714Y18834572D01*
X24914571Y18762000D01*
X24842000Y18689429D01*
X24769428Y18544286D01*
X24769428Y18326572D01*
X24842000Y18181429D01*
X24914571Y18108858D01*
X25059714Y18036286D01*
X25640285Y18036286D01*
X24188857Y17746000D02*
X23463142Y17746000D01*
X24334000Y17310572D02*
X23826000Y18834572D01*
X23318000Y17310572D01*
X22810000Y17310572D02*
X22810000Y18834572D01*
X21939142Y17310572D01*
X21939142Y18834572D01*
X20124857Y17746000D02*
X19399142Y17746000D01*
X20270000Y17310572D02*
X19762000Y18834572D01*
X19254000Y17310572D01*
X18746000Y17310572D02*
X18746000Y18834572D01*
X17149428Y17455715D02*
X17222000Y17383143D01*
X17439714Y17310572D01*
X17584857Y17310572D01*
X17802571Y17383143D01*
X17947714Y17528286D01*
X18020285Y17673429D01*
X18092857Y17963715D01*
X18092857Y18181429D01*
X18020285Y18471715D01*
X17947714Y18616858D01*
X17802571Y18762000D01*
X17584857Y18834572D01*
X17439714Y18834572D01*
X17222000Y18762000D01*
X17149428Y18689429D01*
X15407714Y17383143D02*
X15190000Y17310572D01*
X14827142Y17310572D01*
X14682000Y17383143D01*
X14609428Y17455715D01*
X14536857Y17600858D01*
X14536857Y17746000D01*
X14609428Y17891143D01*
X14682000Y17963715D01*
X14827142Y18036286D01*
X15117428Y18108858D01*
X15262571Y18181429D01*
X15335142Y18254000D01*
X15407714Y18399143D01*
X15407714Y18544286D01*
X15335142Y18689429D01*
X15262571Y18762000D01*
X15117428Y18834572D01*
X14754571Y18834572D01*
X14536857Y18762000D01*
X13883714Y17310572D02*
X13883714Y18834572D01*
X13883714Y18108858D02*
X13012857Y18108858D01*
X13012857Y17310572D02*
X13012857Y18834572D01*
X12287142Y17310572D02*
X12287142Y18834572D01*
X11561428Y18108858D02*
X11053428Y18108858D01*
X10835714Y17310572D02*
X11561428Y17310572D01*
X11561428Y18834572D01*
X10835714Y18834572D01*
X9456857Y17310572D02*
X10182571Y17310572D01*
X10182571Y18834572D01*
X8948857Y17310572D02*
X8948857Y18834572D01*
X8586000Y18834572D01*
X8368285Y18762000D01*
X8223142Y18616858D01*
X8150571Y18471715D01*
X8078000Y18181429D01*
X8078000Y17963715D01*
X8150571Y17673429D01*
X8223142Y17528286D01*
X8368285Y17383143D01*
X8586000Y17310572D01*
X8948857Y17310572D01*
D12*
G04 #@! TO.C,MIC1*
X33000000Y23000000D02*
X33000000Y18250000D01*
X33000000Y18250000D02*
X37000000Y18250000D01*
X37000000Y18250000D02*
X37000000Y23000000D01*
X37000000Y23000000D02*
X33000000Y23000000D01*
D13*
G04 #@! TO.C,G\002A\002A\002A*
G36*
X17073442Y30758056D02*
X16202488Y30535696D01*
X15698000Y30327495D01*
X15218417Y30027662D01*
X14741422Y29608505D01*
X14310540Y29115012D01*
X13969296Y28592169D01*
X13912842Y28482333D01*
X13794544Y28233863D01*
X13713991Y28032309D01*
X13664035Y27835412D01*
X13637527Y27600914D01*
X13627319Y27286555D01*
X13626263Y26850077D01*
X13626409Y26789000D01*
X13630975Y26315126D01*
X13645937Y25966182D01*
X13677306Y25697823D01*
X13731095Y25465702D01*
X13813315Y25225473D01*
X13851784Y25126567D01*
X14296796Y24226945D01*
X14890095Y23403347D01*
X15407818Y22857164D01*
X16026475Y22312451D01*
X16627458Y21883633D01*
X17266757Y21537331D01*
X18000362Y21240165D01*
X18280333Y21144682D01*
X18722875Y21039769D01*
X19272419Y20969191D01*
X19869663Y20935402D01*
X20455305Y20940858D01*
X20970041Y20988015D01*
X21169623Y21025058D01*
X21947539Y21282821D01*
X22661669Y21676718D01*
X23284513Y22187273D01*
X23788570Y22795009D01*
X23886345Y22949044D01*
X24202957Y23636740D01*
X24373909Y24384534D01*
X24394726Y24966246D01*
X24164667Y24966246D01*
X24085545Y24173206D01*
X23854498Y23444346D01*
X23481009Y22792637D01*
X22974557Y22231052D01*
X22344624Y21772560D01*
X21600689Y21430133D01*
X21573141Y21420560D01*
X21148321Y21291424D01*
X20869476Y21246612D01*
X20735754Y21286096D01*
X20737849Y21391500D01*
X20772381Y21543575D01*
X20807176Y21812276D01*
X20835714Y22145035D01*
X20840236Y22217000D01*
X20843892Y22344000D01*
X20566102Y22344000D01*
X20558899Y21858793D01*
X20521078Y21520979D01*
X20427833Y21308718D01*
X20254359Y21200172D01*
X19975851Y21173500D01*
X19567504Y21206862D01*
X19310761Y21238731D01*
X19015241Y21282030D01*
X18792113Y21324465D01*
X18688825Y21356984D01*
X18688302Y21357476D01*
X18681952Y21468517D01*
X18738250Y21687952D01*
X18841319Y21974150D01*
X18975285Y22285479D01*
X19124270Y22580308D01*
X19209814Y22725000D01*
X19422757Y23019006D01*
X19667670Y23295879D01*
X19910179Y23522497D01*
X20115908Y23665740D01*
X20220341Y23698667D01*
X20354095Y23617605D01*
X20458650Y23385094D01*
X20529919Y23017144D01*
X20563815Y22529769D01*
X20566102Y22344000D01*
X20843892Y22344000D01*
X20851994Y22625362D01*
X20825534Y22936683D01*
X20752785Y23220553D01*
X20710120Y23338858D01*
X20630066Y23588521D01*
X20600445Y23769796D01*
X20616792Y23830688D01*
X20655495Y23895031D01*
X20014371Y23895031D01*
X19685888Y23631055D01*
X19367806Y23314676D01*
X19047248Y22893201D01*
X18763316Y22425684D01*
X18555114Y21971179D01*
X18521306Y21872331D01*
X18428168Y21623178D01*
X18337949Y21456675D01*
X18286038Y21413701D01*
X18170641Y21446238D01*
X17943939Y21531787D01*
X17649020Y21653809D01*
X17558277Y21693048D01*
X16737514Y22109105D01*
X16021182Y22604942D01*
X15359005Y23217556D01*
X15098318Y23503263D01*
X14668968Y24058684D01*
X14322424Y24638558D01*
X14065567Y25219311D01*
X13905278Y25777365D01*
X13848439Y26289146D01*
X13901930Y26731078D01*
X14059489Y27062447D01*
X14283433Y27322986D01*
X14519828Y27493900D01*
X14814887Y27595860D01*
X15214824Y27649539D01*
X15398201Y27661280D01*
X15783372Y27693551D01*
X16001034Y27735814D01*
X16051254Y27780089D01*
X15934097Y27818392D01*
X15649629Y27842742D01*
X15396670Y27847333D01*
X15056313Y27860145D01*
X14841159Y27894856D01*
X14763443Y27945882D01*
X14835396Y28007639D01*
X14957167Y28047969D01*
X15401768Y28098283D01*
X15878086Y28040460D01*
X16123133Y27963735D01*
X16336247Y27886969D01*
X16470965Y27854506D01*
X16491143Y27857902D01*
X16754574Y28319051D01*
X16869713Y28795097D01*
X16836599Y29258837D01*
X16655271Y29683071D01*
X16488161Y29894127D01*
X16347495Y30047673D01*
X16319113Y30115708D01*
X16396012Y30132904D01*
X16439851Y30133333D01*
X16654426Y30054635D01*
X16851614Y29842295D01*
X17009556Y29531944D01*
X17106397Y29159217D01*
X17121734Y29021694D01*
X17133198Y28738618D01*
X17105833Y28525521D01*
X17020961Y28314147D01*
X16859902Y28036238D01*
X16845806Y28013362D01*
X16640793Y27645240D01*
X16555872Y27371074D01*
X16597874Y27158943D01*
X16773630Y26976922D01*
X17089970Y26793090D01*
X17108946Y26783603D01*
X17807763Y26367039D01*
X18484489Y25835921D01*
X19096402Y25229819D01*
X19600780Y24588300D01*
X19769162Y24319750D01*
X20014371Y23895031D01*
X20655495Y23895031D01*
X20695564Y23961642D01*
X20624342Y24159376D01*
X20406166Y24418179D01*
X20208163Y24598549D01*
X19713187Y25045712D01*
X19238006Y25524030D01*
X18799441Y26012048D01*
X18414315Y26488311D01*
X18099448Y26931365D01*
X17965661Y27159482D01*
X17560232Y27159482D01*
X17504222Y27057111D01*
X17388381Y27002180D01*
X17320127Y27101888D01*
X17306667Y27244300D01*
X17264908Y27459166D01*
X17179667Y27593333D01*
X17067586Y27729627D01*
X17077378Y27825963D01*
X17151833Y27847333D01*
X17327194Y27774633D01*
X17471379Y27596144D01*
X17557891Y27371287D01*
X17560232Y27159482D01*
X17965661Y27159482D01*
X17871663Y27319754D01*
X17747779Y27632024D01*
X17730000Y27759294D01*
X17802284Y27955868D01*
X17999168Y28194606D01*
X18290704Y28448473D01*
X18646942Y28690438D01*
X18933032Y28845177D01*
X19257829Y28984977D01*
X19681731Y29144047D01*
X20139995Y29298907D01*
X20422194Y29385193D01*
X21351477Y29655183D01*
X21917175Y29205044D01*
X22601193Y28572189D01*
X23177723Y27857073D01*
X23633917Y27083927D01*
X23956927Y26276980D01*
X24133906Y25460465D01*
X24164667Y24966246D01*
X24394726Y24966246D01*
X24402061Y25171180D01*
X24290271Y25975437D01*
X24041398Y26776062D01*
X23658302Y27551811D01*
X23173569Y28245243D01*
X22797175Y28672017D01*
X22354191Y29120295D01*
X21909324Y29526271D01*
X21699147Y29699153D01*
X21453218Y29859750D01*
X21099356Y30051420D01*
X20689476Y30249352D01*
X20275490Y30428736D01*
X19909313Y30564760D01*
X19846667Y30584493D01*
X18928214Y30784479D01*
X17992912Y30841659D01*
X17073442Y30758056D01*
X17073442Y30758056D01*
G37*
X17073442Y30758056D02*
X16202488Y30535696D01*
X15698000Y30327495D01*
X15218417Y30027662D01*
X14741422Y29608505D01*
X14310540Y29115012D01*
X13969296Y28592169D01*
X13912842Y28482333D01*
X13794544Y28233863D01*
X13713991Y28032309D01*
X13664035Y27835412D01*
X13637527Y27600914D01*
X13627319Y27286555D01*
X13626263Y26850077D01*
X13626409Y26789000D01*
X13630975Y26315126D01*
X13645937Y25966182D01*
X13677306Y25697823D01*
X13731095Y25465702D01*
X13813315Y25225473D01*
X13851784Y25126567D01*
X14296796Y24226945D01*
X14890095Y23403347D01*
X15407818Y22857164D01*
X16026475Y22312451D01*
X16627458Y21883633D01*
X17266757Y21537331D01*
X18000362Y21240165D01*
X18280333Y21144682D01*
X18722875Y21039769D01*
X19272419Y20969191D01*
X19869663Y20935402D01*
X20455305Y20940858D01*
X20970041Y20988015D01*
X21169623Y21025058D01*
X21947539Y21282821D01*
X22661669Y21676718D01*
X23284513Y22187273D01*
X23788570Y22795009D01*
X23886345Y22949044D01*
X24202957Y23636740D01*
X24373909Y24384534D01*
X24394726Y24966246D01*
X24164667Y24966246D01*
X24085545Y24173206D01*
X23854498Y23444346D01*
X23481009Y22792637D01*
X22974557Y22231052D01*
X22344624Y21772560D01*
X21600689Y21430133D01*
X21573141Y21420560D01*
X21148321Y21291424D01*
X20869476Y21246612D01*
X20735754Y21286096D01*
X20737849Y21391500D01*
X20772381Y21543575D01*
X20807176Y21812276D01*
X20835714Y22145035D01*
X20840236Y22217000D01*
X20843892Y22344000D01*
X20566102Y22344000D01*
X20558899Y21858793D01*
X20521078Y21520979D01*
X20427833Y21308718D01*
X20254359Y21200172D01*
X19975851Y21173500D01*
X19567504Y21206862D01*
X19310761Y21238731D01*
X19015241Y21282030D01*
X18792113Y21324465D01*
X18688825Y21356984D01*
X18688302Y21357476D01*
X18681952Y21468517D01*
X18738250Y21687952D01*
X18841319Y21974150D01*
X18975285Y22285479D01*
X19124270Y22580308D01*
X19209814Y22725000D01*
X19422757Y23019006D01*
X19667670Y23295879D01*
X19910179Y23522497D01*
X20115908Y23665740D01*
X20220341Y23698667D01*
X20354095Y23617605D01*
X20458650Y23385094D01*
X20529919Y23017144D01*
X20563815Y22529769D01*
X20566102Y22344000D01*
X20843892Y22344000D01*
X20851994Y22625362D01*
X20825534Y22936683D01*
X20752785Y23220553D01*
X20710120Y23338858D01*
X20630066Y23588521D01*
X20600445Y23769796D01*
X20616792Y23830688D01*
X20655495Y23895031D01*
X20014371Y23895031D01*
X19685888Y23631055D01*
X19367806Y23314676D01*
X19047248Y22893201D01*
X18763316Y22425684D01*
X18555114Y21971179D01*
X18521306Y21872331D01*
X18428168Y21623178D01*
X18337949Y21456675D01*
X18286038Y21413701D01*
X18170641Y21446238D01*
X17943939Y21531787D01*
X17649020Y21653809D01*
X17558277Y21693048D01*
X16737514Y22109105D01*
X16021182Y22604942D01*
X15359005Y23217556D01*
X15098318Y23503263D01*
X14668968Y24058684D01*
X14322424Y24638558D01*
X14065567Y25219311D01*
X13905278Y25777365D01*
X13848439Y26289146D01*
X13901930Y26731078D01*
X14059489Y27062447D01*
X14283433Y27322986D01*
X14519828Y27493900D01*
X14814887Y27595860D01*
X15214824Y27649539D01*
X15398201Y27661280D01*
X15783372Y27693551D01*
X16001034Y27735814D01*
X16051254Y27780089D01*
X15934097Y27818392D01*
X15649629Y27842742D01*
X15396670Y27847333D01*
X15056313Y27860145D01*
X14841159Y27894856D01*
X14763443Y27945882D01*
X14835396Y28007639D01*
X14957167Y28047969D01*
X15401768Y28098283D01*
X15878086Y28040460D01*
X16123133Y27963735D01*
X16336247Y27886969D01*
X16470965Y27854506D01*
X16491143Y27857902D01*
X16754574Y28319051D01*
X16869713Y28795097D01*
X16836599Y29258837D01*
X16655271Y29683071D01*
X16488161Y29894127D01*
X16347495Y30047673D01*
X16319113Y30115708D01*
X16396012Y30132904D01*
X16439851Y30133333D01*
X16654426Y30054635D01*
X16851614Y29842295D01*
X17009556Y29531944D01*
X17106397Y29159217D01*
X17121734Y29021694D01*
X17133198Y28738618D01*
X17105833Y28525521D01*
X17020961Y28314147D01*
X16859902Y28036238D01*
X16845806Y28013362D01*
X16640793Y27645240D01*
X16555872Y27371074D01*
X16597874Y27158943D01*
X16773630Y26976922D01*
X17089970Y26793090D01*
X17108946Y26783603D01*
X17807763Y26367039D01*
X18484489Y25835921D01*
X19096402Y25229819D01*
X19600780Y24588300D01*
X19769162Y24319750D01*
X20014371Y23895031D01*
X20655495Y23895031D01*
X20695564Y23961642D01*
X20624342Y24159376D01*
X20406166Y24418179D01*
X20208163Y24598549D01*
X19713187Y25045712D01*
X19238006Y25524030D01*
X18799441Y26012048D01*
X18414315Y26488311D01*
X18099448Y26931365D01*
X17965661Y27159482D01*
X17560232Y27159482D01*
X17504222Y27057111D01*
X17388381Y27002180D01*
X17320127Y27101888D01*
X17306667Y27244300D01*
X17264908Y27459166D01*
X17179667Y27593333D01*
X17067586Y27729627D01*
X17077378Y27825963D01*
X17151833Y27847333D01*
X17327194Y27774633D01*
X17471379Y27596144D01*
X17557891Y27371287D01*
X17560232Y27159482D01*
X17965661Y27159482D01*
X17871663Y27319754D01*
X17747779Y27632024D01*
X17730000Y27759294D01*
X17802284Y27955868D01*
X17999168Y28194606D01*
X18290704Y28448473D01*
X18646942Y28690438D01*
X18933032Y28845177D01*
X19257829Y28984977D01*
X19681731Y29144047D01*
X20139995Y29298907D01*
X20422194Y29385193D01*
X21351477Y29655183D01*
X21917175Y29205044D01*
X22601193Y28572189D01*
X23177723Y27857073D01*
X23633917Y27083927D01*
X23956927Y26276980D01*
X24133906Y25460465D01*
X24164667Y24966246D01*
X24394726Y24966246D01*
X24402061Y25171180D01*
X24290271Y25975437D01*
X24041398Y26776062D01*
X23658302Y27551811D01*
X23173569Y28245243D01*
X22797175Y28672017D01*
X22354191Y29120295D01*
X21909324Y29526271D01*
X21699147Y29699153D01*
X21453218Y29859750D01*
X21099356Y30051420D01*
X20689476Y30249352D01*
X20275490Y30428736D01*
X19909313Y30564760D01*
X19846667Y30584493D01*
X18928214Y30784479D01*
X17992912Y30841659D01*
X17073442Y30758056D01*
G36*
X18809404Y11274981D02*
X18660236Y11273575D01*
X18546201Y11270974D01*
X18463703Y11267027D01*
X18409147Y11261585D01*
X18378938Y11254499D01*
X18370854Y11249208D01*
X18361875Y11222272D01*
X18346577Y11159158D01*
X18326113Y11065358D01*
X18301635Y10946362D01*
X18274297Y10807662D01*
X18245249Y10654749D01*
X18238698Y10619500D01*
X18209363Y10464099D01*
X18181377Y10321629D01*
X18155910Y10197595D01*
X18134130Y10097505D01*
X18117205Y10026864D01*
X18106303Y9991180D01*
X18104830Y9988569D01*
X18095561Y9978146D01*
X18082397Y9967691D01*
X18060527Y9955053D01*
X18025143Y9938085D01*
X17971436Y9914635D01*
X17894597Y9882557D01*
X17789815Y9839699D01*
X17652284Y9783913D01*
X17594944Y9760703D01*
X17481508Y9715729D01*
X17379489Y9677028D01*
X17296261Y9647261D01*
X17239194Y9629088D01*
X17217953Y9624667D01*
X17197575Y9630571D01*
X17160589Y9649326D01*
X17104610Y9682493D01*
X17027249Y9731634D01*
X16926120Y9798311D01*
X16798835Y9884087D01*
X16643008Y9990522D01*
X16456250Y10119180D01*
X16352628Y10190875D01*
X16272863Y10244587D01*
X16204444Y10287813D01*
X16155594Y10315531D01*
X16136007Y10323166D01*
X16115081Y10308717D01*
X16068365Y10267851D01*
X15999795Y10204291D01*
X15913306Y10121762D01*
X15812836Y10023988D01*
X15702320Y9914691D01*
X15668301Y9880719D01*
X15523970Y9734957D01*
X15409998Y9616909D01*
X15325559Y9525660D01*
X15269825Y9460296D01*
X15241969Y9419904D01*
X15238603Y9406028D01*
X15253477Y9380676D01*
X15289230Y9325348D01*
X15342634Y9244866D01*
X15410463Y9144052D01*
X15489489Y9027730D01*
X15576487Y8900724D01*
X15583394Y8890684D01*
X15670767Y8762969D01*
X15750222Y8645421D01*
X15818561Y8542883D01*
X15872585Y8460203D01*
X15909094Y8402225D01*
X15924890Y8373796D01*
X15925155Y8372977D01*
X15919510Y8345018D01*
X15898997Y8284390D01*
X15866051Y8197058D01*
X15823107Y8088989D01*
X15772600Y7966149D01*
X15716966Y7834502D01*
X15658639Y7700017D01*
X15600055Y7568657D01*
X15570184Y7503320D01*
X15559492Y7482382D01*
X15545664Y7464731D01*
X15524212Y7449098D01*
X15490649Y7434214D01*
X15440490Y7418809D01*
X15369245Y7401614D01*
X15272429Y7381360D01*
X15145555Y7356777D01*
X14984134Y7326595D01*
X14872500Y7305948D01*
X14725687Y7278229D01*
X14592017Y7251843D01*
X14477338Y7228036D01*
X14387496Y7208054D01*
X14328336Y7193145D01*
X14306292Y7185205D01*
X14297529Y7157543D01*
X14290348Y7094160D01*
X14284730Y7001636D01*
X14280661Y6886552D01*
X14278123Y6755490D01*
X14277100Y6615031D01*
X14277575Y6471757D01*
X14279531Y6332248D01*
X14282953Y6203086D01*
X14287823Y6090852D01*
X14294124Y6002127D01*
X14301841Y5943493D01*
X14309474Y5922251D01*
X14337464Y5912005D01*
X14401407Y5895557D01*
X14495585Y5874154D01*
X14614277Y5849045D01*
X14751766Y5821477D01*
X14902332Y5792700D01*
X14907433Y5791749D01*
X15086679Y5757803D01*
X15228212Y5729645D01*
X15336105Y5706291D01*
X15414434Y5686756D01*
X15467272Y5670054D01*
X15498693Y5655201D01*
X15509434Y5646225D01*
X15527964Y5614040D01*
X15558232Y5549773D01*
X15597389Y5460533D01*
X15642583Y5353429D01*
X15690962Y5235571D01*
X15739677Y5114068D01*
X15785877Y4996029D01*
X15826709Y4888564D01*
X15859324Y4798781D01*
X15880871Y4733791D01*
X15888500Y4700957D01*
X15884707Y4682719D01*
X15871960Y4653941D01*
X15848214Y4611468D01*
X15811421Y4552144D01*
X15759534Y4472813D01*
X15690505Y4370319D01*
X15602287Y4241507D01*
X15492834Y4083220D01*
X15416381Y3973166D01*
X15354039Y3881901D01*
X15300510Y3800456D01*
X15260576Y3736338D01*
X15239018Y3697054D01*
X15236896Y3691414D01*
X15242836Y3670137D01*
X15269096Y3631616D01*
X15317665Y3573623D01*
X15390531Y3493925D01*
X15489685Y3390294D01*
X15617116Y3260500D01*
X15658152Y3219147D01*
X15785998Y3091094D01*
X15887898Y2990498D01*
X15967284Y2914340D01*
X16027594Y2859602D01*
X16072261Y2823266D01*
X16104723Y2802313D01*
X16128413Y2793725D01*
X16142500Y2793584D01*
X16173858Y2807593D01*
X16234517Y2842653D01*
X16319193Y2895409D01*
X16422598Y2962502D01*
X16539449Y3040576D01*
X16644422Y3112392D01*
X16767889Y3196599D01*
X16881844Y3272130D01*
X16981130Y3335738D01*
X17060586Y3384180D01*
X17115053Y3414209D01*
X17137931Y3422833D01*
X17174631Y3412944D01*
X17237795Y3386296D01*
X17317294Y3347420D01*
X17373333Y3317519D01*
X17456762Y3272687D01*
X17528884Y3236121D01*
X17580131Y3212551D01*
X17597982Y3206394D01*
X17607927Y3207671D01*
X17619616Y3216848D01*
X17634453Y3237016D01*
X17653846Y3271266D01*
X17679199Y3322690D01*
X17711918Y3394379D01*
X17753409Y3489423D01*
X17805079Y3610913D01*
X17868332Y3761942D01*
X17944574Y3945599D01*
X18035212Y4164976D01*
X18047770Y4195416D01*
X18110676Y4347797D01*
X18178768Y4512520D01*
X18246618Y4676466D01*
X18308796Y4826517D01*
X18356535Y4941523D01*
X18400782Y5051083D01*
X18437495Y5147990D01*
X18464174Y5225140D01*
X18478318Y5275431D01*
X18479457Y5290773D01*
X18456665Y5314896D01*
X18408099Y5352010D01*
X18348587Y5391333D01*
X18278825Y5440514D01*
X18194332Y5508822D01*
X18109335Y5584508D01*
X18076612Y5615961D01*
X17925254Y5794331D01*
X17810398Y5992875D01*
X17733228Y6208427D01*
X17694928Y6437821D01*
X17693722Y6639844D01*
X17728866Y6868125D01*
X17801791Y7082233D01*
X17909234Y7278367D01*
X18047933Y7452727D01*
X18214625Y7601513D01*
X18406048Y7720923D01*
X18618938Y7807157D01*
X18718429Y7833578D01*
X18944981Y7864601D01*
X19164853Y7856851D01*
X19374943Y7813483D01*
X19572153Y7737649D01*
X19753382Y7632502D01*
X19915528Y7501195D01*
X20055493Y7346880D01*
X20170176Y7172709D01*
X20256476Y6981837D01*
X20311293Y6777416D01*
X20331527Y6562598D01*
X20314078Y6340537D01*
X20291742Y6233629D01*
X20252079Y6098114D01*
X20203474Y5980630D01*
X20138013Y5864442D01*
X20068595Y5761750D01*
X20003138Y5675686D01*
X19935972Y5602105D01*
X19857350Y5532000D01*
X19757526Y5456364D01*
X19678380Y5401147D01*
X19618813Y5360913D01*
X19576676Y5328967D01*
X19551607Y5298229D01*
X19543246Y5261621D01*
X19551231Y5212063D01*
X19575199Y5142475D01*
X19614790Y5045780D01*
X19655310Y4949317D01*
X19698041Y4846855D01*
X19751779Y4717677D01*
X19813860Y4568217D01*
X19881616Y4404912D01*
X19952384Y4234197D01*
X20023497Y4062509D01*
X20092290Y3896284D01*
X20156097Y3741956D01*
X20212253Y3605963D01*
X20258093Y3494740D01*
X20290950Y3414723D01*
X20296286Y3401666D01*
X20329261Y3323740D01*
X20358589Y3259499D01*
X20378965Y3220438D01*
X20381895Y3216138D01*
X20399941Y3208743D01*
X20435674Y3216314D01*
X20494597Y3240901D01*
X20582209Y3284554D01*
X20623278Y3306096D01*
X20713350Y3352158D01*
X20792454Y3389651D01*
X20851677Y3414539D01*
X20881110Y3422833D01*
X20897910Y3418742D01*
X20926508Y3405169D01*
X20969892Y3380167D01*
X21031052Y3341789D01*
X21112977Y3288088D01*
X21218656Y3217114D01*
X21351079Y3126922D01*
X21513235Y3015564D01*
X21633409Y2932693D01*
X21718256Y2876169D01*
X21793271Y2829965D01*
X21850215Y2798911D01*
X21880525Y2787833D01*
X21904605Y2802258D01*
X21954334Y2843025D01*
X22025597Y2906372D01*
X22114277Y2988540D01*
X22216261Y3085766D01*
X22327431Y3194291D01*
X22353325Y3219916D01*
X22464521Y3330923D01*
X22565238Y3432786D01*
X22651709Y3521588D01*
X22720167Y3593416D01*
X22766847Y3644353D01*
X22787981Y3670485D01*
X22788834Y3672624D01*
X22777637Y3699627D01*
X22748410Y3749797D01*
X22711186Y3806750D01*
X22675175Y3859305D01*
X22620259Y3939350D01*
X22551513Y4039488D01*
X22474015Y4152324D01*
X22392843Y4270462D01*
X22380457Y4288484D01*
X22304839Y4400567D01*
X22238260Y4503194D01*
X22184305Y4590509D01*
X22146562Y4656657D01*
X22128618Y4695781D01*
X22127630Y4701234D01*
X22135350Y4732995D01*
X22156865Y4797797D01*
X22189930Y4889503D01*
X22232299Y5001978D01*
X22281728Y5129086D01*
X22312019Y5205278D01*
X22379302Y5370403D01*
X22433775Y5497729D01*
X22476481Y5589458D01*
X22508460Y5647795D01*
X22530755Y5674943D01*
X22535021Y5677142D01*
X22565612Y5684233D01*
X22631917Y5697900D01*
X22728032Y5716983D01*
X22848049Y5740321D01*
X22986064Y5766756D01*
X23129578Y5793890D01*
X23277959Y5822291D01*
X23412730Y5849083D01*
X23528262Y5873066D01*
X23618925Y5893040D01*
X23679089Y5907806D01*
X23703039Y5916072D01*
X23707328Y5940967D01*
X23710873Y6002817D01*
X23713575Y6096247D01*
X23715333Y6215883D01*
X23716047Y6356353D01*
X23715618Y6512281D01*
X23715196Y6567462D01*
X23709584Y7201083D01*
X23106334Y7314073D01*
X22951104Y7343812D01*
X22808942Y7372316D01*
X22685322Y7398387D01*
X22585719Y7420827D01*
X22515609Y7438435D01*
X22480464Y7450015D01*
X22477946Y7451656D01*
X22461454Y7478960D01*
X22432157Y7538398D01*
X22393074Y7622922D01*
X22347224Y7725483D01*
X22297624Y7839034D01*
X22247294Y7956524D01*
X22199252Y8070905D01*
X22156517Y8175129D01*
X22122108Y8262146D01*
X22099043Y8324909D01*
X22090341Y8356369D01*
X22090334Y8356749D01*
X22101942Y8382676D01*
X22134752Y8438619D01*
X22185746Y8519878D01*
X22251904Y8621752D01*
X22330206Y8739538D01*
X22417633Y8868536D01*
X22439584Y8900562D01*
X22528523Y9030629D01*
X22609112Y9149607D01*
X22678355Y9252983D01*
X22733257Y9336246D01*
X22770821Y9394882D01*
X22788053Y9424379D01*
X22788834Y9426699D01*
X22774298Y9447335D01*
X22733750Y9492679D01*
X22671782Y9558189D01*
X22592983Y9639322D01*
X22501943Y9731536D01*
X22403254Y9830286D01*
X22301506Y9931032D01*
X22201289Y10029229D01*
X22107193Y10120335D01*
X22023810Y10199808D01*
X21955729Y10263105D01*
X21907541Y10305683D01*
X21883836Y10322999D01*
X21882951Y10323167D01*
X21858985Y10311589D01*
X21804877Y10278861D01*
X21725246Y10227991D01*
X21624713Y10161985D01*
X21507900Y10083851D01*
X21379427Y9996596D01*
X21346330Y9973917D01*
X21214725Y9884633D01*
X21092591Y9803779D01*
X20984745Y9734388D01*
X20896005Y9679490D01*
X20831189Y9642119D01*
X20795115Y9625307D01*
X20791382Y9624667D01*
X20753785Y9632562D01*
X20687356Y9653961D01*
X20602059Y9685428D01*
X20523481Y9716978D01*
X20406812Y9765401D01*
X20278537Y9818404D01*
X20158816Y9867667D01*
X20107276Y9888780D01*
X20023061Y9925998D01*
X19954286Y9961631D01*
X19910216Y9990596D01*
X19899413Y10002843D01*
X19892181Y10031922D01*
X19878348Y10097033D01*
X19859027Y10192586D01*
X19835327Y10312988D01*
X19808360Y10452647D01*
X19779238Y10605971D01*
X19773189Y10638124D01*
X19737501Y10823458D01*
X19705648Y10979456D01*
X19678242Y11103432D01*
X19655898Y11192700D01*
X19639228Y11244576D01*
X19631802Y11256925D01*
X19603957Y11261595D01*
X19539413Y11265840D01*
X19443805Y11269497D01*
X19322767Y11272403D01*
X19181932Y11274393D01*
X19026934Y11275305D01*
X18997301Y11275342D01*
X18809404Y11274981D01*
X18809404Y11274981D01*
G37*
X18809404Y11274981D02*
X18660236Y11273575D01*
X18546201Y11270974D01*
X18463703Y11267027D01*
X18409147Y11261585D01*
X18378938Y11254499D01*
X18370854Y11249208D01*
X18361875Y11222272D01*
X18346577Y11159158D01*
X18326113Y11065358D01*
X18301635Y10946362D01*
X18274297Y10807662D01*
X18245249Y10654749D01*
X18238698Y10619500D01*
X18209363Y10464099D01*
X18181377Y10321629D01*
X18155910Y10197595D01*
X18134130Y10097505D01*
X18117205Y10026864D01*
X18106303Y9991180D01*
X18104830Y9988569D01*
X18095561Y9978146D01*
X18082397Y9967691D01*
X18060527Y9955053D01*
X18025143Y9938085D01*
X17971436Y9914635D01*
X17894597Y9882557D01*
X17789815Y9839699D01*
X17652284Y9783913D01*
X17594944Y9760703D01*
X17481508Y9715729D01*
X17379489Y9677028D01*
X17296261Y9647261D01*
X17239194Y9629088D01*
X17217953Y9624667D01*
X17197575Y9630571D01*
X17160589Y9649326D01*
X17104610Y9682493D01*
X17027249Y9731634D01*
X16926120Y9798311D01*
X16798835Y9884087D01*
X16643008Y9990522D01*
X16456250Y10119180D01*
X16352628Y10190875D01*
X16272863Y10244587D01*
X16204444Y10287813D01*
X16155594Y10315531D01*
X16136007Y10323166D01*
X16115081Y10308717D01*
X16068365Y10267851D01*
X15999795Y10204291D01*
X15913306Y10121762D01*
X15812836Y10023988D01*
X15702320Y9914691D01*
X15668301Y9880719D01*
X15523970Y9734957D01*
X15409998Y9616909D01*
X15325559Y9525660D01*
X15269825Y9460296D01*
X15241969Y9419904D01*
X15238603Y9406028D01*
X15253477Y9380676D01*
X15289230Y9325348D01*
X15342634Y9244866D01*
X15410463Y9144052D01*
X15489489Y9027730D01*
X15576487Y8900724D01*
X15583394Y8890684D01*
X15670767Y8762969D01*
X15750222Y8645421D01*
X15818561Y8542883D01*
X15872585Y8460203D01*
X15909094Y8402225D01*
X15924890Y8373796D01*
X15925155Y8372977D01*
X15919510Y8345018D01*
X15898997Y8284390D01*
X15866051Y8197058D01*
X15823107Y8088989D01*
X15772600Y7966149D01*
X15716966Y7834502D01*
X15658639Y7700017D01*
X15600055Y7568657D01*
X15570184Y7503320D01*
X15559492Y7482382D01*
X15545664Y7464731D01*
X15524212Y7449098D01*
X15490649Y7434214D01*
X15440490Y7418809D01*
X15369245Y7401614D01*
X15272429Y7381360D01*
X15145555Y7356777D01*
X14984134Y7326595D01*
X14872500Y7305948D01*
X14725687Y7278229D01*
X14592017Y7251843D01*
X14477338Y7228036D01*
X14387496Y7208054D01*
X14328336Y7193145D01*
X14306292Y7185205D01*
X14297529Y7157543D01*
X14290348Y7094160D01*
X14284730Y7001636D01*
X14280661Y6886552D01*
X14278123Y6755490D01*
X14277100Y6615031D01*
X14277575Y6471757D01*
X14279531Y6332248D01*
X14282953Y6203086D01*
X14287823Y6090852D01*
X14294124Y6002127D01*
X14301841Y5943493D01*
X14309474Y5922251D01*
X14337464Y5912005D01*
X14401407Y5895557D01*
X14495585Y5874154D01*
X14614277Y5849045D01*
X14751766Y5821477D01*
X14902332Y5792700D01*
X14907433Y5791749D01*
X15086679Y5757803D01*
X15228212Y5729645D01*
X15336105Y5706291D01*
X15414434Y5686756D01*
X15467272Y5670054D01*
X15498693Y5655201D01*
X15509434Y5646225D01*
X15527964Y5614040D01*
X15558232Y5549773D01*
X15597389Y5460533D01*
X15642583Y5353429D01*
X15690962Y5235571D01*
X15739677Y5114068D01*
X15785877Y4996029D01*
X15826709Y4888564D01*
X15859324Y4798781D01*
X15880871Y4733791D01*
X15888500Y4700957D01*
X15884707Y4682719D01*
X15871960Y4653941D01*
X15848214Y4611468D01*
X15811421Y4552144D01*
X15759534Y4472813D01*
X15690505Y4370319D01*
X15602287Y4241507D01*
X15492834Y4083220D01*
X15416381Y3973166D01*
X15354039Y3881901D01*
X15300510Y3800456D01*
X15260576Y3736338D01*
X15239018Y3697054D01*
X15236896Y3691414D01*
X15242836Y3670137D01*
X15269096Y3631616D01*
X15317665Y3573623D01*
X15390531Y3493925D01*
X15489685Y3390294D01*
X15617116Y3260500D01*
X15658152Y3219147D01*
X15785998Y3091094D01*
X15887898Y2990498D01*
X15967284Y2914340D01*
X16027594Y2859602D01*
X16072261Y2823266D01*
X16104723Y2802313D01*
X16128413Y2793725D01*
X16142500Y2793584D01*
X16173858Y2807593D01*
X16234517Y2842653D01*
X16319193Y2895409D01*
X16422598Y2962502D01*
X16539449Y3040576D01*
X16644422Y3112392D01*
X16767889Y3196599D01*
X16881844Y3272130D01*
X16981130Y3335738D01*
X17060586Y3384180D01*
X17115053Y3414209D01*
X17137931Y3422833D01*
X17174631Y3412944D01*
X17237795Y3386296D01*
X17317294Y3347420D01*
X17373333Y3317519D01*
X17456762Y3272687D01*
X17528884Y3236121D01*
X17580131Y3212551D01*
X17597982Y3206394D01*
X17607927Y3207671D01*
X17619616Y3216848D01*
X17634453Y3237016D01*
X17653846Y3271266D01*
X17679199Y3322690D01*
X17711918Y3394379D01*
X17753409Y3489423D01*
X17805079Y3610913D01*
X17868332Y3761942D01*
X17944574Y3945599D01*
X18035212Y4164976D01*
X18047770Y4195416D01*
X18110676Y4347797D01*
X18178768Y4512520D01*
X18246618Y4676466D01*
X18308796Y4826517D01*
X18356535Y4941523D01*
X18400782Y5051083D01*
X18437495Y5147990D01*
X18464174Y5225140D01*
X18478318Y5275431D01*
X18479457Y5290773D01*
X18456665Y5314896D01*
X18408099Y5352010D01*
X18348587Y5391333D01*
X18278825Y5440514D01*
X18194332Y5508822D01*
X18109335Y5584508D01*
X18076612Y5615961D01*
X17925254Y5794331D01*
X17810398Y5992875D01*
X17733228Y6208427D01*
X17694928Y6437821D01*
X17693722Y6639844D01*
X17728866Y6868125D01*
X17801791Y7082233D01*
X17909234Y7278367D01*
X18047933Y7452727D01*
X18214625Y7601513D01*
X18406048Y7720923D01*
X18618938Y7807157D01*
X18718429Y7833578D01*
X18944981Y7864601D01*
X19164853Y7856851D01*
X19374943Y7813483D01*
X19572153Y7737649D01*
X19753382Y7632502D01*
X19915528Y7501195D01*
X20055493Y7346880D01*
X20170176Y7172709D01*
X20256476Y6981837D01*
X20311293Y6777416D01*
X20331527Y6562598D01*
X20314078Y6340537D01*
X20291742Y6233629D01*
X20252079Y6098114D01*
X20203474Y5980630D01*
X20138013Y5864442D01*
X20068595Y5761750D01*
X20003138Y5675686D01*
X19935972Y5602105D01*
X19857350Y5532000D01*
X19757526Y5456364D01*
X19678380Y5401147D01*
X19618813Y5360913D01*
X19576676Y5328967D01*
X19551607Y5298229D01*
X19543246Y5261621D01*
X19551231Y5212063D01*
X19575199Y5142475D01*
X19614790Y5045780D01*
X19655310Y4949317D01*
X19698041Y4846855D01*
X19751779Y4717677D01*
X19813860Y4568217D01*
X19881616Y4404912D01*
X19952384Y4234197D01*
X20023497Y4062509D01*
X20092290Y3896284D01*
X20156097Y3741956D01*
X20212253Y3605963D01*
X20258093Y3494740D01*
X20290950Y3414723D01*
X20296286Y3401666D01*
X20329261Y3323740D01*
X20358589Y3259499D01*
X20378965Y3220438D01*
X20381895Y3216138D01*
X20399941Y3208743D01*
X20435674Y3216314D01*
X20494597Y3240901D01*
X20582209Y3284554D01*
X20623278Y3306096D01*
X20713350Y3352158D01*
X20792454Y3389651D01*
X20851677Y3414539D01*
X20881110Y3422833D01*
X20897910Y3418742D01*
X20926508Y3405169D01*
X20969892Y3380167D01*
X21031052Y3341789D01*
X21112977Y3288088D01*
X21218656Y3217114D01*
X21351079Y3126922D01*
X21513235Y3015564D01*
X21633409Y2932693D01*
X21718256Y2876169D01*
X21793271Y2829965D01*
X21850215Y2798911D01*
X21880525Y2787833D01*
X21904605Y2802258D01*
X21954334Y2843025D01*
X22025597Y2906372D01*
X22114277Y2988540D01*
X22216261Y3085766D01*
X22327431Y3194291D01*
X22353325Y3219916D01*
X22464521Y3330923D01*
X22565238Y3432786D01*
X22651709Y3521588D01*
X22720167Y3593416D01*
X22766847Y3644353D01*
X22787981Y3670485D01*
X22788834Y3672624D01*
X22777637Y3699627D01*
X22748410Y3749797D01*
X22711186Y3806750D01*
X22675175Y3859305D01*
X22620259Y3939350D01*
X22551513Y4039488D01*
X22474015Y4152324D01*
X22392843Y4270462D01*
X22380457Y4288484D01*
X22304839Y4400567D01*
X22238260Y4503194D01*
X22184305Y4590509D01*
X22146562Y4656657D01*
X22128618Y4695781D01*
X22127630Y4701234D01*
X22135350Y4732995D01*
X22156865Y4797797D01*
X22189930Y4889503D01*
X22232299Y5001978D01*
X22281728Y5129086D01*
X22312019Y5205278D01*
X22379302Y5370403D01*
X22433775Y5497729D01*
X22476481Y5589458D01*
X22508460Y5647795D01*
X22530755Y5674943D01*
X22535021Y5677142D01*
X22565612Y5684233D01*
X22631917Y5697900D01*
X22728032Y5716983D01*
X22848049Y5740321D01*
X22986064Y5766756D01*
X23129578Y5793890D01*
X23277959Y5822291D01*
X23412730Y5849083D01*
X23528262Y5873066D01*
X23618925Y5893040D01*
X23679089Y5907806D01*
X23703039Y5916072D01*
X23707328Y5940967D01*
X23710873Y6002817D01*
X23713575Y6096247D01*
X23715333Y6215883D01*
X23716047Y6356353D01*
X23715618Y6512281D01*
X23715196Y6567462D01*
X23709584Y7201083D01*
X23106334Y7314073D01*
X22951104Y7343812D01*
X22808942Y7372316D01*
X22685322Y7398387D01*
X22585719Y7420827D01*
X22515609Y7438435D01*
X22480464Y7450015D01*
X22477946Y7451656D01*
X22461454Y7478960D01*
X22432157Y7538398D01*
X22393074Y7622922D01*
X22347224Y7725483D01*
X22297624Y7839034D01*
X22247294Y7956524D01*
X22199252Y8070905D01*
X22156517Y8175129D01*
X22122108Y8262146D01*
X22099043Y8324909D01*
X22090341Y8356369D01*
X22090334Y8356749D01*
X22101942Y8382676D01*
X22134752Y8438619D01*
X22185746Y8519878D01*
X22251904Y8621752D01*
X22330206Y8739538D01*
X22417633Y8868536D01*
X22439584Y8900562D01*
X22528523Y9030629D01*
X22609112Y9149607D01*
X22678355Y9252983D01*
X22733257Y9336246D01*
X22770821Y9394882D01*
X22788053Y9424379D01*
X22788834Y9426699D01*
X22774298Y9447335D01*
X22733750Y9492679D01*
X22671782Y9558189D01*
X22592983Y9639322D01*
X22501943Y9731536D01*
X22403254Y9830286D01*
X22301506Y9931032D01*
X22201289Y10029229D01*
X22107193Y10120335D01*
X22023810Y10199808D01*
X21955729Y10263105D01*
X21907541Y10305683D01*
X21883836Y10322999D01*
X21882951Y10323167D01*
X21858985Y10311589D01*
X21804877Y10278861D01*
X21725246Y10227991D01*
X21624713Y10161985D01*
X21507900Y10083851D01*
X21379427Y9996596D01*
X21346330Y9973917D01*
X21214725Y9884633D01*
X21092591Y9803779D01*
X20984745Y9734388D01*
X20896005Y9679490D01*
X20831189Y9642119D01*
X20795115Y9625307D01*
X20791382Y9624667D01*
X20753785Y9632562D01*
X20687356Y9653961D01*
X20602059Y9685428D01*
X20523481Y9716978D01*
X20406812Y9765401D01*
X20278537Y9818404D01*
X20158816Y9867667D01*
X20107276Y9888780D01*
X20023061Y9925998D01*
X19954286Y9961631D01*
X19910216Y9990596D01*
X19899413Y10002843D01*
X19892181Y10031922D01*
X19878348Y10097033D01*
X19859027Y10192586D01*
X19835327Y10312988D01*
X19808360Y10452647D01*
X19779238Y10605971D01*
X19773189Y10638124D01*
X19737501Y10823458D01*
X19705648Y10979456D01*
X19678242Y11103432D01*
X19655898Y11192700D01*
X19639228Y11244576D01*
X19631802Y11256925D01*
X19603957Y11261595D01*
X19539413Y11265840D01*
X19443805Y11269497D01*
X19322767Y11272403D01*
X19181932Y11274393D01*
X19026934Y11275305D01*
X18997301Y11275342D01*
X18809404Y11274981D01*
G04 #@! TO.C,MIC2*
D14*
X3882738Y17262739D02*
X3882738Y17897739D01*
X3671071Y17444167D01*
X3459404Y17897739D01*
X3459404Y17262739D01*
X3157023Y17262739D02*
X3157023Y17897739D01*
X2491785Y17323215D02*
X2522023Y17292977D01*
X2612738Y17262739D01*
X2673214Y17262739D01*
X2763928Y17292977D01*
X2824404Y17353453D01*
X2854642Y17413929D01*
X2884880Y17534881D01*
X2884880Y17625596D01*
X2854642Y17746548D01*
X2824404Y17807024D01*
X2763928Y17867500D01*
X2673214Y17897739D01*
X2612738Y17897739D01*
X2522023Y17867500D01*
X2491785Y17837262D01*
X2249880Y17837262D02*
X2219642Y17867500D01*
X2159166Y17897739D01*
X2007976Y17897739D01*
X1947500Y17867500D01*
X1917261Y17837262D01*
X1887023Y17776786D01*
X1887023Y17716310D01*
X1917261Y17625596D01*
X2280119Y17262739D01*
X1887023Y17262739D01*
G04 #@! TO.C,MIC1*
X35982738Y17312739D02*
X35982738Y17947739D01*
X35771071Y17494167D01*
X35559404Y17947739D01*
X35559404Y17312739D01*
X35257023Y17312739D02*
X35257023Y17947739D01*
X34591785Y17373215D02*
X34622023Y17342977D01*
X34712738Y17312739D01*
X34773214Y17312739D01*
X34863928Y17342977D01*
X34924404Y17403453D01*
X34954642Y17463929D01*
X34984880Y17584881D01*
X34984880Y17675596D01*
X34954642Y17796548D01*
X34924404Y17857024D01*
X34863928Y17917500D01*
X34773214Y17947739D01*
X34712738Y17947739D01*
X34622023Y17917500D01*
X34591785Y17887262D01*
X33987023Y17312739D02*
X34349880Y17312739D01*
X34168452Y17312739D02*
X34168452Y17947739D01*
X34228928Y17857024D01*
X34289404Y17796548D01*
X34349880Y17766310D01*
G04 #@! TD*
M02*
