G04 #@! TF.GenerationSoftware,KiCad,Pcbnew,(5.0.1-3-g963ef8bb5)*
G04 #@! TF.CreationDate,2019-01-09T17:43:23-05:00*
G04 #@! TF.ProjectId,Tympan_AIC_Shield,54796D70616E5F4149435F536869656C,rev?*
G04 #@! TF.SameCoordinates,PX6d878d0PY5279480*
G04 #@! TF.FileFunction,Paste,Top*
G04 #@! TF.FilePolarity,Positive*
%FSLAX46Y46*%
G04 Gerber Fmt 4.6, Leading zero omitted, Abs format (unit mm)*
G04 Created by KiCad (PCBNEW (5.0.1-3-g963ef8bb5)) date Wednesday, January 09, 2019 at 05:43:23 PM*
%MOMM*%
%LPD*%
G01*
G04 APERTURE LIST*
%ADD10R,0.800000X0.750000*%
%ADD11R,0.750000X0.800000*%
%ADD12R,0.200000X0.750000*%
%ADD13R,0.750000X0.200000*%
%ADD14R,1.140000X1.140000*%
%ADD15R,2.800000X2.800000*%
%ADD16R,2.800000X2.200000*%
%ADD17R,0.500000X0.600000*%
%ADD18R,0.600000X0.500000*%
%ADD19R,0.650000X0.400000*%
%ADD20R,0.600000X0.400000*%
%ADD21R,0.400000X0.600000*%
G04 APERTURE END LIST*
D10*
G04 #@! TO.C,R12*
X18050000Y27850000D03*
X19550000Y27850000D03*
G04 #@! TD*
G04 #@! TO.C,R13*
X18050000Y29150000D03*
X19550000Y29150000D03*
G04 #@! TD*
G04 #@! TO.C,R14*
X19550000Y26550000D03*
X18050000Y26550000D03*
G04 #@! TD*
D11*
G04 #@! TO.C,R15*
X20175000Y19750000D03*
X20175000Y21250000D03*
G04 #@! TD*
G04 #@! TO.C,R16*
X14800000Y21325000D03*
X14800000Y19825000D03*
G04 #@! TD*
D10*
G04 #@! TO.C,R17*
X19550000Y30450000D03*
X18050000Y30450000D03*
G04 #@! TD*
D12*
G04 #@! TO.C,U2*
X16544600Y8933000D03*
X16944600Y8933000D03*
X17344600Y8933000D03*
X17744600Y8933000D03*
X18144600Y8933000D03*
X18544600Y8933000D03*
X18944600Y8933000D03*
X19344600Y8933000D03*
X19744600Y8933000D03*
X20144600Y8933000D03*
D13*
X20844600Y9633000D03*
X20844600Y10033000D03*
X20844600Y10433000D03*
X20844600Y10833000D03*
X20844600Y11233000D03*
X20844600Y11633000D03*
X20844600Y12033000D03*
X20844600Y12433000D03*
X20844600Y12833000D03*
X20844600Y13233000D03*
D12*
X20144600Y13933000D03*
X19744600Y13933000D03*
X19344600Y13933000D03*
X18944600Y13933000D03*
X18544600Y13933000D03*
X18144600Y13933000D03*
X17744600Y13933000D03*
X17344600Y13933000D03*
X16944600Y13933000D03*
X16544600Y13933000D03*
D13*
X15844600Y13233000D03*
X15844600Y12833000D03*
X15844600Y12433000D03*
X15844600Y12033000D03*
X15844600Y11633000D03*
X15844600Y11233000D03*
X15844600Y10833000D03*
X15844600Y10433000D03*
X15844600Y10033000D03*
X15844600Y9633000D03*
D14*
X19294600Y12383000D03*
X17394600Y12383000D03*
X19294600Y10483000D03*
X17394600Y10483000D03*
G04 #@! TD*
D15*
G04 #@! TO.C,J2*
X9350000Y24400000D03*
X4400000Y28300000D03*
D16*
X12800000Y35700000D03*
X4400000Y37700000D03*
G04 #@! TD*
D15*
G04 #@! TO.C,J1*
X25200000Y28300000D03*
D16*
X33600000Y35700000D03*
X25200000Y37700000D03*
G04 #@! TD*
D17*
G04 #@! TO.C,C2*
X14267900Y10560600D03*
X14267900Y9460600D03*
G04 #@! TD*
G04 #@! TO.C,C3*
X14140900Y17532900D03*
X14140900Y16432900D03*
G04 #@! TD*
G04 #@! TO.C,C4*
X22350600Y6940700D03*
X22350600Y8040700D03*
G04 #@! TD*
G04 #@! TO.C,C5*
X23646000Y6940700D03*
X23646000Y8040700D03*
G04 #@! TD*
D18*
G04 #@! TO.C,C6*
X14246400Y7330900D03*
X13146400Y7330900D03*
G04 #@! TD*
G04 #@! TO.C,C7*
X14246400Y8308800D03*
X13146400Y8308800D03*
G04 #@! TD*
D17*
G04 #@! TO.C,C8*
X13150300Y10560600D03*
X13150300Y9460600D03*
G04 #@! TD*
D18*
G04 #@! TO.C,C9*
X14150000Y13800000D03*
X13050000Y13800000D03*
G04 #@! TD*
D17*
G04 #@! TO.C,C10*
X15195000Y16432900D03*
X15195000Y17532900D03*
G04 #@! TD*
G04 #@! TO.C,C11*
X20600000Y17050000D03*
X20600000Y15950000D03*
G04 #@! TD*
G04 #@! TO.C,C12*
X18600000Y18950000D03*
X18600000Y20050000D03*
G04 #@! TD*
G04 #@! TO.C,C13*
X17700000Y18950000D03*
X17700000Y20050000D03*
G04 #@! TD*
D18*
G04 #@! TO.C,C16*
X34450000Y18750000D03*
X35550000Y18750000D03*
G04 #@! TD*
G04 #@! TO.C,C17*
X34450000Y19750000D03*
X35550000Y19750000D03*
G04 #@! TD*
G04 #@! TO.C,C18*
X2450000Y18750000D03*
X3550000Y18750000D03*
G04 #@! TD*
G04 #@! TO.C,C19*
X3550000Y19750000D03*
X2450000Y19750000D03*
G04 #@! TD*
D19*
G04 #@! TO.C,U3*
X22650000Y18400000D03*
X22650000Y17100000D03*
X22650000Y17750000D03*
X24550000Y17100000D03*
X24550000Y18400000D03*
G04 #@! TD*
D20*
G04 #@! TO.C,R2*
X16175000Y7375000D03*
X16175000Y6475000D03*
G04 #@! TD*
G04 #@! TO.C,R3*
X18075000Y6475000D03*
X18075000Y7375000D03*
G04 #@! TD*
G04 #@! TO.C,R4*
X19025000Y7375000D03*
X19025000Y6475000D03*
G04 #@! TD*
G04 #@! TO.C,R5*
X19975000Y6475000D03*
X19975000Y7375000D03*
G04 #@! TD*
G04 #@! TO.C,R6*
X20925000Y7375000D03*
X20925000Y6475000D03*
G04 #@! TD*
G04 #@! TO.C,R7*
X17125000Y6475000D03*
X17125000Y7375000D03*
G04 #@! TD*
D21*
G04 #@! TO.C,R9*
X22479300Y10900000D03*
X23379300Y10900000D03*
G04 #@! TD*
G04 #@! TO.C,R10*
X23379300Y9947100D03*
X22479300Y9947100D03*
G04 #@! TD*
M02*
