G04 #@! TF.GenerationSoftware,KiCad,Pcbnew,(5.0.1-3-g963ef8bb5)*
G04 #@! TF.CreationDate,2019-01-09T17:43:23-05:00*
G04 #@! TF.ProjectId,Tympan_AIC_Shield,54796D70616E5F4149435F536869656C,rev?*
G04 #@! TF.SameCoordinates,PX6d878d0PY5279480*
G04 #@! TF.FileFunction,Copper,L2,Inr,Plane*
G04 #@! TF.FilePolarity,Positive*
%FSLAX46Y46*%
G04 Gerber Fmt 4.6, Leading zero omitted, Abs format (unit mm)*
G04 Created by KiCad (PCBNEW (5.0.1-3-g963ef8bb5)) date Wednesday, January 09, 2019 at 05:43:23 PM*
%MOMM*%
%LPD*%
G01*
G04 APERTURE LIST*
G04 #@! TA.AperFunction,ViaPad*
%ADD10R,1.700000X1.700000*%
G04 #@! TD*
G04 #@! TA.AperFunction,ViaPad*
%ADD11O,1.700000X1.700000*%
G04 #@! TD*
G04 #@! TA.AperFunction,ViaPad*
%ADD12C,0.600000*%
G04 #@! TD*
G04 #@! TA.AperFunction,Conductor*
%ADD13C,0.177800*%
G04 #@! TD*
G04 #@! TA.AperFunction,Conductor*
%ADD14C,0.203200*%
G04 #@! TD*
G04 #@! TA.AperFunction,Conductor*
%ADD15C,0.254000*%
G04 #@! TD*
G04 APERTURE END LIST*
D10*
G04 #@! TO.N,+3V3*
G04 #@! TO.C,P3*
X36200000Y14700000D03*
D11*
G04 #@! TO.N,/DOUT_1*
X36200000Y12160000D03*
G04 #@! TO.N,/DIN_1*
X36200000Y9620000D03*
G04 #@! TO.N,/SDA2*
X36200000Y7080000D03*
G04 #@! TO.N,/SCL2*
X36200000Y4540000D03*
G04 #@! TO.N,GND*
X36200000Y2000000D03*
G04 #@! TD*
D10*
G04 #@! TO.N,/M_BIAS_1*
G04 #@! TO.C,P4*
X4400000Y14700000D03*
D11*
G04 #@! TO.N,/MCLK*
X4400000Y12160000D03*
G04 #@! TO.N,/BCLK*
X4400000Y9620000D03*
G04 #@! TO.N,/WCLK*
X4400000Y7080000D03*
G04 #@! TO.N,/nRESET_1*
X4400000Y4540000D03*
G04 #@! TO.N,GND*
X4400000Y2000000D03*
G04 #@! TD*
D10*
G04 #@! TO.N,+1V8*
G04 #@! TO.C,P5*
X7050000Y14700000D03*
D11*
G04 #@! TO.N,Net-(C23-Pad2)*
X7050000Y12160000D03*
G04 #@! TO.N,Net-(C24-Pad2)*
X7050000Y9620000D03*
G04 #@! TO.N,Net-(C25-Pad2)*
X7050000Y7080000D03*
G04 #@! TO.N,Net-(C26-Pad2)*
X7050000Y4540000D03*
G04 #@! TO.N,GND*
X7050000Y2000000D03*
G04 #@! TD*
D10*
G04 #@! TO.N,/TX_3*
G04 #@! TO.C,P2*
X33500000Y14700000D03*
D11*
G04 #@! TO.N,/RX_3*
X33500000Y12160000D03*
G04 #@! TO.N,/MISO_2*
X33500000Y9620000D03*
G04 #@! TO.N,/MOSI_2*
X33500000Y7080000D03*
G04 #@! TO.N,/SCK_2*
X33500000Y4540000D03*
G04 #@! TO.N,/SS_2*
X33500000Y2000000D03*
G04 #@! TD*
G04 #@! TO.N,Net-(P1-Pad6)*
G04 #@! TO.C,P1*
X1750000Y2000000D03*
G04 #@! TO.N,Net-(P1-Pad5)*
X1750000Y4540000D03*
G04 #@! TO.N,Net-(P1-Pad4)*
X1750000Y7080000D03*
G04 #@! TO.N,Net-(P1-Pad3)*
X1750000Y9620000D03*
G04 #@! TO.N,Net-(P1-Pad2)*
X1750000Y12160000D03*
D10*
G04 #@! TO.N,Net-(P1-Pad1)*
X1750000Y14700000D03*
G04 #@! TD*
D12*
G04 #@! TO.N,GND*
X17000000Y15400000D03*
X36750000Y23600000D03*
X32250000Y22350000D03*
X1100000Y21050000D03*
X5600000Y22300000D03*
X19294600Y12383000D03*
X17394600Y12383000D03*
X23000000Y6175000D03*
X24766379Y35718390D03*
X21550000Y17150000D03*
X20600000Y15200008D03*
X17394600Y10456090D03*
X19294600Y10456090D03*
G04 #@! TO.N,+3V3*
X36600000Y17700000D03*
X4400000Y17900000D03*
X24550000Y19299998D03*
X24450000Y8075000D03*
X13343903Y16450000D03*
G04 #@! TO.N,+1V8*
X16100000Y16600000D03*
X13600000Y14500000D03*
X15200000Y7300000D03*
G04 #@! TO.N,Net-(C17-Pad2)*
X36500000Y20100000D03*
G04 #@! TO.N,Net-(C19-Pad2)*
X1300000Y19800000D03*
G04 #@! TO.N,Net-(J1-Pad3)*
X19500000Y31600000D03*
X31275000Y35000000D03*
G04 #@! TO.N,/MICDET*
X9400000Y22000000D03*
X12775003Y12500003D03*
G04 #@! TO.N,/BCLK*
X18175000Y5650000D03*
X9650000Y5825000D03*
G04 #@! TO.N,/MCLK*
X17125000Y5650000D03*
X10250000Y6925000D03*
G04 #@! TO.N,/WCLK*
X19075000Y5575000D03*
X10200000Y4850000D03*
G04 #@! TO.N,/HPL*
X15050000Y14250000D03*
X15050000Y27825000D03*
G04 #@! TO.N,/HPR*
X14275000Y12700000D03*
X15025000Y28700000D03*
G04 #@! TO.N,Net-(R16-Pad2)*
X15900000Y18925000D03*
X21400000Y18300000D03*
G04 #@! TO.N,Net-(C12-Pad2)*
X6700000Y26800000D03*
X20150000Y25000000D03*
G04 #@! TO.N,Net-(C13-Pad2)*
X12200000Y33500000D03*
X11200000Y22100000D03*
G04 #@! TO.N,/nRESET_1*
X15950000Y3775000D03*
G04 #@! TO.N,/DIN_1*
X22975000Y9000000D03*
X19975000Y5600000D03*
G04 #@! TO.N,/DOUT_1*
X24125000Y11700000D03*
X20925000Y5650000D03*
G04 #@! TO.N,/SDA2*
X25800000Y10825000D03*
X25850000Y5875000D03*
G04 #@! TO.N,/SCL2*
X25200000Y3425000D03*
X25177902Y9947110D03*
G04 #@! TO.N,/M_BIAS_1*
X10450000Y13425000D03*
X25500000Y13950000D03*
G04 #@! TO.N,/IN2_L_1*
X28425000Y13375000D03*
X28425002Y19775000D03*
G04 #@! TO.N,/IN2_R_1*
X5400000Y19850000D03*
X21300000Y21400000D03*
X20850000Y14225000D03*
G04 #@! TO.N,/IN1_R_1*
X22825000Y12425000D03*
X9672364Y11060835D03*
G04 #@! TO.N,/IN1_L_1*
X22200000Y11800000D03*
X10575000Y11025000D03*
G04 #@! TO.N,/LOL_1*
X17100000Y17550000D03*
X11875000Y17575000D03*
X11850000Y7150000D03*
G04 #@! TO.N,/LOR_1*
X17250000Y16500000D03*
X11275000Y15875000D03*
X11300000Y4500000D03*
G04 #@! TD*
D13*
G04 #@! TO.N,GND*
X17000000Y15400000D02*
X23200000Y21950000D01*
D14*
X24466380Y35418391D02*
X24766379Y35718390D01*
X23200000Y21950000D02*
X23200000Y34152011D01*
X23200000Y34152011D02*
X24466380Y35418391D01*
D13*
G04 #@! TO.N,/MICDET*
X12775003Y18624997D02*
X12775003Y12924267D01*
X9400000Y22000000D02*
X12775003Y18624997D01*
X12775003Y12924267D02*
X12775003Y12500003D01*
G04 #@! TO.N,/HPL*
X15050000Y27825000D02*
X15050000Y14250000D01*
G04 #@! TO.N,/HPR*
X15025000Y28700000D02*
X14275000Y27950000D01*
X14275000Y27950000D02*
X14275000Y12700000D01*
D14*
G04 #@! TO.N,Net-(C13-Pad2)*
X11200000Y22100000D02*
X12200000Y23100000D01*
D13*
X12200000Y33800000D02*
X12200000Y23400000D01*
D14*
X12200000Y23100000D02*
X12200000Y23400000D01*
D13*
G04 #@! TO.N,/LOL_1*
X11875000Y7175000D02*
X11850000Y7150000D01*
X11875000Y17575000D02*
X11875000Y7175000D01*
G04 #@! TO.N,/LOR_1*
X11275000Y15875000D02*
X11275000Y4525000D01*
X11275000Y4525000D02*
X11300000Y4500000D01*
G04 #@! TD*
D15*
G04 #@! TO.N,+1V8*
G36*
X36104960Y39541389D02*
X36178489Y39524346D01*
X36621546Y39457736D01*
X36960246Y39295094D01*
X37236147Y39040054D01*
X37424860Y38715161D01*
X37515761Y38322987D01*
X37519371Y38231115D01*
X37544001Y38102001D01*
X37544000Y1900370D01*
X37541389Y1895040D01*
X37524346Y1821511D01*
X37457736Y1378454D01*
X37295094Y1039754D01*
X37040054Y763853D01*
X36715162Y575141D01*
X36322983Y484239D01*
X36231115Y480629D01*
X36102007Y456000D01*
X1900370Y456000D01*
X1895040Y458611D01*
X1821511Y475654D01*
X1378454Y542264D01*
X1039754Y704906D01*
X763853Y959946D01*
X575141Y1284838D01*
X484239Y1677017D01*
X480629Y1768885D01*
X456000Y1897993D01*
X456000Y2000000D01*
X494884Y2000000D01*
X590424Y1519688D01*
X862499Y1112499D01*
X1269688Y840424D01*
X1628761Y769000D01*
X1871239Y769000D01*
X2230312Y840424D01*
X2637501Y1112499D01*
X2909576Y1519688D01*
X3005116Y2000000D01*
X3144884Y2000000D01*
X3240424Y1519688D01*
X3512499Y1112499D01*
X3919688Y840424D01*
X4278761Y769000D01*
X4521239Y769000D01*
X4880312Y840424D01*
X5287501Y1112499D01*
X5559576Y1519688D01*
X5655116Y2000000D01*
X5794884Y2000000D01*
X5890424Y1519688D01*
X6162499Y1112499D01*
X6569688Y840424D01*
X6928761Y769000D01*
X7171239Y769000D01*
X7530312Y840424D01*
X7937501Y1112499D01*
X8209576Y1519688D01*
X8305116Y2000000D01*
X32244884Y2000000D01*
X32340424Y1519688D01*
X32612499Y1112499D01*
X33019688Y840424D01*
X33378761Y769000D01*
X33621239Y769000D01*
X33980312Y840424D01*
X34387501Y1112499D01*
X34659576Y1519688D01*
X34755116Y2000000D01*
X34944884Y2000000D01*
X35040424Y1519688D01*
X35312499Y1112499D01*
X35719688Y840424D01*
X36078761Y769000D01*
X36321239Y769000D01*
X36680312Y840424D01*
X37087501Y1112499D01*
X37359576Y1519688D01*
X37455116Y2000000D01*
X37359576Y2480312D01*
X37087501Y2887501D01*
X36680312Y3159576D01*
X36321239Y3231000D01*
X36078761Y3231000D01*
X35719688Y3159576D01*
X35312499Y2887501D01*
X35040424Y2480312D01*
X34944884Y2000000D01*
X34755116Y2000000D01*
X34659576Y2480312D01*
X34387501Y2887501D01*
X33980312Y3159576D01*
X33621239Y3231000D01*
X33378761Y3231000D01*
X33019688Y3159576D01*
X32612499Y2887501D01*
X32340424Y2480312D01*
X32244884Y2000000D01*
X8305116Y2000000D01*
X8209576Y2480312D01*
X7937501Y2887501D01*
X7530312Y3159576D01*
X7171239Y3231000D01*
X6928761Y3231000D01*
X6569688Y3159576D01*
X6162499Y2887501D01*
X5890424Y2480312D01*
X5794884Y2000000D01*
X5655116Y2000000D01*
X5559576Y2480312D01*
X5287501Y2887501D01*
X4880312Y3159576D01*
X4521239Y3231000D01*
X4278761Y3231000D01*
X3919688Y3159576D01*
X3512499Y2887501D01*
X3240424Y2480312D01*
X3144884Y2000000D01*
X3005116Y2000000D01*
X2909576Y2480312D01*
X2637501Y2887501D01*
X2230312Y3159576D01*
X1871239Y3231000D01*
X1628761Y3231000D01*
X1269688Y3159576D01*
X862499Y2887501D01*
X590424Y2480312D01*
X494884Y2000000D01*
X456000Y2000000D01*
X456000Y4540000D01*
X494884Y4540000D01*
X590424Y4059688D01*
X862499Y3652499D01*
X1269688Y3380424D01*
X1628761Y3309000D01*
X1871239Y3309000D01*
X2230312Y3380424D01*
X2637501Y3652499D01*
X2909576Y4059688D01*
X3005116Y4540000D01*
X3144884Y4540000D01*
X3240424Y4059688D01*
X3512499Y3652499D01*
X3919688Y3380424D01*
X4278761Y3309000D01*
X4521239Y3309000D01*
X4880312Y3380424D01*
X5287501Y3652499D01*
X5559576Y4059688D01*
X5655116Y4540000D01*
X5794884Y4540000D01*
X5890424Y4059688D01*
X6162499Y3652499D01*
X6569688Y3380424D01*
X6928761Y3309000D01*
X7171239Y3309000D01*
X7530312Y3380424D01*
X7937501Y3652499D01*
X8209576Y4059688D01*
X8305116Y4540000D01*
X8209576Y5020312D01*
X7937501Y5427501D01*
X7530312Y5699576D01*
X7171239Y5771000D01*
X6928761Y5771000D01*
X6569688Y5699576D01*
X6162499Y5427501D01*
X5890424Y5020312D01*
X5794884Y4540000D01*
X5655116Y4540000D01*
X5559576Y5020312D01*
X5287501Y5427501D01*
X4880312Y5699576D01*
X4521239Y5771000D01*
X4278761Y5771000D01*
X3919688Y5699576D01*
X3512499Y5427501D01*
X3240424Y5020312D01*
X3144884Y4540000D01*
X3005116Y4540000D01*
X2909576Y5020312D01*
X2637501Y5427501D01*
X2230312Y5699576D01*
X1871239Y5771000D01*
X1628761Y5771000D01*
X1269688Y5699576D01*
X862499Y5427501D01*
X590424Y5020312D01*
X494884Y4540000D01*
X456000Y4540000D01*
X456000Y7080000D01*
X494884Y7080000D01*
X590424Y6599688D01*
X862499Y6192499D01*
X1269688Y5920424D01*
X1628761Y5849000D01*
X1871239Y5849000D01*
X2230312Y5920424D01*
X2637501Y6192499D01*
X2909576Y6599688D01*
X3005116Y7080000D01*
X3144884Y7080000D01*
X3240424Y6599688D01*
X3512499Y6192499D01*
X3919688Y5920424D01*
X4278761Y5849000D01*
X4521239Y5849000D01*
X4880312Y5920424D01*
X5287501Y6192499D01*
X5559576Y6599688D01*
X5655116Y7080000D01*
X5794884Y7080000D01*
X5890424Y6599688D01*
X6162499Y6192499D01*
X6569688Y5920424D01*
X6928761Y5849000D01*
X7171239Y5849000D01*
X7530312Y5920424D01*
X7937501Y6192499D01*
X8209576Y6599688D01*
X8305116Y7080000D01*
X8209576Y7560312D01*
X7937501Y7967501D01*
X7530312Y8239576D01*
X7171239Y8311000D01*
X6928761Y8311000D01*
X6569688Y8239576D01*
X6162499Y7967501D01*
X5890424Y7560312D01*
X5794884Y7080000D01*
X5655116Y7080000D01*
X5559576Y7560312D01*
X5287501Y7967501D01*
X4880312Y8239576D01*
X4521239Y8311000D01*
X4278761Y8311000D01*
X3919688Y8239576D01*
X3512499Y7967501D01*
X3240424Y7560312D01*
X3144884Y7080000D01*
X3005116Y7080000D01*
X2909576Y7560312D01*
X2637501Y7967501D01*
X2230312Y8239576D01*
X1871239Y8311000D01*
X1628761Y8311000D01*
X1269688Y8239576D01*
X862499Y7967501D01*
X590424Y7560312D01*
X494884Y7080000D01*
X456000Y7080000D01*
X456000Y9620000D01*
X494884Y9620000D01*
X590424Y9139688D01*
X862499Y8732499D01*
X1269688Y8460424D01*
X1628761Y8389000D01*
X1871239Y8389000D01*
X2230312Y8460424D01*
X2637501Y8732499D01*
X2909576Y9139688D01*
X3005116Y9620000D01*
X3144884Y9620000D01*
X3240424Y9139688D01*
X3512499Y8732499D01*
X3919688Y8460424D01*
X4278761Y8389000D01*
X4521239Y8389000D01*
X4880312Y8460424D01*
X5287501Y8732499D01*
X5559576Y9139688D01*
X5655116Y9620000D01*
X5794884Y9620000D01*
X5890424Y9139688D01*
X6162499Y8732499D01*
X6569688Y8460424D01*
X6928761Y8389000D01*
X7171239Y8389000D01*
X7530312Y8460424D01*
X7937501Y8732499D01*
X8209576Y9139688D01*
X8305116Y9620000D01*
X8209576Y10100312D01*
X7937501Y10507501D01*
X7530312Y10779576D01*
X7171239Y10851000D01*
X6928761Y10851000D01*
X6569688Y10779576D01*
X6162499Y10507501D01*
X5890424Y10100312D01*
X5794884Y9620000D01*
X5655116Y9620000D01*
X5559576Y10100312D01*
X5287501Y10507501D01*
X4880312Y10779576D01*
X4521239Y10851000D01*
X4278761Y10851000D01*
X3919688Y10779576D01*
X3512499Y10507501D01*
X3240424Y10100312D01*
X3144884Y9620000D01*
X3005116Y9620000D01*
X2909576Y10100312D01*
X2637501Y10507501D01*
X2230312Y10779576D01*
X1871239Y10851000D01*
X1628761Y10851000D01*
X1269688Y10779576D01*
X862499Y10507501D01*
X590424Y10100312D01*
X494884Y9620000D01*
X456000Y9620000D01*
X456000Y12160000D01*
X494884Y12160000D01*
X590424Y11679688D01*
X862499Y11272499D01*
X1269688Y11000424D01*
X1628761Y10929000D01*
X1871239Y10929000D01*
X2230312Y11000424D01*
X2637501Y11272499D01*
X2909576Y11679688D01*
X3005116Y12160000D01*
X3144884Y12160000D01*
X3240424Y11679688D01*
X3512499Y11272499D01*
X3919688Y11000424D01*
X4278761Y10929000D01*
X4521239Y10929000D01*
X4880312Y11000424D01*
X5287501Y11272499D01*
X5559576Y11679688D01*
X5655116Y12160000D01*
X5794884Y12160000D01*
X5890424Y11679688D01*
X6162499Y11272499D01*
X6569688Y11000424D01*
X6928761Y10929000D01*
X7171239Y10929000D01*
X7530312Y11000424D01*
X7937501Y11272499D01*
X8209576Y11679688D01*
X8305116Y12160000D01*
X8209576Y12640312D01*
X7937501Y13047501D01*
X7530312Y13319576D01*
X7171239Y13391000D01*
X6928761Y13391000D01*
X6569688Y13319576D01*
X6162499Y13047501D01*
X5890424Y12640312D01*
X5794884Y12160000D01*
X5655116Y12160000D01*
X5559576Y12640312D01*
X5287501Y13047501D01*
X4880312Y13319576D01*
X4521239Y13391000D01*
X4278761Y13391000D01*
X3919688Y13319576D01*
X3512499Y13047501D01*
X3240424Y12640312D01*
X3144884Y12160000D01*
X3005116Y12160000D01*
X2909576Y12640312D01*
X2637501Y13047501D01*
X2230312Y13319576D01*
X1871239Y13391000D01*
X1628761Y13391000D01*
X1269688Y13319576D01*
X862499Y13047501D01*
X590424Y12640312D01*
X494884Y12160000D01*
X456000Y12160000D01*
X456000Y15550000D01*
X511536Y15550000D01*
X511536Y13850000D01*
X541106Y13701341D01*
X625314Y13575314D01*
X751341Y13491106D01*
X900000Y13461536D01*
X2600000Y13461536D01*
X2748659Y13491106D01*
X2874686Y13575314D01*
X2958894Y13701341D01*
X2988464Y13850000D01*
X2988464Y15550000D01*
X3161536Y15550000D01*
X3161536Y13850000D01*
X3191106Y13701341D01*
X3275314Y13575314D01*
X3401341Y13491106D01*
X3550000Y13461536D01*
X5250000Y13461536D01*
X5398659Y13491106D01*
X5524686Y13575314D01*
X5608894Y13701341D01*
X5638464Y13850000D01*
X5638464Y14477750D01*
X5819000Y14477750D01*
X5819000Y13774215D01*
X5877004Y13634181D01*
X5984180Y13527004D01*
X6124214Y13469000D01*
X6827750Y13469000D01*
X6923000Y13564250D01*
X6923000Y14573000D01*
X7177000Y14573000D01*
X7177000Y13564250D01*
X7272250Y13469000D01*
X7975786Y13469000D01*
X8115820Y13527004D01*
X8222996Y13634181D01*
X8281000Y13774215D01*
X8281000Y14477750D01*
X8185750Y14573000D01*
X7177000Y14573000D01*
X6923000Y14573000D01*
X5914250Y14573000D01*
X5819000Y14477750D01*
X5638464Y14477750D01*
X5638464Y15550000D01*
X5623390Y15625785D01*
X5819000Y15625785D01*
X5819000Y14922250D01*
X5914250Y14827000D01*
X6923000Y14827000D01*
X6923000Y15835750D01*
X7177000Y15835750D01*
X7177000Y14827000D01*
X8185750Y14827000D01*
X8281000Y14922250D01*
X8281000Y15625785D01*
X8222996Y15765819D01*
X8115820Y15872996D01*
X7975786Y15931000D01*
X7272250Y15931000D01*
X7177000Y15835750D01*
X6923000Y15835750D01*
X6827750Y15931000D01*
X6124214Y15931000D01*
X5984180Y15872996D01*
X5877004Y15765819D01*
X5819000Y15625785D01*
X5623390Y15625785D01*
X5608894Y15698659D01*
X5524686Y15824686D01*
X5398659Y15908894D01*
X5250000Y15938464D01*
X3550000Y15938464D01*
X3401341Y15908894D01*
X3275314Y15824686D01*
X3191106Y15698659D01*
X3161536Y15550000D01*
X2988464Y15550000D01*
X2958894Y15698659D01*
X2874686Y15824686D01*
X2748659Y15908894D01*
X2600000Y15938464D01*
X900000Y15938464D01*
X751341Y15908894D01*
X625314Y15824686D01*
X541106Y15698659D01*
X511536Y15550000D01*
X456000Y15550000D01*
X456000Y18035459D01*
X3719000Y18035459D01*
X3719000Y17764541D01*
X3822676Y17514244D01*
X4014244Y17322676D01*
X4264541Y17219000D01*
X4535459Y17219000D01*
X4785756Y17322676D01*
X4977324Y17514244D01*
X5081000Y17764541D01*
X5081000Y18035459D01*
X4977324Y18285756D01*
X4785756Y18477324D01*
X4535459Y18581000D01*
X4264541Y18581000D01*
X4014244Y18477324D01*
X3822676Y18285756D01*
X3719000Y18035459D01*
X456000Y18035459D01*
X456000Y20825215D01*
X522676Y20664244D01*
X714244Y20472676D01*
X929345Y20383579D01*
X914244Y20377324D01*
X722676Y20185756D01*
X619000Y19935459D01*
X619000Y19664541D01*
X722676Y19414244D01*
X914244Y19222676D01*
X1164541Y19119000D01*
X1435459Y19119000D01*
X1685756Y19222676D01*
X1877324Y19414244D01*
X1981000Y19664541D01*
X1981000Y19935459D01*
X1960290Y19985459D01*
X4719000Y19985459D01*
X4719000Y19714541D01*
X4822676Y19464244D01*
X5014244Y19272676D01*
X5264541Y19169000D01*
X5535459Y19169000D01*
X5785756Y19272676D01*
X5977324Y19464244D01*
X6081000Y19714541D01*
X6081000Y19985459D01*
X5977324Y20235756D01*
X5785756Y20427324D01*
X5535459Y20531000D01*
X5264541Y20531000D01*
X5014244Y20427324D01*
X4822676Y20235756D01*
X4719000Y19985459D01*
X1960290Y19985459D01*
X1877324Y20185756D01*
X1685756Y20377324D01*
X1470655Y20466421D01*
X1485756Y20472676D01*
X1677324Y20664244D01*
X1781000Y20914541D01*
X1781000Y21185459D01*
X1677324Y21435756D01*
X1485756Y21627324D01*
X1418093Y21655351D01*
X2219000Y21655351D01*
X2219000Y21344649D01*
X2337900Y21057599D01*
X2557599Y20837900D01*
X2844649Y20719000D01*
X3155351Y20719000D01*
X3442401Y20837900D01*
X3662100Y21057599D01*
X3781000Y21344649D01*
X3781000Y21655351D01*
X3662100Y21942401D01*
X3442401Y22162100D01*
X3155351Y22281000D01*
X2844649Y22281000D01*
X2557599Y22162100D01*
X2337900Y21942401D01*
X2219000Y21655351D01*
X1418093Y21655351D01*
X1235459Y21731000D01*
X964541Y21731000D01*
X714244Y21627324D01*
X522676Y21435756D01*
X456000Y21274785D01*
X456000Y22435459D01*
X4919000Y22435459D01*
X4919000Y22164541D01*
X5022676Y21914244D01*
X5214244Y21722676D01*
X5464541Y21619000D01*
X5735459Y21619000D01*
X5985756Y21722676D01*
X6177324Y21914244D01*
X6268953Y22135459D01*
X8719000Y22135459D01*
X8719000Y21864541D01*
X8822676Y21614244D01*
X9014244Y21422676D01*
X9264541Y21319000D01*
X9416462Y21319000D01*
X12305103Y18430358D01*
X12305103Y18107977D01*
X12260756Y18152324D01*
X12010459Y18256000D01*
X11739541Y18256000D01*
X11489244Y18152324D01*
X11297676Y17960756D01*
X11194000Y17710459D01*
X11194000Y17439541D01*
X11297676Y17189244D01*
X11405100Y17081820D01*
X11405100Y16556000D01*
X11139541Y16556000D01*
X10889244Y16452324D01*
X10697676Y16260756D01*
X10594000Y16010459D01*
X10594000Y15739541D01*
X10697676Y15489244D01*
X10805100Y15381820D01*
X10805100Y14015022D01*
X10585459Y14106000D01*
X10314541Y14106000D01*
X10064244Y14002324D01*
X9872676Y13810756D01*
X9769000Y13560459D01*
X9769000Y13289541D01*
X9872676Y13039244D01*
X10064244Y12847676D01*
X10314541Y12744000D01*
X10585459Y12744000D01*
X10805100Y12834978D01*
X10805100Y11666798D01*
X10710459Y11706000D01*
X10439541Y11706000D01*
X10189244Y11602324D01*
X10141600Y11554679D01*
X10058120Y11638159D01*
X9807823Y11741835D01*
X9536905Y11741835D01*
X9286608Y11638159D01*
X9095040Y11446591D01*
X8991364Y11196294D01*
X8991364Y10925376D01*
X9095040Y10675079D01*
X9286608Y10483511D01*
X9536905Y10379835D01*
X9807823Y10379835D01*
X10058120Y10483511D01*
X10105765Y10531155D01*
X10189244Y10447676D01*
X10439541Y10344000D01*
X10710459Y10344000D01*
X10805100Y10383202D01*
X10805101Y7332979D01*
X10635756Y7502324D01*
X10385459Y7606000D01*
X10114541Y7606000D01*
X9864244Y7502324D01*
X9672676Y7310756D01*
X9569000Y7060459D01*
X9569000Y6789541D01*
X9672676Y6539244D01*
X9705920Y6506000D01*
X9514541Y6506000D01*
X9264244Y6402324D01*
X9072676Y6210756D01*
X8969000Y5960459D01*
X8969000Y5689541D01*
X9072676Y5439244D01*
X9264244Y5247676D01*
X9514541Y5144000D01*
X9584670Y5144000D01*
X9519000Y4985459D01*
X9519000Y4714541D01*
X9622676Y4464244D01*
X9814244Y4272676D01*
X10064541Y4169000D01*
X10335459Y4169000D01*
X10585756Y4272676D01*
X10636170Y4323090D01*
X10722676Y4114244D01*
X10914244Y3922676D01*
X11164541Y3819000D01*
X11435459Y3819000D01*
X11656261Y3910459D01*
X15269000Y3910459D01*
X15269000Y3639541D01*
X15372676Y3389244D01*
X15564244Y3197676D01*
X15814541Y3094000D01*
X16085459Y3094000D01*
X16335756Y3197676D01*
X16527324Y3389244D01*
X16598243Y3560459D01*
X24519000Y3560459D01*
X24519000Y3289541D01*
X24622676Y3039244D01*
X24814244Y2847676D01*
X25064541Y2744000D01*
X25335459Y2744000D01*
X25585756Y2847676D01*
X25777324Y3039244D01*
X25881000Y3289541D01*
X25881000Y3560459D01*
X25777324Y3810756D01*
X25585756Y4002324D01*
X25335459Y4106000D01*
X25064541Y4106000D01*
X24814244Y4002324D01*
X24622676Y3810756D01*
X24519000Y3560459D01*
X16598243Y3560459D01*
X16631000Y3639541D01*
X16631000Y3910459D01*
X16527324Y4160756D01*
X16335756Y4352324D01*
X16085459Y4456000D01*
X15814541Y4456000D01*
X15564244Y4352324D01*
X15372676Y4160756D01*
X15269000Y3910459D01*
X11656261Y3910459D01*
X11685756Y3922676D01*
X11877324Y4114244D01*
X11981000Y4364541D01*
X11981000Y4540000D01*
X32244884Y4540000D01*
X32340424Y4059688D01*
X32612499Y3652499D01*
X33019688Y3380424D01*
X33378761Y3309000D01*
X33621239Y3309000D01*
X33980312Y3380424D01*
X34387501Y3652499D01*
X34659576Y4059688D01*
X34755116Y4540000D01*
X34944884Y4540000D01*
X35040424Y4059688D01*
X35312499Y3652499D01*
X35719688Y3380424D01*
X36078761Y3309000D01*
X36321239Y3309000D01*
X36680312Y3380424D01*
X37087501Y3652499D01*
X37359576Y4059688D01*
X37455116Y4540000D01*
X37359576Y5020312D01*
X37087501Y5427501D01*
X36680312Y5699576D01*
X36321239Y5771000D01*
X36078761Y5771000D01*
X35719688Y5699576D01*
X35312499Y5427501D01*
X35040424Y5020312D01*
X34944884Y4540000D01*
X34755116Y4540000D01*
X34659576Y5020312D01*
X34387501Y5427501D01*
X33980312Y5699576D01*
X33621239Y5771000D01*
X33378761Y5771000D01*
X33019688Y5699576D01*
X32612499Y5427501D01*
X32340424Y5020312D01*
X32244884Y4540000D01*
X11981000Y4540000D01*
X11981000Y4635459D01*
X11877324Y4885756D01*
X11744900Y5018180D01*
X11744900Y5785459D01*
X16444000Y5785459D01*
X16444000Y5514541D01*
X16547676Y5264244D01*
X16739244Y5072676D01*
X16989541Y4969000D01*
X17260459Y4969000D01*
X17510756Y5072676D01*
X17650000Y5211920D01*
X17789244Y5072676D01*
X18039541Y4969000D01*
X18310459Y4969000D01*
X18560756Y5072676D01*
X18587500Y5099420D01*
X18689244Y4997676D01*
X18939541Y4894000D01*
X19210459Y4894000D01*
X19460756Y4997676D01*
X19537500Y5074420D01*
X19589244Y5022676D01*
X19839541Y4919000D01*
X20110459Y4919000D01*
X20360756Y5022676D01*
X20475000Y5136920D01*
X20539244Y5072676D01*
X20789541Y4969000D01*
X21060459Y4969000D01*
X21310756Y5072676D01*
X21502324Y5264244D01*
X21606000Y5514541D01*
X21606000Y5785459D01*
X21502324Y6035756D01*
X21310756Y6227324D01*
X21110050Y6310459D01*
X22319000Y6310459D01*
X22319000Y6039541D01*
X22422676Y5789244D01*
X22614244Y5597676D01*
X22864541Y5494000D01*
X23135459Y5494000D01*
X23385756Y5597676D01*
X23577324Y5789244D01*
X23668953Y6010459D01*
X25169000Y6010459D01*
X25169000Y5739541D01*
X25272676Y5489244D01*
X25464244Y5297676D01*
X25714541Y5194000D01*
X25985459Y5194000D01*
X26235756Y5297676D01*
X26427324Y5489244D01*
X26531000Y5739541D01*
X26531000Y6010459D01*
X26427324Y6260756D01*
X26235756Y6452324D01*
X25985459Y6556000D01*
X25714541Y6556000D01*
X25464244Y6452324D01*
X25272676Y6260756D01*
X25169000Y6010459D01*
X23668953Y6010459D01*
X23681000Y6039541D01*
X23681000Y6310459D01*
X23577324Y6560756D01*
X23385756Y6752324D01*
X23135459Y6856000D01*
X22864541Y6856000D01*
X22614244Y6752324D01*
X22422676Y6560756D01*
X22319000Y6310459D01*
X21110050Y6310459D01*
X21060459Y6331000D01*
X20789541Y6331000D01*
X20539244Y6227324D01*
X20425000Y6113080D01*
X20360756Y6177324D01*
X20110459Y6281000D01*
X19839541Y6281000D01*
X19589244Y6177324D01*
X19512500Y6100580D01*
X19460756Y6152324D01*
X19210459Y6256000D01*
X18939541Y6256000D01*
X18689244Y6152324D01*
X18662500Y6125580D01*
X18560756Y6227324D01*
X18310459Y6331000D01*
X18039541Y6331000D01*
X17789244Y6227324D01*
X17650000Y6088080D01*
X17510756Y6227324D01*
X17260459Y6331000D01*
X16989541Y6331000D01*
X16739244Y6227324D01*
X16547676Y6035756D01*
X16444000Y5785459D01*
X11744900Y5785459D01*
X11744900Y6469000D01*
X11985459Y6469000D01*
X12235756Y6572676D01*
X12427324Y6764244D01*
X12531000Y7014541D01*
X12531000Y7080000D01*
X32244884Y7080000D01*
X32340424Y6599688D01*
X32612499Y6192499D01*
X33019688Y5920424D01*
X33378761Y5849000D01*
X33621239Y5849000D01*
X33980312Y5920424D01*
X34387501Y6192499D01*
X34659576Y6599688D01*
X34755116Y7080000D01*
X34944884Y7080000D01*
X35040424Y6599688D01*
X35312499Y6192499D01*
X35719688Y5920424D01*
X36078761Y5849000D01*
X36321239Y5849000D01*
X36680312Y5920424D01*
X37087501Y6192499D01*
X37359576Y6599688D01*
X37455116Y7080000D01*
X37359576Y7560312D01*
X37087501Y7967501D01*
X36680312Y8239576D01*
X36321239Y8311000D01*
X36078761Y8311000D01*
X35719688Y8239576D01*
X35312499Y7967501D01*
X35040424Y7560312D01*
X34944884Y7080000D01*
X34755116Y7080000D01*
X34659576Y7560312D01*
X34387501Y7967501D01*
X33980312Y8239576D01*
X33621239Y8311000D01*
X33378761Y8311000D01*
X33019688Y8239576D01*
X32612499Y7967501D01*
X32340424Y7560312D01*
X32244884Y7080000D01*
X12531000Y7080000D01*
X12531000Y7285459D01*
X12427324Y7535756D01*
X12344900Y7618180D01*
X12344900Y8210459D01*
X23769000Y8210459D01*
X23769000Y7939541D01*
X23872676Y7689244D01*
X24064244Y7497676D01*
X24314541Y7394000D01*
X24585459Y7394000D01*
X24835756Y7497676D01*
X25027324Y7689244D01*
X25131000Y7939541D01*
X25131000Y8210459D01*
X25027324Y8460756D01*
X24835756Y8652324D01*
X24585459Y8756000D01*
X24314541Y8756000D01*
X24064244Y8652324D01*
X23872676Y8460756D01*
X23769000Y8210459D01*
X12344900Y8210459D01*
X12344900Y9135459D01*
X22294000Y9135459D01*
X22294000Y8864541D01*
X22397676Y8614244D01*
X22589244Y8422676D01*
X22839541Y8319000D01*
X23110459Y8319000D01*
X23360756Y8422676D01*
X23552324Y8614244D01*
X23656000Y8864541D01*
X23656000Y9135459D01*
X23552324Y9385756D01*
X23360756Y9577324D01*
X23110459Y9681000D01*
X22839541Y9681000D01*
X22589244Y9577324D01*
X22397676Y9385756D01*
X22294000Y9135459D01*
X12344900Y9135459D01*
X12344900Y10591549D01*
X16713600Y10591549D01*
X16713600Y10320631D01*
X16817276Y10070334D01*
X17008844Y9878766D01*
X17259141Y9775090D01*
X17530059Y9775090D01*
X17780356Y9878766D01*
X17971924Y10070334D01*
X18075600Y10320631D01*
X18075600Y10591549D01*
X18613600Y10591549D01*
X18613600Y10320631D01*
X18717276Y10070334D01*
X18908844Y9878766D01*
X19159141Y9775090D01*
X19430059Y9775090D01*
X19680356Y9878766D01*
X19871924Y10070334D01*
X19876991Y10082569D01*
X24496902Y10082569D01*
X24496902Y9811651D01*
X24600578Y9561354D01*
X24792146Y9369786D01*
X25042443Y9266110D01*
X25313361Y9266110D01*
X25563658Y9369786D01*
X25755226Y9561354D01*
X25779517Y9620000D01*
X32244884Y9620000D01*
X32340424Y9139688D01*
X32612499Y8732499D01*
X33019688Y8460424D01*
X33378761Y8389000D01*
X33621239Y8389000D01*
X33980312Y8460424D01*
X34387501Y8732499D01*
X34659576Y9139688D01*
X34755116Y9620000D01*
X34944884Y9620000D01*
X35040424Y9139688D01*
X35312499Y8732499D01*
X35719688Y8460424D01*
X36078761Y8389000D01*
X36321239Y8389000D01*
X36680312Y8460424D01*
X37087501Y8732499D01*
X37359576Y9139688D01*
X37455116Y9620000D01*
X37359576Y10100312D01*
X37087501Y10507501D01*
X36680312Y10779576D01*
X36321239Y10851000D01*
X36078761Y10851000D01*
X35719688Y10779576D01*
X35312499Y10507501D01*
X35040424Y10100312D01*
X34944884Y9620000D01*
X34755116Y9620000D01*
X34659576Y10100312D01*
X34387501Y10507501D01*
X33980312Y10779576D01*
X33621239Y10851000D01*
X33378761Y10851000D01*
X33019688Y10779576D01*
X32612499Y10507501D01*
X32340424Y10100312D01*
X32244884Y9620000D01*
X25779517Y9620000D01*
X25858902Y9811651D01*
X25858902Y10082569D01*
X25833457Y10144000D01*
X25935459Y10144000D01*
X26185756Y10247676D01*
X26377324Y10439244D01*
X26481000Y10689541D01*
X26481000Y10960459D01*
X26377324Y11210756D01*
X26185756Y11402324D01*
X25935459Y11506000D01*
X25664541Y11506000D01*
X25414244Y11402324D01*
X25222676Y11210756D01*
X25119000Y10960459D01*
X25119000Y10689541D01*
X25144445Y10628110D01*
X25042443Y10628110D01*
X24792146Y10524434D01*
X24600578Y10332866D01*
X24496902Y10082569D01*
X19876991Y10082569D01*
X19975600Y10320631D01*
X19975600Y10591549D01*
X19871924Y10841846D01*
X19680356Y11033414D01*
X19430059Y11137090D01*
X19159141Y11137090D01*
X18908844Y11033414D01*
X18717276Y10841846D01*
X18613600Y10591549D01*
X18075600Y10591549D01*
X17971924Y10841846D01*
X17780356Y11033414D01*
X17530059Y11137090D01*
X17259141Y11137090D01*
X17008844Y11033414D01*
X16817276Y10841846D01*
X16713600Y10591549D01*
X12344900Y10591549D01*
X12344900Y11967026D01*
X12389247Y11922679D01*
X12639544Y11819003D01*
X12910462Y11819003D01*
X13160759Y11922679D01*
X13352327Y12114247D01*
X13456003Y12364544D01*
X13456003Y12635462D01*
X13352327Y12885759D01*
X13244903Y12993183D01*
X13244903Y15769000D01*
X13479362Y15769000D01*
X13729659Y15872676D01*
X13805101Y15948118D01*
X13805101Y13193181D01*
X13697676Y13085756D01*
X13594000Y12835459D01*
X13594000Y12564541D01*
X13697676Y12314244D01*
X13889244Y12122676D01*
X14139541Y12019000D01*
X14410459Y12019000D01*
X14660756Y12122676D01*
X14852324Y12314244D01*
X14936912Y12518459D01*
X16713600Y12518459D01*
X16713600Y12247541D01*
X16817276Y11997244D01*
X17008844Y11805676D01*
X17259141Y11702000D01*
X17530059Y11702000D01*
X17780356Y11805676D01*
X17971924Y11997244D01*
X18075600Y12247541D01*
X18075600Y12518459D01*
X18613600Y12518459D01*
X18613600Y12247541D01*
X18717276Y11997244D01*
X18908844Y11805676D01*
X19159141Y11702000D01*
X19430059Y11702000D01*
X19680356Y11805676D01*
X19810139Y11935459D01*
X21519000Y11935459D01*
X21519000Y11664541D01*
X21622676Y11414244D01*
X21814244Y11222676D01*
X22064541Y11119000D01*
X22335459Y11119000D01*
X22585756Y11222676D01*
X22777324Y11414244D01*
X22881000Y11664541D01*
X22881000Y11744000D01*
X22960459Y11744000D01*
X23181261Y11835459D01*
X23444000Y11835459D01*
X23444000Y11564541D01*
X23547676Y11314244D01*
X23739244Y11122676D01*
X23989541Y11019000D01*
X24260459Y11019000D01*
X24510756Y11122676D01*
X24702324Y11314244D01*
X24806000Y11564541D01*
X24806000Y11835459D01*
X24702324Y12085756D01*
X24628080Y12160000D01*
X32244884Y12160000D01*
X32340424Y11679688D01*
X32612499Y11272499D01*
X33019688Y11000424D01*
X33378761Y10929000D01*
X33621239Y10929000D01*
X33980312Y11000424D01*
X34387501Y11272499D01*
X34659576Y11679688D01*
X34755116Y12160000D01*
X34944884Y12160000D01*
X35040424Y11679688D01*
X35312499Y11272499D01*
X35719688Y11000424D01*
X36078761Y10929000D01*
X36321239Y10929000D01*
X36680312Y11000424D01*
X37087501Y11272499D01*
X37359576Y11679688D01*
X37455116Y12160000D01*
X37359576Y12640312D01*
X37087501Y13047501D01*
X36680312Y13319576D01*
X36321239Y13391000D01*
X36078761Y13391000D01*
X35719688Y13319576D01*
X35312499Y13047501D01*
X35040424Y12640312D01*
X34944884Y12160000D01*
X34755116Y12160000D01*
X34659576Y12640312D01*
X34387501Y13047501D01*
X33980312Y13319576D01*
X33621239Y13391000D01*
X33378761Y13391000D01*
X33019688Y13319576D01*
X32612499Y13047501D01*
X32340424Y12640312D01*
X32244884Y12160000D01*
X24628080Y12160000D01*
X24510756Y12277324D01*
X24260459Y12381000D01*
X23989541Y12381000D01*
X23739244Y12277324D01*
X23547676Y12085756D01*
X23444000Y11835459D01*
X23181261Y11835459D01*
X23210756Y11847676D01*
X23402324Y12039244D01*
X23506000Y12289541D01*
X23506000Y12560459D01*
X23402324Y12810756D01*
X23210756Y13002324D01*
X22960459Y13106000D01*
X22689541Y13106000D01*
X22439244Y13002324D01*
X22247676Y12810756D01*
X22144000Y12560459D01*
X22144000Y12481000D01*
X22064541Y12481000D01*
X21814244Y12377324D01*
X21622676Y12185756D01*
X21519000Y11935459D01*
X19810139Y11935459D01*
X19871924Y11997244D01*
X19975600Y12247541D01*
X19975600Y12518459D01*
X19871924Y12768756D01*
X19680356Y12960324D01*
X19430059Y13064000D01*
X19159141Y13064000D01*
X18908844Y12960324D01*
X18717276Y12768756D01*
X18613600Y12518459D01*
X18075600Y12518459D01*
X17971924Y12768756D01*
X17780356Y12960324D01*
X17530059Y13064000D01*
X17259141Y13064000D01*
X17008844Y12960324D01*
X16817276Y12768756D01*
X16713600Y12518459D01*
X14936912Y12518459D01*
X14956000Y12564541D01*
X14956000Y12835459D01*
X14852324Y13085756D01*
X14744900Y13193180D01*
X14744900Y13639267D01*
X14914541Y13569000D01*
X15185459Y13569000D01*
X15435756Y13672676D01*
X15627324Y13864244D01*
X15731000Y14114541D01*
X15731000Y14385459D01*
X15627324Y14635756D01*
X15519900Y14743180D01*
X15519900Y15535459D01*
X16319000Y15535459D01*
X16319000Y15264541D01*
X16422676Y15014244D01*
X16614244Y14822676D01*
X16864541Y14719000D01*
X17135459Y14719000D01*
X17385756Y14822676D01*
X17577324Y15014244D01*
X17681000Y15264541D01*
X17681000Y15335467D01*
X19919000Y15335467D01*
X19919000Y15064549D01*
X20022676Y14814252D01*
X20214244Y14622684D01*
X20268336Y14600278D01*
X20169000Y14360459D01*
X20169000Y14089541D01*
X20272676Y13839244D01*
X20464244Y13647676D01*
X20714541Y13544000D01*
X20985459Y13544000D01*
X21235756Y13647676D01*
X21427324Y13839244D01*
X21529309Y14085459D01*
X24819000Y14085459D01*
X24819000Y13814541D01*
X24922676Y13564244D01*
X25114244Y13372676D01*
X25364541Y13269000D01*
X25635459Y13269000D01*
X25885756Y13372676D01*
X26023539Y13510459D01*
X27744000Y13510459D01*
X27744000Y13239541D01*
X27847676Y12989244D01*
X28039244Y12797676D01*
X28289541Y12694000D01*
X28560459Y12694000D01*
X28810756Y12797676D01*
X29002324Y12989244D01*
X29106000Y13239541D01*
X29106000Y13510459D01*
X29002324Y13760756D01*
X28810756Y13952324D01*
X28560459Y14056000D01*
X28289541Y14056000D01*
X28039244Y13952324D01*
X27847676Y13760756D01*
X27744000Y13510459D01*
X26023539Y13510459D01*
X26077324Y13564244D01*
X26181000Y13814541D01*
X26181000Y14085459D01*
X26077324Y14335756D01*
X25885756Y14527324D01*
X25635459Y14631000D01*
X25364541Y14631000D01*
X25114244Y14527324D01*
X24922676Y14335756D01*
X24819000Y14085459D01*
X21529309Y14085459D01*
X21531000Y14089541D01*
X21531000Y14360459D01*
X21427324Y14610756D01*
X21235756Y14802324D01*
X21181664Y14824730D01*
X21281000Y15064549D01*
X21281000Y15335467D01*
X21192138Y15550000D01*
X32261536Y15550000D01*
X32261536Y13850000D01*
X32291106Y13701341D01*
X32375314Y13575314D01*
X32501341Y13491106D01*
X32650000Y13461536D01*
X34350000Y13461536D01*
X34498659Y13491106D01*
X34624686Y13575314D01*
X34708894Y13701341D01*
X34738464Y13850000D01*
X34738464Y15550000D01*
X34961536Y15550000D01*
X34961536Y13850000D01*
X34991106Y13701341D01*
X35075314Y13575314D01*
X35201341Y13491106D01*
X35350000Y13461536D01*
X37050000Y13461536D01*
X37198659Y13491106D01*
X37324686Y13575314D01*
X37408894Y13701341D01*
X37438464Y13850000D01*
X37438464Y15550000D01*
X37408894Y15698659D01*
X37324686Y15824686D01*
X37198659Y15908894D01*
X37050000Y15938464D01*
X35350000Y15938464D01*
X35201341Y15908894D01*
X35075314Y15824686D01*
X34991106Y15698659D01*
X34961536Y15550000D01*
X34738464Y15550000D01*
X34708894Y15698659D01*
X34624686Y15824686D01*
X34498659Y15908894D01*
X34350000Y15938464D01*
X32650000Y15938464D01*
X32501341Y15908894D01*
X32375314Y15824686D01*
X32291106Y15698659D01*
X32261536Y15550000D01*
X21192138Y15550000D01*
X21177324Y15585764D01*
X20985756Y15777332D01*
X20735459Y15881008D01*
X20464541Y15881008D01*
X20214244Y15777332D01*
X20022676Y15585764D01*
X19919000Y15335467D01*
X17681000Y15335467D01*
X17681000Y15435891D01*
X20520286Y18435459D01*
X20719000Y18435459D01*
X20719000Y18164541D01*
X20822676Y17914244D01*
X21014244Y17722676D01*
X21117024Y17680104D01*
X20972676Y17535756D01*
X20869000Y17285459D01*
X20869000Y17014541D01*
X20972676Y16764244D01*
X21164244Y16572676D01*
X21414541Y16469000D01*
X21685459Y16469000D01*
X21935756Y16572676D01*
X22127324Y16764244D01*
X22231000Y17014541D01*
X22231000Y17285459D01*
X22127324Y17535756D01*
X21935756Y17727324D01*
X21832976Y17769896D01*
X21898539Y17835459D01*
X35919000Y17835459D01*
X35919000Y17564541D01*
X36022676Y17314244D01*
X36214244Y17122676D01*
X36464541Y17019000D01*
X36735459Y17019000D01*
X36985756Y17122676D01*
X37177324Y17314244D01*
X37281000Y17564541D01*
X37281000Y17835459D01*
X37177324Y18085756D01*
X36985756Y18277324D01*
X36735459Y18381000D01*
X36464541Y18381000D01*
X36214244Y18277324D01*
X36022676Y18085756D01*
X35919000Y17835459D01*
X21898539Y17835459D01*
X21977324Y17914244D01*
X22081000Y18164541D01*
X22081000Y18435459D01*
X21977324Y18685756D01*
X21785756Y18877324D01*
X21535459Y18981000D01*
X21264541Y18981000D01*
X21014244Y18877324D01*
X20822676Y18685756D01*
X20719000Y18435459D01*
X20520286Y18435459D01*
X21466849Y19435457D01*
X23869000Y19435457D01*
X23869000Y19164539D01*
X23972676Y18914242D01*
X24164244Y18722674D01*
X24414541Y18618998D01*
X24685459Y18618998D01*
X24935756Y18722674D01*
X25127324Y18914242D01*
X25231000Y19164539D01*
X25231000Y19435457D01*
X25127324Y19685754D01*
X24935756Y19877322D01*
X24855756Y19910459D01*
X27744002Y19910459D01*
X27744002Y19639541D01*
X27847678Y19389244D01*
X28039246Y19197676D01*
X28289543Y19094000D01*
X28560461Y19094000D01*
X28810758Y19197676D01*
X29002326Y19389244D01*
X29106002Y19639541D01*
X29106002Y19910459D01*
X29002326Y20160756D01*
X28927623Y20235459D01*
X35819000Y20235459D01*
X35819000Y19964541D01*
X35922676Y19714244D01*
X36114244Y19522676D01*
X36364541Y19419000D01*
X36635459Y19419000D01*
X36885756Y19522676D01*
X37077324Y19714244D01*
X37181000Y19964541D01*
X37181000Y20235459D01*
X37077324Y20485756D01*
X36885756Y20677324D01*
X36635459Y20781000D01*
X36364541Y20781000D01*
X36114244Y20677324D01*
X35922676Y20485756D01*
X35819000Y20235459D01*
X28927623Y20235459D01*
X28810758Y20352324D01*
X28560461Y20456000D01*
X28289543Y20456000D01*
X28039246Y20352324D01*
X27847678Y20160756D01*
X27744002Y19910459D01*
X24855756Y19910459D01*
X24685459Y19980998D01*
X24414541Y19980998D01*
X24164244Y19877322D01*
X23972676Y19685754D01*
X23869000Y19435457D01*
X21466849Y19435457D01*
X23465628Y21547070D01*
X23547935Y21602065D01*
X23583539Y21655351D01*
X34219000Y21655351D01*
X34219000Y21344649D01*
X34337900Y21057599D01*
X34557599Y20837900D01*
X34844649Y20719000D01*
X35155351Y20719000D01*
X35442401Y20837900D01*
X35662100Y21057599D01*
X35781000Y21344649D01*
X35781000Y21655351D01*
X35662100Y21942401D01*
X35442401Y22162100D01*
X35155351Y22281000D01*
X34844649Y22281000D01*
X34557599Y22162100D01*
X34337900Y21942401D01*
X34219000Y21655351D01*
X23583539Y21655351D01*
X23654599Y21761699D01*
X23682600Y21902471D01*
X23682600Y22485459D01*
X31569000Y22485459D01*
X31569000Y22214541D01*
X31672676Y21964244D01*
X31864244Y21772676D01*
X32114541Y21669000D01*
X32385459Y21669000D01*
X32635756Y21772676D01*
X32827324Y21964244D01*
X32931000Y22214541D01*
X32931000Y22485459D01*
X32827324Y22735756D01*
X32635756Y22927324D01*
X32385459Y23031000D01*
X32114541Y23031000D01*
X31864244Y22927324D01*
X31672676Y22735756D01*
X31569000Y22485459D01*
X23682600Y22485459D01*
X23682600Y23735459D01*
X36069000Y23735459D01*
X36069000Y23464541D01*
X36172676Y23214244D01*
X36364244Y23022676D01*
X36614541Y22919000D01*
X36885459Y22919000D01*
X37135756Y23022676D01*
X37327324Y23214244D01*
X37431000Y23464541D01*
X37431000Y23735459D01*
X37327324Y23985756D01*
X37135756Y24177324D01*
X36885459Y24281000D01*
X36614541Y24281000D01*
X36364244Y24177324D01*
X36172676Y23985756D01*
X36069000Y23735459D01*
X23682600Y23735459D01*
X23682600Y29844861D01*
X28169000Y29844861D01*
X28169000Y29355139D01*
X28356408Y28902694D01*
X28702694Y28556408D01*
X29155139Y28369000D01*
X29644861Y28369000D01*
X30097306Y28556408D01*
X30443592Y28902694D01*
X30631000Y29355139D01*
X30631000Y29844861D01*
X30443592Y30297306D01*
X30097306Y30643592D01*
X29644861Y30831000D01*
X29155139Y30831000D01*
X28702694Y30643592D01*
X28356408Y30297306D01*
X28169000Y29844861D01*
X23682600Y29844861D01*
X23682600Y33952113D01*
X24767878Y35037390D01*
X24901838Y35037390D01*
X25138598Y35135459D01*
X30594000Y35135459D01*
X30594000Y34864541D01*
X30697676Y34614244D01*
X30889244Y34422676D01*
X31139541Y34319000D01*
X31410459Y34319000D01*
X31660756Y34422676D01*
X31852324Y34614244D01*
X31956000Y34864541D01*
X31956000Y35135459D01*
X31852324Y35385756D01*
X31660756Y35577324D01*
X31410459Y35681000D01*
X31139541Y35681000D01*
X30889244Y35577324D01*
X30697676Y35385756D01*
X30594000Y35135459D01*
X25138598Y35135459D01*
X25152135Y35141066D01*
X25343703Y35332634D01*
X25447379Y35582931D01*
X25447379Y35853849D01*
X25343703Y36104146D01*
X25152135Y36295714D01*
X24901838Y36399390D01*
X24630920Y36399390D01*
X24380623Y36295714D01*
X24189055Y36104146D01*
X24085379Y35853849D01*
X24085379Y35719889D01*
X22892362Y34526871D01*
X22852066Y34499946D01*
X22800436Y34422676D01*
X22745402Y34340312D01*
X22707946Y34152011D01*
X22717401Y34104478D01*
X22717400Y22123710D01*
X21981000Y21345739D01*
X21981000Y21535459D01*
X21877324Y21785756D01*
X21685756Y21977324D01*
X21435459Y22081000D01*
X21164541Y22081000D01*
X20914244Y21977324D01*
X20722676Y21785756D01*
X20619000Y21535459D01*
X20619000Y21264541D01*
X20722676Y21014244D01*
X20914244Y20822676D01*
X21164541Y20719000D01*
X21387751Y20719000D01*
X17792398Y16920682D01*
X17635756Y17077324D01*
X17603687Y17090607D01*
X17677324Y17164244D01*
X17781000Y17414541D01*
X17781000Y17685459D01*
X17677324Y17935756D01*
X17485756Y18127324D01*
X17235459Y18231000D01*
X16964541Y18231000D01*
X16714244Y18127324D01*
X16522676Y17935756D01*
X16419000Y17685459D01*
X16419000Y17414541D01*
X16522676Y17164244D01*
X16714244Y16972676D01*
X16746313Y16959393D01*
X16672676Y16885756D01*
X16569000Y16635459D01*
X16569000Y16364541D01*
X16672676Y16114244D01*
X16752379Y16034541D01*
X16614244Y15977324D01*
X16422676Y15785756D01*
X16319000Y15535459D01*
X15519900Y15535459D01*
X15519900Y18345333D01*
X15764541Y18244000D01*
X16035459Y18244000D01*
X16285756Y18347676D01*
X16477324Y18539244D01*
X16581000Y18789541D01*
X16581000Y19060459D01*
X16477324Y19310756D01*
X16285756Y19502324D01*
X16035459Y19606000D01*
X15764541Y19606000D01*
X15519900Y19504667D01*
X15519900Y25135459D01*
X19469000Y25135459D01*
X19469000Y24864541D01*
X19572676Y24614244D01*
X19764244Y24422676D01*
X20014541Y24319000D01*
X20285459Y24319000D01*
X20535756Y24422676D01*
X20727324Y24614244D01*
X20831000Y24864541D01*
X20831000Y25135459D01*
X20727324Y25385756D01*
X20535756Y25577324D01*
X20285459Y25681000D01*
X20014541Y25681000D01*
X19764244Y25577324D01*
X19572676Y25385756D01*
X19469000Y25135459D01*
X15519900Y25135459D01*
X15519900Y27331820D01*
X15627324Y27439244D01*
X15731000Y27689541D01*
X15731000Y27960459D01*
X15627324Y28210756D01*
X15563080Y28275000D01*
X15602324Y28314244D01*
X15706000Y28564541D01*
X15706000Y28835459D01*
X15602324Y29085756D01*
X15410756Y29277324D01*
X15160459Y29381000D01*
X14889541Y29381000D01*
X14639244Y29277324D01*
X14447676Y29085756D01*
X14344000Y28835459D01*
X14344000Y28683539D01*
X13975454Y28314992D01*
X13936222Y28288778D01*
X13832365Y28133345D01*
X13805100Y27996275D01*
X13805100Y27996272D01*
X13795896Y27950000D01*
X13805100Y27903728D01*
X13805101Y16951882D01*
X13729659Y17027324D01*
X13479362Y17131000D01*
X13244903Y17131000D01*
X13244903Y18578726D01*
X13254107Y18624998D01*
X13244903Y18671272D01*
X13244903Y18671273D01*
X13217638Y18808343D01*
X13113781Y18963775D01*
X13074552Y18989987D01*
X10081000Y21983538D01*
X10081000Y22135459D01*
X10039579Y22235459D01*
X10519000Y22235459D01*
X10519000Y21964541D01*
X10622676Y21714244D01*
X10814244Y21522676D01*
X11064541Y21419000D01*
X11335459Y21419000D01*
X11585756Y21522676D01*
X11777324Y21714244D01*
X11881000Y21964541D01*
X11881000Y22098501D01*
X12507642Y22725143D01*
X12547935Y22752065D01*
X12654599Y22911699D01*
X12682600Y23052471D01*
X12682600Y23052472D01*
X12692054Y23100000D01*
X12682600Y23147529D01*
X12682600Y23447528D01*
X12669900Y23511376D01*
X12669900Y31735459D01*
X18819000Y31735459D01*
X18819000Y31464541D01*
X18922676Y31214244D01*
X19114244Y31022676D01*
X19364541Y30919000D01*
X19635459Y30919000D01*
X19885756Y31022676D01*
X20077324Y31214244D01*
X20181000Y31464541D01*
X20181000Y31735459D01*
X20077324Y31985756D01*
X19885756Y32177324D01*
X19635459Y32281000D01*
X19364541Y32281000D01*
X19114244Y32177324D01*
X18922676Y31985756D01*
X18819000Y31735459D01*
X12669900Y31735459D01*
X12669900Y33006820D01*
X12777324Y33114244D01*
X12881000Y33364541D01*
X12881000Y33635459D01*
X12777324Y33885756D01*
X12585756Y34077324D01*
X12577577Y34080712D01*
X12538778Y34138778D01*
X12383345Y34242635D01*
X12200000Y34279105D01*
X12016654Y34242635D01*
X11861222Y34138778D01*
X11822424Y34080712D01*
X11814244Y34077324D01*
X11622676Y33885756D01*
X11519000Y33635459D01*
X11519000Y33364541D01*
X11622676Y33114244D01*
X11730100Y33006820D01*
X11730101Y23511380D01*
X11717400Y23447529D01*
X11717400Y23299900D01*
X11198501Y22781000D01*
X11064541Y22781000D01*
X10814244Y22677324D01*
X10622676Y22485756D01*
X10519000Y22235459D01*
X10039579Y22235459D01*
X9977324Y22385756D01*
X9785756Y22577324D01*
X9535459Y22681000D01*
X9264541Y22681000D01*
X9014244Y22577324D01*
X8822676Y22385756D01*
X8719000Y22135459D01*
X6268953Y22135459D01*
X6281000Y22164541D01*
X6281000Y22435459D01*
X6177324Y22685756D01*
X5985756Y22877324D01*
X5735459Y22981000D01*
X5464541Y22981000D01*
X5214244Y22877324D01*
X5022676Y22685756D01*
X4919000Y22435459D01*
X456000Y22435459D01*
X456000Y26935459D01*
X6019000Y26935459D01*
X6019000Y26664541D01*
X6122676Y26414244D01*
X6314244Y26222676D01*
X6564541Y26119000D01*
X6835459Y26119000D01*
X7085756Y26222676D01*
X7277324Y26414244D01*
X7381000Y26664541D01*
X7381000Y26935459D01*
X7277324Y27185756D01*
X7085756Y27377324D01*
X6835459Y27481000D01*
X6564541Y27481000D01*
X6314244Y27377324D01*
X6122676Y27185756D01*
X6019000Y26935459D01*
X456000Y26935459D01*
X456000Y29844861D01*
X7369000Y29844861D01*
X7369000Y29355139D01*
X7556408Y28902694D01*
X7902694Y28556408D01*
X8355139Y28369000D01*
X8844861Y28369000D01*
X9297306Y28556408D01*
X9643592Y28902694D01*
X9831000Y29355139D01*
X9831000Y29844861D01*
X9643592Y30297306D01*
X9297306Y30643592D01*
X8844861Y30831000D01*
X8355139Y30831000D01*
X7902694Y30643592D01*
X7556408Y30297306D01*
X7369000Y29844861D01*
X456000Y29844861D01*
X456000Y36844861D01*
X7369000Y36844861D01*
X7369000Y36355139D01*
X7556408Y35902694D01*
X7902694Y35556408D01*
X8355139Y35369000D01*
X8844861Y35369000D01*
X9297306Y35556408D01*
X9643592Y35902694D01*
X9831000Y36355139D01*
X9831000Y36844861D01*
X28169000Y36844861D01*
X28169000Y36355139D01*
X28356408Y35902694D01*
X28702694Y35556408D01*
X29155139Y35369000D01*
X29644861Y35369000D01*
X30097306Y35556408D01*
X30443592Y35902694D01*
X30631000Y36355139D01*
X30631000Y36844861D01*
X30443592Y37297306D01*
X30097306Y37643592D01*
X29644861Y37831000D01*
X29155139Y37831000D01*
X28702694Y37643592D01*
X28356408Y37297306D01*
X28169000Y36844861D01*
X9831000Y36844861D01*
X9643592Y37297306D01*
X9297306Y37643592D01*
X8844861Y37831000D01*
X8355139Y37831000D01*
X7902694Y37643592D01*
X7556408Y37297306D01*
X7369000Y36844861D01*
X456000Y36844861D01*
X456000Y38099630D01*
X458611Y38104960D01*
X475654Y38178489D01*
X542264Y38621546D01*
X704906Y38960246D01*
X959946Y39236147D01*
X1284839Y39424860D01*
X1677013Y39515761D01*
X1768885Y39519371D01*
X1897993Y39544000D01*
X36099630Y39544000D01*
X36104960Y39541389D01*
X36104960Y39541389D01*
G37*
X36104960Y39541389D02*
X36178489Y39524346D01*
X36621546Y39457736D01*
X36960246Y39295094D01*
X37236147Y39040054D01*
X37424860Y38715161D01*
X37515761Y38322987D01*
X37519371Y38231115D01*
X37544001Y38102001D01*
X37544000Y1900370D01*
X37541389Y1895040D01*
X37524346Y1821511D01*
X37457736Y1378454D01*
X37295094Y1039754D01*
X37040054Y763853D01*
X36715162Y575141D01*
X36322983Y484239D01*
X36231115Y480629D01*
X36102007Y456000D01*
X1900370Y456000D01*
X1895040Y458611D01*
X1821511Y475654D01*
X1378454Y542264D01*
X1039754Y704906D01*
X763853Y959946D01*
X575141Y1284838D01*
X484239Y1677017D01*
X480629Y1768885D01*
X456000Y1897993D01*
X456000Y2000000D01*
X494884Y2000000D01*
X590424Y1519688D01*
X862499Y1112499D01*
X1269688Y840424D01*
X1628761Y769000D01*
X1871239Y769000D01*
X2230312Y840424D01*
X2637501Y1112499D01*
X2909576Y1519688D01*
X3005116Y2000000D01*
X3144884Y2000000D01*
X3240424Y1519688D01*
X3512499Y1112499D01*
X3919688Y840424D01*
X4278761Y769000D01*
X4521239Y769000D01*
X4880312Y840424D01*
X5287501Y1112499D01*
X5559576Y1519688D01*
X5655116Y2000000D01*
X5794884Y2000000D01*
X5890424Y1519688D01*
X6162499Y1112499D01*
X6569688Y840424D01*
X6928761Y769000D01*
X7171239Y769000D01*
X7530312Y840424D01*
X7937501Y1112499D01*
X8209576Y1519688D01*
X8305116Y2000000D01*
X32244884Y2000000D01*
X32340424Y1519688D01*
X32612499Y1112499D01*
X33019688Y840424D01*
X33378761Y769000D01*
X33621239Y769000D01*
X33980312Y840424D01*
X34387501Y1112499D01*
X34659576Y1519688D01*
X34755116Y2000000D01*
X34944884Y2000000D01*
X35040424Y1519688D01*
X35312499Y1112499D01*
X35719688Y840424D01*
X36078761Y769000D01*
X36321239Y769000D01*
X36680312Y840424D01*
X37087501Y1112499D01*
X37359576Y1519688D01*
X37455116Y2000000D01*
X37359576Y2480312D01*
X37087501Y2887501D01*
X36680312Y3159576D01*
X36321239Y3231000D01*
X36078761Y3231000D01*
X35719688Y3159576D01*
X35312499Y2887501D01*
X35040424Y2480312D01*
X34944884Y2000000D01*
X34755116Y2000000D01*
X34659576Y2480312D01*
X34387501Y2887501D01*
X33980312Y3159576D01*
X33621239Y3231000D01*
X33378761Y3231000D01*
X33019688Y3159576D01*
X32612499Y2887501D01*
X32340424Y2480312D01*
X32244884Y2000000D01*
X8305116Y2000000D01*
X8209576Y2480312D01*
X7937501Y2887501D01*
X7530312Y3159576D01*
X7171239Y3231000D01*
X6928761Y3231000D01*
X6569688Y3159576D01*
X6162499Y2887501D01*
X5890424Y2480312D01*
X5794884Y2000000D01*
X5655116Y2000000D01*
X5559576Y2480312D01*
X5287501Y2887501D01*
X4880312Y3159576D01*
X4521239Y3231000D01*
X4278761Y3231000D01*
X3919688Y3159576D01*
X3512499Y2887501D01*
X3240424Y2480312D01*
X3144884Y2000000D01*
X3005116Y2000000D01*
X2909576Y2480312D01*
X2637501Y2887501D01*
X2230312Y3159576D01*
X1871239Y3231000D01*
X1628761Y3231000D01*
X1269688Y3159576D01*
X862499Y2887501D01*
X590424Y2480312D01*
X494884Y2000000D01*
X456000Y2000000D01*
X456000Y4540000D01*
X494884Y4540000D01*
X590424Y4059688D01*
X862499Y3652499D01*
X1269688Y3380424D01*
X1628761Y3309000D01*
X1871239Y3309000D01*
X2230312Y3380424D01*
X2637501Y3652499D01*
X2909576Y4059688D01*
X3005116Y4540000D01*
X3144884Y4540000D01*
X3240424Y4059688D01*
X3512499Y3652499D01*
X3919688Y3380424D01*
X4278761Y3309000D01*
X4521239Y3309000D01*
X4880312Y3380424D01*
X5287501Y3652499D01*
X5559576Y4059688D01*
X5655116Y4540000D01*
X5794884Y4540000D01*
X5890424Y4059688D01*
X6162499Y3652499D01*
X6569688Y3380424D01*
X6928761Y3309000D01*
X7171239Y3309000D01*
X7530312Y3380424D01*
X7937501Y3652499D01*
X8209576Y4059688D01*
X8305116Y4540000D01*
X8209576Y5020312D01*
X7937501Y5427501D01*
X7530312Y5699576D01*
X7171239Y5771000D01*
X6928761Y5771000D01*
X6569688Y5699576D01*
X6162499Y5427501D01*
X5890424Y5020312D01*
X5794884Y4540000D01*
X5655116Y4540000D01*
X5559576Y5020312D01*
X5287501Y5427501D01*
X4880312Y5699576D01*
X4521239Y5771000D01*
X4278761Y5771000D01*
X3919688Y5699576D01*
X3512499Y5427501D01*
X3240424Y5020312D01*
X3144884Y4540000D01*
X3005116Y4540000D01*
X2909576Y5020312D01*
X2637501Y5427501D01*
X2230312Y5699576D01*
X1871239Y5771000D01*
X1628761Y5771000D01*
X1269688Y5699576D01*
X862499Y5427501D01*
X590424Y5020312D01*
X494884Y4540000D01*
X456000Y4540000D01*
X456000Y7080000D01*
X494884Y7080000D01*
X590424Y6599688D01*
X862499Y6192499D01*
X1269688Y5920424D01*
X1628761Y5849000D01*
X1871239Y5849000D01*
X2230312Y5920424D01*
X2637501Y6192499D01*
X2909576Y6599688D01*
X3005116Y7080000D01*
X3144884Y7080000D01*
X3240424Y6599688D01*
X3512499Y6192499D01*
X3919688Y5920424D01*
X4278761Y5849000D01*
X4521239Y5849000D01*
X4880312Y5920424D01*
X5287501Y6192499D01*
X5559576Y6599688D01*
X5655116Y7080000D01*
X5794884Y7080000D01*
X5890424Y6599688D01*
X6162499Y6192499D01*
X6569688Y5920424D01*
X6928761Y5849000D01*
X7171239Y5849000D01*
X7530312Y5920424D01*
X7937501Y6192499D01*
X8209576Y6599688D01*
X8305116Y7080000D01*
X8209576Y7560312D01*
X7937501Y7967501D01*
X7530312Y8239576D01*
X7171239Y8311000D01*
X6928761Y8311000D01*
X6569688Y8239576D01*
X6162499Y7967501D01*
X5890424Y7560312D01*
X5794884Y7080000D01*
X5655116Y7080000D01*
X5559576Y7560312D01*
X5287501Y7967501D01*
X4880312Y8239576D01*
X4521239Y8311000D01*
X4278761Y8311000D01*
X3919688Y8239576D01*
X3512499Y7967501D01*
X3240424Y7560312D01*
X3144884Y7080000D01*
X3005116Y7080000D01*
X2909576Y7560312D01*
X2637501Y7967501D01*
X2230312Y8239576D01*
X1871239Y8311000D01*
X1628761Y8311000D01*
X1269688Y8239576D01*
X862499Y7967501D01*
X590424Y7560312D01*
X494884Y7080000D01*
X456000Y7080000D01*
X456000Y9620000D01*
X494884Y9620000D01*
X590424Y9139688D01*
X862499Y8732499D01*
X1269688Y8460424D01*
X1628761Y8389000D01*
X1871239Y8389000D01*
X2230312Y8460424D01*
X2637501Y8732499D01*
X2909576Y9139688D01*
X3005116Y9620000D01*
X3144884Y9620000D01*
X3240424Y9139688D01*
X3512499Y8732499D01*
X3919688Y8460424D01*
X4278761Y8389000D01*
X4521239Y8389000D01*
X4880312Y8460424D01*
X5287501Y8732499D01*
X5559576Y9139688D01*
X5655116Y9620000D01*
X5794884Y9620000D01*
X5890424Y9139688D01*
X6162499Y8732499D01*
X6569688Y8460424D01*
X6928761Y8389000D01*
X7171239Y8389000D01*
X7530312Y8460424D01*
X7937501Y8732499D01*
X8209576Y9139688D01*
X8305116Y9620000D01*
X8209576Y10100312D01*
X7937501Y10507501D01*
X7530312Y10779576D01*
X7171239Y10851000D01*
X6928761Y10851000D01*
X6569688Y10779576D01*
X6162499Y10507501D01*
X5890424Y10100312D01*
X5794884Y9620000D01*
X5655116Y9620000D01*
X5559576Y10100312D01*
X5287501Y10507501D01*
X4880312Y10779576D01*
X4521239Y10851000D01*
X4278761Y10851000D01*
X3919688Y10779576D01*
X3512499Y10507501D01*
X3240424Y10100312D01*
X3144884Y9620000D01*
X3005116Y9620000D01*
X2909576Y10100312D01*
X2637501Y10507501D01*
X2230312Y10779576D01*
X1871239Y10851000D01*
X1628761Y10851000D01*
X1269688Y10779576D01*
X862499Y10507501D01*
X590424Y10100312D01*
X494884Y9620000D01*
X456000Y9620000D01*
X456000Y12160000D01*
X494884Y12160000D01*
X590424Y11679688D01*
X862499Y11272499D01*
X1269688Y11000424D01*
X1628761Y10929000D01*
X1871239Y10929000D01*
X2230312Y11000424D01*
X2637501Y11272499D01*
X2909576Y11679688D01*
X3005116Y12160000D01*
X3144884Y12160000D01*
X3240424Y11679688D01*
X3512499Y11272499D01*
X3919688Y11000424D01*
X4278761Y10929000D01*
X4521239Y10929000D01*
X4880312Y11000424D01*
X5287501Y11272499D01*
X5559576Y11679688D01*
X5655116Y12160000D01*
X5794884Y12160000D01*
X5890424Y11679688D01*
X6162499Y11272499D01*
X6569688Y11000424D01*
X6928761Y10929000D01*
X7171239Y10929000D01*
X7530312Y11000424D01*
X7937501Y11272499D01*
X8209576Y11679688D01*
X8305116Y12160000D01*
X8209576Y12640312D01*
X7937501Y13047501D01*
X7530312Y13319576D01*
X7171239Y13391000D01*
X6928761Y13391000D01*
X6569688Y13319576D01*
X6162499Y13047501D01*
X5890424Y12640312D01*
X5794884Y12160000D01*
X5655116Y12160000D01*
X5559576Y12640312D01*
X5287501Y13047501D01*
X4880312Y13319576D01*
X4521239Y13391000D01*
X4278761Y13391000D01*
X3919688Y13319576D01*
X3512499Y13047501D01*
X3240424Y12640312D01*
X3144884Y12160000D01*
X3005116Y12160000D01*
X2909576Y12640312D01*
X2637501Y13047501D01*
X2230312Y13319576D01*
X1871239Y13391000D01*
X1628761Y13391000D01*
X1269688Y13319576D01*
X862499Y13047501D01*
X590424Y12640312D01*
X494884Y12160000D01*
X456000Y12160000D01*
X456000Y15550000D01*
X511536Y15550000D01*
X511536Y13850000D01*
X541106Y13701341D01*
X625314Y13575314D01*
X751341Y13491106D01*
X900000Y13461536D01*
X2600000Y13461536D01*
X2748659Y13491106D01*
X2874686Y13575314D01*
X2958894Y13701341D01*
X2988464Y13850000D01*
X2988464Y15550000D01*
X3161536Y15550000D01*
X3161536Y13850000D01*
X3191106Y13701341D01*
X3275314Y13575314D01*
X3401341Y13491106D01*
X3550000Y13461536D01*
X5250000Y13461536D01*
X5398659Y13491106D01*
X5524686Y13575314D01*
X5608894Y13701341D01*
X5638464Y13850000D01*
X5638464Y14477750D01*
X5819000Y14477750D01*
X5819000Y13774215D01*
X5877004Y13634181D01*
X5984180Y13527004D01*
X6124214Y13469000D01*
X6827750Y13469000D01*
X6923000Y13564250D01*
X6923000Y14573000D01*
X7177000Y14573000D01*
X7177000Y13564250D01*
X7272250Y13469000D01*
X7975786Y13469000D01*
X8115820Y13527004D01*
X8222996Y13634181D01*
X8281000Y13774215D01*
X8281000Y14477750D01*
X8185750Y14573000D01*
X7177000Y14573000D01*
X6923000Y14573000D01*
X5914250Y14573000D01*
X5819000Y14477750D01*
X5638464Y14477750D01*
X5638464Y15550000D01*
X5623390Y15625785D01*
X5819000Y15625785D01*
X5819000Y14922250D01*
X5914250Y14827000D01*
X6923000Y14827000D01*
X6923000Y15835750D01*
X7177000Y15835750D01*
X7177000Y14827000D01*
X8185750Y14827000D01*
X8281000Y14922250D01*
X8281000Y15625785D01*
X8222996Y15765819D01*
X8115820Y15872996D01*
X7975786Y15931000D01*
X7272250Y15931000D01*
X7177000Y15835750D01*
X6923000Y15835750D01*
X6827750Y15931000D01*
X6124214Y15931000D01*
X5984180Y15872996D01*
X5877004Y15765819D01*
X5819000Y15625785D01*
X5623390Y15625785D01*
X5608894Y15698659D01*
X5524686Y15824686D01*
X5398659Y15908894D01*
X5250000Y15938464D01*
X3550000Y15938464D01*
X3401341Y15908894D01*
X3275314Y15824686D01*
X3191106Y15698659D01*
X3161536Y15550000D01*
X2988464Y15550000D01*
X2958894Y15698659D01*
X2874686Y15824686D01*
X2748659Y15908894D01*
X2600000Y15938464D01*
X900000Y15938464D01*
X751341Y15908894D01*
X625314Y15824686D01*
X541106Y15698659D01*
X511536Y15550000D01*
X456000Y15550000D01*
X456000Y18035459D01*
X3719000Y18035459D01*
X3719000Y17764541D01*
X3822676Y17514244D01*
X4014244Y17322676D01*
X4264541Y17219000D01*
X4535459Y17219000D01*
X4785756Y17322676D01*
X4977324Y17514244D01*
X5081000Y17764541D01*
X5081000Y18035459D01*
X4977324Y18285756D01*
X4785756Y18477324D01*
X4535459Y18581000D01*
X4264541Y18581000D01*
X4014244Y18477324D01*
X3822676Y18285756D01*
X3719000Y18035459D01*
X456000Y18035459D01*
X456000Y20825215D01*
X522676Y20664244D01*
X714244Y20472676D01*
X929345Y20383579D01*
X914244Y20377324D01*
X722676Y20185756D01*
X619000Y19935459D01*
X619000Y19664541D01*
X722676Y19414244D01*
X914244Y19222676D01*
X1164541Y19119000D01*
X1435459Y19119000D01*
X1685756Y19222676D01*
X1877324Y19414244D01*
X1981000Y19664541D01*
X1981000Y19935459D01*
X1960290Y19985459D01*
X4719000Y19985459D01*
X4719000Y19714541D01*
X4822676Y19464244D01*
X5014244Y19272676D01*
X5264541Y19169000D01*
X5535459Y19169000D01*
X5785756Y19272676D01*
X5977324Y19464244D01*
X6081000Y19714541D01*
X6081000Y19985459D01*
X5977324Y20235756D01*
X5785756Y20427324D01*
X5535459Y20531000D01*
X5264541Y20531000D01*
X5014244Y20427324D01*
X4822676Y20235756D01*
X4719000Y19985459D01*
X1960290Y19985459D01*
X1877324Y20185756D01*
X1685756Y20377324D01*
X1470655Y20466421D01*
X1485756Y20472676D01*
X1677324Y20664244D01*
X1781000Y20914541D01*
X1781000Y21185459D01*
X1677324Y21435756D01*
X1485756Y21627324D01*
X1418093Y21655351D01*
X2219000Y21655351D01*
X2219000Y21344649D01*
X2337900Y21057599D01*
X2557599Y20837900D01*
X2844649Y20719000D01*
X3155351Y20719000D01*
X3442401Y20837900D01*
X3662100Y21057599D01*
X3781000Y21344649D01*
X3781000Y21655351D01*
X3662100Y21942401D01*
X3442401Y22162100D01*
X3155351Y22281000D01*
X2844649Y22281000D01*
X2557599Y22162100D01*
X2337900Y21942401D01*
X2219000Y21655351D01*
X1418093Y21655351D01*
X1235459Y21731000D01*
X964541Y21731000D01*
X714244Y21627324D01*
X522676Y21435756D01*
X456000Y21274785D01*
X456000Y22435459D01*
X4919000Y22435459D01*
X4919000Y22164541D01*
X5022676Y21914244D01*
X5214244Y21722676D01*
X5464541Y21619000D01*
X5735459Y21619000D01*
X5985756Y21722676D01*
X6177324Y21914244D01*
X6268953Y22135459D01*
X8719000Y22135459D01*
X8719000Y21864541D01*
X8822676Y21614244D01*
X9014244Y21422676D01*
X9264541Y21319000D01*
X9416462Y21319000D01*
X12305103Y18430358D01*
X12305103Y18107977D01*
X12260756Y18152324D01*
X12010459Y18256000D01*
X11739541Y18256000D01*
X11489244Y18152324D01*
X11297676Y17960756D01*
X11194000Y17710459D01*
X11194000Y17439541D01*
X11297676Y17189244D01*
X11405100Y17081820D01*
X11405100Y16556000D01*
X11139541Y16556000D01*
X10889244Y16452324D01*
X10697676Y16260756D01*
X10594000Y16010459D01*
X10594000Y15739541D01*
X10697676Y15489244D01*
X10805100Y15381820D01*
X10805100Y14015022D01*
X10585459Y14106000D01*
X10314541Y14106000D01*
X10064244Y14002324D01*
X9872676Y13810756D01*
X9769000Y13560459D01*
X9769000Y13289541D01*
X9872676Y13039244D01*
X10064244Y12847676D01*
X10314541Y12744000D01*
X10585459Y12744000D01*
X10805100Y12834978D01*
X10805100Y11666798D01*
X10710459Y11706000D01*
X10439541Y11706000D01*
X10189244Y11602324D01*
X10141600Y11554679D01*
X10058120Y11638159D01*
X9807823Y11741835D01*
X9536905Y11741835D01*
X9286608Y11638159D01*
X9095040Y11446591D01*
X8991364Y11196294D01*
X8991364Y10925376D01*
X9095040Y10675079D01*
X9286608Y10483511D01*
X9536905Y10379835D01*
X9807823Y10379835D01*
X10058120Y10483511D01*
X10105765Y10531155D01*
X10189244Y10447676D01*
X10439541Y10344000D01*
X10710459Y10344000D01*
X10805100Y10383202D01*
X10805101Y7332979D01*
X10635756Y7502324D01*
X10385459Y7606000D01*
X10114541Y7606000D01*
X9864244Y7502324D01*
X9672676Y7310756D01*
X9569000Y7060459D01*
X9569000Y6789541D01*
X9672676Y6539244D01*
X9705920Y6506000D01*
X9514541Y6506000D01*
X9264244Y6402324D01*
X9072676Y6210756D01*
X8969000Y5960459D01*
X8969000Y5689541D01*
X9072676Y5439244D01*
X9264244Y5247676D01*
X9514541Y5144000D01*
X9584670Y5144000D01*
X9519000Y4985459D01*
X9519000Y4714541D01*
X9622676Y4464244D01*
X9814244Y4272676D01*
X10064541Y4169000D01*
X10335459Y4169000D01*
X10585756Y4272676D01*
X10636170Y4323090D01*
X10722676Y4114244D01*
X10914244Y3922676D01*
X11164541Y3819000D01*
X11435459Y3819000D01*
X11656261Y3910459D01*
X15269000Y3910459D01*
X15269000Y3639541D01*
X15372676Y3389244D01*
X15564244Y3197676D01*
X15814541Y3094000D01*
X16085459Y3094000D01*
X16335756Y3197676D01*
X16527324Y3389244D01*
X16598243Y3560459D01*
X24519000Y3560459D01*
X24519000Y3289541D01*
X24622676Y3039244D01*
X24814244Y2847676D01*
X25064541Y2744000D01*
X25335459Y2744000D01*
X25585756Y2847676D01*
X25777324Y3039244D01*
X25881000Y3289541D01*
X25881000Y3560459D01*
X25777324Y3810756D01*
X25585756Y4002324D01*
X25335459Y4106000D01*
X25064541Y4106000D01*
X24814244Y4002324D01*
X24622676Y3810756D01*
X24519000Y3560459D01*
X16598243Y3560459D01*
X16631000Y3639541D01*
X16631000Y3910459D01*
X16527324Y4160756D01*
X16335756Y4352324D01*
X16085459Y4456000D01*
X15814541Y4456000D01*
X15564244Y4352324D01*
X15372676Y4160756D01*
X15269000Y3910459D01*
X11656261Y3910459D01*
X11685756Y3922676D01*
X11877324Y4114244D01*
X11981000Y4364541D01*
X11981000Y4540000D01*
X32244884Y4540000D01*
X32340424Y4059688D01*
X32612499Y3652499D01*
X33019688Y3380424D01*
X33378761Y3309000D01*
X33621239Y3309000D01*
X33980312Y3380424D01*
X34387501Y3652499D01*
X34659576Y4059688D01*
X34755116Y4540000D01*
X34944884Y4540000D01*
X35040424Y4059688D01*
X35312499Y3652499D01*
X35719688Y3380424D01*
X36078761Y3309000D01*
X36321239Y3309000D01*
X36680312Y3380424D01*
X37087501Y3652499D01*
X37359576Y4059688D01*
X37455116Y4540000D01*
X37359576Y5020312D01*
X37087501Y5427501D01*
X36680312Y5699576D01*
X36321239Y5771000D01*
X36078761Y5771000D01*
X35719688Y5699576D01*
X35312499Y5427501D01*
X35040424Y5020312D01*
X34944884Y4540000D01*
X34755116Y4540000D01*
X34659576Y5020312D01*
X34387501Y5427501D01*
X33980312Y5699576D01*
X33621239Y5771000D01*
X33378761Y5771000D01*
X33019688Y5699576D01*
X32612499Y5427501D01*
X32340424Y5020312D01*
X32244884Y4540000D01*
X11981000Y4540000D01*
X11981000Y4635459D01*
X11877324Y4885756D01*
X11744900Y5018180D01*
X11744900Y5785459D01*
X16444000Y5785459D01*
X16444000Y5514541D01*
X16547676Y5264244D01*
X16739244Y5072676D01*
X16989541Y4969000D01*
X17260459Y4969000D01*
X17510756Y5072676D01*
X17650000Y5211920D01*
X17789244Y5072676D01*
X18039541Y4969000D01*
X18310459Y4969000D01*
X18560756Y5072676D01*
X18587500Y5099420D01*
X18689244Y4997676D01*
X18939541Y4894000D01*
X19210459Y4894000D01*
X19460756Y4997676D01*
X19537500Y5074420D01*
X19589244Y5022676D01*
X19839541Y4919000D01*
X20110459Y4919000D01*
X20360756Y5022676D01*
X20475000Y5136920D01*
X20539244Y5072676D01*
X20789541Y4969000D01*
X21060459Y4969000D01*
X21310756Y5072676D01*
X21502324Y5264244D01*
X21606000Y5514541D01*
X21606000Y5785459D01*
X21502324Y6035756D01*
X21310756Y6227324D01*
X21110050Y6310459D01*
X22319000Y6310459D01*
X22319000Y6039541D01*
X22422676Y5789244D01*
X22614244Y5597676D01*
X22864541Y5494000D01*
X23135459Y5494000D01*
X23385756Y5597676D01*
X23577324Y5789244D01*
X23668953Y6010459D01*
X25169000Y6010459D01*
X25169000Y5739541D01*
X25272676Y5489244D01*
X25464244Y5297676D01*
X25714541Y5194000D01*
X25985459Y5194000D01*
X26235756Y5297676D01*
X26427324Y5489244D01*
X26531000Y5739541D01*
X26531000Y6010459D01*
X26427324Y6260756D01*
X26235756Y6452324D01*
X25985459Y6556000D01*
X25714541Y6556000D01*
X25464244Y6452324D01*
X25272676Y6260756D01*
X25169000Y6010459D01*
X23668953Y6010459D01*
X23681000Y6039541D01*
X23681000Y6310459D01*
X23577324Y6560756D01*
X23385756Y6752324D01*
X23135459Y6856000D01*
X22864541Y6856000D01*
X22614244Y6752324D01*
X22422676Y6560756D01*
X22319000Y6310459D01*
X21110050Y6310459D01*
X21060459Y6331000D01*
X20789541Y6331000D01*
X20539244Y6227324D01*
X20425000Y6113080D01*
X20360756Y6177324D01*
X20110459Y6281000D01*
X19839541Y6281000D01*
X19589244Y6177324D01*
X19512500Y6100580D01*
X19460756Y6152324D01*
X19210459Y6256000D01*
X18939541Y6256000D01*
X18689244Y6152324D01*
X18662500Y6125580D01*
X18560756Y6227324D01*
X18310459Y6331000D01*
X18039541Y6331000D01*
X17789244Y6227324D01*
X17650000Y6088080D01*
X17510756Y6227324D01*
X17260459Y6331000D01*
X16989541Y6331000D01*
X16739244Y6227324D01*
X16547676Y6035756D01*
X16444000Y5785459D01*
X11744900Y5785459D01*
X11744900Y6469000D01*
X11985459Y6469000D01*
X12235756Y6572676D01*
X12427324Y6764244D01*
X12531000Y7014541D01*
X12531000Y7080000D01*
X32244884Y7080000D01*
X32340424Y6599688D01*
X32612499Y6192499D01*
X33019688Y5920424D01*
X33378761Y5849000D01*
X33621239Y5849000D01*
X33980312Y5920424D01*
X34387501Y6192499D01*
X34659576Y6599688D01*
X34755116Y7080000D01*
X34944884Y7080000D01*
X35040424Y6599688D01*
X35312499Y6192499D01*
X35719688Y5920424D01*
X36078761Y5849000D01*
X36321239Y5849000D01*
X36680312Y5920424D01*
X37087501Y6192499D01*
X37359576Y6599688D01*
X37455116Y7080000D01*
X37359576Y7560312D01*
X37087501Y7967501D01*
X36680312Y8239576D01*
X36321239Y8311000D01*
X36078761Y8311000D01*
X35719688Y8239576D01*
X35312499Y7967501D01*
X35040424Y7560312D01*
X34944884Y7080000D01*
X34755116Y7080000D01*
X34659576Y7560312D01*
X34387501Y7967501D01*
X33980312Y8239576D01*
X33621239Y8311000D01*
X33378761Y8311000D01*
X33019688Y8239576D01*
X32612499Y7967501D01*
X32340424Y7560312D01*
X32244884Y7080000D01*
X12531000Y7080000D01*
X12531000Y7285459D01*
X12427324Y7535756D01*
X12344900Y7618180D01*
X12344900Y8210459D01*
X23769000Y8210459D01*
X23769000Y7939541D01*
X23872676Y7689244D01*
X24064244Y7497676D01*
X24314541Y7394000D01*
X24585459Y7394000D01*
X24835756Y7497676D01*
X25027324Y7689244D01*
X25131000Y7939541D01*
X25131000Y8210459D01*
X25027324Y8460756D01*
X24835756Y8652324D01*
X24585459Y8756000D01*
X24314541Y8756000D01*
X24064244Y8652324D01*
X23872676Y8460756D01*
X23769000Y8210459D01*
X12344900Y8210459D01*
X12344900Y9135459D01*
X22294000Y9135459D01*
X22294000Y8864541D01*
X22397676Y8614244D01*
X22589244Y8422676D01*
X22839541Y8319000D01*
X23110459Y8319000D01*
X23360756Y8422676D01*
X23552324Y8614244D01*
X23656000Y8864541D01*
X23656000Y9135459D01*
X23552324Y9385756D01*
X23360756Y9577324D01*
X23110459Y9681000D01*
X22839541Y9681000D01*
X22589244Y9577324D01*
X22397676Y9385756D01*
X22294000Y9135459D01*
X12344900Y9135459D01*
X12344900Y10591549D01*
X16713600Y10591549D01*
X16713600Y10320631D01*
X16817276Y10070334D01*
X17008844Y9878766D01*
X17259141Y9775090D01*
X17530059Y9775090D01*
X17780356Y9878766D01*
X17971924Y10070334D01*
X18075600Y10320631D01*
X18075600Y10591549D01*
X18613600Y10591549D01*
X18613600Y10320631D01*
X18717276Y10070334D01*
X18908844Y9878766D01*
X19159141Y9775090D01*
X19430059Y9775090D01*
X19680356Y9878766D01*
X19871924Y10070334D01*
X19876991Y10082569D01*
X24496902Y10082569D01*
X24496902Y9811651D01*
X24600578Y9561354D01*
X24792146Y9369786D01*
X25042443Y9266110D01*
X25313361Y9266110D01*
X25563658Y9369786D01*
X25755226Y9561354D01*
X25779517Y9620000D01*
X32244884Y9620000D01*
X32340424Y9139688D01*
X32612499Y8732499D01*
X33019688Y8460424D01*
X33378761Y8389000D01*
X33621239Y8389000D01*
X33980312Y8460424D01*
X34387501Y8732499D01*
X34659576Y9139688D01*
X34755116Y9620000D01*
X34944884Y9620000D01*
X35040424Y9139688D01*
X35312499Y8732499D01*
X35719688Y8460424D01*
X36078761Y8389000D01*
X36321239Y8389000D01*
X36680312Y8460424D01*
X37087501Y8732499D01*
X37359576Y9139688D01*
X37455116Y9620000D01*
X37359576Y10100312D01*
X37087501Y10507501D01*
X36680312Y10779576D01*
X36321239Y10851000D01*
X36078761Y10851000D01*
X35719688Y10779576D01*
X35312499Y10507501D01*
X35040424Y10100312D01*
X34944884Y9620000D01*
X34755116Y9620000D01*
X34659576Y10100312D01*
X34387501Y10507501D01*
X33980312Y10779576D01*
X33621239Y10851000D01*
X33378761Y10851000D01*
X33019688Y10779576D01*
X32612499Y10507501D01*
X32340424Y10100312D01*
X32244884Y9620000D01*
X25779517Y9620000D01*
X25858902Y9811651D01*
X25858902Y10082569D01*
X25833457Y10144000D01*
X25935459Y10144000D01*
X26185756Y10247676D01*
X26377324Y10439244D01*
X26481000Y10689541D01*
X26481000Y10960459D01*
X26377324Y11210756D01*
X26185756Y11402324D01*
X25935459Y11506000D01*
X25664541Y11506000D01*
X25414244Y11402324D01*
X25222676Y11210756D01*
X25119000Y10960459D01*
X25119000Y10689541D01*
X25144445Y10628110D01*
X25042443Y10628110D01*
X24792146Y10524434D01*
X24600578Y10332866D01*
X24496902Y10082569D01*
X19876991Y10082569D01*
X19975600Y10320631D01*
X19975600Y10591549D01*
X19871924Y10841846D01*
X19680356Y11033414D01*
X19430059Y11137090D01*
X19159141Y11137090D01*
X18908844Y11033414D01*
X18717276Y10841846D01*
X18613600Y10591549D01*
X18075600Y10591549D01*
X17971924Y10841846D01*
X17780356Y11033414D01*
X17530059Y11137090D01*
X17259141Y11137090D01*
X17008844Y11033414D01*
X16817276Y10841846D01*
X16713600Y10591549D01*
X12344900Y10591549D01*
X12344900Y11967026D01*
X12389247Y11922679D01*
X12639544Y11819003D01*
X12910462Y11819003D01*
X13160759Y11922679D01*
X13352327Y12114247D01*
X13456003Y12364544D01*
X13456003Y12635462D01*
X13352327Y12885759D01*
X13244903Y12993183D01*
X13244903Y15769000D01*
X13479362Y15769000D01*
X13729659Y15872676D01*
X13805101Y15948118D01*
X13805101Y13193181D01*
X13697676Y13085756D01*
X13594000Y12835459D01*
X13594000Y12564541D01*
X13697676Y12314244D01*
X13889244Y12122676D01*
X14139541Y12019000D01*
X14410459Y12019000D01*
X14660756Y12122676D01*
X14852324Y12314244D01*
X14936912Y12518459D01*
X16713600Y12518459D01*
X16713600Y12247541D01*
X16817276Y11997244D01*
X17008844Y11805676D01*
X17259141Y11702000D01*
X17530059Y11702000D01*
X17780356Y11805676D01*
X17971924Y11997244D01*
X18075600Y12247541D01*
X18075600Y12518459D01*
X18613600Y12518459D01*
X18613600Y12247541D01*
X18717276Y11997244D01*
X18908844Y11805676D01*
X19159141Y11702000D01*
X19430059Y11702000D01*
X19680356Y11805676D01*
X19810139Y11935459D01*
X21519000Y11935459D01*
X21519000Y11664541D01*
X21622676Y11414244D01*
X21814244Y11222676D01*
X22064541Y11119000D01*
X22335459Y11119000D01*
X22585756Y11222676D01*
X22777324Y11414244D01*
X22881000Y11664541D01*
X22881000Y11744000D01*
X22960459Y11744000D01*
X23181261Y11835459D01*
X23444000Y11835459D01*
X23444000Y11564541D01*
X23547676Y11314244D01*
X23739244Y11122676D01*
X23989541Y11019000D01*
X24260459Y11019000D01*
X24510756Y11122676D01*
X24702324Y11314244D01*
X24806000Y11564541D01*
X24806000Y11835459D01*
X24702324Y12085756D01*
X24628080Y12160000D01*
X32244884Y12160000D01*
X32340424Y11679688D01*
X32612499Y11272499D01*
X33019688Y11000424D01*
X33378761Y10929000D01*
X33621239Y10929000D01*
X33980312Y11000424D01*
X34387501Y11272499D01*
X34659576Y11679688D01*
X34755116Y12160000D01*
X34944884Y12160000D01*
X35040424Y11679688D01*
X35312499Y11272499D01*
X35719688Y11000424D01*
X36078761Y10929000D01*
X36321239Y10929000D01*
X36680312Y11000424D01*
X37087501Y11272499D01*
X37359576Y11679688D01*
X37455116Y12160000D01*
X37359576Y12640312D01*
X37087501Y13047501D01*
X36680312Y13319576D01*
X36321239Y13391000D01*
X36078761Y13391000D01*
X35719688Y13319576D01*
X35312499Y13047501D01*
X35040424Y12640312D01*
X34944884Y12160000D01*
X34755116Y12160000D01*
X34659576Y12640312D01*
X34387501Y13047501D01*
X33980312Y13319576D01*
X33621239Y13391000D01*
X33378761Y13391000D01*
X33019688Y13319576D01*
X32612499Y13047501D01*
X32340424Y12640312D01*
X32244884Y12160000D01*
X24628080Y12160000D01*
X24510756Y12277324D01*
X24260459Y12381000D01*
X23989541Y12381000D01*
X23739244Y12277324D01*
X23547676Y12085756D01*
X23444000Y11835459D01*
X23181261Y11835459D01*
X23210756Y11847676D01*
X23402324Y12039244D01*
X23506000Y12289541D01*
X23506000Y12560459D01*
X23402324Y12810756D01*
X23210756Y13002324D01*
X22960459Y13106000D01*
X22689541Y13106000D01*
X22439244Y13002324D01*
X22247676Y12810756D01*
X22144000Y12560459D01*
X22144000Y12481000D01*
X22064541Y12481000D01*
X21814244Y12377324D01*
X21622676Y12185756D01*
X21519000Y11935459D01*
X19810139Y11935459D01*
X19871924Y11997244D01*
X19975600Y12247541D01*
X19975600Y12518459D01*
X19871924Y12768756D01*
X19680356Y12960324D01*
X19430059Y13064000D01*
X19159141Y13064000D01*
X18908844Y12960324D01*
X18717276Y12768756D01*
X18613600Y12518459D01*
X18075600Y12518459D01*
X17971924Y12768756D01*
X17780356Y12960324D01*
X17530059Y13064000D01*
X17259141Y13064000D01*
X17008844Y12960324D01*
X16817276Y12768756D01*
X16713600Y12518459D01*
X14936912Y12518459D01*
X14956000Y12564541D01*
X14956000Y12835459D01*
X14852324Y13085756D01*
X14744900Y13193180D01*
X14744900Y13639267D01*
X14914541Y13569000D01*
X15185459Y13569000D01*
X15435756Y13672676D01*
X15627324Y13864244D01*
X15731000Y14114541D01*
X15731000Y14385459D01*
X15627324Y14635756D01*
X15519900Y14743180D01*
X15519900Y15535459D01*
X16319000Y15535459D01*
X16319000Y15264541D01*
X16422676Y15014244D01*
X16614244Y14822676D01*
X16864541Y14719000D01*
X17135459Y14719000D01*
X17385756Y14822676D01*
X17577324Y15014244D01*
X17681000Y15264541D01*
X17681000Y15335467D01*
X19919000Y15335467D01*
X19919000Y15064549D01*
X20022676Y14814252D01*
X20214244Y14622684D01*
X20268336Y14600278D01*
X20169000Y14360459D01*
X20169000Y14089541D01*
X20272676Y13839244D01*
X20464244Y13647676D01*
X20714541Y13544000D01*
X20985459Y13544000D01*
X21235756Y13647676D01*
X21427324Y13839244D01*
X21529309Y14085459D01*
X24819000Y14085459D01*
X24819000Y13814541D01*
X24922676Y13564244D01*
X25114244Y13372676D01*
X25364541Y13269000D01*
X25635459Y13269000D01*
X25885756Y13372676D01*
X26023539Y13510459D01*
X27744000Y13510459D01*
X27744000Y13239541D01*
X27847676Y12989244D01*
X28039244Y12797676D01*
X28289541Y12694000D01*
X28560459Y12694000D01*
X28810756Y12797676D01*
X29002324Y12989244D01*
X29106000Y13239541D01*
X29106000Y13510459D01*
X29002324Y13760756D01*
X28810756Y13952324D01*
X28560459Y14056000D01*
X28289541Y14056000D01*
X28039244Y13952324D01*
X27847676Y13760756D01*
X27744000Y13510459D01*
X26023539Y13510459D01*
X26077324Y13564244D01*
X26181000Y13814541D01*
X26181000Y14085459D01*
X26077324Y14335756D01*
X25885756Y14527324D01*
X25635459Y14631000D01*
X25364541Y14631000D01*
X25114244Y14527324D01*
X24922676Y14335756D01*
X24819000Y14085459D01*
X21529309Y14085459D01*
X21531000Y14089541D01*
X21531000Y14360459D01*
X21427324Y14610756D01*
X21235756Y14802324D01*
X21181664Y14824730D01*
X21281000Y15064549D01*
X21281000Y15335467D01*
X21192138Y15550000D01*
X32261536Y15550000D01*
X32261536Y13850000D01*
X32291106Y13701341D01*
X32375314Y13575314D01*
X32501341Y13491106D01*
X32650000Y13461536D01*
X34350000Y13461536D01*
X34498659Y13491106D01*
X34624686Y13575314D01*
X34708894Y13701341D01*
X34738464Y13850000D01*
X34738464Y15550000D01*
X34961536Y15550000D01*
X34961536Y13850000D01*
X34991106Y13701341D01*
X35075314Y13575314D01*
X35201341Y13491106D01*
X35350000Y13461536D01*
X37050000Y13461536D01*
X37198659Y13491106D01*
X37324686Y13575314D01*
X37408894Y13701341D01*
X37438464Y13850000D01*
X37438464Y15550000D01*
X37408894Y15698659D01*
X37324686Y15824686D01*
X37198659Y15908894D01*
X37050000Y15938464D01*
X35350000Y15938464D01*
X35201341Y15908894D01*
X35075314Y15824686D01*
X34991106Y15698659D01*
X34961536Y15550000D01*
X34738464Y15550000D01*
X34708894Y15698659D01*
X34624686Y15824686D01*
X34498659Y15908894D01*
X34350000Y15938464D01*
X32650000Y15938464D01*
X32501341Y15908894D01*
X32375314Y15824686D01*
X32291106Y15698659D01*
X32261536Y15550000D01*
X21192138Y15550000D01*
X21177324Y15585764D01*
X20985756Y15777332D01*
X20735459Y15881008D01*
X20464541Y15881008D01*
X20214244Y15777332D01*
X20022676Y15585764D01*
X19919000Y15335467D01*
X17681000Y15335467D01*
X17681000Y15435891D01*
X20520286Y18435459D01*
X20719000Y18435459D01*
X20719000Y18164541D01*
X20822676Y17914244D01*
X21014244Y17722676D01*
X21117024Y17680104D01*
X20972676Y17535756D01*
X20869000Y17285459D01*
X20869000Y17014541D01*
X20972676Y16764244D01*
X21164244Y16572676D01*
X21414541Y16469000D01*
X21685459Y16469000D01*
X21935756Y16572676D01*
X22127324Y16764244D01*
X22231000Y17014541D01*
X22231000Y17285459D01*
X22127324Y17535756D01*
X21935756Y17727324D01*
X21832976Y17769896D01*
X21898539Y17835459D01*
X35919000Y17835459D01*
X35919000Y17564541D01*
X36022676Y17314244D01*
X36214244Y17122676D01*
X36464541Y17019000D01*
X36735459Y17019000D01*
X36985756Y17122676D01*
X37177324Y17314244D01*
X37281000Y17564541D01*
X37281000Y17835459D01*
X37177324Y18085756D01*
X36985756Y18277324D01*
X36735459Y18381000D01*
X36464541Y18381000D01*
X36214244Y18277324D01*
X36022676Y18085756D01*
X35919000Y17835459D01*
X21898539Y17835459D01*
X21977324Y17914244D01*
X22081000Y18164541D01*
X22081000Y18435459D01*
X21977324Y18685756D01*
X21785756Y18877324D01*
X21535459Y18981000D01*
X21264541Y18981000D01*
X21014244Y18877324D01*
X20822676Y18685756D01*
X20719000Y18435459D01*
X20520286Y18435459D01*
X21466849Y19435457D01*
X23869000Y19435457D01*
X23869000Y19164539D01*
X23972676Y18914242D01*
X24164244Y18722674D01*
X24414541Y18618998D01*
X24685459Y18618998D01*
X24935756Y18722674D01*
X25127324Y18914242D01*
X25231000Y19164539D01*
X25231000Y19435457D01*
X25127324Y19685754D01*
X24935756Y19877322D01*
X24855756Y19910459D01*
X27744002Y19910459D01*
X27744002Y19639541D01*
X27847678Y19389244D01*
X28039246Y19197676D01*
X28289543Y19094000D01*
X28560461Y19094000D01*
X28810758Y19197676D01*
X29002326Y19389244D01*
X29106002Y19639541D01*
X29106002Y19910459D01*
X29002326Y20160756D01*
X28927623Y20235459D01*
X35819000Y20235459D01*
X35819000Y19964541D01*
X35922676Y19714244D01*
X36114244Y19522676D01*
X36364541Y19419000D01*
X36635459Y19419000D01*
X36885756Y19522676D01*
X37077324Y19714244D01*
X37181000Y19964541D01*
X37181000Y20235459D01*
X37077324Y20485756D01*
X36885756Y20677324D01*
X36635459Y20781000D01*
X36364541Y20781000D01*
X36114244Y20677324D01*
X35922676Y20485756D01*
X35819000Y20235459D01*
X28927623Y20235459D01*
X28810758Y20352324D01*
X28560461Y20456000D01*
X28289543Y20456000D01*
X28039246Y20352324D01*
X27847678Y20160756D01*
X27744002Y19910459D01*
X24855756Y19910459D01*
X24685459Y19980998D01*
X24414541Y19980998D01*
X24164244Y19877322D01*
X23972676Y19685754D01*
X23869000Y19435457D01*
X21466849Y19435457D01*
X23465628Y21547070D01*
X23547935Y21602065D01*
X23583539Y21655351D01*
X34219000Y21655351D01*
X34219000Y21344649D01*
X34337900Y21057599D01*
X34557599Y20837900D01*
X34844649Y20719000D01*
X35155351Y20719000D01*
X35442401Y20837900D01*
X35662100Y21057599D01*
X35781000Y21344649D01*
X35781000Y21655351D01*
X35662100Y21942401D01*
X35442401Y22162100D01*
X35155351Y22281000D01*
X34844649Y22281000D01*
X34557599Y22162100D01*
X34337900Y21942401D01*
X34219000Y21655351D01*
X23583539Y21655351D01*
X23654599Y21761699D01*
X23682600Y21902471D01*
X23682600Y22485459D01*
X31569000Y22485459D01*
X31569000Y22214541D01*
X31672676Y21964244D01*
X31864244Y21772676D01*
X32114541Y21669000D01*
X32385459Y21669000D01*
X32635756Y21772676D01*
X32827324Y21964244D01*
X32931000Y22214541D01*
X32931000Y22485459D01*
X32827324Y22735756D01*
X32635756Y22927324D01*
X32385459Y23031000D01*
X32114541Y23031000D01*
X31864244Y22927324D01*
X31672676Y22735756D01*
X31569000Y22485459D01*
X23682600Y22485459D01*
X23682600Y23735459D01*
X36069000Y23735459D01*
X36069000Y23464541D01*
X36172676Y23214244D01*
X36364244Y23022676D01*
X36614541Y22919000D01*
X36885459Y22919000D01*
X37135756Y23022676D01*
X37327324Y23214244D01*
X37431000Y23464541D01*
X37431000Y23735459D01*
X37327324Y23985756D01*
X37135756Y24177324D01*
X36885459Y24281000D01*
X36614541Y24281000D01*
X36364244Y24177324D01*
X36172676Y23985756D01*
X36069000Y23735459D01*
X23682600Y23735459D01*
X23682600Y29844861D01*
X28169000Y29844861D01*
X28169000Y29355139D01*
X28356408Y28902694D01*
X28702694Y28556408D01*
X29155139Y28369000D01*
X29644861Y28369000D01*
X30097306Y28556408D01*
X30443592Y28902694D01*
X30631000Y29355139D01*
X30631000Y29844861D01*
X30443592Y30297306D01*
X30097306Y30643592D01*
X29644861Y30831000D01*
X29155139Y30831000D01*
X28702694Y30643592D01*
X28356408Y30297306D01*
X28169000Y29844861D01*
X23682600Y29844861D01*
X23682600Y33952113D01*
X24767878Y35037390D01*
X24901838Y35037390D01*
X25138598Y35135459D01*
X30594000Y35135459D01*
X30594000Y34864541D01*
X30697676Y34614244D01*
X30889244Y34422676D01*
X31139541Y34319000D01*
X31410459Y34319000D01*
X31660756Y34422676D01*
X31852324Y34614244D01*
X31956000Y34864541D01*
X31956000Y35135459D01*
X31852324Y35385756D01*
X31660756Y35577324D01*
X31410459Y35681000D01*
X31139541Y35681000D01*
X30889244Y35577324D01*
X30697676Y35385756D01*
X30594000Y35135459D01*
X25138598Y35135459D01*
X25152135Y35141066D01*
X25343703Y35332634D01*
X25447379Y35582931D01*
X25447379Y35853849D01*
X25343703Y36104146D01*
X25152135Y36295714D01*
X24901838Y36399390D01*
X24630920Y36399390D01*
X24380623Y36295714D01*
X24189055Y36104146D01*
X24085379Y35853849D01*
X24085379Y35719889D01*
X22892362Y34526871D01*
X22852066Y34499946D01*
X22800436Y34422676D01*
X22745402Y34340312D01*
X22707946Y34152011D01*
X22717401Y34104478D01*
X22717400Y22123710D01*
X21981000Y21345739D01*
X21981000Y21535459D01*
X21877324Y21785756D01*
X21685756Y21977324D01*
X21435459Y22081000D01*
X21164541Y22081000D01*
X20914244Y21977324D01*
X20722676Y21785756D01*
X20619000Y21535459D01*
X20619000Y21264541D01*
X20722676Y21014244D01*
X20914244Y20822676D01*
X21164541Y20719000D01*
X21387751Y20719000D01*
X17792398Y16920682D01*
X17635756Y17077324D01*
X17603687Y17090607D01*
X17677324Y17164244D01*
X17781000Y17414541D01*
X17781000Y17685459D01*
X17677324Y17935756D01*
X17485756Y18127324D01*
X17235459Y18231000D01*
X16964541Y18231000D01*
X16714244Y18127324D01*
X16522676Y17935756D01*
X16419000Y17685459D01*
X16419000Y17414541D01*
X16522676Y17164244D01*
X16714244Y16972676D01*
X16746313Y16959393D01*
X16672676Y16885756D01*
X16569000Y16635459D01*
X16569000Y16364541D01*
X16672676Y16114244D01*
X16752379Y16034541D01*
X16614244Y15977324D01*
X16422676Y15785756D01*
X16319000Y15535459D01*
X15519900Y15535459D01*
X15519900Y18345333D01*
X15764541Y18244000D01*
X16035459Y18244000D01*
X16285756Y18347676D01*
X16477324Y18539244D01*
X16581000Y18789541D01*
X16581000Y19060459D01*
X16477324Y19310756D01*
X16285756Y19502324D01*
X16035459Y19606000D01*
X15764541Y19606000D01*
X15519900Y19504667D01*
X15519900Y25135459D01*
X19469000Y25135459D01*
X19469000Y24864541D01*
X19572676Y24614244D01*
X19764244Y24422676D01*
X20014541Y24319000D01*
X20285459Y24319000D01*
X20535756Y24422676D01*
X20727324Y24614244D01*
X20831000Y24864541D01*
X20831000Y25135459D01*
X20727324Y25385756D01*
X20535756Y25577324D01*
X20285459Y25681000D01*
X20014541Y25681000D01*
X19764244Y25577324D01*
X19572676Y25385756D01*
X19469000Y25135459D01*
X15519900Y25135459D01*
X15519900Y27331820D01*
X15627324Y27439244D01*
X15731000Y27689541D01*
X15731000Y27960459D01*
X15627324Y28210756D01*
X15563080Y28275000D01*
X15602324Y28314244D01*
X15706000Y28564541D01*
X15706000Y28835459D01*
X15602324Y29085756D01*
X15410756Y29277324D01*
X15160459Y29381000D01*
X14889541Y29381000D01*
X14639244Y29277324D01*
X14447676Y29085756D01*
X14344000Y28835459D01*
X14344000Y28683539D01*
X13975454Y28314992D01*
X13936222Y28288778D01*
X13832365Y28133345D01*
X13805100Y27996275D01*
X13805100Y27996272D01*
X13795896Y27950000D01*
X13805100Y27903728D01*
X13805101Y16951882D01*
X13729659Y17027324D01*
X13479362Y17131000D01*
X13244903Y17131000D01*
X13244903Y18578726D01*
X13254107Y18624998D01*
X13244903Y18671272D01*
X13244903Y18671273D01*
X13217638Y18808343D01*
X13113781Y18963775D01*
X13074552Y18989987D01*
X10081000Y21983538D01*
X10081000Y22135459D01*
X10039579Y22235459D01*
X10519000Y22235459D01*
X10519000Y21964541D01*
X10622676Y21714244D01*
X10814244Y21522676D01*
X11064541Y21419000D01*
X11335459Y21419000D01*
X11585756Y21522676D01*
X11777324Y21714244D01*
X11881000Y21964541D01*
X11881000Y22098501D01*
X12507642Y22725143D01*
X12547935Y22752065D01*
X12654599Y22911699D01*
X12682600Y23052471D01*
X12682600Y23052472D01*
X12692054Y23100000D01*
X12682600Y23147529D01*
X12682600Y23447528D01*
X12669900Y23511376D01*
X12669900Y31735459D01*
X18819000Y31735459D01*
X18819000Y31464541D01*
X18922676Y31214244D01*
X19114244Y31022676D01*
X19364541Y30919000D01*
X19635459Y30919000D01*
X19885756Y31022676D01*
X20077324Y31214244D01*
X20181000Y31464541D01*
X20181000Y31735459D01*
X20077324Y31985756D01*
X19885756Y32177324D01*
X19635459Y32281000D01*
X19364541Y32281000D01*
X19114244Y32177324D01*
X18922676Y31985756D01*
X18819000Y31735459D01*
X12669900Y31735459D01*
X12669900Y33006820D01*
X12777324Y33114244D01*
X12881000Y33364541D01*
X12881000Y33635459D01*
X12777324Y33885756D01*
X12585756Y34077324D01*
X12577577Y34080712D01*
X12538778Y34138778D01*
X12383345Y34242635D01*
X12200000Y34279105D01*
X12016654Y34242635D01*
X11861222Y34138778D01*
X11822424Y34080712D01*
X11814244Y34077324D01*
X11622676Y33885756D01*
X11519000Y33635459D01*
X11519000Y33364541D01*
X11622676Y33114244D01*
X11730100Y33006820D01*
X11730101Y23511380D01*
X11717400Y23447529D01*
X11717400Y23299900D01*
X11198501Y22781000D01*
X11064541Y22781000D01*
X10814244Y22677324D01*
X10622676Y22485756D01*
X10519000Y22235459D01*
X10039579Y22235459D01*
X9977324Y22385756D01*
X9785756Y22577324D01*
X9535459Y22681000D01*
X9264541Y22681000D01*
X9014244Y22577324D01*
X8822676Y22385756D01*
X8719000Y22135459D01*
X6268953Y22135459D01*
X6281000Y22164541D01*
X6281000Y22435459D01*
X6177324Y22685756D01*
X5985756Y22877324D01*
X5735459Y22981000D01*
X5464541Y22981000D01*
X5214244Y22877324D01*
X5022676Y22685756D01*
X4919000Y22435459D01*
X456000Y22435459D01*
X456000Y26935459D01*
X6019000Y26935459D01*
X6019000Y26664541D01*
X6122676Y26414244D01*
X6314244Y26222676D01*
X6564541Y26119000D01*
X6835459Y26119000D01*
X7085756Y26222676D01*
X7277324Y26414244D01*
X7381000Y26664541D01*
X7381000Y26935459D01*
X7277324Y27185756D01*
X7085756Y27377324D01*
X6835459Y27481000D01*
X6564541Y27481000D01*
X6314244Y27377324D01*
X6122676Y27185756D01*
X6019000Y26935459D01*
X456000Y26935459D01*
X456000Y29844861D01*
X7369000Y29844861D01*
X7369000Y29355139D01*
X7556408Y28902694D01*
X7902694Y28556408D01*
X8355139Y28369000D01*
X8844861Y28369000D01*
X9297306Y28556408D01*
X9643592Y28902694D01*
X9831000Y29355139D01*
X9831000Y29844861D01*
X9643592Y30297306D01*
X9297306Y30643592D01*
X8844861Y30831000D01*
X8355139Y30831000D01*
X7902694Y30643592D01*
X7556408Y30297306D01*
X7369000Y29844861D01*
X456000Y29844861D01*
X456000Y36844861D01*
X7369000Y36844861D01*
X7369000Y36355139D01*
X7556408Y35902694D01*
X7902694Y35556408D01*
X8355139Y35369000D01*
X8844861Y35369000D01*
X9297306Y35556408D01*
X9643592Y35902694D01*
X9831000Y36355139D01*
X9831000Y36844861D01*
X28169000Y36844861D01*
X28169000Y36355139D01*
X28356408Y35902694D01*
X28702694Y35556408D01*
X29155139Y35369000D01*
X29644861Y35369000D01*
X30097306Y35556408D01*
X30443592Y35902694D01*
X30631000Y36355139D01*
X30631000Y36844861D01*
X30443592Y37297306D01*
X30097306Y37643592D01*
X29644861Y37831000D01*
X29155139Y37831000D01*
X28702694Y37643592D01*
X28356408Y37297306D01*
X28169000Y36844861D01*
X9831000Y36844861D01*
X9643592Y37297306D01*
X9297306Y37643592D01*
X8844861Y37831000D01*
X8355139Y37831000D01*
X7902694Y37643592D01*
X7556408Y37297306D01*
X7369000Y36844861D01*
X456000Y36844861D01*
X456000Y38099630D01*
X458611Y38104960D01*
X475654Y38178489D01*
X542264Y38621546D01*
X704906Y38960246D01*
X959946Y39236147D01*
X1284839Y39424860D01*
X1677013Y39515761D01*
X1768885Y39519371D01*
X1897993Y39544000D01*
X36099630Y39544000D01*
X36104960Y39541389D01*
G04 #@! TD*
M02*
