G04 #@! TF.GenerationSoftware,KiCad,Pcbnew,(5.0.1-3-g963ef8bb5)*
G04 #@! TF.CreationDate,2019-03-19T16:07:13-04:00*
G04 #@! TF.ProjectId,Tympan_AIC_Shield,54796D70616E5F4149435F536869656C,rev?*
G04 #@! TF.SameCoordinates,PX6d878d0PY5279480*
G04 #@! TF.FileFunction,Copper,L1,Top,Signal*
G04 #@! TF.FilePolarity,Positive*
%FSLAX46Y46*%
G04 Gerber Fmt 4.6, Leading zero omitted, Abs format (unit mm)*
G04 Created by KiCad (PCBNEW (5.0.1-3-g963ef8bb5)) date Tuesday, March 19, 2019 at 04:07:13 PM*
%MOMM*%
%LPD*%
G01*
G04 APERTURE LIST*
G04 #@! TA.AperFunction,SMDPad,CuDef*
%ADD10R,0.600000X0.500000*%
G04 #@! TD*
G04 #@! TA.AperFunction,SMDPad,CuDef*
%ADD11R,0.800000X0.750000*%
G04 #@! TD*
G04 #@! TA.AperFunction,SMDPad,CuDef*
%ADD12R,0.750000X0.800000*%
G04 #@! TD*
G04 #@! TA.AperFunction,SMDPad,CuDef*
%ADD13R,0.200000X0.750000*%
G04 #@! TD*
G04 #@! TA.AperFunction,SMDPad,CuDef*
%ADD14R,0.750000X0.200000*%
G04 #@! TD*
G04 #@! TA.AperFunction,SMDPad,CuDef*
%ADD15R,1.900000X1.900000*%
G04 #@! TD*
G04 #@! TA.AperFunction,SMDPad,CuDef*
%ADD16R,2.800000X2.800000*%
G04 #@! TD*
G04 #@! TA.AperFunction,SMDPad,CuDef*
%ADD17R,2.800000X2.200000*%
G04 #@! TD*
G04 #@! TA.AperFunction,SMDPad,CuDef*
%ADD18R,0.500000X0.600000*%
G04 #@! TD*
G04 #@! TA.AperFunction,ComponentPad*
%ADD19R,1.700000X1.700000*%
G04 #@! TD*
G04 #@! TA.AperFunction,ComponentPad*
%ADD20O,1.700000X1.700000*%
G04 #@! TD*
G04 #@! TA.AperFunction,SMDPad,CuDef*
%ADD21R,0.650000X0.400000*%
G04 #@! TD*
G04 #@! TA.AperFunction,SMDPad,CuDef*
%ADD22R,0.600000X0.400000*%
G04 #@! TD*
G04 #@! TA.AperFunction,SMDPad,CuDef*
%ADD23R,0.400000X0.600000*%
G04 #@! TD*
G04 #@! TA.AperFunction,ViaPad*
%ADD24C,0.600000*%
G04 #@! TD*
G04 #@! TA.AperFunction,Conductor*
%ADD25C,0.177800*%
G04 #@! TD*
G04 #@! TA.AperFunction,Conductor*
%ADD26C,0.203200*%
G04 #@! TD*
G04 #@! TA.AperFunction,Conductor*
%ADD27C,0.381000*%
G04 #@! TD*
G04 #@! TA.AperFunction,Conductor*
%ADD28C,0.250000*%
G04 #@! TD*
G04 #@! TA.AperFunction,Conductor*
%ADD29C,0.254000*%
G04 #@! TD*
G04 APERTURE END LIST*
D10*
G04 #@! TO.P,C23,1*
G04 #@! TO.N,/IN1_R_1*
X10500000Y12175000D03*
G04 #@! TO.P,C23,2*
G04 #@! TO.N,Net-(C23-Pad2)*
X9400000Y12175000D03*
G04 #@! TD*
D11*
G04 #@! TO.P,R12,1*
G04 #@! TO.N,/HPL*
X18050000Y24500000D03*
G04 #@! TO.P,R12,2*
G04 #@! TO.N,Net-(J1-Pad2)*
X19550000Y24500000D03*
G04 #@! TD*
G04 #@! TO.P,R13,1*
G04 #@! TO.N,/HPR*
X18050000Y25800000D03*
G04 #@! TO.P,R13,2*
G04 #@! TO.N,Net-(J1-Pad3)*
X19550000Y25800000D03*
G04 #@! TD*
G04 #@! TO.P,R14,1*
G04 #@! TO.N,Net-(J1-Pad2)*
X19550000Y23200000D03*
G04 #@! TO.P,R14,2*
G04 #@! TO.N,GND*
X18050000Y23200000D03*
G04 #@! TD*
D12*
G04 #@! TO.P,R15,1*
G04 #@! TO.N,/MICBIAS*
X20175000Y19750000D03*
G04 #@! TO.P,R15,2*
G04 #@! TO.N,Net-(C12-Pad2)*
X20175000Y21250000D03*
G04 #@! TD*
G04 #@! TO.P,R16,1*
G04 #@! TO.N,Net-(C13-Pad2)*
X14800000Y21325000D03*
G04 #@! TO.P,R16,2*
G04 #@! TO.N,Net-(R16-Pad2)*
X14800000Y19825000D03*
G04 #@! TD*
D11*
G04 #@! TO.P,R17,1*
G04 #@! TO.N,Net-(J1-Pad3)*
X19550000Y27100000D03*
G04 #@! TO.P,R17,2*
G04 #@! TO.N,GND*
X18050000Y27100000D03*
G04 #@! TD*
D13*
G04 #@! TO.P,U2,1*
G04 #@! TO.N,GND*
X16544600Y8933000D03*
G04 #@! TO.P,U2,2*
X16944600Y8933000D03*
G04 #@! TO.P,U2,3*
G04 #@! TO.N,Net-(R2-Pad2)*
X17344600Y8933000D03*
G04 #@! TO.P,U2,4*
G04 #@! TO.N,Net-(U2-Pad4)*
X17744600Y8933000D03*
G04 #@! TO.P,U2,5*
G04 #@! TO.N,Net-(R7-Pad2)*
X18144600Y8933000D03*
G04 #@! TO.P,U2,6*
G04 #@! TO.N,Net-(R3-Pad2)*
X18544600Y8933000D03*
G04 #@! TO.P,U2,7*
G04 #@! TO.N,Net-(R4-Pad2)*
X18944600Y8933000D03*
G04 #@! TO.P,U2,8*
G04 #@! TO.N,Net-(R5-Pad2)*
X19344600Y8933000D03*
G04 #@! TO.P,U2,9*
G04 #@! TO.N,Net-(R6-Pad2)*
X19744600Y8933000D03*
G04 #@! TO.P,U2,10*
G04 #@! TO.N,+3V3*
X20144600Y8933000D03*
D14*
G04 #@! TO.P,U2,11*
G04 #@! TO.N,GND*
X20844600Y9633000D03*
G04 #@! TO.P,U2,12*
G04 #@! TO.N,/PDM_CLK1*
X20844600Y10033000D03*
G04 #@! TO.P,U2,13*
G04 #@! TO.N,Net-(R10-Pad2)*
X20844600Y10433000D03*
G04 #@! TO.P,U2,14*
G04 #@! TO.N,Net-(R9-Pad2)*
X20844600Y10833000D03*
G04 #@! TO.P,U2,15*
G04 #@! TO.N,/PDM_DAT1*
X20844600Y11233000D03*
G04 #@! TO.P,U2,16*
G04 #@! TO.N,GND*
X20844600Y11633000D03*
G04 #@! TO.P,U2,17*
G04 #@! TO.N,/IN1_L_1*
X20844600Y12033000D03*
G04 #@! TO.P,U2,18*
G04 #@! TO.N,/IN1_R_1*
X20844600Y12433000D03*
G04 #@! TO.P,U2,19*
G04 #@! TO.N,/IN2_L_1*
X20844600Y12833000D03*
G04 #@! TO.P,U2,20*
G04 #@! TO.N,/IN2_R_1*
X20844600Y13233000D03*
D13*
G04 #@! TO.P,U2,21*
G04 #@! TO.N,GND*
X20144600Y13933000D03*
G04 #@! TO.P,U2,22*
G04 #@! TO.N,Net-(C11-Pad1)*
X19744600Y13933000D03*
G04 #@! TO.P,U2,23*
G04 #@! TO.N,/MICBIAS*
X19344600Y13933000D03*
G04 #@! TO.P,U2,24*
G04 #@! TO.N,Net-(C12-Pad1)*
X18944600Y13933000D03*
G04 #@! TO.P,U2,25*
G04 #@! TO.N,Net-(C13-Pad1)*
X18544600Y13933000D03*
G04 #@! TO.P,U2,26*
G04 #@! TO.N,/LOL_1*
X18144600Y13933000D03*
G04 #@! TO.P,U2,27*
G04 #@! TO.N,/LOR_1*
X17744600Y13933000D03*
G04 #@! TO.P,U2,28*
G04 #@! TO.N,GND*
X17344600Y13933000D03*
G04 #@! TO.P,U2,29*
G04 #@! TO.N,+1V8*
X16944600Y13933000D03*
G04 #@! TO.P,U2,30*
G04 #@! TO.N,+3V3*
X16544600Y13933000D03*
D14*
G04 #@! TO.P,U2,31*
G04 #@! TO.N,/HPL*
X15844600Y13233000D03*
G04 #@! TO.P,U2,32*
G04 #@! TO.N,+1V8*
X15844600Y12833000D03*
G04 #@! TO.P,U2,33*
G04 #@! TO.N,/HPR*
X15844600Y12433000D03*
G04 #@! TO.P,U2,34*
G04 #@! TO.N,/MICDET*
X15844600Y12033000D03*
G04 #@! TO.P,U2,35*
G04 #@! TO.N,Net-(C8-Pad1)*
X15844600Y11633000D03*
G04 #@! TO.P,U2,36*
G04 #@! TO.N,Net-(C2-Pad1)*
X15844600Y11233000D03*
G04 #@! TO.P,U2,37*
G04 #@! TO.N,GND*
X15844600Y10833000D03*
G04 #@! TO.P,U2,38*
G04 #@! TO.N,Net-(C2-Pad2)*
X15844600Y10433000D03*
G04 #@! TO.P,U2,39*
G04 #@! TO.N,+1V8*
X15844600Y10033000D03*
G04 #@! TO.P,U2,40*
X15844600Y9633000D03*
D15*
G04 #@! TO.P,U2,41*
G04 #@! TO.N,GND*
X19294600Y12383000D03*
X17394600Y12383000D03*
X19294600Y10483000D03*
X17394600Y10483000D03*
G04 #@! TD*
D16*
G04 #@! TO.P,J2,4*
G04 #@! TO.N,/MICDET*
X9350000Y24400000D03*
G04 #@! TO.P,J2,2*
G04 #@! TO.N,Net-(C12-Pad2)*
X4400000Y28300000D03*
D17*
G04 #@! TO.P,J2,3*
G04 #@! TO.N,Net-(C13-Pad2)*
X12800000Y35700000D03*
G04 #@! TO.P,J2,1*
G04 #@! TO.N,GND*
X4400000Y37700000D03*
G04 #@! TD*
D16*
G04 #@! TO.P,J1,2*
G04 #@! TO.N,Net-(J1-Pad2)*
X25200000Y28300000D03*
D17*
G04 #@! TO.P,J1,3*
G04 #@! TO.N,Net-(J1-Pad3)*
X33600000Y35700000D03*
G04 #@! TO.P,J1,1*
G04 #@! TO.N,GND*
X25200000Y37700000D03*
G04 #@! TD*
D18*
G04 #@! TO.P,C2,1*
G04 #@! TO.N,Net-(C2-Pad1)*
X14267900Y10560600D03*
G04 #@! TO.P,C2,2*
G04 #@! TO.N,Net-(C2-Pad2)*
X14267900Y9460600D03*
G04 #@! TD*
G04 #@! TO.P,C3,1*
G04 #@! TO.N,GND*
X14140900Y17532900D03*
G04 #@! TO.P,C3,2*
G04 #@! TO.N,+3V3*
X14140900Y16432900D03*
G04 #@! TD*
G04 #@! TO.P,C4,1*
G04 #@! TO.N,GND*
X22150000Y6400000D03*
G04 #@! TO.P,C4,2*
G04 #@! TO.N,+3V3*
X22150000Y7500000D03*
G04 #@! TD*
G04 #@! TO.P,C5,1*
G04 #@! TO.N,GND*
X24075000Y6400000D03*
G04 #@! TO.P,C5,2*
G04 #@! TO.N,+3V3*
X24075000Y7500000D03*
G04 #@! TD*
D10*
G04 #@! TO.P,C6,1*
G04 #@! TO.N,+1V8*
X14246400Y7330900D03*
G04 #@! TO.P,C6,2*
G04 #@! TO.N,GND*
X13146400Y7330900D03*
G04 #@! TD*
G04 #@! TO.P,C7,1*
G04 #@! TO.N,+1V8*
X14246400Y8308800D03*
G04 #@! TO.P,C7,2*
G04 #@! TO.N,GND*
X13146400Y8308800D03*
G04 #@! TD*
D18*
G04 #@! TO.P,C8,1*
G04 #@! TO.N,Net-(C8-Pad1)*
X13150300Y10560600D03*
G04 #@! TO.P,C8,2*
G04 #@! TO.N,GND*
X13150300Y9460600D03*
G04 #@! TD*
D10*
G04 #@! TO.P,C9,1*
G04 #@! TO.N,+1V8*
X14150000Y13800000D03*
G04 #@! TO.P,C9,2*
G04 #@! TO.N,GND*
X13050000Y13800000D03*
G04 #@! TD*
D18*
G04 #@! TO.P,C10,1*
G04 #@! TO.N,+1V8*
X15195000Y16432900D03*
G04 #@! TO.P,C10,2*
G04 #@! TO.N,GND*
X15195000Y17532900D03*
G04 #@! TD*
G04 #@! TO.P,C11,1*
G04 #@! TO.N,Net-(C11-Pad1)*
X20600000Y17050000D03*
G04 #@! TO.P,C11,2*
G04 #@! TO.N,GND*
X20600000Y15950000D03*
G04 #@! TD*
G04 #@! TO.P,C12,1*
G04 #@! TO.N,Net-(C12-Pad1)*
X18600000Y18950000D03*
G04 #@! TO.P,C12,2*
G04 #@! TO.N,Net-(C12-Pad2)*
X18600000Y20050000D03*
G04 #@! TD*
G04 #@! TO.P,C13,1*
G04 #@! TO.N,Net-(C13-Pad1)*
X17700000Y18950000D03*
G04 #@! TO.P,C13,2*
G04 #@! TO.N,Net-(C13-Pad2)*
X17700000Y20050000D03*
G04 #@! TD*
D10*
G04 #@! TO.P,C16,1*
G04 #@! TO.N,GND*
X34450000Y18750000D03*
G04 #@! TO.P,C16,2*
G04 #@! TO.N,+3V3*
X35550000Y18750000D03*
G04 #@! TD*
G04 #@! TO.P,C17,1*
G04 #@! TO.N,/IN2_L_1*
X34450000Y19750000D03*
G04 #@! TO.P,C17,2*
G04 #@! TO.N,Net-(C17-Pad2)*
X35550000Y19750000D03*
G04 #@! TD*
G04 #@! TO.P,C18,1*
G04 #@! TO.N,GND*
X2450000Y18750000D03*
G04 #@! TO.P,C18,2*
G04 #@! TO.N,+3V3*
X3550000Y18750000D03*
G04 #@! TD*
G04 #@! TO.P,C19,1*
G04 #@! TO.N,/IN2_R_1*
X3550000Y19750000D03*
G04 #@! TO.P,C19,2*
G04 #@! TO.N,Net-(C19-Pad2)*
X2450000Y19750000D03*
G04 #@! TD*
G04 #@! TO.P,C24,1*
G04 #@! TO.N,/IN1_L_1*
X10500000Y9650000D03*
G04 #@! TO.P,C24,2*
G04 #@! TO.N,Net-(C24-Pad2)*
X9400000Y9650000D03*
G04 #@! TD*
G04 #@! TO.P,C25,1*
G04 #@! TO.N,/LOL_1*
X10500000Y7100000D03*
G04 #@! TO.P,C25,2*
G04 #@! TO.N,Net-(C25-Pad2)*
X9400000Y7100000D03*
G04 #@! TD*
G04 #@! TO.P,C26,1*
G04 #@! TO.N,/LOR_1*
X10500000Y4550000D03*
G04 #@! TO.P,C26,2*
G04 #@! TO.N,Net-(C26-Pad2)*
X9400000Y4550000D03*
G04 #@! TD*
D19*
G04 #@! TO.P,P3,1*
G04 #@! TO.N,+3V3*
X36200000Y14700000D03*
D20*
G04 #@! TO.P,P3,2*
G04 #@! TO.N,/DOUT_1*
X36200000Y12160000D03*
G04 #@! TO.P,P3,3*
G04 #@! TO.N,/DIN_1*
X36200000Y9620000D03*
G04 #@! TO.P,P3,4*
G04 #@! TO.N,/SDA2*
X36200000Y7080000D03*
G04 #@! TO.P,P3,5*
G04 #@! TO.N,/SCL2*
X36200000Y4540000D03*
G04 #@! TO.P,P3,6*
G04 #@! TO.N,GND*
X36200000Y2000000D03*
G04 #@! TD*
D19*
G04 #@! TO.P,P4,1*
G04 #@! TO.N,/M_BIAS_1*
X4400000Y14700000D03*
D20*
G04 #@! TO.P,P4,2*
G04 #@! TO.N,/MCLK*
X4400000Y12160000D03*
G04 #@! TO.P,P4,3*
G04 #@! TO.N,/BCLK*
X4400000Y9620000D03*
G04 #@! TO.P,P4,4*
G04 #@! TO.N,/WCLK*
X4400000Y7080000D03*
G04 #@! TO.P,P4,5*
G04 #@! TO.N,/nRESET_1*
X4400000Y4540000D03*
G04 #@! TO.P,P4,6*
G04 #@! TO.N,GND*
X4400000Y2000000D03*
G04 #@! TD*
D19*
G04 #@! TO.P,P5,1*
G04 #@! TO.N,+1V8*
X7050000Y14700000D03*
D20*
G04 #@! TO.P,P5,2*
G04 #@! TO.N,Net-(C23-Pad2)*
X7050000Y12160000D03*
G04 #@! TO.P,P5,3*
G04 #@! TO.N,Net-(C24-Pad2)*
X7050000Y9620000D03*
G04 #@! TO.P,P5,4*
G04 #@! TO.N,Net-(C25-Pad2)*
X7050000Y7080000D03*
G04 #@! TO.P,P5,5*
G04 #@! TO.N,Net-(C26-Pad2)*
X7050000Y4540000D03*
G04 #@! TO.P,P5,6*
G04 #@! TO.N,GND*
X7050000Y2000000D03*
G04 #@! TD*
D21*
G04 #@! TO.P,U3,1*
G04 #@! TO.N,/MICBIAS*
X22650000Y18400000D03*
G04 #@! TO.P,U3,3*
G04 #@! TO.N,GND*
X22650000Y17100000D03*
G04 #@! TO.P,U3,2*
G04 #@! TO.N,Net-(R16-Pad2)*
X22650000Y17750000D03*
G04 #@! TO.P,U3,4*
G04 #@! TO.N,/M_BIAS_1*
X24550000Y17100000D03*
G04 #@! TO.P,U3,5*
G04 #@! TO.N,+3V3*
X24550000Y18400000D03*
G04 #@! TD*
D19*
G04 #@! TO.P,P2,1*
G04 #@! TO.N,/PDM_DAT*
X33550000Y14690000D03*
D20*
G04 #@! TO.P,P2,2*
G04 #@! TO.N,/PDM_CLK*
X33550000Y12150000D03*
G04 #@! TO.P,P2,3*
G04 #@! TO.N,/MISO_2*
X33550000Y9610000D03*
G04 #@! TO.P,P2,4*
G04 #@! TO.N,/MOSI_2*
X33550000Y7070000D03*
G04 #@! TO.P,P2,5*
G04 #@! TO.N,/SCK_2*
X33550000Y4530000D03*
G04 #@! TO.P,P2,6*
G04 #@! TO.N,/SS_2*
X33550000Y1990000D03*
G04 #@! TD*
G04 #@! TO.P,P1,6*
G04 #@! TO.N,GND*
X1750000Y2000000D03*
G04 #@! TO.P,P1,5*
G04 #@! TO.N,/LOR*
X1750000Y4540000D03*
G04 #@! TO.P,P1,4*
G04 #@! TO.N,/LOL*
X1750000Y7080000D03*
G04 #@! TO.P,P1,3*
G04 #@! TO.N,/IN1_L*
X1750000Y9620000D03*
G04 #@! TO.P,P1,2*
G04 #@! TO.N,/IN1_R*
X1750000Y12160000D03*
D19*
G04 #@! TO.P,P1,1*
G04 #@! TO.N,+1V8*
X1750000Y14700000D03*
G04 #@! TD*
D22*
G04 #@! TO.P,R2,2*
G04 #@! TO.N,Net-(R2-Pad2)*
X16175000Y7375000D03*
G04 #@! TO.P,R2,1*
G04 #@! TO.N,/nRESET_1*
X16175000Y6475000D03*
G04 #@! TD*
G04 #@! TO.P,R3,1*
G04 #@! TO.N,/BCLK*
X18075000Y6475000D03*
G04 #@! TO.P,R3,2*
G04 #@! TO.N,Net-(R3-Pad2)*
X18075000Y7375000D03*
G04 #@! TD*
G04 #@! TO.P,R4,2*
G04 #@! TO.N,Net-(R4-Pad2)*
X19025000Y7375000D03*
G04 #@! TO.P,R4,1*
G04 #@! TO.N,/WCLK*
X19025000Y6475000D03*
G04 #@! TD*
G04 #@! TO.P,R5,1*
G04 #@! TO.N,/DIN_1*
X19975000Y6475000D03*
G04 #@! TO.P,R5,2*
G04 #@! TO.N,Net-(R5-Pad2)*
X19975000Y7375000D03*
G04 #@! TD*
G04 #@! TO.P,R6,2*
G04 #@! TO.N,Net-(R6-Pad2)*
X20925000Y7375000D03*
G04 #@! TO.P,R6,1*
G04 #@! TO.N,/DOUT_1*
X20925000Y6475000D03*
G04 #@! TD*
G04 #@! TO.P,R7,1*
G04 #@! TO.N,/MCLK*
X17125000Y6475000D03*
G04 #@! TO.P,R7,2*
G04 #@! TO.N,Net-(R7-Pad2)*
X17125000Y7375000D03*
G04 #@! TD*
D23*
G04 #@! TO.P,R9,2*
G04 #@! TO.N,Net-(R9-Pad2)*
X22479300Y10900000D03*
G04 #@! TO.P,R9,1*
G04 #@! TO.N,/SDA2*
X23379300Y10900000D03*
G04 #@! TD*
G04 #@! TO.P,R10,1*
G04 #@! TO.N,/SCL2*
X23379300Y9947100D03*
G04 #@! TO.P,R10,2*
G04 #@! TO.N,Net-(R10-Pad2)*
X22479300Y9947100D03*
G04 #@! TD*
D22*
G04 #@! TO.P,R1,2*
G04 #@! TO.N,+3V3*
X22300000Y3250000D03*
G04 #@! TO.P,R1,1*
G04 #@! TO.N,/SDA2*
X22300000Y4150000D03*
G04 #@! TD*
G04 #@! TO.P,R8,1*
G04 #@! TO.N,+3V3*
X23350000Y3250000D03*
G04 #@! TO.P,R8,2*
G04 #@! TO.N,/SCL2*
X23350000Y4150000D03*
G04 #@! TD*
D20*
G04 #@! TO.P,P6,6*
G04 #@! TO.N,GND*
X30900000Y1990000D03*
G04 #@! TO.P,P6,5*
G04 #@! TO.N,/PDM_CLK1*
X30900000Y4530000D03*
G04 #@! TO.P,P6,4*
G04 #@! TO.N,/PDM_DAT1*
X30900000Y7070000D03*
G04 #@! TO.P,P6,3*
G04 #@! TO.N,/IN2_R_1*
X30900000Y9610000D03*
G04 #@! TO.P,P6,2*
G04 #@! TO.N,/IN2_L_1*
X30900000Y12150000D03*
D19*
G04 #@! TO.P,P6,1*
G04 #@! TO.N,+3V3*
X30900000Y14690000D03*
G04 #@! TD*
D24*
G04 #@! TO.N,GND*
X17000000Y15400000D03*
X36750000Y23600000D03*
X32250000Y22350000D03*
X1100000Y21050000D03*
X5600000Y22300000D03*
X19294600Y12383000D03*
X17394600Y12383000D03*
X24766379Y35718390D03*
X21550000Y17150000D03*
X20600000Y15200008D03*
X17394600Y10456090D03*
X19294600Y10456090D03*
G04 #@! TO.N,+3V3*
X36600000Y17700000D03*
X4400000Y17900000D03*
X24550000Y19299998D03*
X13343903Y16450000D03*
X23150000Y7500000D03*
X23350000Y2499998D03*
G04 #@! TO.N,+1V8*
X16100000Y16600000D03*
X13600000Y14500000D03*
X15200042Y7300000D03*
G04 #@! TO.N,Net-(C17-Pad2)*
X36500000Y20100000D03*
G04 #@! TO.N,Net-(C19-Pad2)*
X1300000Y19800000D03*
G04 #@! TO.N,Net-(J1-Pad3)*
X19500000Y31600000D03*
X31275000Y35000000D03*
G04 #@! TO.N,/MICDET*
X9400000Y22000000D03*
X12775003Y12500003D03*
G04 #@! TO.N,/BCLK*
X18175000Y5650000D03*
G04 #@! TO.N,/MCLK*
X17125000Y5650000D03*
G04 #@! TO.N,/WCLK*
X19075000Y5575000D03*
G04 #@! TO.N,/HPL*
X15050000Y14250000D03*
X15200000Y24500000D03*
G04 #@! TO.N,/HPR*
X14275000Y12700000D03*
X14275000Y25800000D03*
G04 #@! TO.N,Net-(R16-Pad2)*
X15900000Y18925000D03*
X21400000Y18300000D03*
G04 #@! TO.N,Net-(C12-Pad2)*
X6700000Y26800000D03*
X20175000Y22150000D03*
G04 #@! TO.N,Net-(C13-Pad2)*
X12200000Y33500000D03*
X11200000Y22100000D03*
G04 #@! TO.N,/nRESET_1*
X15950000Y3775000D03*
G04 #@! TO.N,/DIN_1*
X19975000Y5600000D03*
X22125000Y8350000D03*
G04 #@! TO.N,/DOUT_1*
X20925000Y5650000D03*
X24500000Y12200000D03*
G04 #@! TO.N,/SDA2*
X25350000Y5325000D03*
X25100000Y11424998D03*
G04 #@! TO.N,/SCL2*
X24376979Y4015460D03*
X24225000Y10425000D03*
G04 #@! TO.N,/M_BIAS_1*
X10450000Y13425000D03*
X24550000Y14875004D03*
G04 #@! TO.N,/IN2_L_1*
X28425002Y19775000D03*
X26700000Y13450000D03*
G04 #@! TO.N,/IN2_R_1*
X5400000Y19850000D03*
X21300000Y21400000D03*
X20850000Y14225000D03*
X21450000Y9100000D03*
G04 #@! TO.N,/IN1_R_1*
X10500000Y11300000D03*
X22125000Y12750000D03*
G04 #@! TO.N,/IN1_L_1*
X10550000Y10500000D03*
X23075000Y12749998D03*
G04 #@! TO.N,/LOL_1*
X17100000Y17550000D03*
X11875000Y17575000D03*
X11850000Y7150000D03*
G04 #@! TO.N,/LOR_1*
X17250000Y16500000D03*
X11275000Y15875000D03*
X11300000Y4500000D03*
G04 #@! TO.N,/PDM_CLK1*
X23775000Y8975000D03*
X25500000Y4100000D03*
G04 #@! TO.N,/PDM_DAT1*
X23150000Y11950000D03*
X25100000Y7125000D03*
G04 #@! TD*
D25*
G04 #@! TO.N,GND*
X17344600Y15055400D02*
X17344600Y13933000D01*
X17344600Y15055400D02*
X17000000Y15400000D01*
D26*
X20144600Y13933000D02*
X20144600Y14494600D01*
D25*
X17344600Y12433000D02*
X17394600Y12383000D01*
D27*
X13150300Y9460600D02*
X13150300Y8312700D01*
X13150300Y8312700D02*
X13146400Y8308800D01*
X15195000Y17532900D02*
X14140900Y17532900D01*
X13146400Y7330900D02*
X13146400Y8308800D01*
D25*
X16544600Y8933000D02*
X16944600Y8933000D01*
X20844600Y11633000D02*
X20044600Y11633000D01*
X20044600Y11633000D02*
X19294600Y12383000D01*
X20621800Y15979600D02*
X20605200Y15963000D01*
D26*
X25200000Y36152011D02*
X25066378Y36018389D01*
X25200000Y37700000D02*
X25200000Y36152011D01*
X25066378Y36018389D02*
X24766379Y35718390D01*
X21600000Y17100000D02*
X21550000Y17150000D01*
X22650000Y17100000D02*
X21600000Y17100000D01*
X20144600Y13933000D02*
X20144600Y14744608D01*
X20144600Y14744608D02*
X20300001Y14900009D01*
X20300001Y14900009D02*
X20600000Y15200008D01*
X20600000Y15200008D02*
X20600000Y15950000D01*
D25*
X17094601Y10156091D02*
X17394600Y10456090D01*
X17017690Y10833000D02*
X17094601Y10756089D01*
X16544600Y9606090D02*
X17094601Y10156091D01*
X19294600Y12383000D02*
X19294600Y10456090D01*
X16544600Y8933000D02*
X16544600Y9606090D01*
X20117690Y9633000D02*
X19594599Y10156091D01*
X17094601Y10756089D02*
X17394600Y10456090D01*
X20844600Y9633000D02*
X20117690Y9633000D01*
X16944600Y8933000D02*
X16944600Y10006090D01*
X19594599Y10156091D02*
X19294600Y10456090D01*
X17394600Y12383000D02*
X17394600Y10456090D01*
X16944600Y10006090D02*
X17094601Y10156091D01*
X15844600Y10833000D02*
X17017690Y10833000D01*
D26*
G04 #@! TO.N,+3V3*
X35550000Y18750000D02*
X36600000Y17700000D01*
X3550000Y18750000D02*
X4400000Y17900000D01*
D25*
X20144600Y8933000D02*
X20144600Y8671700D01*
X20144600Y8933000D02*
X20144600Y8786000D01*
X24550000Y18400000D02*
X24550000Y19299998D01*
X16544600Y13933000D02*
X14140900Y16336700D01*
X14140900Y16336700D02*
X14140900Y16432900D01*
D27*
X14140900Y16432900D02*
X14124300Y16449500D01*
D28*
X13361003Y16432900D02*
X13343903Y16450000D01*
X14140900Y16432900D02*
X13361003Y16432900D01*
D26*
X22300000Y3250000D02*
X23350000Y3250000D01*
X22150000Y7500000D02*
X22000000Y7500000D01*
X20567000Y8933000D02*
X20144600Y8933000D01*
X22000000Y7500000D02*
X20567000Y8933000D01*
D27*
X24075000Y7500000D02*
X23150000Y7500000D01*
X22150000Y7500000D02*
X23150000Y7500000D01*
D26*
X23350000Y3250000D02*
X23350000Y2499998D01*
D25*
G04 #@! TO.N,Net-(C2-Pad1)*
X15844600Y11233000D02*
X15337900Y11233000D01*
X14665500Y10560600D02*
X14267900Y10560600D01*
X15337900Y11233000D02*
X14665500Y10560600D01*
X14318000Y10610700D02*
X14267900Y10560600D01*
G04 #@! TO.N,Net-(C2-Pad2)*
X15844600Y10433000D02*
X15325300Y10433000D01*
X14695800Y9460600D02*
X14267900Y9460600D01*
X14966400Y9731200D02*
X14695800Y9460600D01*
X14966400Y10074100D02*
X14966400Y9731200D01*
X15325300Y10433000D02*
X14966400Y10074100D01*
D26*
G04 #@! TO.N,+1V8*
X15195000Y16432900D02*
X15932900Y16432900D01*
X15932900Y16432900D02*
X16100000Y16600000D01*
X14150000Y13800000D02*
X14150000Y13950000D01*
X14150000Y13950000D02*
X13600000Y14500000D01*
D25*
X15844600Y12833000D02*
X15117000Y12833000D01*
X15117000Y12833000D02*
X14150000Y13800000D01*
D27*
X14246400Y7330900D02*
X14191700Y7276200D01*
D26*
X14246400Y7330900D02*
X14246400Y8308800D01*
D25*
X15844600Y9633000D02*
X15566700Y9633000D01*
X15566700Y9633000D02*
X14966400Y9032700D01*
X14623500Y8308800D02*
X14246400Y8308800D01*
X14966400Y8651700D02*
X14623500Y8308800D01*
X14966400Y9032700D02*
X14966400Y8651700D01*
X16944600Y13933000D02*
X16944600Y14420500D01*
X16944600Y14420500D02*
X15195000Y16170100D01*
X15195000Y16170100D02*
X15195000Y16432900D01*
D26*
X14150000Y13800000D02*
X14209600Y13859600D01*
D25*
X15844600Y10033000D02*
X15844600Y9633000D01*
D26*
X14246400Y7330900D02*
X15169142Y7330900D01*
X15169142Y7330900D02*
X15200042Y7300000D01*
D25*
G04 #@! TO.N,Net-(C8-Pad1)*
X15844600Y11633000D02*
X15203608Y11633000D01*
X13150300Y10975800D02*
X13150300Y10560600D01*
X13378900Y11204400D02*
X13150300Y10975800D01*
X14775008Y11204400D02*
X13378900Y11204400D01*
X15203608Y11633000D02*
X14775008Y11204400D01*
D26*
G04 #@! TO.N,Net-(C11-Pad1)*
X19744600Y13933000D02*
X19744600Y16644600D01*
X20150000Y17050000D02*
X20600000Y17050000D01*
X19744600Y16644600D02*
X20150000Y17050000D01*
G04 #@! TO.N,Net-(C17-Pad2)*
X35900000Y20100000D02*
X35550000Y19750000D01*
X36500000Y20100000D02*
X35900000Y20100000D01*
G04 #@! TO.N,Net-(C19-Pad2)*
X1300000Y19800000D02*
X2400000Y19800000D01*
X2400000Y19800000D02*
X2450000Y19750000D01*
G04 #@! TO.N,Net-(J1-Pad3)*
X31275000Y35000000D02*
X32900000Y35000000D01*
X32900000Y35000000D02*
X33600000Y35700000D01*
X19550000Y27100000D02*
X19550000Y25800000D01*
D25*
X19550000Y31550000D02*
X19500000Y31600000D01*
X19550000Y27100000D02*
X19550000Y31550000D01*
G04 #@! TO.N,/MICDET*
X9400000Y22000000D02*
X9400000Y24350000D01*
X9400000Y24350000D02*
X9350000Y24400000D01*
X13242006Y12033000D02*
X13075002Y12200004D01*
X15844600Y12033000D02*
X13242006Y12033000D01*
X13075002Y12200004D02*
X12775003Y12500003D01*
D26*
G04 #@! TO.N,/BCLK*
X18175000Y6375000D02*
X18075000Y6475000D01*
X18175000Y5650000D02*
X18175000Y6375000D01*
G04 #@! TO.N,/MCLK*
X17125000Y5650000D02*
X17125000Y6448200D01*
G04 #@! TO.N,/WCLK*
X19025000Y5625000D02*
X19025000Y6475000D01*
X19075000Y5575000D02*
X19025000Y5625000D01*
D25*
G04 #@! TO.N,Net-(R2-Pad2)*
X16175000Y7775000D02*
X16175000Y7375000D01*
X16450000Y8050000D02*
X16175000Y7775000D01*
X17344600Y8469600D02*
X16925000Y8050000D01*
X16925000Y8050000D02*
X16450000Y8050000D01*
X17344600Y8933000D02*
X17344600Y8469600D01*
G04 #@! TO.N,Net-(R3-Pad2)*
X18075000Y7775000D02*
X18075000Y7375000D01*
X18544600Y8244600D02*
X18075000Y7775000D01*
X18544600Y8933000D02*
X18544600Y8244600D01*
G04 #@! TO.N,Net-(R4-Pad2)*
X18944600Y7455400D02*
X19025000Y7375000D01*
X18944600Y8933000D02*
X18944600Y7455400D01*
G04 #@! TO.N,Net-(R5-Pad2)*
X19975000Y7525000D02*
X19975000Y7375000D01*
X19344600Y8155400D02*
X19975000Y7525000D01*
X19344600Y8933000D02*
X19344600Y8155400D01*
G04 #@! TO.N,Net-(R6-Pad2)*
X20925000Y7725000D02*
X20925000Y7375000D01*
X20550000Y8100000D02*
X20925000Y7725000D01*
X20001200Y8100000D02*
X20550000Y8100000D01*
X19744600Y8356600D02*
X20001200Y8100000D01*
X19744600Y8933000D02*
X19744600Y8356600D01*
G04 #@! TO.N,Net-(R7-Pad2)*
X17450000Y7975000D02*
X17125000Y7650000D01*
X17675000Y7975000D02*
X17450000Y7975000D01*
X17125000Y7650000D02*
X17125000Y7375000D01*
X18144600Y8444600D02*
X17675000Y7975000D01*
X18144600Y8933000D02*
X18144600Y8444600D01*
G04 #@! TO.N,Net-(R9-Pad2)*
X22479300Y10900000D02*
X22580000Y10900000D01*
X22412300Y10833000D02*
X22479300Y10900000D01*
X20844600Y10833000D02*
X22412300Y10833000D01*
G04 #@! TO.N,Net-(R10-Pad2)*
X22268900Y9947100D02*
X22479300Y9947100D01*
X21783000Y10433000D02*
X22268900Y9947100D01*
X20844600Y10433000D02*
X21783000Y10433000D01*
G04 #@! TO.N,/HPL*
X15844600Y13233000D02*
X15050000Y14027600D01*
X15050000Y14027600D02*
X15050000Y14250000D01*
D26*
X18050000Y24500000D02*
X15200000Y24500000D01*
G04 #@! TO.N,Net-(J1-Pad2)*
X19550000Y23200000D02*
X19575000Y23225000D01*
X25175000Y28325000D02*
X25200000Y28300000D01*
X19550000Y24500000D02*
X19550000Y23200000D01*
D25*
X24025000Y27850000D02*
X24750000Y27850000D01*
X24750000Y27850000D02*
X25200000Y28300000D01*
X20675000Y24500000D02*
X24025000Y27850000D01*
X19550000Y24500000D02*
X20675000Y24500000D01*
G04 #@! TO.N,/HPR*
X14542000Y12433000D02*
X14275000Y12700000D01*
X14542000Y12433000D02*
X15844600Y12433000D01*
D26*
X18050000Y25800000D02*
X14275000Y25800000D01*
D25*
G04 #@! TO.N,/MICBIAS*
X20175000Y19750000D02*
X19344600Y18919600D01*
X19344600Y18109200D02*
X19344600Y13933000D01*
X19344600Y18919600D02*
X19344600Y18109200D01*
D26*
X20175000Y19750000D02*
X21675000Y19750000D01*
X22650000Y18775000D02*
X22650000Y18400000D01*
X21675000Y19750000D02*
X22650000Y18775000D01*
D28*
G04 #@! TO.N,Net-(C23-Pad2)*
X7065000Y12175000D02*
X7050000Y12160000D01*
X9400000Y12175000D02*
X7065000Y12175000D01*
G04 #@! TO.N,Net-(C24-Pad2)*
X7080000Y9650000D02*
X7050000Y9620000D01*
X9400000Y9650000D02*
X7080000Y9650000D01*
G04 #@! TO.N,Net-(C25-Pad2)*
X7070000Y7100000D02*
X7050000Y7080000D01*
X9400000Y7100000D02*
X7070000Y7100000D01*
G04 #@! TO.N,Net-(C26-Pad2)*
X7060000Y4550000D02*
X7050000Y4540000D01*
X9400000Y4550000D02*
X7060000Y4550000D01*
D26*
G04 #@! TO.N,Net-(R16-Pad2)*
X14800000Y19825000D02*
X15000000Y19825000D01*
X15000000Y19825000D02*
X15900000Y18925000D01*
D25*
X14736200Y19761200D02*
X14800000Y19825000D01*
X21950000Y17750000D02*
X21699999Y18000001D01*
X22650000Y17750000D02*
X21950000Y17750000D01*
X21699999Y18000001D02*
X21400000Y18300000D01*
D26*
G04 #@! TO.N,/PDM_CLK*
X33490000Y12225000D02*
X33500000Y12235000D01*
G04 #@! TO.N,Net-(C12-Pad1)*
X18944600Y13933000D02*
X18944600Y18605400D01*
X18944600Y18605400D02*
X18600000Y18950000D01*
G04 #@! TO.N,Net-(C13-Pad1)*
X18544600Y13933000D02*
X18544600Y17605400D01*
X17700000Y18450000D02*
X17700000Y18950000D01*
X18544600Y17605400D02*
X17700000Y18450000D01*
G04 #@! TO.N,Net-(C12-Pad2)*
X6700000Y26800000D02*
X5200000Y28300000D01*
X5200000Y28300000D02*
X4400000Y28300000D01*
X5450000Y28300000D02*
X4400000Y28300000D01*
D27*
X20175000Y21250000D02*
X20044800Y21380200D01*
D25*
X19622200Y21250000D02*
X20175000Y21250000D01*
X18600000Y20527800D02*
X19322200Y21250000D01*
X19322200Y21250000D02*
X19622200Y21250000D01*
X18600000Y20050000D02*
X18600000Y20527800D01*
D26*
X20175000Y21250000D02*
X20175000Y22150000D01*
G04 #@! TO.N,Net-(C13-Pad2)*
X17700000Y20050000D02*
X16800000Y20050000D01*
D25*
X11975000Y21325000D02*
X11200000Y22100000D01*
X11975000Y21325000D02*
X14800000Y21325000D01*
X12800000Y34100000D02*
X12800000Y35700000D01*
X12200000Y33500000D02*
X12800000Y34100000D01*
D26*
X13475000Y35025000D02*
X12800000Y35700000D01*
D27*
X14800000Y21325000D02*
X14866700Y21391700D01*
D25*
X15525000Y21325000D02*
X14800000Y21325000D01*
X16800000Y20050000D02*
X15525000Y21325000D01*
D28*
G04 #@! TO.N,/nRESET_1*
X16175000Y4000000D02*
X15950000Y3775000D01*
X16175000Y6475000D02*
X16175000Y4000000D01*
G04 #@! TO.N,/DIN_1*
X35350001Y8870001D02*
X36200000Y9720000D01*
D26*
X19975000Y6475000D02*
X19975000Y5600000D01*
X22549264Y8350000D02*
X22125000Y8350000D01*
X34830000Y8350000D02*
X22549264Y8350000D01*
X35350001Y8870001D02*
X34830000Y8350000D01*
D28*
G04 #@! TO.N,/DOUT_1*
X35350001Y11410001D02*
X36200000Y12260000D01*
D26*
X20925000Y6475000D02*
X20925000Y5650000D01*
X25800000Y12200000D02*
X24924264Y12200000D01*
X35350001Y11410001D02*
X34840000Y10900000D01*
X27100000Y10900000D02*
X25800000Y12200000D01*
X34840000Y10900000D02*
X27100000Y10900000D01*
X24924264Y12200000D02*
X24500000Y12200000D01*
G04 #@! TO.N,/SDA2*
X23379300Y10900000D02*
X23454300Y10825000D01*
D28*
X22300000Y4150000D02*
X22400000Y4150000D01*
D26*
X24925736Y5325000D02*
X25350000Y5325000D01*
X22400000Y4150000D02*
X23575000Y5325000D01*
X23575000Y5325000D02*
X24925736Y5325000D01*
X25649999Y5624999D02*
X25350000Y5325000D01*
X34795000Y5775000D02*
X25800000Y5775000D01*
X25800000Y5775000D02*
X25649999Y5624999D01*
X36200000Y7180000D02*
X34795000Y5775000D01*
D28*
X25099998Y11425000D02*
X25100000Y11424998D01*
X24075000Y11425000D02*
X25099998Y11425000D01*
X23475000Y10825000D02*
X24075000Y11425000D01*
X23454300Y10825000D02*
X23475000Y10825000D01*
D26*
G04 #@! TO.N,/SCL2*
X23350000Y4150000D02*
X24474986Y4150000D01*
X24501245Y4015460D02*
X24376979Y4015460D01*
X25216705Y3300000D02*
X24501245Y4015460D01*
X36200000Y4640000D02*
X34860000Y3300000D01*
D28*
X24474986Y4150000D02*
X24376979Y4051993D01*
D26*
X34860000Y3300000D02*
X25216705Y3300000D01*
D28*
X24376979Y4051993D02*
X24376979Y4015460D01*
X24225000Y10342800D02*
X24225000Y10425000D01*
X23829300Y9947100D02*
X24225000Y10342800D01*
X23379300Y9947100D02*
X23829300Y9947100D01*
D26*
G04 #@! TO.N,/M_BIAS_1*
X5675000Y13425000D02*
X4400000Y14700000D01*
X10450000Y13425000D02*
X5675000Y13425000D01*
X24550000Y17100000D02*
X24550000Y14875004D01*
G04 #@! TO.N,/IN2_L_1*
X34450000Y19750000D02*
X28450002Y19750000D01*
X28450002Y19750000D02*
X28425002Y19775000D01*
X21372228Y12833000D02*
X21989228Y13450000D01*
X26275736Y13450000D02*
X26700000Y13450000D01*
X21989228Y13450000D02*
X26275736Y13450000D01*
X20844600Y12833000D02*
X21372228Y12833000D01*
G04 #@! TO.N,/IN2_R_1*
X3550000Y19750000D02*
X5300000Y19750000D01*
X5300000Y19750000D02*
X5400000Y19850000D01*
X20844600Y14219600D02*
X20850000Y14225000D01*
X20844600Y13233000D02*
X20844600Y14219600D01*
D28*
G04 #@! TO.N,/IN1_R_1*
X10500000Y12175000D02*
X10500000Y11300000D01*
D25*
X20844600Y12433000D02*
X21808000Y12433000D01*
X21808000Y12433000D02*
X21825001Y12450001D01*
X21825001Y12450001D02*
X22125000Y12750000D01*
D28*
G04 #@! TO.N,/IN1_L_1*
X10500000Y10450000D02*
X10550000Y10500000D01*
X10500000Y9650000D02*
X10500000Y10450000D01*
D26*
X21423011Y12033211D02*
X22358213Y12033211D01*
X20844600Y12033000D02*
X21422800Y12033000D01*
X21422800Y12033000D02*
X21423011Y12033211D01*
X22775001Y12449999D02*
X23075000Y12749998D01*
X22358213Y12033211D02*
X22775001Y12449999D01*
D25*
G04 #@! TO.N,/LOL_1*
X18144600Y13933000D02*
X18144600Y16505400D01*
X18144600Y16505400D02*
X17100000Y17550000D01*
D28*
X11800000Y7100000D02*
X11850000Y7150000D01*
X10500000Y7100000D02*
X11800000Y7100000D01*
D25*
G04 #@! TO.N,/LOR_1*
X17744600Y13933000D02*
X17744600Y16005400D01*
X17744600Y16005400D02*
X17250000Y16500000D01*
D28*
X11250000Y4550000D02*
X11300000Y4500000D01*
X10500000Y4550000D02*
X11250000Y4550000D01*
D26*
G04 #@! TO.N,/PDM_CLK1*
X21422800Y10033000D02*
X21750000Y9705800D01*
X20844600Y10033000D02*
X21422800Y10033000D01*
X22480800Y8975000D02*
X23775000Y8975000D01*
X21750000Y9705800D02*
X22480800Y8975000D01*
G04 #@! TO.N,/PDM_DAT1*
X22850000Y11650000D02*
X23150000Y11950000D01*
X21825000Y11650000D02*
X22850000Y11650000D01*
X21408000Y11233000D02*
X21825000Y11650000D01*
X20844600Y11233000D02*
X21408000Y11233000D01*
G04 #@! TD*
D29*
G04 #@! TO.N,GND*
G36*
X23160197Y39539803D02*
X23132667Y39498601D01*
X23123000Y39450000D01*
X23123000Y35200000D01*
X23132970Y35150676D01*
X23160753Y35109645D01*
X23202124Y35082370D01*
X23250784Y35073002D01*
X27300784Y35098002D01*
X27348601Y35107667D01*
X27389803Y35135197D01*
X27389978Y35135459D01*
X30594000Y35135459D01*
X30594000Y34864541D01*
X30697676Y34614244D01*
X30889244Y34422676D01*
X31139541Y34319000D01*
X31410459Y34319000D01*
X31660756Y34422676D01*
X31755480Y34517400D01*
X31827966Y34517400D01*
X31841106Y34451341D01*
X31925314Y34325314D01*
X32051341Y34241106D01*
X32200000Y34211536D01*
X35000000Y34211536D01*
X35148659Y34241106D01*
X35274686Y34325314D01*
X35358894Y34451341D01*
X35388464Y34600000D01*
X35388464Y36800000D01*
X35358894Y36948659D01*
X35274686Y37074686D01*
X35148659Y37158894D01*
X35000000Y37188464D01*
X32200000Y37188464D01*
X32051341Y37158894D01*
X31925314Y37074686D01*
X31841106Y36948659D01*
X31811536Y36800000D01*
X31811536Y35482600D01*
X31755480Y35482600D01*
X31660756Y35577324D01*
X31410459Y35681000D01*
X31139541Y35681000D01*
X30889244Y35577324D01*
X30697676Y35385756D01*
X30594000Y35135459D01*
X27389978Y35135459D01*
X27417333Y35176399D01*
X27427000Y35225000D01*
X27427000Y36844861D01*
X28169000Y36844861D01*
X28169000Y36355139D01*
X28356408Y35902694D01*
X28702694Y35556408D01*
X29155139Y35369000D01*
X29644861Y35369000D01*
X30097306Y35556408D01*
X30443592Y35902694D01*
X30631000Y36355139D01*
X30631000Y36844861D01*
X30443592Y37297306D01*
X30097306Y37643592D01*
X29644861Y37831000D01*
X29155139Y37831000D01*
X28702694Y37643592D01*
X28356408Y37297306D01*
X28169000Y36844861D01*
X27427000Y36844861D01*
X27427000Y39475000D01*
X27417030Y39524324D01*
X27403707Y39544000D01*
X36099630Y39544000D01*
X36104960Y39541389D01*
X36178489Y39524346D01*
X36621546Y39457736D01*
X36960246Y39295094D01*
X37236147Y39040054D01*
X37424860Y38715161D01*
X37515761Y38322987D01*
X37519371Y38231115D01*
X37544001Y38102001D01*
X37544000Y1900370D01*
X37541389Y1895040D01*
X37524346Y1821511D01*
X37457736Y1378454D01*
X37295094Y1039754D01*
X37040054Y763853D01*
X36715162Y575141D01*
X36322983Y484239D01*
X36231115Y480629D01*
X36102007Y456000D01*
X1900370Y456000D01*
X1895040Y458611D01*
X1821511Y475654D01*
X1378454Y542264D01*
X1039754Y704906D01*
X763853Y959946D01*
X575141Y1284838D01*
X484239Y1677017D01*
X484004Y1683020D01*
X560511Y1683020D01*
X684755Y1383036D01*
X1001944Y1022348D01*
X1433018Y810499D01*
X1623000Y870807D01*
X1623000Y1873000D01*
X1877000Y1873000D01*
X1877000Y870807D01*
X2066982Y810499D01*
X2498056Y1022348D01*
X2815245Y1383036D01*
X2939489Y1683020D01*
X3210511Y1683020D01*
X3334755Y1383036D01*
X3651944Y1022348D01*
X4083018Y810499D01*
X4273000Y870807D01*
X4273000Y1873000D01*
X4527000Y1873000D01*
X4527000Y870807D01*
X4716982Y810499D01*
X5148056Y1022348D01*
X5465245Y1383036D01*
X5589489Y1683020D01*
X5860511Y1683020D01*
X5984755Y1383036D01*
X6301944Y1022348D01*
X6733018Y810499D01*
X6923000Y870807D01*
X6923000Y1873000D01*
X7177000Y1873000D01*
X7177000Y870807D01*
X7366982Y810499D01*
X7798056Y1022348D01*
X8115245Y1383036D01*
X8235347Y1673020D01*
X29710511Y1673020D01*
X29834755Y1373036D01*
X30151944Y1012348D01*
X30583018Y800499D01*
X30773000Y860807D01*
X30773000Y1863000D01*
X31027000Y1863000D01*
X31027000Y860807D01*
X31216982Y800499D01*
X31648056Y1012348D01*
X31965245Y1373036D01*
X32089489Y1673020D01*
X32028627Y1863000D01*
X31027000Y1863000D01*
X30773000Y1863000D01*
X29771373Y1863000D01*
X29710511Y1673020D01*
X8235347Y1673020D01*
X8239489Y1683020D01*
X8178627Y1873000D01*
X7177000Y1873000D01*
X6923000Y1873000D01*
X5921373Y1873000D01*
X5860511Y1683020D01*
X5589489Y1683020D01*
X5528627Y1873000D01*
X4527000Y1873000D01*
X4273000Y1873000D01*
X3271373Y1873000D01*
X3210511Y1683020D01*
X2939489Y1683020D01*
X2878627Y1873000D01*
X1877000Y1873000D01*
X1623000Y1873000D01*
X621373Y1873000D01*
X560511Y1683020D01*
X484004Y1683020D01*
X480629Y1768885D01*
X456000Y1897993D01*
X456000Y2316980D01*
X560511Y2316980D01*
X621373Y2127000D01*
X1623000Y2127000D01*
X1623000Y3129193D01*
X1877000Y3129193D01*
X1877000Y2127000D01*
X2878627Y2127000D01*
X2939489Y2316980D01*
X3210511Y2316980D01*
X3271373Y2127000D01*
X4273000Y2127000D01*
X4273000Y3129193D01*
X4527000Y3129193D01*
X4527000Y2127000D01*
X5528627Y2127000D01*
X5589489Y2316980D01*
X5860511Y2316980D01*
X5921373Y2127000D01*
X6923000Y2127000D01*
X6923000Y3129193D01*
X7177000Y3129193D01*
X7177000Y2127000D01*
X8178627Y2127000D01*
X8239489Y2316980D01*
X8115245Y2616964D01*
X7798056Y2977652D01*
X7366982Y3189501D01*
X7177000Y3129193D01*
X6923000Y3129193D01*
X6733018Y3189501D01*
X6301944Y2977652D01*
X5984755Y2616964D01*
X5860511Y2316980D01*
X5589489Y2316980D01*
X5465245Y2616964D01*
X5148056Y2977652D01*
X4716982Y3189501D01*
X4527000Y3129193D01*
X4273000Y3129193D01*
X4083018Y3189501D01*
X3651944Y2977652D01*
X3334755Y2616964D01*
X3210511Y2316980D01*
X2939489Y2316980D01*
X2815245Y2616964D01*
X2498056Y2977652D01*
X2066982Y3189501D01*
X1877000Y3129193D01*
X1623000Y3129193D01*
X1433018Y3189501D01*
X1001944Y2977652D01*
X684755Y2616964D01*
X560511Y2316980D01*
X456000Y2316980D01*
X456000Y4540000D01*
X494884Y4540000D01*
X590424Y4059688D01*
X862499Y3652499D01*
X1269688Y3380424D01*
X1628761Y3309000D01*
X1871239Y3309000D01*
X2230312Y3380424D01*
X2637501Y3652499D01*
X2909576Y4059688D01*
X3005116Y4540000D01*
X3144884Y4540000D01*
X3240424Y4059688D01*
X3512499Y3652499D01*
X3919688Y3380424D01*
X4278761Y3309000D01*
X4521239Y3309000D01*
X4880312Y3380424D01*
X5287501Y3652499D01*
X5559576Y4059688D01*
X5655116Y4540000D01*
X5794884Y4540000D01*
X5890424Y4059688D01*
X6162499Y3652499D01*
X6569688Y3380424D01*
X6928761Y3309000D01*
X7171239Y3309000D01*
X7530312Y3380424D01*
X7937501Y3652499D01*
X8199094Y4044000D01*
X8812828Y4044000D01*
X8825314Y4025314D01*
X8951341Y3941106D01*
X9100000Y3911536D01*
X9700000Y3911536D01*
X9848659Y3941106D01*
X9950000Y4008819D01*
X10051341Y3941106D01*
X10200000Y3911536D01*
X10800000Y3911536D01*
X10904582Y3932338D01*
X10914244Y3922676D01*
X11164541Y3819000D01*
X11435459Y3819000D01*
X11685756Y3922676D01*
X11877324Y4114244D01*
X11981000Y4364541D01*
X11981000Y4635459D01*
X11877324Y4885756D01*
X11685756Y5077324D01*
X11435459Y5181000D01*
X11164541Y5181000D01*
X11010850Y5117339D01*
X10948659Y5158894D01*
X10800000Y5188464D01*
X10200000Y5188464D01*
X10051341Y5158894D01*
X9950000Y5091181D01*
X9848659Y5158894D01*
X9700000Y5188464D01*
X9100000Y5188464D01*
X8951341Y5158894D01*
X8825314Y5074686D01*
X8812828Y5056000D01*
X8185730Y5056000D01*
X7937501Y5427501D01*
X7530312Y5699576D01*
X7171239Y5771000D01*
X6928761Y5771000D01*
X6569688Y5699576D01*
X6162499Y5427501D01*
X5890424Y5020312D01*
X5794884Y4540000D01*
X5655116Y4540000D01*
X5559576Y5020312D01*
X5287501Y5427501D01*
X4880312Y5699576D01*
X4521239Y5771000D01*
X4278761Y5771000D01*
X3919688Y5699576D01*
X3512499Y5427501D01*
X3240424Y5020312D01*
X3144884Y4540000D01*
X3005116Y4540000D01*
X2909576Y5020312D01*
X2637501Y5427501D01*
X2230312Y5699576D01*
X1871239Y5771000D01*
X1628761Y5771000D01*
X1269688Y5699576D01*
X862499Y5427501D01*
X590424Y5020312D01*
X494884Y4540000D01*
X456000Y4540000D01*
X456000Y7080000D01*
X494884Y7080000D01*
X590424Y6599688D01*
X862499Y6192499D01*
X1269688Y5920424D01*
X1628761Y5849000D01*
X1871239Y5849000D01*
X2230312Y5920424D01*
X2637501Y6192499D01*
X2909576Y6599688D01*
X3005116Y7080000D01*
X3144884Y7080000D01*
X3240424Y6599688D01*
X3512499Y6192499D01*
X3919688Y5920424D01*
X4278761Y5849000D01*
X4521239Y5849000D01*
X4880312Y5920424D01*
X5287501Y6192499D01*
X5559576Y6599688D01*
X5655116Y7080000D01*
X5794884Y7080000D01*
X5890424Y6599688D01*
X6162499Y6192499D01*
X6569688Y5920424D01*
X6928761Y5849000D01*
X7171239Y5849000D01*
X7530312Y5920424D01*
X7937501Y6192499D01*
X8205775Y6594000D01*
X8812828Y6594000D01*
X8825314Y6575314D01*
X8951341Y6491106D01*
X9100000Y6461536D01*
X9700000Y6461536D01*
X9848659Y6491106D01*
X9950000Y6558819D01*
X10051341Y6491106D01*
X10200000Y6461536D01*
X10800000Y6461536D01*
X10948659Y6491106D01*
X11074686Y6575314D01*
X11087172Y6594000D01*
X11442920Y6594000D01*
X11464244Y6572676D01*
X11714541Y6469000D01*
X11985459Y6469000D01*
X12235756Y6572676D01*
X12427324Y6764244D01*
X12496248Y6930642D01*
X12523404Y6865081D01*
X12630580Y6757904D01*
X12770614Y6699900D01*
X12924150Y6699900D01*
X13019400Y6795150D01*
X13019400Y7205900D01*
X12999400Y7205900D01*
X12999400Y7455900D01*
X13019400Y7455900D01*
X13019400Y8183800D01*
X12560650Y8183800D01*
X12465400Y8088550D01*
X12465400Y7983015D01*
X12523404Y7842981D01*
X12546535Y7819850D01*
X12523404Y7796719D01*
X12465400Y7656685D01*
X12465400Y7551150D01*
X12558648Y7457902D01*
X12465400Y7457902D01*
X12465400Y7443832D01*
X12427324Y7535756D01*
X12235756Y7727324D01*
X11985459Y7831000D01*
X11714541Y7831000D01*
X11464244Y7727324D01*
X11342920Y7606000D01*
X11087172Y7606000D01*
X11074686Y7624686D01*
X10948659Y7708894D01*
X10800000Y7738464D01*
X10200000Y7738464D01*
X10051341Y7708894D01*
X9950000Y7641181D01*
X9848659Y7708894D01*
X9700000Y7738464D01*
X9100000Y7738464D01*
X8951341Y7708894D01*
X8825314Y7624686D01*
X8812828Y7606000D01*
X8179048Y7606000D01*
X7937501Y7967501D01*
X7530312Y8239576D01*
X7171239Y8311000D01*
X6928761Y8311000D01*
X6569688Y8239576D01*
X6162499Y7967501D01*
X5890424Y7560312D01*
X5794884Y7080000D01*
X5655116Y7080000D01*
X5559576Y7560312D01*
X5287501Y7967501D01*
X4880312Y8239576D01*
X4521239Y8311000D01*
X4278761Y8311000D01*
X3919688Y8239576D01*
X3512499Y7967501D01*
X3240424Y7560312D01*
X3144884Y7080000D01*
X3005116Y7080000D01*
X2909576Y7560312D01*
X2637501Y7967501D01*
X2230312Y8239576D01*
X1871239Y8311000D01*
X1628761Y8311000D01*
X1269688Y8239576D01*
X862499Y7967501D01*
X590424Y7560312D01*
X494884Y7080000D01*
X456000Y7080000D01*
X456000Y9620000D01*
X494884Y9620000D01*
X590424Y9139688D01*
X862499Y8732499D01*
X1269688Y8460424D01*
X1628761Y8389000D01*
X1871239Y8389000D01*
X2230312Y8460424D01*
X2637501Y8732499D01*
X2909576Y9139688D01*
X3005116Y9620000D01*
X3144884Y9620000D01*
X3240424Y9139688D01*
X3512499Y8732499D01*
X3919688Y8460424D01*
X4278761Y8389000D01*
X4521239Y8389000D01*
X4880312Y8460424D01*
X5287501Y8732499D01*
X5559576Y9139688D01*
X5655116Y9620000D01*
X5559576Y10100312D01*
X5287501Y10507501D01*
X4880312Y10779576D01*
X4521239Y10851000D01*
X4278761Y10851000D01*
X3919688Y10779576D01*
X3512499Y10507501D01*
X3240424Y10100312D01*
X3144884Y9620000D01*
X3005116Y9620000D01*
X2909576Y10100312D01*
X2637501Y10507501D01*
X2230312Y10779576D01*
X1871239Y10851000D01*
X1628761Y10851000D01*
X1269688Y10779576D01*
X862499Y10507501D01*
X590424Y10100312D01*
X494884Y9620000D01*
X456000Y9620000D01*
X456000Y12160000D01*
X494884Y12160000D01*
X590424Y11679688D01*
X862499Y11272499D01*
X1269688Y11000424D01*
X1628761Y10929000D01*
X1871239Y10929000D01*
X2230312Y11000424D01*
X2637501Y11272499D01*
X2909576Y11679688D01*
X3005116Y12160000D01*
X3144884Y12160000D01*
X3240424Y11679688D01*
X3512499Y11272499D01*
X3919688Y11000424D01*
X4278761Y10929000D01*
X4521239Y10929000D01*
X4880312Y11000424D01*
X5287501Y11272499D01*
X5559576Y11679688D01*
X5655116Y12160000D01*
X5559576Y12640312D01*
X5287501Y13047501D01*
X4880312Y13319576D01*
X4521239Y13391000D01*
X4278761Y13391000D01*
X3919688Y13319576D01*
X3512499Y13047501D01*
X3240424Y12640312D01*
X3144884Y12160000D01*
X3005116Y12160000D01*
X2909576Y12640312D01*
X2637501Y13047501D01*
X2230312Y13319576D01*
X1871239Y13391000D01*
X1628761Y13391000D01*
X1269688Y13319576D01*
X862499Y13047501D01*
X590424Y12640312D01*
X494884Y12160000D01*
X456000Y12160000D01*
X456000Y15550000D01*
X511536Y15550000D01*
X511536Y13850000D01*
X541106Y13701341D01*
X625314Y13575314D01*
X751341Y13491106D01*
X900000Y13461536D01*
X2600000Y13461536D01*
X2748659Y13491106D01*
X2874686Y13575314D01*
X2958894Y13701341D01*
X2988464Y13850000D01*
X2988464Y15550000D01*
X3161536Y15550000D01*
X3161536Y13850000D01*
X3191106Y13701341D01*
X3275314Y13575314D01*
X3401341Y13491106D01*
X3550000Y13461536D01*
X4955965Y13461536D01*
X5300140Y13117361D01*
X5327065Y13077065D01*
X5486699Y12970401D01*
X5627471Y12942400D01*
X5674999Y12932946D01*
X5722527Y12942400D01*
X6092273Y12942400D01*
X5890424Y12640312D01*
X5794884Y12160000D01*
X5890424Y11679688D01*
X6162499Y11272499D01*
X6569688Y11000424D01*
X6928761Y10929000D01*
X7171239Y10929000D01*
X7530312Y11000424D01*
X7937501Y11272499D01*
X8202435Y11669000D01*
X8812828Y11669000D01*
X8825314Y11650314D01*
X8951341Y11566106D01*
X9100000Y11536536D01*
X9700000Y11536536D01*
X9848659Y11566106D01*
X9882475Y11588701D01*
X9819000Y11435459D01*
X9819000Y11164541D01*
X9922676Y10914244D01*
X9966375Y10870545D01*
X9869000Y10635459D01*
X9869000Y10364541D01*
X9937290Y10199673D01*
X9848659Y10258894D01*
X9700000Y10288464D01*
X9100000Y10288464D01*
X8951341Y10258894D01*
X8825314Y10174686D01*
X8812828Y10156000D01*
X8172366Y10156000D01*
X7937501Y10507501D01*
X7530312Y10779576D01*
X7171239Y10851000D01*
X6928761Y10851000D01*
X6569688Y10779576D01*
X6162499Y10507501D01*
X5890424Y10100312D01*
X5794884Y9620000D01*
X5890424Y9139688D01*
X6162499Y8732499D01*
X6569688Y8460424D01*
X6928761Y8389000D01*
X7171239Y8389000D01*
X7530312Y8460424D01*
X7790962Y8634585D01*
X12465400Y8634585D01*
X12465400Y8529050D01*
X12560650Y8433800D01*
X13019400Y8433800D01*
X13019400Y8844550D01*
X13007200Y8856750D01*
X13025300Y8874850D01*
X13025300Y9333600D01*
X12614550Y9333600D01*
X12519300Y9238350D01*
X12519300Y9084814D01*
X12577304Y8944780D01*
X12637445Y8884640D01*
X12630580Y8881796D01*
X12523404Y8774619D01*
X12465400Y8634585D01*
X7790962Y8634585D01*
X7937501Y8732499D01*
X8209576Y9139688D01*
X8210434Y9144000D01*
X8812828Y9144000D01*
X8825314Y9125314D01*
X8951341Y9041106D01*
X9100000Y9011536D01*
X9700000Y9011536D01*
X9848659Y9041106D01*
X9950000Y9108819D01*
X10051341Y9041106D01*
X10200000Y9011536D01*
X10800000Y9011536D01*
X10948659Y9041106D01*
X11074686Y9125314D01*
X11158894Y9251341D01*
X11188464Y9400000D01*
X11188464Y9900000D01*
X11158894Y10048659D01*
X11119979Y10106899D01*
X11127324Y10114244D01*
X11231000Y10364541D01*
X11231000Y10635459D01*
X11127324Y10885756D01*
X11083625Y10929455D01*
X11181000Y11164541D01*
X11181000Y11435459D01*
X11085377Y11666314D01*
X11158894Y11776341D01*
X11188464Y11925000D01*
X11188464Y12425000D01*
X11158894Y12573659D01*
X11074686Y12699686D01*
X10948659Y12783894D01*
X10800000Y12813464D01*
X10753161Y12813464D01*
X10835756Y12847676D01*
X11027324Y13039244D01*
X11131000Y13289541D01*
X11131000Y13560459D01*
X11027324Y13810756D01*
X10835756Y14002324D01*
X10585459Y14106000D01*
X10314541Y14106000D01*
X10064244Y14002324D01*
X9969520Y13907600D01*
X8288464Y13907600D01*
X8288464Y15550000D01*
X8258894Y15698659D01*
X8174686Y15824686D01*
X8048659Y15908894D01*
X7900000Y15938464D01*
X6200000Y15938464D01*
X6051341Y15908894D01*
X5925314Y15824686D01*
X5841106Y15698659D01*
X5811536Y15550000D01*
X5811536Y13970963D01*
X5638464Y14144035D01*
X5638464Y15550000D01*
X5608894Y15698659D01*
X5524686Y15824686D01*
X5398659Y15908894D01*
X5250000Y15938464D01*
X3550000Y15938464D01*
X3401341Y15908894D01*
X3275314Y15824686D01*
X3191106Y15698659D01*
X3161536Y15550000D01*
X2988464Y15550000D01*
X2958894Y15698659D01*
X2874686Y15824686D01*
X2748659Y15908894D01*
X2600000Y15938464D01*
X900000Y15938464D01*
X751341Y15908894D01*
X625314Y15824686D01*
X541106Y15698659D01*
X511536Y15550000D01*
X456000Y15550000D01*
X456000Y16010459D01*
X10594000Y16010459D01*
X10594000Y15739541D01*
X10697676Y15489244D01*
X10889244Y15297676D01*
X11139541Y15194000D01*
X11410459Y15194000D01*
X11660756Y15297676D01*
X11852324Y15489244D01*
X11956000Y15739541D01*
X11956000Y16010459D01*
X11852324Y16260756D01*
X11660756Y16452324D01*
X11410459Y16556000D01*
X11139541Y16556000D01*
X10889244Y16452324D01*
X10697676Y16260756D01*
X10594000Y16010459D01*
X456000Y16010459D01*
X456000Y18529750D01*
X1769000Y18529750D01*
X1769000Y18424215D01*
X1827004Y18284181D01*
X1934180Y18177004D01*
X2074214Y18119000D01*
X2227750Y18119000D01*
X2323000Y18214250D01*
X2323000Y18625000D01*
X1864250Y18625000D01*
X1769000Y18529750D01*
X456000Y18529750D01*
X456000Y19935459D01*
X619000Y19935459D01*
X619000Y19664541D01*
X722676Y19414244D01*
X914244Y19222676D01*
X1164541Y19119000D01*
X1435459Y19119000D01*
X1685756Y19222676D01*
X1780480Y19317400D01*
X1813785Y19317400D01*
X1859767Y19248582D01*
X1827004Y19215819D01*
X1769000Y19075785D01*
X1769000Y18970250D01*
X1864250Y18875000D01*
X2323000Y18875000D01*
X2323000Y18897000D01*
X2577000Y18897000D01*
X2577000Y18875000D01*
X2597000Y18875000D01*
X2597000Y18625000D01*
X2577000Y18625000D01*
X2577000Y18214250D01*
X2672250Y18119000D01*
X2825786Y18119000D01*
X2965820Y18177004D01*
X2998582Y18209767D01*
X3101341Y18141106D01*
X3250000Y18111536D01*
X3505965Y18111536D01*
X3719000Y17898501D01*
X3719000Y17764541D01*
X3822676Y17514244D01*
X4014244Y17322676D01*
X4264541Y17219000D01*
X4535459Y17219000D01*
X4785756Y17322676D01*
X4977324Y17514244D01*
X5058598Y17710459D01*
X11194000Y17710459D01*
X11194000Y17439541D01*
X11297676Y17189244D01*
X11489244Y16997676D01*
X11739541Y16894000D01*
X12010459Y16894000D01*
X12260756Y16997676D01*
X12452324Y17189244D01*
X12556000Y17439541D01*
X12556000Y17710459D01*
X12473893Y17908686D01*
X13509900Y17908686D01*
X13509900Y17755150D01*
X13605150Y17659900D01*
X14015900Y17659900D01*
X14015900Y18118650D01*
X14265900Y18118650D01*
X14265900Y17659900D01*
X15070000Y17659900D01*
X15070000Y18118650D01*
X15320000Y18118650D01*
X15320000Y17659900D01*
X15730750Y17659900D01*
X15826000Y17755150D01*
X15826000Y17908686D01*
X15767996Y18048720D01*
X15660819Y18155896D01*
X15520785Y18213900D01*
X15415250Y18213900D01*
X15320000Y18118650D01*
X15070000Y18118650D01*
X14974750Y18213900D01*
X14869215Y18213900D01*
X14729181Y18155896D01*
X14667950Y18094666D01*
X14606719Y18155896D01*
X14466685Y18213900D01*
X14361150Y18213900D01*
X14265900Y18118650D01*
X14015900Y18118650D01*
X13920650Y18213900D01*
X13815115Y18213900D01*
X13675081Y18155896D01*
X13567904Y18048720D01*
X13509900Y17908686D01*
X12473893Y17908686D01*
X12452324Y17960756D01*
X12260756Y18152324D01*
X12010459Y18256000D01*
X11739541Y18256000D01*
X11489244Y18152324D01*
X11297676Y17960756D01*
X11194000Y17710459D01*
X5058598Y17710459D01*
X5081000Y17764541D01*
X5081000Y18035459D01*
X4977324Y18285756D01*
X4785756Y18477324D01*
X4535459Y18581000D01*
X4401499Y18581000D01*
X4238464Y18744035D01*
X4238464Y19000000D01*
X4208894Y19148659D01*
X4141181Y19250000D01*
X4152807Y19267400D01*
X5026981Y19267400D01*
X5264541Y19169000D01*
X5535459Y19169000D01*
X5785756Y19272676D01*
X5977324Y19464244D01*
X6081000Y19714541D01*
X6081000Y19985459D01*
X5977324Y20235756D01*
X5785756Y20427324D01*
X5535459Y20531000D01*
X5264541Y20531000D01*
X5014244Y20427324D01*
X4822676Y20235756D01*
X4821369Y20232600D01*
X4152807Y20232600D01*
X4124686Y20274686D01*
X3998659Y20358894D01*
X3850000Y20388464D01*
X3250000Y20388464D01*
X3101341Y20358894D01*
X3000000Y20291181D01*
X2898659Y20358894D01*
X2750000Y20388464D01*
X2150000Y20388464D01*
X2001341Y20358894D01*
X1887158Y20282600D01*
X1780480Y20282600D01*
X1685756Y20377324D01*
X1435459Y20481000D01*
X1164541Y20481000D01*
X914244Y20377324D01*
X722676Y20185756D01*
X619000Y19935459D01*
X456000Y19935459D01*
X456000Y21655351D01*
X2219000Y21655351D01*
X2219000Y21344649D01*
X2337900Y21057599D01*
X2557599Y20837900D01*
X2844649Y20719000D01*
X3155351Y20719000D01*
X3442401Y20837900D01*
X3662100Y21057599D01*
X3781000Y21344649D01*
X3781000Y21655351D01*
X3662100Y21942401D01*
X3442401Y22162100D01*
X3155351Y22281000D01*
X2844649Y22281000D01*
X2557599Y22162100D01*
X2337900Y21942401D01*
X2219000Y21655351D01*
X456000Y21655351D01*
X456000Y25800000D01*
X7561536Y25800000D01*
X7561536Y23000000D01*
X7591106Y22851341D01*
X7675314Y22725314D01*
X7801341Y22641106D01*
X7950000Y22611536D01*
X8930100Y22611536D01*
X8930100Y22493180D01*
X8822676Y22385756D01*
X8719000Y22135459D01*
X8719000Y21864541D01*
X8822676Y21614244D01*
X9014244Y21422676D01*
X9264541Y21319000D01*
X9535459Y21319000D01*
X9785756Y21422676D01*
X9977324Y21614244D01*
X10081000Y21864541D01*
X10081000Y22135459D01*
X9977324Y22385756D01*
X9869900Y22493180D01*
X9869900Y22611536D01*
X10748456Y22611536D01*
X10622676Y22485756D01*
X10519000Y22235459D01*
X10519000Y21964541D01*
X10622676Y21714244D01*
X10814244Y21522676D01*
X11064541Y21419000D01*
X11216462Y21419000D01*
X11610009Y21025452D01*
X11636222Y20986222D01*
X11791654Y20882365D01*
X11928724Y20855100D01*
X11928728Y20855100D01*
X11975000Y20845896D01*
X12021272Y20855100D01*
X14050440Y20855100D01*
X14066106Y20776341D01*
X14150314Y20650314D01*
X14263030Y20575000D01*
X14150314Y20499686D01*
X14066106Y20373659D01*
X14036536Y20225000D01*
X14036536Y19425000D01*
X14066106Y19276341D01*
X14150314Y19150314D01*
X14276341Y19066106D01*
X14425000Y19036536D01*
X15105966Y19036536D01*
X15219000Y18923501D01*
X15219000Y18789541D01*
X15322676Y18539244D01*
X15514244Y18347676D01*
X15764541Y18244000D01*
X16035459Y18244000D01*
X16285756Y18347676D01*
X16477324Y18539244D01*
X16581000Y18789541D01*
X16581000Y19060459D01*
X16477324Y19310756D01*
X16285756Y19502324D01*
X16035459Y19606000D01*
X15901499Y19606000D01*
X15563464Y19944034D01*
X15563464Y20225000D01*
X15533894Y20373659D01*
X15449686Y20499686D01*
X15336970Y20575000D01*
X15449686Y20650314D01*
X15483917Y20701545D01*
X16388975Y19796486D01*
X16452065Y19702065D01*
X16611699Y19595401D01*
X16752471Y19567400D01*
X17113785Y19567400D01*
X17158819Y19500000D01*
X17091106Y19398659D01*
X17061536Y19250000D01*
X17061536Y18650000D01*
X17091106Y18501341D01*
X17175314Y18375314D01*
X17230081Y18338720D01*
X17245401Y18261700D01*
X17277568Y18213558D01*
X17235459Y18231000D01*
X16964541Y18231000D01*
X16714244Y18127324D01*
X16522676Y17935756D01*
X16419000Y17685459D01*
X16419000Y17414541D01*
X16522676Y17164244D01*
X16714244Y16972676D01*
X16746313Y16959393D01*
X16705252Y16918332D01*
X16677324Y16985756D01*
X16485756Y17177324D01*
X16235459Y17281000D01*
X15964541Y17281000D01*
X15826000Y17223615D01*
X15826000Y17310650D01*
X15730750Y17405900D01*
X15320000Y17405900D01*
X15320000Y17385900D01*
X15070000Y17385900D01*
X15070000Y17405900D01*
X14265900Y17405900D01*
X14265900Y17385900D01*
X14015900Y17385900D01*
X14015900Y17405900D01*
X13605150Y17405900D01*
X13509900Y17310650D01*
X13509900Y17157114D01*
X13529282Y17110323D01*
X13479362Y17131000D01*
X13208444Y17131000D01*
X12958147Y17027324D01*
X12766579Y16835756D01*
X12662903Y16585459D01*
X12662903Y16314541D01*
X12766579Y16064244D01*
X12958147Y15872676D01*
X13208444Y15769000D01*
X13479362Y15769000D01*
X13646266Y15838134D01*
X13742241Y15774006D01*
X13890900Y15744436D01*
X14068626Y15744436D01*
X14891575Y14921487D01*
X14664244Y14827324D01*
X14472676Y14635756D01*
X14390955Y14438464D01*
X14344035Y14438464D01*
X14281000Y14501499D01*
X14281000Y14635459D01*
X14177324Y14885756D01*
X13985756Y15077324D01*
X13735459Y15181000D01*
X13464541Y15181000D01*
X13214244Y15077324D01*
X13022676Y14885756D01*
X12919000Y14635459D01*
X12919000Y14364541D01*
X12922998Y14354889D01*
X12922998Y14335752D01*
X12827750Y14431000D01*
X12674214Y14431000D01*
X12534180Y14372996D01*
X12427004Y14265819D01*
X12369000Y14125785D01*
X12369000Y14020250D01*
X12464250Y13925000D01*
X12923000Y13925000D01*
X12923000Y13947000D01*
X13177000Y13947000D01*
X13177000Y13925000D01*
X13197000Y13925000D01*
X13197000Y13675000D01*
X13177000Y13675000D01*
X13177000Y13264250D01*
X13272250Y13169000D01*
X13425786Y13169000D01*
X13565820Y13227004D01*
X13598582Y13259767D01*
X13701341Y13191106D01*
X13786155Y13174235D01*
X13697676Y13085756D01*
X13594000Y12835459D01*
X13594000Y12564541D01*
X13619532Y12502900D01*
X13456003Y12502900D01*
X13456003Y12635462D01*
X13352327Y12885759D01*
X13160759Y13077327D01*
X12910462Y13181003D01*
X12839753Y13181003D01*
X12923000Y13264250D01*
X12923000Y13675000D01*
X12464250Y13675000D01*
X12369000Y13579750D01*
X12369000Y13474215D01*
X12427004Y13334181D01*
X12534180Y13227004D01*
X12645236Y13181003D01*
X12639544Y13181003D01*
X12389247Y13077327D01*
X12197679Y12885759D01*
X12094003Y12635462D01*
X12094003Y12364544D01*
X12197679Y12114247D01*
X12389247Y11922679D01*
X12639544Y11819003D01*
X12791465Y11819003D01*
X12877014Y11733454D01*
X12903228Y11694222D01*
X13058660Y11590365D01*
X13098794Y11582382D01*
X13040122Y11543178D01*
X13013909Y11503947D01*
X12850754Y11340792D01*
X12811522Y11314578D01*
X12745043Y11215086D01*
X12625614Y11135286D01*
X12541406Y11009259D01*
X12511836Y10860600D01*
X12511836Y10260600D01*
X12541406Y10111941D01*
X12610067Y10009182D01*
X12577304Y9976420D01*
X12519300Y9836386D01*
X12519300Y9682850D01*
X12614550Y9587600D01*
X13025300Y9587600D01*
X13025300Y9607600D01*
X13275300Y9607600D01*
X13275300Y9587600D01*
X13297300Y9587600D01*
X13297300Y9333600D01*
X13275300Y9333600D01*
X13275300Y8874850D01*
X13289500Y8860650D01*
X13273400Y8844550D01*
X13273400Y8433800D01*
X13293400Y8433800D01*
X13293400Y8183800D01*
X13273400Y8183800D01*
X13273400Y7455900D01*
X13293400Y7455900D01*
X13293400Y7205900D01*
X13273400Y7205900D01*
X13273400Y6795150D01*
X13368650Y6699900D01*
X13522186Y6699900D01*
X13662220Y6757904D01*
X13694982Y6790667D01*
X13797741Y6722006D01*
X13946400Y6692436D01*
X14546400Y6692436D01*
X14695059Y6722006D01*
X14766932Y6770030D01*
X14814286Y6722676D01*
X15064583Y6619000D01*
X15335501Y6619000D01*
X15487958Y6682150D01*
X15486536Y6675000D01*
X15486536Y6275000D01*
X15516106Y6126341D01*
X15600314Y6000314D01*
X15669000Y5954420D01*
X15669001Y4395716D01*
X15564244Y4352324D01*
X15372676Y4160756D01*
X15269000Y3910459D01*
X15269000Y3639541D01*
X15372676Y3389244D01*
X15564244Y3197676D01*
X15814541Y3094000D01*
X16085459Y3094000D01*
X16335756Y3197676D01*
X16527324Y3389244D01*
X16631000Y3639541D01*
X16631000Y3771677D01*
X16651641Y3802569D01*
X16681000Y3950165D01*
X16690913Y3999999D01*
X16681000Y4049833D01*
X16681000Y5130920D01*
X16739244Y5072676D01*
X16989541Y4969000D01*
X17260459Y4969000D01*
X17510756Y5072676D01*
X17650000Y5211920D01*
X17789244Y5072676D01*
X18039541Y4969000D01*
X18310459Y4969000D01*
X18560756Y5072676D01*
X18587500Y5099420D01*
X18689244Y4997676D01*
X18939541Y4894000D01*
X19210459Y4894000D01*
X19460756Y4997676D01*
X19537500Y5074420D01*
X19589244Y5022676D01*
X19839541Y4919000D01*
X20110459Y4919000D01*
X20360756Y5022676D01*
X20475000Y5136920D01*
X20539244Y5072676D01*
X20789541Y4969000D01*
X21060459Y4969000D01*
X21310756Y5072676D01*
X21502324Y5264244D01*
X21606000Y5514541D01*
X21606000Y5785459D01*
X21510377Y6016314D01*
X21519000Y6029220D01*
X21519000Y6024214D01*
X21577004Y5884180D01*
X21684181Y5777004D01*
X21824215Y5719000D01*
X21929750Y5719000D01*
X22025000Y5814250D01*
X22025000Y6273000D01*
X22275000Y6273000D01*
X22275000Y5814250D01*
X22370250Y5719000D01*
X22475785Y5719000D01*
X22615819Y5777004D01*
X22722996Y5884180D01*
X22781000Y6024214D01*
X22781000Y6177750D01*
X22685750Y6273000D01*
X22275000Y6273000D01*
X22025000Y6273000D01*
X22003000Y6273000D01*
X22003000Y6527000D01*
X22025000Y6527000D01*
X22025000Y6547000D01*
X22275000Y6547000D01*
X22275000Y6527000D01*
X22685750Y6527000D01*
X22781000Y6622250D01*
X22781000Y6775786D01*
X22722996Y6915820D01*
X22710316Y6928500D01*
X22758420Y6928500D01*
X22764244Y6922676D01*
X23014541Y6819000D01*
X23285459Y6819000D01*
X23498442Y6907220D01*
X23444000Y6775786D01*
X23444000Y6622250D01*
X23539250Y6527000D01*
X23950000Y6527000D01*
X23950000Y6547000D01*
X24200000Y6547000D01*
X24200000Y6527000D01*
X24610750Y6527000D01*
X24672835Y6589085D01*
X24714244Y6547676D01*
X24964541Y6444000D01*
X25235459Y6444000D01*
X25485756Y6547676D01*
X25677324Y6739244D01*
X25781000Y6989541D01*
X25781000Y7260459D01*
X25677324Y7510756D01*
X25485756Y7702324D01*
X25235459Y7806000D01*
X24964541Y7806000D01*
X24714244Y7702324D01*
X24713464Y7701544D01*
X24713464Y7800000D01*
X24700057Y7867400D01*
X29952295Y7867400D01*
X29740424Y7550312D01*
X29644884Y7070000D01*
X29740424Y6589688D01*
X29962318Y6257600D01*
X25847527Y6257600D01*
X25799999Y6267054D01*
X25752472Y6257600D01*
X25752471Y6257600D01*
X25611699Y6229599D01*
X25452065Y6122935D01*
X25425138Y6082636D01*
X25348502Y6006000D01*
X25214541Y6006000D01*
X24964244Y5902324D01*
X24869520Y5807600D01*
X24571415Y5807600D01*
X24647996Y5884180D01*
X24706000Y6024214D01*
X24706000Y6177750D01*
X24610750Y6273000D01*
X24200000Y6273000D01*
X24200000Y6253000D01*
X23950000Y6253000D01*
X23950000Y6273000D01*
X23539250Y6273000D01*
X23444000Y6177750D01*
X23444000Y6024214D01*
X23502004Y5884180D01*
X23570104Y5816080D01*
X23527472Y5807600D01*
X23527471Y5807600D01*
X23386699Y5779599D01*
X23227065Y5672935D01*
X23200140Y5632639D01*
X22305966Y4738464D01*
X22000000Y4738464D01*
X21851341Y4708894D01*
X21725314Y4624686D01*
X21641106Y4498659D01*
X21611536Y4350000D01*
X21611536Y3950000D01*
X21641106Y3801341D01*
X21708819Y3700000D01*
X21641106Y3598659D01*
X21611536Y3450000D01*
X21611536Y3050000D01*
X21641106Y2901341D01*
X21725314Y2775314D01*
X21851341Y2691106D01*
X22000000Y2661536D01*
X22600000Y2661536D01*
X22686968Y2678835D01*
X22669000Y2635457D01*
X22669000Y2364539D01*
X22772676Y2114242D01*
X22964244Y1922674D01*
X23214541Y1818998D01*
X23485459Y1818998D01*
X23735756Y1922674D01*
X23927324Y2114242D01*
X24031000Y2364539D01*
X24031000Y2635457D01*
X23954554Y2820015D01*
X24008894Y2901341D01*
X24038464Y3050000D01*
X24038464Y3418568D01*
X24241520Y3334460D01*
X24499747Y3334460D01*
X24841845Y2992361D01*
X24868770Y2952065D01*
X25028404Y2845401D01*
X25169176Y2817400D01*
X25216704Y2807946D01*
X25264232Y2817400D01*
X30019812Y2817400D01*
X29834755Y2606964D01*
X29710511Y2306980D01*
X29771373Y2117000D01*
X30773000Y2117000D01*
X30773000Y2137000D01*
X31027000Y2137000D01*
X31027000Y2117000D01*
X32028627Y2117000D01*
X32089489Y2306980D01*
X31965245Y2606964D01*
X31780188Y2817400D01*
X32622341Y2817400D01*
X32390424Y2470312D01*
X32294884Y1990000D01*
X32390424Y1509688D01*
X32662499Y1102499D01*
X33069688Y830424D01*
X33428761Y759000D01*
X33671239Y759000D01*
X34030312Y830424D01*
X34437501Y1102499D01*
X34709576Y1509688D01*
X34744053Y1683020D01*
X35010511Y1683020D01*
X35134755Y1383036D01*
X35451944Y1022348D01*
X35883018Y810499D01*
X36073000Y870807D01*
X36073000Y1873000D01*
X36327000Y1873000D01*
X36327000Y870807D01*
X36516982Y810499D01*
X36948056Y1022348D01*
X37265245Y1383036D01*
X37389489Y1683020D01*
X37328627Y1873000D01*
X36327000Y1873000D01*
X36073000Y1873000D01*
X35071373Y1873000D01*
X35010511Y1683020D01*
X34744053Y1683020D01*
X34805116Y1990000D01*
X34740076Y2316980D01*
X35010511Y2316980D01*
X35071373Y2127000D01*
X36073000Y2127000D01*
X36073000Y3129193D01*
X36327000Y3129193D01*
X36327000Y2127000D01*
X37328627Y2127000D01*
X37389489Y2316980D01*
X37265245Y2616964D01*
X36948056Y2977652D01*
X36516982Y3189501D01*
X36327000Y3129193D01*
X36073000Y3129193D01*
X35883018Y3189501D01*
X35451944Y2977652D01*
X35134755Y2616964D01*
X35010511Y2316980D01*
X34740076Y2316980D01*
X34709576Y2470312D01*
X34477659Y2817400D01*
X34812472Y2817400D01*
X34860000Y2807946D01*
X34907528Y2817400D01*
X34907529Y2817400D01*
X35048301Y2845401D01*
X35207935Y2952065D01*
X35234862Y2992364D01*
X35661681Y3419183D01*
X35719688Y3380424D01*
X36078761Y3309000D01*
X36321239Y3309000D01*
X36680312Y3380424D01*
X37087501Y3652499D01*
X37359576Y4059688D01*
X37455116Y4540000D01*
X37359576Y5020312D01*
X37087501Y5427501D01*
X36680312Y5699576D01*
X36321239Y5771000D01*
X36078761Y5771000D01*
X35719688Y5699576D01*
X35312499Y5427501D01*
X35040424Y5020312D01*
X34944884Y4540000D01*
X35023296Y4145795D01*
X34660102Y3782600D01*
X34531113Y3782600D01*
X34709576Y4049688D01*
X34805116Y4530000D01*
X34709576Y5010312D01*
X34521091Y5292400D01*
X34747472Y5292400D01*
X34795000Y5282946D01*
X34842528Y5292400D01*
X34842529Y5292400D01*
X34983301Y5320401D01*
X35142935Y5427065D01*
X35169862Y5467364D01*
X35661681Y5959183D01*
X35719688Y5920424D01*
X36078761Y5849000D01*
X36321239Y5849000D01*
X36680312Y5920424D01*
X37087501Y6192499D01*
X37359576Y6599688D01*
X37455116Y7080000D01*
X37359576Y7560312D01*
X37087501Y7967501D01*
X36680312Y8239576D01*
X36321239Y8311000D01*
X36078761Y8311000D01*
X35719688Y8239576D01*
X35312499Y7967501D01*
X35040424Y7560312D01*
X34944884Y7080000D01*
X35023296Y6685795D01*
X34595102Y6257600D01*
X34487682Y6257600D01*
X34709576Y6589688D01*
X34805116Y7070000D01*
X34709576Y7550312D01*
X34497705Y7867400D01*
X34782472Y7867400D01*
X34830000Y7857946D01*
X34877528Y7867400D01*
X34877529Y7867400D01*
X35018301Y7895401D01*
X35177935Y8002065D01*
X35204862Y8042363D01*
X35572830Y8410331D01*
X35672558Y8476967D01*
X35681519Y8485928D01*
X35719688Y8460424D01*
X36078761Y8389000D01*
X36321239Y8389000D01*
X36680312Y8460424D01*
X37087501Y8732499D01*
X37359576Y9139688D01*
X37455116Y9620000D01*
X37359576Y10100312D01*
X37087501Y10507501D01*
X36680312Y10779576D01*
X36321239Y10851000D01*
X36078761Y10851000D01*
X35719688Y10779576D01*
X35312499Y10507501D01*
X35040424Y10100312D01*
X34944884Y9620000D01*
X35017806Y9253397D01*
X34956967Y9192558D01*
X34890331Y9092830D01*
X34630102Y8832600D01*
X34511068Y8832600D01*
X34709576Y9129688D01*
X34805116Y9610000D01*
X34709576Y10090312D01*
X34491023Y10417400D01*
X34792472Y10417400D01*
X34840000Y10407946D01*
X34887528Y10417400D01*
X34887529Y10417400D01*
X35028301Y10445401D01*
X35187935Y10552065D01*
X35214862Y10592363D01*
X35572830Y10950331D01*
X35672558Y11016967D01*
X35681519Y11025928D01*
X35719688Y11000424D01*
X36078761Y10929000D01*
X36321239Y10929000D01*
X36680312Y11000424D01*
X37087501Y11272499D01*
X37359576Y11679688D01*
X37455116Y12160000D01*
X37359576Y12640312D01*
X37087501Y13047501D01*
X36680312Y13319576D01*
X36321239Y13391000D01*
X36078761Y13391000D01*
X35719688Y13319576D01*
X35312499Y13047501D01*
X35040424Y12640312D01*
X34944884Y12160000D01*
X35017806Y11793397D01*
X34956967Y11732558D01*
X34890331Y11632830D01*
X34640102Y11382600D01*
X34517750Y11382600D01*
X34709576Y11669688D01*
X34805116Y12150000D01*
X34709576Y12630312D01*
X34437501Y13037501D01*
X34030312Y13309576D01*
X33671239Y13381000D01*
X33428761Y13381000D01*
X33069688Y13309576D01*
X32662499Y13037501D01*
X32390424Y12630312D01*
X32294884Y12150000D01*
X32390424Y11669688D01*
X32582250Y11382600D01*
X31867750Y11382600D01*
X32059576Y11669688D01*
X32155116Y12150000D01*
X32059576Y12630312D01*
X31787501Y13037501D01*
X31380312Y13309576D01*
X31021239Y13381000D01*
X30778761Y13381000D01*
X30419688Y13309576D01*
X30012499Y13037501D01*
X29740424Y12630312D01*
X29644884Y12150000D01*
X29740424Y11669688D01*
X29932250Y11382600D01*
X27299900Y11382600D01*
X26174862Y12507637D01*
X26147935Y12547935D01*
X25988301Y12654599D01*
X25847529Y12682600D01*
X25847528Y12682600D01*
X25800000Y12692054D01*
X25752472Y12682600D01*
X24980480Y12682600D01*
X24885756Y12777324D01*
X24635459Y12881000D01*
X24364541Y12881000D01*
X24114244Y12777324D01*
X23922676Y12585756D01*
X23819000Y12335459D01*
X23819000Y12114430D01*
X23727324Y12335756D01*
X23665948Y12397132D01*
X23756000Y12614539D01*
X23756000Y12885457D01*
X23722058Y12967400D01*
X26219520Y12967400D01*
X26314244Y12872676D01*
X26564541Y12769000D01*
X26835459Y12769000D01*
X27085756Y12872676D01*
X27277324Y13064244D01*
X27381000Y13314541D01*
X27381000Y13585459D01*
X27277324Y13835756D01*
X27085756Y14027324D01*
X26835459Y14131000D01*
X26564541Y14131000D01*
X26314244Y14027324D01*
X26219520Y13932600D01*
X22036757Y13932600D01*
X21989228Y13942054D01*
X21941699Y13932600D01*
X21800927Y13904599D01*
X21641293Y13797935D01*
X21614368Y13757639D01*
X21476380Y13619650D01*
X21427000Y13652645D01*
X21427000Y13838920D01*
X21427324Y13839244D01*
X21531000Y14089541D01*
X21531000Y14360459D01*
X21427324Y14610756D01*
X21427000Y14611080D01*
X21427000Y16500000D01*
X21417333Y16548601D01*
X21389803Y16589803D01*
X21348601Y16617333D01*
X21300000Y16627000D01*
X21213998Y16627000D01*
X21238464Y16750000D01*
X21238464Y16904750D01*
X21944000Y16904750D01*
X21944000Y16824215D01*
X22002004Y16684181D01*
X22109180Y16577004D01*
X22249214Y16519000D01*
X22427750Y16519000D01*
X22523000Y16614250D01*
X22523000Y17000000D01*
X22777000Y17000000D01*
X22777000Y16614250D01*
X22872250Y16519000D01*
X23050786Y16519000D01*
X23190820Y16577004D01*
X23297996Y16684181D01*
X23356000Y16824215D01*
X23356000Y16904750D01*
X23260750Y17000000D01*
X22777000Y17000000D01*
X22523000Y17000000D01*
X22039250Y17000000D01*
X21944000Y16904750D01*
X21238464Y16904750D01*
X21238464Y17350000D01*
X21208894Y17498659D01*
X21124686Y17624686D01*
X20998659Y17708894D01*
X20850000Y17738464D01*
X20350000Y17738464D01*
X20201341Y17708894D01*
X20075314Y17624686D01*
X20000191Y17512255D01*
X19961699Y17504599D01*
X19814500Y17406244D01*
X19814500Y18724962D01*
X20051074Y18961536D01*
X20550000Y18961536D01*
X20698659Y18991106D01*
X20824686Y19075314D01*
X20908894Y19201341D01*
X20922034Y19267400D01*
X21475102Y19267400D01*
X21977216Y18765286D01*
X21966106Y18748659D01*
X21957531Y18705549D01*
X21785756Y18877324D01*
X21535459Y18981000D01*
X21264541Y18981000D01*
X21014244Y18877324D01*
X20822676Y18685756D01*
X20719000Y18435459D01*
X20719000Y18164541D01*
X20822676Y17914244D01*
X21014244Y17722676D01*
X21264541Y17619000D01*
X21416462Y17619000D01*
X21585008Y17450454D01*
X21611222Y17411222D01*
X21766654Y17307365D01*
X21903724Y17280100D01*
X21903728Y17280100D01*
X21950000Y17270896D01*
X21965309Y17273941D01*
X22039250Y17200000D01*
X22163030Y17200000D01*
X22176341Y17191106D01*
X22325000Y17161536D01*
X22975000Y17161536D01*
X23123659Y17191106D01*
X23136970Y17200000D01*
X23260750Y17200000D01*
X23356000Y17295250D01*
X23356000Y17300000D01*
X23836536Y17300000D01*
X23836536Y16900000D01*
X23866106Y16751341D01*
X23950314Y16625314D01*
X24067400Y16547080D01*
X24067401Y15355485D01*
X23972676Y15260760D01*
X23869000Y15010463D01*
X23869000Y14739545D01*
X23972676Y14489248D01*
X24164244Y14297680D01*
X24414541Y14194004D01*
X24685459Y14194004D01*
X24935756Y14297680D01*
X25127324Y14489248D01*
X25231000Y14739545D01*
X25231000Y15010463D01*
X25127324Y15260760D01*
X25032600Y15355484D01*
X25032600Y15540000D01*
X29661536Y15540000D01*
X29661536Y13840000D01*
X29691106Y13691341D01*
X29775314Y13565314D01*
X29901341Y13481106D01*
X30050000Y13451536D01*
X31750000Y13451536D01*
X31898659Y13481106D01*
X32024686Y13565314D01*
X32108894Y13691341D01*
X32138464Y13840000D01*
X32138464Y15540000D01*
X32311536Y15540000D01*
X32311536Y13840000D01*
X32341106Y13691341D01*
X32425314Y13565314D01*
X32551341Y13481106D01*
X32700000Y13451536D01*
X34400000Y13451536D01*
X34548659Y13481106D01*
X34674686Y13565314D01*
X34758894Y13691341D01*
X34788464Y13840000D01*
X34788464Y15540000D01*
X34786475Y15550000D01*
X34961536Y15550000D01*
X34961536Y13850000D01*
X34991106Y13701341D01*
X35075314Y13575314D01*
X35201341Y13491106D01*
X35350000Y13461536D01*
X37050000Y13461536D01*
X37198659Y13491106D01*
X37324686Y13575314D01*
X37408894Y13701341D01*
X37438464Y13850000D01*
X37438464Y15550000D01*
X37408894Y15698659D01*
X37324686Y15824686D01*
X37198659Y15908894D01*
X37050000Y15938464D01*
X35350000Y15938464D01*
X35201341Y15908894D01*
X35075314Y15824686D01*
X34991106Y15698659D01*
X34961536Y15550000D01*
X34786475Y15550000D01*
X34758894Y15688659D01*
X34674686Y15814686D01*
X34548659Y15898894D01*
X34400000Y15928464D01*
X32700000Y15928464D01*
X32551341Y15898894D01*
X32425314Y15814686D01*
X32341106Y15688659D01*
X32311536Y15540000D01*
X32138464Y15540000D01*
X32108894Y15688659D01*
X32024686Y15814686D01*
X31898659Y15898894D01*
X31750000Y15928464D01*
X30050000Y15928464D01*
X29901341Y15898894D01*
X29775314Y15814686D01*
X29691106Y15688659D01*
X29661536Y15540000D01*
X25032600Y15540000D01*
X25032600Y16547080D01*
X25149686Y16625314D01*
X25233894Y16751341D01*
X25263464Y16900000D01*
X25263464Y17300000D01*
X25233894Y17448659D01*
X25149686Y17574686D01*
X25023659Y17658894D01*
X24875000Y17688464D01*
X24225000Y17688464D01*
X24076341Y17658894D01*
X23950314Y17574686D01*
X23866106Y17448659D01*
X23836536Y17300000D01*
X23356000Y17300000D01*
X23356000Y17375785D01*
X23337631Y17420131D01*
X23363464Y17550000D01*
X23363464Y17950000D01*
X23338600Y18075000D01*
X23363464Y18200000D01*
X23363464Y18600000D01*
X23836536Y18600000D01*
X23836536Y18200000D01*
X23866106Y18051341D01*
X23950314Y17925314D01*
X24076341Y17841106D01*
X24225000Y17811536D01*
X24875000Y17811536D01*
X25023659Y17841106D01*
X25149686Y17925314D01*
X25233894Y18051341D01*
X25263464Y18200000D01*
X25263464Y18529750D01*
X33769000Y18529750D01*
X33769000Y18424215D01*
X33827004Y18284181D01*
X33934180Y18177004D01*
X34074214Y18119000D01*
X34227750Y18119000D01*
X34323000Y18214250D01*
X34323000Y18625000D01*
X33864250Y18625000D01*
X33769000Y18529750D01*
X25263464Y18529750D01*
X25263464Y18600000D01*
X25233894Y18748659D01*
X25149686Y18874686D01*
X25112569Y18899487D01*
X25127324Y18914242D01*
X25231000Y19164539D01*
X25231000Y19435457D01*
X25127324Y19685754D01*
X24935756Y19877322D01*
X24855756Y19910459D01*
X27744002Y19910459D01*
X27744002Y19639541D01*
X27847678Y19389244D01*
X28039246Y19197676D01*
X28289543Y19094000D01*
X28560461Y19094000D01*
X28810758Y19197676D01*
X28880482Y19267400D01*
X33847193Y19267400D01*
X33859767Y19248582D01*
X33827004Y19215819D01*
X33769000Y19075785D01*
X33769000Y18970250D01*
X33864250Y18875000D01*
X34323000Y18875000D01*
X34323000Y18897000D01*
X34577000Y18897000D01*
X34577000Y18875000D01*
X34597000Y18875000D01*
X34597000Y18625000D01*
X34577000Y18625000D01*
X34577000Y18214250D01*
X34672250Y18119000D01*
X34825786Y18119000D01*
X34965820Y18177004D01*
X34998582Y18209767D01*
X35101341Y18141106D01*
X35250000Y18111536D01*
X35505966Y18111536D01*
X35919000Y17698501D01*
X35919000Y17564541D01*
X36022676Y17314244D01*
X36214244Y17122676D01*
X36464541Y17019000D01*
X36735459Y17019000D01*
X36985756Y17122676D01*
X37177324Y17314244D01*
X37281000Y17564541D01*
X37281000Y17835459D01*
X37177324Y18085756D01*
X36985756Y18277324D01*
X36735459Y18381000D01*
X36601499Y18381000D01*
X36238464Y18744034D01*
X36238464Y19000000D01*
X36208894Y19148659D01*
X36141181Y19250000D01*
X36208894Y19351341D01*
X36233176Y19473413D01*
X36364541Y19419000D01*
X36635459Y19419000D01*
X36885756Y19522676D01*
X37077324Y19714244D01*
X37181000Y19964541D01*
X37181000Y20235459D01*
X37077324Y20485756D01*
X36885756Y20677324D01*
X36635459Y20781000D01*
X36364541Y20781000D01*
X36114244Y20677324D01*
X36019520Y20582600D01*
X35947529Y20582600D01*
X35900000Y20592054D01*
X35852471Y20582600D01*
X35711699Y20554599D01*
X35552065Y20447935D01*
X35525140Y20407639D01*
X35505965Y20388464D01*
X35250000Y20388464D01*
X35101341Y20358894D01*
X35000000Y20291181D01*
X34898659Y20358894D01*
X34750000Y20388464D01*
X34150000Y20388464D01*
X34001341Y20358894D01*
X33875314Y20274686D01*
X33847193Y20232600D01*
X28930482Y20232600D01*
X28810758Y20352324D01*
X28560461Y20456000D01*
X28289543Y20456000D01*
X28039246Y20352324D01*
X27847678Y20160756D01*
X27744002Y19910459D01*
X24855756Y19910459D01*
X24685459Y19980998D01*
X24414541Y19980998D01*
X24164244Y19877322D01*
X23972676Y19685754D01*
X23869000Y19435457D01*
X23869000Y19164539D01*
X23972676Y18914242D01*
X23987431Y18899487D01*
X23950314Y18874686D01*
X23866106Y18748659D01*
X23836536Y18600000D01*
X23363464Y18600000D01*
X23333894Y18748659D01*
X23249686Y18874686D01*
X23123659Y18958894D01*
X23104727Y18962660D01*
X23104599Y18963301D01*
X22997935Y19122935D01*
X22957640Y19149859D01*
X22049862Y20057636D01*
X22022935Y20097935D01*
X21863301Y20204599D01*
X21722529Y20232600D01*
X21722528Y20232600D01*
X21675000Y20242054D01*
X21627472Y20232600D01*
X20922034Y20232600D01*
X20908894Y20298659D01*
X20824686Y20424686D01*
X20711970Y20500000D01*
X20824686Y20575314D01*
X20908894Y20701341D01*
X20931599Y20815487D01*
X21164541Y20719000D01*
X21435459Y20719000D01*
X21685756Y20822676D01*
X21877324Y21014244D01*
X21981000Y21264541D01*
X21981000Y21535459D01*
X21931340Y21655351D01*
X34219000Y21655351D01*
X34219000Y21344649D01*
X34337900Y21057599D01*
X34557599Y20837900D01*
X34844649Y20719000D01*
X35155351Y20719000D01*
X35442401Y20837900D01*
X35662100Y21057599D01*
X35781000Y21344649D01*
X35781000Y21655351D01*
X35662100Y21942401D01*
X35442401Y22162100D01*
X35155351Y22281000D01*
X34844649Y22281000D01*
X34557599Y22162100D01*
X34337900Y21942401D01*
X34219000Y21655351D01*
X21931340Y21655351D01*
X21877324Y21785756D01*
X21685756Y21977324D01*
X21435459Y22081000D01*
X21164541Y22081000D01*
X20914244Y21977324D01*
X20839474Y21902554D01*
X20824686Y21924686D01*
X20820061Y21927776D01*
X20856000Y22014541D01*
X20856000Y22285459D01*
X20752324Y22535756D01*
X20560756Y22727324D01*
X20337435Y22819826D01*
X20338464Y22825000D01*
X20338464Y23575000D01*
X20308894Y23723659D01*
X20224686Y23849686D01*
X20224216Y23850000D01*
X20224686Y23850314D01*
X20308894Y23976341D01*
X20319587Y24030100D01*
X20628728Y24030100D01*
X20675000Y24020896D01*
X20721272Y24030100D01*
X20721276Y24030100D01*
X20858346Y24057365D01*
X21013778Y24161222D01*
X21039992Y24200454D01*
X23501097Y26661558D01*
X23525314Y26625314D01*
X23651341Y26541106D01*
X23800000Y26511536D01*
X26600000Y26511536D01*
X26748659Y26541106D01*
X26874686Y26625314D01*
X26958894Y26751341D01*
X26988464Y26900000D01*
X26988464Y29700000D01*
X26959650Y29844861D01*
X28169000Y29844861D01*
X28169000Y29355139D01*
X28356408Y28902694D01*
X28702694Y28556408D01*
X29155139Y28369000D01*
X29644861Y28369000D01*
X30097306Y28556408D01*
X30443592Y28902694D01*
X30631000Y29355139D01*
X30631000Y29844861D01*
X30443592Y30297306D01*
X30097306Y30643592D01*
X29644861Y30831000D01*
X29155139Y30831000D01*
X28702694Y30643592D01*
X28356408Y30297306D01*
X28169000Y29844861D01*
X26959650Y29844861D01*
X26958894Y29848659D01*
X26874686Y29974686D01*
X26748659Y30058894D01*
X26600000Y30088464D01*
X23800000Y30088464D01*
X23651341Y30058894D01*
X23525314Y29974686D01*
X23441106Y29848659D01*
X23411536Y29700000D01*
X23411536Y27901075D01*
X20480362Y24969900D01*
X20319587Y24969900D01*
X20308894Y25023659D01*
X20224686Y25149686D01*
X20224216Y25150000D01*
X20224686Y25150314D01*
X20308894Y25276341D01*
X20338464Y25425000D01*
X20338464Y26175000D01*
X20308894Y26323659D01*
X20224686Y26449686D01*
X20224216Y26450000D01*
X20224686Y26450314D01*
X20308894Y26576341D01*
X20338464Y26725000D01*
X20338464Y27475000D01*
X20308894Y27623659D01*
X20224686Y27749686D01*
X20098659Y27833894D01*
X20019900Y27849560D01*
X20019900Y31156820D01*
X20077324Y31214244D01*
X20181000Y31464541D01*
X20181000Y31735459D01*
X20077324Y31985756D01*
X19885756Y32177324D01*
X19635459Y32281000D01*
X19364541Y32281000D01*
X19114244Y32177324D01*
X18922676Y31985756D01*
X18819000Y31735459D01*
X18819000Y31464541D01*
X18922676Y31214244D01*
X19080101Y31056819D01*
X19080100Y27849560D01*
X19001341Y27833894D01*
X18875314Y27749686D01*
X18797099Y27632629D01*
X18772996Y27690819D01*
X18665820Y27797996D01*
X18525786Y27856000D01*
X18272250Y27856000D01*
X18177000Y27760750D01*
X18177000Y27227000D01*
X18197000Y27227000D01*
X18197000Y26973000D01*
X18177000Y26973000D01*
X18177000Y26953000D01*
X17923000Y26953000D01*
X17923000Y26973000D01*
X17364250Y26973000D01*
X17269000Y26877750D01*
X17269000Y26649215D01*
X17327004Y26509181D01*
X17382019Y26454166D01*
X17375314Y26449686D01*
X17291106Y26323659D01*
X17282939Y26282600D01*
X14755480Y26282600D01*
X14660756Y26377324D01*
X14410459Y26481000D01*
X14139541Y26481000D01*
X13889244Y26377324D01*
X13697676Y26185756D01*
X13594000Y25935459D01*
X13594000Y25664541D01*
X13697676Y25414244D01*
X13889244Y25222676D01*
X14139541Y25119000D01*
X14410459Y25119000D01*
X14660756Y25222676D01*
X14755480Y25317400D01*
X17282939Y25317400D01*
X17291106Y25276341D01*
X17375314Y25150314D01*
X17375784Y25150000D01*
X17375314Y25149686D01*
X17291106Y25023659D01*
X17282939Y24982600D01*
X15680480Y24982600D01*
X15585756Y25077324D01*
X15335459Y25181000D01*
X15064541Y25181000D01*
X14814244Y25077324D01*
X14622676Y24885756D01*
X14519000Y24635459D01*
X14519000Y24364541D01*
X14622676Y24114244D01*
X14814244Y23922676D01*
X15064541Y23819000D01*
X15335459Y23819000D01*
X15585756Y23922676D01*
X15680480Y24017400D01*
X17282939Y24017400D01*
X17291106Y23976341D01*
X17375314Y23850314D01*
X17382019Y23845834D01*
X17327004Y23790819D01*
X17269000Y23650785D01*
X17269000Y23422250D01*
X17364250Y23327000D01*
X17923000Y23327000D01*
X17923000Y23347000D01*
X18177000Y23347000D01*
X18177000Y23327000D01*
X18197000Y23327000D01*
X18197000Y23073000D01*
X18177000Y23073000D01*
X18177000Y22539250D01*
X18272250Y22444000D01*
X18525786Y22444000D01*
X18665820Y22502004D01*
X18772996Y22609181D01*
X18797099Y22667371D01*
X18875314Y22550314D01*
X19001341Y22466106D01*
X19150000Y22436536D01*
X19556578Y22436536D01*
X19494000Y22285459D01*
X19494000Y22014541D01*
X19529939Y21927776D01*
X19525314Y21924686D01*
X19441106Y21798659D01*
X19425440Y21719900D01*
X19368471Y21719900D01*
X19322199Y21729104D01*
X19275927Y21719900D01*
X19275924Y21719900D01*
X19138854Y21692635D01*
X19075047Y21650000D01*
X18983422Y21588778D01*
X18957209Y21549548D01*
X18300452Y20892790D01*
X18261223Y20866578D01*
X18235011Y20827349D01*
X18235009Y20827347D01*
X18157365Y20711145D01*
X18150108Y20674661D01*
X18150000Y20674589D01*
X18098659Y20708894D01*
X17950000Y20738464D01*
X17450000Y20738464D01*
X17301341Y20708894D01*
X17175314Y20624686D01*
X17113785Y20532600D01*
X16981939Y20532600D01*
X15889992Y21624546D01*
X15863778Y21663778D01*
X15708346Y21767635D01*
X15571276Y21794900D01*
X15571272Y21794900D01*
X15548666Y21799397D01*
X15533894Y21873659D01*
X15449686Y21999686D01*
X15323659Y22083894D01*
X15175000Y22113464D01*
X14425000Y22113464D01*
X14276341Y22083894D01*
X14150314Y21999686D01*
X14066106Y21873659D01*
X14050440Y21794900D01*
X12169639Y21794900D01*
X11881000Y22083538D01*
X11881000Y22235459D01*
X11777324Y22485756D01*
X11585756Y22677324D01*
X11335459Y22781000D01*
X11064541Y22781000D01*
X11060881Y22779484D01*
X11108894Y22851341D01*
X11134038Y22977750D01*
X17269000Y22977750D01*
X17269000Y22749215D01*
X17327004Y22609181D01*
X17434180Y22502004D01*
X17574214Y22444000D01*
X17827750Y22444000D01*
X17923000Y22539250D01*
X17923000Y23073000D01*
X17364250Y23073000D01*
X17269000Y22977750D01*
X11134038Y22977750D01*
X11138464Y23000000D01*
X11138464Y25800000D01*
X11108894Y25948659D01*
X11024686Y26074686D01*
X10898659Y26158894D01*
X10750000Y26188464D01*
X7950000Y26188464D01*
X7801341Y26158894D01*
X7675314Y26074686D01*
X7591106Y25948659D01*
X7561536Y25800000D01*
X456000Y25800000D01*
X456000Y29700000D01*
X2611536Y29700000D01*
X2611536Y26900000D01*
X2641106Y26751341D01*
X2725314Y26625314D01*
X2851341Y26541106D01*
X3000000Y26511536D01*
X5800000Y26511536D01*
X5948659Y26541106D01*
X6043797Y26604675D01*
X6122676Y26414244D01*
X6314244Y26222676D01*
X6564541Y26119000D01*
X6835459Y26119000D01*
X7085756Y26222676D01*
X7277324Y26414244D01*
X7381000Y26664541D01*
X7381000Y26935459D01*
X7277324Y27185756D01*
X7085756Y27377324D01*
X6835459Y27481000D01*
X6701499Y27481000D01*
X6631714Y27550785D01*
X17269000Y27550785D01*
X17269000Y27322250D01*
X17364250Y27227000D01*
X17923000Y27227000D01*
X17923000Y27760750D01*
X17827750Y27856000D01*
X17574214Y27856000D01*
X17434180Y27797996D01*
X17327004Y27690819D01*
X17269000Y27550785D01*
X6631714Y27550785D01*
X6188464Y27994034D01*
X6188464Y29700000D01*
X6159650Y29844861D01*
X7369000Y29844861D01*
X7369000Y29355139D01*
X7556408Y28902694D01*
X7902694Y28556408D01*
X8355139Y28369000D01*
X8844861Y28369000D01*
X9297306Y28556408D01*
X9643592Y28902694D01*
X9831000Y29355139D01*
X9831000Y29844861D01*
X9643592Y30297306D01*
X9297306Y30643592D01*
X8844861Y30831000D01*
X8355139Y30831000D01*
X7902694Y30643592D01*
X7556408Y30297306D01*
X7369000Y29844861D01*
X6159650Y29844861D01*
X6158894Y29848659D01*
X6074686Y29974686D01*
X5948659Y30058894D01*
X5800000Y30088464D01*
X3000000Y30088464D01*
X2851341Y30058894D01*
X2725314Y29974686D01*
X2641106Y29848659D01*
X2611536Y29700000D01*
X456000Y29700000D01*
X456000Y37477750D01*
X2619000Y37477750D01*
X2619000Y36524214D01*
X2677004Y36384180D01*
X2784181Y36277004D01*
X2924215Y36219000D01*
X4177750Y36219000D01*
X4273000Y36314250D01*
X4273000Y37573000D01*
X4527000Y37573000D01*
X4527000Y36314250D01*
X4622250Y36219000D01*
X5875785Y36219000D01*
X6015819Y36277004D01*
X6122996Y36384180D01*
X6181000Y36524214D01*
X6181000Y36844861D01*
X7369000Y36844861D01*
X7369000Y36355139D01*
X7556408Y35902694D01*
X7902694Y35556408D01*
X8355139Y35369000D01*
X8844861Y35369000D01*
X9297306Y35556408D01*
X9643592Y35902694D01*
X9831000Y36355139D01*
X9831000Y36800000D01*
X11011536Y36800000D01*
X11011536Y34600000D01*
X11041106Y34451341D01*
X11125314Y34325314D01*
X11251341Y34241106D01*
X11400000Y34211536D01*
X12246997Y34211536D01*
X12216461Y34181000D01*
X12064541Y34181000D01*
X11814244Y34077324D01*
X11622676Y33885756D01*
X11519000Y33635459D01*
X11519000Y33364541D01*
X11622676Y33114244D01*
X11814244Y32922676D01*
X12064541Y32819000D01*
X12335459Y32819000D01*
X12585756Y32922676D01*
X12777324Y33114244D01*
X12881000Y33364541D01*
X12881000Y33516461D01*
X13099549Y33735010D01*
X13138778Y33761222D01*
X13221990Y33885756D01*
X13242635Y33916654D01*
X13242635Y33916655D01*
X13269900Y34053724D01*
X13269900Y34053727D01*
X13279104Y34099999D01*
X13269900Y34146271D01*
X13269900Y34211536D01*
X14200000Y34211536D01*
X14348659Y34241106D01*
X14474686Y34325314D01*
X14558894Y34451341D01*
X14588464Y34600000D01*
X14588464Y36800000D01*
X14558894Y36948659D01*
X14474686Y37074686D01*
X14348659Y37158894D01*
X14200000Y37188464D01*
X11400000Y37188464D01*
X11251341Y37158894D01*
X11125314Y37074686D01*
X11041106Y36948659D01*
X11011536Y36800000D01*
X9831000Y36800000D01*
X9831000Y36844861D01*
X9643592Y37297306D01*
X9297306Y37643592D01*
X8844861Y37831000D01*
X8355139Y37831000D01*
X7902694Y37643592D01*
X7556408Y37297306D01*
X7369000Y36844861D01*
X6181000Y36844861D01*
X6181000Y37477750D01*
X6085750Y37573000D01*
X4527000Y37573000D01*
X4273000Y37573000D01*
X2714250Y37573000D01*
X2619000Y37477750D01*
X456000Y37477750D01*
X456000Y38099630D01*
X458611Y38104960D01*
X475654Y38178489D01*
X542264Y38621546D01*
X664348Y38875786D01*
X2619000Y38875786D01*
X2619000Y37922250D01*
X2714250Y37827000D01*
X4273000Y37827000D01*
X4273000Y39085750D01*
X4527000Y39085750D01*
X4527000Y37827000D01*
X6085750Y37827000D01*
X6181000Y37922250D01*
X6181000Y38875786D01*
X6122996Y39015820D01*
X6015819Y39122996D01*
X5875785Y39181000D01*
X4622250Y39181000D01*
X4527000Y39085750D01*
X4273000Y39085750D01*
X4177750Y39181000D01*
X2924215Y39181000D01*
X2784181Y39122996D01*
X2677004Y39015820D01*
X2619000Y38875786D01*
X664348Y38875786D01*
X704906Y38960246D01*
X959946Y39236147D01*
X1284839Y39424860D01*
X1677013Y39515761D01*
X1768885Y39519371D01*
X1897993Y39544000D01*
X23166478Y39544000D01*
X23160197Y39539803D01*
X23160197Y39539803D01*
G37*
X23160197Y39539803D02*
X23132667Y39498601D01*
X23123000Y39450000D01*
X23123000Y35200000D01*
X23132970Y35150676D01*
X23160753Y35109645D01*
X23202124Y35082370D01*
X23250784Y35073002D01*
X27300784Y35098002D01*
X27348601Y35107667D01*
X27389803Y35135197D01*
X27389978Y35135459D01*
X30594000Y35135459D01*
X30594000Y34864541D01*
X30697676Y34614244D01*
X30889244Y34422676D01*
X31139541Y34319000D01*
X31410459Y34319000D01*
X31660756Y34422676D01*
X31755480Y34517400D01*
X31827966Y34517400D01*
X31841106Y34451341D01*
X31925314Y34325314D01*
X32051341Y34241106D01*
X32200000Y34211536D01*
X35000000Y34211536D01*
X35148659Y34241106D01*
X35274686Y34325314D01*
X35358894Y34451341D01*
X35388464Y34600000D01*
X35388464Y36800000D01*
X35358894Y36948659D01*
X35274686Y37074686D01*
X35148659Y37158894D01*
X35000000Y37188464D01*
X32200000Y37188464D01*
X32051341Y37158894D01*
X31925314Y37074686D01*
X31841106Y36948659D01*
X31811536Y36800000D01*
X31811536Y35482600D01*
X31755480Y35482600D01*
X31660756Y35577324D01*
X31410459Y35681000D01*
X31139541Y35681000D01*
X30889244Y35577324D01*
X30697676Y35385756D01*
X30594000Y35135459D01*
X27389978Y35135459D01*
X27417333Y35176399D01*
X27427000Y35225000D01*
X27427000Y36844861D01*
X28169000Y36844861D01*
X28169000Y36355139D01*
X28356408Y35902694D01*
X28702694Y35556408D01*
X29155139Y35369000D01*
X29644861Y35369000D01*
X30097306Y35556408D01*
X30443592Y35902694D01*
X30631000Y36355139D01*
X30631000Y36844861D01*
X30443592Y37297306D01*
X30097306Y37643592D01*
X29644861Y37831000D01*
X29155139Y37831000D01*
X28702694Y37643592D01*
X28356408Y37297306D01*
X28169000Y36844861D01*
X27427000Y36844861D01*
X27427000Y39475000D01*
X27417030Y39524324D01*
X27403707Y39544000D01*
X36099630Y39544000D01*
X36104960Y39541389D01*
X36178489Y39524346D01*
X36621546Y39457736D01*
X36960246Y39295094D01*
X37236147Y39040054D01*
X37424860Y38715161D01*
X37515761Y38322987D01*
X37519371Y38231115D01*
X37544001Y38102001D01*
X37544000Y1900370D01*
X37541389Y1895040D01*
X37524346Y1821511D01*
X37457736Y1378454D01*
X37295094Y1039754D01*
X37040054Y763853D01*
X36715162Y575141D01*
X36322983Y484239D01*
X36231115Y480629D01*
X36102007Y456000D01*
X1900370Y456000D01*
X1895040Y458611D01*
X1821511Y475654D01*
X1378454Y542264D01*
X1039754Y704906D01*
X763853Y959946D01*
X575141Y1284838D01*
X484239Y1677017D01*
X484004Y1683020D01*
X560511Y1683020D01*
X684755Y1383036D01*
X1001944Y1022348D01*
X1433018Y810499D01*
X1623000Y870807D01*
X1623000Y1873000D01*
X1877000Y1873000D01*
X1877000Y870807D01*
X2066982Y810499D01*
X2498056Y1022348D01*
X2815245Y1383036D01*
X2939489Y1683020D01*
X3210511Y1683020D01*
X3334755Y1383036D01*
X3651944Y1022348D01*
X4083018Y810499D01*
X4273000Y870807D01*
X4273000Y1873000D01*
X4527000Y1873000D01*
X4527000Y870807D01*
X4716982Y810499D01*
X5148056Y1022348D01*
X5465245Y1383036D01*
X5589489Y1683020D01*
X5860511Y1683020D01*
X5984755Y1383036D01*
X6301944Y1022348D01*
X6733018Y810499D01*
X6923000Y870807D01*
X6923000Y1873000D01*
X7177000Y1873000D01*
X7177000Y870807D01*
X7366982Y810499D01*
X7798056Y1022348D01*
X8115245Y1383036D01*
X8235347Y1673020D01*
X29710511Y1673020D01*
X29834755Y1373036D01*
X30151944Y1012348D01*
X30583018Y800499D01*
X30773000Y860807D01*
X30773000Y1863000D01*
X31027000Y1863000D01*
X31027000Y860807D01*
X31216982Y800499D01*
X31648056Y1012348D01*
X31965245Y1373036D01*
X32089489Y1673020D01*
X32028627Y1863000D01*
X31027000Y1863000D01*
X30773000Y1863000D01*
X29771373Y1863000D01*
X29710511Y1673020D01*
X8235347Y1673020D01*
X8239489Y1683020D01*
X8178627Y1873000D01*
X7177000Y1873000D01*
X6923000Y1873000D01*
X5921373Y1873000D01*
X5860511Y1683020D01*
X5589489Y1683020D01*
X5528627Y1873000D01*
X4527000Y1873000D01*
X4273000Y1873000D01*
X3271373Y1873000D01*
X3210511Y1683020D01*
X2939489Y1683020D01*
X2878627Y1873000D01*
X1877000Y1873000D01*
X1623000Y1873000D01*
X621373Y1873000D01*
X560511Y1683020D01*
X484004Y1683020D01*
X480629Y1768885D01*
X456000Y1897993D01*
X456000Y2316980D01*
X560511Y2316980D01*
X621373Y2127000D01*
X1623000Y2127000D01*
X1623000Y3129193D01*
X1877000Y3129193D01*
X1877000Y2127000D01*
X2878627Y2127000D01*
X2939489Y2316980D01*
X3210511Y2316980D01*
X3271373Y2127000D01*
X4273000Y2127000D01*
X4273000Y3129193D01*
X4527000Y3129193D01*
X4527000Y2127000D01*
X5528627Y2127000D01*
X5589489Y2316980D01*
X5860511Y2316980D01*
X5921373Y2127000D01*
X6923000Y2127000D01*
X6923000Y3129193D01*
X7177000Y3129193D01*
X7177000Y2127000D01*
X8178627Y2127000D01*
X8239489Y2316980D01*
X8115245Y2616964D01*
X7798056Y2977652D01*
X7366982Y3189501D01*
X7177000Y3129193D01*
X6923000Y3129193D01*
X6733018Y3189501D01*
X6301944Y2977652D01*
X5984755Y2616964D01*
X5860511Y2316980D01*
X5589489Y2316980D01*
X5465245Y2616964D01*
X5148056Y2977652D01*
X4716982Y3189501D01*
X4527000Y3129193D01*
X4273000Y3129193D01*
X4083018Y3189501D01*
X3651944Y2977652D01*
X3334755Y2616964D01*
X3210511Y2316980D01*
X2939489Y2316980D01*
X2815245Y2616964D01*
X2498056Y2977652D01*
X2066982Y3189501D01*
X1877000Y3129193D01*
X1623000Y3129193D01*
X1433018Y3189501D01*
X1001944Y2977652D01*
X684755Y2616964D01*
X560511Y2316980D01*
X456000Y2316980D01*
X456000Y4540000D01*
X494884Y4540000D01*
X590424Y4059688D01*
X862499Y3652499D01*
X1269688Y3380424D01*
X1628761Y3309000D01*
X1871239Y3309000D01*
X2230312Y3380424D01*
X2637501Y3652499D01*
X2909576Y4059688D01*
X3005116Y4540000D01*
X3144884Y4540000D01*
X3240424Y4059688D01*
X3512499Y3652499D01*
X3919688Y3380424D01*
X4278761Y3309000D01*
X4521239Y3309000D01*
X4880312Y3380424D01*
X5287501Y3652499D01*
X5559576Y4059688D01*
X5655116Y4540000D01*
X5794884Y4540000D01*
X5890424Y4059688D01*
X6162499Y3652499D01*
X6569688Y3380424D01*
X6928761Y3309000D01*
X7171239Y3309000D01*
X7530312Y3380424D01*
X7937501Y3652499D01*
X8199094Y4044000D01*
X8812828Y4044000D01*
X8825314Y4025314D01*
X8951341Y3941106D01*
X9100000Y3911536D01*
X9700000Y3911536D01*
X9848659Y3941106D01*
X9950000Y4008819D01*
X10051341Y3941106D01*
X10200000Y3911536D01*
X10800000Y3911536D01*
X10904582Y3932338D01*
X10914244Y3922676D01*
X11164541Y3819000D01*
X11435459Y3819000D01*
X11685756Y3922676D01*
X11877324Y4114244D01*
X11981000Y4364541D01*
X11981000Y4635459D01*
X11877324Y4885756D01*
X11685756Y5077324D01*
X11435459Y5181000D01*
X11164541Y5181000D01*
X11010850Y5117339D01*
X10948659Y5158894D01*
X10800000Y5188464D01*
X10200000Y5188464D01*
X10051341Y5158894D01*
X9950000Y5091181D01*
X9848659Y5158894D01*
X9700000Y5188464D01*
X9100000Y5188464D01*
X8951341Y5158894D01*
X8825314Y5074686D01*
X8812828Y5056000D01*
X8185730Y5056000D01*
X7937501Y5427501D01*
X7530312Y5699576D01*
X7171239Y5771000D01*
X6928761Y5771000D01*
X6569688Y5699576D01*
X6162499Y5427501D01*
X5890424Y5020312D01*
X5794884Y4540000D01*
X5655116Y4540000D01*
X5559576Y5020312D01*
X5287501Y5427501D01*
X4880312Y5699576D01*
X4521239Y5771000D01*
X4278761Y5771000D01*
X3919688Y5699576D01*
X3512499Y5427501D01*
X3240424Y5020312D01*
X3144884Y4540000D01*
X3005116Y4540000D01*
X2909576Y5020312D01*
X2637501Y5427501D01*
X2230312Y5699576D01*
X1871239Y5771000D01*
X1628761Y5771000D01*
X1269688Y5699576D01*
X862499Y5427501D01*
X590424Y5020312D01*
X494884Y4540000D01*
X456000Y4540000D01*
X456000Y7080000D01*
X494884Y7080000D01*
X590424Y6599688D01*
X862499Y6192499D01*
X1269688Y5920424D01*
X1628761Y5849000D01*
X1871239Y5849000D01*
X2230312Y5920424D01*
X2637501Y6192499D01*
X2909576Y6599688D01*
X3005116Y7080000D01*
X3144884Y7080000D01*
X3240424Y6599688D01*
X3512499Y6192499D01*
X3919688Y5920424D01*
X4278761Y5849000D01*
X4521239Y5849000D01*
X4880312Y5920424D01*
X5287501Y6192499D01*
X5559576Y6599688D01*
X5655116Y7080000D01*
X5794884Y7080000D01*
X5890424Y6599688D01*
X6162499Y6192499D01*
X6569688Y5920424D01*
X6928761Y5849000D01*
X7171239Y5849000D01*
X7530312Y5920424D01*
X7937501Y6192499D01*
X8205775Y6594000D01*
X8812828Y6594000D01*
X8825314Y6575314D01*
X8951341Y6491106D01*
X9100000Y6461536D01*
X9700000Y6461536D01*
X9848659Y6491106D01*
X9950000Y6558819D01*
X10051341Y6491106D01*
X10200000Y6461536D01*
X10800000Y6461536D01*
X10948659Y6491106D01*
X11074686Y6575314D01*
X11087172Y6594000D01*
X11442920Y6594000D01*
X11464244Y6572676D01*
X11714541Y6469000D01*
X11985459Y6469000D01*
X12235756Y6572676D01*
X12427324Y6764244D01*
X12496248Y6930642D01*
X12523404Y6865081D01*
X12630580Y6757904D01*
X12770614Y6699900D01*
X12924150Y6699900D01*
X13019400Y6795150D01*
X13019400Y7205900D01*
X12999400Y7205900D01*
X12999400Y7455900D01*
X13019400Y7455900D01*
X13019400Y8183800D01*
X12560650Y8183800D01*
X12465400Y8088550D01*
X12465400Y7983015D01*
X12523404Y7842981D01*
X12546535Y7819850D01*
X12523404Y7796719D01*
X12465400Y7656685D01*
X12465400Y7551150D01*
X12558648Y7457902D01*
X12465400Y7457902D01*
X12465400Y7443832D01*
X12427324Y7535756D01*
X12235756Y7727324D01*
X11985459Y7831000D01*
X11714541Y7831000D01*
X11464244Y7727324D01*
X11342920Y7606000D01*
X11087172Y7606000D01*
X11074686Y7624686D01*
X10948659Y7708894D01*
X10800000Y7738464D01*
X10200000Y7738464D01*
X10051341Y7708894D01*
X9950000Y7641181D01*
X9848659Y7708894D01*
X9700000Y7738464D01*
X9100000Y7738464D01*
X8951341Y7708894D01*
X8825314Y7624686D01*
X8812828Y7606000D01*
X8179048Y7606000D01*
X7937501Y7967501D01*
X7530312Y8239576D01*
X7171239Y8311000D01*
X6928761Y8311000D01*
X6569688Y8239576D01*
X6162499Y7967501D01*
X5890424Y7560312D01*
X5794884Y7080000D01*
X5655116Y7080000D01*
X5559576Y7560312D01*
X5287501Y7967501D01*
X4880312Y8239576D01*
X4521239Y8311000D01*
X4278761Y8311000D01*
X3919688Y8239576D01*
X3512499Y7967501D01*
X3240424Y7560312D01*
X3144884Y7080000D01*
X3005116Y7080000D01*
X2909576Y7560312D01*
X2637501Y7967501D01*
X2230312Y8239576D01*
X1871239Y8311000D01*
X1628761Y8311000D01*
X1269688Y8239576D01*
X862499Y7967501D01*
X590424Y7560312D01*
X494884Y7080000D01*
X456000Y7080000D01*
X456000Y9620000D01*
X494884Y9620000D01*
X590424Y9139688D01*
X862499Y8732499D01*
X1269688Y8460424D01*
X1628761Y8389000D01*
X1871239Y8389000D01*
X2230312Y8460424D01*
X2637501Y8732499D01*
X2909576Y9139688D01*
X3005116Y9620000D01*
X3144884Y9620000D01*
X3240424Y9139688D01*
X3512499Y8732499D01*
X3919688Y8460424D01*
X4278761Y8389000D01*
X4521239Y8389000D01*
X4880312Y8460424D01*
X5287501Y8732499D01*
X5559576Y9139688D01*
X5655116Y9620000D01*
X5559576Y10100312D01*
X5287501Y10507501D01*
X4880312Y10779576D01*
X4521239Y10851000D01*
X4278761Y10851000D01*
X3919688Y10779576D01*
X3512499Y10507501D01*
X3240424Y10100312D01*
X3144884Y9620000D01*
X3005116Y9620000D01*
X2909576Y10100312D01*
X2637501Y10507501D01*
X2230312Y10779576D01*
X1871239Y10851000D01*
X1628761Y10851000D01*
X1269688Y10779576D01*
X862499Y10507501D01*
X590424Y10100312D01*
X494884Y9620000D01*
X456000Y9620000D01*
X456000Y12160000D01*
X494884Y12160000D01*
X590424Y11679688D01*
X862499Y11272499D01*
X1269688Y11000424D01*
X1628761Y10929000D01*
X1871239Y10929000D01*
X2230312Y11000424D01*
X2637501Y11272499D01*
X2909576Y11679688D01*
X3005116Y12160000D01*
X3144884Y12160000D01*
X3240424Y11679688D01*
X3512499Y11272499D01*
X3919688Y11000424D01*
X4278761Y10929000D01*
X4521239Y10929000D01*
X4880312Y11000424D01*
X5287501Y11272499D01*
X5559576Y11679688D01*
X5655116Y12160000D01*
X5559576Y12640312D01*
X5287501Y13047501D01*
X4880312Y13319576D01*
X4521239Y13391000D01*
X4278761Y13391000D01*
X3919688Y13319576D01*
X3512499Y13047501D01*
X3240424Y12640312D01*
X3144884Y12160000D01*
X3005116Y12160000D01*
X2909576Y12640312D01*
X2637501Y13047501D01*
X2230312Y13319576D01*
X1871239Y13391000D01*
X1628761Y13391000D01*
X1269688Y13319576D01*
X862499Y13047501D01*
X590424Y12640312D01*
X494884Y12160000D01*
X456000Y12160000D01*
X456000Y15550000D01*
X511536Y15550000D01*
X511536Y13850000D01*
X541106Y13701341D01*
X625314Y13575314D01*
X751341Y13491106D01*
X900000Y13461536D01*
X2600000Y13461536D01*
X2748659Y13491106D01*
X2874686Y13575314D01*
X2958894Y13701341D01*
X2988464Y13850000D01*
X2988464Y15550000D01*
X3161536Y15550000D01*
X3161536Y13850000D01*
X3191106Y13701341D01*
X3275314Y13575314D01*
X3401341Y13491106D01*
X3550000Y13461536D01*
X4955965Y13461536D01*
X5300140Y13117361D01*
X5327065Y13077065D01*
X5486699Y12970401D01*
X5627471Y12942400D01*
X5674999Y12932946D01*
X5722527Y12942400D01*
X6092273Y12942400D01*
X5890424Y12640312D01*
X5794884Y12160000D01*
X5890424Y11679688D01*
X6162499Y11272499D01*
X6569688Y11000424D01*
X6928761Y10929000D01*
X7171239Y10929000D01*
X7530312Y11000424D01*
X7937501Y11272499D01*
X8202435Y11669000D01*
X8812828Y11669000D01*
X8825314Y11650314D01*
X8951341Y11566106D01*
X9100000Y11536536D01*
X9700000Y11536536D01*
X9848659Y11566106D01*
X9882475Y11588701D01*
X9819000Y11435459D01*
X9819000Y11164541D01*
X9922676Y10914244D01*
X9966375Y10870545D01*
X9869000Y10635459D01*
X9869000Y10364541D01*
X9937290Y10199673D01*
X9848659Y10258894D01*
X9700000Y10288464D01*
X9100000Y10288464D01*
X8951341Y10258894D01*
X8825314Y10174686D01*
X8812828Y10156000D01*
X8172366Y10156000D01*
X7937501Y10507501D01*
X7530312Y10779576D01*
X7171239Y10851000D01*
X6928761Y10851000D01*
X6569688Y10779576D01*
X6162499Y10507501D01*
X5890424Y10100312D01*
X5794884Y9620000D01*
X5890424Y9139688D01*
X6162499Y8732499D01*
X6569688Y8460424D01*
X6928761Y8389000D01*
X7171239Y8389000D01*
X7530312Y8460424D01*
X7790962Y8634585D01*
X12465400Y8634585D01*
X12465400Y8529050D01*
X12560650Y8433800D01*
X13019400Y8433800D01*
X13019400Y8844550D01*
X13007200Y8856750D01*
X13025300Y8874850D01*
X13025300Y9333600D01*
X12614550Y9333600D01*
X12519300Y9238350D01*
X12519300Y9084814D01*
X12577304Y8944780D01*
X12637445Y8884640D01*
X12630580Y8881796D01*
X12523404Y8774619D01*
X12465400Y8634585D01*
X7790962Y8634585D01*
X7937501Y8732499D01*
X8209576Y9139688D01*
X8210434Y9144000D01*
X8812828Y9144000D01*
X8825314Y9125314D01*
X8951341Y9041106D01*
X9100000Y9011536D01*
X9700000Y9011536D01*
X9848659Y9041106D01*
X9950000Y9108819D01*
X10051341Y9041106D01*
X10200000Y9011536D01*
X10800000Y9011536D01*
X10948659Y9041106D01*
X11074686Y9125314D01*
X11158894Y9251341D01*
X11188464Y9400000D01*
X11188464Y9900000D01*
X11158894Y10048659D01*
X11119979Y10106899D01*
X11127324Y10114244D01*
X11231000Y10364541D01*
X11231000Y10635459D01*
X11127324Y10885756D01*
X11083625Y10929455D01*
X11181000Y11164541D01*
X11181000Y11435459D01*
X11085377Y11666314D01*
X11158894Y11776341D01*
X11188464Y11925000D01*
X11188464Y12425000D01*
X11158894Y12573659D01*
X11074686Y12699686D01*
X10948659Y12783894D01*
X10800000Y12813464D01*
X10753161Y12813464D01*
X10835756Y12847676D01*
X11027324Y13039244D01*
X11131000Y13289541D01*
X11131000Y13560459D01*
X11027324Y13810756D01*
X10835756Y14002324D01*
X10585459Y14106000D01*
X10314541Y14106000D01*
X10064244Y14002324D01*
X9969520Y13907600D01*
X8288464Y13907600D01*
X8288464Y15550000D01*
X8258894Y15698659D01*
X8174686Y15824686D01*
X8048659Y15908894D01*
X7900000Y15938464D01*
X6200000Y15938464D01*
X6051341Y15908894D01*
X5925314Y15824686D01*
X5841106Y15698659D01*
X5811536Y15550000D01*
X5811536Y13970963D01*
X5638464Y14144035D01*
X5638464Y15550000D01*
X5608894Y15698659D01*
X5524686Y15824686D01*
X5398659Y15908894D01*
X5250000Y15938464D01*
X3550000Y15938464D01*
X3401341Y15908894D01*
X3275314Y15824686D01*
X3191106Y15698659D01*
X3161536Y15550000D01*
X2988464Y15550000D01*
X2958894Y15698659D01*
X2874686Y15824686D01*
X2748659Y15908894D01*
X2600000Y15938464D01*
X900000Y15938464D01*
X751341Y15908894D01*
X625314Y15824686D01*
X541106Y15698659D01*
X511536Y15550000D01*
X456000Y15550000D01*
X456000Y16010459D01*
X10594000Y16010459D01*
X10594000Y15739541D01*
X10697676Y15489244D01*
X10889244Y15297676D01*
X11139541Y15194000D01*
X11410459Y15194000D01*
X11660756Y15297676D01*
X11852324Y15489244D01*
X11956000Y15739541D01*
X11956000Y16010459D01*
X11852324Y16260756D01*
X11660756Y16452324D01*
X11410459Y16556000D01*
X11139541Y16556000D01*
X10889244Y16452324D01*
X10697676Y16260756D01*
X10594000Y16010459D01*
X456000Y16010459D01*
X456000Y18529750D01*
X1769000Y18529750D01*
X1769000Y18424215D01*
X1827004Y18284181D01*
X1934180Y18177004D01*
X2074214Y18119000D01*
X2227750Y18119000D01*
X2323000Y18214250D01*
X2323000Y18625000D01*
X1864250Y18625000D01*
X1769000Y18529750D01*
X456000Y18529750D01*
X456000Y19935459D01*
X619000Y19935459D01*
X619000Y19664541D01*
X722676Y19414244D01*
X914244Y19222676D01*
X1164541Y19119000D01*
X1435459Y19119000D01*
X1685756Y19222676D01*
X1780480Y19317400D01*
X1813785Y19317400D01*
X1859767Y19248582D01*
X1827004Y19215819D01*
X1769000Y19075785D01*
X1769000Y18970250D01*
X1864250Y18875000D01*
X2323000Y18875000D01*
X2323000Y18897000D01*
X2577000Y18897000D01*
X2577000Y18875000D01*
X2597000Y18875000D01*
X2597000Y18625000D01*
X2577000Y18625000D01*
X2577000Y18214250D01*
X2672250Y18119000D01*
X2825786Y18119000D01*
X2965820Y18177004D01*
X2998582Y18209767D01*
X3101341Y18141106D01*
X3250000Y18111536D01*
X3505965Y18111536D01*
X3719000Y17898501D01*
X3719000Y17764541D01*
X3822676Y17514244D01*
X4014244Y17322676D01*
X4264541Y17219000D01*
X4535459Y17219000D01*
X4785756Y17322676D01*
X4977324Y17514244D01*
X5058598Y17710459D01*
X11194000Y17710459D01*
X11194000Y17439541D01*
X11297676Y17189244D01*
X11489244Y16997676D01*
X11739541Y16894000D01*
X12010459Y16894000D01*
X12260756Y16997676D01*
X12452324Y17189244D01*
X12556000Y17439541D01*
X12556000Y17710459D01*
X12473893Y17908686D01*
X13509900Y17908686D01*
X13509900Y17755150D01*
X13605150Y17659900D01*
X14015900Y17659900D01*
X14015900Y18118650D01*
X14265900Y18118650D01*
X14265900Y17659900D01*
X15070000Y17659900D01*
X15070000Y18118650D01*
X15320000Y18118650D01*
X15320000Y17659900D01*
X15730750Y17659900D01*
X15826000Y17755150D01*
X15826000Y17908686D01*
X15767996Y18048720D01*
X15660819Y18155896D01*
X15520785Y18213900D01*
X15415250Y18213900D01*
X15320000Y18118650D01*
X15070000Y18118650D01*
X14974750Y18213900D01*
X14869215Y18213900D01*
X14729181Y18155896D01*
X14667950Y18094666D01*
X14606719Y18155896D01*
X14466685Y18213900D01*
X14361150Y18213900D01*
X14265900Y18118650D01*
X14015900Y18118650D01*
X13920650Y18213900D01*
X13815115Y18213900D01*
X13675081Y18155896D01*
X13567904Y18048720D01*
X13509900Y17908686D01*
X12473893Y17908686D01*
X12452324Y17960756D01*
X12260756Y18152324D01*
X12010459Y18256000D01*
X11739541Y18256000D01*
X11489244Y18152324D01*
X11297676Y17960756D01*
X11194000Y17710459D01*
X5058598Y17710459D01*
X5081000Y17764541D01*
X5081000Y18035459D01*
X4977324Y18285756D01*
X4785756Y18477324D01*
X4535459Y18581000D01*
X4401499Y18581000D01*
X4238464Y18744035D01*
X4238464Y19000000D01*
X4208894Y19148659D01*
X4141181Y19250000D01*
X4152807Y19267400D01*
X5026981Y19267400D01*
X5264541Y19169000D01*
X5535459Y19169000D01*
X5785756Y19272676D01*
X5977324Y19464244D01*
X6081000Y19714541D01*
X6081000Y19985459D01*
X5977324Y20235756D01*
X5785756Y20427324D01*
X5535459Y20531000D01*
X5264541Y20531000D01*
X5014244Y20427324D01*
X4822676Y20235756D01*
X4821369Y20232600D01*
X4152807Y20232600D01*
X4124686Y20274686D01*
X3998659Y20358894D01*
X3850000Y20388464D01*
X3250000Y20388464D01*
X3101341Y20358894D01*
X3000000Y20291181D01*
X2898659Y20358894D01*
X2750000Y20388464D01*
X2150000Y20388464D01*
X2001341Y20358894D01*
X1887158Y20282600D01*
X1780480Y20282600D01*
X1685756Y20377324D01*
X1435459Y20481000D01*
X1164541Y20481000D01*
X914244Y20377324D01*
X722676Y20185756D01*
X619000Y19935459D01*
X456000Y19935459D01*
X456000Y21655351D01*
X2219000Y21655351D01*
X2219000Y21344649D01*
X2337900Y21057599D01*
X2557599Y20837900D01*
X2844649Y20719000D01*
X3155351Y20719000D01*
X3442401Y20837900D01*
X3662100Y21057599D01*
X3781000Y21344649D01*
X3781000Y21655351D01*
X3662100Y21942401D01*
X3442401Y22162100D01*
X3155351Y22281000D01*
X2844649Y22281000D01*
X2557599Y22162100D01*
X2337900Y21942401D01*
X2219000Y21655351D01*
X456000Y21655351D01*
X456000Y25800000D01*
X7561536Y25800000D01*
X7561536Y23000000D01*
X7591106Y22851341D01*
X7675314Y22725314D01*
X7801341Y22641106D01*
X7950000Y22611536D01*
X8930100Y22611536D01*
X8930100Y22493180D01*
X8822676Y22385756D01*
X8719000Y22135459D01*
X8719000Y21864541D01*
X8822676Y21614244D01*
X9014244Y21422676D01*
X9264541Y21319000D01*
X9535459Y21319000D01*
X9785756Y21422676D01*
X9977324Y21614244D01*
X10081000Y21864541D01*
X10081000Y22135459D01*
X9977324Y22385756D01*
X9869900Y22493180D01*
X9869900Y22611536D01*
X10748456Y22611536D01*
X10622676Y22485756D01*
X10519000Y22235459D01*
X10519000Y21964541D01*
X10622676Y21714244D01*
X10814244Y21522676D01*
X11064541Y21419000D01*
X11216462Y21419000D01*
X11610009Y21025452D01*
X11636222Y20986222D01*
X11791654Y20882365D01*
X11928724Y20855100D01*
X11928728Y20855100D01*
X11975000Y20845896D01*
X12021272Y20855100D01*
X14050440Y20855100D01*
X14066106Y20776341D01*
X14150314Y20650314D01*
X14263030Y20575000D01*
X14150314Y20499686D01*
X14066106Y20373659D01*
X14036536Y20225000D01*
X14036536Y19425000D01*
X14066106Y19276341D01*
X14150314Y19150314D01*
X14276341Y19066106D01*
X14425000Y19036536D01*
X15105966Y19036536D01*
X15219000Y18923501D01*
X15219000Y18789541D01*
X15322676Y18539244D01*
X15514244Y18347676D01*
X15764541Y18244000D01*
X16035459Y18244000D01*
X16285756Y18347676D01*
X16477324Y18539244D01*
X16581000Y18789541D01*
X16581000Y19060459D01*
X16477324Y19310756D01*
X16285756Y19502324D01*
X16035459Y19606000D01*
X15901499Y19606000D01*
X15563464Y19944034D01*
X15563464Y20225000D01*
X15533894Y20373659D01*
X15449686Y20499686D01*
X15336970Y20575000D01*
X15449686Y20650314D01*
X15483917Y20701545D01*
X16388975Y19796486D01*
X16452065Y19702065D01*
X16611699Y19595401D01*
X16752471Y19567400D01*
X17113785Y19567400D01*
X17158819Y19500000D01*
X17091106Y19398659D01*
X17061536Y19250000D01*
X17061536Y18650000D01*
X17091106Y18501341D01*
X17175314Y18375314D01*
X17230081Y18338720D01*
X17245401Y18261700D01*
X17277568Y18213558D01*
X17235459Y18231000D01*
X16964541Y18231000D01*
X16714244Y18127324D01*
X16522676Y17935756D01*
X16419000Y17685459D01*
X16419000Y17414541D01*
X16522676Y17164244D01*
X16714244Y16972676D01*
X16746313Y16959393D01*
X16705252Y16918332D01*
X16677324Y16985756D01*
X16485756Y17177324D01*
X16235459Y17281000D01*
X15964541Y17281000D01*
X15826000Y17223615D01*
X15826000Y17310650D01*
X15730750Y17405900D01*
X15320000Y17405900D01*
X15320000Y17385900D01*
X15070000Y17385900D01*
X15070000Y17405900D01*
X14265900Y17405900D01*
X14265900Y17385900D01*
X14015900Y17385900D01*
X14015900Y17405900D01*
X13605150Y17405900D01*
X13509900Y17310650D01*
X13509900Y17157114D01*
X13529282Y17110323D01*
X13479362Y17131000D01*
X13208444Y17131000D01*
X12958147Y17027324D01*
X12766579Y16835756D01*
X12662903Y16585459D01*
X12662903Y16314541D01*
X12766579Y16064244D01*
X12958147Y15872676D01*
X13208444Y15769000D01*
X13479362Y15769000D01*
X13646266Y15838134D01*
X13742241Y15774006D01*
X13890900Y15744436D01*
X14068626Y15744436D01*
X14891575Y14921487D01*
X14664244Y14827324D01*
X14472676Y14635756D01*
X14390955Y14438464D01*
X14344035Y14438464D01*
X14281000Y14501499D01*
X14281000Y14635459D01*
X14177324Y14885756D01*
X13985756Y15077324D01*
X13735459Y15181000D01*
X13464541Y15181000D01*
X13214244Y15077324D01*
X13022676Y14885756D01*
X12919000Y14635459D01*
X12919000Y14364541D01*
X12922998Y14354889D01*
X12922998Y14335752D01*
X12827750Y14431000D01*
X12674214Y14431000D01*
X12534180Y14372996D01*
X12427004Y14265819D01*
X12369000Y14125785D01*
X12369000Y14020250D01*
X12464250Y13925000D01*
X12923000Y13925000D01*
X12923000Y13947000D01*
X13177000Y13947000D01*
X13177000Y13925000D01*
X13197000Y13925000D01*
X13197000Y13675000D01*
X13177000Y13675000D01*
X13177000Y13264250D01*
X13272250Y13169000D01*
X13425786Y13169000D01*
X13565820Y13227004D01*
X13598582Y13259767D01*
X13701341Y13191106D01*
X13786155Y13174235D01*
X13697676Y13085756D01*
X13594000Y12835459D01*
X13594000Y12564541D01*
X13619532Y12502900D01*
X13456003Y12502900D01*
X13456003Y12635462D01*
X13352327Y12885759D01*
X13160759Y13077327D01*
X12910462Y13181003D01*
X12839753Y13181003D01*
X12923000Y13264250D01*
X12923000Y13675000D01*
X12464250Y13675000D01*
X12369000Y13579750D01*
X12369000Y13474215D01*
X12427004Y13334181D01*
X12534180Y13227004D01*
X12645236Y13181003D01*
X12639544Y13181003D01*
X12389247Y13077327D01*
X12197679Y12885759D01*
X12094003Y12635462D01*
X12094003Y12364544D01*
X12197679Y12114247D01*
X12389247Y11922679D01*
X12639544Y11819003D01*
X12791465Y11819003D01*
X12877014Y11733454D01*
X12903228Y11694222D01*
X13058660Y11590365D01*
X13098794Y11582382D01*
X13040122Y11543178D01*
X13013909Y11503947D01*
X12850754Y11340792D01*
X12811522Y11314578D01*
X12745043Y11215086D01*
X12625614Y11135286D01*
X12541406Y11009259D01*
X12511836Y10860600D01*
X12511836Y10260600D01*
X12541406Y10111941D01*
X12610067Y10009182D01*
X12577304Y9976420D01*
X12519300Y9836386D01*
X12519300Y9682850D01*
X12614550Y9587600D01*
X13025300Y9587600D01*
X13025300Y9607600D01*
X13275300Y9607600D01*
X13275300Y9587600D01*
X13297300Y9587600D01*
X13297300Y9333600D01*
X13275300Y9333600D01*
X13275300Y8874850D01*
X13289500Y8860650D01*
X13273400Y8844550D01*
X13273400Y8433800D01*
X13293400Y8433800D01*
X13293400Y8183800D01*
X13273400Y8183800D01*
X13273400Y7455900D01*
X13293400Y7455900D01*
X13293400Y7205900D01*
X13273400Y7205900D01*
X13273400Y6795150D01*
X13368650Y6699900D01*
X13522186Y6699900D01*
X13662220Y6757904D01*
X13694982Y6790667D01*
X13797741Y6722006D01*
X13946400Y6692436D01*
X14546400Y6692436D01*
X14695059Y6722006D01*
X14766932Y6770030D01*
X14814286Y6722676D01*
X15064583Y6619000D01*
X15335501Y6619000D01*
X15487958Y6682150D01*
X15486536Y6675000D01*
X15486536Y6275000D01*
X15516106Y6126341D01*
X15600314Y6000314D01*
X15669000Y5954420D01*
X15669001Y4395716D01*
X15564244Y4352324D01*
X15372676Y4160756D01*
X15269000Y3910459D01*
X15269000Y3639541D01*
X15372676Y3389244D01*
X15564244Y3197676D01*
X15814541Y3094000D01*
X16085459Y3094000D01*
X16335756Y3197676D01*
X16527324Y3389244D01*
X16631000Y3639541D01*
X16631000Y3771677D01*
X16651641Y3802569D01*
X16681000Y3950165D01*
X16690913Y3999999D01*
X16681000Y4049833D01*
X16681000Y5130920D01*
X16739244Y5072676D01*
X16989541Y4969000D01*
X17260459Y4969000D01*
X17510756Y5072676D01*
X17650000Y5211920D01*
X17789244Y5072676D01*
X18039541Y4969000D01*
X18310459Y4969000D01*
X18560756Y5072676D01*
X18587500Y5099420D01*
X18689244Y4997676D01*
X18939541Y4894000D01*
X19210459Y4894000D01*
X19460756Y4997676D01*
X19537500Y5074420D01*
X19589244Y5022676D01*
X19839541Y4919000D01*
X20110459Y4919000D01*
X20360756Y5022676D01*
X20475000Y5136920D01*
X20539244Y5072676D01*
X20789541Y4969000D01*
X21060459Y4969000D01*
X21310756Y5072676D01*
X21502324Y5264244D01*
X21606000Y5514541D01*
X21606000Y5785459D01*
X21510377Y6016314D01*
X21519000Y6029220D01*
X21519000Y6024214D01*
X21577004Y5884180D01*
X21684181Y5777004D01*
X21824215Y5719000D01*
X21929750Y5719000D01*
X22025000Y5814250D01*
X22025000Y6273000D01*
X22275000Y6273000D01*
X22275000Y5814250D01*
X22370250Y5719000D01*
X22475785Y5719000D01*
X22615819Y5777004D01*
X22722996Y5884180D01*
X22781000Y6024214D01*
X22781000Y6177750D01*
X22685750Y6273000D01*
X22275000Y6273000D01*
X22025000Y6273000D01*
X22003000Y6273000D01*
X22003000Y6527000D01*
X22025000Y6527000D01*
X22025000Y6547000D01*
X22275000Y6547000D01*
X22275000Y6527000D01*
X22685750Y6527000D01*
X22781000Y6622250D01*
X22781000Y6775786D01*
X22722996Y6915820D01*
X22710316Y6928500D01*
X22758420Y6928500D01*
X22764244Y6922676D01*
X23014541Y6819000D01*
X23285459Y6819000D01*
X23498442Y6907220D01*
X23444000Y6775786D01*
X23444000Y6622250D01*
X23539250Y6527000D01*
X23950000Y6527000D01*
X23950000Y6547000D01*
X24200000Y6547000D01*
X24200000Y6527000D01*
X24610750Y6527000D01*
X24672835Y6589085D01*
X24714244Y6547676D01*
X24964541Y6444000D01*
X25235459Y6444000D01*
X25485756Y6547676D01*
X25677324Y6739244D01*
X25781000Y6989541D01*
X25781000Y7260459D01*
X25677324Y7510756D01*
X25485756Y7702324D01*
X25235459Y7806000D01*
X24964541Y7806000D01*
X24714244Y7702324D01*
X24713464Y7701544D01*
X24713464Y7800000D01*
X24700057Y7867400D01*
X29952295Y7867400D01*
X29740424Y7550312D01*
X29644884Y7070000D01*
X29740424Y6589688D01*
X29962318Y6257600D01*
X25847527Y6257600D01*
X25799999Y6267054D01*
X25752472Y6257600D01*
X25752471Y6257600D01*
X25611699Y6229599D01*
X25452065Y6122935D01*
X25425138Y6082636D01*
X25348502Y6006000D01*
X25214541Y6006000D01*
X24964244Y5902324D01*
X24869520Y5807600D01*
X24571415Y5807600D01*
X24647996Y5884180D01*
X24706000Y6024214D01*
X24706000Y6177750D01*
X24610750Y6273000D01*
X24200000Y6273000D01*
X24200000Y6253000D01*
X23950000Y6253000D01*
X23950000Y6273000D01*
X23539250Y6273000D01*
X23444000Y6177750D01*
X23444000Y6024214D01*
X23502004Y5884180D01*
X23570104Y5816080D01*
X23527472Y5807600D01*
X23527471Y5807600D01*
X23386699Y5779599D01*
X23227065Y5672935D01*
X23200140Y5632639D01*
X22305966Y4738464D01*
X22000000Y4738464D01*
X21851341Y4708894D01*
X21725314Y4624686D01*
X21641106Y4498659D01*
X21611536Y4350000D01*
X21611536Y3950000D01*
X21641106Y3801341D01*
X21708819Y3700000D01*
X21641106Y3598659D01*
X21611536Y3450000D01*
X21611536Y3050000D01*
X21641106Y2901341D01*
X21725314Y2775314D01*
X21851341Y2691106D01*
X22000000Y2661536D01*
X22600000Y2661536D01*
X22686968Y2678835D01*
X22669000Y2635457D01*
X22669000Y2364539D01*
X22772676Y2114242D01*
X22964244Y1922674D01*
X23214541Y1818998D01*
X23485459Y1818998D01*
X23735756Y1922674D01*
X23927324Y2114242D01*
X24031000Y2364539D01*
X24031000Y2635457D01*
X23954554Y2820015D01*
X24008894Y2901341D01*
X24038464Y3050000D01*
X24038464Y3418568D01*
X24241520Y3334460D01*
X24499747Y3334460D01*
X24841845Y2992361D01*
X24868770Y2952065D01*
X25028404Y2845401D01*
X25169176Y2817400D01*
X25216704Y2807946D01*
X25264232Y2817400D01*
X30019812Y2817400D01*
X29834755Y2606964D01*
X29710511Y2306980D01*
X29771373Y2117000D01*
X30773000Y2117000D01*
X30773000Y2137000D01*
X31027000Y2137000D01*
X31027000Y2117000D01*
X32028627Y2117000D01*
X32089489Y2306980D01*
X31965245Y2606964D01*
X31780188Y2817400D01*
X32622341Y2817400D01*
X32390424Y2470312D01*
X32294884Y1990000D01*
X32390424Y1509688D01*
X32662499Y1102499D01*
X33069688Y830424D01*
X33428761Y759000D01*
X33671239Y759000D01*
X34030312Y830424D01*
X34437501Y1102499D01*
X34709576Y1509688D01*
X34744053Y1683020D01*
X35010511Y1683020D01*
X35134755Y1383036D01*
X35451944Y1022348D01*
X35883018Y810499D01*
X36073000Y870807D01*
X36073000Y1873000D01*
X36327000Y1873000D01*
X36327000Y870807D01*
X36516982Y810499D01*
X36948056Y1022348D01*
X37265245Y1383036D01*
X37389489Y1683020D01*
X37328627Y1873000D01*
X36327000Y1873000D01*
X36073000Y1873000D01*
X35071373Y1873000D01*
X35010511Y1683020D01*
X34744053Y1683020D01*
X34805116Y1990000D01*
X34740076Y2316980D01*
X35010511Y2316980D01*
X35071373Y2127000D01*
X36073000Y2127000D01*
X36073000Y3129193D01*
X36327000Y3129193D01*
X36327000Y2127000D01*
X37328627Y2127000D01*
X37389489Y2316980D01*
X37265245Y2616964D01*
X36948056Y2977652D01*
X36516982Y3189501D01*
X36327000Y3129193D01*
X36073000Y3129193D01*
X35883018Y3189501D01*
X35451944Y2977652D01*
X35134755Y2616964D01*
X35010511Y2316980D01*
X34740076Y2316980D01*
X34709576Y2470312D01*
X34477659Y2817400D01*
X34812472Y2817400D01*
X34860000Y2807946D01*
X34907528Y2817400D01*
X34907529Y2817400D01*
X35048301Y2845401D01*
X35207935Y2952065D01*
X35234862Y2992364D01*
X35661681Y3419183D01*
X35719688Y3380424D01*
X36078761Y3309000D01*
X36321239Y3309000D01*
X36680312Y3380424D01*
X37087501Y3652499D01*
X37359576Y4059688D01*
X37455116Y4540000D01*
X37359576Y5020312D01*
X37087501Y5427501D01*
X36680312Y5699576D01*
X36321239Y5771000D01*
X36078761Y5771000D01*
X35719688Y5699576D01*
X35312499Y5427501D01*
X35040424Y5020312D01*
X34944884Y4540000D01*
X35023296Y4145795D01*
X34660102Y3782600D01*
X34531113Y3782600D01*
X34709576Y4049688D01*
X34805116Y4530000D01*
X34709576Y5010312D01*
X34521091Y5292400D01*
X34747472Y5292400D01*
X34795000Y5282946D01*
X34842528Y5292400D01*
X34842529Y5292400D01*
X34983301Y5320401D01*
X35142935Y5427065D01*
X35169862Y5467364D01*
X35661681Y5959183D01*
X35719688Y5920424D01*
X36078761Y5849000D01*
X36321239Y5849000D01*
X36680312Y5920424D01*
X37087501Y6192499D01*
X37359576Y6599688D01*
X37455116Y7080000D01*
X37359576Y7560312D01*
X37087501Y7967501D01*
X36680312Y8239576D01*
X36321239Y8311000D01*
X36078761Y8311000D01*
X35719688Y8239576D01*
X35312499Y7967501D01*
X35040424Y7560312D01*
X34944884Y7080000D01*
X35023296Y6685795D01*
X34595102Y6257600D01*
X34487682Y6257600D01*
X34709576Y6589688D01*
X34805116Y7070000D01*
X34709576Y7550312D01*
X34497705Y7867400D01*
X34782472Y7867400D01*
X34830000Y7857946D01*
X34877528Y7867400D01*
X34877529Y7867400D01*
X35018301Y7895401D01*
X35177935Y8002065D01*
X35204862Y8042363D01*
X35572830Y8410331D01*
X35672558Y8476967D01*
X35681519Y8485928D01*
X35719688Y8460424D01*
X36078761Y8389000D01*
X36321239Y8389000D01*
X36680312Y8460424D01*
X37087501Y8732499D01*
X37359576Y9139688D01*
X37455116Y9620000D01*
X37359576Y10100312D01*
X37087501Y10507501D01*
X36680312Y10779576D01*
X36321239Y10851000D01*
X36078761Y10851000D01*
X35719688Y10779576D01*
X35312499Y10507501D01*
X35040424Y10100312D01*
X34944884Y9620000D01*
X35017806Y9253397D01*
X34956967Y9192558D01*
X34890331Y9092830D01*
X34630102Y8832600D01*
X34511068Y8832600D01*
X34709576Y9129688D01*
X34805116Y9610000D01*
X34709576Y10090312D01*
X34491023Y10417400D01*
X34792472Y10417400D01*
X34840000Y10407946D01*
X34887528Y10417400D01*
X34887529Y10417400D01*
X35028301Y10445401D01*
X35187935Y10552065D01*
X35214862Y10592363D01*
X35572830Y10950331D01*
X35672558Y11016967D01*
X35681519Y11025928D01*
X35719688Y11000424D01*
X36078761Y10929000D01*
X36321239Y10929000D01*
X36680312Y11000424D01*
X37087501Y11272499D01*
X37359576Y11679688D01*
X37455116Y12160000D01*
X37359576Y12640312D01*
X37087501Y13047501D01*
X36680312Y13319576D01*
X36321239Y13391000D01*
X36078761Y13391000D01*
X35719688Y13319576D01*
X35312499Y13047501D01*
X35040424Y12640312D01*
X34944884Y12160000D01*
X35017806Y11793397D01*
X34956967Y11732558D01*
X34890331Y11632830D01*
X34640102Y11382600D01*
X34517750Y11382600D01*
X34709576Y11669688D01*
X34805116Y12150000D01*
X34709576Y12630312D01*
X34437501Y13037501D01*
X34030312Y13309576D01*
X33671239Y13381000D01*
X33428761Y13381000D01*
X33069688Y13309576D01*
X32662499Y13037501D01*
X32390424Y12630312D01*
X32294884Y12150000D01*
X32390424Y11669688D01*
X32582250Y11382600D01*
X31867750Y11382600D01*
X32059576Y11669688D01*
X32155116Y12150000D01*
X32059576Y12630312D01*
X31787501Y13037501D01*
X31380312Y13309576D01*
X31021239Y13381000D01*
X30778761Y13381000D01*
X30419688Y13309576D01*
X30012499Y13037501D01*
X29740424Y12630312D01*
X29644884Y12150000D01*
X29740424Y11669688D01*
X29932250Y11382600D01*
X27299900Y11382600D01*
X26174862Y12507637D01*
X26147935Y12547935D01*
X25988301Y12654599D01*
X25847529Y12682600D01*
X25847528Y12682600D01*
X25800000Y12692054D01*
X25752472Y12682600D01*
X24980480Y12682600D01*
X24885756Y12777324D01*
X24635459Y12881000D01*
X24364541Y12881000D01*
X24114244Y12777324D01*
X23922676Y12585756D01*
X23819000Y12335459D01*
X23819000Y12114430D01*
X23727324Y12335756D01*
X23665948Y12397132D01*
X23756000Y12614539D01*
X23756000Y12885457D01*
X23722058Y12967400D01*
X26219520Y12967400D01*
X26314244Y12872676D01*
X26564541Y12769000D01*
X26835459Y12769000D01*
X27085756Y12872676D01*
X27277324Y13064244D01*
X27381000Y13314541D01*
X27381000Y13585459D01*
X27277324Y13835756D01*
X27085756Y14027324D01*
X26835459Y14131000D01*
X26564541Y14131000D01*
X26314244Y14027324D01*
X26219520Y13932600D01*
X22036757Y13932600D01*
X21989228Y13942054D01*
X21941699Y13932600D01*
X21800927Y13904599D01*
X21641293Y13797935D01*
X21614368Y13757639D01*
X21476380Y13619650D01*
X21427000Y13652645D01*
X21427000Y13838920D01*
X21427324Y13839244D01*
X21531000Y14089541D01*
X21531000Y14360459D01*
X21427324Y14610756D01*
X21427000Y14611080D01*
X21427000Y16500000D01*
X21417333Y16548601D01*
X21389803Y16589803D01*
X21348601Y16617333D01*
X21300000Y16627000D01*
X21213998Y16627000D01*
X21238464Y16750000D01*
X21238464Y16904750D01*
X21944000Y16904750D01*
X21944000Y16824215D01*
X22002004Y16684181D01*
X22109180Y16577004D01*
X22249214Y16519000D01*
X22427750Y16519000D01*
X22523000Y16614250D01*
X22523000Y17000000D01*
X22777000Y17000000D01*
X22777000Y16614250D01*
X22872250Y16519000D01*
X23050786Y16519000D01*
X23190820Y16577004D01*
X23297996Y16684181D01*
X23356000Y16824215D01*
X23356000Y16904750D01*
X23260750Y17000000D01*
X22777000Y17000000D01*
X22523000Y17000000D01*
X22039250Y17000000D01*
X21944000Y16904750D01*
X21238464Y16904750D01*
X21238464Y17350000D01*
X21208894Y17498659D01*
X21124686Y17624686D01*
X20998659Y17708894D01*
X20850000Y17738464D01*
X20350000Y17738464D01*
X20201341Y17708894D01*
X20075314Y17624686D01*
X20000191Y17512255D01*
X19961699Y17504599D01*
X19814500Y17406244D01*
X19814500Y18724962D01*
X20051074Y18961536D01*
X20550000Y18961536D01*
X20698659Y18991106D01*
X20824686Y19075314D01*
X20908894Y19201341D01*
X20922034Y19267400D01*
X21475102Y19267400D01*
X21977216Y18765286D01*
X21966106Y18748659D01*
X21957531Y18705549D01*
X21785756Y18877324D01*
X21535459Y18981000D01*
X21264541Y18981000D01*
X21014244Y18877324D01*
X20822676Y18685756D01*
X20719000Y18435459D01*
X20719000Y18164541D01*
X20822676Y17914244D01*
X21014244Y17722676D01*
X21264541Y17619000D01*
X21416462Y17619000D01*
X21585008Y17450454D01*
X21611222Y17411222D01*
X21766654Y17307365D01*
X21903724Y17280100D01*
X21903728Y17280100D01*
X21950000Y17270896D01*
X21965309Y17273941D01*
X22039250Y17200000D01*
X22163030Y17200000D01*
X22176341Y17191106D01*
X22325000Y17161536D01*
X22975000Y17161536D01*
X23123659Y17191106D01*
X23136970Y17200000D01*
X23260750Y17200000D01*
X23356000Y17295250D01*
X23356000Y17300000D01*
X23836536Y17300000D01*
X23836536Y16900000D01*
X23866106Y16751341D01*
X23950314Y16625314D01*
X24067400Y16547080D01*
X24067401Y15355485D01*
X23972676Y15260760D01*
X23869000Y15010463D01*
X23869000Y14739545D01*
X23972676Y14489248D01*
X24164244Y14297680D01*
X24414541Y14194004D01*
X24685459Y14194004D01*
X24935756Y14297680D01*
X25127324Y14489248D01*
X25231000Y14739545D01*
X25231000Y15010463D01*
X25127324Y15260760D01*
X25032600Y15355484D01*
X25032600Y15540000D01*
X29661536Y15540000D01*
X29661536Y13840000D01*
X29691106Y13691341D01*
X29775314Y13565314D01*
X29901341Y13481106D01*
X30050000Y13451536D01*
X31750000Y13451536D01*
X31898659Y13481106D01*
X32024686Y13565314D01*
X32108894Y13691341D01*
X32138464Y13840000D01*
X32138464Y15540000D01*
X32311536Y15540000D01*
X32311536Y13840000D01*
X32341106Y13691341D01*
X32425314Y13565314D01*
X32551341Y13481106D01*
X32700000Y13451536D01*
X34400000Y13451536D01*
X34548659Y13481106D01*
X34674686Y13565314D01*
X34758894Y13691341D01*
X34788464Y13840000D01*
X34788464Y15540000D01*
X34786475Y15550000D01*
X34961536Y15550000D01*
X34961536Y13850000D01*
X34991106Y13701341D01*
X35075314Y13575314D01*
X35201341Y13491106D01*
X35350000Y13461536D01*
X37050000Y13461536D01*
X37198659Y13491106D01*
X37324686Y13575314D01*
X37408894Y13701341D01*
X37438464Y13850000D01*
X37438464Y15550000D01*
X37408894Y15698659D01*
X37324686Y15824686D01*
X37198659Y15908894D01*
X37050000Y15938464D01*
X35350000Y15938464D01*
X35201341Y15908894D01*
X35075314Y15824686D01*
X34991106Y15698659D01*
X34961536Y15550000D01*
X34786475Y15550000D01*
X34758894Y15688659D01*
X34674686Y15814686D01*
X34548659Y15898894D01*
X34400000Y15928464D01*
X32700000Y15928464D01*
X32551341Y15898894D01*
X32425314Y15814686D01*
X32341106Y15688659D01*
X32311536Y15540000D01*
X32138464Y15540000D01*
X32108894Y15688659D01*
X32024686Y15814686D01*
X31898659Y15898894D01*
X31750000Y15928464D01*
X30050000Y15928464D01*
X29901341Y15898894D01*
X29775314Y15814686D01*
X29691106Y15688659D01*
X29661536Y15540000D01*
X25032600Y15540000D01*
X25032600Y16547080D01*
X25149686Y16625314D01*
X25233894Y16751341D01*
X25263464Y16900000D01*
X25263464Y17300000D01*
X25233894Y17448659D01*
X25149686Y17574686D01*
X25023659Y17658894D01*
X24875000Y17688464D01*
X24225000Y17688464D01*
X24076341Y17658894D01*
X23950314Y17574686D01*
X23866106Y17448659D01*
X23836536Y17300000D01*
X23356000Y17300000D01*
X23356000Y17375785D01*
X23337631Y17420131D01*
X23363464Y17550000D01*
X23363464Y17950000D01*
X23338600Y18075000D01*
X23363464Y18200000D01*
X23363464Y18600000D01*
X23836536Y18600000D01*
X23836536Y18200000D01*
X23866106Y18051341D01*
X23950314Y17925314D01*
X24076341Y17841106D01*
X24225000Y17811536D01*
X24875000Y17811536D01*
X25023659Y17841106D01*
X25149686Y17925314D01*
X25233894Y18051341D01*
X25263464Y18200000D01*
X25263464Y18529750D01*
X33769000Y18529750D01*
X33769000Y18424215D01*
X33827004Y18284181D01*
X33934180Y18177004D01*
X34074214Y18119000D01*
X34227750Y18119000D01*
X34323000Y18214250D01*
X34323000Y18625000D01*
X33864250Y18625000D01*
X33769000Y18529750D01*
X25263464Y18529750D01*
X25263464Y18600000D01*
X25233894Y18748659D01*
X25149686Y18874686D01*
X25112569Y18899487D01*
X25127324Y18914242D01*
X25231000Y19164539D01*
X25231000Y19435457D01*
X25127324Y19685754D01*
X24935756Y19877322D01*
X24855756Y19910459D01*
X27744002Y19910459D01*
X27744002Y19639541D01*
X27847678Y19389244D01*
X28039246Y19197676D01*
X28289543Y19094000D01*
X28560461Y19094000D01*
X28810758Y19197676D01*
X28880482Y19267400D01*
X33847193Y19267400D01*
X33859767Y19248582D01*
X33827004Y19215819D01*
X33769000Y19075785D01*
X33769000Y18970250D01*
X33864250Y18875000D01*
X34323000Y18875000D01*
X34323000Y18897000D01*
X34577000Y18897000D01*
X34577000Y18875000D01*
X34597000Y18875000D01*
X34597000Y18625000D01*
X34577000Y18625000D01*
X34577000Y18214250D01*
X34672250Y18119000D01*
X34825786Y18119000D01*
X34965820Y18177004D01*
X34998582Y18209767D01*
X35101341Y18141106D01*
X35250000Y18111536D01*
X35505966Y18111536D01*
X35919000Y17698501D01*
X35919000Y17564541D01*
X36022676Y17314244D01*
X36214244Y17122676D01*
X36464541Y17019000D01*
X36735459Y17019000D01*
X36985756Y17122676D01*
X37177324Y17314244D01*
X37281000Y17564541D01*
X37281000Y17835459D01*
X37177324Y18085756D01*
X36985756Y18277324D01*
X36735459Y18381000D01*
X36601499Y18381000D01*
X36238464Y18744034D01*
X36238464Y19000000D01*
X36208894Y19148659D01*
X36141181Y19250000D01*
X36208894Y19351341D01*
X36233176Y19473413D01*
X36364541Y19419000D01*
X36635459Y19419000D01*
X36885756Y19522676D01*
X37077324Y19714244D01*
X37181000Y19964541D01*
X37181000Y20235459D01*
X37077324Y20485756D01*
X36885756Y20677324D01*
X36635459Y20781000D01*
X36364541Y20781000D01*
X36114244Y20677324D01*
X36019520Y20582600D01*
X35947529Y20582600D01*
X35900000Y20592054D01*
X35852471Y20582600D01*
X35711699Y20554599D01*
X35552065Y20447935D01*
X35525140Y20407639D01*
X35505965Y20388464D01*
X35250000Y20388464D01*
X35101341Y20358894D01*
X35000000Y20291181D01*
X34898659Y20358894D01*
X34750000Y20388464D01*
X34150000Y20388464D01*
X34001341Y20358894D01*
X33875314Y20274686D01*
X33847193Y20232600D01*
X28930482Y20232600D01*
X28810758Y20352324D01*
X28560461Y20456000D01*
X28289543Y20456000D01*
X28039246Y20352324D01*
X27847678Y20160756D01*
X27744002Y19910459D01*
X24855756Y19910459D01*
X24685459Y19980998D01*
X24414541Y19980998D01*
X24164244Y19877322D01*
X23972676Y19685754D01*
X23869000Y19435457D01*
X23869000Y19164539D01*
X23972676Y18914242D01*
X23987431Y18899487D01*
X23950314Y18874686D01*
X23866106Y18748659D01*
X23836536Y18600000D01*
X23363464Y18600000D01*
X23333894Y18748659D01*
X23249686Y18874686D01*
X23123659Y18958894D01*
X23104727Y18962660D01*
X23104599Y18963301D01*
X22997935Y19122935D01*
X22957640Y19149859D01*
X22049862Y20057636D01*
X22022935Y20097935D01*
X21863301Y20204599D01*
X21722529Y20232600D01*
X21722528Y20232600D01*
X21675000Y20242054D01*
X21627472Y20232600D01*
X20922034Y20232600D01*
X20908894Y20298659D01*
X20824686Y20424686D01*
X20711970Y20500000D01*
X20824686Y20575314D01*
X20908894Y20701341D01*
X20931599Y20815487D01*
X21164541Y20719000D01*
X21435459Y20719000D01*
X21685756Y20822676D01*
X21877324Y21014244D01*
X21981000Y21264541D01*
X21981000Y21535459D01*
X21931340Y21655351D01*
X34219000Y21655351D01*
X34219000Y21344649D01*
X34337900Y21057599D01*
X34557599Y20837900D01*
X34844649Y20719000D01*
X35155351Y20719000D01*
X35442401Y20837900D01*
X35662100Y21057599D01*
X35781000Y21344649D01*
X35781000Y21655351D01*
X35662100Y21942401D01*
X35442401Y22162100D01*
X35155351Y22281000D01*
X34844649Y22281000D01*
X34557599Y22162100D01*
X34337900Y21942401D01*
X34219000Y21655351D01*
X21931340Y21655351D01*
X21877324Y21785756D01*
X21685756Y21977324D01*
X21435459Y22081000D01*
X21164541Y22081000D01*
X20914244Y21977324D01*
X20839474Y21902554D01*
X20824686Y21924686D01*
X20820061Y21927776D01*
X20856000Y22014541D01*
X20856000Y22285459D01*
X20752324Y22535756D01*
X20560756Y22727324D01*
X20337435Y22819826D01*
X20338464Y22825000D01*
X20338464Y23575000D01*
X20308894Y23723659D01*
X20224686Y23849686D01*
X20224216Y23850000D01*
X20224686Y23850314D01*
X20308894Y23976341D01*
X20319587Y24030100D01*
X20628728Y24030100D01*
X20675000Y24020896D01*
X20721272Y24030100D01*
X20721276Y24030100D01*
X20858346Y24057365D01*
X21013778Y24161222D01*
X21039992Y24200454D01*
X23501097Y26661558D01*
X23525314Y26625314D01*
X23651341Y26541106D01*
X23800000Y26511536D01*
X26600000Y26511536D01*
X26748659Y26541106D01*
X26874686Y26625314D01*
X26958894Y26751341D01*
X26988464Y26900000D01*
X26988464Y29700000D01*
X26959650Y29844861D01*
X28169000Y29844861D01*
X28169000Y29355139D01*
X28356408Y28902694D01*
X28702694Y28556408D01*
X29155139Y28369000D01*
X29644861Y28369000D01*
X30097306Y28556408D01*
X30443592Y28902694D01*
X30631000Y29355139D01*
X30631000Y29844861D01*
X30443592Y30297306D01*
X30097306Y30643592D01*
X29644861Y30831000D01*
X29155139Y30831000D01*
X28702694Y30643592D01*
X28356408Y30297306D01*
X28169000Y29844861D01*
X26959650Y29844861D01*
X26958894Y29848659D01*
X26874686Y29974686D01*
X26748659Y30058894D01*
X26600000Y30088464D01*
X23800000Y30088464D01*
X23651341Y30058894D01*
X23525314Y29974686D01*
X23441106Y29848659D01*
X23411536Y29700000D01*
X23411536Y27901075D01*
X20480362Y24969900D01*
X20319587Y24969900D01*
X20308894Y25023659D01*
X20224686Y25149686D01*
X20224216Y25150000D01*
X20224686Y25150314D01*
X20308894Y25276341D01*
X20338464Y25425000D01*
X20338464Y26175000D01*
X20308894Y26323659D01*
X20224686Y26449686D01*
X20224216Y26450000D01*
X20224686Y26450314D01*
X20308894Y26576341D01*
X20338464Y26725000D01*
X20338464Y27475000D01*
X20308894Y27623659D01*
X20224686Y27749686D01*
X20098659Y27833894D01*
X20019900Y27849560D01*
X20019900Y31156820D01*
X20077324Y31214244D01*
X20181000Y31464541D01*
X20181000Y31735459D01*
X20077324Y31985756D01*
X19885756Y32177324D01*
X19635459Y32281000D01*
X19364541Y32281000D01*
X19114244Y32177324D01*
X18922676Y31985756D01*
X18819000Y31735459D01*
X18819000Y31464541D01*
X18922676Y31214244D01*
X19080101Y31056819D01*
X19080100Y27849560D01*
X19001341Y27833894D01*
X18875314Y27749686D01*
X18797099Y27632629D01*
X18772996Y27690819D01*
X18665820Y27797996D01*
X18525786Y27856000D01*
X18272250Y27856000D01*
X18177000Y27760750D01*
X18177000Y27227000D01*
X18197000Y27227000D01*
X18197000Y26973000D01*
X18177000Y26973000D01*
X18177000Y26953000D01*
X17923000Y26953000D01*
X17923000Y26973000D01*
X17364250Y26973000D01*
X17269000Y26877750D01*
X17269000Y26649215D01*
X17327004Y26509181D01*
X17382019Y26454166D01*
X17375314Y26449686D01*
X17291106Y26323659D01*
X17282939Y26282600D01*
X14755480Y26282600D01*
X14660756Y26377324D01*
X14410459Y26481000D01*
X14139541Y26481000D01*
X13889244Y26377324D01*
X13697676Y26185756D01*
X13594000Y25935459D01*
X13594000Y25664541D01*
X13697676Y25414244D01*
X13889244Y25222676D01*
X14139541Y25119000D01*
X14410459Y25119000D01*
X14660756Y25222676D01*
X14755480Y25317400D01*
X17282939Y25317400D01*
X17291106Y25276341D01*
X17375314Y25150314D01*
X17375784Y25150000D01*
X17375314Y25149686D01*
X17291106Y25023659D01*
X17282939Y24982600D01*
X15680480Y24982600D01*
X15585756Y25077324D01*
X15335459Y25181000D01*
X15064541Y25181000D01*
X14814244Y25077324D01*
X14622676Y24885756D01*
X14519000Y24635459D01*
X14519000Y24364541D01*
X14622676Y24114244D01*
X14814244Y23922676D01*
X15064541Y23819000D01*
X15335459Y23819000D01*
X15585756Y23922676D01*
X15680480Y24017400D01*
X17282939Y24017400D01*
X17291106Y23976341D01*
X17375314Y23850314D01*
X17382019Y23845834D01*
X17327004Y23790819D01*
X17269000Y23650785D01*
X17269000Y23422250D01*
X17364250Y23327000D01*
X17923000Y23327000D01*
X17923000Y23347000D01*
X18177000Y23347000D01*
X18177000Y23327000D01*
X18197000Y23327000D01*
X18197000Y23073000D01*
X18177000Y23073000D01*
X18177000Y22539250D01*
X18272250Y22444000D01*
X18525786Y22444000D01*
X18665820Y22502004D01*
X18772996Y22609181D01*
X18797099Y22667371D01*
X18875314Y22550314D01*
X19001341Y22466106D01*
X19150000Y22436536D01*
X19556578Y22436536D01*
X19494000Y22285459D01*
X19494000Y22014541D01*
X19529939Y21927776D01*
X19525314Y21924686D01*
X19441106Y21798659D01*
X19425440Y21719900D01*
X19368471Y21719900D01*
X19322199Y21729104D01*
X19275927Y21719900D01*
X19275924Y21719900D01*
X19138854Y21692635D01*
X19075047Y21650000D01*
X18983422Y21588778D01*
X18957209Y21549548D01*
X18300452Y20892790D01*
X18261223Y20866578D01*
X18235011Y20827349D01*
X18235009Y20827347D01*
X18157365Y20711145D01*
X18150108Y20674661D01*
X18150000Y20674589D01*
X18098659Y20708894D01*
X17950000Y20738464D01*
X17450000Y20738464D01*
X17301341Y20708894D01*
X17175314Y20624686D01*
X17113785Y20532600D01*
X16981939Y20532600D01*
X15889992Y21624546D01*
X15863778Y21663778D01*
X15708346Y21767635D01*
X15571276Y21794900D01*
X15571272Y21794900D01*
X15548666Y21799397D01*
X15533894Y21873659D01*
X15449686Y21999686D01*
X15323659Y22083894D01*
X15175000Y22113464D01*
X14425000Y22113464D01*
X14276341Y22083894D01*
X14150314Y21999686D01*
X14066106Y21873659D01*
X14050440Y21794900D01*
X12169639Y21794900D01*
X11881000Y22083538D01*
X11881000Y22235459D01*
X11777324Y22485756D01*
X11585756Y22677324D01*
X11335459Y22781000D01*
X11064541Y22781000D01*
X11060881Y22779484D01*
X11108894Y22851341D01*
X11134038Y22977750D01*
X17269000Y22977750D01*
X17269000Y22749215D01*
X17327004Y22609181D01*
X17434180Y22502004D01*
X17574214Y22444000D01*
X17827750Y22444000D01*
X17923000Y22539250D01*
X17923000Y23073000D01*
X17364250Y23073000D01*
X17269000Y22977750D01*
X11134038Y22977750D01*
X11138464Y23000000D01*
X11138464Y25800000D01*
X11108894Y25948659D01*
X11024686Y26074686D01*
X10898659Y26158894D01*
X10750000Y26188464D01*
X7950000Y26188464D01*
X7801341Y26158894D01*
X7675314Y26074686D01*
X7591106Y25948659D01*
X7561536Y25800000D01*
X456000Y25800000D01*
X456000Y29700000D01*
X2611536Y29700000D01*
X2611536Y26900000D01*
X2641106Y26751341D01*
X2725314Y26625314D01*
X2851341Y26541106D01*
X3000000Y26511536D01*
X5800000Y26511536D01*
X5948659Y26541106D01*
X6043797Y26604675D01*
X6122676Y26414244D01*
X6314244Y26222676D01*
X6564541Y26119000D01*
X6835459Y26119000D01*
X7085756Y26222676D01*
X7277324Y26414244D01*
X7381000Y26664541D01*
X7381000Y26935459D01*
X7277324Y27185756D01*
X7085756Y27377324D01*
X6835459Y27481000D01*
X6701499Y27481000D01*
X6631714Y27550785D01*
X17269000Y27550785D01*
X17269000Y27322250D01*
X17364250Y27227000D01*
X17923000Y27227000D01*
X17923000Y27760750D01*
X17827750Y27856000D01*
X17574214Y27856000D01*
X17434180Y27797996D01*
X17327004Y27690819D01*
X17269000Y27550785D01*
X6631714Y27550785D01*
X6188464Y27994034D01*
X6188464Y29700000D01*
X6159650Y29844861D01*
X7369000Y29844861D01*
X7369000Y29355139D01*
X7556408Y28902694D01*
X7902694Y28556408D01*
X8355139Y28369000D01*
X8844861Y28369000D01*
X9297306Y28556408D01*
X9643592Y28902694D01*
X9831000Y29355139D01*
X9831000Y29844861D01*
X9643592Y30297306D01*
X9297306Y30643592D01*
X8844861Y30831000D01*
X8355139Y30831000D01*
X7902694Y30643592D01*
X7556408Y30297306D01*
X7369000Y29844861D01*
X6159650Y29844861D01*
X6158894Y29848659D01*
X6074686Y29974686D01*
X5948659Y30058894D01*
X5800000Y30088464D01*
X3000000Y30088464D01*
X2851341Y30058894D01*
X2725314Y29974686D01*
X2641106Y29848659D01*
X2611536Y29700000D01*
X456000Y29700000D01*
X456000Y37477750D01*
X2619000Y37477750D01*
X2619000Y36524214D01*
X2677004Y36384180D01*
X2784181Y36277004D01*
X2924215Y36219000D01*
X4177750Y36219000D01*
X4273000Y36314250D01*
X4273000Y37573000D01*
X4527000Y37573000D01*
X4527000Y36314250D01*
X4622250Y36219000D01*
X5875785Y36219000D01*
X6015819Y36277004D01*
X6122996Y36384180D01*
X6181000Y36524214D01*
X6181000Y36844861D01*
X7369000Y36844861D01*
X7369000Y36355139D01*
X7556408Y35902694D01*
X7902694Y35556408D01*
X8355139Y35369000D01*
X8844861Y35369000D01*
X9297306Y35556408D01*
X9643592Y35902694D01*
X9831000Y36355139D01*
X9831000Y36800000D01*
X11011536Y36800000D01*
X11011536Y34600000D01*
X11041106Y34451341D01*
X11125314Y34325314D01*
X11251341Y34241106D01*
X11400000Y34211536D01*
X12246997Y34211536D01*
X12216461Y34181000D01*
X12064541Y34181000D01*
X11814244Y34077324D01*
X11622676Y33885756D01*
X11519000Y33635459D01*
X11519000Y33364541D01*
X11622676Y33114244D01*
X11814244Y32922676D01*
X12064541Y32819000D01*
X12335459Y32819000D01*
X12585756Y32922676D01*
X12777324Y33114244D01*
X12881000Y33364541D01*
X12881000Y33516461D01*
X13099549Y33735010D01*
X13138778Y33761222D01*
X13221990Y33885756D01*
X13242635Y33916654D01*
X13242635Y33916655D01*
X13269900Y34053724D01*
X13269900Y34053727D01*
X13279104Y34099999D01*
X13269900Y34146271D01*
X13269900Y34211536D01*
X14200000Y34211536D01*
X14348659Y34241106D01*
X14474686Y34325314D01*
X14558894Y34451341D01*
X14588464Y34600000D01*
X14588464Y36800000D01*
X14558894Y36948659D01*
X14474686Y37074686D01*
X14348659Y37158894D01*
X14200000Y37188464D01*
X11400000Y37188464D01*
X11251341Y37158894D01*
X11125314Y37074686D01*
X11041106Y36948659D01*
X11011536Y36800000D01*
X9831000Y36800000D01*
X9831000Y36844861D01*
X9643592Y37297306D01*
X9297306Y37643592D01*
X8844861Y37831000D01*
X8355139Y37831000D01*
X7902694Y37643592D01*
X7556408Y37297306D01*
X7369000Y36844861D01*
X6181000Y36844861D01*
X6181000Y37477750D01*
X6085750Y37573000D01*
X4527000Y37573000D01*
X4273000Y37573000D01*
X2714250Y37573000D01*
X2619000Y37477750D01*
X456000Y37477750D01*
X456000Y38099630D01*
X458611Y38104960D01*
X475654Y38178489D01*
X542264Y38621546D01*
X664348Y38875786D01*
X2619000Y38875786D01*
X2619000Y37922250D01*
X2714250Y37827000D01*
X4273000Y37827000D01*
X4273000Y39085750D01*
X4527000Y39085750D01*
X4527000Y37827000D01*
X6085750Y37827000D01*
X6181000Y37922250D01*
X6181000Y38875786D01*
X6122996Y39015820D01*
X6015819Y39122996D01*
X5875785Y39181000D01*
X4622250Y39181000D01*
X4527000Y39085750D01*
X4273000Y39085750D01*
X4177750Y39181000D01*
X2924215Y39181000D01*
X2784181Y39122996D01*
X2677004Y39015820D01*
X2619000Y38875786D01*
X664348Y38875786D01*
X704906Y38960246D01*
X959946Y39236147D01*
X1284839Y39424860D01*
X1677013Y39515761D01*
X1768885Y39519371D01*
X1897993Y39544000D01*
X23166478Y39544000D01*
X23160197Y39539803D01*
G36*
X16158850Y9060000D02*
X16494600Y9060000D01*
X16494600Y9080000D01*
X16538850Y9080000D01*
X16558850Y9060000D01*
X16644600Y9060000D01*
X16644600Y8806000D01*
X16558850Y8806000D01*
X16538850Y8786000D01*
X16494600Y8786000D01*
X16494600Y8806000D01*
X16158850Y8806000D01*
X16063600Y8710750D01*
X16063600Y8482214D01*
X16105716Y8380537D01*
X16085009Y8349547D01*
X15875454Y8139992D01*
X15836222Y8113778D01*
X15732365Y7958345D01*
X15727549Y7934134D01*
X15726341Y7933894D01*
X15608180Y7854942D01*
X15585798Y7877324D01*
X15335501Y7981000D01*
X15064583Y7981000D01*
X14906352Y7915459D01*
X14910296Y7935289D01*
X14962278Y7970022D01*
X14988492Y8009254D01*
X15265948Y8286709D01*
X15305178Y8312922D01*
X15332685Y8354088D01*
X15363059Y8399547D01*
X15409035Y8468354D01*
X15436300Y8605424D01*
X15436300Y8605428D01*
X15445504Y8651700D01*
X15436300Y8697972D01*
X15436300Y8838062D01*
X15742775Y9144536D01*
X16074314Y9144536D01*
X16158850Y9060000D01*
X16158850Y9060000D01*
G37*
X16158850Y9060000D02*
X16494600Y9060000D01*
X16494600Y9080000D01*
X16538850Y9080000D01*
X16558850Y9060000D01*
X16644600Y9060000D01*
X16644600Y8806000D01*
X16558850Y8806000D01*
X16538850Y8786000D01*
X16494600Y8786000D01*
X16494600Y8806000D01*
X16158850Y8806000D01*
X16063600Y8710750D01*
X16063600Y8482214D01*
X16105716Y8380537D01*
X16085009Y8349547D01*
X15875454Y8139992D01*
X15836222Y8113778D01*
X15732365Y7958345D01*
X15727549Y7934134D01*
X15726341Y7933894D01*
X15608180Y7854942D01*
X15585798Y7877324D01*
X15335501Y7981000D01*
X15064583Y7981000D01*
X14906352Y7915459D01*
X14910296Y7935289D01*
X14962278Y7970022D01*
X14988492Y8009254D01*
X15265948Y8286709D01*
X15305178Y8312922D01*
X15332685Y8354088D01*
X15363059Y8399547D01*
X15409035Y8468354D01*
X15436300Y8605424D01*
X15436300Y8605428D01*
X15445504Y8651700D01*
X15436300Y8697972D01*
X15436300Y8838062D01*
X15742775Y9144536D01*
X16074314Y9144536D01*
X16158850Y9060000D01*
G36*
X20919920Y9533000D02*
X20717600Y9533000D01*
X20717600Y9544536D01*
X20931456Y9544536D01*
X20919920Y9533000D01*
X20919920Y9533000D01*
G37*
X20919920Y9533000D02*
X20717600Y9533000D01*
X20717600Y9544536D01*
X20931456Y9544536D01*
X20919920Y9533000D01*
G36*
X17521600Y12510000D02*
X19167600Y12510000D01*
X19167600Y12530000D01*
X19421600Y12530000D01*
X19421600Y12510000D01*
X19441600Y12510000D01*
X19441600Y12256000D01*
X19421600Y12256000D01*
X19421600Y10610000D01*
X19441600Y10610000D01*
X19441600Y10356000D01*
X19421600Y10356000D01*
X19421600Y10336000D01*
X19167600Y10336000D01*
X19167600Y10356000D01*
X17521600Y10356000D01*
X17521600Y10336000D01*
X17267600Y10336000D01*
X17267600Y10356000D01*
X17247600Y10356000D01*
X17247600Y10610000D01*
X17267600Y10610000D01*
X17267600Y12256000D01*
X17521600Y12256000D01*
X17521600Y10610000D01*
X19167600Y10610000D01*
X19167600Y12256000D01*
X17521600Y12256000D01*
X17267600Y12256000D01*
X17247600Y12256000D01*
X17247600Y12510000D01*
X17267600Y12510000D01*
X17267600Y12530000D01*
X17521600Y12530000D01*
X17521600Y12510000D01*
X17521600Y12510000D01*
G37*
X17521600Y12510000D02*
X19167600Y12510000D01*
X19167600Y12530000D01*
X19421600Y12530000D01*
X19421600Y12510000D01*
X19441600Y12510000D01*
X19441600Y12256000D01*
X19421600Y12256000D01*
X19421600Y10610000D01*
X19441600Y10610000D01*
X19441600Y10356000D01*
X19421600Y10356000D01*
X19421600Y10336000D01*
X19167600Y10336000D01*
X19167600Y10356000D01*
X17521600Y10356000D01*
X17521600Y10336000D01*
X17267600Y10336000D01*
X17267600Y10356000D01*
X17247600Y10356000D01*
X17247600Y10610000D01*
X17267600Y10610000D01*
X17267600Y12256000D01*
X17521600Y12256000D01*
X17521600Y10610000D01*
X19167600Y10610000D01*
X19167600Y12256000D01*
X17521600Y12256000D01*
X17267600Y12256000D01*
X17247600Y12256000D01*
X17247600Y12510000D01*
X17267600Y12510000D01*
X17267600Y12530000D01*
X17521600Y12530000D01*
X17521600Y12510000D01*
G04 #@! TD*
M02*
