G04 #@! TF.GenerationSoftware,KiCad,Pcbnew,(5.0.1-3-g963ef8bb5)*
G04 #@! TF.CreationDate,2019-03-19T16:07:13-04:00*
G04 #@! TF.ProjectId,Tympan_AIC_Shield,54796D70616E5F4149435F536869656C,rev?*
G04 #@! TF.SameCoordinates,PX6d878d0PY5279480*
G04 #@! TF.FileFunction,Legend,Top*
G04 #@! TF.FilePolarity,Positive*
%FSLAX46Y46*%
G04 Gerber Fmt 4.6, Leading zero omitted, Abs format (unit mm)*
G04 Created by KiCad (PCBNEW (5.0.1-3-g963ef8bb5)) date Tuesday, March 19, 2019 at 04:07:13 PM*
%MOMM*%
%LPD*%
G01*
G04 APERTURE LIST*
%ADD10C,0.250000*%
%ADD11C,0.177800*%
%ADD12C,0.010000*%
%ADD13C,0.120000*%
%ADD14C,0.150000*%
%ADD15C,0.300000*%
%ADD16C,0.127000*%
G04 APERTURE END LIST*
D10*
X14581547Y4047024D02*
X15295833Y4047024D01*
X14938690Y2797024D02*
X14938690Y4047024D01*
X15593452Y3630358D02*
X15891071Y2797024D01*
X16188690Y3630358D02*
X15891071Y2797024D01*
X15772023Y2499405D01*
X15712500Y2439881D01*
X15593452Y2380358D01*
X16664880Y2797024D02*
X16664880Y3630358D01*
X16664880Y3511310D02*
X16724404Y3570834D01*
X16843452Y3630358D01*
X17022023Y3630358D01*
X17141071Y3570834D01*
X17200595Y3451786D01*
X17200595Y2797024D01*
X17200595Y3451786D02*
X17260119Y3570834D01*
X17379166Y3630358D01*
X17557738Y3630358D01*
X17676785Y3570834D01*
X17736309Y3451786D01*
X17736309Y2797024D01*
X18331547Y3630358D02*
X18331547Y2380358D01*
X18331547Y3570834D02*
X18450595Y3630358D01*
X18688690Y3630358D01*
X18807738Y3570834D01*
X18867261Y3511310D01*
X18926785Y3392262D01*
X18926785Y3035120D01*
X18867261Y2916072D01*
X18807738Y2856548D01*
X18688690Y2797024D01*
X18450595Y2797024D01*
X18331547Y2856548D01*
X19998214Y2797024D02*
X19998214Y3451786D01*
X19938690Y3570834D01*
X19819642Y3630358D01*
X19581547Y3630358D01*
X19462500Y3570834D01*
X19998214Y2856548D02*
X19879166Y2797024D01*
X19581547Y2797024D01*
X19462500Y2856548D01*
X19402976Y2975596D01*
X19402976Y3094643D01*
X19462500Y3213691D01*
X19581547Y3273215D01*
X19879166Y3273215D01*
X19998214Y3332739D01*
X20593452Y3630358D02*
X20593452Y2797024D01*
X20593452Y3511310D02*
X20652976Y3570834D01*
X20772023Y3630358D01*
X20950595Y3630358D01*
X21069642Y3570834D01*
X21129166Y3451786D01*
X21129166Y2797024D01*
X14700595Y1029167D02*
X15295833Y1029167D01*
X14581547Y672024D02*
X14998214Y1922024D01*
X15414880Y672024D01*
X15831547Y672024D02*
X15831547Y1922024D01*
X17141071Y791072D02*
X17081547Y731548D01*
X16902976Y672024D01*
X16783928Y672024D01*
X16605357Y731548D01*
X16486309Y850596D01*
X16426785Y969643D01*
X16367261Y1207739D01*
X16367261Y1386310D01*
X16426785Y1624405D01*
X16486309Y1743453D01*
X16605357Y1862500D01*
X16783928Y1922024D01*
X16902976Y1922024D01*
X17081547Y1862500D01*
X17141071Y1802977D01*
X18569642Y731548D02*
X18748214Y672024D01*
X19045833Y672024D01*
X19164880Y731548D01*
X19224404Y791072D01*
X19283928Y910120D01*
X19283928Y1029167D01*
X19224404Y1148215D01*
X19164880Y1207739D01*
X19045833Y1267262D01*
X18807738Y1326786D01*
X18688690Y1386310D01*
X18629166Y1445834D01*
X18569642Y1564881D01*
X18569642Y1683929D01*
X18629166Y1802977D01*
X18688690Y1862500D01*
X18807738Y1922024D01*
X19105357Y1922024D01*
X19283928Y1862500D01*
X19819642Y672024D02*
X19819642Y1922024D01*
X20355357Y672024D02*
X20355357Y1326786D01*
X20295833Y1445834D01*
X20176785Y1505358D01*
X19998214Y1505358D01*
X19879166Y1445834D01*
X19819642Y1386310D01*
X20950595Y672024D02*
X20950595Y1505358D01*
X20950595Y1922024D02*
X20891071Y1862500D01*
X20950595Y1802977D01*
X21010119Y1862500D01*
X20950595Y1922024D01*
X20950595Y1802977D01*
X22022023Y731548D02*
X21902976Y672024D01*
X21664880Y672024D01*
X21545833Y731548D01*
X21486309Y850596D01*
X21486309Y1326786D01*
X21545833Y1445834D01*
X21664880Y1505358D01*
X21902976Y1505358D01*
X22022023Y1445834D01*
X22081547Y1326786D01*
X22081547Y1207739D01*
X21486309Y1088691D01*
X22795833Y672024D02*
X22676785Y731548D01*
X22617261Y850596D01*
X22617261Y1922024D01*
X23807738Y672024D02*
X23807738Y1922024D01*
X23807738Y731548D02*
X23688690Y672024D01*
X23450595Y672024D01*
X23331547Y731548D01*
X23272023Y791072D01*
X23212500Y910120D01*
X23212500Y1267262D01*
X23272023Y1386310D01*
X23331547Y1445834D01*
X23450595Y1505358D01*
X23688690Y1505358D01*
X23807738Y1445834D01*
D11*
X11755428Y24105286D02*
X11755428Y24867286D01*
X12118285Y24105286D02*
X12118285Y24867286D01*
X12553714Y24105286D01*
X12553714Y24867286D01*
X12916571Y24105286D02*
X12916571Y24867286D01*
X13206857Y24867286D01*
X13279428Y24831000D01*
X13315714Y24794715D01*
X13352000Y24722143D01*
X13352000Y24613286D01*
X13315714Y24540715D01*
X13279428Y24504429D01*
X13206857Y24468143D01*
X12916571Y24468143D01*
X13678571Y24867286D02*
X13678571Y24250429D01*
X13714857Y24177858D01*
X13751142Y24141572D01*
X13823714Y24105286D01*
X13968857Y24105286D01*
X14041428Y24141572D01*
X14077714Y24177858D01*
X14114000Y24250429D01*
X14114000Y24867286D01*
X14368000Y24867286D02*
X14803428Y24867286D01*
X14585714Y24105286D02*
X14585714Y24867286D01*
X22342571Y25017286D02*
X22487714Y25017286D01*
X22560285Y24981000D01*
X22632857Y24908429D01*
X22669142Y24763286D01*
X22669142Y24509286D01*
X22632857Y24364143D01*
X22560285Y24291572D01*
X22487714Y24255286D01*
X22342571Y24255286D01*
X22270000Y24291572D01*
X22197428Y24364143D01*
X22161142Y24509286D01*
X22161142Y24763286D01*
X22197428Y24908429D01*
X22270000Y24981000D01*
X22342571Y25017286D01*
X22995714Y25017286D02*
X22995714Y24400429D01*
X23032000Y24327858D01*
X23068285Y24291572D01*
X23140857Y24255286D01*
X23286000Y24255286D01*
X23358571Y24291572D01*
X23394857Y24327858D01*
X23431142Y24400429D01*
X23431142Y25017286D01*
X23685142Y25017286D02*
X24120571Y25017286D01*
X23902857Y24255286D02*
X23902857Y25017286D01*
X24374571Y24255286D02*
X24374571Y25017286D01*
X24664857Y25017286D01*
X24737428Y24981000D01*
X24773714Y24944715D01*
X24810000Y24872143D01*
X24810000Y24763286D01*
X24773714Y24690715D01*
X24737428Y24654429D01*
X24664857Y24618143D01*
X24374571Y24618143D01*
X25136571Y25017286D02*
X25136571Y24400429D01*
X25172857Y24327858D01*
X25209142Y24291572D01*
X25281714Y24255286D01*
X25426857Y24255286D01*
X25499428Y24291572D01*
X25535714Y24327858D01*
X25572000Y24400429D01*
X25572000Y25017286D01*
X25826000Y25017286D02*
X26261428Y25017286D01*
X26043714Y24255286D02*
X26043714Y25017286D01*
X1984000Y23155286D02*
X1730000Y23518143D01*
X1548571Y23155286D02*
X1548571Y23917286D01*
X1838857Y23917286D01*
X1911428Y23881000D01*
X1947714Y23844715D01*
X1984000Y23772143D01*
X1984000Y23663286D01*
X1947714Y23590715D01*
X1911428Y23554429D01*
X1838857Y23518143D01*
X1548571Y23518143D01*
X2310571Y23155286D02*
X2310571Y23917286D01*
X3072571Y23881000D02*
X3000000Y23917286D01*
X2891142Y23917286D01*
X2782285Y23881000D01*
X2709714Y23808429D01*
X2673428Y23735858D01*
X2637142Y23590715D01*
X2637142Y23481858D01*
X2673428Y23336715D01*
X2709714Y23264143D01*
X2782285Y23191572D01*
X2891142Y23155286D01*
X2963714Y23155286D01*
X3072571Y23191572D01*
X3108857Y23227858D01*
X3108857Y23481858D01*
X2963714Y23481858D01*
X3435428Y23155286D02*
X3435428Y23917286D01*
X3435428Y23554429D02*
X3870857Y23554429D01*
X3870857Y23155286D02*
X3870857Y23917286D01*
X4124857Y23917286D02*
X4560285Y23917286D01*
X4342571Y23155286D02*
X4342571Y23917286D01*
X34274285Y23155286D02*
X33911428Y23155286D01*
X33911428Y23917286D01*
X34528285Y23554429D02*
X34782285Y23554429D01*
X34891142Y23155286D02*
X34528285Y23155286D01*
X34528285Y23917286D01*
X34891142Y23917286D01*
X35471714Y23554429D02*
X35217714Y23554429D01*
X35217714Y23155286D02*
X35217714Y23917286D01*
X35580571Y23917286D01*
X35762000Y23917286D02*
X36197428Y23917286D01*
X35979714Y23155286D02*
X35979714Y23917286D01*
D12*
G04 #@! TO.C,G\002A\002A\002A*
G36*
X21101558Y37733056D02*
X21972512Y37510696D01*
X22477000Y37302495D01*
X22956583Y37002662D01*
X23433578Y36583505D01*
X23864460Y36090012D01*
X24205704Y35567169D01*
X24262158Y35457333D01*
X24380456Y35208863D01*
X24461009Y35007309D01*
X24510965Y34810412D01*
X24537473Y34575914D01*
X24547681Y34261555D01*
X24548737Y33825077D01*
X24548591Y33764000D01*
X24544025Y33290126D01*
X24529063Y32941182D01*
X24497694Y32672823D01*
X24443905Y32440702D01*
X24361685Y32200473D01*
X24323216Y32101567D01*
X23878204Y31201945D01*
X23284905Y30378347D01*
X22767182Y29832164D01*
X22148525Y29287451D01*
X21547542Y28858633D01*
X20908243Y28512331D01*
X20174638Y28215165D01*
X19894667Y28119682D01*
X19452125Y28014769D01*
X18902581Y27944191D01*
X18305337Y27910402D01*
X17719695Y27915858D01*
X17204959Y27963015D01*
X17005377Y28000058D01*
X16227461Y28257821D01*
X15513331Y28651718D01*
X14890487Y29162273D01*
X14386430Y29770009D01*
X14288655Y29924044D01*
X13972043Y30611740D01*
X13801091Y31359534D01*
X13780274Y31941246D01*
X14010333Y31941246D01*
X14089455Y31148206D01*
X14320502Y30419346D01*
X14693991Y29767637D01*
X15200443Y29206052D01*
X15830376Y28747560D01*
X16574311Y28405133D01*
X16601859Y28395560D01*
X17026679Y28266424D01*
X17305524Y28221612D01*
X17439246Y28261096D01*
X17437151Y28366500D01*
X17402619Y28518575D01*
X17367824Y28787276D01*
X17339286Y29120035D01*
X17334764Y29192000D01*
X17331108Y29319000D01*
X17608898Y29319000D01*
X17616101Y28833793D01*
X17653922Y28495979D01*
X17747167Y28283718D01*
X17920641Y28175172D01*
X18199149Y28148500D01*
X18607496Y28181862D01*
X18864239Y28213731D01*
X19159759Y28257030D01*
X19382887Y28299465D01*
X19486175Y28331984D01*
X19486698Y28332476D01*
X19493048Y28443517D01*
X19436750Y28662952D01*
X19333681Y28949150D01*
X19199715Y29260479D01*
X19050730Y29555308D01*
X18965186Y29700000D01*
X18752243Y29994006D01*
X18507330Y30270879D01*
X18264821Y30497497D01*
X18059092Y30640740D01*
X17954659Y30673667D01*
X17820905Y30592605D01*
X17716350Y30360094D01*
X17645081Y29992144D01*
X17611185Y29504769D01*
X17608898Y29319000D01*
X17331108Y29319000D01*
X17323006Y29600362D01*
X17349466Y29911683D01*
X17422215Y30195553D01*
X17464880Y30313858D01*
X17544934Y30563521D01*
X17574555Y30744796D01*
X17558208Y30805688D01*
X17519505Y30870031D01*
X18160629Y30870031D01*
X18489112Y30606055D01*
X18807194Y30289676D01*
X19127752Y29868201D01*
X19411684Y29400684D01*
X19619886Y28946179D01*
X19653694Y28847331D01*
X19746832Y28598178D01*
X19837051Y28431675D01*
X19888962Y28388701D01*
X20004359Y28421238D01*
X20231061Y28506787D01*
X20525980Y28628809D01*
X20616723Y28668048D01*
X21437486Y29084105D01*
X22153818Y29579942D01*
X22815995Y30192556D01*
X23076682Y30478263D01*
X23506032Y31033684D01*
X23852576Y31613558D01*
X24109433Y32194311D01*
X24269722Y32752365D01*
X24326561Y33264146D01*
X24273070Y33706078D01*
X24115511Y34037447D01*
X23891567Y34297986D01*
X23655172Y34468900D01*
X23360113Y34570860D01*
X22960176Y34624539D01*
X22776799Y34636280D01*
X22391628Y34668551D01*
X22173966Y34710814D01*
X22123746Y34755089D01*
X22240903Y34793392D01*
X22525371Y34817742D01*
X22778330Y34822333D01*
X23118687Y34835145D01*
X23333841Y34869856D01*
X23411557Y34920882D01*
X23339604Y34982639D01*
X23217833Y35022969D01*
X22773232Y35073283D01*
X22296914Y35015460D01*
X22051867Y34938735D01*
X21838753Y34861969D01*
X21704035Y34829506D01*
X21683857Y34832902D01*
X21420426Y35294051D01*
X21305287Y35770097D01*
X21338401Y36233837D01*
X21519729Y36658071D01*
X21686839Y36869127D01*
X21827505Y37022673D01*
X21855887Y37090708D01*
X21778988Y37107904D01*
X21735149Y37108333D01*
X21520574Y37029635D01*
X21323386Y36817295D01*
X21165444Y36506944D01*
X21068603Y36134217D01*
X21053266Y35996694D01*
X21041802Y35713618D01*
X21069167Y35500521D01*
X21154039Y35289147D01*
X21315098Y35011238D01*
X21329194Y34988362D01*
X21534207Y34620240D01*
X21619128Y34346074D01*
X21577126Y34133943D01*
X21401370Y33951922D01*
X21085030Y33768090D01*
X21066054Y33758603D01*
X20367237Y33342039D01*
X19690511Y32810921D01*
X19078598Y32204819D01*
X18574220Y31563300D01*
X18405838Y31294750D01*
X18160629Y30870031D01*
X17519505Y30870031D01*
X17479436Y30936642D01*
X17550658Y31134376D01*
X17768834Y31393179D01*
X17966837Y31573549D01*
X18461813Y32020712D01*
X18936994Y32499030D01*
X19375559Y32987048D01*
X19760685Y33463311D01*
X20075552Y33906365D01*
X20209339Y34134482D01*
X20614768Y34134482D01*
X20670778Y34032111D01*
X20786619Y33977180D01*
X20854873Y34076888D01*
X20868333Y34219300D01*
X20910092Y34434166D01*
X20995333Y34568333D01*
X21107414Y34704627D01*
X21097622Y34800963D01*
X21023167Y34822333D01*
X20847806Y34749633D01*
X20703621Y34571144D01*
X20617109Y34346287D01*
X20614768Y34134482D01*
X20209339Y34134482D01*
X20303337Y34294754D01*
X20427221Y34607024D01*
X20445000Y34734294D01*
X20372716Y34930868D01*
X20175832Y35169606D01*
X19884296Y35423473D01*
X19528058Y35665438D01*
X19241968Y35820177D01*
X18917171Y35959977D01*
X18493269Y36119047D01*
X18035005Y36273907D01*
X17752806Y36360193D01*
X16823523Y36630183D01*
X16257825Y36180044D01*
X15573807Y35547189D01*
X14997277Y34832073D01*
X14541083Y34058927D01*
X14218073Y33251980D01*
X14041094Y32435465D01*
X14010333Y31941246D01*
X13780274Y31941246D01*
X13772939Y32146180D01*
X13884729Y32950437D01*
X14133602Y33751062D01*
X14516698Y34526811D01*
X15001431Y35220243D01*
X15377825Y35647017D01*
X15820809Y36095295D01*
X16265676Y36501271D01*
X16475853Y36674153D01*
X16721782Y36834750D01*
X17075644Y37026420D01*
X17485524Y37224352D01*
X17899510Y37403736D01*
X18265687Y37539760D01*
X18328333Y37559493D01*
X19246786Y37759479D01*
X20182088Y37816659D01*
X21101558Y37733056D01*
X21101558Y37733056D01*
G37*
X21101558Y37733056D02*
X21972512Y37510696D01*
X22477000Y37302495D01*
X22956583Y37002662D01*
X23433578Y36583505D01*
X23864460Y36090012D01*
X24205704Y35567169D01*
X24262158Y35457333D01*
X24380456Y35208863D01*
X24461009Y35007309D01*
X24510965Y34810412D01*
X24537473Y34575914D01*
X24547681Y34261555D01*
X24548737Y33825077D01*
X24548591Y33764000D01*
X24544025Y33290126D01*
X24529063Y32941182D01*
X24497694Y32672823D01*
X24443905Y32440702D01*
X24361685Y32200473D01*
X24323216Y32101567D01*
X23878204Y31201945D01*
X23284905Y30378347D01*
X22767182Y29832164D01*
X22148525Y29287451D01*
X21547542Y28858633D01*
X20908243Y28512331D01*
X20174638Y28215165D01*
X19894667Y28119682D01*
X19452125Y28014769D01*
X18902581Y27944191D01*
X18305337Y27910402D01*
X17719695Y27915858D01*
X17204959Y27963015D01*
X17005377Y28000058D01*
X16227461Y28257821D01*
X15513331Y28651718D01*
X14890487Y29162273D01*
X14386430Y29770009D01*
X14288655Y29924044D01*
X13972043Y30611740D01*
X13801091Y31359534D01*
X13780274Y31941246D01*
X14010333Y31941246D01*
X14089455Y31148206D01*
X14320502Y30419346D01*
X14693991Y29767637D01*
X15200443Y29206052D01*
X15830376Y28747560D01*
X16574311Y28405133D01*
X16601859Y28395560D01*
X17026679Y28266424D01*
X17305524Y28221612D01*
X17439246Y28261096D01*
X17437151Y28366500D01*
X17402619Y28518575D01*
X17367824Y28787276D01*
X17339286Y29120035D01*
X17334764Y29192000D01*
X17331108Y29319000D01*
X17608898Y29319000D01*
X17616101Y28833793D01*
X17653922Y28495979D01*
X17747167Y28283718D01*
X17920641Y28175172D01*
X18199149Y28148500D01*
X18607496Y28181862D01*
X18864239Y28213731D01*
X19159759Y28257030D01*
X19382887Y28299465D01*
X19486175Y28331984D01*
X19486698Y28332476D01*
X19493048Y28443517D01*
X19436750Y28662952D01*
X19333681Y28949150D01*
X19199715Y29260479D01*
X19050730Y29555308D01*
X18965186Y29700000D01*
X18752243Y29994006D01*
X18507330Y30270879D01*
X18264821Y30497497D01*
X18059092Y30640740D01*
X17954659Y30673667D01*
X17820905Y30592605D01*
X17716350Y30360094D01*
X17645081Y29992144D01*
X17611185Y29504769D01*
X17608898Y29319000D01*
X17331108Y29319000D01*
X17323006Y29600362D01*
X17349466Y29911683D01*
X17422215Y30195553D01*
X17464880Y30313858D01*
X17544934Y30563521D01*
X17574555Y30744796D01*
X17558208Y30805688D01*
X17519505Y30870031D01*
X18160629Y30870031D01*
X18489112Y30606055D01*
X18807194Y30289676D01*
X19127752Y29868201D01*
X19411684Y29400684D01*
X19619886Y28946179D01*
X19653694Y28847331D01*
X19746832Y28598178D01*
X19837051Y28431675D01*
X19888962Y28388701D01*
X20004359Y28421238D01*
X20231061Y28506787D01*
X20525980Y28628809D01*
X20616723Y28668048D01*
X21437486Y29084105D01*
X22153818Y29579942D01*
X22815995Y30192556D01*
X23076682Y30478263D01*
X23506032Y31033684D01*
X23852576Y31613558D01*
X24109433Y32194311D01*
X24269722Y32752365D01*
X24326561Y33264146D01*
X24273070Y33706078D01*
X24115511Y34037447D01*
X23891567Y34297986D01*
X23655172Y34468900D01*
X23360113Y34570860D01*
X22960176Y34624539D01*
X22776799Y34636280D01*
X22391628Y34668551D01*
X22173966Y34710814D01*
X22123746Y34755089D01*
X22240903Y34793392D01*
X22525371Y34817742D01*
X22778330Y34822333D01*
X23118687Y34835145D01*
X23333841Y34869856D01*
X23411557Y34920882D01*
X23339604Y34982639D01*
X23217833Y35022969D01*
X22773232Y35073283D01*
X22296914Y35015460D01*
X22051867Y34938735D01*
X21838753Y34861969D01*
X21704035Y34829506D01*
X21683857Y34832902D01*
X21420426Y35294051D01*
X21305287Y35770097D01*
X21338401Y36233837D01*
X21519729Y36658071D01*
X21686839Y36869127D01*
X21827505Y37022673D01*
X21855887Y37090708D01*
X21778988Y37107904D01*
X21735149Y37108333D01*
X21520574Y37029635D01*
X21323386Y36817295D01*
X21165444Y36506944D01*
X21068603Y36134217D01*
X21053266Y35996694D01*
X21041802Y35713618D01*
X21069167Y35500521D01*
X21154039Y35289147D01*
X21315098Y35011238D01*
X21329194Y34988362D01*
X21534207Y34620240D01*
X21619128Y34346074D01*
X21577126Y34133943D01*
X21401370Y33951922D01*
X21085030Y33768090D01*
X21066054Y33758603D01*
X20367237Y33342039D01*
X19690511Y32810921D01*
X19078598Y32204819D01*
X18574220Y31563300D01*
X18405838Y31294750D01*
X18160629Y30870031D01*
X17519505Y30870031D01*
X17479436Y30936642D01*
X17550658Y31134376D01*
X17768834Y31393179D01*
X17966837Y31573549D01*
X18461813Y32020712D01*
X18936994Y32499030D01*
X19375559Y32987048D01*
X19760685Y33463311D01*
X20075552Y33906365D01*
X20209339Y34134482D01*
X20614768Y34134482D01*
X20670778Y34032111D01*
X20786619Y33977180D01*
X20854873Y34076888D01*
X20868333Y34219300D01*
X20910092Y34434166D01*
X20995333Y34568333D01*
X21107414Y34704627D01*
X21097622Y34800963D01*
X21023167Y34822333D01*
X20847806Y34749633D01*
X20703621Y34571144D01*
X20617109Y34346287D01*
X20614768Y34134482D01*
X20209339Y34134482D01*
X20303337Y34294754D01*
X20427221Y34607024D01*
X20445000Y34734294D01*
X20372716Y34930868D01*
X20175832Y35169606D01*
X19884296Y35423473D01*
X19528058Y35665438D01*
X19241968Y35820177D01*
X18917171Y35959977D01*
X18493269Y36119047D01*
X18035005Y36273907D01*
X17752806Y36360193D01*
X16823523Y36630183D01*
X16257825Y36180044D01*
X15573807Y35547189D01*
X14997277Y34832073D01*
X14541083Y34058927D01*
X14218073Y33251980D01*
X14041094Y32435465D01*
X14010333Y31941246D01*
X13780274Y31941246D01*
X13772939Y32146180D01*
X13884729Y32950437D01*
X14133602Y33751062D01*
X14516698Y34526811D01*
X15001431Y35220243D01*
X15377825Y35647017D01*
X15820809Y36095295D01*
X16265676Y36501271D01*
X16475853Y36674153D01*
X16721782Y36834750D01*
X17075644Y37026420D01*
X17485524Y37224352D01*
X17899510Y37403736D01*
X18265687Y37539760D01*
X18328333Y37559493D01*
X19246786Y37759479D01*
X20182088Y37816659D01*
X21101558Y37733056D01*
D13*
G04 #@! TO.C,C23*
X9700000Y11705000D02*
X10200000Y11705000D01*
X10200000Y12645000D02*
X9700000Y12645000D01*
G04 #@! TO.C,R12*
X18450000Y25100000D02*
X19150000Y25100000D01*
X19150000Y23900000D02*
X18450000Y23900000D01*
G04 #@! TO.C,R13*
X18450000Y26400000D02*
X19150000Y26400000D01*
X19150000Y25200000D02*
X18450000Y25200000D01*
G04 #@! TO.C,R14*
X19150000Y22600000D02*
X18450000Y22600000D01*
X18450000Y23800000D02*
X19150000Y23800000D01*
G04 #@! TO.C,R15*
X19575000Y20150000D02*
X19575000Y20850000D01*
X20775000Y20850000D02*
X20775000Y20150000D01*
G04 #@! TO.C,R16*
X15400000Y20925000D02*
X15400000Y20225000D01*
X14200000Y20225000D02*
X14200000Y20925000D01*
G04 #@! TO.C,R17*
X19150000Y26500000D02*
X18450000Y26500000D01*
X18450000Y27700000D02*
X19150000Y27700000D01*
D14*
G04 #@! TO.C,U2*
X15719600Y14058000D02*
X16219600Y14058000D01*
X20969600Y8808000D02*
X20469600Y8808000D01*
X20969600Y14058000D02*
X20469600Y14058000D01*
X15719600Y8808000D02*
X15719600Y9308000D01*
X20969600Y8808000D02*
X20969600Y9308000D01*
X20969600Y14058000D02*
X20969600Y13558000D01*
X15719600Y14058000D02*
X15719600Y13558000D01*
D15*
G04 #@! TO.C,J2*
X12100000Y40100000D02*
X5100000Y40100000D01*
X12100000Y36600000D02*
X12100000Y25600000D01*
X12100000Y25600000D02*
X5100000Y25600000D01*
X5100000Y25600000D02*
X5100000Y36600000D01*
X12100000Y36600000D02*
X12100000Y42600000D01*
X12100000Y42600000D02*
X5100000Y42600000D01*
X5100000Y42600000D02*
X5100000Y36600000D01*
G04 #@! TO.C,J1*
X32900000Y40100000D02*
X25900000Y40100000D01*
X32900000Y36600000D02*
X32900000Y25600000D01*
X32900000Y25600000D02*
X25900000Y25600000D01*
X25900000Y25600000D02*
X25900000Y36600000D01*
X32900000Y36600000D02*
X32900000Y42600000D01*
X32900000Y42600000D02*
X25900000Y42600000D01*
X25900000Y42600000D02*
X25900000Y36600000D01*
D13*
G04 #@! TO.C,C2*
X14737900Y9760600D02*
X14737900Y10260600D01*
X13797900Y10260600D02*
X13797900Y9760600D01*
G04 #@! TO.C,C3*
X14610900Y16732900D02*
X14610900Y17232900D01*
X13670900Y17232900D02*
X13670900Y16732900D01*
G04 #@! TO.C,C4*
X21680000Y7200000D02*
X21680000Y6700000D01*
X22620000Y6700000D02*
X22620000Y7200000D01*
G04 #@! TO.C,C5*
X23605000Y7200000D02*
X23605000Y6700000D01*
X24545000Y6700000D02*
X24545000Y7200000D01*
G04 #@! TO.C,C6*
X13446400Y6860900D02*
X13946400Y6860900D01*
X13946400Y7800900D02*
X13446400Y7800900D01*
G04 #@! TO.C,C7*
X13446400Y7838800D02*
X13946400Y7838800D01*
X13946400Y8778800D02*
X13446400Y8778800D01*
G04 #@! TO.C,C8*
X13620300Y9760600D02*
X13620300Y10260600D01*
X12680300Y10260600D02*
X12680300Y9760600D01*
G04 #@! TO.C,C9*
X13350000Y13330000D02*
X13850000Y13330000D01*
X13850000Y14270000D02*
X13350000Y14270000D01*
G04 #@! TO.C,C10*
X14725000Y17232900D02*
X14725000Y16732900D01*
X15665000Y16732900D02*
X15665000Y17232900D01*
G04 #@! TO.C,C11*
X21070000Y16250000D02*
X21070000Y16750000D01*
X20130000Y16750000D02*
X20130000Y16250000D01*
G04 #@! TO.C,C12*
X18130000Y19750000D02*
X18130000Y19250000D01*
X19070000Y19250000D02*
X19070000Y19750000D01*
G04 #@! TO.C,C13*
X17230000Y19750000D02*
X17230000Y19250000D01*
X18170000Y19250000D02*
X18170000Y19750000D01*
G04 #@! TO.C,C16*
X35250000Y19220000D02*
X34750000Y19220000D01*
X34750000Y18280000D02*
X35250000Y18280000D01*
G04 #@! TO.C,C17*
X35250000Y20220000D02*
X34750000Y20220000D01*
X34750000Y19280000D02*
X35250000Y19280000D01*
G04 #@! TO.C,C18*
X3250000Y19220000D02*
X2750000Y19220000D01*
X2750000Y18280000D02*
X3250000Y18280000D01*
G04 #@! TO.C,C19*
X2750000Y19280000D02*
X3250000Y19280000D01*
X3250000Y20220000D02*
X2750000Y20220000D01*
G04 #@! TO.C,C24*
X9700000Y9180000D02*
X10200000Y9180000D01*
X10200000Y10120000D02*
X9700000Y10120000D01*
G04 #@! TO.C,C25*
X9700000Y6630000D02*
X10200000Y6630000D01*
X10200000Y7570000D02*
X9700000Y7570000D01*
G04 #@! TO.C,C26*
X9700000Y4080000D02*
X10200000Y4080000D01*
X10200000Y5020000D02*
X9700000Y5020000D01*
G04 #@! TO.C,P3*
X34870000Y670000D02*
X37530000Y670000D01*
X34870000Y13430000D02*
X34870000Y670000D01*
X37530000Y13430000D02*
X37530000Y670000D01*
X34870000Y13430000D02*
X37530000Y13430000D01*
X34870000Y14700000D02*
X34870000Y16030000D01*
X34870000Y16030000D02*
X36200000Y16030000D01*
G04 #@! TO.C,P4*
X3070000Y670000D02*
X5730000Y670000D01*
X3070000Y13430000D02*
X3070000Y670000D01*
X5730000Y13430000D02*
X5730000Y670000D01*
X3070000Y13430000D02*
X5730000Y13430000D01*
X3070000Y14700000D02*
X3070000Y16030000D01*
X3070000Y16030000D02*
X4400000Y16030000D01*
G04 #@! TO.C,P5*
X5720000Y670000D02*
X8380000Y670000D01*
X5720000Y13430000D02*
X5720000Y670000D01*
X8380000Y13430000D02*
X8380000Y670000D01*
X5720000Y13430000D02*
X8380000Y13430000D01*
X5720000Y14700000D02*
X5720000Y16030000D01*
X5720000Y16030000D02*
X7050000Y16030000D01*
G04 #@! TO.C,U3*
X24300000Y18910000D02*
X22400000Y18910000D01*
X22900000Y16590000D02*
X24300000Y16590000D01*
G04 #@! TO.C,P2*
X32220000Y660000D02*
X34880000Y660000D01*
X32220000Y13420000D02*
X32220000Y660000D01*
X34880000Y13420000D02*
X34880000Y660000D01*
X32220000Y13420000D02*
X34880000Y13420000D01*
X32220000Y14690000D02*
X32220000Y16020000D01*
X32220000Y16020000D02*
X33550000Y16020000D01*
G04 #@! TO.C,P1*
X420000Y16030000D02*
X1750000Y16030000D01*
X420000Y14700000D02*
X420000Y16030000D01*
X420000Y13430000D02*
X3080000Y13430000D01*
X3080000Y13430000D02*
X3080000Y670000D01*
X420000Y13430000D02*
X420000Y670000D01*
X420000Y670000D02*
X3080000Y670000D01*
G04 #@! TO.C,R2*
X16705000Y6675000D02*
X16705000Y7175000D01*
X15645000Y7175000D02*
X15645000Y6675000D01*
G04 #@! TO.C,R3*
X17545000Y7175000D02*
X17545000Y6675000D01*
X18605000Y6675000D02*
X18605000Y7175000D01*
G04 #@! TO.C,R4*
X19555000Y6675000D02*
X19555000Y7175000D01*
X18495000Y7175000D02*
X18495000Y6675000D01*
G04 #@! TO.C,R5*
X19445000Y7175000D02*
X19445000Y6675000D01*
X20505000Y6675000D02*
X20505000Y7175000D01*
G04 #@! TO.C,R6*
X21455000Y6675000D02*
X21455000Y7175000D01*
X20395000Y7175000D02*
X20395000Y6675000D01*
G04 #@! TO.C,R7*
X16595000Y7175000D02*
X16595000Y6675000D01*
X17655000Y6675000D02*
X17655000Y7175000D01*
G04 #@! TO.C,R9*
X23179300Y11430000D02*
X22679300Y11430000D01*
X22679300Y10370000D02*
X23179300Y10370000D01*
G04 #@! TO.C,R10*
X22679300Y9417100D02*
X23179300Y9417100D01*
X23179300Y10477100D02*
X22679300Y10477100D01*
G04 #@! TO.C,R1*
X21770000Y3950000D02*
X21770000Y3450000D01*
X22830000Y3450000D02*
X22830000Y3950000D01*
G04 #@! TO.C,R8*
X22820000Y3950000D02*
X22820000Y3450000D01*
X23880000Y3450000D02*
X23880000Y3950000D01*
G04 #@! TO.C,P6*
X29570000Y16020000D02*
X30900000Y16020000D01*
X29570000Y14690000D02*
X29570000Y16020000D01*
X29570000Y13420000D02*
X32230000Y13420000D01*
X32230000Y13420000D02*
X32230000Y660000D01*
X29570000Y13420000D02*
X29570000Y660000D01*
X29570000Y660000D02*
X32230000Y660000D01*
G04 #@! TO.C,C23*
D16*
X9541785Y12923215D02*
X9511547Y12892977D01*
X9420833Y12862739D01*
X9360357Y12862739D01*
X9269642Y12892977D01*
X9209166Y12953453D01*
X9178928Y13013929D01*
X9148690Y13134881D01*
X9148690Y13225596D01*
X9178928Y13346548D01*
X9209166Y13407024D01*
X9269642Y13467500D01*
X9360357Y13497739D01*
X9420833Y13497739D01*
X9511547Y13467500D01*
X9541785Y13437262D01*
X9783690Y13437262D02*
X9813928Y13467500D01*
X9874404Y13497739D01*
X10025595Y13497739D01*
X10086071Y13467500D01*
X10116309Y13437262D01*
X10146547Y13376786D01*
X10146547Y13316310D01*
X10116309Y13225596D01*
X9753452Y12862739D01*
X10146547Y12862739D01*
X10358214Y13497739D02*
X10751309Y13497739D01*
X10539642Y13255834D01*
X10630357Y13255834D01*
X10690833Y13225596D01*
X10721071Y13195358D01*
X10751309Y13134881D01*
X10751309Y12983691D01*
X10721071Y12923215D01*
X10690833Y12892977D01*
X10630357Y12862739D01*
X10448928Y12862739D01*
X10388452Y12892977D01*
X10358214Y12923215D01*
G04 #@! TO.C,R12*
X15991785Y24312739D02*
X15780119Y24615120D01*
X15628928Y24312739D02*
X15628928Y24947739D01*
X15870833Y24947739D01*
X15931309Y24917500D01*
X15961547Y24887262D01*
X15991785Y24826786D01*
X15991785Y24736072D01*
X15961547Y24675596D01*
X15931309Y24645358D01*
X15870833Y24615120D01*
X15628928Y24615120D01*
X16596547Y24312739D02*
X16233690Y24312739D01*
X16415119Y24312739D02*
X16415119Y24947739D01*
X16354642Y24857024D01*
X16294166Y24796548D01*
X16233690Y24766310D01*
X16838452Y24887262D02*
X16868690Y24917500D01*
X16929166Y24947739D01*
X17080357Y24947739D01*
X17140833Y24917500D01*
X17171071Y24887262D01*
X17201309Y24826786D01*
X17201309Y24766310D01*
X17171071Y24675596D01*
X16808214Y24312739D01*
X17201309Y24312739D01*
G04 #@! TO.C,R13*
X15991785Y25612739D02*
X15780119Y25915120D01*
X15628928Y25612739D02*
X15628928Y26247739D01*
X15870833Y26247739D01*
X15931309Y26217500D01*
X15961547Y26187262D01*
X15991785Y26126786D01*
X15991785Y26036072D01*
X15961547Y25975596D01*
X15931309Y25945358D01*
X15870833Y25915120D01*
X15628928Y25915120D01*
X16596547Y25612739D02*
X16233690Y25612739D01*
X16415119Y25612739D02*
X16415119Y26247739D01*
X16354642Y26157024D01*
X16294166Y26096548D01*
X16233690Y26066310D01*
X16808214Y26247739D02*
X17201309Y26247739D01*
X16989642Y26005834D01*
X17080357Y26005834D01*
X17140833Y25975596D01*
X17171071Y25945358D01*
X17201309Y25884881D01*
X17201309Y25733691D01*
X17171071Y25673215D01*
X17140833Y25642977D01*
X17080357Y25612739D01*
X16898928Y25612739D01*
X16838452Y25642977D01*
X16808214Y25673215D01*
G04 #@! TO.C,R14*
X15991785Y23012739D02*
X15780119Y23315120D01*
X15628928Y23012739D02*
X15628928Y23647739D01*
X15870833Y23647739D01*
X15931309Y23617500D01*
X15961547Y23587262D01*
X15991785Y23526786D01*
X15991785Y23436072D01*
X15961547Y23375596D01*
X15931309Y23345358D01*
X15870833Y23315120D01*
X15628928Y23315120D01*
X16596547Y23012739D02*
X16233690Y23012739D01*
X16415119Y23012739D02*
X16415119Y23647739D01*
X16354642Y23557024D01*
X16294166Y23496548D01*
X16233690Y23466310D01*
X17140833Y23436072D02*
X17140833Y23012739D01*
X16989642Y23677977D02*
X16838452Y23224405D01*
X17231547Y23224405D01*
G04 #@! TO.C,R15*
X21787261Y20091786D02*
X21484880Y19880120D01*
X21787261Y19728929D02*
X21152261Y19728929D01*
X21152261Y19970834D01*
X21182500Y20031310D01*
X21212738Y20061548D01*
X21273214Y20091786D01*
X21363928Y20091786D01*
X21424404Y20061548D01*
X21454642Y20031310D01*
X21484880Y19970834D01*
X21484880Y19728929D01*
X21787261Y20696548D02*
X21787261Y20333691D01*
X21787261Y20515120D02*
X21152261Y20515120D01*
X21242976Y20454643D01*
X21303452Y20394167D01*
X21333690Y20333691D01*
X21152261Y21271072D02*
X21152261Y20968691D01*
X21454642Y20938453D01*
X21424404Y20968691D01*
X21394166Y21029167D01*
X21394166Y21180358D01*
X21424404Y21240834D01*
X21454642Y21271072D01*
X21515119Y21301310D01*
X21666309Y21301310D01*
X21726785Y21271072D01*
X21757023Y21240834D01*
X21787261Y21180358D01*
X21787261Y21029167D01*
X21757023Y20968691D01*
X21726785Y20938453D01*
G04 #@! TO.C,R16*
X13787261Y20091786D02*
X13484880Y19880120D01*
X13787261Y19728929D02*
X13152261Y19728929D01*
X13152261Y19970834D01*
X13182500Y20031310D01*
X13212738Y20061548D01*
X13273214Y20091786D01*
X13363928Y20091786D01*
X13424404Y20061548D01*
X13454642Y20031310D01*
X13484880Y19970834D01*
X13484880Y19728929D01*
X13787261Y20696548D02*
X13787261Y20333691D01*
X13787261Y20515120D02*
X13152261Y20515120D01*
X13242976Y20454643D01*
X13303452Y20394167D01*
X13333690Y20333691D01*
X13152261Y21240834D02*
X13152261Y21119881D01*
X13182500Y21059405D01*
X13212738Y21029167D01*
X13303452Y20968691D01*
X13424404Y20938453D01*
X13666309Y20938453D01*
X13726785Y20968691D01*
X13757023Y20998929D01*
X13787261Y21059405D01*
X13787261Y21180358D01*
X13757023Y21240834D01*
X13726785Y21271072D01*
X13666309Y21301310D01*
X13515119Y21301310D01*
X13454642Y21271072D01*
X13424404Y21240834D01*
X13394166Y21180358D01*
X13394166Y21059405D01*
X13424404Y20998929D01*
X13454642Y20968691D01*
X13515119Y20938453D01*
G04 #@! TO.C,R17*
X15991785Y26812739D02*
X15780119Y27115120D01*
X15628928Y26812739D02*
X15628928Y27447739D01*
X15870833Y27447739D01*
X15931309Y27417500D01*
X15961547Y27387262D01*
X15991785Y27326786D01*
X15991785Y27236072D01*
X15961547Y27175596D01*
X15931309Y27145358D01*
X15870833Y27115120D01*
X15628928Y27115120D01*
X16596547Y26812739D02*
X16233690Y26812739D01*
X16415119Y26812739D02*
X16415119Y27447739D01*
X16354642Y27357024D01*
X16294166Y27296548D01*
X16233690Y27266310D01*
X16808214Y27447739D02*
X17231547Y27447739D01*
X16959404Y26812739D01*
G04 #@! TO.C,U2*
X14927261Y7116191D02*
X15441309Y7116191D01*
X15501785Y7146429D01*
X15532023Y7176667D01*
X15562261Y7237143D01*
X15562261Y7358096D01*
X15532023Y7418572D01*
X15501785Y7448810D01*
X15441309Y7479048D01*
X14927261Y7479048D01*
X14987738Y7751191D02*
X14957500Y7781429D01*
X14927261Y7841905D01*
X14927261Y7993096D01*
X14957500Y8053572D01*
X14987738Y8083810D01*
X15048214Y8114048D01*
X15108690Y8114048D01*
X15199404Y8083810D01*
X15562261Y7720953D01*
X15562261Y8114048D01*
G04 #@! TO.C,J2*
X13011133Y38979739D02*
X13011133Y38526167D01*
X12980895Y38435453D01*
X12920419Y38374977D01*
X12829704Y38344739D01*
X12769228Y38344739D01*
X13283276Y38919262D02*
X13313514Y38949500D01*
X13373990Y38979739D01*
X13525180Y38979739D01*
X13585657Y38949500D01*
X13615895Y38919262D01*
X13646133Y38858786D01*
X13646133Y38798310D01*
X13615895Y38707596D01*
X13253038Y38344739D01*
X13646133Y38344739D01*
G04 #@! TO.C,J1*
X33671433Y38979739D02*
X33671433Y38526167D01*
X33641195Y38435453D01*
X33580719Y38374977D01*
X33490004Y38344739D01*
X33429528Y38344739D01*
X34306433Y38344739D02*
X33943576Y38344739D01*
X34125004Y38344739D02*
X34125004Y38979739D01*
X34064528Y38889024D01*
X34004052Y38828548D01*
X33943576Y38798310D01*
G04 #@! TO.C,C2*
X14507385Y11619267D02*
X14537623Y11589029D01*
X14567861Y11498315D01*
X14567861Y11437839D01*
X14537623Y11347124D01*
X14477147Y11286648D01*
X14416671Y11256410D01*
X14295719Y11226172D01*
X14205004Y11226172D01*
X14084052Y11256410D01*
X14023576Y11286648D01*
X13963100Y11347124D01*
X13932861Y11437839D01*
X13932861Y11498315D01*
X13963100Y11589029D01*
X13993338Y11619267D01*
X13993338Y11861172D02*
X13963100Y11891410D01*
X13932861Y11951886D01*
X13932861Y12103077D01*
X13963100Y12163553D01*
X13993338Y12193791D01*
X14053814Y12224029D01*
X14114290Y12224029D01*
X14205004Y12193791D01*
X14567861Y11830934D01*
X14567861Y12224029D01*
G04 #@! TO.C,C3*
X13338985Y16915167D02*
X13369223Y16884929D01*
X13399461Y16794215D01*
X13399461Y16733739D01*
X13369223Y16643024D01*
X13308747Y16582548D01*
X13248271Y16552310D01*
X13127319Y16522072D01*
X13036604Y16522072D01*
X12915652Y16552310D01*
X12855176Y16582548D01*
X12794700Y16643024D01*
X12764461Y16733739D01*
X12764461Y16794215D01*
X12794700Y16884929D01*
X12824938Y16915167D01*
X12764461Y17126834D02*
X12764461Y17519929D01*
X13006366Y17308262D01*
X13006366Y17398977D01*
X13036604Y17459453D01*
X13066842Y17489691D01*
X13127319Y17519929D01*
X13278509Y17519929D01*
X13338985Y17489691D01*
X13369223Y17459453D01*
X13399461Y17398977D01*
X13399461Y17217548D01*
X13369223Y17157072D01*
X13338985Y17126834D01*
G04 #@! TO.C,C4*
X22376785Y5144167D02*
X22407023Y5113929D01*
X22437261Y5023215D01*
X22437261Y4962739D01*
X22407023Y4872024D01*
X22346547Y4811548D01*
X22286071Y4781310D01*
X22165119Y4751072D01*
X22074404Y4751072D01*
X21953452Y4781310D01*
X21892976Y4811548D01*
X21832500Y4872024D01*
X21802261Y4962739D01*
X21802261Y5023215D01*
X21832500Y5113929D01*
X21862738Y5144167D01*
X22013928Y5688453D02*
X22437261Y5688453D01*
X21772023Y5537262D02*
X22225595Y5386072D01*
X22225595Y5779167D01*
G04 #@! TO.C,C5*
X24351785Y5119167D02*
X24382023Y5088929D01*
X24412261Y4998215D01*
X24412261Y4937739D01*
X24382023Y4847024D01*
X24321547Y4786548D01*
X24261071Y4756310D01*
X24140119Y4726072D01*
X24049404Y4726072D01*
X23928452Y4756310D01*
X23867976Y4786548D01*
X23807500Y4847024D01*
X23777261Y4937739D01*
X23777261Y4998215D01*
X23807500Y5088929D01*
X23837738Y5119167D01*
X23777261Y5693691D02*
X23777261Y5391310D01*
X24079642Y5361072D01*
X24049404Y5391310D01*
X24019166Y5451786D01*
X24019166Y5602977D01*
X24049404Y5663453D01*
X24079642Y5693691D01*
X24140119Y5723929D01*
X24291309Y5723929D01*
X24351785Y5693691D01*
X24382023Y5663453D01*
X24412261Y5602977D01*
X24412261Y5451786D01*
X24382023Y5391310D01*
X24351785Y5361072D01*
G04 #@! TO.C,C6*
X13619166Y6048215D02*
X13588928Y6017977D01*
X13498214Y5987739D01*
X13437738Y5987739D01*
X13347023Y6017977D01*
X13286547Y6078453D01*
X13256309Y6138929D01*
X13226071Y6259881D01*
X13226071Y6350596D01*
X13256309Y6471548D01*
X13286547Y6532024D01*
X13347023Y6592500D01*
X13437738Y6622739D01*
X13498214Y6622739D01*
X13588928Y6592500D01*
X13619166Y6562262D01*
X14163452Y6622739D02*
X14042500Y6622739D01*
X13982023Y6592500D01*
X13951785Y6562262D01*
X13891309Y6471548D01*
X13861071Y6350596D01*
X13861071Y6108691D01*
X13891309Y6048215D01*
X13921547Y6017977D01*
X13982023Y5987739D01*
X14102976Y5987739D01*
X14163452Y6017977D01*
X14193690Y6048215D01*
X14223928Y6108691D01*
X14223928Y6259881D01*
X14193690Y6320358D01*
X14163452Y6350596D01*
X14102976Y6380834D01*
X13982023Y6380834D01*
X13921547Y6350596D01*
X13891309Y6320358D01*
X13861071Y6259881D01*
G04 #@! TO.C,C7*
X11869166Y8073215D02*
X11838928Y8042977D01*
X11748214Y8012739D01*
X11687738Y8012739D01*
X11597023Y8042977D01*
X11536547Y8103453D01*
X11506309Y8163929D01*
X11476071Y8284881D01*
X11476071Y8375596D01*
X11506309Y8496548D01*
X11536547Y8557024D01*
X11597023Y8617500D01*
X11687738Y8647739D01*
X11748214Y8647739D01*
X11838928Y8617500D01*
X11869166Y8587262D01*
X12080833Y8647739D02*
X12504166Y8647739D01*
X12232023Y8012739D01*
G04 #@! TO.C,C8*
X13415185Y11581167D02*
X13445423Y11550929D01*
X13475661Y11460215D01*
X13475661Y11399739D01*
X13445423Y11309024D01*
X13384947Y11248548D01*
X13324471Y11218310D01*
X13203519Y11188072D01*
X13112804Y11188072D01*
X12991852Y11218310D01*
X12931376Y11248548D01*
X12870900Y11309024D01*
X12840661Y11399739D01*
X12840661Y11460215D01*
X12870900Y11550929D01*
X12901138Y11581167D01*
X13112804Y11944024D02*
X13082566Y11883548D01*
X13052328Y11853310D01*
X12991852Y11823072D01*
X12961614Y11823072D01*
X12901138Y11853310D01*
X12870900Y11883548D01*
X12840661Y11944024D01*
X12840661Y12064977D01*
X12870900Y12125453D01*
X12901138Y12155691D01*
X12961614Y12185929D01*
X12991852Y12185929D01*
X13052328Y12155691D01*
X13082566Y12125453D01*
X13112804Y12064977D01*
X13112804Y11944024D01*
X13143042Y11883548D01*
X13173280Y11853310D01*
X13233757Y11823072D01*
X13354709Y11823072D01*
X13415185Y11853310D01*
X13445423Y11883548D01*
X13475661Y11944024D01*
X13475661Y12064977D01*
X13445423Y12125453D01*
X13415185Y12155691D01*
X13354709Y12185929D01*
X13233757Y12185929D01*
X13173280Y12155691D01*
X13143042Y12125453D01*
X13112804Y12064977D01*
G04 #@! TO.C,C9*
X13394166Y14523215D02*
X13363928Y14492977D01*
X13273214Y14462739D01*
X13212738Y14462739D01*
X13122023Y14492977D01*
X13061547Y14553453D01*
X13031309Y14613929D01*
X13001071Y14734881D01*
X13001071Y14825596D01*
X13031309Y14946548D01*
X13061547Y15007024D01*
X13122023Y15067500D01*
X13212738Y15097739D01*
X13273214Y15097739D01*
X13363928Y15067500D01*
X13394166Y15037262D01*
X13696547Y14462739D02*
X13817500Y14462739D01*
X13877976Y14492977D01*
X13908214Y14523215D01*
X13968690Y14613929D01*
X13998928Y14734881D01*
X13998928Y14976786D01*
X13968690Y15037262D01*
X13938452Y15067500D01*
X13877976Y15097739D01*
X13757023Y15097739D01*
X13696547Y15067500D01*
X13666309Y15037262D01*
X13636071Y14976786D01*
X13636071Y14825596D01*
X13666309Y14765120D01*
X13696547Y14734881D01*
X13757023Y14704643D01*
X13877976Y14704643D01*
X13938452Y14734881D01*
X13968690Y14765120D01*
X13998928Y14825596D01*
G04 #@! TO.C,C10*
X16463185Y16612786D02*
X16493423Y16582548D01*
X16523661Y16491834D01*
X16523661Y16431358D01*
X16493423Y16340643D01*
X16432947Y16280167D01*
X16372471Y16249929D01*
X16251519Y16219691D01*
X16160804Y16219691D01*
X16039852Y16249929D01*
X15979376Y16280167D01*
X15918900Y16340643D01*
X15888661Y16431358D01*
X15888661Y16491834D01*
X15918900Y16582548D01*
X15949138Y16612786D01*
X16523661Y17217548D02*
X16523661Y16854691D01*
X16523661Y17036120D02*
X15888661Y17036120D01*
X15979376Y16975643D01*
X16039852Y16915167D01*
X16070090Y16854691D01*
X15888661Y17610643D02*
X15888661Y17671120D01*
X15918900Y17731596D01*
X15949138Y17761834D01*
X16009614Y17792072D01*
X16130566Y17822310D01*
X16281757Y17822310D01*
X16402709Y17792072D01*
X16463185Y17761834D01*
X16493423Y17731596D01*
X16523661Y17671120D01*
X16523661Y17610643D01*
X16493423Y17550167D01*
X16463185Y17519929D01*
X16402709Y17489691D01*
X16281757Y17459453D01*
X16130566Y17459453D01*
X16009614Y17489691D01*
X15949138Y17519929D01*
X15918900Y17550167D01*
X15888661Y17610643D01*
G04 #@! TO.C,C11*
X19776785Y16041786D02*
X19807023Y16011548D01*
X19837261Y15920834D01*
X19837261Y15860358D01*
X19807023Y15769643D01*
X19746547Y15709167D01*
X19686071Y15678929D01*
X19565119Y15648691D01*
X19474404Y15648691D01*
X19353452Y15678929D01*
X19292976Y15709167D01*
X19232500Y15769643D01*
X19202261Y15860358D01*
X19202261Y15920834D01*
X19232500Y16011548D01*
X19262738Y16041786D01*
X19837261Y16646548D02*
X19837261Y16283691D01*
X19837261Y16465120D02*
X19202261Y16465120D01*
X19292976Y16404643D01*
X19353452Y16344167D01*
X19383690Y16283691D01*
X19837261Y17251310D02*
X19837261Y16888453D01*
X19837261Y17069881D02*
X19202261Y17069881D01*
X19292976Y17009405D01*
X19353452Y16948929D01*
X19383690Y16888453D01*
G04 #@! TO.C,C12*
X18873885Y21086286D02*
X18904123Y21056048D01*
X18934361Y20965334D01*
X18934361Y20904858D01*
X18904123Y20814143D01*
X18843647Y20753667D01*
X18783171Y20723429D01*
X18662219Y20693191D01*
X18571504Y20693191D01*
X18450552Y20723429D01*
X18390076Y20753667D01*
X18329600Y20814143D01*
X18299361Y20904858D01*
X18299361Y20965334D01*
X18329600Y21056048D01*
X18359838Y21086286D01*
X18934361Y21691048D02*
X18934361Y21328191D01*
X18934361Y21509620D02*
X18299361Y21509620D01*
X18390076Y21449143D01*
X18450552Y21388667D01*
X18480790Y21328191D01*
X18359838Y21932953D02*
X18329600Y21963191D01*
X18299361Y22023667D01*
X18299361Y22174858D01*
X18329600Y22235334D01*
X18359838Y22265572D01*
X18420314Y22295810D01*
X18480790Y22295810D01*
X18571504Y22265572D01*
X18934361Y21902715D01*
X18934361Y22295810D01*
G04 #@! TO.C,C13*
X17954585Y21086286D02*
X17984823Y21056048D01*
X18015061Y20965334D01*
X18015061Y20904858D01*
X17984823Y20814143D01*
X17924347Y20753667D01*
X17863871Y20723429D01*
X17742919Y20693191D01*
X17652204Y20693191D01*
X17531252Y20723429D01*
X17470776Y20753667D01*
X17410300Y20814143D01*
X17380061Y20904858D01*
X17380061Y20965334D01*
X17410300Y21056048D01*
X17440538Y21086286D01*
X18015061Y21691048D02*
X18015061Y21328191D01*
X18015061Y21509620D02*
X17380061Y21509620D01*
X17470776Y21449143D01*
X17531252Y21388667D01*
X17561490Y21328191D01*
X17380061Y21902715D02*
X17380061Y22295810D01*
X17621966Y22084143D01*
X17621966Y22174858D01*
X17652204Y22235334D01*
X17682442Y22265572D01*
X17742919Y22295810D01*
X17894109Y22295810D01*
X17954585Y22265572D01*
X17984823Y22235334D01*
X18015061Y22174858D01*
X18015061Y21993429D01*
X17984823Y21932953D01*
X17954585Y21902715D01*
G04 #@! TO.C,C16*
X32449519Y18491746D02*
X32419281Y18461508D01*
X32328567Y18431270D01*
X32268091Y18431270D01*
X32177376Y18461508D01*
X32116900Y18521984D01*
X32086662Y18582460D01*
X32056424Y18703412D01*
X32056424Y18794127D01*
X32086662Y18915079D01*
X32116900Y18975555D01*
X32177376Y19036031D01*
X32268091Y19066270D01*
X32328567Y19066270D01*
X32419281Y19036031D01*
X32449519Y19005793D01*
X33054281Y18431270D02*
X32691424Y18431270D01*
X32872853Y18431270D02*
X32872853Y19066270D01*
X32812376Y18975555D01*
X32751900Y18915079D01*
X32691424Y18884841D01*
X33598567Y19066270D02*
X33477614Y19066270D01*
X33417138Y19036031D01*
X33386900Y19005793D01*
X33326424Y18915079D01*
X33296186Y18794127D01*
X33296186Y18552222D01*
X33326424Y18491746D01*
X33356662Y18461508D01*
X33417138Y18431270D01*
X33538091Y18431270D01*
X33598567Y18461508D01*
X33628805Y18491746D01*
X33659043Y18552222D01*
X33659043Y18703412D01*
X33628805Y18763889D01*
X33598567Y18794127D01*
X33538091Y18824365D01*
X33417138Y18824365D01*
X33356662Y18794127D01*
X33326424Y18763889D01*
X33296186Y18703412D01*
G04 #@! TO.C,C17*
X32449519Y19532446D02*
X32419281Y19502208D01*
X32328567Y19471970D01*
X32268091Y19471970D01*
X32177376Y19502208D01*
X32116900Y19562684D01*
X32086662Y19623160D01*
X32056424Y19744112D01*
X32056424Y19834827D01*
X32086662Y19955779D01*
X32116900Y20016255D01*
X32177376Y20076731D01*
X32268091Y20106970D01*
X32328567Y20106970D01*
X32419281Y20076731D01*
X32449519Y20046493D01*
X33054281Y19471970D02*
X32691424Y19471970D01*
X32872853Y19471970D02*
X32872853Y20106970D01*
X32812376Y20016255D01*
X32751900Y19955779D01*
X32691424Y19925541D01*
X33265948Y20106970D02*
X33689281Y20106970D01*
X33417138Y19471970D01*
G04 #@! TO.C,C18*
X4641785Y18523215D02*
X4611547Y18492977D01*
X4520833Y18462739D01*
X4460357Y18462739D01*
X4369642Y18492977D01*
X4309166Y18553453D01*
X4278928Y18613929D01*
X4248690Y18734881D01*
X4248690Y18825596D01*
X4278928Y18946548D01*
X4309166Y19007024D01*
X4369642Y19067500D01*
X4460357Y19097739D01*
X4520833Y19097739D01*
X4611547Y19067500D01*
X4641785Y19037262D01*
X5246547Y18462739D02*
X4883690Y18462739D01*
X5065119Y18462739D02*
X5065119Y19097739D01*
X5004642Y19007024D01*
X4944166Y18946548D01*
X4883690Y18916310D01*
X5609404Y18825596D02*
X5548928Y18855834D01*
X5518690Y18886072D01*
X5488452Y18946548D01*
X5488452Y18976786D01*
X5518690Y19037262D01*
X5548928Y19067500D01*
X5609404Y19097739D01*
X5730357Y19097739D01*
X5790833Y19067500D01*
X5821071Y19037262D01*
X5851309Y18976786D01*
X5851309Y18946548D01*
X5821071Y18886072D01*
X5790833Y18855834D01*
X5730357Y18825596D01*
X5609404Y18825596D01*
X5548928Y18795358D01*
X5518690Y18765120D01*
X5488452Y18704643D01*
X5488452Y18583691D01*
X5518690Y18523215D01*
X5548928Y18492977D01*
X5609404Y18462739D01*
X5730357Y18462739D01*
X5790833Y18492977D01*
X5821071Y18523215D01*
X5851309Y18583691D01*
X5851309Y18704643D01*
X5821071Y18765120D01*
X5790833Y18795358D01*
X5730357Y18825596D01*
G04 #@! TO.C,C19*
X4643085Y19542615D02*
X4612847Y19512377D01*
X4522133Y19482139D01*
X4461657Y19482139D01*
X4370942Y19512377D01*
X4310466Y19572853D01*
X4280228Y19633329D01*
X4249990Y19754281D01*
X4249990Y19844996D01*
X4280228Y19965948D01*
X4310466Y20026424D01*
X4370942Y20086900D01*
X4461657Y20117139D01*
X4522133Y20117139D01*
X4612847Y20086900D01*
X4643085Y20056662D01*
X5247847Y19482139D02*
X4884990Y19482139D01*
X5066419Y19482139D02*
X5066419Y20117139D01*
X5005942Y20026424D01*
X4945466Y19965948D01*
X4884990Y19935710D01*
X5550228Y19482139D02*
X5671180Y19482139D01*
X5731657Y19512377D01*
X5761895Y19542615D01*
X5822371Y19633329D01*
X5852609Y19754281D01*
X5852609Y19996186D01*
X5822371Y20056662D01*
X5792133Y20086900D01*
X5731657Y20117139D01*
X5610704Y20117139D01*
X5550228Y20086900D01*
X5519990Y20056662D01*
X5489752Y19996186D01*
X5489752Y19844996D01*
X5519990Y19784520D01*
X5550228Y19754281D01*
X5610704Y19724043D01*
X5731657Y19724043D01*
X5792133Y19754281D01*
X5822371Y19784520D01*
X5852609Y19844996D01*
G04 #@! TO.C,C24*
X9541785Y10373215D02*
X9511547Y10342977D01*
X9420833Y10312739D01*
X9360357Y10312739D01*
X9269642Y10342977D01*
X9209166Y10403453D01*
X9178928Y10463929D01*
X9148690Y10584881D01*
X9148690Y10675596D01*
X9178928Y10796548D01*
X9209166Y10857024D01*
X9269642Y10917500D01*
X9360357Y10947739D01*
X9420833Y10947739D01*
X9511547Y10917500D01*
X9541785Y10887262D01*
X9783690Y10887262D02*
X9813928Y10917500D01*
X9874404Y10947739D01*
X10025595Y10947739D01*
X10086071Y10917500D01*
X10116309Y10887262D01*
X10146547Y10826786D01*
X10146547Y10766310D01*
X10116309Y10675596D01*
X9753452Y10312739D01*
X10146547Y10312739D01*
X10690833Y10736072D02*
X10690833Y10312739D01*
X10539642Y10977977D02*
X10388452Y10524405D01*
X10781547Y10524405D01*
G04 #@! TO.C,C25*
X9541785Y7773215D02*
X9511547Y7742977D01*
X9420833Y7712739D01*
X9360357Y7712739D01*
X9269642Y7742977D01*
X9209166Y7803453D01*
X9178928Y7863929D01*
X9148690Y7984881D01*
X9148690Y8075596D01*
X9178928Y8196548D01*
X9209166Y8257024D01*
X9269642Y8317500D01*
X9360357Y8347739D01*
X9420833Y8347739D01*
X9511547Y8317500D01*
X9541785Y8287262D01*
X9783690Y8287262D02*
X9813928Y8317500D01*
X9874404Y8347739D01*
X10025595Y8347739D01*
X10086071Y8317500D01*
X10116309Y8287262D01*
X10146547Y8226786D01*
X10146547Y8166310D01*
X10116309Y8075596D01*
X9753452Y7712739D01*
X10146547Y7712739D01*
X10721071Y8347739D02*
X10418690Y8347739D01*
X10388452Y8045358D01*
X10418690Y8075596D01*
X10479166Y8105834D01*
X10630357Y8105834D01*
X10690833Y8075596D01*
X10721071Y8045358D01*
X10751309Y7984881D01*
X10751309Y7833691D01*
X10721071Y7773215D01*
X10690833Y7742977D01*
X10630357Y7712739D01*
X10479166Y7712739D01*
X10418690Y7742977D01*
X10388452Y7773215D01*
G04 #@! TO.C,C26*
X9591785Y5273215D02*
X9561547Y5242977D01*
X9470833Y5212739D01*
X9410357Y5212739D01*
X9319642Y5242977D01*
X9259166Y5303453D01*
X9228928Y5363929D01*
X9198690Y5484881D01*
X9198690Y5575596D01*
X9228928Y5696548D01*
X9259166Y5757024D01*
X9319642Y5817500D01*
X9410357Y5847739D01*
X9470833Y5847739D01*
X9561547Y5817500D01*
X9591785Y5787262D01*
X9833690Y5787262D02*
X9863928Y5817500D01*
X9924404Y5847739D01*
X10075595Y5847739D01*
X10136071Y5817500D01*
X10166309Y5787262D01*
X10196547Y5726786D01*
X10196547Y5666310D01*
X10166309Y5575596D01*
X9803452Y5212739D01*
X10196547Y5212739D01*
X10740833Y5847739D02*
X10619880Y5847739D01*
X10559404Y5817500D01*
X10529166Y5787262D01*
X10468690Y5696548D01*
X10438452Y5575596D01*
X10438452Y5333691D01*
X10468690Y5273215D01*
X10498928Y5242977D01*
X10559404Y5212739D01*
X10680357Y5212739D01*
X10740833Y5242977D01*
X10771071Y5273215D01*
X10801309Y5333691D01*
X10801309Y5484881D01*
X10771071Y5545358D01*
X10740833Y5575596D01*
X10680357Y5605834D01*
X10559404Y5605834D01*
X10498928Y5575596D01*
X10468690Y5545358D01*
X10438452Y5484881D01*
G04 #@! TO.C,P3*
X35731309Y16742739D02*
X35731309Y17377739D01*
X35973214Y17377739D01*
X36033690Y17347500D01*
X36063928Y17317262D01*
X36094166Y17256786D01*
X36094166Y17166072D01*
X36063928Y17105596D01*
X36033690Y17075358D01*
X35973214Y17045120D01*
X35731309Y17045120D01*
X36305833Y17377739D02*
X36698928Y17377739D01*
X36487261Y17135834D01*
X36577976Y17135834D01*
X36638452Y17105596D01*
X36668690Y17075358D01*
X36698928Y17014881D01*
X36698928Y16863691D01*
X36668690Y16803215D01*
X36638452Y16772977D01*
X36577976Y16742739D01*
X36396547Y16742739D01*
X36336071Y16772977D01*
X36305833Y16803215D01*
G04 #@! TO.C,P4*
X3931309Y16742739D02*
X3931309Y17377739D01*
X4173214Y17377739D01*
X4233690Y17347500D01*
X4263928Y17317262D01*
X4294166Y17256786D01*
X4294166Y17166072D01*
X4263928Y17105596D01*
X4233690Y17075358D01*
X4173214Y17045120D01*
X3931309Y17045120D01*
X4838452Y17166072D02*
X4838452Y16742739D01*
X4687261Y17407977D02*
X4536071Y16954405D01*
X4929166Y16954405D01*
G04 #@! TO.C,P5*
X6581309Y16742739D02*
X6581309Y17377739D01*
X6823214Y17377739D01*
X6883690Y17347500D01*
X6913928Y17317262D01*
X6944166Y17256786D01*
X6944166Y17166072D01*
X6913928Y17105596D01*
X6883690Y17075358D01*
X6823214Y17045120D01*
X6581309Y17045120D01*
X7518690Y17377739D02*
X7216309Y17377739D01*
X7186071Y17075358D01*
X7216309Y17105596D01*
X7276785Y17135834D01*
X7427976Y17135834D01*
X7488452Y17105596D01*
X7518690Y17075358D01*
X7548928Y17014881D01*
X7548928Y16863691D01*
X7518690Y16803215D01*
X7488452Y16772977D01*
X7427976Y16742739D01*
X7276785Y16742739D01*
X7216309Y16772977D01*
X7186071Y16803215D01*
G04 #@! TO.C,U3*
X23016190Y20097739D02*
X23016190Y19583691D01*
X23046428Y19523215D01*
X23076666Y19492977D01*
X23137142Y19462739D01*
X23258095Y19462739D01*
X23318571Y19492977D01*
X23348809Y19523215D01*
X23379047Y19583691D01*
X23379047Y20097739D01*
X23620952Y20097739D02*
X24014047Y20097739D01*
X23802380Y19855834D01*
X23893095Y19855834D01*
X23953571Y19825596D01*
X23983809Y19795358D01*
X24014047Y19734881D01*
X24014047Y19583691D01*
X23983809Y19523215D01*
X23953571Y19492977D01*
X23893095Y19462739D01*
X23711666Y19462739D01*
X23651190Y19492977D01*
X23620952Y19523215D01*
G04 #@! TO.C,P2*
X33081309Y16732739D02*
X33081309Y17367739D01*
X33323214Y17367739D01*
X33383690Y17337500D01*
X33413928Y17307262D01*
X33444166Y17246786D01*
X33444166Y17156072D01*
X33413928Y17095596D01*
X33383690Y17065358D01*
X33323214Y17035120D01*
X33081309Y17035120D01*
X33686071Y17307262D02*
X33716309Y17337500D01*
X33776785Y17367739D01*
X33927976Y17367739D01*
X33988452Y17337500D01*
X34018690Y17307262D01*
X34048928Y17246786D01*
X34048928Y17186310D01*
X34018690Y17095596D01*
X33655833Y16732739D01*
X34048928Y16732739D01*
G04 #@! TO.C,P1*
X1281309Y16742739D02*
X1281309Y17377739D01*
X1523214Y17377739D01*
X1583690Y17347500D01*
X1613928Y17317262D01*
X1644166Y17256786D01*
X1644166Y17166072D01*
X1613928Y17105596D01*
X1583690Y17075358D01*
X1523214Y17045120D01*
X1281309Y17045120D01*
X2248928Y16742739D02*
X1886071Y16742739D01*
X2067500Y16742739D02*
X2067500Y17377739D01*
X2007023Y17287024D01*
X1946547Y17226548D01*
X1886071Y17196310D01*
G04 #@! TO.C,R2*
X16487261Y5294167D02*
X16184880Y5082500D01*
X16487261Y4931310D02*
X15852261Y4931310D01*
X15852261Y5173215D01*
X15882500Y5233691D01*
X15912738Y5263929D01*
X15973214Y5294167D01*
X16063928Y5294167D01*
X16124404Y5263929D01*
X16154642Y5233691D01*
X16184880Y5173215D01*
X16184880Y4931310D01*
X15912738Y5536072D02*
X15882500Y5566310D01*
X15852261Y5626786D01*
X15852261Y5777977D01*
X15882500Y5838453D01*
X15912738Y5868691D01*
X15973214Y5898929D01*
X16033690Y5898929D01*
X16124404Y5868691D01*
X16487261Y5505834D01*
X16487261Y5898929D01*
G04 #@! TO.C,R3*
X18362261Y4694167D02*
X18059880Y4482500D01*
X18362261Y4331310D02*
X17727261Y4331310D01*
X17727261Y4573215D01*
X17757500Y4633691D01*
X17787738Y4663929D01*
X17848214Y4694167D01*
X17938928Y4694167D01*
X17999404Y4663929D01*
X18029642Y4633691D01*
X18059880Y4573215D01*
X18059880Y4331310D01*
X17727261Y4905834D02*
X17727261Y5298929D01*
X17969166Y5087262D01*
X17969166Y5177977D01*
X17999404Y5238453D01*
X18029642Y5268691D01*
X18090119Y5298929D01*
X18241309Y5298929D01*
X18301785Y5268691D01*
X18332023Y5238453D01*
X18362261Y5177977D01*
X18362261Y4996548D01*
X18332023Y4936072D01*
X18301785Y4905834D01*
G04 #@! TO.C,R4*
X19332261Y4706567D02*
X19029880Y4494900D01*
X19332261Y4343710D02*
X18697261Y4343710D01*
X18697261Y4585615D01*
X18727500Y4646091D01*
X18757738Y4676329D01*
X18818214Y4706567D01*
X18908928Y4706567D01*
X18969404Y4676329D01*
X18999642Y4646091D01*
X19029880Y4585615D01*
X19029880Y4343710D01*
X18908928Y5250853D02*
X19332261Y5250853D01*
X18667023Y5099662D02*
X19120595Y4948472D01*
X19120595Y5341567D01*
G04 #@! TO.C,R5*
X20287261Y4694167D02*
X19984880Y4482500D01*
X20287261Y4331310D02*
X19652261Y4331310D01*
X19652261Y4573215D01*
X19682500Y4633691D01*
X19712738Y4663929D01*
X19773214Y4694167D01*
X19863928Y4694167D01*
X19924404Y4663929D01*
X19954642Y4633691D01*
X19984880Y4573215D01*
X19984880Y4331310D01*
X19652261Y5268691D02*
X19652261Y4966310D01*
X19954642Y4936072D01*
X19924404Y4966310D01*
X19894166Y5026786D01*
X19894166Y5177977D01*
X19924404Y5238453D01*
X19954642Y5268691D01*
X20015119Y5298929D01*
X20166309Y5298929D01*
X20226785Y5268691D01*
X20257023Y5238453D01*
X20287261Y5177977D01*
X20287261Y5026786D01*
X20257023Y4966310D01*
X20226785Y4936072D01*
G04 #@! TO.C,R6*
X21287261Y4694167D02*
X20984880Y4482500D01*
X21287261Y4331310D02*
X20652261Y4331310D01*
X20652261Y4573215D01*
X20682500Y4633691D01*
X20712738Y4663929D01*
X20773214Y4694167D01*
X20863928Y4694167D01*
X20924404Y4663929D01*
X20954642Y4633691D01*
X20984880Y4573215D01*
X20984880Y4331310D01*
X20652261Y5238453D02*
X20652261Y5117500D01*
X20682500Y5057024D01*
X20712738Y5026786D01*
X20803452Y4966310D01*
X20924404Y4936072D01*
X21166309Y4936072D01*
X21226785Y4966310D01*
X21257023Y4996548D01*
X21287261Y5057024D01*
X21287261Y5177977D01*
X21257023Y5238453D01*
X21226785Y5268691D01*
X21166309Y5298929D01*
X21015119Y5298929D01*
X20954642Y5268691D01*
X20924404Y5238453D01*
X20894166Y5177977D01*
X20894166Y5057024D01*
X20924404Y4996548D01*
X20954642Y4966310D01*
X21015119Y4936072D01*
G04 #@! TO.C,R7*
X17487261Y4694167D02*
X17184880Y4482500D01*
X17487261Y4331310D02*
X16852261Y4331310D01*
X16852261Y4573215D01*
X16882500Y4633691D01*
X16912738Y4663929D01*
X16973214Y4694167D01*
X17063928Y4694167D01*
X17124404Y4663929D01*
X17154642Y4633691D01*
X17184880Y4573215D01*
X17184880Y4331310D01*
X16852261Y4905834D02*
X16852261Y5329167D01*
X17487261Y5057024D01*
G04 #@! TO.C,R9*
X24469166Y10587739D02*
X24257500Y10890120D01*
X24106309Y10587739D02*
X24106309Y11222739D01*
X24348214Y11222739D01*
X24408690Y11192500D01*
X24438928Y11162262D01*
X24469166Y11101786D01*
X24469166Y11011072D01*
X24438928Y10950596D01*
X24408690Y10920358D01*
X24348214Y10890120D01*
X24106309Y10890120D01*
X24771547Y10587739D02*
X24892500Y10587739D01*
X24952976Y10617977D01*
X24983214Y10648215D01*
X25043690Y10738929D01*
X25073928Y10859881D01*
X25073928Y11101786D01*
X25043690Y11162262D01*
X25013452Y11192500D01*
X24952976Y11222739D01*
X24832023Y11222739D01*
X24771547Y11192500D01*
X24741309Y11162262D01*
X24711071Y11101786D01*
X24711071Y10950596D01*
X24741309Y10890120D01*
X24771547Y10859881D01*
X24832023Y10829643D01*
X24952976Y10829643D01*
X25013452Y10859881D01*
X25043690Y10890120D01*
X25073928Y10950596D01*
G04 #@! TO.C,R10*
X24466785Y9612739D02*
X24255119Y9915120D01*
X24103928Y9612739D02*
X24103928Y10247739D01*
X24345833Y10247739D01*
X24406309Y10217500D01*
X24436547Y10187262D01*
X24466785Y10126786D01*
X24466785Y10036072D01*
X24436547Y9975596D01*
X24406309Y9945358D01*
X24345833Y9915120D01*
X24103928Y9915120D01*
X25071547Y9612739D02*
X24708690Y9612739D01*
X24890119Y9612739D02*
X24890119Y10247739D01*
X24829642Y10157024D01*
X24769166Y10096548D01*
X24708690Y10066310D01*
X25464642Y10247739D02*
X25525119Y10247739D01*
X25585595Y10217500D01*
X25615833Y10187262D01*
X25646071Y10126786D01*
X25676309Y10005834D01*
X25676309Y9854643D01*
X25646071Y9733691D01*
X25615833Y9673215D01*
X25585595Y9642977D01*
X25525119Y9612739D01*
X25464642Y9612739D01*
X25404166Y9642977D01*
X25373928Y9673215D01*
X25343690Y9733691D01*
X25313452Y9854643D01*
X25313452Y10005834D01*
X25343690Y10126786D01*
X25373928Y10187262D01*
X25404166Y10217500D01*
X25464642Y10247739D01*
G04 #@! TO.C,R1*
X24687261Y3594167D02*
X24384880Y3382500D01*
X24687261Y3231310D02*
X24052261Y3231310D01*
X24052261Y3473215D01*
X24082500Y3533691D01*
X24112738Y3563929D01*
X24173214Y3594167D01*
X24263928Y3594167D01*
X24324404Y3563929D01*
X24354642Y3533691D01*
X24384880Y3473215D01*
X24384880Y3231310D01*
X24687261Y4198929D02*
X24687261Y3836072D01*
X24687261Y4017500D02*
X24052261Y4017500D01*
X24142976Y3957024D01*
X24203452Y3896548D01*
X24233690Y3836072D01*
G04 #@! TO.C,R8*
X25587261Y3594167D02*
X25284880Y3382500D01*
X25587261Y3231310D02*
X24952261Y3231310D01*
X24952261Y3473215D01*
X24982500Y3533691D01*
X25012738Y3563929D01*
X25073214Y3594167D01*
X25163928Y3594167D01*
X25224404Y3563929D01*
X25254642Y3533691D01*
X25284880Y3473215D01*
X25284880Y3231310D01*
X25224404Y3957024D02*
X25194166Y3896548D01*
X25163928Y3866310D01*
X25103452Y3836072D01*
X25073214Y3836072D01*
X25012738Y3866310D01*
X24982500Y3896548D01*
X24952261Y3957024D01*
X24952261Y4077977D01*
X24982500Y4138453D01*
X25012738Y4168691D01*
X25073214Y4198929D01*
X25103452Y4198929D01*
X25163928Y4168691D01*
X25194166Y4138453D01*
X25224404Y4077977D01*
X25224404Y3957024D01*
X25254642Y3896548D01*
X25284880Y3866310D01*
X25345357Y3836072D01*
X25466309Y3836072D01*
X25526785Y3866310D01*
X25557023Y3896548D01*
X25587261Y3957024D01*
X25587261Y4077977D01*
X25557023Y4138453D01*
X25526785Y4168691D01*
X25466309Y4198929D01*
X25345357Y4198929D01*
X25284880Y4168691D01*
X25254642Y4138453D01*
X25224404Y4077977D01*
G04 #@! TO.C,P6*
X30431309Y16732739D02*
X30431309Y17367739D01*
X30673214Y17367739D01*
X30733690Y17337500D01*
X30763928Y17307262D01*
X30794166Y17246786D01*
X30794166Y17156072D01*
X30763928Y17095596D01*
X30733690Y17065358D01*
X30673214Y17035120D01*
X30431309Y17035120D01*
X31338452Y17367739D02*
X31217500Y17367739D01*
X31157023Y17337500D01*
X31126785Y17307262D01*
X31066309Y17216548D01*
X31036071Y17095596D01*
X31036071Y16853691D01*
X31066309Y16793215D01*
X31096547Y16762977D01*
X31157023Y16732739D01*
X31277976Y16732739D01*
X31338452Y16762977D01*
X31368690Y16793215D01*
X31398928Y16853691D01*
X31398928Y17004881D01*
X31368690Y17065358D01*
X31338452Y17095596D01*
X31277976Y17125834D01*
X31157023Y17125834D01*
X31096547Y17095596D01*
X31066309Y17065358D01*
X31036071Y17004881D01*
G04 #@! TD*
M02*
