M48
;DRILL file {KiCad (5.0.1-3-g963ef8bb5)} date Tuesday, March 19, 2019 at 04:07:17 PM
;FORMAT={-:-/ absolute / inch / decimal}
FMAT,2
INCH,TZ
T1C0.0157
T2C0.0394
%
G90
G05
M72
T1
X0.0433Y0.8287
X0.0512Y0.7795
X0.1732Y0.7047
X0.2126Y0.7815
X0.2205Y0.878
X0.2638Y1.0551
X0.3701Y0.8661
X0.4114Y0.5285
X0.4134Y0.4449
X0.4154Y0.4134
X0.4409Y0.8701
X0.4439Y0.625
X0.4449Y0.1772
X0.4665Y0.2815
X0.4675Y0.6919
X0.4803Y1.3189
X0.503Y0.4921
X0.5254Y0.6476
X0.5354Y0.5709
X0.562Y1.0157
X0.562Y0.5
X0.5925Y0.561
X0.5984Y0.9646
X0.5984Y0.2874
X0.626Y0.7451
X0.628Y0.1486
X0.6339Y0.6535
X0.6693Y0.6063
X0.6732Y0.6909
X0.6742Y0.2224
X0.6791Y0.6496
X0.6848Y0.4875
X0.6848Y0.4117
X0.7156Y0.2224
X0.751Y0.2195
X0.7596Y0.4875
X0.7596Y0.4117
X0.7677Y1.2441
X0.7864Y0.2205
X0.7943Y0.872
X0.811Y0.5984
X0.8209Y0.56
X0.8238Y0.2224
X0.8386Y0.8425
X0.8425Y0.7205
X0.8445Y0.3583
X0.8484Y0.6752
X0.8711Y0.502
X0.8711Y0.3287
X0.9085Y0.502
X0.9114Y0.4705
X0.9114Y0.2953
X0.9193Y0.0984
X0.936Y0.3533
X0.9537Y0.4104
X0.9597Y0.1581
X0.9646Y0.4803
X0.9665Y0.7598
X0.9665Y0.5856
X0.9751Y1.4062
X0.9882Y0.4498
X0.9882Y0.2805
X0.998Y0.2096
X1.0039Y0.1614
X1.0512Y0.5295
X1.1191Y0.7785
X1.2313Y1.378
X1.2697Y0.8799
X1.437Y0.7913
X1.4409Y0.6969
X1.4469Y0.9291
T2
X0.0689Y0.5787
X0.0689Y0.4787
X0.0689Y0.3787
X0.0689Y0.2787
X0.0689Y0.1787
X0.0689Y0.0787
X1.4252Y0.5787
X1.4252Y0.4787
X1.4252Y0.3787
X1.4252Y0.2787
X1.4252Y0.1787
X1.4252Y0.0787
X1.3209Y0.5783
X1.3209Y0.4783
X1.3209Y0.3783
X1.3209Y0.2783
X1.3209Y0.1783
X1.3209Y0.0783
X0.1732Y0.5787
X0.1732Y0.4787
X0.1732Y0.3787
X0.1732Y0.2787
X0.1732Y0.1787
X0.1732Y0.0787
X1.2165Y0.5783
X1.2165Y0.4783
X1.2165Y0.3783
X1.2165Y0.2783
X1.2165Y0.1783
X1.2165Y0.0783
X0.2776Y0.5787
X0.2776Y0.4787
X0.2776Y0.3787
X0.2776Y0.2787
X0.2776Y0.1787
X0.2776Y0.0787
T0
M30
