M48
;DRILL file {KiCad (5.0.1-3-g963ef8bb5)} date Wednesday, January 09, 2019 at 05:44:20 PM
;FORMAT={-:-/ absolute / inch / decimal}
FMAT,2
INCH,TZ
T1C0.0157
T2C0.0394
%
G90
G05
M72
T1
X0.0433Y0.8287
X0.0512Y0.7795
X0.1732Y0.7047
X0.2126Y0.7815
X0.2205Y0.878
X0.2638Y1.0551
X0.3701Y0.8661
X0.3799Y0.2293
X0.3808Y0.4355
X0.4016Y0.1909
X0.4035Y0.2726
X0.4114Y0.5285
X0.4163Y0.4341
X0.4409Y0.8701
X0.4439Y0.625
X0.4449Y0.1772
X0.4665Y0.2815
X0.4675Y0.6919
X0.4803Y1.3189
X0.503Y0.4921
X0.5254Y0.6476
X0.5354Y0.5709
X0.562Y0.5
X0.5915Y1.1299
X0.5925Y1.0955
X0.5925Y0.561
X0.5984Y0.2874
X0.626Y0.7451
X0.628Y0.1486
X0.6339Y0.6535
X0.6693Y0.6063
X0.6732Y0.6909
X0.6742Y0.2224
X0.6791Y0.6496
X0.6848Y0.4875
X0.6848Y0.4117
X0.7156Y0.2224
X0.751Y0.2195
X0.7596Y0.4875
X0.7596Y0.4117
X0.7677Y1.2441
X0.7864Y0.2205
X0.7933Y0.9843
X0.811Y0.5984
X0.8209Y0.56
X0.8238Y0.2224
X0.8386Y0.8425
X0.8425Y0.7205
X0.8484Y0.6752
X0.874Y0.4646
X0.8986Y0.4892
X0.9045Y0.3543
X0.9055Y0.2431
X0.9498Y0.4606
X0.9626Y0.3179
X0.9665Y0.7598
X0.9751Y1.4062
X0.9913Y0.3916
X0.9921Y0.1348
X1.0039Y0.5492
X1.0157Y0.4262
X1.0177Y0.2313
X1.1191Y0.5266
X1.1191Y0.7785
X1.2313Y1.378
X1.2697Y0.8799
X1.437Y0.7913
X1.4409Y0.6969
X1.4469Y0.9291
T2
X1.3189Y0.5787
X1.3189Y0.4787
X1.3189Y0.3787
X1.3189Y0.2787
X1.3189Y0.1787
X1.3189Y0.0787
X1.4252Y0.5787
X1.4252Y0.4787
X1.4252Y0.3787
X1.4252Y0.2787
X1.4252Y0.1787
X1.4252Y0.0787
X0.1732Y0.5787
X0.1732Y0.4787
X0.1732Y0.3787
X0.1732Y0.2787
X0.1732Y0.1787
X0.1732Y0.0787
X0.0689Y0.5787
X0.0689Y0.4787
X0.0689Y0.3787
X0.0689Y0.2787
X0.0689Y0.1787
X0.0689Y0.0787
X0.2776Y0.5787
X0.2776Y0.4787
X0.2776Y0.3787
X0.2776Y0.2787
X0.2776Y0.1787
X0.2776Y0.0787
T0
M30
