G04 #@! TF.GenerationSoftware,KiCad,Pcbnew,(5.0.1-3-g963ef8bb5)*
G04 #@! TF.CreationDate,2019-03-19T16:07:13-04:00*
G04 #@! TF.ProjectId,Tympan_AIC_Shield,54796D70616E5F4149435F536869656C,rev?*
G04 #@! TF.SameCoordinates,PX6d878d0PY5279480*
G04 #@! TF.FileFunction,Copper,L2,Inr,Plane*
G04 #@! TF.FilePolarity,Positive*
%FSLAX46Y46*%
G04 Gerber Fmt 4.6, Leading zero omitted, Abs format (unit mm)*
G04 Created by KiCad (PCBNEW (5.0.1-3-g963ef8bb5)) date Tuesday, March 19, 2019 at 04:07:13 PM*
%MOMM*%
%LPD*%
G01*
G04 APERTURE LIST*
G04 #@! TA.AperFunction,ViaPad*
%ADD10R,1.700000X1.700000*%
G04 #@! TD*
G04 #@! TA.AperFunction,ViaPad*
%ADD11O,1.700000X1.700000*%
G04 #@! TD*
G04 #@! TA.AperFunction,ViaPad*
%ADD12C,0.600000*%
G04 #@! TD*
G04 #@! TA.AperFunction,Conductor*
%ADD13C,0.203200*%
G04 #@! TD*
G04 #@! TA.AperFunction,Conductor*
%ADD14C,0.250000*%
G04 #@! TD*
G04 #@! TA.AperFunction,Conductor*
%ADD15C,0.177800*%
G04 #@! TD*
G04 #@! TA.AperFunction,Conductor*
%ADD16C,0.254000*%
G04 #@! TD*
G04 APERTURE END LIST*
D10*
G04 #@! TO.N,+3V3*
G04 #@! TO.C,P3*
X36200000Y14700000D03*
D11*
G04 #@! TO.N,/DOUT_1*
X36200000Y12160000D03*
G04 #@! TO.N,/DIN_1*
X36200000Y9620000D03*
G04 #@! TO.N,/SDA2*
X36200000Y7080000D03*
G04 #@! TO.N,/SCL2*
X36200000Y4540000D03*
G04 #@! TO.N,GND*
X36200000Y2000000D03*
G04 #@! TD*
D10*
G04 #@! TO.N,/M_BIAS_1*
G04 #@! TO.C,P4*
X4400000Y14700000D03*
D11*
G04 #@! TO.N,/MCLK*
X4400000Y12160000D03*
G04 #@! TO.N,/BCLK*
X4400000Y9620000D03*
G04 #@! TO.N,/WCLK*
X4400000Y7080000D03*
G04 #@! TO.N,/nRESET_1*
X4400000Y4540000D03*
G04 #@! TO.N,GND*
X4400000Y2000000D03*
G04 #@! TD*
D10*
G04 #@! TO.N,+1V8*
G04 #@! TO.C,P5*
X7050000Y14700000D03*
D11*
G04 #@! TO.N,Net-(C23-Pad2)*
X7050000Y12160000D03*
G04 #@! TO.N,Net-(C24-Pad2)*
X7050000Y9620000D03*
G04 #@! TO.N,Net-(C25-Pad2)*
X7050000Y7080000D03*
G04 #@! TO.N,Net-(C26-Pad2)*
X7050000Y4540000D03*
G04 #@! TO.N,GND*
X7050000Y2000000D03*
G04 #@! TD*
D10*
G04 #@! TO.N,/PDM_DAT*
G04 #@! TO.C,P2*
X33550000Y14690000D03*
D11*
G04 #@! TO.N,/PDM_CLK*
X33550000Y12150000D03*
G04 #@! TO.N,/MISO_2*
X33550000Y9610000D03*
G04 #@! TO.N,/MOSI_2*
X33550000Y7070000D03*
G04 #@! TO.N,/SCK_2*
X33550000Y4530000D03*
G04 #@! TO.N,/SS_2*
X33550000Y1990000D03*
G04 #@! TD*
G04 #@! TO.N,GND*
G04 #@! TO.C,P1*
X1750000Y2000000D03*
G04 #@! TO.N,/LOR*
X1750000Y4540000D03*
G04 #@! TO.N,/LOL*
X1750000Y7080000D03*
G04 #@! TO.N,/IN1_L*
X1750000Y9620000D03*
G04 #@! TO.N,/IN1_R*
X1750000Y12160000D03*
D10*
G04 #@! TO.N,+1V8*
X1750000Y14700000D03*
G04 #@! TD*
D11*
G04 #@! TO.N,GND*
G04 #@! TO.C,P6*
X30900000Y1990000D03*
G04 #@! TO.N,/PDM_CLK1*
X30900000Y4530000D03*
G04 #@! TO.N,/PDM_DAT1*
X30900000Y7070000D03*
G04 #@! TO.N,/IN2_R_1*
X30900000Y9610000D03*
G04 #@! TO.N,/IN2_L_1*
X30900000Y12150000D03*
D10*
G04 #@! TO.N,+3V3*
X30900000Y14690000D03*
G04 #@! TD*
D12*
G04 #@! TO.N,GND*
X17000000Y15400000D03*
X36750000Y23600000D03*
X32250000Y22350000D03*
X1100000Y21050000D03*
X5600000Y22300000D03*
X19294600Y12383000D03*
X17394600Y12383000D03*
X24766379Y35718390D03*
X21550000Y17150000D03*
X20600000Y15200008D03*
X17394600Y10456090D03*
X19294600Y10456090D03*
G04 #@! TO.N,+3V3*
X36600000Y17700000D03*
X4400000Y17900000D03*
X24550000Y19299998D03*
X13343903Y16450000D03*
X23150000Y7500000D03*
X23350000Y2499998D03*
G04 #@! TO.N,+1V8*
X16100000Y16600000D03*
X13600000Y14500000D03*
X15200042Y7300000D03*
G04 #@! TO.N,Net-(C17-Pad2)*
X36500000Y20100000D03*
G04 #@! TO.N,Net-(C19-Pad2)*
X1300000Y19800000D03*
G04 #@! TO.N,Net-(J1-Pad3)*
X19500000Y31600000D03*
X31275000Y35000000D03*
G04 #@! TO.N,/MICDET*
X9400000Y22000000D03*
X12775003Y12500003D03*
G04 #@! TO.N,/BCLK*
X18175000Y5650000D03*
G04 #@! TO.N,/MCLK*
X17125000Y5650000D03*
G04 #@! TO.N,/WCLK*
X19075000Y5575000D03*
G04 #@! TO.N,/HPL*
X15050000Y14250000D03*
X15200000Y24500000D03*
G04 #@! TO.N,/HPR*
X14275000Y12700000D03*
X14275000Y25800000D03*
G04 #@! TO.N,Net-(R16-Pad2)*
X15900000Y18925000D03*
X21400000Y18300000D03*
G04 #@! TO.N,Net-(C12-Pad2)*
X6700000Y26800000D03*
X20175000Y22150000D03*
G04 #@! TO.N,Net-(C13-Pad2)*
X12200000Y33500000D03*
X11200000Y22100000D03*
G04 #@! TO.N,/nRESET_1*
X15950000Y3775000D03*
G04 #@! TO.N,/DIN_1*
X19975000Y5600000D03*
X22125000Y8350000D03*
G04 #@! TO.N,/DOUT_1*
X20925000Y5650000D03*
X24500000Y12200000D03*
G04 #@! TO.N,/SDA2*
X25350000Y5325000D03*
X25100000Y11424998D03*
G04 #@! TO.N,/SCL2*
X24376979Y4015460D03*
X24225000Y10425000D03*
G04 #@! TO.N,/M_BIAS_1*
X10450000Y13425000D03*
X24550000Y14875004D03*
G04 #@! TO.N,/IN2_L_1*
X28425002Y19775000D03*
X26700000Y13450000D03*
G04 #@! TO.N,/IN2_R_1*
X5400000Y19850000D03*
X21300000Y21400000D03*
X20850000Y14225000D03*
X21450000Y9100000D03*
G04 #@! TO.N,/IN1_R_1*
X10500000Y11300000D03*
X22125000Y12750000D03*
G04 #@! TO.N,/IN1_L_1*
X10550000Y10500000D03*
X23075000Y12749998D03*
G04 #@! TO.N,/LOL_1*
X17100000Y17550000D03*
X11875000Y17575000D03*
X11850000Y7150000D03*
G04 #@! TO.N,/LOR_1*
X17250000Y16500000D03*
X11275000Y15875000D03*
X11300000Y4500000D03*
G04 #@! TO.N,/PDM_CLK1*
X23775000Y8975000D03*
X25500000Y4100000D03*
G04 #@! TO.N,/PDM_DAT1*
X23150000Y11950000D03*
X25100000Y7125000D03*
G04 #@! TD*
D13*
G04 #@! TO.N,GND*
X24466380Y35418391D02*
X24766379Y35718390D01*
D14*
X23750000Y16350000D02*
X23750000Y34702011D01*
X23350000Y15950000D02*
X23750000Y16350000D01*
X23750000Y34702011D02*
X24466380Y35418391D01*
X17550000Y15950000D02*
X23350000Y15950000D01*
X17000000Y15400000D02*
X17550000Y15950000D01*
D15*
G04 #@! TO.N,/MICDET*
X12775003Y18624997D02*
X12775003Y12924267D01*
X9400000Y22000000D02*
X12775003Y18624997D01*
X12775003Y12924267D02*
X12775003Y12500003D01*
G04 #@! TO.N,/HPL*
X15050000Y24350000D02*
X15050000Y14250000D01*
X15200000Y24500000D02*
X15050000Y24350000D01*
G04 #@! TO.N,/HPR*
X14275000Y25800000D02*
X14275000Y12700000D01*
D13*
G04 #@! TO.N,Net-(C13-Pad2)*
X11200000Y22100000D02*
X12200000Y23100000D01*
D15*
X12200000Y33800000D02*
X12200000Y23400000D01*
D13*
X12200000Y23100000D02*
X12200000Y23400000D01*
G04 #@! TO.N,/IN2_R_1*
X20850000Y9700000D02*
X21450000Y9100000D01*
X20850000Y14225000D02*
X20850000Y9700000D01*
D15*
G04 #@! TO.N,/LOL_1*
X11875000Y7175000D02*
X11850000Y7150000D01*
X11875000Y17575000D02*
X11875000Y7175000D01*
G04 #@! TO.N,/LOR_1*
X11275000Y15875000D02*
X11275000Y4525000D01*
X11275000Y4525000D02*
X11300000Y4500000D01*
D13*
G04 #@! TO.N,/PDM_CLK1*
X23775000Y5825000D02*
X25500000Y4100000D01*
X23775000Y8975000D02*
X23775000Y5825000D01*
G04 #@! TO.N,/PDM_DAT1*
X25100000Y10475000D02*
X25100000Y7125000D01*
X23625000Y11950000D02*
X25100000Y10475000D01*
X23150000Y11950000D02*
X23625000Y11950000D01*
G04 #@! TD*
D16*
G04 #@! TO.N,+1V8*
G36*
X36104960Y39541389D02*
X36178489Y39524346D01*
X36621546Y39457736D01*
X36960246Y39295094D01*
X37236147Y39040054D01*
X37424860Y38715161D01*
X37515761Y38322987D01*
X37519371Y38231115D01*
X37544001Y38102001D01*
X37544000Y1900370D01*
X37541389Y1895040D01*
X37524346Y1821511D01*
X37457736Y1378454D01*
X37295094Y1039754D01*
X37040054Y763853D01*
X36715162Y575141D01*
X36322983Y484239D01*
X36231115Y480629D01*
X36102007Y456000D01*
X1900370Y456000D01*
X1895040Y458611D01*
X1821511Y475654D01*
X1378454Y542264D01*
X1039754Y704906D01*
X763853Y959946D01*
X575141Y1284838D01*
X484239Y1677017D01*
X480629Y1768885D01*
X456000Y1897993D01*
X456000Y2000000D01*
X494884Y2000000D01*
X590424Y1519688D01*
X862499Y1112499D01*
X1269688Y840424D01*
X1628761Y769000D01*
X1871239Y769000D01*
X2230312Y840424D01*
X2637501Y1112499D01*
X2909576Y1519688D01*
X3005116Y2000000D01*
X3144884Y2000000D01*
X3240424Y1519688D01*
X3512499Y1112499D01*
X3919688Y840424D01*
X4278761Y769000D01*
X4521239Y769000D01*
X4880312Y840424D01*
X5287501Y1112499D01*
X5559576Y1519688D01*
X5655116Y2000000D01*
X5794884Y2000000D01*
X5890424Y1519688D01*
X6162499Y1112499D01*
X6569688Y840424D01*
X6928761Y769000D01*
X7171239Y769000D01*
X7530312Y840424D01*
X7937501Y1112499D01*
X8209576Y1519688D01*
X8305116Y2000000D01*
X8209576Y2480312D01*
X8105912Y2635457D01*
X22669000Y2635457D01*
X22669000Y2364539D01*
X22772676Y2114242D01*
X22964244Y1922674D01*
X23214541Y1818998D01*
X23485459Y1818998D01*
X23735756Y1922674D01*
X23803082Y1990000D01*
X29644884Y1990000D01*
X29740424Y1509688D01*
X30012499Y1102499D01*
X30419688Y830424D01*
X30778761Y759000D01*
X31021239Y759000D01*
X31380312Y830424D01*
X31787501Y1102499D01*
X32059576Y1509688D01*
X32155116Y1990000D01*
X32294884Y1990000D01*
X32390424Y1509688D01*
X32662499Y1102499D01*
X33069688Y830424D01*
X33428761Y759000D01*
X33671239Y759000D01*
X34030312Y830424D01*
X34437501Y1102499D01*
X34709576Y1509688D01*
X34805116Y1990000D01*
X34803127Y2000000D01*
X34944884Y2000000D01*
X35040424Y1519688D01*
X35312499Y1112499D01*
X35719688Y840424D01*
X36078761Y769000D01*
X36321239Y769000D01*
X36680312Y840424D01*
X37087501Y1112499D01*
X37359576Y1519688D01*
X37455116Y2000000D01*
X37359576Y2480312D01*
X37087501Y2887501D01*
X36680312Y3159576D01*
X36321239Y3231000D01*
X36078761Y3231000D01*
X35719688Y3159576D01*
X35312499Y2887501D01*
X35040424Y2480312D01*
X34944884Y2000000D01*
X34803127Y2000000D01*
X34709576Y2470312D01*
X34437501Y2877501D01*
X34030312Y3149576D01*
X33671239Y3221000D01*
X33428761Y3221000D01*
X33069688Y3149576D01*
X32662499Y2877501D01*
X32390424Y2470312D01*
X32294884Y1990000D01*
X32155116Y1990000D01*
X32059576Y2470312D01*
X31787501Y2877501D01*
X31380312Y3149576D01*
X31021239Y3221000D01*
X30778761Y3221000D01*
X30419688Y3149576D01*
X30012499Y2877501D01*
X29740424Y2470312D01*
X29644884Y1990000D01*
X23803082Y1990000D01*
X23927324Y2114242D01*
X24031000Y2364539D01*
X24031000Y2635457D01*
X23927324Y2885754D01*
X23735756Y3077322D01*
X23485459Y3180998D01*
X23214541Y3180998D01*
X22964244Y3077322D01*
X22772676Y2885754D01*
X22669000Y2635457D01*
X8105912Y2635457D01*
X7937501Y2887501D01*
X7530312Y3159576D01*
X7171239Y3231000D01*
X6928761Y3231000D01*
X6569688Y3159576D01*
X6162499Y2887501D01*
X5890424Y2480312D01*
X5794884Y2000000D01*
X5655116Y2000000D01*
X5559576Y2480312D01*
X5287501Y2887501D01*
X4880312Y3159576D01*
X4521239Y3231000D01*
X4278761Y3231000D01*
X3919688Y3159576D01*
X3512499Y2887501D01*
X3240424Y2480312D01*
X3144884Y2000000D01*
X3005116Y2000000D01*
X2909576Y2480312D01*
X2637501Y2887501D01*
X2230312Y3159576D01*
X1871239Y3231000D01*
X1628761Y3231000D01*
X1269688Y3159576D01*
X862499Y2887501D01*
X590424Y2480312D01*
X494884Y2000000D01*
X456000Y2000000D01*
X456000Y4540000D01*
X494884Y4540000D01*
X590424Y4059688D01*
X862499Y3652499D01*
X1269688Y3380424D01*
X1628761Y3309000D01*
X1871239Y3309000D01*
X2230312Y3380424D01*
X2637501Y3652499D01*
X2909576Y4059688D01*
X3005116Y4540000D01*
X3144884Y4540000D01*
X3240424Y4059688D01*
X3512499Y3652499D01*
X3919688Y3380424D01*
X4278761Y3309000D01*
X4521239Y3309000D01*
X4880312Y3380424D01*
X5287501Y3652499D01*
X5559576Y4059688D01*
X5655116Y4540000D01*
X5794884Y4540000D01*
X5890424Y4059688D01*
X6162499Y3652499D01*
X6569688Y3380424D01*
X6928761Y3309000D01*
X7171239Y3309000D01*
X7530312Y3380424D01*
X7937501Y3652499D01*
X8209576Y4059688D01*
X8305116Y4540000D01*
X8209576Y5020312D01*
X7937501Y5427501D01*
X7530312Y5699576D01*
X7171239Y5771000D01*
X6928761Y5771000D01*
X6569688Y5699576D01*
X6162499Y5427501D01*
X5890424Y5020312D01*
X5794884Y4540000D01*
X5655116Y4540000D01*
X5559576Y5020312D01*
X5287501Y5427501D01*
X4880312Y5699576D01*
X4521239Y5771000D01*
X4278761Y5771000D01*
X3919688Y5699576D01*
X3512499Y5427501D01*
X3240424Y5020312D01*
X3144884Y4540000D01*
X3005116Y4540000D01*
X2909576Y5020312D01*
X2637501Y5427501D01*
X2230312Y5699576D01*
X1871239Y5771000D01*
X1628761Y5771000D01*
X1269688Y5699576D01*
X862499Y5427501D01*
X590424Y5020312D01*
X494884Y4540000D01*
X456000Y4540000D01*
X456000Y7080000D01*
X494884Y7080000D01*
X590424Y6599688D01*
X862499Y6192499D01*
X1269688Y5920424D01*
X1628761Y5849000D01*
X1871239Y5849000D01*
X2230312Y5920424D01*
X2637501Y6192499D01*
X2909576Y6599688D01*
X3005116Y7080000D01*
X3144884Y7080000D01*
X3240424Y6599688D01*
X3512499Y6192499D01*
X3919688Y5920424D01*
X4278761Y5849000D01*
X4521239Y5849000D01*
X4880312Y5920424D01*
X5287501Y6192499D01*
X5559576Y6599688D01*
X5655116Y7080000D01*
X5794884Y7080000D01*
X5890424Y6599688D01*
X6162499Y6192499D01*
X6569688Y5920424D01*
X6928761Y5849000D01*
X7171239Y5849000D01*
X7530312Y5920424D01*
X7937501Y6192499D01*
X8209576Y6599688D01*
X8305116Y7080000D01*
X8209576Y7560312D01*
X7937501Y7967501D01*
X7530312Y8239576D01*
X7171239Y8311000D01*
X6928761Y8311000D01*
X6569688Y8239576D01*
X6162499Y7967501D01*
X5890424Y7560312D01*
X5794884Y7080000D01*
X5655116Y7080000D01*
X5559576Y7560312D01*
X5287501Y7967501D01*
X4880312Y8239576D01*
X4521239Y8311000D01*
X4278761Y8311000D01*
X3919688Y8239576D01*
X3512499Y7967501D01*
X3240424Y7560312D01*
X3144884Y7080000D01*
X3005116Y7080000D01*
X2909576Y7560312D01*
X2637501Y7967501D01*
X2230312Y8239576D01*
X1871239Y8311000D01*
X1628761Y8311000D01*
X1269688Y8239576D01*
X862499Y7967501D01*
X590424Y7560312D01*
X494884Y7080000D01*
X456000Y7080000D01*
X456000Y9620000D01*
X494884Y9620000D01*
X590424Y9139688D01*
X862499Y8732499D01*
X1269688Y8460424D01*
X1628761Y8389000D01*
X1871239Y8389000D01*
X2230312Y8460424D01*
X2637501Y8732499D01*
X2909576Y9139688D01*
X3005116Y9620000D01*
X3144884Y9620000D01*
X3240424Y9139688D01*
X3512499Y8732499D01*
X3919688Y8460424D01*
X4278761Y8389000D01*
X4521239Y8389000D01*
X4880312Y8460424D01*
X5287501Y8732499D01*
X5559576Y9139688D01*
X5655116Y9620000D01*
X5794884Y9620000D01*
X5890424Y9139688D01*
X6162499Y8732499D01*
X6569688Y8460424D01*
X6928761Y8389000D01*
X7171239Y8389000D01*
X7530312Y8460424D01*
X7937501Y8732499D01*
X8209576Y9139688D01*
X8305116Y9620000D01*
X8209576Y10100312D01*
X7937501Y10507501D01*
X7530312Y10779576D01*
X7171239Y10851000D01*
X6928761Y10851000D01*
X6569688Y10779576D01*
X6162499Y10507501D01*
X5890424Y10100312D01*
X5794884Y9620000D01*
X5655116Y9620000D01*
X5559576Y10100312D01*
X5287501Y10507501D01*
X4880312Y10779576D01*
X4521239Y10851000D01*
X4278761Y10851000D01*
X3919688Y10779576D01*
X3512499Y10507501D01*
X3240424Y10100312D01*
X3144884Y9620000D01*
X3005116Y9620000D01*
X2909576Y10100312D01*
X2637501Y10507501D01*
X2230312Y10779576D01*
X1871239Y10851000D01*
X1628761Y10851000D01*
X1269688Y10779576D01*
X862499Y10507501D01*
X590424Y10100312D01*
X494884Y9620000D01*
X456000Y9620000D01*
X456000Y12160000D01*
X494884Y12160000D01*
X590424Y11679688D01*
X862499Y11272499D01*
X1269688Y11000424D01*
X1628761Y10929000D01*
X1871239Y10929000D01*
X2230312Y11000424D01*
X2637501Y11272499D01*
X2909576Y11679688D01*
X3005116Y12160000D01*
X3144884Y12160000D01*
X3240424Y11679688D01*
X3512499Y11272499D01*
X3919688Y11000424D01*
X4278761Y10929000D01*
X4521239Y10929000D01*
X4880312Y11000424D01*
X5287501Y11272499D01*
X5559576Y11679688D01*
X5655116Y12160000D01*
X5794884Y12160000D01*
X5890424Y11679688D01*
X6162499Y11272499D01*
X6569688Y11000424D01*
X6928761Y10929000D01*
X7171239Y10929000D01*
X7530312Y11000424D01*
X7937501Y11272499D01*
X8209576Y11679688D01*
X8305116Y12160000D01*
X8209576Y12640312D01*
X7937501Y13047501D01*
X7530312Y13319576D01*
X7171239Y13391000D01*
X6928761Y13391000D01*
X6569688Y13319576D01*
X6162499Y13047501D01*
X5890424Y12640312D01*
X5794884Y12160000D01*
X5655116Y12160000D01*
X5559576Y12640312D01*
X5287501Y13047501D01*
X4880312Y13319576D01*
X4521239Y13391000D01*
X4278761Y13391000D01*
X3919688Y13319576D01*
X3512499Y13047501D01*
X3240424Y12640312D01*
X3144884Y12160000D01*
X3005116Y12160000D01*
X2909576Y12640312D01*
X2637501Y13047501D01*
X2230312Y13319576D01*
X1871239Y13391000D01*
X1628761Y13391000D01*
X1269688Y13319576D01*
X862499Y13047501D01*
X590424Y12640312D01*
X494884Y12160000D01*
X456000Y12160000D01*
X456000Y14477750D01*
X519000Y14477750D01*
X519000Y13774215D01*
X577004Y13634181D01*
X684180Y13527004D01*
X824214Y13469000D01*
X1527750Y13469000D01*
X1623000Y13564250D01*
X1623000Y14573000D01*
X1877000Y14573000D01*
X1877000Y13564250D01*
X1972250Y13469000D01*
X2675786Y13469000D01*
X2815820Y13527004D01*
X2922996Y13634181D01*
X2981000Y13774215D01*
X2981000Y14477750D01*
X2885750Y14573000D01*
X1877000Y14573000D01*
X1623000Y14573000D01*
X614250Y14573000D01*
X519000Y14477750D01*
X456000Y14477750D01*
X456000Y15625785D01*
X519000Y15625785D01*
X519000Y14922250D01*
X614250Y14827000D01*
X1623000Y14827000D01*
X1623000Y15835750D01*
X1877000Y15835750D01*
X1877000Y14827000D01*
X2885750Y14827000D01*
X2981000Y14922250D01*
X2981000Y15550000D01*
X3161536Y15550000D01*
X3161536Y13850000D01*
X3191106Y13701341D01*
X3275314Y13575314D01*
X3401341Y13491106D01*
X3550000Y13461536D01*
X5250000Y13461536D01*
X5398659Y13491106D01*
X5524686Y13575314D01*
X5608894Y13701341D01*
X5638464Y13850000D01*
X5638464Y14477750D01*
X5819000Y14477750D01*
X5819000Y13774215D01*
X5877004Y13634181D01*
X5984180Y13527004D01*
X6124214Y13469000D01*
X6827750Y13469000D01*
X6923000Y13564250D01*
X6923000Y14573000D01*
X7177000Y14573000D01*
X7177000Y13564250D01*
X7272250Y13469000D01*
X7975786Y13469000D01*
X8115820Y13527004D01*
X8222996Y13634181D01*
X8281000Y13774215D01*
X8281000Y14477750D01*
X8185750Y14573000D01*
X7177000Y14573000D01*
X6923000Y14573000D01*
X5914250Y14573000D01*
X5819000Y14477750D01*
X5638464Y14477750D01*
X5638464Y15550000D01*
X5623390Y15625785D01*
X5819000Y15625785D01*
X5819000Y14922250D01*
X5914250Y14827000D01*
X6923000Y14827000D01*
X6923000Y15835750D01*
X7177000Y15835750D01*
X7177000Y14827000D01*
X8185750Y14827000D01*
X8281000Y14922250D01*
X8281000Y15625785D01*
X8222996Y15765819D01*
X8115820Y15872996D01*
X7975786Y15931000D01*
X7272250Y15931000D01*
X7177000Y15835750D01*
X6923000Y15835750D01*
X6827750Y15931000D01*
X6124214Y15931000D01*
X5984180Y15872996D01*
X5877004Y15765819D01*
X5819000Y15625785D01*
X5623390Y15625785D01*
X5608894Y15698659D01*
X5524686Y15824686D01*
X5398659Y15908894D01*
X5250000Y15938464D01*
X3550000Y15938464D01*
X3401341Y15908894D01*
X3275314Y15824686D01*
X3191106Y15698659D01*
X3161536Y15550000D01*
X2981000Y15550000D01*
X2981000Y15625785D01*
X2922996Y15765819D01*
X2815820Y15872996D01*
X2675786Y15931000D01*
X1972250Y15931000D01*
X1877000Y15835750D01*
X1623000Y15835750D01*
X1527750Y15931000D01*
X824214Y15931000D01*
X684180Y15872996D01*
X577004Y15765819D01*
X519000Y15625785D01*
X456000Y15625785D01*
X456000Y18035459D01*
X3719000Y18035459D01*
X3719000Y17764541D01*
X3822676Y17514244D01*
X4014244Y17322676D01*
X4264541Y17219000D01*
X4535459Y17219000D01*
X4785756Y17322676D01*
X4977324Y17514244D01*
X5081000Y17764541D01*
X5081000Y18035459D01*
X4977324Y18285756D01*
X4785756Y18477324D01*
X4535459Y18581000D01*
X4264541Y18581000D01*
X4014244Y18477324D01*
X3822676Y18285756D01*
X3719000Y18035459D01*
X456000Y18035459D01*
X456000Y20825215D01*
X522676Y20664244D01*
X714244Y20472676D01*
X929345Y20383579D01*
X914244Y20377324D01*
X722676Y20185756D01*
X619000Y19935459D01*
X619000Y19664541D01*
X722676Y19414244D01*
X914244Y19222676D01*
X1164541Y19119000D01*
X1435459Y19119000D01*
X1685756Y19222676D01*
X1877324Y19414244D01*
X1981000Y19664541D01*
X1981000Y19935459D01*
X1960290Y19985459D01*
X4719000Y19985459D01*
X4719000Y19714541D01*
X4822676Y19464244D01*
X5014244Y19272676D01*
X5264541Y19169000D01*
X5535459Y19169000D01*
X5785756Y19272676D01*
X5977324Y19464244D01*
X6081000Y19714541D01*
X6081000Y19985459D01*
X5977324Y20235756D01*
X5785756Y20427324D01*
X5535459Y20531000D01*
X5264541Y20531000D01*
X5014244Y20427324D01*
X4822676Y20235756D01*
X4719000Y19985459D01*
X1960290Y19985459D01*
X1877324Y20185756D01*
X1685756Y20377324D01*
X1470655Y20466421D01*
X1485756Y20472676D01*
X1677324Y20664244D01*
X1781000Y20914541D01*
X1781000Y21185459D01*
X1677324Y21435756D01*
X1485756Y21627324D01*
X1418093Y21655351D01*
X2219000Y21655351D01*
X2219000Y21344649D01*
X2337900Y21057599D01*
X2557599Y20837900D01*
X2844649Y20719000D01*
X3155351Y20719000D01*
X3442401Y20837900D01*
X3662100Y21057599D01*
X3781000Y21344649D01*
X3781000Y21655351D01*
X3662100Y21942401D01*
X3442401Y22162100D01*
X3155351Y22281000D01*
X2844649Y22281000D01*
X2557599Y22162100D01*
X2337900Y21942401D01*
X2219000Y21655351D01*
X1418093Y21655351D01*
X1235459Y21731000D01*
X964541Y21731000D01*
X714244Y21627324D01*
X522676Y21435756D01*
X456000Y21274785D01*
X456000Y22435459D01*
X4919000Y22435459D01*
X4919000Y22164541D01*
X5022676Y21914244D01*
X5214244Y21722676D01*
X5464541Y21619000D01*
X5735459Y21619000D01*
X5985756Y21722676D01*
X6177324Y21914244D01*
X6268953Y22135459D01*
X8719000Y22135459D01*
X8719000Y21864541D01*
X8822676Y21614244D01*
X9014244Y21422676D01*
X9264541Y21319000D01*
X9416462Y21319000D01*
X12305103Y18430358D01*
X12305103Y18107977D01*
X12260756Y18152324D01*
X12010459Y18256000D01*
X11739541Y18256000D01*
X11489244Y18152324D01*
X11297676Y17960756D01*
X11194000Y17710459D01*
X11194000Y17439541D01*
X11297676Y17189244D01*
X11405100Y17081820D01*
X11405100Y16556000D01*
X11139541Y16556000D01*
X10889244Y16452324D01*
X10697676Y16260756D01*
X10594000Y16010459D01*
X10594000Y15739541D01*
X10697676Y15489244D01*
X10805100Y15381820D01*
X10805100Y14015022D01*
X10585459Y14106000D01*
X10314541Y14106000D01*
X10064244Y14002324D01*
X9872676Y13810756D01*
X9769000Y13560459D01*
X9769000Y13289541D01*
X9872676Y13039244D01*
X10064244Y12847676D01*
X10314541Y12744000D01*
X10585459Y12744000D01*
X10805100Y12834978D01*
X10805100Y11910733D01*
X10635459Y11981000D01*
X10364541Y11981000D01*
X10114244Y11877324D01*
X9922676Y11685756D01*
X9819000Y11435459D01*
X9819000Y11164541D01*
X9922676Y10914244D01*
X9966375Y10870545D01*
X9869000Y10635459D01*
X9869000Y10364541D01*
X9972676Y10114244D01*
X10164244Y9922676D01*
X10414541Y9819000D01*
X10685459Y9819000D01*
X10805101Y9868557D01*
X10805101Y4968181D01*
X10722676Y4885756D01*
X10619000Y4635459D01*
X10619000Y4364541D01*
X10722676Y4114244D01*
X10914244Y3922676D01*
X11164541Y3819000D01*
X11435459Y3819000D01*
X11656261Y3910459D01*
X15269000Y3910459D01*
X15269000Y3639541D01*
X15372676Y3389244D01*
X15564244Y3197676D01*
X15814541Y3094000D01*
X16085459Y3094000D01*
X16335756Y3197676D01*
X16527324Y3389244D01*
X16631000Y3639541D01*
X16631000Y3910459D01*
X16527324Y4160756D01*
X16335756Y4352324D01*
X16085459Y4456000D01*
X15814541Y4456000D01*
X15564244Y4352324D01*
X15372676Y4160756D01*
X15269000Y3910459D01*
X11656261Y3910459D01*
X11685756Y3922676D01*
X11877324Y4114244D01*
X11981000Y4364541D01*
X11981000Y4635459D01*
X11877324Y4885756D01*
X11744900Y5018180D01*
X11744900Y5785459D01*
X16444000Y5785459D01*
X16444000Y5514541D01*
X16547676Y5264244D01*
X16739244Y5072676D01*
X16989541Y4969000D01*
X17260459Y4969000D01*
X17510756Y5072676D01*
X17650000Y5211920D01*
X17789244Y5072676D01*
X18039541Y4969000D01*
X18310459Y4969000D01*
X18560756Y5072676D01*
X18587500Y5099420D01*
X18689244Y4997676D01*
X18939541Y4894000D01*
X19210459Y4894000D01*
X19460756Y4997676D01*
X19537500Y5074420D01*
X19589244Y5022676D01*
X19839541Y4919000D01*
X20110459Y4919000D01*
X20360756Y5022676D01*
X20475000Y5136920D01*
X20539244Y5072676D01*
X20789541Y4969000D01*
X21060459Y4969000D01*
X21310756Y5072676D01*
X21502324Y5264244D01*
X21606000Y5514541D01*
X21606000Y5785459D01*
X21502324Y6035756D01*
X21310756Y6227324D01*
X21060459Y6331000D01*
X20789541Y6331000D01*
X20539244Y6227324D01*
X20425000Y6113080D01*
X20360756Y6177324D01*
X20110459Y6281000D01*
X19839541Y6281000D01*
X19589244Y6177324D01*
X19512500Y6100580D01*
X19460756Y6152324D01*
X19210459Y6256000D01*
X18939541Y6256000D01*
X18689244Y6152324D01*
X18662500Y6125580D01*
X18560756Y6227324D01*
X18310459Y6331000D01*
X18039541Y6331000D01*
X17789244Y6227324D01*
X17650000Y6088080D01*
X17510756Y6227324D01*
X17260459Y6331000D01*
X16989541Y6331000D01*
X16739244Y6227324D01*
X16547676Y6035756D01*
X16444000Y5785459D01*
X11744900Y5785459D01*
X11744900Y6469000D01*
X11985459Y6469000D01*
X12235756Y6572676D01*
X12427324Y6764244D01*
X12531000Y7014541D01*
X12531000Y7285459D01*
X12427324Y7535756D01*
X12344900Y7618180D01*
X12344900Y10591549D01*
X16713600Y10591549D01*
X16713600Y10320631D01*
X16817276Y10070334D01*
X17008844Y9878766D01*
X17259141Y9775090D01*
X17530059Y9775090D01*
X17780356Y9878766D01*
X17971924Y10070334D01*
X18075600Y10320631D01*
X18075600Y10591549D01*
X18613600Y10591549D01*
X18613600Y10320631D01*
X18717276Y10070334D01*
X18908844Y9878766D01*
X19159141Y9775090D01*
X19430059Y9775090D01*
X19680356Y9878766D01*
X19871924Y10070334D01*
X19975600Y10320631D01*
X19975600Y10591549D01*
X19871924Y10841846D01*
X19680356Y11033414D01*
X19430059Y11137090D01*
X19159141Y11137090D01*
X18908844Y11033414D01*
X18717276Y10841846D01*
X18613600Y10591549D01*
X18075600Y10591549D01*
X17971924Y10841846D01*
X17780356Y11033414D01*
X17530059Y11137090D01*
X17259141Y11137090D01*
X17008844Y11033414D01*
X16817276Y10841846D01*
X16713600Y10591549D01*
X12344900Y10591549D01*
X12344900Y11967026D01*
X12389247Y11922679D01*
X12639544Y11819003D01*
X12910462Y11819003D01*
X13160759Y11922679D01*
X13352327Y12114247D01*
X13456003Y12364544D01*
X13456003Y12635462D01*
X13352327Y12885759D01*
X13244903Y12993183D01*
X13244903Y15769000D01*
X13479362Y15769000D01*
X13729659Y15872676D01*
X13805101Y15948118D01*
X13805101Y13193181D01*
X13697676Y13085756D01*
X13594000Y12835459D01*
X13594000Y12564541D01*
X13697676Y12314244D01*
X13889244Y12122676D01*
X14139541Y12019000D01*
X14410459Y12019000D01*
X14660756Y12122676D01*
X14852324Y12314244D01*
X14936912Y12518459D01*
X16713600Y12518459D01*
X16713600Y12247541D01*
X16817276Y11997244D01*
X17008844Y11805676D01*
X17259141Y11702000D01*
X17530059Y11702000D01*
X17780356Y11805676D01*
X17971924Y11997244D01*
X18075600Y12247541D01*
X18075600Y12518459D01*
X18613600Y12518459D01*
X18613600Y12247541D01*
X18717276Y11997244D01*
X18908844Y11805676D01*
X19159141Y11702000D01*
X19430059Y11702000D01*
X19680356Y11805676D01*
X19871924Y11997244D01*
X19975600Y12247541D01*
X19975600Y12518459D01*
X19871924Y12768756D01*
X19680356Y12960324D01*
X19430059Y13064000D01*
X19159141Y13064000D01*
X18908844Y12960324D01*
X18717276Y12768756D01*
X18613600Y12518459D01*
X18075600Y12518459D01*
X17971924Y12768756D01*
X17780356Y12960324D01*
X17530059Y13064000D01*
X17259141Y13064000D01*
X17008844Y12960324D01*
X16817276Y12768756D01*
X16713600Y12518459D01*
X14936912Y12518459D01*
X14956000Y12564541D01*
X14956000Y12835459D01*
X14852324Y13085756D01*
X14744900Y13193180D01*
X14744900Y13639267D01*
X14914541Y13569000D01*
X15185459Y13569000D01*
X15435756Y13672676D01*
X15627324Y13864244D01*
X15731000Y14114541D01*
X15731000Y14385459D01*
X15627324Y14635756D01*
X15519900Y14743180D01*
X15519900Y15535459D01*
X16319000Y15535459D01*
X16319000Y15264541D01*
X16422676Y15014244D01*
X16614244Y14822676D01*
X16864541Y14719000D01*
X17135459Y14719000D01*
X17385756Y14822676D01*
X17577324Y15014244D01*
X17681000Y15264541D01*
X17681000Y15365408D01*
X17759592Y15444000D01*
X19963956Y15444000D01*
X19919000Y15335467D01*
X19919000Y15064549D01*
X20022676Y14814252D01*
X20214244Y14622684D01*
X20268336Y14600278D01*
X20169000Y14360459D01*
X20169000Y14089541D01*
X20272676Y13839244D01*
X20367400Y13744520D01*
X20367401Y9747533D01*
X20357946Y9700000D01*
X20387321Y9552324D01*
X20395402Y9511699D01*
X20502066Y9352065D01*
X20542361Y9325140D01*
X20769000Y9098502D01*
X20769000Y8964541D01*
X20872676Y8714244D01*
X21064244Y8522676D01*
X21314541Y8419000D01*
X21444000Y8419000D01*
X21444000Y8214541D01*
X21547676Y7964244D01*
X21739244Y7772676D01*
X21989541Y7669000D01*
X22260459Y7669000D01*
X22510756Y7772676D01*
X22536501Y7798421D01*
X22469000Y7635459D01*
X22469000Y7364541D01*
X22572676Y7114244D01*
X22764244Y6922676D01*
X23014541Y6819000D01*
X23285459Y6819000D01*
X23292401Y6821875D01*
X23292401Y5872533D01*
X23282946Y5825000D01*
X23305671Y5710756D01*
X23320402Y5636699D01*
X23427066Y5477065D01*
X23467362Y5450140D01*
X24227040Y4690462D01*
X23991223Y4592784D01*
X23799655Y4401216D01*
X23695979Y4150919D01*
X23695979Y3880001D01*
X23799655Y3629704D01*
X23991223Y3438136D01*
X24241520Y3334460D01*
X24512438Y3334460D01*
X24762735Y3438136D01*
X24954303Y3629704D01*
X24969801Y3667119D01*
X25114244Y3522676D01*
X25364541Y3419000D01*
X25635459Y3419000D01*
X25885756Y3522676D01*
X26077324Y3714244D01*
X26181000Y3964541D01*
X26181000Y4235459D01*
X26077324Y4485756D01*
X26033080Y4530000D01*
X29644884Y4530000D01*
X29740424Y4049688D01*
X30012499Y3642499D01*
X30419688Y3370424D01*
X30778761Y3299000D01*
X31021239Y3299000D01*
X31380312Y3370424D01*
X31787501Y3642499D01*
X32059576Y4049688D01*
X32155116Y4530000D01*
X32294884Y4530000D01*
X32390424Y4049688D01*
X32662499Y3642499D01*
X33069688Y3370424D01*
X33428761Y3299000D01*
X33671239Y3299000D01*
X34030312Y3370424D01*
X34437501Y3642499D01*
X34709576Y4049688D01*
X34805116Y4530000D01*
X34803127Y4540000D01*
X34944884Y4540000D01*
X35040424Y4059688D01*
X35312499Y3652499D01*
X35719688Y3380424D01*
X36078761Y3309000D01*
X36321239Y3309000D01*
X36680312Y3380424D01*
X37087501Y3652499D01*
X37359576Y4059688D01*
X37455116Y4540000D01*
X37359576Y5020312D01*
X37087501Y5427501D01*
X36680312Y5699576D01*
X36321239Y5771000D01*
X36078761Y5771000D01*
X35719688Y5699576D01*
X35312499Y5427501D01*
X35040424Y5020312D01*
X34944884Y4540000D01*
X34803127Y4540000D01*
X34709576Y5010312D01*
X34437501Y5417501D01*
X34030312Y5689576D01*
X33671239Y5761000D01*
X33428761Y5761000D01*
X33069688Y5689576D01*
X32662499Y5417501D01*
X32390424Y5010312D01*
X32294884Y4530000D01*
X32155116Y4530000D01*
X32059576Y5010312D01*
X31787501Y5417501D01*
X31380312Y5689576D01*
X31021239Y5761000D01*
X30778761Y5761000D01*
X30419688Y5689576D01*
X30012499Y5417501D01*
X29740424Y5010312D01*
X29644884Y4530000D01*
X26033080Y4530000D01*
X25885756Y4677324D01*
X25725833Y4743566D01*
X25735756Y4747676D01*
X25927324Y4939244D01*
X26031000Y5189541D01*
X26031000Y5460459D01*
X25927324Y5710756D01*
X25735756Y5902324D01*
X25485459Y6006000D01*
X25214541Y6006000D01*
X24964244Y5902324D01*
X24772676Y5710756D01*
X24713824Y5568674D01*
X24257600Y6024898D01*
X24257600Y8494520D01*
X24352324Y8589244D01*
X24456000Y8839541D01*
X24456000Y9110459D01*
X24352324Y9360756D01*
X24160756Y9552324D01*
X23910459Y9656000D01*
X23639541Y9656000D01*
X23389244Y9552324D01*
X23197676Y9360756D01*
X23094000Y9110459D01*
X23094000Y8839541D01*
X23197676Y8589244D01*
X23292400Y8494520D01*
X23292400Y8178125D01*
X23285459Y8181000D01*
X23014541Y8181000D01*
X22764244Y8077324D01*
X22738499Y8051579D01*
X22806000Y8214541D01*
X22806000Y8485459D01*
X22702324Y8735756D01*
X22510756Y8927324D01*
X22260459Y9031000D01*
X22131000Y9031000D01*
X22131000Y9235459D01*
X22027324Y9485756D01*
X21835756Y9677324D01*
X21585459Y9781000D01*
X21451498Y9781000D01*
X21332600Y9899898D01*
X21332600Y12885459D01*
X21444000Y12885459D01*
X21444000Y12614541D01*
X21547676Y12364244D01*
X21739244Y12172676D01*
X21989541Y12069000D01*
X22260459Y12069000D01*
X22503960Y12169861D01*
X22469000Y12085459D01*
X22469000Y11814541D01*
X22572676Y11564244D01*
X22764244Y11372676D01*
X23014541Y11269000D01*
X23285459Y11269000D01*
X23524492Y11368010D01*
X23875260Y11017242D01*
X23839244Y11002324D01*
X23647676Y10810756D01*
X23544000Y10560459D01*
X23544000Y10289541D01*
X23647676Y10039244D01*
X23839244Y9847676D01*
X24089541Y9744000D01*
X24360459Y9744000D01*
X24610756Y9847676D01*
X24617400Y9854320D01*
X24617401Y7605481D01*
X24522676Y7510756D01*
X24419000Y7260459D01*
X24419000Y6989541D01*
X24522676Y6739244D01*
X24714244Y6547676D01*
X24964541Y6444000D01*
X25235459Y6444000D01*
X25485756Y6547676D01*
X25677324Y6739244D01*
X25781000Y6989541D01*
X25781000Y7070000D01*
X29644884Y7070000D01*
X29740424Y6589688D01*
X30012499Y6182499D01*
X30419688Y5910424D01*
X30778761Y5839000D01*
X31021239Y5839000D01*
X31380312Y5910424D01*
X31787501Y6182499D01*
X32059576Y6589688D01*
X32155116Y7070000D01*
X32294884Y7070000D01*
X32390424Y6589688D01*
X32662499Y6182499D01*
X33069688Y5910424D01*
X33428761Y5839000D01*
X33671239Y5839000D01*
X34030312Y5910424D01*
X34437501Y6182499D01*
X34709576Y6589688D01*
X34805116Y7070000D01*
X34803127Y7080000D01*
X34944884Y7080000D01*
X35040424Y6599688D01*
X35312499Y6192499D01*
X35719688Y5920424D01*
X36078761Y5849000D01*
X36321239Y5849000D01*
X36680312Y5920424D01*
X37087501Y6192499D01*
X37359576Y6599688D01*
X37455116Y7080000D01*
X37359576Y7560312D01*
X37087501Y7967501D01*
X36680312Y8239576D01*
X36321239Y8311000D01*
X36078761Y8311000D01*
X35719688Y8239576D01*
X35312499Y7967501D01*
X35040424Y7560312D01*
X34944884Y7080000D01*
X34803127Y7080000D01*
X34709576Y7550312D01*
X34437501Y7957501D01*
X34030312Y8229576D01*
X33671239Y8301000D01*
X33428761Y8301000D01*
X33069688Y8229576D01*
X32662499Y7957501D01*
X32390424Y7550312D01*
X32294884Y7070000D01*
X32155116Y7070000D01*
X32059576Y7550312D01*
X31787501Y7957501D01*
X31380312Y8229576D01*
X31021239Y8301000D01*
X30778761Y8301000D01*
X30419688Y8229576D01*
X30012499Y7957501D01*
X29740424Y7550312D01*
X29644884Y7070000D01*
X25781000Y7070000D01*
X25781000Y7260459D01*
X25677324Y7510756D01*
X25582600Y7605480D01*
X25582600Y9610000D01*
X29644884Y9610000D01*
X29740424Y9129688D01*
X30012499Y8722499D01*
X30419688Y8450424D01*
X30778761Y8379000D01*
X31021239Y8379000D01*
X31380312Y8450424D01*
X31787501Y8722499D01*
X32059576Y9129688D01*
X32155116Y9610000D01*
X32294884Y9610000D01*
X32390424Y9129688D01*
X32662499Y8722499D01*
X33069688Y8450424D01*
X33428761Y8379000D01*
X33671239Y8379000D01*
X34030312Y8450424D01*
X34437501Y8722499D01*
X34709576Y9129688D01*
X34805116Y9610000D01*
X34803127Y9620000D01*
X34944884Y9620000D01*
X35040424Y9139688D01*
X35312499Y8732499D01*
X35719688Y8460424D01*
X36078761Y8389000D01*
X36321239Y8389000D01*
X36680312Y8460424D01*
X37087501Y8732499D01*
X37359576Y9139688D01*
X37455116Y9620000D01*
X37359576Y10100312D01*
X37087501Y10507501D01*
X36680312Y10779576D01*
X36321239Y10851000D01*
X36078761Y10851000D01*
X35719688Y10779576D01*
X35312499Y10507501D01*
X35040424Y10100312D01*
X34944884Y9620000D01*
X34803127Y9620000D01*
X34709576Y10090312D01*
X34437501Y10497501D01*
X34030312Y10769576D01*
X33671239Y10841000D01*
X33428761Y10841000D01*
X33069688Y10769576D01*
X32662499Y10497501D01*
X32390424Y10090312D01*
X32294884Y9610000D01*
X32155116Y9610000D01*
X32059576Y10090312D01*
X31787501Y10497501D01*
X31380312Y10769576D01*
X31021239Y10841000D01*
X30778761Y10841000D01*
X30419688Y10769576D01*
X30012499Y10497501D01*
X29740424Y10090312D01*
X29644884Y9610000D01*
X25582600Y9610000D01*
X25582600Y10427473D01*
X25592054Y10475001D01*
X25568871Y10591549D01*
X25554599Y10663301D01*
X25447935Y10822935D01*
X25439553Y10828536D01*
X25485756Y10847674D01*
X25677324Y11039242D01*
X25781000Y11289539D01*
X25781000Y11560457D01*
X25677324Y11810754D01*
X25485756Y12002322D01*
X25235459Y12105998D01*
X25181000Y12105998D01*
X25181000Y12150000D01*
X29644884Y12150000D01*
X29740424Y11669688D01*
X30012499Y11262499D01*
X30419688Y10990424D01*
X30778761Y10919000D01*
X31021239Y10919000D01*
X31380312Y10990424D01*
X31787501Y11262499D01*
X32059576Y11669688D01*
X32155116Y12150000D01*
X32294884Y12150000D01*
X32390424Y11669688D01*
X32662499Y11262499D01*
X33069688Y10990424D01*
X33428761Y10919000D01*
X33671239Y10919000D01*
X34030312Y10990424D01*
X34437501Y11262499D01*
X34709576Y11669688D01*
X34805116Y12150000D01*
X34803127Y12160000D01*
X34944884Y12160000D01*
X35040424Y11679688D01*
X35312499Y11272499D01*
X35719688Y11000424D01*
X36078761Y10929000D01*
X36321239Y10929000D01*
X36680312Y11000424D01*
X37087501Y11272499D01*
X37359576Y11679688D01*
X37455116Y12160000D01*
X37359576Y12640312D01*
X37087501Y13047501D01*
X36680312Y13319576D01*
X36321239Y13391000D01*
X36078761Y13391000D01*
X35719688Y13319576D01*
X35312499Y13047501D01*
X35040424Y12640312D01*
X34944884Y12160000D01*
X34803127Y12160000D01*
X34709576Y12630312D01*
X34437501Y13037501D01*
X34030312Y13309576D01*
X33671239Y13381000D01*
X33428761Y13381000D01*
X33069688Y13309576D01*
X32662499Y13037501D01*
X32390424Y12630312D01*
X32294884Y12150000D01*
X32155116Y12150000D01*
X32059576Y12630312D01*
X31787501Y13037501D01*
X31380312Y13309576D01*
X31021239Y13381000D01*
X30778761Y13381000D01*
X30419688Y13309576D01*
X30012499Y13037501D01*
X29740424Y12630312D01*
X29644884Y12150000D01*
X25181000Y12150000D01*
X25181000Y12335459D01*
X25077324Y12585756D01*
X24885756Y12777324D01*
X24635459Y12881000D01*
X24364541Y12881000D01*
X24114244Y12777324D01*
X23922676Y12585756D01*
X23840195Y12386629D01*
X23813301Y12404599D01*
X23680021Y12431110D01*
X23756000Y12614539D01*
X23756000Y12885457D01*
X23652324Y13135754D01*
X23460756Y13327322D01*
X23210459Y13430998D01*
X22939541Y13430998D01*
X22689244Y13327322D01*
X22600001Y13238079D01*
X22510756Y13327324D01*
X22260459Y13431000D01*
X21989541Y13431000D01*
X21739244Y13327324D01*
X21547676Y13135756D01*
X21444000Y12885459D01*
X21332600Y12885459D01*
X21332600Y13585459D01*
X26019000Y13585459D01*
X26019000Y13314541D01*
X26122676Y13064244D01*
X26314244Y12872676D01*
X26564541Y12769000D01*
X26835459Y12769000D01*
X27085756Y12872676D01*
X27277324Y13064244D01*
X27381000Y13314541D01*
X27381000Y13585459D01*
X27277324Y13835756D01*
X27085756Y14027324D01*
X26835459Y14131000D01*
X26564541Y14131000D01*
X26314244Y14027324D01*
X26122676Y13835756D01*
X26019000Y13585459D01*
X21332600Y13585459D01*
X21332600Y13744520D01*
X21427324Y13839244D01*
X21531000Y14089541D01*
X21531000Y14360459D01*
X21427324Y14610756D01*
X21235756Y14802324D01*
X21181664Y14824730D01*
X21258596Y15010463D01*
X23869000Y15010463D01*
X23869000Y14739545D01*
X23972676Y14489248D01*
X24164244Y14297680D01*
X24414541Y14194004D01*
X24685459Y14194004D01*
X24935756Y14297680D01*
X25127324Y14489248D01*
X25231000Y14739545D01*
X25231000Y15010463D01*
X25127324Y15260760D01*
X24935756Y15452328D01*
X24724097Y15540000D01*
X29661536Y15540000D01*
X29661536Y13840000D01*
X29691106Y13691341D01*
X29775314Y13565314D01*
X29901341Y13481106D01*
X30050000Y13451536D01*
X31750000Y13451536D01*
X31898659Y13481106D01*
X32024686Y13565314D01*
X32108894Y13691341D01*
X32138464Y13840000D01*
X32138464Y15540000D01*
X32311536Y15540000D01*
X32311536Y13840000D01*
X32341106Y13691341D01*
X32425314Y13565314D01*
X32551341Y13481106D01*
X32700000Y13451536D01*
X34400000Y13451536D01*
X34548659Y13481106D01*
X34674686Y13565314D01*
X34758894Y13691341D01*
X34788464Y13840000D01*
X34788464Y15540000D01*
X34786475Y15550000D01*
X34961536Y15550000D01*
X34961536Y13850000D01*
X34991106Y13701341D01*
X35075314Y13575314D01*
X35201341Y13491106D01*
X35350000Y13461536D01*
X37050000Y13461536D01*
X37198659Y13491106D01*
X37324686Y13575314D01*
X37408894Y13701341D01*
X37438464Y13850000D01*
X37438464Y15550000D01*
X37408894Y15698659D01*
X37324686Y15824686D01*
X37198659Y15908894D01*
X37050000Y15938464D01*
X35350000Y15938464D01*
X35201341Y15908894D01*
X35075314Y15824686D01*
X34991106Y15698659D01*
X34961536Y15550000D01*
X34786475Y15550000D01*
X34758894Y15688659D01*
X34674686Y15814686D01*
X34548659Y15898894D01*
X34400000Y15928464D01*
X32700000Y15928464D01*
X32551341Y15898894D01*
X32425314Y15814686D01*
X32341106Y15688659D01*
X32311536Y15540000D01*
X32138464Y15540000D01*
X32108894Y15688659D01*
X32024686Y15814686D01*
X31898659Y15898894D01*
X31750000Y15928464D01*
X30050000Y15928464D01*
X29901341Y15898894D01*
X29775314Y15814686D01*
X29691106Y15688659D01*
X29661536Y15540000D01*
X24724097Y15540000D01*
X24685459Y15556004D01*
X24414541Y15556004D01*
X24164244Y15452328D01*
X23972676Y15260760D01*
X23869000Y15010463D01*
X21258596Y15010463D01*
X21281000Y15064549D01*
X21281000Y15335467D01*
X21236044Y15444000D01*
X23300166Y15444000D01*
X23350000Y15434087D01*
X23399834Y15444000D01*
X23399835Y15444000D01*
X23547431Y15473359D01*
X23714806Y15585194D01*
X23743038Y15627447D01*
X24072555Y15956964D01*
X24114806Y15985194D01*
X24226641Y16152569D01*
X24256000Y16300165D01*
X24256000Y16300166D01*
X24265913Y16349999D01*
X24256000Y16399833D01*
X24256000Y17835459D01*
X35919000Y17835459D01*
X35919000Y17564541D01*
X36022676Y17314244D01*
X36214244Y17122676D01*
X36464541Y17019000D01*
X36735459Y17019000D01*
X36985756Y17122676D01*
X37177324Y17314244D01*
X37281000Y17564541D01*
X37281000Y17835459D01*
X37177324Y18085756D01*
X36985756Y18277324D01*
X36735459Y18381000D01*
X36464541Y18381000D01*
X36214244Y18277324D01*
X36022676Y18085756D01*
X35919000Y17835459D01*
X24256000Y17835459D01*
X24256000Y18684668D01*
X24414541Y18618998D01*
X24685459Y18618998D01*
X24935756Y18722674D01*
X25127324Y18914242D01*
X25231000Y19164539D01*
X25231000Y19435457D01*
X25127324Y19685754D01*
X24935756Y19877322D01*
X24855756Y19910459D01*
X27744002Y19910459D01*
X27744002Y19639541D01*
X27847678Y19389244D01*
X28039246Y19197676D01*
X28289543Y19094000D01*
X28560461Y19094000D01*
X28810758Y19197676D01*
X29002326Y19389244D01*
X29106002Y19639541D01*
X29106002Y19910459D01*
X29002326Y20160756D01*
X28927623Y20235459D01*
X35819000Y20235459D01*
X35819000Y19964541D01*
X35922676Y19714244D01*
X36114244Y19522676D01*
X36364541Y19419000D01*
X36635459Y19419000D01*
X36885756Y19522676D01*
X37077324Y19714244D01*
X37181000Y19964541D01*
X37181000Y20235459D01*
X37077324Y20485756D01*
X36885756Y20677324D01*
X36635459Y20781000D01*
X36364541Y20781000D01*
X36114244Y20677324D01*
X35922676Y20485756D01*
X35819000Y20235459D01*
X28927623Y20235459D01*
X28810758Y20352324D01*
X28560461Y20456000D01*
X28289543Y20456000D01*
X28039246Y20352324D01*
X27847678Y20160756D01*
X27744002Y19910459D01*
X24855756Y19910459D01*
X24685459Y19980998D01*
X24414541Y19980998D01*
X24256000Y19915328D01*
X24256000Y21655351D01*
X34219000Y21655351D01*
X34219000Y21344649D01*
X34337900Y21057599D01*
X34557599Y20837900D01*
X34844649Y20719000D01*
X35155351Y20719000D01*
X35442401Y20837900D01*
X35662100Y21057599D01*
X35781000Y21344649D01*
X35781000Y21655351D01*
X35662100Y21942401D01*
X35442401Y22162100D01*
X35155351Y22281000D01*
X34844649Y22281000D01*
X34557599Y22162100D01*
X34337900Y21942401D01*
X34219000Y21655351D01*
X24256000Y21655351D01*
X24256000Y22485459D01*
X31569000Y22485459D01*
X31569000Y22214541D01*
X31672676Y21964244D01*
X31864244Y21772676D01*
X32114541Y21669000D01*
X32385459Y21669000D01*
X32635756Y21772676D01*
X32827324Y21964244D01*
X32931000Y22214541D01*
X32931000Y22485459D01*
X32827324Y22735756D01*
X32635756Y22927324D01*
X32385459Y23031000D01*
X32114541Y23031000D01*
X31864244Y22927324D01*
X31672676Y22735756D01*
X31569000Y22485459D01*
X24256000Y22485459D01*
X24256000Y23735459D01*
X36069000Y23735459D01*
X36069000Y23464541D01*
X36172676Y23214244D01*
X36364244Y23022676D01*
X36614541Y22919000D01*
X36885459Y22919000D01*
X37135756Y23022676D01*
X37327324Y23214244D01*
X37431000Y23464541D01*
X37431000Y23735459D01*
X37327324Y23985756D01*
X37135756Y24177324D01*
X36885459Y24281000D01*
X36614541Y24281000D01*
X36364244Y24177324D01*
X36172676Y23985756D01*
X36069000Y23735459D01*
X24256000Y23735459D01*
X24256000Y29844861D01*
X28169000Y29844861D01*
X28169000Y29355139D01*
X28356408Y28902694D01*
X28702694Y28556408D01*
X29155139Y28369000D01*
X29644861Y28369000D01*
X30097306Y28556408D01*
X30443592Y28902694D01*
X30631000Y29355139D01*
X30631000Y29844861D01*
X30443592Y30297306D01*
X30097306Y30643592D01*
X29644861Y30831000D01*
X29155139Y30831000D01*
X28702694Y30643592D01*
X28356408Y30297306D01*
X28169000Y29844861D01*
X24256000Y29844861D01*
X24256000Y34492420D01*
X24800971Y35037390D01*
X24901838Y35037390D01*
X25138598Y35135459D01*
X30594000Y35135459D01*
X30594000Y34864541D01*
X30697676Y34614244D01*
X30889244Y34422676D01*
X31139541Y34319000D01*
X31410459Y34319000D01*
X31660756Y34422676D01*
X31852324Y34614244D01*
X31956000Y34864541D01*
X31956000Y35135459D01*
X31852324Y35385756D01*
X31660756Y35577324D01*
X31410459Y35681000D01*
X31139541Y35681000D01*
X30889244Y35577324D01*
X30697676Y35385756D01*
X30594000Y35135459D01*
X25138598Y35135459D01*
X25152135Y35141066D01*
X25343703Y35332634D01*
X25447379Y35582931D01*
X25447379Y35853849D01*
X25343703Y36104146D01*
X25152135Y36295714D01*
X24901838Y36399390D01*
X24630920Y36399390D01*
X24380623Y36295714D01*
X24189055Y36104146D01*
X24085379Y35853849D01*
X24085379Y35752982D01*
X23427445Y35095047D01*
X23385195Y35066817D01*
X23273360Y34899442D01*
X23234087Y34702011D01*
X23244001Y34652172D01*
X23244000Y16559592D01*
X23140409Y16456000D01*
X17931000Y16456000D01*
X17931000Y16635459D01*
X17827324Y16885756D01*
X17635756Y17077324D01*
X17603687Y17090607D01*
X17677324Y17164244D01*
X17781000Y17414541D01*
X17781000Y17685459D01*
X17677324Y17935756D01*
X17485756Y18127324D01*
X17235459Y18231000D01*
X16964541Y18231000D01*
X16714244Y18127324D01*
X16522676Y17935756D01*
X16419000Y17685459D01*
X16419000Y17414541D01*
X16522676Y17164244D01*
X16714244Y16972676D01*
X16746313Y16959393D01*
X16672676Y16885756D01*
X16569000Y16635459D01*
X16569000Y16364541D01*
X16672676Y16114244D01*
X16752379Y16034541D01*
X16614244Y15977324D01*
X16422676Y15785756D01*
X16319000Y15535459D01*
X15519900Y15535459D01*
X15519900Y18345333D01*
X15764541Y18244000D01*
X16035459Y18244000D01*
X16285756Y18347676D01*
X16373539Y18435459D01*
X20719000Y18435459D01*
X20719000Y18164541D01*
X20822676Y17914244D01*
X21014244Y17722676D01*
X21117024Y17680104D01*
X20972676Y17535756D01*
X20869000Y17285459D01*
X20869000Y17014541D01*
X20972676Y16764244D01*
X21164244Y16572676D01*
X21414541Y16469000D01*
X21685459Y16469000D01*
X21935756Y16572676D01*
X22127324Y16764244D01*
X22231000Y17014541D01*
X22231000Y17285459D01*
X22127324Y17535756D01*
X21935756Y17727324D01*
X21832976Y17769896D01*
X21977324Y17914244D01*
X22081000Y18164541D01*
X22081000Y18435459D01*
X21977324Y18685756D01*
X21785756Y18877324D01*
X21535459Y18981000D01*
X21264541Y18981000D01*
X21014244Y18877324D01*
X20822676Y18685756D01*
X20719000Y18435459D01*
X16373539Y18435459D01*
X16477324Y18539244D01*
X16581000Y18789541D01*
X16581000Y19060459D01*
X16477324Y19310756D01*
X16285756Y19502324D01*
X16035459Y19606000D01*
X15764541Y19606000D01*
X15519900Y19504667D01*
X15519900Y22285459D01*
X19494000Y22285459D01*
X19494000Y22014541D01*
X19597676Y21764244D01*
X19789244Y21572676D01*
X20039541Y21469000D01*
X20310459Y21469000D01*
X20560756Y21572676D01*
X20686501Y21698421D01*
X20619000Y21535459D01*
X20619000Y21264541D01*
X20722676Y21014244D01*
X20914244Y20822676D01*
X21164541Y20719000D01*
X21435459Y20719000D01*
X21685756Y20822676D01*
X21877324Y21014244D01*
X21981000Y21264541D01*
X21981000Y21535459D01*
X21877324Y21785756D01*
X21685756Y21977324D01*
X21435459Y22081000D01*
X21164541Y22081000D01*
X20914244Y21977324D01*
X20788499Y21851579D01*
X20856000Y22014541D01*
X20856000Y22285459D01*
X20752324Y22535756D01*
X20560756Y22727324D01*
X20310459Y22831000D01*
X20039541Y22831000D01*
X19789244Y22727324D01*
X19597676Y22535756D01*
X19494000Y22285459D01*
X15519900Y22285459D01*
X15519900Y23895398D01*
X15585756Y23922676D01*
X15777324Y24114244D01*
X15881000Y24364541D01*
X15881000Y24635459D01*
X15777324Y24885756D01*
X15585756Y25077324D01*
X15335459Y25181000D01*
X15064541Y25181000D01*
X14814244Y25077324D01*
X14744900Y25007980D01*
X14744900Y25306820D01*
X14852324Y25414244D01*
X14956000Y25664541D01*
X14956000Y25935459D01*
X14852324Y26185756D01*
X14660756Y26377324D01*
X14410459Y26481000D01*
X14139541Y26481000D01*
X13889244Y26377324D01*
X13697676Y26185756D01*
X13594000Y25935459D01*
X13594000Y25664541D01*
X13697676Y25414244D01*
X13805100Y25306820D01*
X13805101Y16951882D01*
X13729659Y17027324D01*
X13479362Y17131000D01*
X13244903Y17131000D01*
X13244903Y18578726D01*
X13254107Y18624998D01*
X13244903Y18671272D01*
X13244903Y18671273D01*
X13217638Y18808343D01*
X13113781Y18963775D01*
X13074552Y18989987D01*
X10081000Y21983538D01*
X10081000Y22135459D01*
X10039579Y22235459D01*
X10519000Y22235459D01*
X10519000Y21964541D01*
X10622676Y21714244D01*
X10814244Y21522676D01*
X11064541Y21419000D01*
X11335459Y21419000D01*
X11585756Y21522676D01*
X11777324Y21714244D01*
X11881000Y21964541D01*
X11881000Y22098501D01*
X12507642Y22725143D01*
X12547935Y22752065D01*
X12654599Y22911699D01*
X12682600Y23052471D01*
X12682600Y23052472D01*
X12692054Y23100000D01*
X12682600Y23147529D01*
X12682600Y23447528D01*
X12669900Y23511376D01*
X12669900Y31735459D01*
X18819000Y31735459D01*
X18819000Y31464541D01*
X18922676Y31214244D01*
X19114244Y31022676D01*
X19364541Y30919000D01*
X19635459Y30919000D01*
X19885756Y31022676D01*
X20077324Y31214244D01*
X20181000Y31464541D01*
X20181000Y31735459D01*
X20077324Y31985756D01*
X19885756Y32177324D01*
X19635459Y32281000D01*
X19364541Y32281000D01*
X19114244Y32177324D01*
X18922676Y31985756D01*
X18819000Y31735459D01*
X12669900Y31735459D01*
X12669900Y33006820D01*
X12777324Y33114244D01*
X12881000Y33364541D01*
X12881000Y33635459D01*
X12777324Y33885756D01*
X12585756Y34077324D01*
X12577577Y34080712D01*
X12538778Y34138778D01*
X12383345Y34242635D01*
X12200000Y34279105D01*
X12016654Y34242635D01*
X11861222Y34138778D01*
X11822424Y34080712D01*
X11814244Y34077324D01*
X11622676Y33885756D01*
X11519000Y33635459D01*
X11519000Y33364541D01*
X11622676Y33114244D01*
X11730100Y33006820D01*
X11730101Y23511380D01*
X11717400Y23447529D01*
X11717400Y23299900D01*
X11198501Y22781000D01*
X11064541Y22781000D01*
X10814244Y22677324D01*
X10622676Y22485756D01*
X10519000Y22235459D01*
X10039579Y22235459D01*
X9977324Y22385756D01*
X9785756Y22577324D01*
X9535459Y22681000D01*
X9264541Y22681000D01*
X9014244Y22577324D01*
X8822676Y22385756D01*
X8719000Y22135459D01*
X6268953Y22135459D01*
X6281000Y22164541D01*
X6281000Y22435459D01*
X6177324Y22685756D01*
X5985756Y22877324D01*
X5735459Y22981000D01*
X5464541Y22981000D01*
X5214244Y22877324D01*
X5022676Y22685756D01*
X4919000Y22435459D01*
X456000Y22435459D01*
X456000Y26935459D01*
X6019000Y26935459D01*
X6019000Y26664541D01*
X6122676Y26414244D01*
X6314244Y26222676D01*
X6564541Y26119000D01*
X6835459Y26119000D01*
X7085756Y26222676D01*
X7277324Y26414244D01*
X7381000Y26664541D01*
X7381000Y26935459D01*
X7277324Y27185756D01*
X7085756Y27377324D01*
X6835459Y27481000D01*
X6564541Y27481000D01*
X6314244Y27377324D01*
X6122676Y27185756D01*
X6019000Y26935459D01*
X456000Y26935459D01*
X456000Y29844861D01*
X7369000Y29844861D01*
X7369000Y29355139D01*
X7556408Y28902694D01*
X7902694Y28556408D01*
X8355139Y28369000D01*
X8844861Y28369000D01*
X9297306Y28556408D01*
X9643592Y28902694D01*
X9831000Y29355139D01*
X9831000Y29844861D01*
X9643592Y30297306D01*
X9297306Y30643592D01*
X8844861Y30831000D01*
X8355139Y30831000D01*
X7902694Y30643592D01*
X7556408Y30297306D01*
X7369000Y29844861D01*
X456000Y29844861D01*
X456000Y36844861D01*
X7369000Y36844861D01*
X7369000Y36355139D01*
X7556408Y35902694D01*
X7902694Y35556408D01*
X8355139Y35369000D01*
X8844861Y35369000D01*
X9297306Y35556408D01*
X9643592Y35902694D01*
X9831000Y36355139D01*
X9831000Y36844861D01*
X28169000Y36844861D01*
X28169000Y36355139D01*
X28356408Y35902694D01*
X28702694Y35556408D01*
X29155139Y35369000D01*
X29644861Y35369000D01*
X30097306Y35556408D01*
X30443592Y35902694D01*
X30631000Y36355139D01*
X30631000Y36844861D01*
X30443592Y37297306D01*
X30097306Y37643592D01*
X29644861Y37831000D01*
X29155139Y37831000D01*
X28702694Y37643592D01*
X28356408Y37297306D01*
X28169000Y36844861D01*
X9831000Y36844861D01*
X9643592Y37297306D01*
X9297306Y37643592D01*
X8844861Y37831000D01*
X8355139Y37831000D01*
X7902694Y37643592D01*
X7556408Y37297306D01*
X7369000Y36844861D01*
X456000Y36844861D01*
X456000Y38099630D01*
X458611Y38104960D01*
X475654Y38178489D01*
X542264Y38621546D01*
X704906Y38960246D01*
X959946Y39236147D01*
X1284839Y39424860D01*
X1677013Y39515761D01*
X1768885Y39519371D01*
X1897993Y39544000D01*
X36099630Y39544000D01*
X36104960Y39541389D01*
X36104960Y39541389D01*
G37*
X36104960Y39541389D02*
X36178489Y39524346D01*
X36621546Y39457736D01*
X36960246Y39295094D01*
X37236147Y39040054D01*
X37424860Y38715161D01*
X37515761Y38322987D01*
X37519371Y38231115D01*
X37544001Y38102001D01*
X37544000Y1900370D01*
X37541389Y1895040D01*
X37524346Y1821511D01*
X37457736Y1378454D01*
X37295094Y1039754D01*
X37040054Y763853D01*
X36715162Y575141D01*
X36322983Y484239D01*
X36231115Y480629D01*
X36102007Y456000D01*
X1900370Y456000D01*
X1895040Y458611D01*
X1821511Y475654D01*
X1378454Y542264D01*
X1039754Y704906D01*
X763853Y959946D01*
X575141Y1284838D01*
X484239Y1677017D01*
X480629Y1768885D01*
X456000Y1897993D01*
X456000Y2000000D01*
X494884Y2000000D01*
X590424Y1519688D01*
X862499Y1112499D01*
X1269688Y840424D01*
X1628761Y769000D01*
X1871239Y769000D01*
X2230312Y840424D01*
X2637501Y1112499D01*
X2909576Y1519688D01*
X3005116Y2000000D01*
X3144884Y2000000D01*
X3240424Y1519688D01*
X3512499Y1112499D01*
X3919688Y840424D01*
X4278761Y769000D01*
X4521239Y769000D01*
X4880312Y840424D01*
X5287501Y1112499D01*
X5559576Y1519688D01*
X5655116Y2000000D01*
X5794884Y2000000D01*
X5890424Y1519688D01*
X6162499Y1112499D01*
X6569688Y840424D01*
X6928761Y769000D01*
X7171239Y769000D01*
X7530312Y840424D01*
X7937501Y1112499D01*
X8209576Y1519688D01*
X8305116Y2000000D01*
X8209576Y2480312D01*
X8105912Y2635457D01*
X22669000Y2635457D01*
X22669000Y2364539D01*
X22772676Y2114242D01*
X22964244Y1922674D01*
X23214541Y1818998D01*
X23485459Y1818998D01*
X23735756Y1922674D01*
X23803082Y1990000D01*
X29644884Y1990000D01*
X29740424Y1509688D01*
X30012499Y1102499D01*
X30419688Y830424D01*
X30778761Y759000D01*
X31021239Y759000D01*
X31380312Y830424D01*
X31787501Y1102499D01*
X32059576Y1509688D01*
X32155116Y1990000D01*
X32294884Y1990000D01*
X32390424Y1509688D01*
X32662499Y1102499D01*
X33069688Y830424D01*
X33428761Y759000D01*
X33671239Y759000D01*
X34030312Y830424D01*
X34437501Y1102499D01*
X34709576Y1509688D01*
X34805116Y1990000D01*
X34803127Y2000000D01*
X34944884Y2000000D01*
X35040424Y1519688D01*
X35312499Y1112499D01*
X35719688Y840424D01*
X36078761Y769000D01*
X36321239Y769000D01*
X36680312Y840424D01*
X37087501Y1112499D01*
X37359576Y1519688D01*
X37455116Y2000000D01*
X37359576Y2480312D01*
X37087501Y2887501D01*
X36680312Y3159576D01*
X36321239Y3231000D01*
X36078761Y3231000D01*
X35719688Y3159576D01*
X35312499Y2887501D01*
X35040424Y2480312D01*
X34944884Y2000000D01*
X34803127Y2000000D01*
X34709576Y2470312D01*
X34437501Y2877501D01*
X34030312Y3149576D01*
X33671239Y3221000D01*
X33428761Y3221000D01*
X33069688Y3149576D01*
X32662499Y2877501D01*
X32390424Y2470312D01*
X32294884Y1990000D01*
X32155116Y1990000D01*
X32059576Y2470312D01*
X31787501Y2877501D01*
X31380312Y3149576D01*
X31021239Y3221000D01*
X30778761Y3221000D01*
X30419688Y3149576D01*
X30012499Y2877501D01*
X29740424Y2470312D01*
X29644884Y1990000D01*
X23803082Y1990000D01*
X23927324Y2114242D01*
X24031000Y2364539D01*
X24031000Y2635457D01*
X23927324Y2885754D01*
X23735756Y3077322D01*
X23485459Y3180998D01*
X23214541Y3180998D01*
X22964244Y3077322D01*
X22772676Y2885754D01*
X22669000Y2635457D01*
X8105912Y2635457D01*
X7937501Y2887501D01*
X7530312Y3159576D01*
X7171239Y3231000D01*
X6928761Y3231000D01*
X6569688Y3159576D01*
X6162499Y2887501D01*
X5890424Y2480312D01*
X5794884Y2000000D01*
X5655116Y2000000D01*
X5559576Y2480312D01*
X5287501Y2887501D01*
X4880312Y3159576D01*
X4521239Y3231000D01*
X4278761Y3231000D01*
X3919688Y3159576D01*
X3512499Y2887501D01*
X3240424Y2480312D01*
X3144884Y2000000D01*
X3005116Y2000000D01*
X2909576Y2480312D01*
X2637501Y2887501D01*
X2230312Y3159576D01*
X1871239Y3231000D01*
X1628761Y3231000D01*
X1269688Y3159576D01*
X862499Y2887501D01*
X590424Y2480312D01*
X494884Y2000000D01*
X456000Y2000000D01*
X456000Y4540000D01*
X494884Y4540000D01*
X590424Y4059688D01*
X862499Y3652499D01*
X1269688Y3380424D01*
X1628761Y3309000D01*
X1871239Y3309000D01*
X2230312Y3380424D01*
X2637501Y3652499D01*
X2909576Y4059688D01*
X3005116Y4540000D01*
X3144884Y4540000D01*
X3240424Y4059688D01*
X3512499Y3652499D01*
X3919688Y3380424D01*
X4278761Y3309000D01*
X4521239Y3309000D01*
X4880312Y3380424D01*
X5287501Y3652499D01*
X5559576Y4059688D01*
X5655116Y4540000D01*
X5794884Y4540000D01*
X5890424Y4059688D01*
X6162499Y3652499D01*
X6569688Y3380424D01*
X6928761Y3309000D01*
X7171239Y3309000D01*
X7530312Y3380424D01*
X7937501Y3652499D01*
X8209576Y4059688D01*
X8305116Y4540000D01*
X8209576Y5020312D01*
X7937501Y5427501D01*
X7530312Y5699576D01*
X7171239Y5771000D01*
X6928761Y5771000D01*
X6569688Y5699576D01*
X6162499Y5427501D01*
X5890424Y5020312D01*
X5794884Y4540000D01*
X5655116Y4540000D01*
X5559576Y5020312D01*
X5287501Y5427501D01*
X4880312Y5699576D01*
X4521239Y5771000D01*
X4278761Y5771000D01*
X3919688Y5699576D01*
X3512499Y5427501D01*
X3240424Y5020312D01*
X3144884Y4540000D01*
X3005116Y4540000D01*
X2909576Y5020312D01*
X2637501Y5427501D01*
X2230312Y5699576D01*
X1871239Y5771000D01*
X1628761Y5771000D01*
X1269688Y5699576D01*
X862499Y5427501D01*
X590424Y5020312D01*
X494884Y4540000D01*
X456000Y4540000D01*
X456000Y7080000D01*
X494884Y7080000D01*
X590424Y6599688D01*
X862499Y6192499D01*
X1269688Y5920424D01*
X1628761Y5849000D01*
X1871239Y5849000D01*
X2230312Y5920424D01*
X2637501Y6192499D01*
X2909576Y6599688D01*
X3005116Y7080000D01*
X3144884Y7080000D01*
X3240424Y6599688D01*
X3512499Y6192499D01*
X3919688Y5920424D01*
X4278761Y5849000D01*
X4521239Y5849000D01*
X4880312Y5920424D01*
X5287501Y6192499D01*
X5559576Y6599688D01*
X5655116Y7080000D01*
X5794884Y7080000D01*
X5890424Y6599688D01*
X6162499Y6192499D01*
X6569688Y5920424D01*
X6928761Y5849000D01*
X7171239Y5849000D01*
X7530312Y5920424D01*
X7937501Y6192499D01*
X8209576Y6599688D01*
X8305116Y7080000D01*
X8209576Y7560312D01*
X7937501Y7967501D01*
X7530312Y8239576D01*
X7171239Y8311000D01*
X6928761Y8311000D01*
X6569688Y8239576D01*
X6162499Y7967501D01*
X5890424Y7560312D01*
X5794884Y7080000D01*
X5655116Y7080000D01*
X5559576Y7560312D01*
X5287501Y7967501D01*
X4880312Y8239576D01*
X4521239Y8311000D01*
X4278761Y8311000D01*
X3919688Y8239576D01*
X3512499Y7967501D01*
X3240424Y7560312D01*
X3144884Y7080000D01*
X3005116Y7080000D01*
X2909576Y7560312D01*
X2637501Y7967501D01*
X2230312Y8239576D01*
X1871239Y8311000D01*
X1628761Y8311000D01*
X1269688Y8239576D01*
X862499Y7967501D01*
X590424Y7560312D01*
X494884Y7080000D01*
X456000Y7080000D01*
X456000Y9620000D01*
X494884Y9620000D01*
X590424Y9139688D01*
X862499Y8732499D01*
X1269688Y8460424D01*
X1628761Y8389000D01*
X1871239Y8389000D01*
X2230312Y8460424D01*
X2637501Y8732499D01*
X2909576Y9139688D01*
X3005116Y9620000D01*
X3144884Y9620000D01*
X3240424Y9139688D01*
X3512499Y8732499D01*
X3919688Y8460424D01*
X4278761Y8389000D01*
X4521239Y8389000D01*
X4880312Y8460424D01*
X5287501Y8732499D01*
X5559576Y9139688D01*
X5655116Y9620000D01*
X5794884Y9620000D01*
X5890424Y9139688D01*
X6162499Y8732499D01*
X6569688Y8460424D01*
X6928761Y8389000D01*
X7171239Y8389000D01*
X7530312Y8460424D01*
X7937501Y8732499D01*
X8209576Y9139688D01*
X8305116Y9620000D01*
X8209576Y10100312D01*
X7937501Y10507501D01*
X7530312Y10779576D01*
X7171239Y10851000D01*
X6928761Y10851000D01*
X6569688Y10779576D01*
X6162499Y10507501D01*
X5890424Y10100312D01*
X5794884Y9620000D01*
X5655116Y9620000D01*
X5559576Y10100312D01*
X5287501Y10507501D01*
X4880312Y10779576D01*
X4521239Y10851000D01*
X4278761Y10851000D01*
X3919688Y10779576D01*
X3512499Y10507501D01*
X3240424Y10100312D01*
X3144884Y9620000D01*
X3005116Y9620000D01*
X2909576Y10100312D01*
X2637501Y10507501D01*
X2230312Y10779576D01*
X1871239Y10851000D01*
X1628761Y10851000D01*
X1269688Y10779576D01*
X862499Y10507501D01*
X590424Y10100312D01*
X494884Y9620000D01*
X456000Y9620000D01*
X456000Y12160000D01*
X494884Y12160000D01*
X590424Y11679688D01*
X862499Y11272499D01*
X1269688Y11000424D01*
X1628761Y10929000D01*
X1871239Y10929000D01*
X2230312Y11000424D01*
X2637501Y11272499D01*
X2909576Y11679688D01*
X3005116Y12160000D01*
X3144884Y12160000D01*
X3240424Y11679688D01*
X3512499Y11272499D01*
X3919688Y11000424D01*
X4278761Y10929000D01*
X4521239Y10929000D01*
X4880312Y11000424D01*
X5287501Y11272499D01*
X5559576Y11679688D01*
X5655116Y12160000D01*
X5794884Y12160000D01*
X5890424Y11679688D01*
X6162499Y11272499D01*
X6569688Y11000424D01*
X6928761Y10929000D01*
X7171239Y10929000D01*
X7530312Y11000424D01*
X7937501Y11272499D01*
X8209576Y11679688D01*
X8305116Y12160000D01*
X8209576Y12640312D01*
X7937501Y13047501D01*
X7530312Y13319576D01*
X7171239Y13391000D01*
X6928761Y13391000D01*
X6569688Y13319576D01*
X6162499Y13047501D01*
X5890424Y12640312D01*
X5794884Y12160000D01*
X5655116Y12160000D01*
X5559576Y12640312D01*
X5287501Y13047501D01*
X4880312Y13319576D01*
X4521239Y13391000D01*
X4278761Y13391000D01*
X3919688Y13319576D01*
X3512499Y13047501D01*
X3240424Y12640312D01*
X3144884Y12160000D01*
X3005116Y12160000D01*
X2909576Y12640312D01*
X2637501Y13047501D01*
X2230312Y13319576D01*
X1871239Y13391000D01*
X1628761Y13391000D01*
X1269688Y13319576D01*
X862499Y13047501D01*
X590424Y12640312D01*
X494884Y12160000D01*
X456000Y12160000D01*
X456000Y14477750D01*
X519000Y14477750D01*
X519000Y13774215D01*
X577004Y13634181D01*
X684180Y13527004D01*
X824214Y13469000D01*
X1527750Y13469000D01*
X1623000Y13564250D01*
X1623000Y14573000D01*
X1877000Y14573000D01*
X1877000Y13564250D01*
X1972250Y13469000D01*
X2675786Y13469000D01*
X2815820Y13527004D01*
X2922996Y13634181D01*
X2981000Y13774215D01*
X2981000Y14477750D01*
X2885750Y14573000D01*
X1877000Y14573000D01*
X1623000Y14573000D01*
X614250Y14573000D01*
X519000Y14477750D01*
X456000Y14477750D01*
X456000Y15625785D01*
X519000Y15625785D01*
X519000Y14922250D01*
X614250Y14827000D01*
X1623000Y14827000D01*
X1623000Y15835750D01*
X1877000Y15835750D01*
X1877000Y14827000D01*
X2885750Y14827000D01*
X2981000Y14922250D01*
X2981000Y15550000D01*
X3161536Y15550000D01*
X3161536Y13850000D01*
X3191106Y13701341D01*
X3275314Y13575314D01*
X3401341Y13491106D01*
X3550000Y13461536D01*
X5250000Y13461536D01*
X5398659Y13491106D01*
X5524686Y13575314D01*
X5608894Y13701341D01*
X5638464Y13850000D01*
X5638464Y14477750D01*
X5819000Y14477750D01*
X5819000Y13774215D01*
X5877004Y13634181D01*
X5984180Y13527004D01*
X6124214Y13469000D01*
X6827750Y13469000D01*
X6923000Y13564250D01*
X6923000Y14573000D01*
X7177000Y14573000D01*
X7177000Y13564250D01*
X7272250Y13469000D01*
X7975786Y13469000D01*
X8115820Y13527004D01*
X8222996Y13634181D01*
X8281000Y13774215D01*
X8281000Y14477750D01*
X8185750Y14573000D01*
X7177000Y14573000D01*
X6923000Y14573000D01*
X5914250Y14573000D01*
X5819000Y14477750D01*
X5638464Y14477750D01*
X5638464Y15550000D01*
X5623390Y15625785D01*
X5819000Y15625785D01*
X5819000Y14922250D01*
X5914250Y14827000D01*
X6923000Y14827000D01*
X6923000Y15835750D01*
X7177000Y15835750D01*
X7177000Y14827000D01*
X8185750Y14827000D01*
X8281000Y14922250D01*
X8281000Y15625785D01*
X8222996Y15765819D01*
X8115820Y15872996D01*
X7975786Y15931000D01*
X7272250Y15931000D01*
X7177000Y15835750D01*
X6923000Y15835750D01*
X6827750Y15931000D01*
X6124214Y15931000D01*
X5984180Y15872996D01*
X5877004Y15765819D01*
X5819000Y15625785D01*
X5623390Y15625785D01*
X5608894Y15698659D01*
X5524686Y15824686D01*
X5398659Y15908894D01*
X5250000Y15938464D01*
X3550000Y15938464D01*
X3401341Y15908894D01*
X3275314Y15824686D01*
X3191106Y15698659D01*
X3161536Y15550000D01*
X2981000Y15550000D01*
X2981000Y15625785D01*
X2922996Y15765819D01*
X2815820Y15872996D01*
X2675786Y15931000D01*
X1972250Y15931000D01*
X1877000Y15835750D01*
X1623000Y15835750D01*
X1527750Y15931000D01*
X824214Y15931000D01*
X684180Y15872996D01*
X577004Y15765819D01*
X519000Y15625785D01*
X456000Y15625785D01*
X456000Y18035459D01*
X3719000Y18035459D01*
X3719000Y17764541D01*
X3822676Y17514244D01*
X4014244Y17322676D01*
X4264541Y17219000D01*
X4535459Y17219000D01*
X4785756Y17322676D01*
X4977324Y17514244D01*
X5081000Y17764541D01*
X5081000Y18035459D01*
X4977324Y18285756D01*
X4785756Y18477324D01*
X4535459Y18581000D01*
X4264541Y18581000D01*
X4014244Y18477324D01*
X3822676Y18285756D01*
X3719000Y18035459D01*
X456000Y18035459D01*
X456000Y20825215D01*
X522676Y20664244D01*
X714244Y20472676D01*
X929345Y20383579D01*
X914244Y20377324D01*
X722676Y20185756D01*
X619000Y19935459D01*
X619000Y19664541D01*
X722676Y19414244D01*
X914244Y19222676D01*
X1164541Y19119000D01*
X1435459Y19119000D01*
X1685756Y19222676D01*
X1877324Y19414244D01*
X1981000Y19664541D01*
X1981000Y19935459D01*
X1960290Y19985459D01*
X4719000Y19985459D01*
X4719000Y19714541D01*
X4822676Y19464244D01*
X5014244Y19272676D01*
X5264541Y19169000D01*
X5535459Y19169000D01*
X5785756Y19272676D01*
X5977324Y19464244D01*
X6081000Y19714541D01*
X6081000Y19985459D01*
X5977324Y20235756D01*
X5785756Y20427324D01*
X5535459Y20531000D01*
X5264541Y20531000D01*
X5014244Y20427324D01*
X4822676Y20235756D01*
X4719000Y19985459D01*
X1960290Y19985459D01*
X1877324Y20185756D01*
X1685756Y20377324D01*
X1470655Y20466421D01*
X1485756Y20472676D01*
X1677324Y20664244D01*
X1781000Y20914541D01*
X1781000Y21185459D01*
X1677324Y21435756D01*
X1485756Y21627324D01*
X1418093Y21655351D01*
X2219000Y21655351D01*
X2219000Y21344649D01*
X2337900Y21057599D01*
X2557599Y20837900D01*
X2844649Y20719000D01*
X3155351Y20719000D01*
X3442401Y20837900D01*
X3662100Y21057599D01*
X3781000Y21344649D01*
X3781000Y21655351D01*
X3662100Y21942401D01*
X3442401Y22162100D01*
X3155351Y22281000D01*
X2844649Y22281000D01*
X2557599Y22162100D01*
X2337900Y21942401D01*
X2219000Y21655351D01*
X1418093Y21655351D01*
X1235459Y21731000D01*
X964541Y21731000D01*
X714244Y21627324D01*
X522676Y21435756D01*
X456000Y21274785D01*
X456000Y22435459D01*
X4919000Y22435459D01*
X4919000Y22164541D01*
X5022676Y21914244D01*
X5214244Y21722676D01*
X5464541Y21619000D01*
X5735459Y21619000D01*
X5985756Y21722676D01*
X6177324Y21914244D01*
X6268953Y22135459D01*
X8719000Y22135459D01*
X8719000Y21864541D01*
X8822676Y21614244D01*
X9014244Y21422676D01*
X9264541Y21319000D01*
X9416462Y21319000D01*
X12305103Y18430358D01*
X12305103Y18107977D01*
X12260756Y18152324D01*
X12010459Y18256000D01*
X11739541Y18256000D01*
X11489244Y18152324D01*
X11297676Y17960756D01*
X11194000Y17710459D01*
X11194000Y17439541D01*
X11297676Y17189244D01*
X11405100Y17081820D01*
X11405100Y16556000D01*
X11139541Y16556000D01*
X10889244Y16452324D01*
X10697676Y16260756D01*
X10594000Y16010459D01*
X10594000Y15739541D01*
X10697676Y15489244D01*
X10805100Y15381820D01*
X10805100Y14015022D01*
X10585459Y14106000D01*
X10314541Y14106000D01*
X10064244Y14002324D01*
X9872676Y13810756D01*
X9769000Y13560459D01*
X9769000Y13289541D01*
X9872676Y13039244D01*
X10064244Y12847676D01*
X10314541Y12744000D01*
X10585459Y12744000D01*
X10805100Y12834978D01*
X10805100Y11910733D01*
X10635459Y11981000D01*
X10364541Y11981000D01*
X10114244Y11877324D01*
X9922676Y11685756D01*
X9819000Y11435459D01*
X9819000Y11164541D01*
X9922676Y10914244D01*
X9966375Y10870545D01*
X9869000Y10635459D01*
X9869000Y10364541D01*
X9972676Y10114244D01*
X10164244Y9922676D01*
X10414541Y9819000D01*
X10685459Y9819000D01*
X10805101Y9868557D01*
X10805101Y4968181D01*
X10722676Y4885756D01*
X10619000Y4635459D01*
X10619000Y4364541D01*
X10722676Y4114244D01*
X10914244Y3922676D01*
X11164541Y3819000D01*
X11435459Y3819000D01*
X11656261Y3910459D01*
X15269000Y3910459D01*
X15269000Y3639541D01*
X15372676Y3389244D01*
X15564244Y3197676D01*
X15814541Y3094000D01*
X16085459Y3094000D01*
X16335756Y3197676D01*
X16527324Y3389244D01*
X16631000Y3639541D01*
X16631000Y3910459D01*
X16527324Y4160756D01*
X16335756Y4352324D01*
X16085459Y4456000D01*
X15814541Y4456000D01*
X15564244Y4352324D01*
X15372676Y4160756D01*
X15269000Y3910459D01*
X11656261Y3910459D01*
X11685756Y3922676D01*
X11877324Y4114244D01*
X11981000Y4364541D01*
X11981000Y4635459D01*
X11877324Y4885756D01*
X11744900Y5018180D01*
X11744900Y5785459D01*
X16444000Y5785459D01*
X16444000Y5514541D01*
X16547676Y5264244D01*
X16739244Y5072676D01*
X16989541Y4969000D01*
X17260459Y4969000D01*
X17510756Y5072676D01*
X17650000Y5211920D01*
X17789244Y5072676D01*
X18039541Y4969000D01*
X18310459Y4969000D01*
X18560756Y5072676D01*
X18587500Y5099420D01*
X18689244Y4997676D01*
X18939541Y4894000D01*
X19210459Y4894000D01*
X19460756Y4997676D01*
X19537500Y5074420D01*
X19589244Y5022676D01*
X19839541Y4919000D01*
X20110459Y4919000D01*
X20360756Y5022676D01*
X20475000Y5136920D01*
X20539244Y5072676D01*
X20789541Y4969000D01*
X21060459Y4969000D01*
X21310756Y5072676D01*
X21502324Y5264244D01*
X21606000Y5514541D01*
X21606000Y5785459D01*
X21502324Y6035756D01*
X21310756Y6227324D01*
X21060459Y6331000D01*
X20789541Y6331000D01*
X20539244Y6227324D01*
X20425000Y6113080D01*
X20360756Y6177324D01*
X20110459Y6281000D01*
X19839541Y6281000D01*
X19589244Y6177324D01*
X19512500Y6100580D01*
X19460756Y6152324D01*
X19210459Y6256000D01*
X18939541Y6256000D01*
X18689244Y6152324D01*
X18662500Y6125580D01*
X18560756Y6227324D01*
X18310459Y6331000D01*
X18039541Y6331000D01*
X17789244Y6227324D01*
X17650000Y6088080D01*
X17510756Y6227324D01*
X17260459Y6331000D01*
X16989541Y6331000D01*
X16739244Y6227324D01*
X16547676Y6035756D01*
X16444000Y5785459D01*
X11744900Y5785459D01*
X11744900Y6469000D01*
X11985459Y6469000D01*
X12235756Y6572676D01*
X12427324Y6764244D01*
X12531000Y7014541D01*
X12531000Y7285459D01*
X12427324Y7535756D01*
X12344900Y7618180D01*
X12344900Y10591549D01*
X16713600Y10591549D01*
X16713600Y10320631D01*
X16817276Y10070334D01*
X17008844Y9878766D01*
X17259141Y9775090D01*
X17530059Y9775090D01*
X17780356Y9878766D01*
X17971924Y10070334D01*
X18075600Y10320631D01*
X18075600Y10591549D01*
X18613600Y10591549D01*
X18613600Y10320631D01*
X18717276Y10070334D01*
X18908844Y9878766D01*
X19159141Y9775090D01*
X19430059Y9775090D01*
X19680356Y9878766D01*
X19871924Y10070334D01*
X19975600Y10320631D01*
X19975600Y10591549D01*
X19871924Y10841846D01*
X19680356Y11033414D01*
X19430059Y11137090D01*
X19159141Y11137090D01*
X18908844Y11033414D01*
X18717276Y10841846D01*
X18613600Y10591549D01*
X18075600Y10591549D01*
X17971924Y10841846D01*
X17780356Y11033414D01*
X17530059Y11137090D01*
X17259141Y11137090D01*
X17008844Y11033414D01*
X16817276Y10841846D01*
X16713600Y10591549D01*
X12344900Y10591549D01*
X12344900Y11967026D01*
X12389247Y11922679D01*
X12639544Y11819003D01*
X12910462Y11819003D01*
X13160759Y11922679D01*
X13352327Y12114247D01*
X13456003Y12364544D01*
X13456003Y12635462D01*
X13352327Y12885759D01*
X13244903Y12993183D01*
X13244903Y15769000D01*
X13479362Y15769000D01*
X13729659Y15872676D01*
X13805101Y15948118D01*
X13805101Y13193181D01*
X13697676Y13085756D01*
X13594000Y12835459D01*
X13594000Y12564541D01*
X13697676Y12314244D01*
X13889244Y12122676D01*
X14139541Y12019000D01*
X14410459Y12019000D01*
X14660756Y12122676D01*
X14852324Y12314244D01*
X14936912Y12518459D01*
X16713600Y12518459D01*
X16713600Y12247541D01*
X16817276Y11997244D01*
X17008844Y11805676D01*
X17259141Y11702000D01*
X17530059Y11702000D01*
X17780356Y11805676D01*
X17971924Y11997244D01*
X18075600Y12247541D01*
X18075600Y12518459D01*
X18613600Y12518459D01*
X18613600Y12247541D01*
X18717276Y11997244D01*
X18908844Y11805676D01*
X19159141Y11702000D01*
X19430059Y11702000D01*
X19680356Y11805676D01*
X19871924Y11997244D01*
X19975600Y12247541D01*
X19975600Y12518459D01*
X19871924Y12768756D01*
X19680356Y12960324D01*
X19430059Y13064000D01*
X19159141Y13064000D01*
X18908844Y12960324D01*
X18717276Y12768756D01*
X18613600Y12518459D01*
X18075600Y12518459D01*
X17971924Y12768756D01*
X17780356Y12960324D01*
X17530059Y13064000D01*
X17259141Y13064000D01*
X17008844Y12960324D01*
X16817276Y12768756D01*
X16713600Y12518459D01*
X14936912Y12518459D01*
X14956000Y12564541D01*
X14956000Y12835459D01*
X14852324Y13085756D01*
X14744900Y13193180D01*
X14744900Y13639267D01*
X14914541Y13569000D01*
X15185459Y13569000D01*
X15435756Y13672676D01*
X15627324Y13864244D01*
X15731000Y14114541D01*
X15731000Y14385459D01*
X15627324Y14635756D01*
X15519900Y14743180D01*
X15519900Y15535459D01*
X16319000Y15535459D01*
X16319000Y15264541D01*
X16422676Y15014244D01*
X16614244Y14822676D01*
X16864541Y14719000D01*
X17135459Y14719000D01*
X17385756Y14822676D01*
X17577324Y15014244D01*
X17681000Y15264541D01*
X17681000Y15365408D01*
X17759592Y15444000D01*
X19963956Y15444000D01*
X19919000Y15335467D01*
X19919000Y15064549D01*
X20022676Y14814252D01*
X20214244Y14622684D01*
X20268336Y14600278D01*
X20169000Y14360459D01*
X20169000Y14089541D01*
X20272676Y13839244D01*
X20367400Y13744520D01*
X20367401Y9747533D01*
X20357946Y9700000D01*
X20387321Y9552324D01*
X20395402Y9511699D01*
X20502066Y9352065D01*
X20542361Y9325140D01*
X20769000Y9098502D01*
X20769000Y8964541D01*
X20872676Y8714244D01*
X21064244Y8522676D01*
X21314541Y8419000D01*
X21444000Y8419000D01*
X21444000Y8214541D01*
X21547676Y7964244D01*
X21739244Y7772676D01*
X21989541Y7669000D01*
X22260459Y7669000D01*
X22510756Y7772676D01*
X22536501Y7798421D01*
X22469000Y7635459D01*
X22469000Y7364541D01*
X22572676Y7114244D01*
X22764244Y6922676D01*
X23014541Y6819000D01*
X23285459Y6819000D01*
X23292401Y6821875D01*
X23292401Y5872533D01*
X23282946Y5825000D01*
X23305671Y5710756D01*
X23320402Y5636699D01*
X23427066Y5477065D01*
X23467362Y5450140D01*
X24227040Y4690462D01*
X23991223Y4592784D01*
X23799655Y4401216D01*
X23695979Y4150919D01*
X23695979Y3880001D01*
X23799655Y3629704D01*
X23991223Y3438136D01*
X24241520Y3334460D01*
X24512438Y3334460D01*
X24762735Y3438136D01*
X24954303Y3629704D01*
X24969801Y3667119D01*
X25114244Y3522676D01*
X25364541Y3419000D01*
X25635459Y3419000D01*
X25885756Y3522676D01*
X26077324Y3714244D01*
X26181000Y3964541D01*
X26181000Y4235459D01*
X26077324Y4485756D01*
X26033080Y4530000D01*
X29644884Y4530000D01*
X29740424Y4049688D01*
X30012499Y3642499D01*
X30419688Y3370424D01*
X30778761Y3299000D01*
X31021239Y3299000D01*
X31380312Y3370424D01*
X31787501Y3642499D01*
X32059576Y4049688D01*
X32155116Y4530000D01*
X32294884Y4530000D01*
X32390424Y4049688D01*
X32662499Y3642499D01*
X33069688Y3370424D01*
X33428761Y3299000D01*
X33671239Y3299000D01*
X34030312Y3370424D01*
X34437501Y3642499D01*
X34709576Y4049688D01*
X34805116Y4530000D01*
X34803127Y4540000D01*
X34944884Y4540000D01*
X35040424Y4059688D01*
X35312499Y3652499D01*
X35719688Y3380424D01*
X36078761Y3309000D01*
X36321239Y3309000D01*
X36680312Y3380424D01*
X37087501Y3652499D01*
X37359576Y4059688D01*
X37455116Y4540000D01*
X37359576Y5020312D01*
X37087501Y5427501D01*
X36680312Y5699576D01*
X36321239Y5771000D01*
X36078761Y5771000D01*
X35719688Y5699576D01*
X35312499Y5427501D01*
X35040424Y5020312D01*
X34944884Y4540000D01*
X34803127Y4540000D01*
X34709576Y5010312D01*
X34437501Y5417501D01*
X34030312Y5689576D01*
X33671239Y5761000D01*
X33428761Y5761000D01*
X33069688Y5689576D01*
X32662499Y5417501D01*
X32390424Y5010312D01*
X32294884Y4530000D01*
X32155116Y4530000D01*
X32059576Y5010312D01*
X31787501Y5417501D01*
X31380312Y5689576D01*
X31021239Y5761000D01*
X30778761Y5761000D01*
X30419688Y5689576D01*
X30012499Y5417501D01*
X29740424Y5010312D01*
X29644884Y4530000D01*
X26033080Y4530000D01*
X25885756Y4677324D01*
X25725833Y4743566D01*
X25735756Y4747676D01*
X25927324Y4939244D01*
X26031000Y5189541D01*
X26031000Y5460459D01*
X25927324Y5710756D01*
X25735756Y5902324D01*
X25485459Y6006000D01*
X25214541Y6006000D01*
X24964244Y5902324D01*
X24772676Y5710756D01*
X24713824Y5568674D01*
X24257600Y6024898D01*
X24257600Y8494520D01*
X24352324Y8589244D01*
X24456000Y8839541D01*
X24456000Y9110459D01*
X24352324Y9360756D01*
X24160756Y9552324D01*
X23910459Y9656000D01*
X23639541Y9656000D01*
X23389244Y9552324D01*
X23197676Y9360756D01*
X23094000Y9110459D01*
X23094000Y8839541D01*
X23197676Y8589244D01*
X23292400Y8494520D01*
X23292400Y8178125D01*
X23285459Y8181000D01*
X23014541Y8181000D01*
X22764244Y8077324D01*
X22738499Y8051579D01*
X22806000Y8214541D01*
X22806000Y8485459D01*
X22702324Y8735756D01*
X22510756Y8927324D01*
X22260459Y9031000D01*
X22131000Y9031000D01*
X22131000Y9235459D01*
X22027324Y9485756D01*
X21835756Y9677324D01*
X21585459Y9781000D01*
X21451498Y9781000D01*
X21332600Y9899898D01*
X21332600Y12885459D01*
X21444000Y12885459D01*
X21444000Y12614541D01*
X21547676Y12364244D01*
X21739244Y12172676D01*
X21989541Y12069000D01*
X22260459Y12069000D01*
X22503960Y12169861D01*
X22469000Y12085459D01*
X22469000Y11814541D01*
X22572676Y11564244D01*
X22764244Y11372676D01*
X23014541Y11269000D01*
X23285459Y11269000D01*
X23524492Y11368010D01*
X23875260Y11017242D01*
X23839244Y11002324D01*
X23647676Y10810756D01*
X23544000Y10560459D01*
X23544000Y10289541D01*
X23647676Y10039244D01*
X23839244Y9847676D01*
X24089541Y9744000D01*
X24360459Y9744000D01*
X24610756Y9847676D01*
X24617400Y9854320D01*
X24617401Y7605481D01*
X24522676Y7510756D01*
X24419000Y7260459D01*
X24419000Y6989541D01*
X24522676Y6739244D01*
X24714244Y6547676D01*
X24964541Y6444000D01*
X25235459Y6444000D01*
X25485756Y6547676D01*
X25677324Y6739244D01*
X25781000Y6989541D01*
X25781000Y7070000D01*
X29644884Y7070000D01*
X29740424Y6589688D01*
X30012499Y6182499D01*
X30419688Y5910424D01*
X30778761Y5839000D01*
X31021239Y5839000D01*
X31380312Y5910424D01*
X31787501Y6182499D01*
X32059576Y6589688D01*
X32155116Y7070000D01*
X32294884Y7070000D01*
X32390424Y6589688D01*
X32662499Y6182499D01*
X33069688Y5910424D01*
X33428761Y5839000D01*
X33671239Y5839000D01*
X34030312Y5910424D01*
X34437501Y6182499D01*
X34709576Y6589688D01*
X34805116Y7070000D01*
X34803127Y7080000D01*
X34944884Y7080000D01*
X35040424Y6599688D01*
X35312499Y6192499D01*
X35719688Y5920424D01*
X36078761Y5849000D01*
X36321239Y5849000D01*
X36680312Y5920424D01*
X37087501Y6192499D01*
X37359576Y6599688D01*
X37455116Y7080000D01*
X37359576Y7560312D01*
X37087501Y7967501D01*
X36680312Y8239576D01*
X36321239Y8311000D01*
X36078761Y8311000D01*
X35719688Y8239576D01*
X35312499Y7967501D01*
X35040424Y7560312D01*
X34944884Y7080000D01*
X34803127Y7080000D01*
X34709576Y7550312D01*
X34437501Y7957501D01*
X34030312Y8229576D01*
X33671239Y8301000D01*
X33428761Y8301000D01*
X33069688Y8229576D01*
X32662499Y7957501D01*
X32390424Y7550312D01*
X32294884Y7070000D01*
X32155116Y7070000D01*
X32059576Y7550312D01*
X31787501Y7957501D01*
X31380312Y8229576D01*
X31021239Y8301000D01*
X30778761Y8301000D01*
X30419688Y8229576D01*
X30012499Y7957501D01*
X29740424Y7550312D01*
X29644884Y7070000D01*
X25781000Y7070000D01*
X25781000Y7260459D01*
X25677324Y7510756D01*
X25582600Y7605480D01*
X25582600Y9610000D01*
X29644884Y9610000D01*
X29740424Y9129688D01*
X30012499Y8722499D01*
X30419688Y8450424D01*
X30778761Y8379000D01*
X31021239Y8379000D01*
X31380312Y8450424D01*
X31787501Y8722499D01*
X32059576Y9129688D01*
X32155116Y9610000D01*
X32294884Y9610000D01*
X32390424Y9129688D01*
X32662499Y8722499D01*
X33069688Y8450424D01*
X33428761Y8379000D01*
X33671239Y8379000D01*
X34030312Y8450424D01*
X34437501Y8722499D01*
X34709576Y9129688D01*
X34805116Y9610000D01*
X34803127Y9620000D01*
X34944884Y9620000D01*
X35040424Y9139688D01*
X35312499Y8732499D01*
X35719688Y8460424D01*
X36078761Y8389000D01*
X36321239Y8389000D01*
X36680312Y8460424D01*
X37087501Y8732499D01*
X37359576Y9139688D01*
X37455116Y9620000D01*
X37359576Y10100312D01*
X37087501Y10507501D01*
X36680312Y10779576D01*
X36321239Y10851000D01*
X36078761Y10851000D01*
X35719688Y10779576D01*
X35312499Y10507501D01*
X35040424Y10100312D01*
X34944884Y9620000D01*
X34803127Y9620000D01*
X34709576Y10090312D01*
X34437501Y10497501D01*
X34030312Y10769576D01*
X33671239Y10841000D01*
X33428761Y10841000D01*
X33069688Y10769576D01*
X32662499Y10497501D01*
X32390424Y10090312D01*
X32294884Y9610000D01*
X32155116Y9610000D01*
X32059576Y10090312D01*
X31787501Y10497501D01*
X31380312Y10769576D01*
X31021239Y10841000D01*
X30778761Y10841000D01*
X30419688Y10769576D01*
X30012499Y10497501D01*
X29740424Y10090312D01*
X29644884Y9610000D01*
X25582600Y9610000D01*
X25582600Y10427473D01*
X25592054Y10475001D01*
X25568871Y10591549D01*
X25554599Y10663301D01*
X25447935Y10822935D01*
X25439553Y10828536D01*
X25485756Y10847674D01*
X25677324Y11039242D01*
X25781000Y11289539D01*
X25781000Y11560457D01*
X25677324Y11810754D01*
X25485756Y12002322D01*
X25235459Y12105998D01*
X25181000Y12105998D01*
X25181000Y12150000D01*
X29644884Y12150000D01*
X29740424Y11669688D01*
X30012499Y11262499D01*
X30419688Y10990424D01*
X30778761Y10919000D01*
X31021239Y10919000D01*
X31380312Y10990424D01*
X31787501Y11262499D01*
X32059576Y11669688D01*
X32155116Y12150000D01*
X32294884Y12150000D01*
X32390424Y11669688D01*
X32662499Y11262499D01*
X33069688Y10990424D01*
X33428761Y10919000D01*
X33671239Y10919000D01*
X34030312Y10990424D01*
X34437501Y11262499D01*
X34709576Y11669688D01*
X34805116Y12150000D01*
X34803127Y12160000D01*
X34944884Y12160000D01*
X35040424Y11679688D01*
X35312499Y11272499D01*
X35719688Y11000424D01*
X36078761Y10929000D01*
X36321239Y10929000D01*
X36680312Y11000424D01*
X37087501Y11272499D01*
X37359576Y11679688D01*
X37455116Y12160000D01*
X37359576Y12640312D01*
X37087501Y13047501D01*
X36680312Y13319576D01*
X36321239Y13391000D01*
X36078761Y13391000D01*
X35719688Y13319576D01*
X35312499Y13047501D01*
X35040424Y12640312D01*
X34944884Y12160000D01*
X34803127Y12160000D01*
X34709576Y12630312D01*
X34437501Y13037501D01*
X34030312Y13309576D01*
X33671239Y13381000D01*
X33428761Y13381000D01*
X33069688Y13309576D01*
X32662499Y13037501D01*
X32390424Y12630312D01*
X32294884Y12150000D01*
X32155116Y12150000D01*
X32059576Y12630312D01*
X31787501Y13037501D01*
X31380312Y13309576D01*
X31021239Y13381000D01*
X30778761Y13381000D01*
X30419688Y13309576D01*
X30012499Y13037501D01*
X29740424Y12630312D01*
X29644884Y12150000D01*
X25181000Y12150000D01*
X25181000Y12335459D01*
X25077324Y12585756D01*
X24885756Y12777324D01*
X24635459Y12881000D01*
X24364541Y12881000D01*
X24114244Y12777324D01*
X23922676Y12585756D01*
X23840195Y12386629D01*
X23813301Y12404599D01*
X23680021Y12431110D01*
X23756000Y12614539D01*
X23756000Y12885457D01*
X23652324Y13135754D01*
X23460756Y13327322D01*
X23210459Y13430998D01*
X22939541Y13430998D01*
X22689244Y13327322D01*
X22600001Y13238079D01*
X22510756Y13327324D01*
X22260459Y13431000D01*
X21989541Y13431000D01*
X21739244Y13327324D01*
X21547676Y13135756D01*
X21444000Y12885459D01*
X21332600Y12885459D01*
X21332600Y13585459D01*
X26019000Y13585459D01*
X26019000Y13314541D01*
X26122676Y13064244D01*
X26314244Y12872676D01*
X26564541Y12769000D01*
X26835459Y12769000D01*
X27085756Y12872676D01*
X27277324Y13064244D01*
X27381000Y13314541D01*
X27381000Y13585459D01*
X27277324Y13835756D01*
X27085756Y14027324D01*
X26835459Y14131000D01*
X26564541Y14131000D01*
X26314244Y14027324D01*
X26122676Y13835756D01*
X26019000Y13585459D01*
X21332600Y13585459D01*
X21332600Y13744520D01*
X21427324Y13839244D01*
X21531000Y14089541D01*
X21531000Y14360459D01*
X21427324Y14610756D01*
X21235756Y14802324D01*
X21181664Y14824730D01*
X21258596Y15010463D01*
X23869000Y15010463D01*
X23869000Y14739545D01*
X23972676Y14489248D01*
X24164244Y14297680D01*
X24414541Y14194004D01*
X24685459Y14194004D01*
X24935756Y14297680D01*
X25127324Y14489248D01*
X25231000Y14739545D01*
X25231000Y15010463D01*
X25127324Y15260760D01*
X24935756Y15452328D01*
X24724097Y15540000D01*
X29661536Y15540000D01*
X29661536Y13840000D01*
X29691106Y13691341D01*
X29775314Y13565314D01*
X29901341Y13481106D01*
X30050000Y13451536D01*
X31750000Y13451536D01*
X31898659Y13481106D01*
X32024686Y13565314D01*
X32108894Y13691341D01*
X32138464Y13840000D01*
X32138464Y15540000D01*
X32311536Y15540000D01*
X32311536Y13840000D01*
X32341106Y13691341D01*
X32425314Y13565314D01*
X32551341Y13481106D01*
X32700000Y13451536D01*
X34400000Y13451536D01*
X34548659Y13481106D01*
X34674686Y13565314D01*
X34758894Y13691341D01*
X34788464Y13840000D01*
X34788464Y15540000D01*
X34786475Y15550000D01*
X34961536Y15550000D01*
X34961536Y13850000D01*
X34991106Y13701341D01*
X35075314Y13575314D01*
X35201341Y13491106D01*
X35350000Y13461536D01*
X37050000Y13461536D01*
X37198659Y13491106D01*
X37324686Y13575314D01*
X37408894Y13701341D01*
X37438464Y13850000D01*
X37438464Y15550000D01*
X37408894Y15698659D01*
X37324686Y15824686D01*
X37198659Y15908894D01*
X37050000Y15938464D01*
X35350000Y15938464D01*
X35201341Y15908894D01*
X35075314Y15824686D01*
X34991106Y15698659D01*
X34961536Y15550000D01*
X34786475Y15550000D01*
X34758894Y15688659D01*
X34674686Y15814686D01*
X34548659Y15898894D01*
X34400000Y15928464D01*
X32700000Y15928464D01*
X32551341Y15898894D01*
X32425314Y15814686D01*
X32341106Y15688659D01*
X32311536Y15540000D01*
X32138464Y15540000D01*
X32108894Y15688659D01*
X32024686Y15814686D01*
X31898659Y15898894D01*
X31750000Y15928464D01*
X30050000Y15928464D01*
X29901341Y15898894D01*
X29775314Y15814686D01*
X29691106Y15688659D01*
X29661536Y15540000D01*
X24724097Y15540000D01*
X24685459Y15556004D01*
X24414541Y15556004D01*
X24164244Y15452328D01*
X23972676Y15260760D01*
X23869000Y15010463D01*
X21258596Y15010463D01*
X21281000Y15064549D01*
X21281000Y15335467D01*
X21236044Y15444000D01*
X23300166Y15444000D01*
X23350000Y15434087D01*
X23399834Y15444000D01*
X23399835Y15444000D01*
X23547431Y15473359D01*
X23714806Y15585194D01*
X23743038Y15627447D01*
X24072555Y15956964D01*
X24114806Y15985194D01*
X24226641Y16152569D01*
X24256000Y16300165D01*
X24256000Y16300166D01*
X24265913Y16349999D01*
X24256000Y16399833D01*
X24256000Y17835459D01*
X35919000Y17835459D01*
X35919000Y17564541D01*
X36022676Y17314244D01*
X36214244Y17122676D01*
X36464541Y17019000D01*
X36735459Y17019000D01*
X36985756Y17122676D01*
X37177324Y17314244D01*
X37281000Y17564541D01*
X37281000Y17835459D01*
X37177324Y18085756D01*
X36985756Y18277324D01*
X36735459Y18381000D01*
X36464541Y18381000D01*
X36214244Y18277324D01*
X36022676Y18085756D01*
X35919000Y17835459D01*
X24256000Y17835459D01*
X24256000Y18684668D01*
X24414541Y18618998D01*
X24685459Y18618998D01*
X24935756Y18722674D01*
X25127324Y18914242D01*
X25231000Y19164539D01*
X25231000Y19435457D01*
X25127324Y19685754D01*
X24935756Y19877322D01*
X24855756Y19910459D01*
X27744002Y19910459D01*
X27744002Y19639541D01*
X27847678Y19389244D01*
X28039246Y19197676D01*
X28289543Y19094000D01*
X28560461Y19094000D01*
X28810758Y19197676D01*
X29002326Y19389244D01*
X29106002Y19639541D01*
X29106002Y19910459D01*
X29002326Y20160756D01*
X28927623Y20235459D01*
X35819000Y20235459D01*
X35819000Y19964541D01*
X35922676Y19714244D01*
X36114244Y19522676D01*
X36364541Y19419000D01*
X36635459Y19419000D01*
X36885756Y19522676D01*
X37077324Y19714244D01*
X37181000Y19964541D01*
X37181000Y20235459D01*
X37077324Y20485756D01*
X36885756Y20677324D01*
X36635459Y20781000D01*
X36364541Y20781000D01*
X36114244Y20677324D01*
X35922676Y20485756D01*
X35819000Y20235459D01*
X28927623Y20235459D01*
X28810758Y20352324D01*
X28560461Y20456000D01*
X28289543Y20456000D01*
X28039246Y20352324D01*
X27847678Y20160756D01*
X27744002Y19910459D01*
X24855756Y19910459D01*
X24685459Y19980998D01*
X24414541Y19980998D01*
X24256000Y19915328D01*
X24256000Y21655351D01*
X34219000Y21655351D01*
X34219000Y21344649D01*
X34337900Y21057599D01*
X34557599Y20837900D01*
X34844649Y20719000D01*
X35155351Y20719000D01*
X35442401Y20837900D01*
X35662100Y21057599D01*
X35781000Y21344649D01*
X35781000Y21655351D01*
X35662100Y21942401D01*
X35442401Y22162100D01*
X35155351Y22281000D01*
X34844649Y22281000D01*
X34557599Y22162100D01*
X34337900Y21942401D01*
X34219000Y21655351D01*
X24256000Y21655351D01*
X24256000Y22485459D01*
X31569000Y22485459D01*
X31569000Y22214541D01*
X31672676Y21964244D01*
X31864244Y21772676D01*
X32114541Y21669000D01*
X32385459Y21669000D01*
X32635756Y21772676D01*
X32827324Y21964244D01*
X32931000Y22214541D01*
X32931000Y22485459D01*
X32827324Y22735756D01*
X32635756Y22927324D01*
X32385459Y23031000D01*
X32114541Y23031000D01*
X31864244Y22927324D01*
X31672676Y22735756D01*
X31569000Y22485459D01*
X24256000Y22485459D01*
X24256000Y23735459D01*
X36069000Y23735459D01*
X36069000Y23464541D01*
X36172676Y23214244D01*
X36364244Y23022676D01*
X36614541Y22919000D01*
X36885459Y22919000D01*
X37135756Y23022676D01*
X37327324Y23214244D01*
X37431000Y23464541D01*
X37431000Y23735459D01*
X37327324Y23985756D01*
X37135756Y24177324D01*
X36885459Y24281000D01*
X36614541Y24281000D01*
X36364244Y24177324D01*
X36172676Y23985756D01*
X36069000Y23735459D01*
X24256000Y23735459D01*
X24256000Y29844861D01*
X28169000Y29844861D01*
X28169000Y29355139D01*
X28356408Y28902694D01*
X28702694Y28556408D01*
X29155139Y28369000D01*
X29644861Y28369000D01*
X30097306Y28556408D01*
X30443592Y28902694D01*
X30631000Y29355139D01*
X30631000Y29844861D01*
X30443592Y30297306D01*
X30097306Y30643592D01*
X29644861Y30831000D01*
X29155139Y30831000D01*
X28702694Y30643592D01*
X28356408Y30297306D01*
X28169000Y29844861D01*
X24256000Y29844861D01*
X24256000Y34492420D01*
X24800971Y35037390D01*
X24901838Y35037390D01*
X25138598Y35135459D01*
X30594000Y35135459D01*
X30594000Y34864541D01*
X30697676Y34614244D01*
X30889244Y34422676D01*
X31139541Y34319000D01*
X31410459Y34319000D01*
X31660756Y34422676D01*
X31852324Y34614244D01*
X31956000Y34864541D01*
X31956000Y35135459D01*
X31852324Y35385756D01*
X31660756Y35577324D01*
X31410459Y35681000D01*
X31139541Y35681000D01*
X30889244Y35577324D01*
X30697676Y35385756D01*
X30594000Y35135459D01*
X25138598Y35135459D01*
X25152135Y35141066D01*
X25343703Y35332634D01*
X25447379Y35582931D01*
X25447379Y35853849D01*
X25343703Y36104146D01*
X25152135Y36295714D01*
X24901838Y36399390D01*
X24630920Y36399390D01*
X24380623Y36295714D01*
X24189055Y36104146D01*
X24085379Y35853849D01*
X24085379Y35752982D01*
X23427445Y35095047D01*
X23385195Y35066817D01*
X23273360Y34899442D01*
X23234087Y34702011D01*
X23244001Y34652172D01*
X23244000Y16559592D01*
X23140409Y16456000D01*
X17931000Y16456000D01*
X17931000Y16635459D01*
X17827324Y16885756D01*
X17635756Y17077324D01*
X17603687Y17090607D01*
X17677324Y17164244D01*
X17781000Y17414541D01*
X17781000Y17685459D01*
X17677324Y17935756D01*
X17485756Y18127324D01*
X17235459Y18231000D01*
X16964541Y18231000D01*
X16714244Y18127324D01*
X16522676Y17935756D01*
X16419000Y17685459D01*
X16419000Y17414541D01*
X16522676Y17164244D01*
X16714244Y16972676D01*
X16746313Y16959393D01*
X16672676Y16885756D01*
X16569000Y16635459D01*
X16569000Y16364541D01*
X16672676Y16114244D01*
X16752379Y16034541D01*
X16614244Y15977324D01*
X16422676Y15785756D01*
X16319000Y15535459D01*
X15519900Y15535459D01*
X15519900Y18345333D01*
X15764541Y18244000D01*
X16035459Y18244000D01*
X16285756Y18347676D01*
X16373539Y18435459D01*
X20719000Y18435459D01*
X20719000Y18164541D01*
X20822676Y17914244D01*
X21014244Y17722676D01*
X21117024Y17680104D01*
X20972676Y17535756D01*
X20869000Y17285459D01*
X20869000Y17014541D01*
X20972676Y16764244D01*
X21164244Y16572676D01*
X21414541Y16469000D01*
X21685459Y16469000D01*
X21935756Y16572676D01*
X22127324Y16764244D01*
X22231000Y17014541D01*
X22231000Y17285459D01*
X22127324Y17535756D01*
X21935756Y17727324D01*
X21832976Y17769896D01*
X21977324Y17914244D01*
X22081000Y18164541D01*
X22081000Y18435459D01*
X21977324Y18685756D01*
X21785756Y18877324D01*
X21535459Y18981000D01*
X21264541Y18981000D01*
X21014244Y18877324D01*
X20822676Y18685756D01*
X20719000Y18435459D01*
X16373539Y18435459D01*
X16477324Y18539244D01*
X16581000Y18789541D01*
X16581000Y19060459D01*
X16477324Y19310756D01*
X16285756Y19502324D01*
X16035459Y19606000D01*
X15764541Y19606000D01*
X15519900Y19504667D01*
X15519900Y22285459D01*
X19494000Y22285459D01*
X19494000Y22014541D01*
X19597676Y21764244D01*
X19789244Y21572676D01*
X20039541Y21469000D01*
X20310459Y21469000D01*
X20560756Y21572676D01*
X20686501Y21698421D01*
X20619000Y21535459D01*
X20619000Y21264541D01*
X20722676Y21014244D01*
X20914244Y20822676D01*
X21164541Y20719000D01*
X21435459Y20719000D01*
X21685756Y20822676D01*
X21877324Y21014244D01*
X21981000Y21264541D01*
X21981000Y21535459D01*
X21877324Y21785756D01*
X21685756Y21977324D01*
X21435459Y22081000D01*
X21164541Y22081000D01*
X20914244Y21977324D01*
X20788499Y21851579D01*
X20856000Y22014541D01*
X20856000Y22285459D01*
X20752324Y22535756D01*
X20560756Y22727324D01*
X20310459Y22831000D01*
X20039541Y22831000D01*
X19789244Y22727324D01*
X19597676Y22535756D01*
X19494000Y22285459D01*
X15519900Y22285459D01*
X15519900Y23895398D01*
X15585756Y23922676D01*
X15777324Y24114244D01*
X15881000Y24364541D01*
X15881000Y24635459D01*
X15777324Y24885756D01*
X15585756Y25077324D01*
X15335459Y25181000D01*
X15064541Y25181000D01*
X14814244Y25077324D01*
X14744900Y25007980D01*
X14744900Y25306820D01*
X14852324Y25414244D01*
X14956000Y25664541D01*
X14956000Y25935459D01*
X14852324Y26185756D01*
X14660756Y26377324D01*
X14410459Y26481000D01*
X14139541Y26481000D01*
X13889244Y26377324D01*
X13697676Y26185756D01*
X13594000Y25935459D01*
X13594000Y25664541D01*
X13697676Y25414244D01*
X13805100Y25306820D01*
X13805101Y16951882D01*
X13729659Y17027324D01*
X13479362Y17131000D01*
X13244903Y17131000D01*
X13244903Y18578726D01*
X13254107Y18624998D01*
X13244903Y18671272D01*
X13244903Y18671273D01*
X13217638Y18808343D01*
X13113781Y18963775D01*
X13074552Y18989987D01*
X10081000Y21983538D01*
X10081000Y22135459D01*
X10039579Y22235459D01*
X10519000Y22235459D01*
X10519000Y21964541D01*
X10622676Y21714244D01*
X10814244Y21522676D01*
X11064541Y21419000D01*
X11335459Y21419000D01*
X11585756Y21522676D01*
X11777324Y21714244D01*
X11881000Y21964541D01*
X11881000Y22098501D01*
X12507642Y22725143D01*
X12547935Y22752065D01*
X12654599Y22911699D01*
X12682600Y23052471D01*
X12682600Y23052472D01*
X12692054Y23100000D01*
X12682600Y23147529D01*
X12682600Y23447528D01*
X12669900Y23511376D01*
X12669900Y31735459D01*
X18819000Y31735459D01*
X18819000Y31464541D01*
X18922676Y31214244D01*
X19114244Y31022676D01*
X19364541Y30919000D01*
X19635459Y30919000D01*
X19885756Y31022676D01*
X20077324Y31214244D01*
X20181000Y31464541D01*
X20181000Y31735459D01*
X20077324Y31985756D01*
X19885756Y32177324D01*
X19635459Y32281000D01*
X19364541Y32281000D01*
X19114244Y32177324D01*
X18922676Y31985756D01*
X18819000Y31735459D01*
X12669900Y31735459D01*
X12669900Y33006820D01*
X12777324Y33114244D01*
X12881000Y33364541D01*
X12881000Y33635459D01*
X12777324Y33885756D01*
X12585756Y34077324D01*
X12577577Y34080712D01*
X12538778Y34138778D01*
X12383345Y34242635D01*
X12200000Y34279105D01*
X12016654Y34242635D01*
X11861222Y34138778D01*
X11822424Y34080712D01*
X11814244Y34077324D01*
X11622676Y33885756D01*
X11519000Y33635459D01*
X11519000Y33364541D01*
X11622676Y33114244D01*
X11730100Y33006820D01*
X11730101Y23511380D01*
X11717400Y23447529D01*
X11717400Y23299900D01*
X11198501Y22781000D01*
X11064541Y22781000D01*
X10814244Y22677324D01*
X10622676Y22485756D01*
X10519000Y22235459D01*
X10039579Y22235459D01*
X9977324Y22385756D01*
X9785756Y22577324D01*
X9535459Y22681000D01*
X9264541Y22681000D01*
X9014244Y22577324D01*
X8822676Y22385756D01*
X8719000Y22135459D01*
X6268953Y22135459D01*
X6281000Y22164541D01*
X6281000Y22435459D01*
X6177324Y22685756D01*
X5985756Y22877324D01*
X5735459Y22981000D01*
X5464541Y22981000D01*
X5214244Y22877324D01*
X5022676Y22685756D01*
X4919000Y22435459D01*
X456000Y22435459D01*
X456000Y26935459D01*
X6019000Y26935459D01*
X6019000Y26664541D01*
X6122676Y26414244D01*
X6314244Y26222676D01*
X6564541Y26119000D01*
X6835459Y26119000D01*
X7085756Y26222676D01*
X7277324Y26414244D01*
X7381000Y26664541D01*
X7381000Y26935459D01*
X7277324Y27185756D01*
X7085756Y27377324D01*
X6835459Y27481000D01*
X6564541Y27481000D01*
X6314244Y27377324D01*
X6122676Y27185756D01*
X6019000Y26935459D01*
X456000Y26935459D01*
X456000Y29844861D01*
X7369000Y29844861D01*
X7369000Y29355139D01*
X7556408Y28902694D01*
X7902694Y28556408D01*
X8355139Y28369000D01*
X8844861Y28369000D01*
X9297306Y28556408D01*
X9643592Y28902694D01*
X9831000Y29355139D01*
X9831000Y29844861D01*
X9643592Y30297306D01*
X9297306Y30643592D01*
X8844861Y30831000D01*
X8355139Y30831000D01*
X7902694Y30643592D01*
X7556408Y30297306D01*
X7369000Y29844861D01*
X456000Y29844861D01*
X456000Y36844861D01*
X7369000Y36844861D01*
X7369000Y36355139D01*
X7556408Y35902694D01*
X7902694Y35556408D01*
X8355139Y35369000D01*
X8844861Y35369000D01*
X9297306Y35556408D01*
X9643592Y35902694D01*
X9831000Y36355139D01*
X9831000Y36844861D01*
X28169000Y36844861D01*
X28169000Y36355139D01*
X28356408Y35902694D01*
X28702694Y35556408D01*
X29155139Y35369000D01*
X29644861Y35369000D01*
X30097306Y35556408D01*
X30443592Y35902694D01*
X30631000Y36355139D01*
X30631000Y36844861D01*
X30443592Y37297306D01*
X30097306Y37643592D01*
X29644861Y37831000D01*
X29155139Y37831000D01*
X28702694Y37643592D01*
X28356408Y37297306D01*
X28169000Y36844861D01*
X9831000Y36844861D01*
X9643592Y37297306D01*
X9297306Y37643592D01*
X8844861Y37831000D01*
X8355139Y37831000D01*
X7902694Y37643592D01*
X7556408Y37297306D01*
X7369000Y36844861D01*
X456000Y36844861D01*
X456000Y38099630D01*
X458611Y38104960D01*
X475654Y38178489D01*
X542264Y38621546D01*
X704906Y38960246D01*
X959946Y39236147D01*
X1284839Y39424860D01*
X1677013Y39515761D01*
X1768885Y39519371D01*
X1897993Y39544000D01*
X36099630Y39544000D01*
X36104960Y39541389D01*
G04 #@! TD*
M02*
